<?xml version="1.0" encoding="UTF-8"?>
<svg width="36px" height="31px" viewBox="0 0 36 31" version="1.1" xmlns="http://www.w3.org/2000/svg" xmlns:xlink="http://www.w3.org/1999/xlink">
    <defs></defs>
    <g id="Page-1" stroke="none" stroke-width="1" fill="none" fill-rule="evenodd">
        <g id="Main-Settings---Configuration" transform="translate(-234.000000, -345.000000)">
            <g id="Group-16" transform="translate(-2.000000, 0.000000)">
                <g id="Group-7" transform="translate(204.000000, 0.000000)">
                    <g id="Group-Copy-3" transform="translate(9.000000, 325.000000)">
                        <g id="Group-2" transform="translate(0.000000, 0.289855)">
                            <g id="Icon--Speed-Up" transform="translate(21.000000, 14.624744)">
                                <rect id="Rectangle-2" x="0" y="0" width="40" height="40.5797101"></rect>
                                <g id="Outline" transform="translate(2.000000, 6.000000)" fill="#FFFFFF" fill-rule="nonzero">
                                    <path d="M18,4.74705882 L27,12.6882353 L27,15.8823529 L27,26.4705882 L23.4,26.4705882 L23.4,19.4117647 L23.4,15.8823529 L19.8,15.8823529 L16.2,15.8823529 L12.6,15.8823529 L12.6,19.4117647 L12.6,26.4705882 L9,26.4705882 L9,15.8823529 L9,12.6882353 L18,4.74705882 Z M18,0 L0,15.8823529 L5.4,15.8823529 L5.4,30 L16.2,30 L16.2,19.4117647 L19.8,19.4117647 L19.8,30 L30.6,30 L30.6,15.8823529 L36,15.8823529 L18,0 Z" id="XMLID_1_"></path>
                                </g>
                            </g>
                        </g>
                    </g>
                </g>
            </g>
        </g>
    </g>
</svg>