<?xml version="1.0" encoding="UTF-8"?>
<svg width="28px" height="29px" viewBox="0 0 28 29" version="1.1" xmlns="http://www.w3.org/2000/svg" xmlns:xlink="http://www.w3.org/1999/xlink">
    <defs></defs>
    <g id="Page-1" stroke="none" stroke-width="1" fill="none" fill-rule="evenodd" opacity="0.699999988">
        <g id="Main-Settings---Configuration" transform="translate(-238.000000, -1191.000000)">
            <g id="Group-16" transform="translate(-2.000000, 0.000000)">
                <g id="Group-7" transform="translate(204.000000, 0.000000)">
                    <g id="Group-Copy-10" transform="translate(10.000000, 1170.000000)">
                        <g id="Group-2" transform="translate(20.000000, 14.500000)">
                            <g id="Icon---Group-&amp;-Minify-Copy-4">
                                <rect id="Rectangle-2" x="0" y="0" width="40" height="40.5797101"></rect>
                                <g id="Outline" transform="translate(6.187951, 7.477806)" fill="#FFFFFF" fill-rule="nonzero">
                                    <g id="Group">
                                        <path d="M13.7123002,0 C6.14311049,0 0,6.14311049 0,13.7123002 C0,21.2814899 6.14311049,27.4246004 13.7123002,27.4246004 C21.2814899,27.4246004 27.4246004,21.2814899 27.4246004,13.7123002 C27.4246004,6.14311049 21.2814899,0 13.7123002,0 Z M6.9521362,22.3236247 C7.54176511,21.0895177 11.1343878,19.8828353 13.7123002,19.8828353 C16.2902126,19.8828353 19.8965476,21.0895177 20.4724642,22.3236247 C18.6075914,23.8045532 16.262788,24.6821404 13.7123002,24.6821404 C11.1618124,24.6821404 8.81700903,23.8045532 6.9521362,22.3236247 Z M22.4333231,20.3353412 C20.4724642,17.949401 15.714296,17.1403753 13.7123002,17.1403753 C11.7103044,17.1403753 6.9521362,17.949401 4.99127727,20.3353412 C3.59262265,18.497893 2.74246004,16.2079388 2.74246004,13.7123002 C2.74246004,7.66517581 7.66517581,2.74246004 13.7123002,2.74246004 C19.7594246,2.74246004 24.6821404,7.66517581 24.6821404,13.7123002 C24.6821404,16.2079388 23.8319778,18.497893 22.4333231,20.3353412 Z" id="Shape"></path>
                                        <path d="M13.7123002,5.48492008 C11.052114,5.48492008 8.91299513,7.62403891 8.91299513,10.2842252 C8.91299513,12.9444114 11.052114,15.0835302 13.7123002,15.0835302 C16.3724864,15.0835302 18.5116053,12.9444114 18.5116053,10.2842252 C18.5116053,7.62403891 16.3724864,5.48492008 13.7123002,5.48492008 Z M13.7123002,12.3410702 C12.5741793,12.3410702 11.6554552,11.4223461 11.6554552,10.2842252 C11.6554552,9.14610424 12.5741793,8.22738012 13.7123002,8.22738012 C14.8504211,8.22738012 15.7691452,9.14610424 15.7691452,10.2842252 C15.7691452,11.4223461 14.8504211,12.3410702 13.7123002,12.3410702 Z" id="Shape"></path>
                                    </g>
                                </g>
                            </g>
                        </g>
                    </g>
                </g>
            </g>
        </g>
    </g>
</svg>