<?xml version="1.0" encoding="UTF-8"?>
<svg width="25px" height="25px" viewBox="0 0 25 25" version="1.1" xmlns="http://www.w3.org/2000/svg" xmlns:xlink="http://www.w3.org/1999/xlink">
    <defs></defs>
    <g id="Page-1" stroke="none" stroke-width="1" fill="none" fill-rule="evenodd" opacity="0.699999988">
        <g id="Main-Settings---Configuration" transform="translate(-240.000000, -1051.000000)">
            <g id="Group-16" transform="translate(-2.000000, 0.000000)">
                <g id="Group-7" transform="translate(204.000000, 0.000000)">
                    <g id="Group-Copy-12" transform="translate(10.000000, 1029.000000)">
                        <g id="Group-2" transform="translate(20.000000, 14.500000)">
                            <g id="Icon---Group-&amp;-Minify-Copy-5">
                                <rect id="Rectangle-2" x="0" y="0" width="40" height="40.5797101"></rect>
                                <g id="Icon---Group-&amp;-Minify" transform="translate(2.553569, 4.220033)">
                                    <g id="outline-text_format-24px" transform="translate(0.736419, 0.540743)">
                                        <g id="Bounding_Boxes">
                                            <polygon id="Shape" points="0 0 32.6233305 0 32.6233305 32.6233305 0 32.6233305"></polygon>
                                        </g>
                                        <g id="Outline" transform="translate(5.592571, 2.796285)" fill="#FFFFFF" fill-rule="nonzero">
                                            <path d="M0.0847359234,21.0032109 L0.0847359234,24.2344741 L23.217643,24.2344741 L23.217643,21.0032109 L0.0847359234,21.0032109 Z M7.5203132,14.2175581 L15.7820657,14.2175581 L17.2691812,17.7719477 L20.7391173,17.7719477 L12.8904524,0 L10.4119266,0 L2.56326168,17.7719477 L6.03319775,17.7719477 L7.5203132,14.2175581 Z M11.6511895,3.19895058 L14.7410849,11.3094212 L8.56129402,11.3094212 L11.6511895,3.19895058 Z" id="Shape"></path>
                                        </g>
                                    </g>
                                </g>
                            </g>
                        </g>
                    </g>
                </g>
            </g>
        </g>
    </g>
</svg>