<?xml version="1.0" encoding="UTF-8"?>
<svg width="26px" height="31px" viewBox="0 0 26 31" version="1.1" xmlns="http://www.w3.org/2000/svg" xmlns:xlink="http://www.w3.org/1999/xlink">
    <!-- Generator: sketchtool 51.1 (57501) - http://www.bohemiancoding.com/sketch -->
    <title>327BBDCE-F71E-4FB5-9A0F-1A6D22711100</title>
    <desc>Created with sketchtool.</desc>
    <defs></defs>
    <g id="Page-1" stroke="none" stroke-width="1" fill="none" fill-rule="evenodd" opacity="0.699999988">
        <g id="Default-Theme---Configuration" transform="translate(-239.000000, -840.000000)">
            <g id="Group-16" transform="translate(-2.000000, 0.000000)">
                <g id="Group-7" transform="translate(204.000000, 0.000000)">
                    <g id="Group-Copy-6" transform="translate(10.000000, 819.000000)">
                        <g id="Group-2" transform="translate(20.000000, 14.500000)">
                            <g id="Icon---Group-&amp;-Minify-Copy-2">
                                <rect id="Rectangle-2" x="0" y="0" width="40" height="40.5797101"></rect>
                                <g id="outline-share-24px" transform="translate(3.000000, 4.000000)">
                                    <g id="Bounding_Boxes">
                                        <polygon id="Shape" points="0 0 35 0 35 35 0 35"></polygon>
                                    </g>
                                    <g id="Outline" transform="translate(4.000000, 3.000000)" fill="#FFFFFF" fill-rule="nonzero">
                                        <path d="M21.6666667,21.12 C20.5688889,21.12 19.5866667,21.57 18.8355556,22.275 L8.53666667,16.05 C8.60888889,15.705 8.66666667,15.36 8.66666667,15 C8.66666667,14.64 8.60888889,14.295 8.53666667,13.95 L18.72,7.785 C19.5,8.535 20.5255556,9 21.6666667,9 C24.0644444,9 26,6.99 26,4.5 C26,2.01 24.0644444,0 21.6666667,0 C19.2688889,0 17.3333333,2.01 17.3333333,4.5 C17.3333333,4.86 17.3911111,5.205 17.4633333,5.55 L7.28,11.715 C6.5,10.965 5.47444444,10.5 4.33333333,10.5 C1.93555556,10.5 0,12.51 0,15 C0,17.49 1.93555556,19.5 4.33333333,19.5 C5.47444444,19.5 6.5,19.035 7.28,18.285 L17.5644444,24.525 C17.4922222,24.84 17.4488889,25.17 17.4488889,25.5 C17.4488889,27.915 19.3411111,29.88 21.6666667,29.88 C23.9922222,29.88 25.8844444,27.915 25.8844444,25.5 C25.8844444,23.085 23.9922222,21.12 21.6666667,21.12 Z M21.6666667,3 C22.4611111,3 23.1111111,3.675 23.1111111,4.5 C23.1111111,5.325 22.4611111,6 21.6666667,6 C20.8722222,6 20.2222222,5.325 20.2222222,4.5 C20.2222222,3.675 20.8722222,3 21.6666667,3 Z M4.33333333,16.5 C3.53888889,16.5 2.88888889,15.825 2.88888889,15 C2.88888889,14.175 3.53888889,13.5 4.33333333,13.5 C5.12777778,13.5 5.77777778,14.175 5.77777778,15 C5.77777778,15.825 5.12777778,16.5 4.33333333,16.5 Z M21.6666667,27.03 C20.8722222,27.03 20.2222222,26.355 20.2222222,25.53 C20.2222222,24.705 20.8722222,24.03 21.6666667,24.03 C22.4611111,24.03 23.1111111,24.705 23.1111111,25.53 C23.1111111,26.355 22.4611111,27.03 21.6666667,27.03 Z" id="Shape"></path>
                                    </g>
                                </g>
                            </g>
                        </g>
                    </g>
                </g>
            </g>
        </g>
    </g>
</svg>