<svg xmlns="http://www.w3.org/2000/svg" xmlns:xlink="http://www.w3.org/1999/xlink" id="Calque_1" data-name="Calque 1" viewBox="0 0 841.89 595.28"><defs><linearGradient id="Dégradé_secondaire1" x1="253.13" x2="356.28" y1="200.22" y2="232.73" data-name="Dégradé secondaire1" gradientUnits="userSpaceOnUse"><stop offset="0" stop-color="#5b5a72"/><stop offset="1" stop-color="#b0b0bf"/></linearGradient><linearGradient xlink:href="#Dégradé_secondaire1" id="Dégradé_secondaire1-2" x1="327.02" x2="385.01" y1="153.93" y2="172.21" data-name="Dégradé secondaire1"/><linearGradient xlink:href="#Dégradé_secondaire1" id="Dégradé_secondaire1-3" x1="301.83" x2="472.63" y1="249.4" y2="420.2" data-name="Dégradé secondaire1"/><linearGradient xlink:href="#Dégradé_secondaire1" id="Dégradé_secondaire1-4" x1="358.77" x2="531.18" y1="194.62" y2="367.03" data-name="Dégradé secondaire1"/><linearGradient id="Dégradé_sans_nom_125" x1="430.96" x2="564.15" y1="394.02" y2="260.83" data-name="Dégradé sans nom 125" gradientUnits="userSpaceOnUse"><stop offset="0" stop-color="#5b5a72"/><stop offset="1" stop-color="#b0b0bf"/></linearGradient><linearGradient xlink:href="#Dégradé_sans_nom_125" id="Dégradé_sans_nom_125-2" x1="432.26" x2="574.9" y1="392.97" y2="250.33" data-name="Dégradé sans nom 125"/><linearGradient id="Dégradé_secondaire1_10" x1="532.31" x2="464.41" y1="175.82" y2="175.82" data-name="Dégradé secondaire1 10" gradientUnits="userSpaceOnUse"><stop offset="0" stop-color="#5b5a72"/><stop offset="1" stop-color="#b0b0bf"/></linearGradient><linearGradient xlink:href="#Dégradé_secondaire1_10" id="Dégradé_secondaire1_10-2" x1="545.17" x2="511.16" y1="209.22" y2="209.22" data-name="Dégradé secondaire1 10"/><style>.cls-2{fill:#fff}</style></defs><path d="M317.65 268.88c-1.37 0-2.58-.83-3.08-2.11l-3.04-7.76c-2.28.37-4.59.55-6.88.55-2.82 0-5.65-.28-8.42-.84l-3.34 7.63a3.303 3.303 0 0 1-3.03 1.98c-.46 0-.9-.09-1.32-.28l-10.72-4.69a3.311 3.311 0 0 1-1.71-4.36l3.34-7.63a42.58 42.58 0 0 1-10.59-11.03l-7.77 3.04c-.39.15-.79.23-1.21.23-1.37 0-2.58-.83-3.08-2.1l-4.27-10.9c-.66-1.7.18-3.62 1.88-4.29l7.77-3.04a42.69 42.69 0 0 1 .29-15.29l-7.63-3.34a3.32 3.32 0 0 1-1.71-4.36l4.69-10.72a3.303 3.303 0 0 1 4.36-1.7l7.63 3.34c3-4.16 6.71-7.72 11.03-10.6l-3.04-7.76a3.311 3.311 0 0 1 1.88-4.29l10.9-4.26c.39-.15.79-.23 1.21-.23 1.37 0 2.58.83 3.08 2.1l3.04 7.77c2.28-.37 4.59-.56 6.88-.56 2.82 0 5.65.28 8.41.84l3.34-7.63a3.303 3.303 0 0 1 3.03-1.98c.46 0 .9.09 1.32.28l10.72 4.69a3.32 3.32 0 0 1 1.71 4.36l-3.34 7.63c4.17 3 7.73 6.71 10.6 11.04l7.76-3.04c.39-.15.79-.23 1.21-.23 1.37 0 2.58.83 3.08 2.1l4.27 10.89c.32.82.31 1.72-.05 2.53-.35.81-1 1.43-1.83 1.76l-7.77 3.04c.82 5.12.72 10.26-.29 15.3l7.62 3.33a3.32 3.32 0 0 1 1.71 4.36l-4.69 10.72a3.303 3.303 0 0 1-4.36 1.7l-7.62-3.33a42.898 42.898 0 0 1-11.03 10.59l3.04 7.77c.67 1.7-.18 3.62-1.88 4.29l-10.9 4.26c-.39.15-.79.23-1.2.23Zm-12.93-68.74c-6.5 0-12.38 3.84-14.98 9.79-1.75 4-1.84 8.44-.25 12.51s4.67 7.27 8.67 9.02c2.08.91 4.28 1.37 6.53 1.37 6.5 0 12.38-3.85 14.98-9.8 1.75-4 1.83-8.44.24-12.5a16.238 16.238 0 0 0-8.67-9.01c-2.08-.91-4.29-1.37-6.54-1.37Z" style="fill:url(#Dégradé_secondaire1)"/><path d="M291.77 164.57c1.12 0 2.18.68 2.62 1.79l3.19 8.14c2.37-.41 4.77-.62 7.2-.62 2.89 0 5.81.3 8.7.91l3.5-8a2.795 2.795 0 0 1 3.7-1.44l5.36 2.35 5.36 2.34c1.42.62 2.07 2.28 1.45 3.7l-3.5 8c4.45 3.14 8.15 7.06 11.02 11.48l8.13-3.19a2.825 2.825 0 0 1 3.64 1.6l2.13 5.45 2.14 5.44c.57 1.45-.15 3.08-1.59 3.64l-8.14 3.19c.88 5.19.82 10.58-.3 15.91l8 3.5c1.42.62 2.07 2.28 1.45 3.7l-2.34 5.36-2.35 5.36a2.795 2.795 0 0 1-3.7 1.44l-8-3.5a42.539 42.539 0 0 1-11.47 11.01l3.19 8.14c.57 1.45-.15 3.08-1.59 3.64l-5.45 2.13-5.45 2.13a2.825 2.825 0 0 1-3.64-1.6l-3.18-8.14c-2.37.41-4.77.61-7.2.61-2.9 0-5.81-.3-8.71-.91l-3.5 8a2.795 2.795 0 0 1-3.7 1.44l-5.36-2.34-5.36-2.35a2.813 2.813 0 0 1-1.45-3.7l3.5-8a41.955 41.955 0 0 1-11.01-11.47l-8.15 3.19c-.34.13-.68.19-1.02.19a2.83 2.83 0 0 1-2.62-1.78l-2.14-5.45-2.13-5.45c-.57-1.45.15-3.08 1.59-3.64l8.14-3.19c-.89-5.19-.82-10.58.3-15.9l-8-3.5a2.813 2.813 0 0 1-1.45-3.7l2.35-5.36 2.34-5.36a2.795 2.795 0 0 1 3.7-1.44l8 3.5c3.14-4.45 7.06-8.15 11.47-11.03l-3.19-8.14c-.57-1.45.15-3.08 1.59-3.64l5.44-2.13 5.45-2.13c.34-.13.68-.19 1.02-.19m12.93 68.75c6.49 0 12.67-3.77 15.44-10.1 3.72-8.52-.16-18.45-8.68-22.17-2.2-.96-4.49-1.42-6.74-1.42-6.49 0-12.67 3.77-15.44 10.09-3.73 8.52.16 18.45 8.68 22.18 2.19.96 4.48 1.41 6.73 1.41m-12.93-69.75c-.48 0-.94.09-1.39.26l-5.45 2.13-5.44 2.13c-.95.37-1.7 1.09-2.1 2.02s-.43 1.97-.06 2.92l2.89 7.39a43.17 43.17 0 0 0-10.58 10.17l-7.26-3.18c-.49-.21-1-.32-1.52-.32-1.51 0-2.89.9-3.49 2.28l-2.34 5.36-2.35 5.36c-.84 1.93.04 4.18 1.96 5.02l7.26 3.18c-.93 4.84-1.02 9.77-.28 14.67l-7.39 2.89a3.82 3.82 0 0 0-2.16 4.94l2.13 5.45 2.14 5.45a3.794 3.794 0 0 0 3.55 2.42c.48 0 .94-.09 1.39-.26l7.39-2.89c2.78 4.11 6.19 7.67 10.16 10.59l-3.18 7.26a3.79 3.79 0 0 0-.06 2.92c.37.95 1.09 1.69 2.02 2.1l5.36 2.35 5.36 2.34c.49.21 1 .32 1.52.32 1.51 0 2.89-.9 3.49-2.28l3.18-7.26c2.67.51 5.4.77 8.12.77 2.18 0 4.39-.17 6.56-.5l2.89 7.39a3.794 3.794 0 0 0 3.55 2.42c.47 0 .94-.09 1.39-.26l5.45-2.13 5.45-2.13c.95-.37 1.69-1.09 2.1-2.02.41-.93.43-1.97.06-2.92l-2.89-7.39c4.1-2.78 7.66-6.19 10.59-10.16l7.26 3.17c.49.21 1 .32 1.52.32 1.51 0 2.89-.9 3.49-2.28l2.35-5.36 2.34-5.36c.41-.93.43-1.97.06-2.92a3.784 3.784 0 0 0-2.02-2.1l-7.26-3.17c.92-4.84 1.02-9.77.27-14.68l7.39-2.89c.95-.37 1.69-1.09 2.1-2.02.41-.93.43-1.97.06-2.92l-2.14-5.44-2.13-5.45a3.794 3.794 0 0 0-3.55-2.42c-.48 0-.94.09-1.39.26l-7.38 2.9c-2.79-4.11-6.2-7.67-10.17-10.59l3.18-7.26c.41-.93.43-1.97.06-2.92a3.784 3.784 0 0 0-2.02-2.1l-5.36-2.34-5.36-2.35c-.49-.21-1-.32-1.52-.32-1.51 0-2.89.9-3.49 2.28l-3.18 7.26c-2.67-.51-5.39-.77-8.11-.77-2.19 0-4.39.17-6.56.5l-2.89-7.39a3.794 3.794 0 0 0-3.55-2.42Zm12.93 68.75c-2.18 0-4.31-.45-6.33-1.33-3.88-1.7-6.86-4.8-8.41-8.74-1.54-3.94-1.46-8.25.24-12.12a15.834 15.834 0 0 1 20.86-8.16 15.73 15.73 0 0 1 8.4 8.74c1.54 3.94 1.46 8.24-.24 12.12-2.52 5.77-8.23 9.5-14.53 9.5Z" class="cls-2"/><path d="M343.44 190.86c-.61 0-1.21-.22-1.68-.61l-9.83-8.16a2.634 2.634 0 0 1-.34-3.71l4.45-5.37c-2.44-4.92-2.98-10.72-1.48-16.02l-5.38-4.46a2.634 2.634 0 0 1-.34-3.71l8.15-9.82c.5-.61 1.24-.95 2.03-.95.61 0 1.21.22 1.68.61l5.37 4.46c3.08-1.53 6.51-2.34 9.96-2.34 2.06 0 4.1.28 6.07.84l4.46-5.37c.5-.61 1.24-.95 2.03-.95.61 0 1.21.22 1.68.61l9.83 8.16c.54.45.88 1.08.94 1.79s-.15 1.39-.6 1.93l-4.46 5.37c2.49 5 3.01 10.67 1.49 16.03l5.36 4.45c.54.45.88 1.08.94 1.79.07.7-.15 1.39-.6 1.93l-8.15 9.82c-.5.61-1.24.95-2.03.95-.61 0-1.21-.22-1.68-.61l-5.37-4.45a22.42 22.42 0 0 1-9.96 2.33c-2.06 0-4.1-.28-6.08-.84l-4.45 5.37c-.5.61-1.24.95-2.03.95Zm12.58-33.31a5.5 5.5 0 0 0-4.25 2 5.522 5.522 0 0 0-1.26 4.05c.14 1.47.83 2.8 1.97 3.74.99.82 2.25 1.28 3.53 1.28 1.65 0 3.21-.73 4.26-2a5.53 5.53 0 0 0-4.25-9.06Z" style="fill:url(#Dégradé_secondaire1-2)"/><path d="M368.59 135.78c.48 0 .97.16 1.36.49l4.92 4.08 4.92 4.08c.91.75 1.03 2.1.28 3.01l-4.67 5.63a21.838 21.838 0 0 1 1.51 16.27l5.62 4.66c.91.75 1.03 2.1.28 3.01l-4.07 4.91-4.08 4.92c-.42.51-1.03.77-1.65.77-.48 0-.97-.16-1.36-.49l-5.62-4.66a21.842 21.842 0 0 1-10.02 2.42c-2.1 0-4.21-.3-6.25-.91l-4.66 5.62c-.42.51-1.03.77-1.65.77-.48 0-.97-.16-1.36-.49l-4.92-4.08-4.92-4.08a2.14 2.14 0 0 1-.28-3.01l4.66-5.62a21.888 21.888 0 0 1-1.5-16.27l-5.63-4.67a2.14 2.14 0 0 1-.28-3.01l4.08-4.92 4.07-4.91c.42-.51 1.03-.77 1.65-.77.48 0 .97.16 1.36.49l5.63 4.67a21.852 21.852 0 0 1 16.26-1.52l4.67-5.63c.42-.51 1.03-.77 1.65-.77m-12.58 33.33c1.73 0 3.45-.74 4.65-2.18a6.038 6.038 0 0 0-4.64-9.88 6 6 0 0 0-4.64 2.18c-2.13 2.57-1.78 6.37.78 8.49 1.13.93 2.49 1.39 3.85 1.39m12.58-34.33c-.94 0-1.82.41-2.42 1.13l-4.25 5.13c-1.92-.51-3.9-.77-5.89-.77-3.41 0-6.81.78-9.88 2.25l-5.13-4.25c-.56-.47-1.27-.72-2-.72-.94 0-1.82.41-2.42 1.13l-4.07 4.91-4.08 4.92a3.15 3.15 0 0 0 .41 4.42l5.13 4.25c-1.4 5.23-.87 10.9 1.46 15.77l-4.25 5.12a3.09 3.09 0 0 0-.71 2.29c.08.83.48 1.59 1.12 2.12l4.92 4.08 4.92 4.08c.56.47 1.27.72 2 .72.94 0 1.82-.41 2.42-1.13l4.25-5.12a22.964 22.964 0 0 0 15.79-1.47l5.12 4.25c.56.47 1.27.72 2 .72.94 0 1.82-.41 2.42-1.13l4.08-4.92 4.07-4.91c.54-.65.79-1.46.71-2.29-.08-.83-.48-1.59-1.12-2.12l-5.12-4.25c1.42-5.29.91-10.84-1.47-15.78l4.25-5.13c.54-.65.79-1.46.71-2.29-.08-.83-.48-1.59-1.12-2.12l-4.92-4.08-4.92-4.08c-.56-.47-1.27-.72-2-.72Zm-12.58 33.33a5.021 5.021 0 0 1-5-4.56c-.12-1.34.28-2.65 1.14-3.68a5.021 5.021 0 0 1 7.08-.66c2.14 1.77 2.44 4.95.67 7.08a5.01 5.01 0 0 1-3.88 1.82Z" class="cls-2"/><path d="M420.95 416.4c-62.11 0-84.5-11.2-92.36-20.59-4.39-5.25-4.09-9.67-3.95-10.65.16-1.86 2.36-25.03 14.89-48.57 11.9-22.36 35.69-49.01 81.42-49.01s69.52 26.65 81.42 49.01c12.53 23.54 14.73 46.71 14.89 48.57.13.98.43 5.4-3.95 10.65-7.85 9.4-30.25 20.59-92.36 20.59Z" style="fill:url(#Dégradé_secondaire1-3)"/><path d="M420.94 290.08c86.14 0 93.83 95.37 93.83 95.37s5.13 28.46-93.83 28.46-93.83-28.46-93.83-28.46 7.69-95.37 93.83-95.37m0-5c-46.98 0-71.41 27.37-83.63 50.33-12.62 23.71-14.96 47.1-15.17 49.47-.2 1.57-.38 6.67 4.52 12.53 5.13 6.14 14.19 11.05 26.92 14.59 16.43 4.58 39.09 6.9 67.36 6.9s50.93-2.32 67.36-6.9c12.73-3.54 21.78-8.45 26.92-14.59 4.9-5.86 4.72-10.96 4.52-12.53-.21-2.36-2.55-25.76-15.17-49.47-12.22-22.96-36.65-50.33-83.63-50.33Z" class="cls-2"/><path d="M420.95 321.46c-35.66 0-64.67-29.01-64.67-64.67s29.01-64.67 64.67-64.67 64.67 29.01 64.67 64.67-29.01 64.67-64.67 64.67Z" style="fill:url(#Dégradé_secondaire1-4)"/><path d="M420.94 194.62c34.34 0 62.17 27.83 62.17 62.17s-27.83 62.17-62.17 62.17-62.17-27.83-62.17-62.17 27.83-62.17 62.17-62.17m0-5c-37.04 0-67.17 30.13-67.17 67.17s30.13 67.17 67.17 67.17 67.17-30.13 67.17-67.17-30.13-67.17-67.17-67.17Z" class="cls-2"/><path d="M474.18 366.24c-.65 0-1.29-.08-1.92-.25-.79-.21-1.43-.8-1.71-1.57-.73-2.01-1.84-3.78-3.32-5.25l-.49-.49a15.03 15.03 0 0 0-5.92-3.63c-.7-.23-1.26-.75-1.54-1.43a7.532 7.532 0 0 1 1.86-8.33l97.01-89.04a7.45 7.45 0 0 1 5.05-1.97c2 0 3.87.78 5.28 2.19a7.454 7.454 0 0 1 .22 10.34l-89.04 97.01a7.481 7.481 0 0 1-5.5 2.42Z" style="fill:url(#Dégradé_sans_nom_125)"/><path d="M563.22 256.79a4.979 4.979 0 0 1 3.67 8.34l-89.04 97.01a4.949 4.949 0 0 1-4.94 1.44 16.78 16.78 0 0 0-3.9-6.17l-.49-.49c-1.97-1.97-4.35-3.4-6.91-4.24a4.971 4.971 0 0 1 1.24-5.54l97.01-89.04c.95-.87 2.16-1.31 3.36-1.31m0-5c-2.5 0-4.9.93-6.74 2.62l-97.01 89.04c-3.05 2.8-4.06 7.27-2.49 11.11a4.97 4.97 0 0 0 3.07 2.86c1.85.61 3.56 1.65 4.93 3.02l.49.49c1.21 1.21 2.13 2.67 2.73 4.33a5.013 5.013 0 0 0 3.42 3.13 9.994 9.994 0 0 0 9.9-2.9l89.04-97.01a9.946 9.946 0 0 0-.3-13.79 9.918 9.918 0 0 0-7.05-2.92Z" class="cls-2"/><path d="M442.39 402.24c-.68 0-1.34-.27-1.83-.81-.48-.53-11.65-13.03-7.46-27.22 3.43-11.58 10.54-19.47 19.53-21.64 1.22-.3 2.48-.45 3.75-.45 4.39 0 8.73 1.83 11.92 5.01l.49.49c6.06 6.06 6.49 15.89.97 22.38l-.27.31c-4.99 5.69-9.53 5.82-13.54 5.93-3.17.09-5.67.16-8.7 2.87-5.13 4.57-2.94 8.92-2.67 9.4.62 1.11.31 2.52-.72 3.26-.44.32-.96.47-1.47.47Z" style="fill:url(#Dégradé_sans_nom_125-2)"/><path d="M456.38 354.63c3.76 0 7.43 1.56 10.15 4.28l.49.49c5.16 5.16 5.56 13.43.83 18.99l-.24.27c-8.03 9.15-14.09 1.5-22.03 8.59-6.91 6.16-3.17 12.51-3.17 12.51s-10.75-11.83-6.91-24.83c2.95-9.97 9.07-17.83 17.72-19.92 1.05-.25 2.11-.38 3.16-.38m0-5c-1.46 0-2.92.17-4.33.51-9.88 2.39-17.65 10.9-21.34 23.36-4.59 15.52 7.49 29.04 8 29.61a5.257 5.257 0 0 0 3.87 1.71c1.06 0 2.11-.33 2.98-1.01 2.05-1.6 2.6-4.38 1.19-6.55-.38-.8-1.17-3.32 2.16-6.29 2.35-2.1 4.14-2.15 7.11-2.23 4.07-.12 9.64-.28 15.35-6.79.09-.11.19-.22.29-.33 6.35-7.47 5.87-18.79-1.1-25.76l-.49-.49c-3.65-3.65-8.64-5.74-13.68-5.74Z" class="cls-2"/><path d="m503.45 179.34 28.86-3.52-28.86-3.52-5.09-47.96-5.1 47.96-28.85 3.52 28.85 3.52 5.1 47.96 5.09-47.96z" style="fill:url(#Dégradé_secondaire1_10)"/><path d="m530.72 210.98 14.45-1.76-14.45-1.76-2.55-24.03-2.56 24.03-14.45 1.76 14.45 1.76 2.56 24.02 2.55-24.02z" style="fill:url(#Dégradé_secondaire1_10-2)"/></svg>