<svg xmlns="http://www.w3.org/2000/svg" xmlns:xlink="http://www.w3.org/1999/xlink" id="Calque_1" data-name="Calque 1" viewBox="0 0 841.89 595.28"><defs><linearGradient id="Dégradé_secondaire1" x1="-540.97" x2="-342.08" y1="264.67" y2="463.55" data-name="Dégradé secondaire1" gradientTransform="rotate(-17.67 -290.888 -1846.263)" gradientUnits="userSpaceOnUse"><stop offset="0" stop-color="#5b5a72"/><stop offset="1" stop-color="#b0b0bf"/></linearGradient><linearGradient xlink:href="#Dégradé_secondaire1" id="Dégradé_secondaire1-2" x1="-525.48" x2="-326.6" y1="249.18" y2="448.07" data-name="Dégradé secondaire1"/><linearGradient xlink:href="#Dégradé_secondaire1" id="Dégradé_secondaire1-3" x1="-510.32" x2="-509.85" y1="263.95" y2="264.41" data-name="Dégradé secondaire1"/><linearGradient id="Dégradé_secondaire1_7" x1="491.21" x2="682.99" y1="216.96" y2="408.74" data-name="Dégradé secondaire1 7" gradientTransform="translate(-6.88 1.27)" gradientUnits="userSpaceOnUse"><stop offset="0" stop-color="#5b5a72"/><stop offset="1" stop-color="#b0b0bf"/></linearGradient><linearGradient xlink:href="#Dégradé_secondaire1_7" id="Dégradé_secondaire1_7-2" x1="492.86" x2="564.05" y1="193.76" y2="264.95" data-name="Dégradé secondaire1 7" gradientTransform="rotate(14.15 578.674 285.863)"/><linearGradient xlink:href="#Dégradé_secondaire1_7" id="Dégradé_secondaire1_7-3" x1="546.15" x2="580.09" y1="244.47" y2="278.41" data-name="Dégradé secondaire1 7" gradientTransform="rotate(14.15 578.674 285.863)"/><linearGradient xlink:href="#Dégradé_secondaire1_7" id="Dégradé_secondaire1_7-4" x1="569.02" x2="587.71" y1="267.34" y2="286.04" data-name="Dégradé secondaire1 7" gradientTransform="rotate(14.15 578.674 285.863)"/><linearGradient xlink:href="#Dégradé_secondaire1" id="Dégradé_secondaire1-4" x1="298.11" x2="499.84" y1="177.21" y2="378.93" data-name="Dégradé secondaire1"/><style>.cls-3{fill:#fff}.cls-7{fill:#b0b0bf}.cls-8{fill:#5b5a72}.cls-9{fill:#353544}.cls-15{stroke-linecap:round;stroke-linejoin:round;stroke:#fff;fill:none;stroke-width:3px}</style></defs><path d="m156 204.64 102.22-32.57a6.19 6.19 0 0 1 7.78 4.02l62.72 196.83a6.19 6.19 0 0 1-4.02 7.78l-137.82 43.91a6.19 6.19 0 0 1-7.78-4.02l-51.37-161.24" style="stroke-width:5px;fill:url(#Dégradé_secondaire1);stroke:#fff;stroke-linecap:round;stroke-linejoin:round"/><path d="m150.05 283.61 41.41-13.19M152.97 292.77l123.12-39.23M155.89 301.92 279 262.7M158.8 311.08l123.12-39.23M161.72 320.23l123.12-39.22M164.64 329.39l123.11-39.23M170.47 347.7l123.12-39.23M173.39 356.86l123.12-39.23M176.31 366.01 253 341.58M289.26 357.17l-18.41 5.86M310.01 360l-70.91 22.59M165 232.88l65.46-20.85M183.11 236.13l34.45-10.98M167.56 338.55l123.11-39.23" class="cls-15"/><circle cx="193.17" cy="388.44" r="9.26" style="fill:none;stroke:#fff;stroke-linecap:round;stroke-linejoin:round;stroke-width:2.57px"/><path d="m127.73 259.36 35.6-11.34a6.19 6.19 0 0 0 4.02-7.78l-11.34-35.6" style="fill:url(#Dégradé_secondaire1-2);stroke-width:5px;stroke:#fff;stroke-linecap:round;stroke-linejoin:round"/><path d="m154.63 205.07-27.58 52.16" style="fill:url(#Dégradé_secondaire1-3);stroke-width:5px;stroke:#fff;stroke-linecap:round;stroke-linejoin:round"/><path d="M170.71 448.49a8.61 8.61 0 0 1-4.39-1.21 8.49 8.49 0 0 1-3.92-5.26c-.56-2.22-.22-4.53.95-6.49l21.52-36.09c-14.14-13.1-17.25-34.42-7.33-51.04 7.36-12.34 20.87-20 35.25-20 7.36 0 14.61 2 20.97 5.79 9.41 5.61 16.07 14.55 18.76 25.17 2.68 10.62 1.07 21.64-4.54 31.06-7.35 12.33-20.85 19.99-35.23 19.99-4.49 0-8.91-.73-13.14-2.17l-21.53 36.09a8.616 8.616 0 0 1-7.37 4.18Z" class="cls-8"/><path d="M212.8 330.89c6.71 0 13.51 1.76 19.69 5.44 18.27 10.9 24.24 34.52 13.34 52.79-7.2 12.07-19.97 18.77-33.08 18.77-4.41 0-8.85-.76-13.14-2.32l-.98-.59-22.69 38.04a6.058 6.058 0 0 1-5.22 2.96c-1.06 0-2.13-.28-3.11-.86a6.087 6.087 0 0 1-2.11-8.33l22.69-38.04-.98-.59c-13.56-12.03-17.14-32.37-7.51-48.5 7.21-12.09 19.99-18.79 33.11-18.79m0-5c-15.26 0-29.59 8.13-37.4 21.22-10.17 17.05-7.43 38.75 6.32 52.74l-20.51 34.39a11.01 11.01 0 0 0-1.23 8.39c.72 2.87 2.52 5.28 5.06 6.8 1.72 1.02 3.68 1.56 5.67 1.56 3.88 0 7.53-2.07 9.52-5.4l20.51-34.39a43.02 43.02 0 0 0 12.01 1.69c15.25 0 29.58-8.13 37.38-21.21 5.96-9.98 7.67-21.69 4.82-32.95-2.85-11.26-9.91-20.74-19.9-26.7a43.481 43.481 0 0 0-22.25-6.15Z" class="cls-3"/><path d="M236.97 383.84c-7.97 13.36-25.26 17.73-38.64 9.75-13.36-7.97-17.73-25.26-9.76-38.61 7.97-13.36 25.26-17.73 38.61-9.76 13.38 7.98 17.75 25.27 9.78 38.63Z" class="cls-7"/><path d="M232.49 336.33c-18.25-10.89-41.89-4.93-52.79 13.34-9.62 16.13-6.05 36.48 7.51 48.5l.98.59-22.69 38.04a6.07 6.07 0 0 0 2.11 8.33 6.07 6.07 0 0 0 8.33-2.11l22.69-38.04.98.59c17.03 6.22 36.6-.32 46.23-16.45 10.9-18.27 4.93-41.89-13.34-52.79Zm4.49 47.51c-7.97 13.36-25.26 17.73-38.64 9.75-13.36-7.97-17.73-25.26-9.76-38.61 7.97-13.36 25.26-17.73 38.61-9.76 13.38 7.98 17.75 25.27 9.78 38.63Z" class="cls-8"/><path d="M199.86 387.79c-10.86-6.42-14.45-20.43-8.03-31.29 3.6-6.08 9.57-9.88 16.04-10.92 7.45-1.2 12.9 6.87 9.06 13.36l-.37.63c-1.46 2.46-4.09 3.89-6.95 4.06-3.02.19-7.21 1.81-10.95 8.14-4.42 7.48 1.21 16.02 1.21 16.02Z" style="fill:#f4f4f6"/><rect width="246.82" height="151.52" x="456.81" y="238.36" rx="16.7" ry="16.7" style="stroke-width:3.38px;fill:#fff;stroke:url(#Dégradé_secondaire1_7);stroke-miterlimit:10" transform="rotate(14.15 580.351 314.208)"/><path d="m586.04 237.56-89.63-22.6 11-18.3c2.77-5.34 8.85-8.07 14.69-6.6l53.14 13.4a12.98 12.98 0 0 1 9.8 12.78l1.01 21.33Z" style="fill:url(#Dégradé_secondaire1_7-2)"/><rect width="81.64" height="29.86" x="607.49" y="275.57" class="cls-7" rx="6.12" ry="6.12" transform="rotate(14.15 648.472 290.577)"/><path d="m600.13 266.12-61.19-15.43" style="stroke:url(#Dégradé_secondaire1_7-3);fill:none;stroke-linecap:round;stroke-linejoin:round;stroke-width:3.38px"/><path d="m596.41 280.91-31.63-7.98" style="stroke:url(#Dégradé_secondaire1_7-4);fill:none;stroke-linecap:round;stroke-linejoin:round;stroke-width:3.38px"/><path d="M401.91 421.98c-9.06 0-17.74-1.61-25.82-4.78-47.09-18.5-86.64-51.59-92.68-69.72-.54-1.62-1.16-3.41-1.83-5.35-6.35-18.3-18.16-52.36-10.58-88.02 9.09-42.71 31.7-71.98 71.15-92.09 1.41-.65 32.88-15.06 54.54-15.06 10.63 0 29.84 4 48.95 10.19 21.13 6.85 37.46 14.76 44.8 21.71 17.95 17.01 29.85 35.61 34.39 53.78 1.59 6.34 4.29 11.83 7.14 17.64 5.75 11.68 11.69 23.76 7.68 42.65-5.79 27.3-27.16 83.28-47.35 92.94-3.41 1.63-7.98 4.39-13.27 7.59-18.79 11.36-47.18 28.52-77.13 28.52Z" style="fill:url(#Dégradé_secondaire1-4)"/><path d="M396.69 149.29c21.39 0 76.51 16.45 92.15 31.26 15.63 14.81 28.8 32.91 33.73 52.65 4.94 19.75 20.57 32.09 14.81 59.24s-27.15 82.27-46.07 91.32c-15.52 7.42-51.53 35.88-89.4 35.88-8.3 0-16.68-1.37-24.96-4.62-46.07-18.1-85.56-51.01-91.32-68.29-5.76-17.28-20.57-53.48-12.34-92.15 8.23-38.67 27.97-69.11 69.93-90.5 0 0 32.09-14.81 53.48-14.81m0-4.66c-22.16 0-54.08 14.62-55.43 15.24l-.08.04-.08.04c-40.13 20.46-63.13 50.23-72.37 93.68-7.72 36.29 4.23 70.75 10.65 89.27.66 1.91 1.29 3.72 1.82 5.32 3.2 9.59 14.9 22.73 32.11 36.05 18.25 14.12 40.24 26.58 61.93 35.1 8.35 3.28 17.32 4.94 26.67 4.94 30.6 0 59.33-17.36 78.34-28.86 5.24-3.17 9.76-5.9 13.07-7.48 11.92-5.7 23-25.51 30.19-41.13 7.99-17.33 15.22-38.31 18.43-53.43 4.17-19.68-1.95-32.12-7.87-44.16-2.8-5.69-5.45-11.07-6.97-17.17-4.65-18.61-16.77-37.59-35.05-54.91-10.76-10.2-35.53-18.95-45.68-22.24-19.32-6.26-38.82-10.31-49.67-10.31Z" class="cls-3"/><path d="M324.21 218.99c-6.27-11.61 3.11-25.99 16.17-24.13 2.52.36 5.02 1.32 7.22 3.24 8.78 7.68 9.32 14.26 0 19.2-9.32 4.94-18.65 9.87-22.49 3.29a50.3 50.3 0 0 1-.9-1.6ZM454.77 225.37c.34-1.17.66-2.34 1.02-3.5.54-1.75 1.09-4.31.34-5.94-1.23-2.67 10.08-7.2 18.51-3.09 8.43 4.11 11.11 19.95 2.47 29.21-8.64 9.26-20.98 8.84-26.33 0-4.96-8.21 2.12-10.18 3.99-16.68ZM504.47 284.47s2.74-3.82 2.74-7.38.55-9.6 8.78-6.31c8.23 3.29 6.03 19.47 1.65 23.04s-24.68 4.34-13.16-9.35ZM451.03 297.14c-2.13-2.53-5.38-3.89-8.69-3.74-3.84.17-9.07 1.37-13.29 5.9-7.68 8.23.82 17.28 7.95 20.29 7.13 3.02 13.16 1.1 17.28-3.57 3.51-3.98 2.43-12.15-3.25-18.89ZM340.2 281.47s.82-7.93 7.4-11.65c6.58-3.71 15.91-3.44 20.02 1.22s4.11 16.73 2.19 18.92c-1.92 2.19-29.34 8.5-29.62-8.5ZM460.31 361.28s7.4-1.92 9.87 2.19c2.47 4.11-.27 15.08-7.4 15.08s-8.23-2.92-8.78-8.86c-.55-5.95 3.83-8.02 6.31-8.41ZM426.02 395.83s-6.84.55-8.49-4.66c-1.65-5.21 3.57-16.18 10.97-19.2 7.4-3.02 16.45-1.37 18.92 4.66 2.47 6.03-7.16 17-21.4 19.2ZM344.31 388.98s-6.58-6.31-4.11-13.44c2.47-7.13 10.97-8.78 14.26-3.29s15.91 10.97 14.26 16.73c-1.65 5.76-15.63 6.86-24.41 0ZM308.38 246.1s-3.29-4.11 1.65-10.97 10.94-1.92 12.19 0 2.62 9.6-3.96 12.34-9.87-1.37-9.87-1.37ZM293.03 309.45s3.29-8.23 9.05-7.4c5.76.82 19.99 14.7 20.14 19 .15 4.31-4.23 15.82-17.12 11.71s-14.53-13.99-12.07-23.31ZM437.41 181.58s3.7 1.23 5.96 4.73c2.26 3.5 12.55.62 9.67-9.67-2.88-10.28-13.58-10.08-19.33-8.43-5.76 1.65-9.05 14.19 3.7 13.37Z" class="cls-9"/></svg>