<svg xmlns="http://www.w3.org/2000/svg" xmlns:xlink="http://www.w3.org/1999/xlink" id="Calque_1" data-name="Calque 1" viewBox="0 0 841.89 595.28"><defs><linearGradient id="Dégradé_secondaire1_9" x1="455.42" x2="606.45" y1="119.85" y2="270.88" data-name="Dégradé secondaire1 9" gradientUnits="userSpaceOnUse"><stop offset="0" stop-color="#5b5a72"/><stop offset="1" stop-color="#b0b0bf"/></linearGradient><linearGradient xlink:href="#Dégradé_secondaire1_9" id="Dégradé_secondaire1_9-2" x1="413.94" x2="564.77" y1="173.92" y2="324.75" data-name="Dégradé secondaire1 9"/><linearGradient id="Dégradé_sans_nom_142" x1="413" x2="560" y1="171.24" y2="318.24" data-name="Dégradé sans nom 142" gradientUnits="userSpaceOnUse"><stop offset="0" stop-color="#5b5a72"/><stop offset="1" stop-color="#b0b0bf"/></linearGradient><linearGradient xlink:href="#Dégradé_sans_nom_142" id="Dégradé_sans_nom_142-2" x1="456.19" x2="603.39" y1="130.62" y2="277.83" data-name="Dégradé sans nom 142"/><linearGradient xlink:href="#Dégradé_secondaire1_9" id="Dégradé_secondaire1_9-3" x1="344.12" x2="429.93" y1="79.72" y2="165.53" data-name="Dégradé secondaire1 9"/><linearGradient xlink:href="#Dégradé_secondaire1_9" id="Dégradé_secondaire1_9-4" x1="291.05" x2="376.87" y1="135.65" y2="221.47" data-name="Dégradé secondaire1 9"/><linearGradient xlink:href="#Dégradé_sans_nom_142" id="Dégradé_sans_nom_142-3" x1="310.37" x2="399.35" y1="107.72" y2="196.7" data-name="Dégradé sans nom 142"/><linearGradient xlink:href="#Dégradé_sans_nom_142" id="Dégradé_sans_nom_142-4" x1="322.65" x2="408.77" y1="104.05" y2="190.17" data-name="Dégradé sans nom 142"/><linearGradient xlink:href="#Dégradé_secondaire1_9" id="Dégradé_secondaire1_9-5" x1="215.74" x2="366.65" y1="257.42" y2="408.33" data-name="Dégradé secondaire1 9"/><linearGradient xlink:href="#Dégradé_secondaire1_9" id="Dégradé_secondaire1_9-6" x1="314.74" x2="465.55" y1="152.51" y2="303.32" data-name="Dégradé secondaire1 9"/><linearGradient xlink:href="#Dégradé_sans_nom_142" id="Dégradé_sans_nom_142-5" x1="248.95" x2="399.92" y1="217.89" y2="368.86" data-name="Dégradé sans nom 142"/><linearGradient xlink:href="#Dégradé_sans_nom_142" id="Dégradé_sans_nom_142-6" x1="282.63" x2="432.34" y1="190.81" y2="340.52" data-name="Dégradé sans nom 142"/><linearGradient xlink:href="#Dégradé_secondaire1_9" id="Dégradé_secondaire1_9-7" x1="255.93" x2="483.69" y1="364.97" y2="592.72" data-name="Dégradé secondaire1 9"/><linearGradient xlink:href="#Dégradé_secondaire1_9" id="Dégradé_secondaire1_9-8" x1="376.04" x2="604.12" y1="233.4" y2="461.48" data-name="Dégradé secondaire1 9"/><linearGradient xlink:href="#Dégradé_sans_nom_142" id="Dégradé_sans_nom_142-7" x1="280.89" x2="506.94" y1="332.64" y2="558.69" data-name="Dégradé sans nom 142"/><linearGradient xlink:href="#Dégradé_sans_nom_142" id="Dégradé_sans_nom_142-8" x1="355.63" x2="580.19" y1="265.37" y2="489.93" data-name="Dégradé sans nom 142"/><linearGradient id="Dégradé_secondaire1" x1="386.94" x2="489.06" y1="275.95" y2="378.07" data-name="Dégradé secondaire1" gradientUnits="userSpaceOnUse"><stop offset="0" stop-color="#5b5a72"/><stop offset="1" stop-color="#b0b0bf"/></linearGradient><linearGradient xlink:href="#Dégradé_secondaire1" id="Dégradé_secondaire1-2" x1="346.79" x2="448.9" y1="316.11" y2="418.22" data-name="Dégradé secondaire1"/><linearGradient xlink:href="#Dégradé_secondaire1" id="Dégradé_secondaire1-3" x1="392.52" x2="494.64" y1="270.37" y2="372.49" data-name="Dégradé secondaire1"/><style>.cls-9{fill:#fff}</style></defs><path d="M576.82 299.03c-.43 0-.85-.11-1.24-.33l-1.15-.65c-.36-.2-.66-.49-.88-.84l-35.96-57.26c-.4-.64-.49-1.43-.24-2.15s.81-1.28 1.52-1.54l66.58-23.66c.28-.1.56-.14.84-.14.9 0 1.75.49 2.2 1.31 1.54 2.86 1.77 6.25.61 9.28l-26.64 70.1c-.83 2.2-2.29 4.07-4.2 5.42-.43.3-.93.46-1.44.46Z" style="fill:url(#Dégradé_secondaire1_9)"/><path d="M606.29 214.95a8.694 8.694 0 0 1 .48 7.21l-26.64 70.1a9.16 9.16 0 0 1-3.3 4.26l-1.15-.65-35.96-57.27 66.58-23.66m0-5c-.56 0-1.12.09-1.67.29l-66.58 23.66a5.017 5.017 0 0 0-3.05 3.07c-.5 1.43-.32 3.01.49 4.3l35.96 57.27c.44.7 1.05 1.28 1.76 1.69l1.15.65c.77.44 1.62.65 2.47.65 1.01 0 2.02-.31 2.88-.91 2.32-1.64 4.08-3.91 5.1-6.57l26.64-70.1c1.41-3.71 1.14-7.85-.75-11.36a4.996 4.996 0 0 0-4.4-2.63Z" class="cls-9"/><path d="M421.32 240.31c-1.1 0-2.09-.73-2.4-1.81-.7-2.44-.59-5 .32-7.39l26.64-70.1c1.15-3.03 3.57-5.42 6.62-6.53a2.51 2.51 0 0 1 3.05 1.14l34.07 61.91c.37.66.41 1.46.12 2.16s-.88 1.23-1.61 1.45l-64.92 18.92c-.13.04-.26.06-.39.08l-1.19.15c-.1.01-.21.02-.31.02Z" style="fill:url(#Dégradé_secondaire1_9-2)"/><path d="m453.36 156.83 34.07 61.91-64.92 18.93-1.19.15c-.53-1.84-.49-3.87.25-5.81l26.64-70.1a8.66 8.66 0 0 1 5.14-5.07m0-5c-.57 0-1.15.1-1.71.3a13.66 13.66 0 0 0-8.1 7.99l-26.64 70.1c-1.1 2.9-1.23 6-.38 8.96a4.992 4.992 0 0 0 5.43 3.58l1.19-.15c.26-.03.52-.09.78-.16l64.92-18.93a5.003 5.003 0 0 0 2.98-7.21l-34.07-61.91a4.99 4.99 0 0 0-4.38-2.59Z" class="cls-9"/><path d="M571.5 300.71c-1.42 0-2.82-.26-4.16-.77l-141.31-53.7c-3.44-1.31-6.1-4.2-7.11-7.74l-.8-2.8 3.88-.49 66.65-19.43 11.24 20.43a15.627 15.627 0 0 0 18.91 7.19l21.97-7.81 36.7 58.43 4.03 2.29-3.23 2.27c-1.99 1.4-4.33 2.14-6.76 2.14Z" style="fill:url(#Dégradé_sans_nom_142)"/><path d="m487.43 218.74 10.27 18.67c3.26 5.92 9.43 9.38 15.88 9.38 2.02 0 4.06-.34 6.06-1.05l20.08-7.14 35.96 57.27 1.15.65a9.264 9.264 0 0 1-5.32 1.69c-1.09 0-2.2-.19-3.28-.6l-141.31-53.7c-2.83-1.07-4.82-3.39-5.6-6.09l1.19-.15 64.92-18.93m2.45-5.92-3.85 1.12-64.54 18.81-.79.1-5.79.73 1.6 5.61c1.23 4.29 4.45 7.8 8.63 9.39l141.31 53.7c1.63.62 3.33.93 5.05.93 2.94 0 5.77-.9 8.19-2.59l6.47-4.54-6.87-3.9-.05-.03-35.29-56.2-2.13-3.39-3.78 1.34-20.08 7.14c-1.42.5-2.89.76-4.38.76-4.79 0-9.19-2.6-11.49-6.79l-10.27-18.67-1.93-3.51Z" class="cls-9"/><path d="M513.58 249.29c-7.52 0-14.44-4.09-18.07-10.68l-10.27-18.67-35.48-64.47 2.75-1c1.23-.45 2.52-.67 3.82-.67s2.69.25 3.96.73l142.35 54.1c2.49.95 4.57 2.77 5.85 5.12l1.39 2.57-89.41 31.77c-2.22.79-4.54 1.19-6.89 1.19Z" style="fill:url(#Dégradé_sans_nom_142-2)"/><path d="M456.33 156.31c1.02 0 2.06.18 3.08.57l142.35 54.1c2.02.77 3.58 2.22 4.54 3.98l-66.58 23.66-20.08 7.14c-1.99.71-4.04 1.05-6.06 1.05-6.45 0-12.62-3.46-15.88-9.38l-10.27-18.67-34.07-61.91c.94-.34 1.95-.52 2.97-.52m0-5c-1.6 0-3.17.28-4.67.82l-5.5 1.99 2.82 5.12 34.07 61.91 10.27 18.67a23.098 23.098 0 0 0 27.99 10.63l20.08-7.14 66.58-23.66 5.51-1.96-2.79-5.14a13.695 13.695 0 0 0-7.16-6.27l-142.35-54.1c-1.56-.59-3.19-.89-4.85-.89Z" class="cls-9"/><path d="m421.19 148.25-43.92-3.23a2.503 2.503 0 0 1-2.21-3.22l13.28-44.06c.32-1.07 1.3-1.78 2.39-1.78.12 0 .23 0 .35.02 2.35.33 4.43 1.66 5.72 3.65l26.5 41.03c.92 1.43 1.4 3.09 1.36 4.79-.02.97-.6 1.84-1.48 2.23l-.79.35c-.32.14-.67.22-1.02.22h-.18Z" style="fill:url(#Dégradé_secondaire1_9-3)"/><path d="M390.73 98.46c1.57.22 3.04 1.1 3.97 2.53l26.5 41.03c.68 1.05.99 2.22.96 3.38l-.79.35-43.92-3.23 13.28-44.06m0-5c-2.18 0-4.14 1.42-4.78 3.56l-13.28 44.06a5.003 5.003 0 0 0 4.42 6.43l43.92 3.23c.12 0 .24.01.37.01.7 0 1.4-.15 2.04-.43l.79-.35a4.998 4.998 0 0 0 2.96-4.46c.04-2.2-.56-4.34-1.76-6.19l-26.5-41.03c-1.68-2.6-4.4-4.34-7.47-4.77-.23-.03-.47-.05-.7-.05Z" class="cls-9"/><path d="M331.34 206.84c-.29 0-.58-.05-.87-.16a8.384 8.384 0 0 1-4.18-3.36l-26.5-41.03a8.147 8.147 0 0 1-.97-6.71c.31-1.08 1.3-1.8 2.4-1.8.11 0 .22 0 .33.02l45.63 6.02c.75.1 1.42.53 1.81 1.18.39.65.47 1.44.21 2.15l-15.12 41.37c-.04.12-.1.25-.17.36l-.38.68c-.45.81-1.3 1.28-2.18 1.28Z" style="fill:url(#Dégradé_secondaire1_9-4)"/><path d="m301.21 156.27 45.63 6.02-15.12 41.37-.38.68a5.964 5.964 0 0 1-2.95-2.37l-26.5-41.03a5.616 5.616 0 0 1-.67-4.66m0-5c-2.19 0-4.17 1.44-4.8 3.6-.87 2.97-.4 6.17 1.27 8.77l26.5 41.03a10.93 10.93 0 0 0 5.41 4.35 5.009 5.009 0 0 0 6.11-2.25l.38-.68c.13-.23.24-.47.33-.72l15.12-41.37c.52-1.42.37-3.01-.42-4.31a5.012 5.012 0 0 0-3.62-2.37l-45.63-6.02c-.22-.03-.44-.04-.66-.04Z" class="cls-9"/><path d="M333.44 207.21c-1.02 0-2.02-.18-2.97-.53l-2.74-1.02 1.71-3.05 15.74-43.06 15.75 2.08c.41.05.82.08 1.22.08 4.06 0 7.72-2.72 8.89-6.61l4.58-15.21 45.3 3.33 3.82-1.7-.09 3.95a8.51 8.51 0 0 1-3.89 6.97l-82.71 53.42a8.504 8.504 0 0 1-4.61 1.36Z" style="fill:url(#Dégradé_sans_nom_142-3)"/><path d="m377.45 142.53 43.92 3.23.79-.35a6.017 6.017 0 0 1-2.75 4.93l-82.71 53.42a6.002 6.002 0 0 1-5.36.58l.38-.68 15.12-41.37 13.76 1.82a11.805 11.805 0 0 0 12.84-8.29l4-13.29m-3.63-5.28-1.16 3.84-4 13.29c-.86 2.85-3.53 4.84-6.5 4.84-.3 0-.6-.02-.9-.06l-13.76-1.82-3.97-.52-1.38 3.77-14.99 40.99-.19.33-2.85 5.09 5.47 2.03a11.018 11.018 0 0 0 9.81-1.07l82.71-53.42a11.03 11.03 0 0 0 5.04-9.02l.18-7.9-6.85 3.06-42.67-3.14-4-.29Z" class="cls-9"/><path d="M362.16 166.71c-.62 0-1.26-.04-1.88-.12l-62.29-8.21.83-2.8a8.174 8.174 0 0 1 3.4-4.55l83.32-53.81a8.119 8.119 0 0 1 5.53-1.22l2.9.4-18.13 60.15c-1.8 5.99-7.43 10.17-13.68 10.17Z" style="fill:url(#Dégradé_sans_nom_142-4)"/><path d="M389.95 98.41c.26 0 .52.02.78.05l-13.28 44.06-4 13.29a11.805 11.805 0 0 1-12.84 8.29l-13.76-1.82-45.63-6.02a5.612 5.612 0 0 1 2.36-3.15L386.9 99.3c.95-.61 2.01-.9 3.06-.9m0-5c-2.05 0-4.05.59-5.77 1.7l-83.32 53.81a10.644 10.644 0 0 0-4.44 5.94l-1.65 5.61 5.8.76 45.63 6.02 13.76 1.82c.73.1 1.47.15 2.2.15 7.34 0 13.95-4.91 16.07-11.95l4-13.29 13.28-44.06 1.69-5.6-5.79-.8c-.48-.07-.98-.1-1.47-.1Z" class="cls-9"/><path d="M271.52 373.14c-.51 0-1.01-.15-1.44-.46a13.669 13.669 0 0 1-4.9-6.32l-32.27-84.92c-1.34-3.53-1.08-7.47.72-10.8.45-.83 1.3-1.31 2.2-1.31.28 0 .56.05.84.14l80.65 28.66c.71.25 1.28.82 1.52 1.54s.16 1.51-.24 2.15l-43.57 69.37c-.22.35-.52.64-.88.84l-1.39.79c-.38.22-.81.33-1.24.33Z" style="fill:url(#Dégradé_secondaire1_9-5)"/><path d="m235.82 271.82 80.65 28.66-43.57 69.37-1.39.79c-1.76-1.24-3.18-3-4-5.17l-32.27-84.92c-1.13-2.97-.82-6.14.58-8.73m0-5c-1.79 0-3.51.97-4.4 2.63a15.522 15.522 0 0 0-.85 12.88l32.27 84.92c1.15 3.03 3.16 5.62 5.8 7.48.86.61 1.87.91 2.88.91.85 0 1.7-.22 2.47-.65l1.39-.79c.72-.41 1.32-.99 1.76-1.69l43.57-69.37c.81-1.28.99-2.87.49-4.3a5.017 5.017 0 0 0-3.05-3.07l-80.65-28.66c-.55-.2-1.12-.29-1.67-.29Z" class="cls-9"/><path d="M459.89 302.02c-.1 0-.21 0-.31-.02l-1.44-.18a2.7 2.7 0 0 1-.39-.08l-78.64-22.93c-.73-.21-1.32-.74-1.61-1.45s-.25-1.5.12-2.16l41.27-75a2.49 2.49 0 0 1 2.19-1.29c.29 0 .57.05.86.15 3.56 1.3 6.37 4.07 7.71 7.6l32.28 84.92c1.06 2.78 1.19 5.76.37 8.61a2.502 2.502 0 0 1-2.4 1.81Z" style="fill:url(#Dégradé_secondaire1_9-6)"/><path d="M421.08 201.41c2.77 1.01 5.1 3.17 6.23 6.14l32.27 84.92c.89 2.34.94 4.8.3 7.04l-1.44-.18-78.64-22.93 41.27-75m0-5c-1.78 0-3.48.95-4.38 2.59l-41.27 75a5.003 5.003 0 0 0 2.98 7.21l78.64 22.93c.25.07.52.13.78.16l1.44.18c.21.03.42.04.62.04 2.2 0 4.18-1.46 4.8-3.62.97-3.37.82-6.9-.43-10.19l-32.28-84.92c-1.6-4.21-4.95-7.51-9.19-9.06-.56-.21-1.14-.3-1.71-.3Z" class="cls-9"/><path d="M277.96 375.18c-2.83 0-5.55-.86-7.88-2.5l-3.23-2.27 4.28-2.43 44.3-70.54 26.21 9.32c2.1.75 4.29 1.12 6.5 1.12 7.09 0 13.62-3.86 17.04-10.07l13.41-24.38 80.38 23.43 4.14.52-.8 2.81c-1.2 4.19-4.22 7.48-8.29 9.03l-171.18 65.06c-1.56.59-3.2.9-4.86.9Z" style="fill:url(#Dégradé_sans_nom_142-5)"/><path d="m379.81 276.41 78.64 22.93 1.44.18c-.94 3.28-3.35 6.08-6.78 7.38l-171.18 65.06c-1.31.5-2.65.73-3.97.73a11.3 11.3 0 0 1-6.45-2.04l1.39-.79 43.57-69.37 24.32 8.65c2.41.86 4.89 1.27 7.34 1.27 7.81 0 15.28-4.19 19.23-11.37l12.44-22.62m-2.45-5.92-1.93 3.51-12.44 22.62a16.961 16.961 0 0 1-14.85 8.78c-1.93 0-3.83-.33-5.66-.98l-24.32-8.65-3.78-1.34-2.13 3.39-42.9 68.31-.3.17-6.87 3.9 6.47 4.54a16.14 16.14 0 0 0 9.32 2.95c1.96 0 3.9-.36 5.75-1.06l171.18-65.06c4.75-1.8 8.41-5.8 9.81-10.68l1.6-5.61-5.79-.72-1.04-.13-78.26-22.81-3.85-1.12Z" class="cls-9"/><path d="M348.13 312.89c-2.79 0-5.54-.48-8.17-1.41L232.23 273.2l1.39-2.57c1.49-2.74 3.9-4.86 6.81-5.96l172.44-65.54c1.48-.56 3.03-.85 4.61-.85s3.02.26 4.45.78l2.75 1L382 277.61l-12.44 22.62a24.443 24.443 0 0 1-21.42 12.66Z" style="fill:url(#Dégradé_sans_nom_142-6)"/><path d="M417.48 200.78c1.24 0 2.46.22 3.6.63l-41.27 75-12.44 22.62a21.97 21.97 0 0 1-19.23 11.37c-2.45 0-4.92-.41-7.34-1.27l-24.32-8.65-80.65-28.66c1.16-2.13 3.05-3.89 5.5-4.82l172.44-65.53c1.22-.47 2.49-.69 3.73-.69m0-5c-1.89 0-3.74.34-5.5 1.01l-172.44 65.53a15.569 15.569 0 0 0-8.12 7.11l-2.79 5.14 5.51 1.96 80.65 28.66 24.32 8.65c2.91 1.03 5.94 1.56 9.01 1.56 9.83 0 18.88-5.35 23.61-13.96l12.44-22.62 41.27-74.99 2.82-5.12-5.5-1.99c-1.71-.62-3.49-.93-5.3-.93Z" class="cls-9"/><path d="M302.48 492.72c-.82 0-1.6-.41-2.07-1.1-1.96-2.91-3-6.31-3-9.84V359.11c0-4.85 2.11-9.45 5.78-12.63.47-.41 1.05-.61 1.64-.61s1.15.2 1.62.6l88.05 74.86a2.502 2.502 0 0 1-.11 3.9l-88.27 66.66a2.6 2.6 0 0 1-1.12.48l-2.14.33c-.13.02-.26.03-.38.03Z" style="fill:url(#Dégradé_secondaire1_9-7)"/><path d="m304.83 348.36 88.05 74.86-88.27 66.66-2.14.33a15.072 15.072 0 0 1-2.57-8.44V359.1c0-4.29 1.91-8.14 4.92-10.74m0-5c-1.17 0-2.33.41-3.27 1.22a19.173 19.173 0 0 0-6.65 14.52v122.67c0 4.03 1.19 7.91 3.43 11.24a5 5 0 0 0 4.91 2.14l2.14-.33c.82-.13 1.59-.45 2.25-.95l88.27-66.66a4.982 4.982 0 0 0 1.98-3.85c.04-1.52-.6-2.97-1.76-3.95l-88.05-74.86a5.01 5.01 0 0 0-3.24-1.19Z" class="cls-9"/><path d="M574.36 493.3c-.4 0-.8-.09-1.17-.29l-1.73-.92c-.12-.06-.23-.13-.33-.21l-88.27-66.66a2.502 2.502 0 0 1-.11-3.9l88.07-74.86c.47-.4 1.04-.59 1.62-.59s1.17.2 1.64.61c3.67 3.18 5.78 7.78 5.78 12.63v122.67c0 3.83-1.21 7.47-3.49 10.52-.49.65-1.24 1-2 1Z" style="fill:url(#Dégradé_secondaire1_9-8)"/><path d="M572.44 348.36c3.01 2.6 4.92 6.45 4.92 10.74v122.67c0 3.39-1.11 6.51-2.99 9.03l-1.73-.92-88.27-66.66 88.07-74.86m0-5c-1.15 0-2.3.4-3.24 1.19l-88.07 74.86c-1.16.98-1.8 2.44-1.76 3.95.04 1.52.77 2.93 1.98 3.85l88.27 66.66c.21.16.44.3.67.43l1.73.92c.74.39 1.55.58 2.34.58 1.53 0 3.03-.71 4.01-2 2.61-3.49 3.99-7.65 3.99-12.02V359.11c0-5.58-2.42-10.87-6.65-14.52-.94-.81-2.1-1.22-3.27-1.22Z" class="cls-9"/><path d="M315 499.37c-5.84 0-11.3-2.9-14.59-7.75l-2.22-3.27 5.42-.84 89.36-67.49 28.08 23.88c4.9 4.16 11.14 6.46 17.57 6.46s12.67-2.29 17.57-6.46l28.08-23.88 89.71 67.75 4.13 2.19-1.75 2.34c-3.36 4.49-8.49 7.07-14.1 7.07H314.99Z" style="fill:url(#Dégradé_sans_nom_142-7)"/><path d="m484.37 423.22 88.27 66.66 1.73.92a15.047 15.047 0 0 1-12.1 6.06H315c-5.21 0-9.79-2.63-12.52-6.65l2.14-.33 88.27-66.66 26.55 22.58c5.53 4.7 12.36 7.05 19.19 7.05s13.66-2.35 19.19-7.05l26.55-22.58m-.19-6.41-3.05 2.6-26.55 22.58c-4.44 3.78-10.11 5.86-15.95 5.86s-11.51-2.08-15.95-5.86l-26.55-22.58-3.05-2.6-3.2 2.42-87.26 65.9-.89.14-7.8 1.21 4.43 6.54c3.75 5.54 9.98 8.84 16.66 8.84h247.27c6.31 0 12.33-3.02 16.1-8.07l3.49-4.67-5.15-2.73-1.38-.73-87.95-66.42-3.2-2.42Z" class="cls-9"/><path d="M438.63 455.36c-7.62 0-15.01-2.72-20.81-7.65l-26.55-22.58-90.28-76.75 2.22-1.91c3.04-2.61 6.9-4.05 10.88-4.05h249.09c3.99 0 7.86 1.44 10.9 4.05l2.22 1.91-90.3 76.75-26.55 22.58a32.166 32.166 0 0 1-20.81 7.65Z" style="fill:url(#Dégradé_sans_nom_142-8)"/><path d="M563.17 344.92c3.54 0 6.79 1.31 9.27 3.45l-88.07 74.86-26.55 22.58c-5.53 4.7-12.36 7.05-19.19 7.05s-13.66-2.35-19.19-7.05l-26.55-22.58-88.05-74.86c2.48-2.14 5.72-3.45 9.25-3.45h249.09m0-5H314.09c-4.58 0-9.03 1.65-12.51 4.66l-4.43 3.81 4.45 3.79 88.05 74.86 26.55 22.58c6.25 5.32 14.22 8.24 22.43 8.24s16.18-2.93 22.43-8.24l26.55-22.58 88.07-74.86 4.45-3.79-4.43-3.81c-3.49-3-7.94-4.66-12.53-4.66Z" class="cls-9"/><path d="M443.48 270.59c6.55 0 13.13 1.02 19.55 3.08 33.47 10.74 51.96 46.7 41.22 80.17-8.67 27.01-33.78 44.27-60.74 44.27-6.44 0-12.98-.98-19.43-3.05a3.322 3.322 0 0 1-2.15-4.18v-.01a60.207 60.207 0 0 1-13.62-7.35l.02.24a3.33 3.33 0 0 1-1.51 3.07c-.55.35-1.17.53-1.8.53-.56 0-1.12-.14-1.62-.42l-32.15-17.98a3.319 3.319 0 0 1 1.62-6.22c.55 0 1.1.14 1.62.42l26.68 14.93-.05-.63c-3.51-3.46-6.6-7.34-9.18-11.57-.01 0-.02.01-.03.02a3.32 3.32 0 0 1-4.5-1.35c-8.28-15.39-9.89-33.03-4.56-49.67 5.2-16.21 16.41-29.43 31.55-37.21 9.15-4.7 19.07-7.08 29.07-7.08m0-5c-10.8 0-21.64 2.64-31.36 7.64-16.33 8.4-28.41 22.65-34.02 40.13-5.03 15.66-4.34 32.15 1.86 47.12l-3.02-1.69a8.364 8.364 0 0 0-4.06-1.06c-3.01 0-5.8 1.63-7.27 4.26a8.258 8.258 0 0 0-.75 6.32c.6 2.14 2.01 3.92 3.95 5l32.15 17.98a8.311 8.311 0 0 0 8.57-.27c.19-.12.37-.25.55-.38 2.27 1.36 4.62 2.57 7.04 3.64.15.48.34.95.57 1.41a8.265 8.265 0 0 0 4.86 4.12 68.356 68.356 0 0 0 20.96 3.29c14.45 0 28.33-4.48 40.14-12.94 12.06-8.64 20.82-20.67 25.36-34.8 5.6-17.46 4.06-36.07-4.34-52.42-8.4-16.35-22.65-28.44-40.1-34.04a68.924 68.924 0 0 0-21.07-3.32Z" class="cls-9"/><circle cx="443.55" cy="334.43" r="60.44" class="cls-9"/><path d="M425.09 391.89c31.77 10.2 65.8-7.3 75.99-39.07 10.2-31.77-7.3-65.8-39.07-75.99-31.77-10.2-65.8 7.3-75.99 39.07-5.22 16.27-3.18 33.13 4.32 47.08" class="cls-9"/><path d="M443.51 398.11c-6.44 0-12.98-.98-19.43-3.05a3.322 3.322 0 0 1-2.15-4.18 3.326 3.326 0 0 1 4.18-2.15c29.97 9.62 62.2-6.94 71.82-36.92 4.66-14.52 3.39-29.99-3.59-43.55-6.97-13.56-18.81-23.6-33.33-28.26s-29.99-3.39-43.55 3.59-23.6 18.81-28.26 33.33c-4.78 14.9-3.33 30.71 4.08 44.49.87 1.62.26 3.63-1.35 4.5-1.62.87-3.63.26-4.5-1.35-8.28-15.39-9.89-33.03-4.56-49.67 5.2-16.21 16.41-29.43 31.55-37.21 15.14-7.78 32.41-9.21 48.62-4 33.47 10.74 51.96 46.7 41.22 80.17-8.67 27.01-33.78 44.27-60.74 44.27Z" style="fill:url(#Dégradé_secondaire1)"/><path d="M405.02 387.36c-.56 0-1.12-.14-1.62-.42l-32.15-17.98c-1.6-.9-2.17-2.92-1.28-4.52s2.92-2.17 4.52-1.28l26.68 14.93-2.61-30.46a3.313 3.313 0 0 1 3.03-3.59c1.83-.14 3.44 1.2 3.59 3.03l3.14 36.7a3.33 3.33 0 0 1-1.51 3.07c-.55.35-1.17.53-1.8.53Z" style="fill:url(#Dégradé_secondaire1-2)"/><path d="M443.55 302.45v31.98l25.33 31.26" class="cls-9"/><path d="M468.88 369.01c-.97 0-1.93-.42-2.58-1.23l-26.07-32.17v-33.15c0-1.83 1.49-3.32 3.32-3.32s3.32 1.49 3.32 3.32v30.8l24.59 30.35a3.31 3.31 0 0 1-.49 4.67 3.3 3.3 0 0 1-2.09.74Z" style="fill:url(#Dégradé_secondaire1-3)"/></svg>