<svg xmlns="http://www.w3.org/2000/svg" xmlns:xlink="http://www.w3.org/1999/xlink" id="Calque_1" data-name="Calque 1" viewBox="0 0 841.89 595.28"><defs><linearGradient id="Dégradé_secondaire1" x1="455.59" x2="582.48" y1="279.07" y2="405.96" data-name="Dégradé secondaire1" gradientUnits="userSpaceOnUse"><stop offset="0" stop-color="#5b5a72"/><stop offset="1" stop-color="#b0b0bf"/></linearGradient><linearGradient xlink:href="#Dégradé_secondaire1" id="Dégradé_secondaire1-2" x1="498.24" x2="626.72" y1="238.68" y2="367.15" data-name="Dégradé secondaire1"/><linearGradient xlink:href="#Dégradé_secondaire1" id="Dégradé_secondaire1-3" x1="254.5" x2="377.04" y1="281.27" y2="403.81" data-name="Dégradé secondaire1"/><linearGradient xlink:href="#Dégradé_secondaire1" id="Dégradé_secondaire1-4" x1="297.18" x2="421.25" y1="240.91" y2="364.98" data-name="Dégradé secondaire1"/><linearGradient xlink:href="#Dégradé_secondaire1" id="Dégradé_secondaire1-5" x1="324.66" x2="501.5" y1="295.65" y2="472.49" data-name="Dégradé secondaire1"/><linearGradient xlink:href="#Dégradé_secondaire1" id="Dégradé_secondaire1-6" x1="381.64" x2="560.13" y1="240.9" y2="419.39" data-name="Dégradé secondaire1"/><linearGradient xlink:href="#Dégradé_secondaire1" id="Dégradé_secondaire1-7" x1="138.06" x2="203.71" y1="-8571.83" y2="-8551.13" data-name="Dégradé secondaire1" gradientTransform="rotate(30.81 -15770.86 -4024.748)"/><linearGradient xlink:href="#Dégradé_secondaire1" id="Dégradé_secondaire1-8" x1="-1203.8" x2="-1165.43" y1="-9366.97" y2="-9354.87" data-name="Dégradé secondaire1" gradientTransform="rotate(46.88 -11493.867 -2883.63)"/><linearGradient xlink:href="#Dégradé_secondaire1" id="Dégradé_secondaire1-9" x1="371.7" x2="509.45" y1="253.74" y2="115.99" data-name="Dégradé secondaire1"/><linearGradient xlink:href="#Dégradé_secondaire1" id="Dégradé_secondaire1-10" x1="413.65" x2="467.51" y1="201.43" y2="147.57" data-name="Dégradé secondaire1"/><linearGradient xlink:href="#Dégradé_secondaire1" id="Dégradé_secondaire1-11" x1="550.75" x2="533.7" y1="212.45" y2="195.41" data-name="Dégradé secondaire1" gradientTransform="matrix(-1 0 0 1 1084.45 0)"/><linearGradient xlink:href="#Dégradé_secondaire1" id="Dégradé_secondaire1-12" x1="754.04" x2="737" y1="212.45" y2="195.41" data-name="Dégradé secondaire1" gradientTransform="matrix(-1 0 0 1 1084.45 0)"/><linearGradient xlink:href="#Dégradé_secondaire1" id="Dégradé_secondaire1-13" x1="656.84" x2="630.9" y1="215.39" y2="189.45" data-name="Dégradé secondaire1" gradientTransform="matrix(-1 0 0 1 1084.45 0)"/><linearGradient xlink:href="#Dégradé_secondaire1" id="Dégradé_secondaire1-14" x1="371.7" x2="509.45" y1="115.99" y2="253.74" data-name="Dégradé secondaire1"/><linearGradient xlink:href="#Dégradé_secondaire1" id="Dégradé_secondaire1-15" x1="371.7" x2="509.45" y1="115.99" y2="253.74" data-name="Dégradé secondaire1"/><linearGradient xlink:href="#Dégradé_secondaire1" id="Dégradé_secondaire1-16" x1="371.7" x2="509.45" y1="115.99" y2="253.74" data-name="Dégradé secondaire1"/><linearGradient xlink:href="#Dégradé_secondaire1" id="Dégradé_secondaire1-17" x1="371.7" x2="509.45" y1="115.99" y2="253.74" data-name="Dégradé secondaire1"/><linearGradient xlink:href="#Dégradé_secondaire1" id="Dégradé_secondaire1-18" x1="371.7" x2="509.45" y1="115.99" y2="253.74" data-name="Dégradé secondaire1"/><linearGradient xlink:href="#Dégradé_secondaire1" id="Dégradé_secondaire1-19" x1="599.57" x2="651.38" y1="203.59" y2="255.41" data-name="Dégradé secondaire1"/><linearGradient xlink:href="#Dégradé_secondaire1" id="Dégradé_secondaire1-20" x1="537.66" x2="571.53" y1="-8741.17" y2="-8730.49" data-name="Dégradé secondaire1" gradientTransform="rotate(30.81 -15770.86 -4024.748)"/><style>.cls-2{fill:#fff}</style></defs><path d="M542.23 401.95c-25.62 0-58.41-2.7-69.14-15.54-3.38-4.04-3.2-7.52-3.08-8.39.12-1.45 1.79-18.77 11.14-36.34 8.93-16.77 26.77-36.77 61.09-36.77s52.16 20 61.09 36.77c9.35 17.57 11.02 34.89 11.14 36.34.11.87.29 4.35-3.08 8.39-10.74 12.84-43.53 15.54-69.14 15.54Z" style="fill:url(#Dégradé_secondaire1)"/><path d="M542.23 307.41c64.03 0 69.74 70.89 69.74 70.89s3.81 21.15-69.74 21.15-69.74-21.15-69.74-21.15 5.72-70.89 69.74-70.89m0-5c-28.14 0-50.03 13.17-63.3 38.09-9.48 17.82-11.26 35.43-11.42 37.26-.17 1.4-.24 5.59 3.65 10.25 9.12 10.91 33.02 16.43 71.06 16.43s61.95-5.53 71.06-16.43c3.9-4.66 3.82-8.85 3.65-10.25-.16-1.83-1.94-19.44-11.42-37.26-13.26-24.92-35.15-38.09-63.3-38.09Z" class="cls-2"/><path d="M542.23 331.37c-26.86 0-48.71-21.85-48.71-48.71s21.85-48.71 48.71-48.71 48.71 21.85 48.71 48.71-21.85 48.71-48.71 48.71Z" style="fill:url(#Dégradé_secondaire1-2)"/><path d="M542.23 236.45c25.52 0 46.21 20.69 46.21 46.21s-20.69 46.21-46.21 46.21-46.21-20.69-46.21-46.21 20.69-46.21 46.21-46.21m0-5c-28.24 0-51.21 22.97-51.21 51.21s22.97 51.21 51.21 51.21 51.21-22.97 51.21-51.21-22.97-51.21-51.21-51.21Z" class="cls-2"/><path d="M338.93 401.95c-25.62 0-58.41-2.7-69.14-15.54-3.38-4.04-3.2-7.52-3.08-8.39.12-1.45 1.79-18.77 11.14-36.34 8.93-16.77 26.77-36.77 61.09-36.77s52.16 20 61.09 36.77c9.36 17.58 11.02 34.89 11.14 36.34.11.87.29 4.35-3.08 8.39-10.74 12.84-43.53 15.54-69.14 15.54Z" style="fill:url(#Dégradé_secondaire1-3)"/><path d="M338.93 307.41c64.03 0 69.74 70.89 69.74 70.89s3.81 21.15-69.74 21.15-69.74-21.15-69.74-21.15 5.72-70.89 69.74-70.89m0-5c-28.14 0-50.03 13.17-63.3 38.09-9.48 17.82-11.26 35.43-11.42 37.26-.17 1.4-.24 5.59 3.65 10.25 9.12 10.91 33.02 16.43 71.06 16.43s61.95-5.53 71.06-16.43c3.9-4.66 3.82-8.85 3.65-10.25-.16-1.83-1.94-19.44-11.42-37.26-13.26-24.92-35.15-38.09-63.3-38.09Z" class="cls-2"/><path d="M338.93 331.37c-26.86 0-48.71-21.85-48.71-48.71s21.85-48.71 48.71-48.71 48.71 21.85 48.71 48.71-21.85 48.71-48.71 48.71Z" style="fill:url(#Dégradé_secondaire1-4)"/><path d="M338.93 236.45c25.52 0 46.21 20.69 46.21 46.21s-20.69 46.21-46.21 46.21-46.21-20.69-46.21-46.21 20.69-46.21 46.21-46.21m0-5c-28.24 0-51.21 22.97-51.21 51.21s22.97 51.21 51.21 51.21 51.21-22.97 51.21-51.21-22.97-51.21-51.21-51.21Z" class="cls-2"/><path d="M440.58 459.45c-62.11 0-84.5-11.2-92.36-20.59-4.39-5.25-4.09-9.67-3.95-10.65.16-1.86 2.36-25.03 14.89-48.57 11.9-22.36 35.68-49.01 81.42-49.01s69.52 26.65 81.42 49.01c12.53 23.54 14.73 46.71 14.89 48.57.13.98.44 5.4-3.95 10.65-7.85 9.39-30.25 20.59-92.36 20.59Z" style="fill:url(#Dégradé_secondaire1-5)"/><path d="M440.58 333.13c86.14 0 93.83 95.37 93.83 95.37s5.13 28.46-93.83 28.46-93.83-28.46-93.83-28.46 7.69-95.37 93.83-95.37m0-5c-46.98 0-71.41 27.37-83.63 50.33-12.62 23.71-14.96 47.1-15.17 49.47-.2 1.57-.38 6.67 4.52 12.53 5.13 6.14 14.19 11.05 26.92 14.59 16.43 4.58 39.1 6.9 67.36 6.9s50.93-2.32 67.36-6.9c12.73-3.54 21.78-8.45 26.91-14.59 4.9-5.86 4.72-10.96 4.52-12.53-.21-2.36-2.55-25.76-15.17-49.47-12.22-22.96-36.65-50.33-83.63-50.33Z" class="cls-2"/><path d="M440.58 364.51c-35.66 0-64.67-29.01-64.67-64.67s29.01-64.67 64.67-64.67 64.67 29.01 64.67 64.67-29.01 64.67-64.67 64.67Z" style="fill:url(#Dégradé_secondaire1-6)"/><path d="M440.58 237.67c34.34 0 62.17 27.83 62.17 62.17s-27.83 62.17-62.17 62.17-62.17-27.83-62.17-62.17 27.83-62.17 62.17-62.17m0-5c-37.04 0-67.17 30.13-67.17 67.17s30.13 67.17 67.17 67.17 67.17-30.13 67.17-67.17-30.13-67.17-67.17-67.17Z" class="cls-2"/><path d="M248.92 278.72c-1.24 0-2.32-.84-2.63-2.05l-1.18-4.67h-.49c-2.87 0-5.69-.44-8.4-1.29l-2.47 4.13a2.719 2.719 0 0 1-3.72.94l-6.39-3.81a2.717 2.717 0 0 1-.94-3.72l2.46-4.13a27.702 27.702 0 0 1-5.36-7.2l-4.67 1.18c-.22.05-.44.08-.67.08-1.24 0-2.32-.84-2.63-2.04l-1.83-7.22c-.18-.7-.07-1.43.3-2.05.37-.62.96-1.06 1.66-1.24l4.67-1.18c-.05-3.03.38-6.01 1.29-8.88l-4.13-2.47a2.705 2.705 0 0 1-.94-3.71l3.81-6.39a2.719 2.719 0 0 1 3.72-.94l4.13 2.47c2.09-2.16 4.51-3.96 7.2-5.36l-1.18-4.67c-.18-.7-.07-1.43.3-2.05s.96-1.06 1.67-1.24l7.21-1.82c.22-.05.44-.08.67-.08 1.24 0 2.32.84 2.63 2.05l1.18 4.67h.51c2.86 0 5.67.43 8.38 1.29l2.47-4.13a2.719 2.719 0 0 1 3.72-.94l6.39 3.81c1.28.76 1.71 2.43.94 3.72l-2.47 4.13c2.17 2.09 3.96 4.51 5.36 7.21l4.67-1.18c.22-.05.44-.08.67-.08 1.24 0 2.32.84 2.63 2.05l1.83 7.21c.18.7.07 1.43-.3 2.05-.37.62-.96 1.06-1.66 1.24l-4.67 1.18c.05 3.03-.38 6.02-1.29 8.89l4.13 2.46a2.705 2.705 0 0 1 .94 3.71l-3.81 6.39a2.719 2.719 0 0 1-3.72.94l-4.13-2.46a28.04 28.04 0 0 1-7.2 5.36l1.18 4.67c.18.7.07 1.43-.3 2.05s-.96 1.06-1.67 1.24l-7.22 1.82c-.22.05-.44.08-.66.08Zm-4.25-44.51c-3.43 0-6.66 1.83-8.42 4.77-2.76 4.64-1.24 10.66 3.39 13.42a9.83 9.83 0 0 0 5 1.38c3.44 0 6.66-1.83 8.42-4.78 2.76-4.63 1.24-10.65-3.39-13.42a9.742 9.742 0 0 0-5.01-1.38Z" style="fill:url(#Dégradé_secondaire1-7)"/><path d="M240.41 210.21c.8 0 1.53.54 1.73 1.35l1.36 5.39a26.687 26.687 0 0 1 10.01 1.45l2.85-4.77c.33-.56.93-.87 1.54-.87.31 0 .63.08.91.25l3.2 1.91 3.19 1.9c.85.51 1.12 1.6.62 2.45l-2.85 4.77c2.56 2.34 4.58 5.1 6.04 8.12l5.39-1.37c.15-.04.29-.06.44-.06.8 0 1.53.54 1.73 1.35l.91 3.61.91 3.6c.24.96-.34 1.93-1.29 2.17l-5.39 1.36c.14 3.35-.32 6.74-1.46 10.02l4.77 2.84c.85.51 1.12 1.6.62 2.45l-1.9 3.19-1.91 3.2c-.33.56-.93.87-1.54.87-.31 0-.63-.08-.91-.25l-4.77-2.84a27.024 27.024 0 0 1-8.12 6.04l1.36 5.39c.24.96-.34 1.93-1.29 2.17l-3.61.91-3.61.91c-.15.04-.29.05-.44.05-.8 0-1.53-.54-1.73-1.35l-1.36-5.39a26.803 26.803 0 0 1-10.01-1.45l-2.85 4.77c-.33.56-.93.87-1.54.87-.31 0-.63-.08-.91-.25l-3.19-1.9-3.2-1.91c-.85-.51-1.13-1.6-.62-2.45l2.85-4.77c-2.56-2.34-4.58-5.1-6.04-8.12l-5.39 1.36c-.15.04-.29.05-.44.05-.8 0-1.53-.54-1.73-1.35l-.91-3.61-.91-3.61c-.24-.96.34-1.93 1.29-2.17l5.39-1.36c-.15-3.34.32-6.74 1.46-10.01l-4.77-2.85a1.79 1.79 0 0 1-.62-2.45l1.91-3.2 1.9-3.19c.33-.56.93-.87 1.54-.87.31 0 .63.08.91.25l4.77 2.85c2.34-2.56 5.1-4.58 8.12-6.04l-1.36-5.39c-.24-.96.34-1.93 1.3-2.17l3.61-.91 3.61-.91c.15-.04.29-.05.44-.05m4.24 44.51c3.65 0 7.21-1.87 9.21-5.23 3.03-5.08 1.37-11.65-3.71-14.68a10.618 10.618 0 0 0-5.48-1.51c-3.65 0-7.2 1.86-9.21 5.22a10.706 10.706 0 0 0 9.18 16.2m-4.24-46.36c-.3 0-.6.04-.89.11l-3.61.91-3.6.91c-.94.24-1.73.83-2.23 1.66s-.64 1.81-.4 2.75l1 3.97a28.81 28.81 0 0 0-6.28 4.67l-3.51-2.1c-.56-.34-1.21-.51-1.86-.51-1.27 0-2.47.68-3.12 1.77l-1.9 3.19-1.91 3.2a3.632 3.632 0 0 0 1.26 4.98l3.51 2.1c-.73 2.52-1.1 5.11-1.13 7.74l-3.97 1a3.636 3.636 0 0 0-2.63 4.41l.91 3.61.92 3.61a3.636 3.636 0 0 0 4.41 2.63l3.97-1c1.27 2.31 2.83 4.41 4.67 6.28l-2.1 3.51c-.5.83-.64 1.81-.4 2.75s.83 1.73 1.66 2.23l3.2 1.91 3.19 1.9c.56.34 1.21.51 1.86.51 1.27 0 2.47-.68 3.12-1.77l2.1-3.51c2.51.73 5.11 1.1 7.75 1.12l1 3.97a3.634 3.634 0 0 0 4.41 2.64l3.61-.91 3.61-.91a3.636 3.636 0 0 0 2.63-4.41l-1-3.97c2.3-1.27 4.41-2.83 6.28-4.67l3.51 2.09c.56.34 1.21.51 1.86.51 1.27 0 2.47-.68 3.12-1.77l1.91-3.2 1.9-3.19c1.03-1.72.46-3.96-1.26-4.98l-3.51-2.09c.73-2.52 1.1-5.11 1.12-7.75l3.97-1c.94-.24 1.73-.83 2.23-1.66s.64-1.81.4-2.75l-.91-3.6-.91-3.61a3.625 3.625 0 0 0-4.41-2.63l-3.97 1.01a28.81 28.81 0 0 0-4.67-6.28l2.1-3.51c1.03-1.72.46-3.96-1.26-4.98l-3.19-1.9-3.2-1.91c-.56-.34-1.21-.51-1.86-.51-1.27 0-2.47.68-3.12 1.77l-2.1 3.51c-2.51-.73-5.11-1.1-7.74-1.12l-1-3.97a3.625 3.625 0 0 0-3.52-2.74Zm4.24 44.51c-1.59 0-3.15-.43-4.53-1.25a8.82 8.82 0 0 1-4.05-5.44c-.58-2.3-.23-4.68.98-6.71a8.9 8.9 0 0 1 7.62-4.32c1.59 0 3.16.43 4.53 1.25a8.792 8.792 0 0 1 4.05 5.44c.58 2.3.23 4.68-.98 6.71a8.914 8.914 0 0 1-7.63 4.33Z" class="cls-2"/><path d="M290.23 232.16c-.63 0-1.24-.26-1.67-.72l-2.76-2.95c-1.45.46-2.96.7-4.5.7-1.88 0-3.7-.34-5.43-1.03l-2.95 2.76c-.42.4-.98.62-1.56.62-.63 0-1.24-.26-1.67-.72l-5.55-5.93c-.86-.92-.81-2.37.11-3.23l2.95-2.77c-1.02-3.22-.9-6.77.33-9.92l-2.77-2.96c-.42-.44-.64-1.03-.62-1.63.02-.61.28-1.17.72-1.59l5.93-5.55c.42-.4.98-.62 1.56-.62.63 0 1.24.26 1.67.72l2.77 2.96c1.46-.47 2.97-.7 4.51-.7 1.87 0 3.69.34 5.42 1.02l2.96-2.77c.42-.4.98-.62 1.56-.62.63 0 1.24.26 1.67.72l5.55 5.93c.86.92.81 2.37-.11 3.23l-2.96 2.77c1.04 3.27.93 6.75-.33 9.93l2.76 2.95c.42.45.64 1.03.62 1.64a2.29 2.29 0 0 1-.72 1.59l-5.93 5.55c-.42.4-.98.62-1.56.62Zm-8.94-20.68c-.74 0-1.45.28-1.99.78-1.17 1.1-1.24 2.95-.14 4.12.56.6 1.31.92 2.13.92.74 0 1.45-.28 1.99-.79.57-.53.89-1.25.92-2.03s-.25-1.52-.79-2.09c-.56-.59-1.31-.92-2.12-.92Z" style="fill:url(#Dégradé_secondaire1-8)"/><path d="M272.35 197.54c.36 0 .73.14.99.43l3.18 3.39c1.54-.57 3.16-.85 4.78-.85 1.92 0 3.83.4 5.61 1.18l3.4-3.18c.26-.25.6-.37.93-.37.36 0 .73.14.99.43l2.78 2.97 2.78 2.97c.51.55.49 1.41-.06 1.92l-3.4 3.18c1.23 3.37 1.11 7.11-.34 10.39l3.17 3.39c.51.55.49 1.41-.06 1.92l-2.96 2.77-2.97 2.78c-.26.25-.6.37-.93.37-.36 0-.73-.14-.99-.43l-3.17-3.39c-1.54.56-3.15.84-4.77.84-1.92 0-3.84-.4-5.62-1.18l-3.39 3.17c-.26.25-.6.37-.93.37-.36 0-.73-.14-.99-.43l-2.78-2.97-2.78-2.97c-.51-.55-.49-1.41.06-1.92l3.39-3.17a13.91 13.91 0 0 1 .35-10.38l-3.18-3.39c-.51-.55-.49-1.41.06-1.92l2.97-2.78 2.96-2.77c.26-.25.6-.37.93-.37m8.95 20.68a3.838 3.838 0 0 0 2.79-6.46 3.804 3.804 0 0 0-2.8-1.21 3.829 3.829 0 0 0-2.8 6.45c.75.81 1.78 1.22 2.8 1.22m-8.95-22.53c-.82 0-1.6.31-2.19.87l-2.96 2.77-2.97 2.78c-.63.59-.99 1.38-1.01 2.24-.03.86.28 1.67.86 2.3l2.38 2.54a16.015 16.015 0 0 0-.32 9.42l-2.54 2.38c-.63.59-.99 1.38-1.01 2.24-.03.86.28 1.67.86 2.3l2.78 2.97 2.78 2.97c.6.65 1.46 1.02 2.34 1.02.82 0 1.6-.31 2.19-.87l2.54-2.37c1.67.59 3.42.88 5.21.88 1.44 0 2.85-.19 4.22-.57l2.37 2.54c.6.65 1.46 1.02 2.34 1.02.82 0 1.6-.31 2.19-.87l2.97-2.78 2.96-2.77c.63-.59.99-1.38 1.01-2.24.03-.86-.28-1.67-.86-2.3l-2.37-2.53a15.65 15.65 0 0 0 .31-9.43l2.54-2.38c.63-.59.99-1.38 1.01-2.24.03-.86-.28-1.67-.86-2.3l-2.78-2.97-2.78-2.97c-.6-.65-1.46-1.02-2.34-1.02-.82 0-1.6.31-2.19.87l-2.54 2.38a15.52 15.52 0 0 0-5.2-.88c-1.44 0-2.85.19-4.23.58l-2.38-2.54c-.6-.65-1.46-1.02-2.34-1.02Zm8.95 20.68c-.56 0-1.08-.22-1.46-.63-.75-.8-.7-2.06.1-2.81.37-.35.85-.54 1.36-.54.56 0 1.07.22 1.45.63a1.99 1.99 0 0 1-1.45 3.35Z" class="cls-2"/><path d="M338.93 217.43v-65.14h203.3v65.14" style="stroke:url(#Dégradé_secondaire1-9);fill:none;stroke-linecap:round;stroke-linejoin:round;stroke-width:5px"/><path d="M440.58 124.17v100.66" style="stroke:url(#Dégradé_secondaire1-10);fill:none;stroke-linecap:round;stroke-linejoin:round;stroke-width:5px"/><path d="m551.56 199.76-9.33 17.67-9.34-17.67" style="stroke:url(#Dégradé_secondaire1-11);fill:none;stroke-linecap:round;stroke-linejoin:round;stroke-width:5px"/><path d="m348.27 199.76-9.34 17.67-9.33-17.67" style="stroke:url(#Dégradé_secondaire1-12);fill:none;stroke-linecap:round;stroke-linejoin:round;stroke-width:5px"/><path d="m456.07 195.5-15.49 29.33-15.49-29.33" style="fill:none;stroke-linecap:round;stroke-linejoin:round;stroke-width:5px;stroke:url(#Dégradé_secondaire1-13)"/><path d="M338.93 217.43v-65.14h203.3v65.14" style="stroke:url(#Dégradé_secondaire1-14);fill:none;stroke-linecap:round;stroke-linejoin:round;stroke-width:5px"/><path d="M440.58 124.17v100.66" style="stroke:url(#Dégradé_secondaire1-15);fill:none;stroke-linecap:round;stroke-linejoin:round;stroke-width:5px"/><path d="m551.56 199.76-9.33 17.67-9.34-17.67" style="stroke:url(#Dégradé_secondaire1-16);fill:none;stroke-linecap:round;stroke-linejoin:round;stroke-width:5px"/><path d="m348.27 199.76-9.34 17.67-9.33-17.67" style="stroke:url(#Dégradé_secondaire1-17);fill:none;stroke-linecap:round;stroke-linejoin:round;stroke-width:5px"/><path d="m456.07 195.5-15.49 29.33-15.49-29.33" style="stroke:url(#Dégradé_secondaire1-18);fill:none;stroke-linecap:round;stroke-linejoin:round;stroke-width:5px"/><path d="M631.59 260.01c-1.44 0-2.7-.92-3.13-2.28l-.99-3.05a24.062 24.062 0 0 1-6.25-.51l-1.47 2.86a3.293 3.293 0 0 1-4.43 1.43l-5.46-2.8a3.291 3.291 0 0 1-1.43-4.43l1.46-2.86a24.026 24.026 0 0 1-4.06-4.77l-3.05.99a3.287 3.287 0 0 1-4.14-2.12l-1.88-5.84c-.56-1.73.39-3.59 2.12-4.15l3.05-.99c-.1-2.09.07-4.18.51-6.25l-2.86-1.46a3.3 3.3 0 0 1-1.43-4.44l2.79-5.46a3.278 3.278 0 0 1 2.94-1.79c.52 0 1.04.12 1.5.36l2.86 1.47c1.42-1.56 3.01-2.92 4.77-4.06l-.98-3.05c-.27-.83-.2-1.73.2-2.51s1.08-1.36 1.92-1.63l5.84-1.88c.33-.11.67-.16 1.01-.16 1.44 0 2.7.92 3.13 2.29l.99 3.05a24.179 24.179 0 0 1 6.24.51l1.47-2.86a3.274 3.274 0 0 1 2.93-1.79c.52 0 1.04.12 1.5.36l5.46 2.8c1.62.83 2.26 2.82 1.43 4.43l-1.46 2.86c1.56 1.42 2.92 3.01 4.06 4.77l3.05-.99c.33-.11.67-.16 1.01-.16 1.44 0 2.7.92 3.13 2.29l1.88 5.84c.27.84.2 1.73-.2 2.51-.4.78-1.08 1.36-1.92 1.63l-3.05.99c.1 2.09-.07 4.18-.51 6.24l2.86 1.47c1.62.83 2.26 2.81 1.43 4.43l-2.8 5.46a3.274 3.274 0 0 1-2.93 1.79c-.52 0-1.04-.12-1.5-.36l-2.86-1.47a24.026 24.026 0 0 1-4.77 4.06l.99 3.05c.27.84.2 1.73-.2 2.51-.4.78-1.08 1.36-1.92 1.63l-5.84 1.88c-.33.11-.67.16-1.01.16Zm-5.29-43.22c-1.41 0-2.8.22-4.16.66a13.47 13.47 0 0 0-7.88 6.7 13.4 13.4 0 0 0-.83 10.31c1.81 5.61 6.98 9.38 12.86 9.38 1.4 0 2.8-.22 4.15-.66 3.44-1.11 6.24-3.49 7.88-6.71s1.94-6.88.83-10.32c-1.81-5.6-6.98-9.37-12.86-9.37Z" style="fill:url(#Dégradé_secondaire1-19)"/><path d="M621 202.38c.65 0 1.25.41 1.46 1.06l1.41 4.37a22.423 22.423 0 0 1 8.42.69l2.1-4.1a1.54 1.54 0 0 1 2.07-.67l2.73 1.4 2.73 1.4c.75.39 1.05 1.31.66 2.07l-2.1 4.1c2.18 1.75 4.06 3.92 5.48 6.44l4.38-1.41c.16-.05.32-.07.47-.07.65 0 1.25.41 1.46 1.06l.94 2.92.94 2.92c.26.81-.18 1.67-.99 1.93l-4.38 1.41c.31 2.88.06 5.73-.69 8.42l4.1 2.1c.75.39 1.05 1.31.67 2.06l-1.4 2.73-1.4 2.73a1.54 1.54 0 0 1-2.07.67l-4.1-2.1a22.563 22.563 0 0 1-6.43 5.48l1.41 4.38c.26.81-.18 1.67-.99 1.93l-2.92.94-2.92.94c-.16.05-.32.07-.47.07-.65 0-1.25-.41-1.46-1.06l-1.41-4.38a22.674 22.674 0 0 1-8.42-.68l-2.1 4.1a1.54 1.54 0 0 1-2.07.67l-2.73-1.4-2.73-1.4a1.55 1.55 0 0 1-.67-2.07l2.1-4.1a22.273 22.273 0 0 1-5.48-6.43l-4.38 1.41c-.16.05-.32.07-.47.07-.65 0-1.25-.41-1.46-1.06l-.94-2.92-.94-2.92c-.26-.81.18-1.67.99-1.93l4.38-1.41c-.31-2.88-.06-5.73.69-8.43l-4.1-2.1a1.55 1.55 0 0 1-.67-2.07l1.4-2.73 1.4-2.73a1.54 1.54 0 0 1 2.07-.67l4.1 2.1c1.76-2.18 3.92-4.05 6.44-5.48l-1.41-4.37c-.26-.81.18-1.67.99-1.93l2.92-.94 2.92-.94c.16-.05.32-.07.47-.07m5.29 43.22c1.55 0 3.13-.24 4.69-.74 8.03-2.59 12.44-11.2 9.85-19.24-2.09-6.47-8.08-10.59-14.54-10.59-1.56 0-3.14.24-4.7.74-8.03 2.59-12.44 11.2-9.85 19.23 2.09 6.47 8.09 10.6 14.54 10.6m-5.29-46.74c-.53 0-1.05.08-1.55.24l-2.92.94-2.92.94c-1.28.41-2.33 1.3-2.95 2.51-.62 1.2-.73 2.57-.31 3.86l.58 1.8a26.2 26.2 0 0 0-3.06 2.61l-1.69-.87c-.71-.36-1.51-.56-2.3-.56-1.91 0-3.63 1.06-4.5 2.75l-1.4 2.73-1.4 2.73c-.62 1.2-.73 2.57-.31 3.86a5.056 5.056 0 0 0 2.51 2.95l1.69.86a27 27 0 0 0-.33 4.01l-1.81.58a5.068 5.068 0 0 0-3.26 6.36l.94 2.92.94 2.92c.68 2.09 2.61 3.5 4.81 3.5.53 0 1.05-.08 1.55-.24l1.81-.58a26.2 26.2 0 0 0 2.61 3.06l-.87 1.69a5.056 5.056 0 0 0 2.19 6.8l2.73 1.4 2.72 1.4c.71.36 1.51.56 2.31.56 1.91 0 3.63-1.05 4.5-2.75l.87-1.69c1.33.21 2.67.32 4 .33l.58 1.81c.68 2.1 2.61 3.5 4.81 3.5.53 0 1.05-.08 1.55-.24l2.92-.94 2.92-.94a5.068 5.068 0 0 0 3.26-6.36l-.58-1.81c1.08-.79 2.1-1.66 3.06-2.6l1.69.87c.71.36 1.51.56 2.3.56 1.91 0 3.63-1.05 4.5-2.75l1.4-2.73 1.4-2.73c1.27-2.48.28-5.53-2.2-6.8l-1.69-.87c.21-1.33.32-2.66.33-4l1.81-.58c1.28-.41 2.33-1.3 2.95-2.51.62-1.2.73-2.57.31-3.86l-.94-2.92-.94-2.92c-.68-2.1-2.61-3.5-4.81-3.5-.53 0-1.05.08-1.55.24l-1.81.58a26.2 26.2 0 0 0-2.61-3.06l.87-1.69c1.27-2.48.29-5.53-2.19-6.8l-2.73-1.4-2.73-1.4c-.71-.36-1.51-.56-2.3-.56-1.91 0-3.63 1.05-4.5 2.75l-.87 1.69c-1.32-.21-2.66-.32-4-.33l-.58-1.81c-.68-2.1-2.61-3.5-4.81-3.5Zm5.29 43.22c-5.12 0-9.62-3.28-11.19-8.16-.96-2.99-.71-6.17.73-8.97 1.43-2.8 3.87-4.87 6.85-5.83 1.18-.38 2.39-.57 3.62-.57 5.12 0 9.62 3.27 11.19 8.15 1.99 6.17-1.41 12.82-7.58 14.81-1.18.38-2.39.57-3.61.57Z" class="cls-2"/><path d="M665.71 308.7c-.64 0-1.2-.43-1.35-1.06l-.61-2.41h-.25c-1.48 0-2.94-.22-4.33-.67l-1.27 2.13c-.25.42-.71.68-1.2.68-.25 0-.5-.07-.71-.2l-3.3-1.97a1.4 1.4 0 0 1-.48-1.92l1.27-2.13a14.011 14.011 0 0 1-2.76-3.72l-2.41.61c-.11.03-.23.04-.34.04a1.4 1.4 0 0 1-1.36-1.06l-.94-3.72a1.393 1.393 0 0 1 1.01-1.7l2.41-.61c-.03-1.56.2-3.1.67-4.58l-2.13-1.27c-.66-.4-.88-1.25-.48-1.92l1.97-3.3c.25-.42.71-.68 1.2-.68.25 0 .5.07.71.2l2.13 1.27c1.08-1.12 2.33-2.04 3.72-2.77l-.61-2.41a1.393 1.393 0 0 1 1.01-1.7l3.72-.94c.11-.03.23-.04.34-.04.64 0 1.2.43 1.35 1.06l.61 2.41h.26c1.47 0 2.92.22 4.32.67l1.27-2.13a1.402 1.402 0 0 1 1.92-.48l3.3 1.97c.32.19.55.5.64.86.09.36.04.74-.16 1.06l-1.27 2.13c1.12 1.08 2.05 2.33 2.77 3.72l2.41-.61c.11-.03.23-.04.34-.04.64 0 1.2.43 1.36 1.06l.94 3.72c.09.36.04.74-.16 1.06-.19.32-.5.55-.86.64l-2.41.61c.03 1.57-.2 3.1-.67 4.58l2.13 1.27c.32.19.55.5.64.86.09.36.04.74-.16 1.06l-1.96 3.3a1.402 1.402 0 0 1-1.92.48l-2.13-1.27a14.23 14.23 0 0 1-3.72 2.76l.61 2.41c.19.75-.27 1.51-1.01 1.7l-3.72.94c-.11.03-.23.04-.34.04Zm-2.19-22.96c-1.77 0-3.44.94-4.34 2.46a5.048 5.048 0 0 0 1.75 6.92c.78.47 1.67.71 2.58.71 1.77 0 3.44-.94 4.34-2.46 1.43-2.39.64-5.5-1.75-6.92-.78-.47-1.68-.71-2.58-.71Z" style="fill:url(#Dégradé_secondaire1-20)"/><path d="M661.32 273.36c.41 0 .79.28.89.7l.7 2.78c.21 0 .42-.01.63-.01a14 14 0 0 1 4.54.76l1.47-2.46a.918.918 0 0 1 1.26-.32l1.65.98 1.65.98c.44.26.58.83.32 1.26l-1.47 2.46c1.32 1.21 2.36 2.63 3.12 4.19l2.78-.7a.917.917 0 0 1 1.12.67l.47 1.86.47 1.86c.13.49-.17 1-.67 1.12l-2.78.7c.07 1.73-.17 3.48-.75 5.17l2.46 1.47c.44.26.58.83.32 1.26l-.98 1.65-.98 1.65a.918.918 0 0 1-1.26.32l-2.46-1.47a14.035 14.035 0 0 1-4.19 3.11l.7 2.78c.12.49-.17 1-.67 1.12l-1.86.47-1.86.47a.917.917 0 0 1-1.12-.67l-.7-2.78c-.21 0-.41.01-.62.01-1.53 0-3.06-.25-4.55-.76l-1.47 2.46a.918.918 0 0 1-1.26.32l-1.65-.98-1.65-.98a.917.917 0 0 1-.32-1.26l1.47-2.46a13.746 13.746 0 0 1-3.11-4.19l-2.78.7a.917.917 0 0 1-1.12-.67l-.47-1.86-.47-1.86c-.12-.49.17-1 .67-1.12l2.78-.7c-.08-1.72.17-3.48.75-5.16l-2.46-1.47a.917.917 0 0 1-.32-1.26l.98-1.65.98-1.65a.918.918 0 0 1 1.26-.32l2.46 1.47c1.21-1.32 2.63-2.36 4.19-3.12l-.7-2.78c-.12-.49.17-1 .67-1.12l1.86-.47 1.86-.47c.08-.02.15-.03.23-.03m2.19 22.96c1.88 0 3.72-.96 4.75-2.7a5.523 5.523 0 0 0-4.75-8.35c-1.88 0-3.72.96-4.75 2.7a5.528 5.528 0 0 0 4.74 8.36m-2.19-23.92c-.15 0-.31.02-.46.06l-1.86.47-1.86.47c-.49.12-.9.43-1.15.86-.26.43-.33.93-.21 1.42l.52 2.05a14.76 14.76 0 0 0-3.24 2.41l-1.81-1.08a1.889 1.889 0 0 0-2.57.65l-.98 1.65-.98 1.65c-.26.43-.33.93-.21 1.42s.43.89.86 1.15l1.81 1.08c-.38 1.3-.57 2.64-.58 3.99l-2.05.52c-.49.12-.89.43-1.15.86-.26.43-.33.93-.21 1.42l.47 1.86.47 1.86a1.874 1.874 0 0 0 2.28 1.35l2.05-.52a14.45 14.45 0 0 0 2.41 3.24l-1.08 1.81c-.26.43-.33.93-.21 1.42.12.49.43.89.86 1.15l1.65.98 1.65.98a1.889 1.889 0 0 0 2.57-.65l1.08-1.81c1.3.37 2.64.57 4 .58l.52 2.05c.21.83.96 1.42 1.82 1.42.15 0 .31-.02.46-.06l1.86-.47 1.86-.47c.49-.12.89-.43 1.15-.86.26-.43.33-.93.21-1.42l-.52-2.05a14.68 14.68 0 0 0 3.24-2.41l1.81 1.08a1.889 1.889 0 0 0 2.57-.65l.98-1.65.98-1.65c.53-.89.24-2.04-.65-2.57l-1.81-1.08c.37-1.3.57-2.64.58-4l2.05-.52c.49-.12.89-.43 1.15-.86.26-.43.33-.94.21-1.42l-.47-1.86-.47-1.86c-.21-.83-.96-1.42-1.82-1.42-.16 0-.31.02-.46.06l-2.05.52a14.76 14.76 0 0 0-2.41-3.24l1.08-1.81c.53-.89.24-2.04-.65-2.57l-1.65-.98-1.65-.98a1.889 1.889 0 0 0-2.57.65l-1.08 1.81c-1.3-.37-2.64-.57-4-.58l-.52-2.05c-.21-.83-.96-1.42-1.82-1.42Zm2.19 22.96c-.82 0-1.63-.22-2.34-.65a4.578 4.578 0 0 1-1.59-6.27 4.59 4.59 0 0 1 3.93-2.23c.82 0 1.63.22 2.34.65a4.573 4.573 0 0 1-2.35 8.5Z" class="cls-2"/></svg>