<svg xmlns="http://www.w3.org/2000/svg" xmlns:xlink="http://www.w3.org/1999/xlink" id="Calque_1" data-name="Calque 1" viewBox="0 0 841.89 595.28"><defs><linearGradient id="Dégradé_secondaire1" x1="130.52" x2="316.07" y1="190.73" y2="376.28" data-name="Dégradé secondaire1" gradientUnits="userSpaceOnUse"><stop offset="0" stop-color="#5b5a72"/><stop offset="1" stop-color="#b0b0bf"/></linearGradient><linearGradient xlink:href="#Dégradé_secondaire1" id="Dégradé_secondaire1-2" x1="123.35" x2="308.9" y1="197.9" y2="383.46" data-name="Dégradé secondaire1"/><linearGradient xlink:href="#Dégradé_secondaire1" id="Dégradé_secondaire1-3" x1="172.81" x2="173.28" y1="348.81" y2="349.27" data-name="Dégradé secondaire1" gradientTransform="rotate(-17.67 -290.823 399.425)"/><linearGradient xlink:href="#Dégradé_secondaire1" id="Dégradé_secondaire1-4" x1="539.07" x2="703.83" y1="210.79" y2="375.55" data-name="Dégradé secondaire1"/><linearGradient xlink:href="#Dégradé_secondaire1" id="Dégradé_secondaire1-5" x1="575.1" x2="739.86" y1="174.76" y2="339.52" data-name="Dégradé secondaire1"/><linearGradient xlink:href="#Dégradé_secondaire1" id="Dégradé_secondaire1-6" x1="542.9" x2="543.36" y1="197.04" y2="197.5" data-name="Dégradé secondaire1" gradientTransform="rotate(17.1 630.693 300.16)"/><linearGradient xlink:href="#Dégradé_secondaire1" id="Dégradé_secondaire1-7" x1="702.37" x2="707.31" y1="280.87" y2="285.8" data-name="Dégradé secondaire1" gradientTransform="rotate(-27.9 829.31 473.884)"/><linearGradient xlink:href="#Dégradé_secondaire1" id="Dégradé_secondaire1-8" x1="296.94" x2="537.81" y1="23.93" y2="264.8" data-name="Dégradé secondaire1"/><style>.cls-2{fill:#5b5a72}.cls-8{stroke:#fff;stroke-linecap:round;stroke-width:2.57px;stroke-linejoin:round}.cls-13{fill:#fff}.cls-14{fill:#b0b0bf}.cls-15{fill:#353544}.cls-8{fill:none}</style></defs><path d="m151.01 184.07 102.22-32.57a6.19 6.19 0 0 1 7.78 4.02l62.72 196.83a6.19 6.19 0 0 1-4.02 7.78l-137.82 43.91a6.19 6.19 0 0 1-7.78-4.02l-51.37-161.24" style="fill:url(#Dégradé_secondaire1);stroke-miterlimit:10;stroke-width:2.57px;stroke:#fff;stroke-linecap:round"/><path d="m145.06 263.04 41.41-13.19M147.98 272.2l123.11-39.23M150.89 281.35l123.12-39.22M153.81 290.51l123.12-39.23M156.73 299.67l123.11-39.23M159.65 308.82l123.11-39.23M165.48 327.13l123.11-39.23M168.4 336.29l123.11-39.23M171.31 345.44l76.7-24.43M284.26 336.6l-18.41 5.87M305.01 339.43l-70.91 22.59M160.01 212.31l65.45-20.85M178.12 215.56l34.45-10.98M162.56 317.98l123.12-39.23" class="cls-8"/><circle cx="188.18" cy="367.87" r="9.26" class="cls-8"/><path d="m122.73 238.79 35.6-11.34a6.19 6.19 0 0 0 4.02-7.78l-11.34-35.6" style="fill:url(#Dégradé_secondaire1-2);stroke-miterlimit:10;stroke-width:2.57px;stroke:#fff;stroke-linecap:round"/><path d="m149.64 184.5-27.58 52.16" style="fill:url(#Dégradé_secondaire1-3);stroke-miterlimit:10;stroke-width:2.57px;stroke:#fff;stroke-linecap:round"/><path d="M208.65 450.54c-.24 0-.47-.1-.63-.29L195 435.43l-14.82 13.02a.823.823 0 0 1-.92.12.855.855 0 0 1-.47-.81l2.31-35.73c.01-.22.12-.43.28-.58.15-.13.35-.21.55-.21.02 0 29.08 1.88 29.08 1.88.46.03.81.43.78.89l-2.31 35.73a.84.84 0 0 1-.57.74c-.09.03-.18.04-.27.04Z" class="cls-2"/><path d="m181.94 412.09 29.02 1.88-2.31 35.73-13.57-15.45-15.45 13.57 2.31-35.73m0-1.68a1.685 1.685 0 0 0-1.68 1.57l-2.31 35.73c-.04.68.32 1.32.93 1.62.24.12.49.17.74.17.4 0 .8-.14 1.11-.42l14.19-12.46 12.46 14.19a1.673 1.673 0 0 0 1.8.48c.64-.22 1.09-.8 1.13-1.48l2.31-35.73c.06-.93-.64-1.72-1.57-1.78l-29.02-1.88h-.11Z" class="cls-13"/><path d="M228.28 444.28a.83.83 0 0 1-.65-.31l-22.56-27.79a.84.84 0 0 1 .12-1.18l22.56-18.35a.86.86 0 0 1 .53-.19h.09c.22.02.43.13.57.31l22.58 27.81c.21.26.25.63.09.93-.15.27-.43.44-.74.44h-.09l-19.62-2.04-2.04 19.62c-.04.34-.27.62-.6.72-.08.02-.16.04-.24.04Z" class="cls-2"/><path d="m228.28 397.3 22.58 27.81-20.46-2.12-2.12 20.46-22.56-27.79 22.56-18.35m0-1.68c-.38 0-.76.13-1.06.38l-22.56 18.35a1.67 1.67 0 0 0-.24 2.36l22.56 27.79a1.674 1.674 0 0 0 1.78.55c.65-.19 1.12-.76 1.19-1.44l1.95-18.79 18.79 1.95h.17a1.684 1.684 0 0 0 1.31-2.74l-22.58-27.81c-.28-.35-.69-.57-1.13-.61h-.17Z" class="cls-13"/><path d="M198.35 417.33c-14.73 0-27.64-9.44-32.11-23.48-5.65-17.71 4.17-36.71 21.88-42.36 3.33-1.06 6.78-1.6 10.25-1.6 14.73 0 27.64 9.44 32.11 23.48 2.74 8.58 1.97 17.71-2.17 25.71-4.13 8-11.13 13.91-19.71 16.65-3.33 1.06-6.78 1.6-10.25 1.6Z" class="cls-14"/><path d="M198.37 350.73c13.93 0 26.86 8.92 31.31 22.9 5.52 17.3-4.04 35.79-21.34 41.31a32.777 32.777 0 0 1-9.99 1.56c-13.93 0-26.86-8.92-31.31-22.9-5.52-17.3 4.04-35.79 21.34-41.31 3.32-1.06 6.68-1.56 9.99-1.56m0-1.68c-3.55 0-7.09.55-10.5 1.64-8.79 2.8-15.97 8.86-20.2 17.06-4.24 8.2-5.02 17.56-2.22 26.35 4.59 14.4 17.82 24.07 32.91 24.07 3.55 0 7.09-.55 10.5-1.64 18.15-5.79 28.21-25.26 22.43-43.42-4.59-14.4-17.82-24.07-32.91-24.07Z" class="cls-13"/><circle cx="198.36" cy="383.61" r="26.64" style="stroke-width:1.68px;fill:none;stroke-linejoin:round;stroke:#fff;stroke-linecap:round"/><path d="m184.15 387.3 12.95 6.69 12.34-23.89" style="stroke-width:4.2px;fill:none;stroke-linejoin:round;stroke:#fff;stroke-linecap:round"/><path d="m604.84 162.87 102.55 31.54a6.2 6.2 0 0 1 4.1 7.74l-60.73 197.46a6.2 6.2 0 0 1-7.74 4.1l-138.26-42.52a6.2 6.2 0 0 1-4.1-7.74L550.4 191.7" style="fill:url(#Dégradé_secondaire1-4);stroke-miterlimit:10;stroke-width:2.57px;stroke:#fff;stroke-linecap:round"/><path d="m554.92 224.35 41.54 12.78M552.09 233.54l123.51 37.98M549.27 242.72l123.5 37.98M546.44 251.91l123.51 37.98M543.62 261.09l123.5 37.98M540.8 270.27l123.5 37.99M535.15 288.64l123.5 37.99M532.32 297.83l123.51 37.98M529.5 307.01l76.93 23.66M627.32 364.16l-18.46-5.68M642.75 378.32l-71.13-21.88M596.13 191.2l65.66 20.2M609.16 204.19l34.55 10.63M537.97 279.46l123.51 37.98" class="cls-8"/><circle cx="530.56" cy="335.05" r="9.26" class="cls-8"/><path d="m550.41 191.69 35.71 10.98c3.27 1.01 6.73-.83 7.74-4.1l10.98-35.71" style="fill:url(#Dégradé_secondaire1-5);stroke-miterlimit:10;stroke-width:2.57px;stroke:#fff;stroke-linecap:round"/><path d="m603.47 162.45-52.4 27.11" style="stroke-miterlimit:10;fill:url(#Dégradé_secondaire1-6);stroke-width:2.57px;stroke:#fff;stroke-linecap:round"/><path d="m654.73 360.82-22.35 4.44s-.06-1.32-.68-2.48-1.67-1.95-1.67-1.95l16.23-15.99" style="stroke-linejoin:round;stroke-width:2.57px;stroke:#fff;stroke-linecap:round;fill:#5b5a72"/><path d="m630.03 360.83-2.42 2.37c-1.15 1.13-.13 3.05 1.45 2.74l3.32-.67" style="fill:url(#Dégradé_secondaire1-7);stroke-linejoin:round;stroke-width:2.57px;stroke:#fff;stroke-linecap:round"/><path d="M656.97 362.57c-4.59 0-7.48-4.35-9.49-8.13-1.81-3.42-2.64-6.07-2.62-8.34.03-3 1.56-5.33 4.54-6.9l76.5-40.51c15.77-8.35 28.89-12.95 36.95-12.95 4.04 0 6.71 1.15 7.91 3.42 3.46 6.54-7.6 17.7-29.59 29.86l-55.7 29.54-24.29 12.86c-1.44.76-2.85 1.15-4.2 1.15Z" class="cls-14"/><path d="M762.83 287.02c3.52 0 5.82.94 6.77 2.74 2.78 5.24-6.92 15.88-29.07 28.13l-55.68 29.53-24.29 12.86c-1.3.69-2.5 1-3.6 1-3.55 0-6.13-3.24-8.35-7.45-1.46-2.76-2.49-5.41-2.47-7.73.02-2.32 1.1-4.32 3.85-5.78l76.49-40.51c16.58-8.78 29.07-12.8 36.34-12.8m0-2.57c-8.26 0-21.6 4.65-37.55 13.1l-76.49 40.51c-4.27 2.26-5.2 5.61-5.22 8.02-.03 2.49.85 5.34 2.77 8.95 2 3.78 5.29 8.81 10.62 8.81 1.55 0 3.17-.44 4.8-1.3l24.29-12.86 55.68-29.53c23.06-12.75 34.03-24.26 30.14-31.6-.99-1.87-3.37-4.11-9.04-4.11Z" class="cls-13"/><path d="M688.29 351.3c-1.81 0-3.45-.99-4.3-2.58-.16-.31-.29-.62-.38-.96-.26-.9-.25-1.85.03-2.75a4.87 4.87 0 0 1 2.37-2.87l48.34-25.6v-5.62c.01-.47.28-.91.7-1.13l4.88-2.58a1.285 1.285 0 0 1 1.26.03c.39.23.62.65.62 1.1v10.5c0 2.93-1.6 5.6-4.19 6.97l-47.06 24.92c-.7.37-1.49.57-2.27.57Z" class="cls-2"/><path d="M740.54 308.34V318.85c0 2.44-1.35 4.69-3.51 5.83l-47.06 24.92c-.53.28-1.11.42-1.67.42a3.571 3.571 0 0 1-3.44-2.6 3.557 3.557 0 0 1 1.77-4.13l49.02-25.96v-6.4l4.9-2.59m0-2.57c-.41 0-.83.1-1.2.3l-4.88 2.59c-.84.44-1.36 1.31-1.37 2.26v4.85l-47.67 25.24a6.146 6.146 0 0 0-3 3.61 6.1 6.1 0 0 0-.04 3.49c.12.42.28.81.48 1.2a6.148 6.148 0 0 0 5.43 3.27c1 0 1.99-.25 2.87-.72l47.06-24.92a9.16 9.16 0 0 0 4.88-8.11v-10.5a2.563 2.563 0 0 0-2.56-2.57Zm0 5.13Z" class="cls-13"/><path d="M403.53 354.26a2.1 2.1 0 0 1-2.09-2.13l5.06-233.71c.06-2.55 2.17-4.62 4.72-4.62 2.59 0 4.67 2.03 4.73 4.61l5.48 233.71c.01.56-.2 1.1-.59 1.51-.39.4-.93.63-1.49.63l-15.82.01Z" class="cls-15"/><path d="M411.23 115.88c1.43 0 2.6 1.14 2.64 2.58l5.48 233.71h-15.81l5.06-233.7c.03-1.43 1.2-2.58 2.63-2.58m0-4.17c-3.67 0-6.73 2.99-6.81 6.66l-5.06 233.72a4.168 4.168 0 0 0 4.17 4.26h15.82a4.27 4.27 0 0 0 2.98-1.27c.78-.8 1.21-1.89 1.19-3.01l-5.48-233.71c-.09-3.67-3.14-6.65-6.81-6.65Z" class="cls-13"/><path d="M481.86 266.38c-.29 0-.58-.03-.86-.09-.31-.07-.62-.17-.92-.31a4.127 4.127 0 0 1-2.14-2.37c-.38-1.05-.32-2.18.16-3.19l52.62-111.04c.03-.07.08-.15.12-.23.06-.12.13-.22.19-.32.08-.11.15-.21.22-.3.1-.12.19-.22.3-.33.08-.08.19-.18.29-.27.09-.08.21-.16.32-.24.09-.06.19-.12.3-.18.07-.04.15-.09.21-.12.09-.04.18-.08.27-.11.12-.05.24-.09.36-.12.09-.03.22-.06.34-.09.15-.03.3-.05.44-.06.14-.01.25-.02.37-.02.14 0 .27 0 .41.02.16.02.28.03.39.06.15.03.29.06.43.11a5.576 5.576 0 0 1 .53.19c.07.03.17.09.25.13.09.05.2.11.3.18.15.1.24.17.34.25.11.08.21.18.32.29.08.08.18.19.27.29.08.09.15.2.23.31.07.1.13.21.2.32.05.08.09.17.12.23l52.82 110.93a4.18 4.18 0 0 1-3.76 5.97c-.29 0-.58-.03-.86-.09a4.12 4.12 0 0 1-2.9-2.29l-49.05-103.02-48.86 103.11a4.2 4.2 0 0 1-3.77 2.39Z" class="cls-15"/><path d="M534.48 149.08c.07 0 .14 0 .21.01.06 0 .12.01.18.03.07.01.14.03.21.05.07.02.13.04.2.07l.1.03c.03.01.05.03.08.05.07.03.13.07.19.11.05.04.11.07.16.11.05.04.1.09.15.14.05.05.1.1.14.15.04.05.08.1.11.16.04.06.08.13.12.19.01.03.03.05.05.08l52.82 110.95a2.09 2.09 0 0 1-.99 2.78 2.036 2.036 0 0 1-1.33.15 2.08 2.08 0 0 1-1.45-1.14l-50.94-106.99-50.74 107.08c-.36.75-1.11 1.19-1.89 1.19-.14 0-.29-.01-.43-.05-.16-.03-.31-.09-.46-.16a2.082 2.082 0 0 1-.99-2.78l52.63-111.05s.03-.05.04-.07c.04-.07.08-.14.12-.2.03-.05.07-.1.11-.15.04-.06.09-.11.14-.16.05-.05.1-.09.15-.14.05-.04.1-.08.16-.12.06-.04.13-.08.19-.12.03-.01.05-.03.07-.05l.09-.03c.07-.03.14-.06.22-.08.06-.02.12-.03.17-.04.07-.02.15-.03.22-.03h.19m0-4.17h-.04c-.17 0-.35.01-.53.03-.24.02-.46.05-.68.1-.17.03-.34.08-.52.13-.16.05-.32.1-.48.16-.11.04-.26.1-.43.18-.12.06-.25.13-.38.2-.14.08-.28.17-.43.27-.17.11-.32.23-.47.35-.16.13-.31.27-.45.41-.16.16-.3.32-.44.48-.11.14-.22.29-.33.44-.1.14-.19.29-.27.43-.06.1-.13.22-.2.37L476.2 259.49c-.72 1.51-.8 3.21-.24 4.78.56 1.58 1.7 2.84 3.22 3.55a6.31 6.31 0 0 0 2.68.61c2.41 0 4.63-1.41 5.66-3.58l46.98-99.14 47.16 99.06a6.216 6.216 0 0 0 4.35 3.43c.43.09.86.14 1.3.14.94 0 1.84-.2 2.69-.61a6.217 6.217 0 0 0 3.21-3.56 6.2 6.2 0 0 0-.25-4.78l-52.82-110.95c-.06-.12-.13-.25-.2-.37-.08-.14-.17-.29-.27-.43-.11-.17-.23-.32-.35-.47-.13-.16-.27-.31-.42-.46-.15-.15-.3-.29-.46-.42-.15-.13-.31-.24-.47-.35-.14-.09-.27-.17-.4-.25a4.605 4.605 0 0 0-.85-.4c-.14-.05-.29-.1-.43-.15-.2-.06-.4-.11-.61-.15-.18-.03-.36-.06-.54-.08-.22-.02-.43-.03-.65-.03Z" class="cls-13"/><path d="M235.4 266.6c-.29 0-.58-.03-.86-.09-.31-.07-.62-.17-.92-.31a4.127 4.127 0 0 1-2.14-2.37c-.37-1.05-.32-2.18.16-3.19l52.62-111.04c.03-.07.08-.15.12-.23.06-.12.13-.22.19-.32s.14-.2.22-.3c.09-.11.19-.21.29-.32.1-.1.2-.19.31-.28.09-.08.21-.16.32-.24.09-.06.19-.12.3-.18.07-.04.15-.09.21-.12.09-.04.19-.08.28-.11.13-.05.24-.09.35-.12.09-.03.2-.06.32-.08.17-.04.32-.05.47-.07.11-.01.24-.02.37-.02.16 0 .3 0 .44.02.11 0 .23.03.36.05.12.02.25.06.39.09.14.04.25.08.35.12.09.03.2.08.27.11s.14.07.21.12c.11.06.22.13.32.2.08.05.18.12.27.2.12.1.23.2.33.3.09.1.18.19.27.29.09.11.17.21.24.32.07.11.14.21.2.32.05.08.1.17.13.24l52.82 110.93a4.18 4.18 0 0 1-3.76 5.97c-.29 0-.58-.03-.87-.09a4.14 4.14 0 0 1-2.9-2.29l-49.05-103.02-48.86 103.11a4.2 4.2 0 0 1-3.77 2.39Z" class="cls-15"/><path d="M288.03 149.3c.07 0 .14 0 .21.01.06 0 .12.01.18.03.07.01.14.03.2.05.07.02.14.05.2.07l.09.03c.03.01.05.03.07.04.07.04.13.08.2.12.05.03.1.07.15.11.06.04.11.09.16.14.05.05.09.1.14.15.04.05.08.1.12.16.04.06.08.12.11.19.01.03.03.05.05.08l52.82 110.95a2.09 2.09 0 0 1-.99 2.78 2.036 2.036 0 0 1-1.33.15 2.08 2.08 0 0 1-1.45-1.14l-50.94-106.99-50.74 107.08c-.36.75-1.11 1.19-1.89 1.19-.14 0-.29-.01-.43-.05-.16-.03-.31-.09-.46-.16a2.082 2.082 0 0 1-.99-2.78l52.62-111.05s.03-.05.04-.07c.04-.07.08-.14.12-.2.03-.05.07-.1.11-.15.04-.06.09-.11.14-.16.05-.05.1-.09.15-.14.05-.04.1-.08.16-.11.06-.04.13-.08.19-.12.03-.01.05-.03.07-.04l.09-.03c.07-.03.14-.06.22-.08.06-.02.12-.03.17-.04.07-.02.15-.03.22-.03h.18m0-4.17h-.04c-.17 0-.34.01-.52.03-.25.02-.47.06-.68.1-.16.03-.34.08-.51.13-.17.05-.33.11-.49.17-.12.04-.26.1-.42.17-.12.06-.26.13-.39.21-.15.08-.29.17-.44.27-.16.11-.31.22-.46.34-.16.14-.31.27-.45.41-.17.16-.31.32-.44.48-.11.14-.22.29-.33.44-.1.14-.18.28-.27.43-.06.09-.13.22-.2.37l-52.63 111.07c-.72 1.51-.8 3.21-.24 4.78.56 1.58 1.7 2.84 3.22 3.55a6.247 6.247 0 0 0 2.68.61c2.41 0 4.63-1.41 5.66-3.58l46.98-99.14 47.16 99.05a6.216 6.216 0 0 0 4.35 3.43c.43.09.86.14 1.3.14.94 0 1.84-.2 2.69-.61a6.253 6.253 0 0 0 2.96-8.34l-52.83-110.95c-.06-.12-.13-.25-.2-.37-.08-.14-.17-.29-.27-.43-.11-.16-.22-.32-.35-.47a6.113 6.113 0 0 0-.89-.88c-.14-.12-.29-.23-.45-.33-.14-.09-.28-.18-.42-.26-.1-.06-.24-.14-.4-.21-.17-.08-.32-.14-.44-.18-.15-.06-.29-.11-.44-.15a5.845 5.845 0 0 0-1.15-.23c-.22-.02-.43-.03-.64-.03Z" class="cls-13"/><path d="M534.48 301.29c-36.02 0-54.29-13.15-54.32-39.08v-1.7l108.84-.1v1.7c.01 14.16-5.45 24.63-16.24 31.11-9.02 5.42-21.5 8.06-38.15 8.07h-.14Z" class="cls-14"/><path d="M587.31 262.11c.03 29.12-23.57 37.46-52.69 37.48h-.14c-29.06 0-52.6-8.31-52.62-37.39l105.45-.09m3.39-3.4h-3.4l-105.45.1h-3.4v3.4c.02 27.06 18.87 40.78 56.02 40.78h.14c37.24-.03 56.11-13.79 56.08-40.88v-3.4Z" class="cls-13"/><path d="M288.03 301.51c-36.02 0-54.3-13.15-54.32-39.08v-1.7l108.84-.1v1.7c.02 25.97-18.27 39.15-54.39 39.18h-.13Z" class="cls-14"/><path d="M340.85 262.33c.03 29.12-23.57 37.46-52.69 37.48h-.14c-29.06 0-52.6-8.31-52.62-37.39l105.45-.09m3.39-3.4h-3.4l-105.45.1h-3.4v3.4c.02 27.06 18.87 40.78 56.02 40.78h.14c37.24-.03 56.11-13.79 56.08-40.88v-3.4Z" class="cls-13"/><path d="M259.1 157.11c-11.79 0-19.06-1.92-22.87-6.06-2.33-2.53-3.35-5.87-3.02-9.91 1.7-20.9 12.46-31.06 32.9-31.06 12.22 0 28.26 3.7 49.04 11.31 24.58 9.01 49.19 10.9 65.5 10.9 17.9 0 30.08-2.21 30.2-2.23l.39-.07.39.07c.11.02 11.59 2.15 28.72 2.14 16.08 0 40.46-1.92 65.26-11.08 20.86-7.71 36.95-11.45 49.2-11.45 20.33 0 31.05 10.13 32.77 30.97.33 4.06-.68 7.4-3.02 9.94-3.83 4.16-11.18 6.1-23.12 6.1-10.71 0-23.96-1.47-39.3-3.17-18.83-2.09-40.17-4.46-61.26-4.46-19.15 0-35.19 1.94-49.03 5.94l-.58.17-.59-.16c-13.99-3.9-30.05-5.8-49.11-5.8-21.69 0-43.53 2.47-62.79 4.65-15.51 1.75-28.91 3.27-39.68 3.27Z" style="fill:url(#Dégradé_secondaire1-8)"/><path d="M554.81 111.81c18.42 0 28.96 8.73 30.63 29 .87 10.53-8.5 13.72-24 13.72-23.95 0-62.52-7.63-100.56-7.63-17.11 0-34.12 1.54-49.63 6.02-15.64-4.36-32.62-5.88-49.69-5.88-38.98 0-78.3 7.92-102.47 7.92-15.35 0-24.6-3.2-23.75-13.65 1.65-20.34 12.23-29.09 30.76-29.09 12.55 0 28.76 4.02 48.3 11.18 24.05 8.81 48.12 11.03 66.24 11.03s30.59-2.27 30.59-2.27 11.55 2.18 29.12 2.18 41.68-2.23 66-11.22c19.62-7.25 35.88-11.32 48.45-11.32m0-4.29c-12.5 0-28.83 3.79-49.94 11.58-24.5 9.05-48.61 10.95-64.51 10.95-16.9 0-28.21-2.09-28.32-2.11l-.79-.15-.79.15c-.12.02-12.14 2.2-29.81 2.2-16.14 0-40.48-1.87-64.77-10.77-21.01-7.7-37.29-11.44-49.77-11.44-21.47 0-33.26 11.11-35.04 33.03-.38 4.67.83 8.55 3.58 11.54 4.3 4.67 11.84 6.75 24.44 6.75 10.89 0 24.34-1.52 39.92-3.28 19.21-2.17 40.98-4.63 62.55-4.63 18.86 0 34.74 1.87 48.54 5.72l1.17.33 1.17-.34c13.64-3.94 29.49-5.85 48.44-5.85 20.98 0 42.26 2.36 61.03 4.44 15.4 1.71 28.7 3.18 39.53 3.18 12.75 0 20.37-2.1 24.7-6.79 2.76-3 3.96-6.89 3.58-11.57-1.8-21.85-13.54-32.94-34.9-32.94v4.29-4.29Z" class="cls-13"/><path d="M304.7 389.95c-3.66 0-6.64-2.98-6.65-6.64v-8.79c-.02-13.21 10.71-23.96 23.92-23.97l178.93-.16c13.22 0 23.96 10.73 23.97 23.93v8.79a6.636 6.636 0 0 1-6.63 6.65l-213.54.19Z" class="cls-2"/><path d="M500.92 352.09c12.28 0 22.24 9.95 22.25 22.23v8.79c.01 2.73-2.2 4.95-4.93 4.95l-213.54.19c-2.73 0-4.94-2.21-4.95-4.94v-8.79c-.02-12.29 9.93-22.26 22.22-22.27l178.93-.16h.02m0-3.4h-.02l-178.93.16c-6.85 0-13.29 2.68-18.13 7.53s-7.5 11.29-7.5 18.14v8.79c.01 4.6 3.76 8.34 8.35 8.34l213.55-.19c4.6 0 8.34-3.75 8.34-8.35v-8.79c-.02-14.13-11.53-25.63-25.66-25.63Z" class="cls-13"/></svg>