<svg xmlns="http://www.w3.org/2000/svg" xmlns:xlink="http://www.w3.org/1999/xlink" id="Calque_1" data-name="Calque 1" viewBox="0 0 841.89 595.28"><defs><linearGradient id="Dégradé_secondaire1" x1="150.19" x2="300.54" y1="289.36" y2="439.71" data-name="Dégradé secondaire1" gradientTransform="rotate(-17.57 212.947 330.056)" gradientUnits="userSpaceOnUse"><stop offset="0" stop-color="#5b5a72"/><stop offset="1" stop-color="#b0b0bf"/></linearGradient><linearGradient xlink:href="#Dégradé_secondaire1" id="Dégradé_secondaire1-2" x1="552.99" x2="657.64" y1="365.87" y2="470.52" data-name="Dégradé secondaire1" gradientTransform="rotate(17.41 665.643 330.158)"/><linearGradient xlink:href="#Dégradé_secondaire1" id="Dégradé_secondaire1-3" x1="552.99" x2="657.64" y1="321.5" y2="426.15" data-name="Dégradé secondaire1" gradientTransform="rotate(17.41 665.643 330.158)"/><linearGradient xlink:href="#Dégradé_secondaire1" id="Dégradé_secondaire1-4" x1="552.99" x2="657.64" y1="276.75" y2="381.4" data-name="Dégradé secondaire1" gradientTransform="rotate(17.41 665.643 330.158)"/><linearGradient xlink:href="#Dégradé_secondaire1" id="Dégradé_secondaire1-5" x1="552.99" x2="657.64" y1="231.01" y2="335.66" data-name="Dégradé secondaire1" gradientTransform="rotate(17.41 665.643 330.158)"/><linearGradient xlink:href="#Dégradé_secondaire1" id="Dégradé_secondaire1-6" x1="562.84" x2="647.78" y1="217.53" y2="302.47" data-name="Dégradé secondaire1" gradientTransform="rotate(90 624.58 264.46)"/><linearGradient xlink:href="#Dégradé_secondaire1" id="Dégradé_secondaire1-7" x1="299.08" x2="540.33" y1="125.09" y2="366.34" data-name="Dégradé secondaire1"/><linearGradient xlink:href="#Dégradé_secondaire1" id="Dégradé_secondaire1-8" x1="284.94" x2="537.37" y1="127.58" y2="380" data-name="Dégradé secondaire1"/><style>.cls-2{fill:#fff}.cls-4{fill:#353544}.cls-7{fill:none}.cls-4,.cls-7{stroke:#fff;stroke-linecap:round}.cls-7{stroke-linejoin:round;stroke-width:5px}.cls-4{stroke-miterlimit:10;stroke-width:1.26px}</style></defs><path d="m269.2 277.23-12.44-39.29s-12.36-39.03-66.85-21.77c-54.5 17.26-42.14 56.28-42.14 56.28l12.44 39.29 25.48-7.73-9.58-30.25s-7.11-22.46 21.9-31.65c29.02-9.19 36.13 13.27 36.13 13.27l9.58 30.25 25.48-8.41Z" style="stroke-miterlimit:10;fill:#b0b0bf;stroke-width:2.03px;stroke:#fff;stroke-linecap:round"/><path d="M189.97 451.76c-12.91 0-24.2-8.27-28.1-20.59l-28.08-88.67c-2.38-7.51-1.69-15.49 1.94-22.48s9.76-12.15 17.27-14.53l118.51-37.53c2.9-.92 5.89-1.38 8.91-1.38 12.91 0 24.2 8.27 28.1 20.59l28.07 88.67c2.38 7.51 1.69 15.49-1.94 22.48s-9.76 12.15-17.27 14.53l-118.51 37.53c-2.9.92-5.89 1.38-8.91 1.38Z" style="fill:url(#Dégradé_secondaire1)"/><path d="M280.42 269.1c11.45 0 22.07 7.35 25.72 18.84l28.07 88.67c4.5 14.21-3.37 29.37-17.58 33.87l-118.52 37.53c-2.71.86-5.45 1.27-8.15 1.27-11.45 0-22.07-7.35-25.72-18.84l-28.07-88.67c-4.5-14.21 3.37-29.37 17.58-33.87l118.52-37.53c2.71-.86 5.45-1.27 8.15-1.27m0-5v5-5c-3.27 0-6.52.5-9.66 1.5l-118.52 37.53c-16.81 5.32-26.16 23.33-20.84 40.14l28.07 88.67c4.23 13.36 16.48 22.33 30.48 22.33 3.27 0 6.52-.5 9.66-1.5l118.52-37.53c8.14-2.58 14.8-8.17 18.73-15.76 3.94-7.58 4.68-16.24 2.1-24.39l-28.07-88.67c-4.23-13.36-16.48-22.33-30.48-22.33Z" class="cls-2"/><path d="M222.93 364.22a23.919 23.919 0 0 1-16.24-15.79c-3.98-12.58 3.01-26.05 15.59-30.04 2.35-.74 4.78-1.12 7.23-1.12 10.48 0 19.64 6.72 22.81 16.71 2.44 7.69.82 16.04-4.2 22.26l24.21 36.04-48.45 15.34-.95-43.41Z" style="fill:#353544"/><path d="M229.51 319.78c9.09 0 17.53 5.84 20.42 14.97 2.45 7.73.28 15.82-4.96 21.3l1.52 2.27 21.9 32.61-21.04 6.66-21.04 6.66-.86-39.27-.06-2.73c-7.44-1.46-13.87-6.83-16.32-14.56-3.57-11.28 2.68-23.33 13.96-26.9 2.15-.68 4.33-1.01 6.47-1.01m0-5c-2.7 0-5.39.42-7.98 1.24-6.73 2.13-12.23 6.76-15.48 13.02-3.25 6.27-3.87 13.42-1.74 20.15 2.5 7.9 8.52 14.08 16.16 16.86l.84 38.3.15 6.67 6.36-2.01 21.04-6.66 21.04-6.66 6.36-2.01-3.72-5.54-21.36-31.8c4.65-6.67 6.01-15.2 3.51-23.09-3.5-11.04-13.62-18.46-25.19-18.46Z" class="cls-2"/><path d="m511.09 349.54-12.88 41.07c-4.05 12.9 27.41 34.26 70.26 47.7 42.85 13.44 80.87 13.88 84.92.97l12.88-41.07" style="fill:url(#Dégradé_secondaire1-2);stroke-linejoin:round;stroke-width:5px;stroke:#fff;stroke-linecap:round"/><path d="m524.37 307.2-12.88 41.07c-4.05 12.9 27.41 34.26 70.26 47.7 42.85 13.44 80.87 13.88 84.92.97l12.88-41.07" style="fill:url(#Dégradé_secondaire1-3);stroke-linejoin:round;stroke-width:5px;stroke:#fff;stroke-linecap:round"/><path d="m537.76 264.5-12.88 41.07c-4.05 12.9 27.41 34.26 70.26 47.7 42.85 13.44 80.87 13.88 84.92.97l12.88-41.07" style="fill:url(#Dégradé_secondaire1-4);stroke-linejoin:round;stroke-width:5px;stroke:#fff;stroke-linecap:round"/><path d="m551.45 220.85-12.88 41.07c-4.05 12.9 27.41 34.26 70.26 47.7 42.85 13.44 80.87 13.88 84.92.97l12.88-41.07" style="fill:url(#Dégradé_secondaire1-5);stroke-linejoin:round;stroke-width:5px;stroke:#fff;stroke-linecap:round"/><ellipse cx="629.04" cy="245.19" rx="24.48" ry="81.32" style="fill:url(#Dégradé_secondaire1-6);stroke-linejoin:round;stroke-width:5px;stroke:#fff;stroke-linecap:round" transform="rotate(-72.59 629.005 245.195)"/><ellipse cx="569.11" cy="267.67" class="cls-4" rx="5.57" ry="7.15" transform="rotate(-63.17 569.163 267.669)"/><ellipse cx="555.42" cy="311.31" class="cls-4" rx="5.57" ry="7.15" transform="rotate(-63.17 555.477 311.308)"/><ellipse cx="541.74" cy="354.96" class="cls-4" rx="5.57" ry="7.15" transform="rotate(-63.17 541.794 354.96)"/><ellipse cx="528.05" cy="398.6" class="cls-4" rx="5.57" ry="7.15" transform="rotate(-63.17 528.103 398.607)"/><path d="M601.49 282.81s41.66 19.37 68.02 14.99M588.07 325.61s41.66 19.37 68.02 14.99M574.65 368.4s41.66 19.37 68.02 14.99M561.22 411.2s41.66 19.37 68.02 14.99" class="cls-7"/><path d="M420.25 437.96c-.73-.21-18.26-5.36-40.62-18.29-20.66-11.94-49.38-33.04-68.89-65.75-12.73-21.34-22.31-58.95-28.46-111.78-4.56-39.2-5.43-72.63-5.43-72.97l-.06-2.36 2.35-.19c.23-.02 22.95-1.97 51.46-11.8 26.2-9.03 62.79-26.75 88.37-59.91l1.98-2.57 1.98 2.57c25.58 33.16 62.17 50.88 88.37 59.91 28.5 9.82 51.23 11.78 51.46 11.8l2.35.19-.06 2.36c0 .33-.87 33.77-5.43 72.97-6.15 52.83-15.72 90.44-28.46 111.78-10.77 18.05-31.46 44.11-68.89 65.75-22.37 12.93-39.89 18.07-40.62 18.29l-.7.2-.7-.2Z" style="fill:url(#Dégradé_secondaire1-7)"/><path d="M420.94 96.45c50.31 65.21 141.61 72.67 141.61 72.67s-3.27 132.8-33.54 183.53c-37.24 62.42-108.07 82.91-108.07 82.91s-70.83-20.5-108.07-82.91c-30.27-50.73-33.54-183.53-33.54-183.53s91.3-7.45 141.61-72.67m0-8.19-3.96 5.13c-25.23 32.71-61.42 50.2-87.34 59.11-28.19 9.7-50.5 11.6-50.72 11.62l-4.71.38.12 4.72c0 .33.88 33.88 5.45 73.19 6.19 53.18 15.88 91.12 28.79 112.77 10.92 18.31 31.9 44.73 69.79 66.63 22.63 13.08 40.43 18.31 41.18 18.52l1.39.4 1.39-.4c.75-.22 18.55-5.44 41.18-18.52 20.92-12.09 50-33.46 69.79-66.63 12.92-21.65 22.6-59.59 28.79-112.77 4.57-39.31 5.44-72.86 5.45-73.19l.12-4.72-4.71-.38c-.22-.02-22.75-1.97-50.98-11.71-16.49-5.69-31.69-12.9-45.15-21.42-16.73-10.58-30.84-23.23-41.92-37.6l-3.96-5.13Z" class="cls-2"/><path d="M420.07 407.11c-.57-.21-57.19-21.73-86.76-71.28-10.11-16.94-17.71-45.86-22.58-85.95-3.61-29.72-4.3-54.86-4.3-55.11l-.06-2.17 2.14-.36c.66-.11 66.46-11.68 110.73-52.73l1.84-1.71 1.7 1.84c47.32 51.34 109.58 52.55 110.2 52.56l2.54.03-.06 2.54c0 .25-.69 25.39-4.3 55.11-4.87 40.09-12.47 69.01-22.58 85.95-29.57 49.56-86.19 71.07-86.76 71.28l-.87.32-.87-.32Z" class="cls-2"/><path d="M420.94 141.33c48.66 52.8 112.01 53.36 112.01 53.36s-2.59 99.72-26.53 139.85c-29.46 49.37-85.48 70.22-85.48 70.22s-56.03-20.85-85.48-70.22c-23.94-40.13-26.53-139.85-26.53-139.85s66.65-11.29 112.01-53.36m.28-7.08-3.68 3.41c-43.76 40.59-108.8 51.99-109.45 52.1l-4.28.72.11 4.33c.11 4.13 2.9 101.5 27.23 142.28 15.71 26.34 38.79 44.59 55.38 55.27 17.94 11.54 32.06 16.86 32.66 17.08l1.74.65 1.74-.65c.59-.22 14.72-5.53 32.66-17.08 16.59-10.68 39.66-28.93 55.38-55.27 24.33-40.79 27.13-138.16 27.23-142.28l.13-5.08-5.09-.05c-.15 0-15.64-.25-36.68-6.77-19.31-5.98-47.42-18.65-71.7-44.98l-3.4-3.69Z" class="cls-2"/><path d="m350.92 276.61 19.71-19.71 37.29 37.28 63.34-63.34 19.71 19.71-83.05 83.05-57-56.99z" style="fill:url(#Dégradé_secondaire1-8)"/><path d="m471.26 234.37 16.18 16.18-79.51 79.52-53.46-53.46 16.18-16.18 37.28 37.28 63.34-63.34m0-7.07-3.54 3.54-59.8 59.8-33.75-33.75-3.54-3.54-3.54 3.54-16.18 16.18-3.54 3.54 3.54 3.54 53.46 53.46 3.54 3.54 3.54-3.54 79.51-79.52 3.54-3.54-3.54-3.54-16.18-16.18-3.54-3.54Z" class="cls-2"/></svg>