<svg xmlns="http://www.w3.org/2000/svg" xmlns:xlink="http://www.w3.org/1999/xlink" id="Calque_1" data-name="Calque 1" viewBox="0 0 841.89 595.28"><defs><linearGradient id="Dégradé_secondaire1" x1="248.04" x2="591.64" y1="182.96" y2="291.26" data-name="Dégradé secondaire1" gradientUnits="userSpaceOnUse"><stop offset="0" stop-color="#5b5a72"/><stop offset="1" stop-color="#b0b0bf"/></linearGradient><linearGradient xlink:href="#Dégradé_secondaire1" id="Dégradé_secondaire1-2" x1="302.59" x2="416.79" y1="187.95" y2="223.94" data-name="Dégradé secondaire1"/><linearGradient xlink:href="#Dégradé_secondaire1" id="Dégradé_secondaire1-3" x1="302.59" x2="416.79" y1="224.86" y2="260.86" data-name="Dégradé secondaire1"/><linearGradient xlink:href="#Dégradé_secondaire1" id="Dégradé_secondaire1-4" x1="302.59" x2="416.79" y1="206.41" y2="242.4" data-name="Dégradé secondaire1"/><linearGradient xlink:href="#Dégradé_secondaire1" id="Dégradé_secondaire1-5" x1="302.59" x2="416.79" y1="243.32" y2="279.31" data-name="Dégradé secondaire1"/><linearGradient xlink:href="#Dégradé_secondaire1" id="Dégradé_secondaire1-6" x1="302.59" x2="416.79" y1="261.78" y2="297.77" data-name="Dégradé secondaire1"/><linearGradient xlink:href="#Dégradé_secondaire1" id="Dégradé_secondaire1-7" x1="302.59" x2="416.79" y1="280.23" y2="316.22" data-name="Dégradé secondaire1"/><linearGradient xlink:href="#Dégradé_secondaire1" id="Dégradé_secondaire1-8" x1="299.87" x2="359.36" y1="307.31" y2="326.06" data-name="Dégradé secondaire1"/><linearGradient xlink:href="#Dégradé_secondaire1" id="Dégradé_secondaire1-9" x1="295.85" x2="411.12" y1="145.38" y2="181.71" data-name="Dégradé secondaire1"/><linearGradient xlink:href="#Dégradé_secondaire1" id="Dégradé_secondaire1-10" x1="427.82" x2="503.16" y1="151.68" y2="175.42" data-name="Dégradé secondaire1"/><linearGradient xlink:href="#Dégradé_secondaire1" id="Dégradé_secondaire1-11" x1="444.88" x2="471.2" y1="201.8" y2="210.1" data-name="Dégradé secondaire1"/><linearGradient xlink:href="#Dégradé_secondaire1" id="Dégradé_secondaire1-12" x1="476.76" x2="514.47" y1="195.01" y2="206.89" data-name="Dégradé secondaire1"/><linearGradient xlink:href="#Dégradé_secondaire1" id="Dégradé_secondaire1-13" x1="478.31" x2="547.2" y1="200.09" y2="221.8" data-name="Dégradé secondaire1"/><linearGradient xlink:href="#Dégradé_secondaire1" id="Dégradé_secondaire1-14" x1="446.53" x2="545.33" y1="196.57" y2="227.71" data-name="Dégradé secondaire1"/><linearGradient xlink:href="#Dégradé_secondaire1" id="Dégradé_secondaire1-15" x1="446.53" x2="545.33" y1="196.57" y2="227.71" data-name="Dégradé secondaire1"/><linearGradient xlink:href="#Dégradé_secondaire1" id="Dégradé_secondaire1-16" x1="446.53" x2="545.33" y1="196.57" y2="227.71" data-name="Dégradé secondaire1"/><linearGradient xlink:href="#Dégradé_secondaire1" id="Dégradé_secondaire1-17" x1="444.88" x2="471.2" y1="236.33" y2="244.62" data-name="Dégradé secondaire1"/><linearGradient xlink:href="#Dégradé_secondaire1" id="Dégradé_secondaire1-18" x1="476.76" x2="514.47" y1="229.53" y2="241.42" data-name="Dégradé secondaire1"/><linearGradient xlink:href="#Dégradé_secondaire1" id="Dégradé_secondaire1-19" x1="478.31" x2="547.2" y1="234.61" y2="256.33" data-name="Dégradé secondaire1"/><linearGradient xlink:href="#Dégradé_secondaire1" id="Dégradé_secondaire1-20" x1="446.53" x2="545.33" y1="231.09" y2="262.23" data-name="Dégradé secondaire1"/><linearGradient xlink:href="#Dégradé_secondaire1" id="Dégradé_secondaire1-21" x1="446.53" x2="545.33" y1="231.09" y2="262.23" data-name="Dégradé secondaire1"/><linearGradient xlink:href="#Dégradé_secondaire1" id="Dégradé_secondaire1-22" x1="446.53" x2="545.33" y1="231.09" y2="262.23" data-name="Dégradé secondaire1"/><linearGradient xlink:href="#Dégradé_secondaire1" id="Dégradé_secondaire1-23" x1="444.88" x2="471.2" y1="270.85" y2="279.14" data-name="Dégradé secondaire1"/><linearGradient xlink:href="#Dégradé_secondaire1" id="Dégradé_secondaire1-24" x1="476.76" x2="514.47" y1="264.06" y2="275.94" data-name="Dégradé secondaire1"/><linearGradient xlink:href="#Dégradé_secondaire1" id="Dégradé_secondaire1-25" x1="478.31" x2="547.2" y1="269.14" y2="290.85" data-name="Dégradé secondaire1"/><linearGradient xlink:href="#Dégradé_secondaire1" id="Dégradé_secondaire1-26" x1="446.53" x2="545.33" y1="265.61" y2="296.75" data-name="Dégradé secondaire1"/><linearGradient xlink:href="#Dégradé_secondaire1" id="Dégradé_secondaire1-27" x1="446.53" x2="545.33" y1="265.61" y2="296.75" data-name="Dégradé secondaire1"/><linearGradient xlink:href="#Dégradé_secondaire1" id="Dégradé_secondaire1-28" x1="446.53" x2="545.33" y1="265.61" y2="296.75" data-name="Dégradé secondaire1"/><linearGradient xlink:href="#Dégradé_secondaire1" id="Dégradé_secondaire1-29" x1="444.88" x2="471.2" y1="305.37" y2="313.67" data-name="Dégradé secondaire1"/><linearGradient xlink:href="#Dégradé_secondaire1" id="Dégradé_secondaire1-30" x1="476.76" x2="514.47" y1="298.58" y2="310.47" data-name="Dégradé secondaire1"/><linearGradient xlink:href="#Dégradé_secondaire1" id="Dégradé_secondaire1-31" x1="478.31" x2="547.2" y1="303.66" y2="325.37" data-name="Dégradé secondaire1"/><linearGradient xlink:href="#Dégradé_secondaire1" id="Dégradé_secondaire1-32" x1="446.53" x2="545.33" y1="300.14" y2="331.28" data-name="Dégradé secondaire1"/><linearGradient xlink:href="#Dégradé_secondaire1" id="Dégradé_secondaire1-33" x1="446.53" x2="545.33" y1="300.14" y2="331.28" data-name="Dégradé secondaire1"/><linearGradient xlink:href="#Dégradé_secondaire1" id="Dégradé_secondaire1-34" x1="446.53" x2="545.33" y1="300.14" y2="331.28" data-name="Dégradé secondaire1"/><linearGradient xlink:href="#Dégradé_secondaire1" id="Dégradé_secondaire1-35" x1="297.75" x2="479.08" y1="291.36" y2="472.7" data-name="Dégradé secondaire1"/><linearGradient xlink:href="#Dégradé_secondaire1" id="Dégradé_secondaire1-36" x1="354.65" x2="537.69" y1="236.54" y2="419.58" data-name="Dégradé secondaire1"/><linearGradient id="Dégradé_secondaire1_11" x1="450.26" x2="553.2" y1="297.2" y2="400.15" data-name="Dégradé secondaire1 11" gradientUnits="userSpaceOnUse"><stop offset="0" stop-color="#5b5a72"/><stop offset="1" stop-color="#b0b0bf"/></linearGradient><linearGradient xlink:href="#Dégradé_secondaire1_11" id="Dégradé_secondaire1_11-2" x1="352.49" x2="496.84" y1="344.93" y2="489.28" data-name="Dégradé secondaire1 11"/><style>.cls-17{stroke-width:5px;fill:none;stroke-linecap:round}.cls-34{fill:#fff}.cls-17{stroke:#fff;stroke-linejoin:round}</style></defs><rect width="310.31" height="225.11" x="264.69" y="124.56" rx="16.44" ry="16.44" style="stroke:url(#Dégradé_secondaire1);fill:#fff;stroke-linecap:round;stroke-miterlimit:10;stroke-width:5px"/><path d="M299.54 205.95h120.3" style="stroke:url(#Dégradé_secondaire1-2);stroke-linecap:round;stroke-miterlimit:10;fill:none;stroke-width:5px"/><path d="M299.54 242.86h120.3" style="stroke:url(#Dégradé_secondaire1-3);stroke-linecap:round;stroke-miterlimit:10;fill:none;stroke-width:5px"/><path d="M299.54 224.4h120.3" style="stroke:url(#Dégradé_secondaire1-4);stroke-linecap:round;stroke-miterlimit:10;fill:none;stroke-width:5px"/><path d="M299.54 261.32h120.3" style="stroke:url(#Dégradé_secondaire1-5);stroke-linecap:round;stroke-miterlimit:10;fill:none;stroke-width:5px"/><path d="M299.54 279.77h120.3" style="stroke:url(#Dégradé_secondaire1-6);stroke-linecap:round;stroke-miterlimit:10;fill:none;stroke-width:5px"/><path d="M299.54 298.23h120.3" style="stroke:url(#Dégradé_secondaire1-7);stroke-linecap:round;stroke-miterlimit:10;fill:none;stroke-width:5px"/><path d="M299.54 316.68h60.15" style="stroke:url(#Dégradé_secondaire1-8);stroke-linecap:round;stroke-miterlimit:10;fill:none;stroke-width:5px"/><rect width="119.91" height="32.11" x="293.53" y="147.5" rx="6.21" ry="6.21" style="fill:url(#Dégradé_secondaire1-9)"/><path d="m389.79 159.27 8.57 8.56M398.36 159.27l-8.57 8.56M307.88 163.55h64.7" class="cls-17"/><rect width="76.01" height="32.11" x="427.49" y="147.5" rx="6.21" ry="6.21" style="fill:url(#Dégradé_secondaire1-10)"/><path d="m479.84 159.27 8.57 8.56M488.41 159.27l-8.57 8.56M441.84 163.55h20.79" class="cls-17"/><circle cx="458.04" cy="205.95" r="11.29" style="stroke:url(#Dégradé_secondaire1-11);stroke-miterlimit:10;fill:none;stroke-width:5px"/><path d="M477.51 200.95h36.22" style="stroke:url(#Dégradé_secondaire1-12);stroke-linejoin:round;stroke-linecap:round;fill:none;stroke-width:5px"/><path d="M477.51 210.95H548" style="stroke:url(#Dégradé_secondaire1-13);stroke-linejoin:round;stroke-linecap:round;fill:none;stroke-width:5px"/><circle cx="458.04" cy="205.95" r="11.29" style="stroke:url(#Dégradé_secondaire1-14);stroke-linecap:round;stroke-miterlimit:10;fill:none;stroke-width:5px"/><path d="M477.51 200.95h36.22" style="stroke-linecap:round;stroke-miterlimit:10;fill:none;stroke-width:5px;stroke:url(#Dégradé_secondaire1-15)"/><path d="M477.51 210.95H548" style="stroke:url(#Dégradé_secondaire1-16);stroke-linecap:round;stroke-miterlimit:10;fill:none;stroke-width:5px"/><circle cx="458.04" cy="240.47" r="11.29" style="stroke:url(#Dégradé_secondaire1-17);stroke-miterlimit:10;fill:none;stroke-width:5px"/><path d="M477.51 235.47h36.22" style="stroke:url(#Dégradé_secondaire1-18);stroke-linejoin:round;stroke-linecap:round;fill:none;stroke-width:5px"/><path d="M477.51 245.47H548" style="stroke:url(#Dégradé_secondaire1-19);stroke-linejoin:round;stroke-linecap:round;fill:none;stroke-width:5px"/><circle cx="458.04" cy="240.47" r="11.29" style="stroke:url(#Dégradé_secondaire1-20);stroke-linecap:round;stroke-miterlimit:10;fill:none;stroke-width:5px"/><path d="M477.51 235.47h36.22" style="stroke:url(#Dégradé_secondaire1-21);stroke-linecap:round;stroke-miterlimit:10;fill:none;stroke-width:5px"/><path d="M477.51 245.47H548" style="stroke:url(#Dégradé_secondaire1-22);stroke-linecap:round;stroke-miterlimit:10;fill:none;stroke-width:5px"/><circle cx="458.04" cy="275" r="11.29" style="stroke:url(#Dégradé_secondaire1-23);stroke-miterlimit:10;fill:none;stroke-width:5px"/><path d="M477.51 270h36.22" style="stroke:url(#Dégradé_secondaire1-24);stroke-linejoin:round;stroke-linecap:round;fill:none;stroke-width:5px"/><path d="M477.51 279.99H548" style="stroke:url(#Dégradé_secondaire1-25);stroke-linejoin:round;stroke-linecap:round;fill:none;stroke-width:5px"/><circle cx="458.04" cy="275" r="11.29" style="stroke:url(#Dégradé_secondaire1-26);stroke-linecap:round;stroke-miterlimit:10;fill:none;stroke-width:5px"/><path d="M477.51 270h36.22" style="stroke:url(#Dégradé_secondaire1-27);stroke-linecap:round;stroke-miterlimit:10;fill:none;stroke-width:5px"/><path d="M477.51 279.99H548" style="stroke:url(#Dégradé_secondaire1-28);stroke-linecap:round;stroke-miterlimit:10;fill:none;stroke-width:5px"/><circle cx="458.04" cy="309.52" r="11.29" style="stroke:url(#Dégradé_secondaire1-29);stroke-miterlimit:10;fill:none;stroke-width:5px"/><path d="M477.51 304.52h36.22" style="stroke:url(#Dégradé_secondaire1-30);stroke-linejoin:round;stroke-linecap:round;fill:none;stroke-width:5px"/><path d="M477.51 314.52H548" style="stroke:url(#Dégradé_secondaire1-31);stroke-linejoin:round;stroke-linecap:round;fill:none;stroke-width:5px"/><circle cx="458.04" cy="309.52" r="11.29" style="stroke:url(#Dégradé_secondaire1-32);stroke-linecap:round;stroke-miterlimit:10;fill:none;stroke-width:5px"/><path d="M477.51 304.52h36.22" style="stroke:url(#Dégradé_secondaire1-33);stroke-linecap:round;stroke-miterlimit:10;fill:none;stroke-width:5px"/><path d="M477.51 314.52H548" style="stroke:url(#Dégradé_secondaire1-34);stroke-linecap:round;stroke-miterlimit:10;fill:none;stroke-width:5px"/><path d="M420.95 462.45c-62.11 0-84.5-11.2-92.36-20.59-4.39-5.25-4.09-9.67-3.95-10.65.16-1.86 2.36-25.03 14.89-48.57 11.9-22.36 35.69-49.01 81.42-49.01s69.52 26.65 81.42 49.01c12.53 23.54 14.73 46.71 14.89 48.57.13.98.43 5.4-3.95 10.65-7.85 9.4-30.25 20.59-92.36 20.59Z" style="fill:url(#Dégradé_secondaire1-35)"/><path d="M420.94 336.13c86.14 0 93.83 95.37 93.83 95.37s5.13 28.46-93.83 28.46-93.83-28.46-93.83-28.46 7.69-95.37 93.83-95.37m0-5c-46.98 0-71.41 27.37-83.63 50.33-12.62 23.71-14.96 47.1-15.17 49.47-.2 1.57-.38 6.67 4.52 12.53 5.13 6.14 14.19 11.05 26.91 14.59 16.43 4.58 39.1 6.9 67.36 6.9s50.93-2.32 67.36-6.9c12.73-3.54 21.78-8.45 26.92-14.59 4.9-5.86 4.72-10.96 4.52-12.53-.21-2.36-2.55-25.76-15.17-49.47-12.22-22.96-36.65-50.33-83.63-50.33Z" class="cls-34"/><path d="M420.95 367.51c-35.66 0-64.67-29.01-64.67-64.67s29.01-64.67 64.67-64.67 64.67 29.01 64.67 64.67-29.01 64.67-64.67 64.67Z" style="fill:url(#Dégradé_secondaire1-36)"/><path d="M420.94 240.67c34.34 0 62.17 27.83 62.17 62.17s-27.83 62.17-62.17 62.17-62.17-27.83-62.17-62.17 27.83-62.17 62.17-62.17m0-5c-37.04 0-67.17 30.13-67.17 67.17s30.13 67.17 67.17 67.17 67.17-30.13 67.17-67.17-30.13-67.17-67.17-67.17Z" class="cls-34"/><path d="M471.46 420.58c-.16 0-.33-.02-.49-.05-.82-.16-1.5-.72-1.82-1.49-4.65-11.21-16.21-16.26-16.33-16.31a2.494 2.494 0 0 1-1.47-1.83c-.16-.81.1-1.66.69-2.24l99.69-99.67c.49-.49 1.13-.73 1.77-.73s1.28.24 1.77.73l17.65 17.65c.47.47.73 1.1.73 1.77s-.26 1.3-.73 1.77l-99.69 99.67c-.47.47-1.11.73-1.77.73Z" style="fill:url(#Dégradé_secondaire1_11)"/><path d="m553.5 300.76 17.65 17.65-99.69 99.67c-5.12-12.34-17.66-17.65-17.66-17.65l99.69-99.67m0-5c-1.28 0-2.56.49-3.54 1.46l-99.69 99.67a4.984 4.984 0 0 0-1.37 4.49c.32 1.63 1.43 3 2.96 3.65.09.04 10.75 4.75 14.99 14.97a5.024 5.024 0 0 0 4.61 3.09c1.31 0 2.59-.52 3.54-1.46l99.69-99.67c.94-.94 1.46-2.21 1.46-3.54s-.53-2.6-1.46-3.54l-17.65-17.65a4.98 4.98 0 0 0-3.54-1.46Z" class="cls-34"/><path d="M445.2 434.37c-.65 0-1.29-.25-1.77-.73l-5.18-5.18a2.52 2.52 0 0 1-.45-2.93l13.79-26.26c.44-.84 1.31-1.34 2.21-1.34.29 0 .59.05.88.16.57.21 13.91 5.41 19.11 19.11.45 1.18-.06 2.51-1.18 3.1l-26.26 13.78c-.37.19-.77.29-1.16.29Z" style="fill:#b0b0bf"/><path d="M453.81 400.43s12.8 4.85 17.66 17.65l-26.26 13.78-5.18-5.18 13.79-26.26m0-5c-1.81 0-3.54.99-4.43 2.68l-13.79 26.26a4.992 4.992 0 0 0 .89 5.86l5.18 5.18c.96.96 2.24 1.46 3.54 1.46.79 0 1.59-.19 2.32-.57l26.26-13.78a4.994 4.994 0 0 0 2.35-6.2c-5.59-14.74-19.95-20.33-20.56-20.56-.58-.22-1.18-.33-1.77-.33Z" class="cls-34"/><path d="M436.95 438.55c-1.25 0-2.44-.67-3.09-1.76-.66-1.08-.69-2.41-.1-3.54l4.05-7.73c.44-.84 1.3-1.34 2.21-1.34.2 0 .41.02.61.08.22.06 5.48 1.44 6.98 6.94.31 1.13-.21 2.33-1.25 2.87l-7.73 4.05c-.52.27-1.1.42-1.68.42Z" style="fill:url(#Dégradé_secondaire1_11-2)"/><path d="M440.02 426.69s4.04 1.02 5.18 5.18l-7.73 4.05c-.17.09-.35.13-.52.13-.77 0-1.39-.84-.98-1.63l4.05-7.73m0-5c-1.83 0-3.55 1-4.43 2.68l-4.05 7.73c-1 1.91-.94 4.15.18 5.99a6.151 6.151 0 0 0 5.23 2.96c.98 0 1.97-.24 2.84-.7l7.73-4.05a4.992 4.992 0 0 0 2.5-5.74c-1.5-5.5-6.22-8.06-8.78-8.71-.41-.1-.82-.15-1.23-.15Z" class="cls-34"/></svg>