<svg xmlns="http://www.w3.org/2000/svg" xmlns:xlink="http://www.w3.org/1999/xlink" id="Calque_1" data-name="Calque 1" viewBox="0 0 841.89 595.28"><defs><linearGradient id="Dégradé_secondaire1" x1="188.99" x2="322.58" y1="281.17" y2="414.76" data-name="Dégradé secondaire1" gradientTransform="rotate(48.02 253.764 347.698)" gradientUnits="userSpaceOnUse"><stop offset="0" stop-color="#5b5a72"/><stop offset="1" stop-color="#b0b0bf"/></linearGradient><linearGradient xlink:href="#Dégradé_secondaire1" id="Dégradé_secondaire1-2" x1="215.05" x2="337.49" y1="276.03" y2="398.47" data-name="Dégradé secondaire1"/><linearGradient xlink:href="#Dégradé_secondaire1" id="Dégradé_secondaire1-3" x1="221.4" x2="349.55" y1="271.68" y2="399.83" data-name="Dégradé secondaire1"/><linearGradient xlink:href="#Dégradé_secondaire1" id="Dégradé_secondaire1-4" x1="92.93" x2="267.12" y1="324.16" y2="498.35" data-name="Dégradé secondaire1"/><linearGradient xlink:href="#Dégradé_secondaire1" id="Dégradé_secondaire1-5" x1="131.38" x2="290.16" y1="314.95" y2="473.73" data-name="Dégradé secondaire1"/><linearGradient xlink:href="#Dégradé_secondaire1" id="Dégradé_secondaire1-6" x1="160.83" x2="325.49" y1="286.11" y2="450.76" data-name="Dégradé secondaire1"/><linearGradient xlink:href="#Dégradé_secondaire1" id="Dégradé_secondaire1-7" x1="70.68" x2="185.98" y1="342.74" y2="458.04" data-name="Dégradé secondaire1"/><linearGradient xlink:href="#Dégradé_secondaire1" id="Dégradé_secondaire1-8" x1="93.05" x2="200.26" y1="331.34" y2="438.55" data-name="Dégradé secondaire1"/><linearGradient xlink:href="#Dégradé_secondaire1" id="Dégradé_secondaire1-9" x1="129.55" x2="237.92" y1="298.07" y2="406.44" data-name="Dégradé secondaire1"/><linearGradient xlink:href="#Dégradé_secondaire1" id="Dégradé_secondaire1-10" x1="543.37" x2="699.72" y1="285.88" y2="442.23" data-name="Dégradé secondaire1"/><linearGradient id="Dégradé_secondaire1_6" x1="296.89" x2="620.44" y1="166.47" y2="490.03" data-name="Dégradé secondaire1 6" gradientTransform="rotate(-8.76 270.323 279.544)" gradientUnits="userSpaceOnUse"><stop offset="0" stop-color="#5b5a72"/><stop offset="1" stop-color="#b0b0bf"/></linearGradient><linearGradient xlink:href="#Dégradé_secondaire1_6" id="Dégradé_secondaire1_6-2" x1="360.91" x2="370.49" y1="222.03" y2="231.61" data-name="Dégradé secondaire1 6"/><linearGradient xlink:href="#Dégradé_secondaire1_6" id="Dégradé_secondaire1_6-3" x1="360.9" x2="370.49" y1="268.26" y2="277.85" data-name="Dégradé secondaire1 6"/><linearGradient xlink:href="#Dégradé_secondaire1_6" id="Dégradé_secondaire1_6-4" x1="360.91" x2="370.49" y1="314.51" y2="324.09" data-name="Dégradé secondaire1 6"/><linearGradient xlink:href="#Dégradé_secondaire1_6" id="Dégradé_secondaire1_6-5" x1="360.91" x2="370.49" y1="360.75" y2="370.34" data-name="Dégradé secondaire1 6"/><style>.cls-2,.cls-3{fill:#5b5a72}.cls-2,.cls-4{stroke-linecap:round;stroke:#fff;stroke-linejoin:round;stroke-width:5px}.cls-12{fill:#fff}.cls-13{fill:#b0b0bf}.cls-4{fill:none}</style></defs><path d="M214.77 273.82c2.43 7.05 6.29 13.73 11.59 19.63 21.2 23.56 57.49 25.47 81.06 4.27 23.56-21.2 25.47-57.49 4.27-81.05-21.2-23.56-57.5-25.48-81.06-4.28-9.7 8.73-15.73 20.01-17.99 31.91l-8.35-3.93c2.92-12.93 9.73-25.11 20.34-34.65 27.24-24.52 69.21-22.31 93.73 4.94 24.52 27.24 22.3 69.22-4.94 93.73-27.25 24.52-69.22 22.3-93.73-4.94-5.96-6.63-10.34-14.12-13.17-22.03l8.25-3.6Z" class="cls-3"/><path d="M260.69 439.24c-.13 0-.25 0-.38-.03l-23.78-3.65a2.492 2.492 0 0 1-2.09-2.83l1.27-8.68a2.492 2.492 0 0 1 2.47-2.13c.12 0 .25 0 .37.03 0 0 .85.12 2.04.12 5.46 0 6.93-2.14 7.21-3.94.76-4.97-7.6-6.4-7.68-6.41a2.498 2.498 0 0 1-2.07-2.86l1.38-8.63c.2-1.23 1.26-2.11 2.47-2.11.13 0 .25 0 .38.03l23.78 3.65c1.37.21 2.3 1.48 2.09 2.85l-4.98 32.48a2.493 2.493 0 0 1-2.47 2.12Z" style="fill:url(#Dégradé_secondaire1)"/><path d="m241.89 400.61 23.78 3.65-4.98 32.48-23.78-3.65 1.27-8.68s.99.15 2.4.15c3.29 0 8.87-.79 9.68-6.06 1.15-7.53-9.75-9.26-9.75-9.26l1.38-8.63m0-5c-2.42 0-4.54 1.75-4.93 4.21l-1.38 8.63c-.21 1.31.11 2.65.89 3.73.78 1.07 1.95 1.8 3.27 2 .04 0 5.95 1.24 5.59 3.56-.25 1.64-3.39 1.81-4.73 1.81-.99 0-1.69-.1-1.69-.1a4.48 4.48 0 0 0-.73-.05c-1.07 0-2.1.34-2.97.99a4.962 4.962 0 0 0-1.95 3.29l-1.27 8.68a5.001 5.001 0 0 0 4.19 5.67l23.78 3.65c.25.04.51.06.76.06 1.06 0 2.1-.34 2.96-.97a4.973 4.973 0 0 0 1.98-3.27l4.98-32.48a4.996 4.996 0 0 0-4.18-5.7l-23.78-3.65c-.26-.04-.51-.06-.76-.06Z" class="cls-12"/><rect width="47.52" height="72.81" x="262.34" y="284.57" rx="12.81" ry="12.81" style="stroke-width:1.96px;stroke-miterlimit:10;fill:none;stroke:#fff;stroke-linecap:round" transform="rotate(-81.28 286.118 320.981)"/><path d="m266.49 329.68 35.72 5.48c3.54.54 6.84-1.88 7.38-5.41l1.55-10.08a6.468 6.468 0 0 0-5.42-7.38L270 306.81a6.464 6.464 0 0 0-7.37 5.42l-1.55 10.08a6.464 6.464 0 0 0 5.41 7.37Z" style="stroke-width:1.32px;stroke-miterlimit:10;fill:none;stroke:#fff;stroke-linecap:round"/><path d="M274.09 451.87c-.13 0-.25 0-.38-.03l-14.98-2.3c-.66-.1-1.24-.46-1.64-.99a2.51 2.51 0 0 1-.46-1.86l15.93-103.86a2.493 2.493 0 0 1 2.47-2.12c.13 0 .25 0 .38.03l14.98 2.3c.66.1 1.24.46 1.64.99.39.53.56 1.2.46 1.86l-15.93 103.86a2.493 2.493 0 0 1-2.47 2.12Z" style="fill:url(#Dégradé_secondaire1-2)"/><path d="m275.03 343.21 14.98 2.3-15.93 103.86-14.98-2.3 15.93-103.86m0-5c-1.06 0-2.1.34-2.96.97a4.973 4.973 0 0 0-1.98 3.27l-15.93 103.86c-.2 1.31.13 2.65.91 3.72a4.973 4.973 0 0 0 3.27 1.98l14.98 2.3c.26.04.51.06.76.06 2.43 0 4.56-1.77 4.94-4.24l15.93-103.86a4.996 4.996 0 0 0-4.18-5.7l-14.98-2.3c-.25-.04-.51-.06-.76-.06Z" class="cls-12"/><path d="M307.79 350.69c-.78 0-1.56-.06-2.33-.18l-46.66-7.15c-4.04-.62-7.6-2.78-10.02-6.07s-3.41-7.34-2.79-11.38l3.32-21.65c1.13-7.4 7.63-12.99 15.11-12.99.78 0 1.56.06 2.33.18l46.66 7.15c4.04.62 7.6 2.78 10.02 6.07s3.41 7.34 2.79 11.38l-3.32 21.65c-1.13 7.4-7.63 12.99-15.12 12.99Zm-38.77-41.46c-1.94 0-3.62 1.45-3.92 3.37l-1.55 10.08a3.972 3.972 0 0 0 3.32 4.52l35.72 5.48c.2.03.41.05.61.05 1.94 0 3.62-1.45 3.92-3.37l1.55-10.08c.16-1.05-.1-2.1-.72-2.95a3.933 3.933 0 0 0-2.6-1.58l-35.72-5.48c-.2-.03-.41-.05-.61-.05Z" style="fill:url(#Dégradé_secondaire1-3)"/><path d="M264.42 293.77c.65 0 1.3.05 1.96.15l46.66 7.15c6.99 1.07 11.79 7.61 10.72 14.6l-3.32 21.65c-.97 6.33-6.43 10.87-12.64 10.87-.65 0-1.3-.05-1.96-.15l-46.66-7.15c-6.99-1.07-11.79-7.61-10.72-14.6l3.32-21.65c.97-6.33 6.43-10.87 12.64-10.87m38.78 41.46c3.14 0 5.9-2.29 6.39-5.49l1.55-10.08a6.468 6.468 0 0 0-5.42-7.38L270 306.8c-.33-.05-.66-.08-.99-.08-3.14 0-5.9 2.29-6.39 5.49l-1.55 10.08a6.464 6.464 0 0 0 5.41 7.37l35.72 5.48c.33.05.66.08.99.08m-38.78-46.46c-8.7 0-16.26 6.5-17.59 15.11l-3.32 21.65c-1.49 9.71 5.2 18.81 14.9 20.3l46.66 7.15c.9.14 1.81.21 2.71.21 8.7 0 16.26-6.5 17.59-15.11l3.32-21.65c1.49-9.71-5.2-18.81-14.9-20.3l-46.66-7.15c-.9-.14-1.81-.21-2.71-.21Zm38.78 41.46c-.08 0-.15 0-.23-.02l-35.72-5.48c-.8-.12-1.35-.87-1.23-1.67l1.55-10.08c.11-.71.73-1.25 1.45-1.25.08 0 .15 0 .23.02l35.72 5.48c.8.12 1.36.88 1.23 1.68l-1.55 10.08a1.48 1.48 0 0 1-1.45 1.25Z" class="cls-12"/><path d="M151.35 452.38c-.41 0-.82-.1-1.19-.3l-14.05-7.62a2.502 2.502 0 0 1-1.01-3.38l3.32-6.15a2.51 2.51 0 0 1 3.39-1.02l1.69.91a.884.884 0 0 0 1.18-.36l1.09-2.02c.23-.42.07-.95-.35-1.17l-1.69-.91a2.51 2.51 0 0 1-1.21-1.48c-.19-.63-.12-1.32.19-1.9l2.07-3.83a2.493 2.493 0 0 1 3.38-1.01l4.09 2.21c.13.07.27.1.41.1.25 0 .58-.12.76-.46.15-.28.11-.53.07-.66a.822.822 0 0 0-.42-.51l-4.05-2.18a2.51 2.51 0 0 1-1.21-1.48c-.19-.63-.12-1.32.19-1.9l2.73-5.06a2.5 2.5 0 0 1 1.49-1.21c.23-.07.47-.1.71-.1.41 0 .82.1 1.19.3l14.05 7.62c1.21.66 1.66 2.17 1.01 3.39l-15.64 28.9c-.32.58-.85 1.02-1.49 1.21-.23.07-.47.1-.71.1Z" style="fill:url(#Dégradé_secondaire1-4)"/><path d="m152.93 413.36 14.05 7.62-15.64 28.9-14.05-7.62 3.32-6.15 1.69.91a3.369 3.369 0 0 0 4.56-1.37l1.09-2.02c.88-1.64.27-3.68-1.37-4.56l-1.69-.91 2.07-3.83 4.09 2.21a3.369 3.369 0 0 0 4.56-1.37c.88-1.64.27-3.68-1.37-4.56l-4.05-2.18 2.73-5.06m0-5a5.001 5.001 0 0 0-4.4 2.63l-2.73 5.06a4.963 4.963 0 0 0-.46 3.54c-1.15.39-2.16 1.2-2.78 2.36l-2.07 3.83a4.98 4.98 0 0 0 .37 5.33h-.25a5.001 5.001 0 0 0-4.4 2.63l-3.32 6.15a4.996 4.996 0 0 0 2.02 6.77l14.05 7.62c.74.4 1.56.6 2.38.6a5.022 5.022 0 0 0 4.39-2.62l15.64-28.9c1.31-2.43.41-5.46-2.01-6.78l-14.05-7.62c-.74-.4-1.56-.6-2.38-.6Z" class="cls-12"/><path d="M159.7 468.79c-.41 0-.82-.1-1.19-.3l-13.33-7.21a2.503 2.503 0 0 1-1.01-3.39l69.19-128c.32-.58.85-1.02 1.49-1.21.23-.07.47-.1.71-.1.41 0 .82.1 1.19.3l13.33 7.21c1.21.66 1.67 2.17 1.01 3.39l-69.19 128c-.32.58-.85 1.02-1.49 1.21-.23.07-.47.1-.71.1Z" style="fill:url(#Dégradé_secondaire1-5)"/><path d="m215.56 331.08 13.33 7.21-69.19 128-13.33-7.21 69.19-128m0-5a5.022 5.022 0 0 0-4.4 2.62l-69.19 128a5.008 5.008 0 0 0 2.02 6.78l13.33 7.21a5.005 5.005 0 0 0 3.81.39 5.022 5.022 0 0 0 2.97-2.41l69.19-128c1.31-2.43.41-5.46-2.02-6.78l-13.33-7.21c-.74-.4-1.56-.6-2.38-.6Z" class="cls-12"/><path d="M233.35 349.83c-5.92 0-11.82-1.49-17.06-4.32-8.46-4.56-14.64-12.15-17.4-21.36s-1.76-18.94 2.8-27.41a35.973 35.973 0 0 1 31.71-18.92c5.92 0 11.81 1.49 17.05 4.32 8.46 4.56 14.65 12.15 17.41 21.36s1.77 18.95-2.8 27.41a35.973 35.973 0 0 1-31.71 18.92Zm.04-52.52c-6.09 0-11.66 3.33-14.55 8.68-4.32 8.01-1.31 18.05 6.7 22.37 2.41 1.3 5.11 1.98 7.82 1.98 6.09 0 11.66-3.32 14.55-8.68a16.39 16.39 0 0 0 1.28-12.57c-1.27-4.23-4.1-7.71-7.98-9.8-2.4-1.3-5.11-1.98-7.82-1.98Z" style="fill:url(#Dégradé_secondaire1-6)"/><path d="M233.41 280.33c5.37 0 10.81 1.29 15.87 4.02 16.29 8.78 22.37 29.1 13.59 45.38-6.05 11.23-17.59 17.61-29.51 17.61-5.37 0-10.81-1.29-15.87-4.02-16.28-8.78-22.37-29.09-13.59-45.38 6.05-11.23 17.59-17.61 29.51-17.61m-.04 52.52c6.77 0 13.31-3.62 16.75-9.99 4.98-9.24 1.53-20.77-7.72-25.76a18.9 18.9 0 0 0-9.01-2.28c-6.77 0-13.31 3.62-16.75 9.99-4.98 9.24-1.53 20.77 7.71 25.75a18.9 18.9 0 0 0 9.01 2.28m.04-57.52c-14.19 0-27.19 7.75-33.91 20.23-4.88 9.05-5.94 19.46-2.99 29.31 2.95 9.85 9.56 17.96 18.61 22.84 5.6 3.02 11.91 4.62 18.24 4.62 14.19 0 27.19-7.75 33.91-20.23 4.88-9.05 5.94-19.46 2.99-29.31-2.95-9.85-9.56-17.96-18.61-22.84a38.568 38.568 0 0 0-18.24-4.62Zm-.04 52.52c-2.3 0-4.59-.58-6.64-1.68-3.29-1.78-5.7-4.73-6.77-8.31-1.07-3.58-.69-7.37 1.09-10.67a14.02 14.02 0 0 1 12.35-7.37c2.3 0 4.59.58 6.63 1.68 6.8 3.67 9.35 12.18 5.69 18.98a14.01 14.01 0 0 1-12.35 7.36Z" class="cls-12"/><path d="M119.28 336.27c-.11 0-.23 0-.34-.02-.66-.09-1.25-.44-1.65-.97l-6.46-8.55c-.83-1.1-.62-2.66.48-3.5l6.09-4.64a2.478 2.478 0 0 1 2.5-.3l2.35 1.02 3.86-2.94-1.33-3.35c-.41-1.04-.08-2.23.81-2.91l3.79-2.88-.55-1.88c-.29-.99.06-2.06.89-2.69l4.58-3.48c.44-.33.97-.51 1.51-.51.11 0 .23 0 .34.02.66.09 1.25.44 1.65.97l9.65 12.74a2.5 2.5 0 0 1-.48 3.5l-26.18 19.86c-.44.33-.97.51-1.51.51Z" style="fill:url(#Dégradé_secondaire1-7)"/><path d="m135.81 301.17 9.65 12.74-26.18 19.86-6.46-8.55 6.09-4.64 3.69 1.6 6.53-4.97-2.03-5.11 5.16-3.92-1.03-3.53 4.58-3.48m0-5c-1.09 0-2.15.35-3.03 1.02l-4.58 3.48a4.997 4.997 0 0 0-1.77 5.38l.07.22-2.42 1.84a4.997 4.997 0 0 0-1.62 5.83l.63 1.58-1.18.9-1.01-.44a5.028 5.028 0 0 0-5.02.61l-6.09 4.64a4.999 4.999 0 0 0-.96 6.99l6.46 8.55a4.993 4.993 0 0 0 3.99 1.99c1.08 0 2.15-.35 3.02-1.02l26.18-19.86c2.2-1.67 2.63-4.8.96-7l-9.65-12.74a4.992 4.992 0 0 0-3.31-1.94c-.23-.03-.45-.05-.68-.05Z" class="cls-12"/><path d="M120.11 354.67c-.76 0-1.5-.34-1.99-.99l-9.16-12.07c-.4-.53-.58-1.19-.48-1.85.09-.66.44-1.25.97-1.65l75.25-57.05a2.5 2.5 0 0 1 1.51-.51c.76 0 1.5.34 1.99.99l9.16 12.07c.4.53.58 1.19.48 1.85-.09.66-.44 1.25-.97 1.65l-75.25 57.05a2.5 2.5 0 0 1-1.51.51Z" style="fill:url(#Dégradé_secondaire1-8)"/><path d="m186.2 283.04 9.16 12.07-75.25 57.05-9.16-12.07 75.25-57.05m0-5c-1.05 0-2.11.33-3.02 1.02l-75.25 57.05a4.98 4.98 0 0 0-1.93 3.3 5 5 0 0 0 .97 3.7l9.16 12.07c.98 1.3 2.48 1.98 3.99 1.98 1.05 0 2.11-.33 3.02-1.02l75.25-57.05a4.98 4.98 0 0 0 1.93-3.3 5 5 0 0 0-.97-3.7l-9.16-12.07a4.985 4.985 0 0 0-3.99-1.98Z" class="cls-12"/><path d="M210.43 312.31c-10.95 0-21.99-5.92-29.53-15.83-5.77-7.58-8.78-16.56-8.48-25.29.3-8.93 4-16.53 10.42-21.41 4.5-3.42 10.03-5.23 16-5.23 10.95 0 21.99 5.91 29.53 15.82 12.02 15.8 11.15 36.75-1.93 46.71-4.5 3.42-10.03 5.23-16 5.23Zm-.9-48.13c-2.31 0-4.51.74-6.36 2.15-4.61 3.51-5.51 10.12-2 14.73 2.01 2.64 5.06 4.15 8.38 4.15 2.31 0 4.51-.74 6.35-2.15 4.61-3.51 5.51-10.12 2-14.73a10.438 10.438 0 0 0-8.37-4.15Z" style="fill:url(#Dégradé_secondaire1-9)"/><path d="M198.84 247.06c9.76 0 20.26 5.26 27.54 14.83 11.2 14.72 10.55 34.07-1.46 43.2-4.2 3.2-9.23 4.72-14.48 4.72-9.76 0-20.26-5.26-27.54-14.84-11.2-14.72-10.55-34.06 1.46-43.2 4.2-3.2 9.24-4.72 14.48-4.72m10.73 40.65c2.75 0 5.51-.87 7.87-2.66 5.72-4.35 6.83-12.52 2.47-18.24a13 13 0 0 0-10.36-5.13c-2.75 0-5.51.87-7.87 2.66-5.72 4.35-6.83 12.51-2.48 18.23 2.56 3.37 6.44 5.14 10.37 5.14m-10.73-45.65c-6.52 0-12.58 1.99-17.51 5.74-14.18 10.79-15.26 33.31-2.41 50.21 8.01 10.53 19.79 16.81 31.52 16.81 6.52 0 12.58-1.99 17.51-5.74 14.18-10.79 15.26-33.32 2.41-50.21-8.01-10.52-19.79-16.81-31.52-16.81Zm10.73 40.65c-2.53 0-4.86-1.15-6.39-3.16a7.93 7.93 0 0 1-1.56-5.93c.29-2.12 1.38-4 3.09-5.3a7.944 7.944 0 0 1 4.84-1.64c2.53 0 4.86 1.15 6.38 3.16a7.93 7.93 0 0 1 1.56 5.93c-.29 2.12-1.38 4-3.09 5.3a7.944 7.944 0 0 1-4.84 1.64Z" class="cls-12"/><path d="m204.3 240.36 8.35 3.93a57.647 57.647 0 0 0 2.12 29.53l-8.25 3.6a66.644 66.644 0 0 1-2.23-37.06Z" class="cls-3"/><path d="M203.84 277.6c-4.06-12.06-4.76-24.59-2.14-37.06M215.22 244.14c-1.99 9.86-1.24 19.87 2.06 29.42" class="cls-4"/><path d="M784.06 349.12c-.24 0-.48-.03-.72-.11l-25.67-7.68c-.64-.19-1.18-.63-1.49-1.22-.31-.59-.38-1.28-.18-1.92l9.45-30.25c.25-.81 5.82-20.22-20.36-28.4-4.34-1.36-8.4-2.04-12.08-2.04-16.21 0-20.65 13.24-20.83 13.81l-9.45 30.24c-.2.64-.65 1.17-1.24 1.48-.36.18-.75.28-1.15.28-.26 0-.52-.04-.77-.12l-25.29-8.24a2.497 2.497 0 0 1-1.61-3.12l12.28-39.29c.09-.29 2.3-7.2 8.81-14.12 5.99-6.36 16.9-13.94 34.89-13.94 7.96 0 16.76 1.49 26.13 4.42 16.11 5.03 36.68 15.37 43.23 36.05 3.96 12.49.85 22.71.72 23.14l-12.28 39.29a2.49 2.49 0 0 1-2.38 1.75Z" class="cls-13"/><path d="M728.65 246.96c7.22 0 15.63 1.25 25.39 4.3 54.5 17.03 42.31 56.06 42.31 56.06l-12.28 39.29-25.67-7.68 9.45-30.25s7.02-22.47-22-31.53c-4.87-1.52-9.13-2.16-12.83-2.16-18.35 0-23.21 15.55-23.21 15.55l-9.45 30.25-25.29-8.24 12.28-39.29s8.22-26.3 41.31-26.3m0-5c-18.88 0-30.38 8.01-36.7 14.72-6.9 7.33-9.28 14.77-9.38 15.09l-12.28 39.29c-.82 2.61.62 5.4 3.22 6.25l25.29 8.24c.5.16 1.03.25 1.55.25.79 0 1.58-.19 2.29-.56a5.003 5.003 0 0 0 2.48-2.95l9.45-30.25c.15-.46 4.15-12.04 18.44-12.04 3.43 0 7.24.65 11.34 1.93 10.12 3.16 16.32 8.32 18.44 15.34 1.6 5.31.28 9.92.26 9.97l-9.44 30.21c-.4 1.28-.27 2.66.36 3.84a4.99 4.99 0 0 0 2.98 2.44l25.67 7.68a5 5 0 0 0 6.21-3.3l12.28-39.29c.14-.46 3.47-11.41-.72-24.64-6.87-21.7-28.19-32.47-44.87-37.68-9.62-3.01-18.66-4.53-26.88-4.53v5-5Z" class="cls-12"/><path d="M670.44 460.33c-3.02 0-6.02-.47-8.92-1.39l-118.31-37.53c-7.51-2.38-13.64-7.54-17.26-14.53s-4.31-14.97-1.93-22.48l28.07-88.5c3.9-12.31 15.19-20.57 28.09-20.57 3.02 0 6.02.47 8.92 1.39l118.31 37.53c7.51 2.38 13.64 7.54 17.26 14.53s4.31 14.97 1.93 22.48l-28.07 88.5c-3.9 12.31-15.19 20.57-28.09 20.57Z" style="fill:url(#Dégradé_secondaire1-10)"/><path d="M580.19 277.82c2.7 0 5.45.41 8.17 1.27l118.31 37.53c14.2 4.51 22.07 19.67 17.56 33.88L696.16 439c-3.65 11.49-14.27 18.83-25.71 18.83-2.7 0-5.45-.41-8.17-1.27l-118.31-37.53c-14.2-4.51-22.07-19.67-17.56-33.88l28.07-88.5c3.64-11.49 14.27-18.83 25.71-18.83m0-5c-13.99 0-26.24 8.97-30.48 22.32l-28.07 88.5c-2.58 8.14-1.84 16.8 2.09 24.39 3.93 7.58 10.58 13.18 18.72 15.77l118.31 37.53c3.15 1 6.4 1.5 9.68 1.5 13.99 0 26.24-8.97 30.48-22.32l28.07-88.5c2.58-8.14 1.84-16.8-2.09-24.39-3.93-7.58-10.58-13.18-18.72-15.77l-118.31-37.53c-3.15-1-6.4-1.5-9.68-1.5Z" class="cls-12"/><path d="M634.17 415.34c-.25 0-.51-.04-.76-.12l-42.04-13.34a2.5 2.5 0 0 1-1.31-3.78l22.34-33.23a23.898 23.898 0 0 1-4.18-22.24c3.17-9.98 12.32-16.68 22.78-16.68 2.45 0 4.88.38 7.23 1.12 12.56 3.99 19.54 17.45 15.56 30.02a23.922 23.922 0 0 1-16.23 15.76l-.89 40.03c-.02.79-.4 1.52-1.04 1.98-.43.31-.94.47-1.45.47Z" style="fill:#353544"/><path d="M631 328.47c2.14 0 4.32.32 6.48 1.01 11.27 3.57 17.51 15.61 13.93 26.88-2.45 7.72-8.88 13.08-16.31 14.54l-.06 2.73-.88 39.23-21.02-6.67-21.02-6.67 21.9-32.56 1.52-2.26c-5.23-5.47-7.39-13.55-4.94-21.28 2.89-9.12 11.32-14.94 20.4-14.94m0-5c-11.56 0-21.67 7.41-25.16 18.43-2.5 7.89-1.14 16.4 3.5 23.07l-21.35 31.75a4.997 4.997 0 0 0-.57 4.44 5.01 5.01 0 0 0 3.21 3.12l21.02 6.67 21.02 6.67c.49.16 1 .23 1.51.23a4.993 4.993 0 0 0 5-4.89l.86-38.26a26.445 26.445 0 0 0 16.16-16.83c4.4-13.88-3.31-28.75-17.19-33.15a26.55 26.55 0 0 0-7.99-1.24Z" class="cls-12"/><path d="M556.49 439.54c5.55-5.14 8.51-12.84 7.27-20.87l-40.55-263.02c-1.95-12.65-13.62-21.39-26.23-19.77l-180.25 27.77c-8.03 1.24-14.47 6.4-17.71 13.24a24.53 24.53 0 0 0-1.42 3.84c-.84 3.1-1.06 6.42-.54 9.79l40.55 263.02c1.98 12.85 14 21.67 26.85 19.69l179.63-27.69c3.37-.52 6.48-1.73 9.17-3.48 1.15-.74 2.23-1.57 3.22-2.5" class="cls-2"/><path d="M563.68 429.73c5.55-5.14 8.51-12.84 7.27-20.87L530.4 145.84c-1.95-12.65-13.62-21.39-26.23-19.77l-180.25 27.77c-8.03 1.24-14.47 6.4-17.71 13.24a24.53 24.53 0 0 0-1.42 3.84c-.84 3.1-1.06 6.42-.54 9.79l40.55 263.02c1.98 12.85 14 21.67 26.85 19.69l179.63-27.69c3.37-.52 6.48-1.73 9.17-3.48 1.15-.74 2.23-1.57 3.22-2.5" class="cls-2"/><path d="M570.87 419.92c5.55-5.14 8.51-12.84 7.27-20.87l-40.55-263.02c-1.95-12.65-13.62-21.39-26.23-19.77l-180.25 27.77c-8.03 1.24-14.47 6.4-17.71 13.24a24.53 24.53 0 0 0-1.42 3.84c-.84 3.1-1.06 6.42-.54 9.79l40.55 263.02c1.98 12.85 14 21.67 26.85 19.69l179.63-27.69c3.37-.52 6.48-1.73 9.17-3.48 1.15-.74 2.23-1.57 3.22-2.5" style="fill:url(#Dégradé_secondaire1_6);stroke-linejoin:round;stroke-width:5px;stroke:#fff;stroke-linecap:round"/><path d="m377.95 250.33 2.91 18.91c.49 3.2-1.69 6.19-4.9 6.68l-18.91 2.91c-3.2.49-6.21-1.69-6.7-4.9l-2.91-18.91c-.49-3.2 1.71-6.19 4.91-6.69l18.91-2.91c3.2-.49 6.19 1.69 6.68 4.9ZM370.9 204.62l2.91 18.91c.49 3.2-1.69 6.19-4.9 6.68L350 233.12c-3.2.49-6.21-1.69-6.7-4.9l-2.91-18.91c-.49-3.2 1.71-6.19 4.91-6.69l18.91-2.91c3.2-.49 6.19 1.69 6.68 4.9Z" class="cls-12"/><path d="m368.92 230.21-18.91 2.91c-3.2.49-6.21-1.69-6.7-4.9l-2.91-18.91c-.49-3.2 1.71-6.19 4.91-6.69l18.91-2.91c3.2-.49 6.19 1.69 6.68 4.9l2.91 18.91c.49 3.2-1.69 6.19-4.9 6.68Z" class="cls-12"/><path d="m383.07 205.07 77.72-11.98M385.28 219.44l133.56-20.59" class="cls-4"/><path d="m347.22 217.02 8.21 6.01 10.47-14.29" style="stroke:url(#Dégradé_secondaire1_6-2);stroke-miterlimit:10;stroke-width:3.38px;fill:none;stroke-linecap:round"/><path d="m375.97 275.92-18.91 2.91c-3.2.49-6.21-1.69-6.7-4.9l-2.91-18.91c-.49-3.2 1.71-6.19 4.91-6.69l18.91-2.91c3.2-.49 6.19 1.69 6.68 4.9l2.91 18.91c.49 3.2-1.69 6.19-4.9 6.68Z" class="cls-12"/><path d="m390.12 250.78 77.71-11.98M392.33 265.15l133.55-20.59" class="cls-4"/><path d="m354.27 262.71 8.2 6.01 10.48-14.27" style="stroke:url(#Dégradé_secondaire1_6-3);stroke-miterlimit:10;stroke-width:3.38px;fill:none;stroke-linecap:round"/><path d="M492.66 157.48c-.68 0-1.34-.28-1.82-.78-1.23-1.29-2.19-2.65-2.87-4.03-2.68-5.55.1-10.11 1.94-11.75.36-.32.81-.53 1.28-.6 2.37-.37 4.58-1.53 6.39-3.37 4.01-4.04 5.84-10.81 4.78-17.67-1.48-9.58-8.08-16.81-15.36-16.81-.54 0-1.09.04-1.63.12-6.58 1.01-11.39 8.29-11.44 17.3 0 1.23-.9 2.27-2.12 2.46l-9.55 1.47c-.13.02-.25.03-.38.03-.56 0-1.11-.19-1.56-.54-.54-.43-.88-1.08-.94-1.77-1.35-18.26 8.69-33.74 23.35-36 1.17-.18 2.36-.27 3.53-.27 14.55 0 27.63 13.67 30.42 31.8 1.02 6.62.59 13.31-1.25 19.33-.92 3.08-2.22 5.97-3.85 8.56-2.36 3.78-5.28 6.79-8.68 8.94-1.35.88-2.79 1.61-4.26 2.17-1.57.61-3.2 1.05-4.85 1.3-.04 0-.89.1-.89.1-.09.01-.18.02-.28.02Z" class="cls-13"/><path d="M486.29 87.75c13.17 0 25.31 12.57 27.95 29.68 1 6.47.51 12.72-1.17 18.22-.87 2.9-2.08 5.58-3.57 7.97-2.11 3.38-4.79 6.19-7.9 8.15-1.21.78-2.48 1.44-3.82 1.96-1.39.54-2.83.93-4.33 1.16l-.79.09c-1.14-1.21-1.92-2.35-2.44-3.42-2.56-5.29 1.36-8.79 1.36-8.79 2.99-.46 5.65-1.91 7.79-4.09 4.41-4.44 6.7-11.86 5.47-19.81-1.68-10.91-9.43-18.93-17.83-18.93-.67 0-1.34.05-2.01.15-7.99 1.23-13.51 9.79-13.56 19.76l-9.55 1.47c-1.27-17.08 7.8-31.27 21.24-33.34 1.05-.16 2.11-.24 3.15-.24m0-5c-1.31 0-2.62.1-3.91.3-7.94 1.22-14.9 5.95-19.59 13.3-4.48 7.03-6.57 16.03-5.88 25.36.1 1.39.78 2.68 1.87 3.54a4.992 4.992 0 0 0 3.87 1.03l9.55-1.47a4.997 4.997 0 0 0 4.24-4.92c.04-7.65 4.05-14.03 9.32-14.84.41-.06.83-.1 1.25-.1 5.96 0 11.62 6.45 12.89 14.69.94 6.1-.62 12.04-4.08 15.52-1.47 1.49-3.15 2.38-5.01 2.67-.95.15-1.84.57-2.56 1.21-2.33 2.08-5.86 7.82-2.54 14.7.8 1.64 1.91 3.2 3.31 4.68a5.018 5.018 0 0 0 4.18 1.53l.79-.09c.07 0 .14-.02.21-.03 1.83-.28 3.64-.77 5.38-1.44 1.6-.61 3.18-1.42 4.7-2.4 3.71-2.35 6.89-5.62 9.45-9.72 1.74-2.78 3.13-5.87 4.12-9.18 1.94-6.36 2.4-13.43 1.32-20.42-2.98-19.34-17.12-33.92-32.89-33.92Z" class="cls-12"/><path d="M466.5 164.09c-.68 0-1.34-.28-1.82-.78-1.22-1.29-2.19-2.65-2.87-4.03-2.68-5.55.1-10.11 1.94-11.75.36-.32.8-.53 1.28-.6 2.37-.37 4.58-1.53 6.39-3.37 4.01-4.04 5.84-10.81 4.78-17.67-1.48-9.58-8.08-16.81-15.36-16.81-.54 0-1.09.04-1.63.12-6.61 1.02-11.46 8.54-11.83 14.92a2.493 2.493 0 0 1-2.12 2.32l-9.54 1.47a2.502 2.502 0 0 1-1.95-.52c-.55-.44-.88-1.09-.93-1.8-1-16.55 9.43-31.25 23.74-33.45 1.17-.18 2.36-.27 3.53-.27 14.55 0 27.63 13.67 30.42 31.8 1.02 6.62.59 13.31-1.25 19.33-.92 3.08-2.22 5.97-3.85 8.56-2.36 3.78-5.28 6.79-8.68 8.94-1.35.88-2.79 1.61-4.25 2.18-1.57.61-3.2 1.05-4.85 1.3-.04 0-.89.1-.89.1-.09.01-.18.02-.28.02Z" class="cls-13"/><path d="M460.13 94.35c13.17 0 25.31 12.57 27.95 29.68 1 6.47.51 12.72-1.17 18.22-.87 2.9-2.08 5.58-3.57 7.97-2.11 3.38-4.79 6.19-7.9 8.15-1.21.78-2.48 1.44-3.82 1.96-1.39.54-2.83.93-4.33 1.16l-.79.09c-1.14-1.21-1.92-2.35-2.44-3.42-2.56-5.29 1.36-8.79 1.36-8.79 2.99-.46 5.65-1.91 7.79-4.09 4.41-4.44 6.7-11.86 5.47-19.81-1.68-10.91-9.43-18.93-17.83-18.93-.67 0-1.34.05-2.01.15-7.99 1.23-13.51 9.79-13.95 17.24l-9.55 1.47c-.88-14.57 8.19-28.76 21.63-30.83 1.05-.16 2.11-.24 3.15-.24m0-5c-1.31 0-2.62.1-3.91.3-15.57 2.4-26.93 18.25-25.85 36.07a4.999 4.999 0 0 0 5.75 4.64l9.55-1.47c2.33-.36 4.09-2.3 4.23-4.65.31-5.3 4.38-11.77 9.72-12.6.41-.06.83-.1 1.25-.1 5.96 0 11.62 6.45 12.89 14.69.94 6.1-.62 12.04-4.08 15.52-1.47 1.49-3.15 2.38-5.01 2.67-.95.15-1.84.57-2.56 1.21-2.33 2.08-5.86 7.82-2.54 14.7.8 1.64 1.91 3.2 3.31 4.68a5.018 5.018 0 0 0 4.18 1.53l.79-.09c.07 0 .14-.02.21-.03 1.83-.28 3.64-.77 5.38-1.44 1.6-.61 3.18-1.42 4.7-2.4 3.71-2.35 6.89-5.62 9.45-9.72 1.74-2.77 3.13-5.87 4.12-9.18 1.94-6.36 2.4-13.43 1.32-20.42-2.98-19.34-17.12-33.92-32.89-33.92Z" class="cls-12"/><path d="M439.96 168.18c-.68 0-1.34-.28-1.82-.78-1.22-1.29-2.19-2.65-2.87-4.03-2.68-5.55.1-10.12 1.94-11.76.36-.32.81-.53 1.28-.6 2.37-.37 4.58-1.53 6.39-3.37 4.01-4.04 5.84-10.81 4.78-17.67-1.48-9.58-8.08-16.81-15.36-16.81-.54 0-1.09.04-1.63.12-6.61 1.02-11.46 8.54-11.83 14.92a2.493 2.493 0 0 1-2.12 2.32l-9.55 1.47a2.502 2.502 0 0 1-1.95-.52c-.55-.44-.88-1.09-.93-1.8-1-16.55 9.43-31.25 23.74-33.45 1.17-.18 2.36-.27 3.53-.27 14.55 0 27.63 13.67 30.42 31.8 1.02 6.62.59 13.31-1.25 19.33-.92 3.08-2.22 5.96-3.84 8.56-2.36 3.78-5.28 6.79-8.68 8.94a23.16 23.16 0 0 1-9.1 3.48c-.04 0-.9.1-.9.1-.09 0-.18.01-.27.01Z" class="cls-13"/><path d="M433.59 98.45c13.17 0 25.31 12.57 27.95 29.68 1 6.47.51 12.72-1.17 18.22-.87 2.9-2.08 5.58-3.57 7.97-2.11 3.38-4.79 6.19-7.9 8.15-1.21.78-2.48 1.44-3.82 1.96-1.39.54-2.83.93-4.33 1.16l-.79.09c-1.14-1.21-1.92-2.35-2.44-3.42-2.56-5.29 1.36-8.79 1.36-8.79 2.99-.46 5.65-1.91 7.79-4.09 4.41-4.44 6.7-11.86 5.47-19.81-1.68-10.91-9.43-18.93-17.83-18.93-.67 0-1.34.05-2.01.15-7.99 1.23-13.51 9.79-13.95 17.24l-9.55 1.47c-.88-14.57 8.19-28.76 21.63-30.83 1.05-.16 2.11-.24 3.15-.24m0-5c-1.31 0-2.62.1-3.91.3-15.57 2.4-26.93 18.25-25.85 36.07a4.999 4.999 0 0 0 5.75 4.64l9.55-1.47c2.33-.36 4.09-2.3 4.23-4.65.31-5.3 4.38-11.77 9.72-12.6.41-.06.83-.1 1.25-.1 5.96 0 11.62 6.45 12.89 14.69.94 6.1-.62 12.04-4.08 15.52-1.47 1.49-3.15 2.38-5.01 2.67-.95.15-1.84.57-2.56 1.21-2.33 2.08-5.86 7.82-2.54 14.7.8 1.64 1.91 3.2 3.31 4.68a5.018 5.018 0 0 0 4.18 1.53l.79-.09c.07 0 .14-.02.21-.03 1.83-.28 3.64-.77 5.38-1.44 1.6-.61 3.18-1.42 4.7-2.4 3.71-2.35 6.89-5.62 9.45-9.72 1.74-2.78 3.13-5.87 4.12-9.18 1.94-6.36 2.4-13.43 1.32-20.42-2.98-19.34-17.12-33.92-32.89-33.92Z" class="cls-12"/><path d="M413.42 172.27c-.68 0-1.34-.28-1.82-.78-1.22-1.29-2.19-2.65-2.87-4.03-2.68-5.55.1-10.11 1.94-11.75.36-.32.8-.53 1.28-.6 2.37-.37 4.58-1.53 6.39-3.37 4.01-4.04 5.84-10.81 4.78-17.67-1.48-9.58-8.08-16.81-15.36-16.81-.54 0-1.09.04-1.63.12-6.61 1.02-11.46 8.54-11.83 14.92a2.493 2.493 0 0 1-2.12 2.32l-9.55 1.47a2.502 2.502 0 0 1-1.95-.52c-.55-.44-.88-1.09-.93-1.79-1-16.55 9.43-31.25 23.74-33.45 1.17-.18 2.36-.27 3.53-.27 14.55 0 27.63 13.67 30.42 31.8 1.02 6.62.59 13.31-1.25 19.33-.92 3.08-2.22 5.97-3.85 8.56-2.36 3.78-5.28 6.79-8.68 8.94-1.35.88-2.79 1.61-4.25 2.17-1.57.61-3.2 1.05-4.85 1.3-.04 0-.89.1-.89.1-.09.01-.18.02-.28.02Z" class="cls-13"/><path d="M407.05 102.54c13.17 0 25.31 12.57 27.95 29.68 1 6.47.51 12.72-1.17 18.22-.87 2.9-2.08 5.58-3.57 7.97-2.11 3.38-4.79 6.19-7.9 8.15-1.21.78-2.48 1.44-3.82 1.95-1.39.54-2.83.93-4.33 1.16l-.79.09c-1.14-1.21-1.92-2.35-2.44-3.42-2.56-5.29 1.36-8.79 1.36-8.79 2.99-.46 5.65-1.91 7.79-4.09 4.41-4.44 6.7-11.86 5.47-19.81-1.68-10.91-9.43-18.93-17.83-18.93-.67 0-1.34.05-2.01.15-7.99 1.23-13.51 9.79-13.95 17.24l-9.55 1.47c-.88-14.57 8.19-28.76 21.63-30.83 1.05-.16 2.11-.24 3.15-.24m0-5c-1.31 0-2.62.1-3.91.3-15.57 2.4-26.93 18.25-25.85 36.07a4.999 4.999 0 0 0 5.75 4.64l9.55-1.47c2.33-.36 4.09-2.3 4.23-4.65.31-5.3 4.38-11.77 9.72-12.6.41-.06.83-.1 1.25-.1 5.96 0 11.62 6.45 12.89 14.69.94 6.1-.62 12.04-4.08 15.52-1.47 1.49-3.15 2.38-5.01 2.67-.95.15-1.84.57-2.56 1.21-2.33 2.08-5.86 7.82-2.54 14.7.8 1.64 1.91 3.2 3.31 4.68a5.018 5.018 0 0 0 4.18 1.53l.79-.09c.07 0 .14-.02.21-.03 1.83-.28 3.64-.77 5.38-1.44 1.6-.61 3.18-1.42 4.7-2.4 3.71-2.35 6.89-5.62 9.45-9.72 1.74-2.78 3.13-5.87 4.12-9.18 1.94-6.36 2.4-13.43 1.32-20.42-2.98-19.34-17.12-33.92-32.89-33.92Z" class="cls-12"/><path d="M386.88 176.36c-.68 0-1.34-.28-1.81-.78-1.22-1.29-2.19-2.65-2.87-4.03-2.68-5.55.1-10.11 1.94-11.76.36-.32.81-.53 1.28-.6 2.37-.37 4.58-1.53 6.39-3.37 4.01-4.04 5.84-10.81 4.78-17.67-1.48-9.58-8.08-16.81-15.36-16.81-.54 0-1.09.04-1.63.12-6.61 1.02-11.46 8.54-11.83 14.92a2.493 2.493 0 0 1-2.12 2.32l-9.54 1.47a2.502 2.502 0 0 1-1.95-.52c-.55-.44-.88-1.09-.93-1.8-1-16.55 9.43-31.25 23.74-33.45 1.17-.18 2.36-.27 3.53-.27 14.55 0 27.63 13.67 30.42 31.8 1.02 6.62.59 13.31-1.25 19.33-.92 3.08-2.22 5.97-3.85 8.56-2.36 3.78-5.28 6.79-8.68 8.94-1.35.88-2.79 1.61-4.25 2.18-1.57.61-3.2 1.05-4.85 1.3-.04 0-.9.1-.9.1-.09 0-.18.01-.27.01Z" class="cls-13"/><path d="M380.51 106.63c13.17 0 25.31 12.57 27.95 29.68 1 6.48.51 12.72-1.17 18.22-.87 2.9-2.08 5.58-3.57 7.97-2.11 3.38-4.79 6.19-7.9 8.15-1.21.78-2.48 1.44-3.82 1.96-1.39.54-2.83.93-4.33 1.16l-.79.09c-1.14-1.21-1.92-2.35-2.44-3.42-2.56-5.29 1.36-8.79 1.36-8.79 2.99-.46 5.65-1.91 7.79-4.09 4.41-4.44 6.7-11.86 5.47-19.81-1.68-10.91-9.43-18.93-17.83-18.93-.67 0-1.34.05-2.01.15-7.99 1.23-13.51 9.79-13.95 17.25l-9.55 1.47c-.88-14.57 8.19-28.76 21.63-30.83 1.05-.16 2.11-.24 3.15-.24m0-5c-1.31 0-2.62.1-3.91.3-15.57 2.4-26.93 18.25-25.85 36.07a4.999 4.999 0 0 0 5.75 4.64l9.55-1.47c2.33-.36 4.09-2.3 4.23-4.65.31-5.3 4.38-11.77 9.72-12.6.41-.06.83-.1 1.25-.1 5.96 0 11.62 6.45 12.89 14.69.94 6.1-.62 12.04-4.08 15.52-1.47 1.49-3.15 2.38-5.01 2.67-.95.15-1.84.57-2.56 1.21-2.33 2.08-5.86 7.82-2.54 14.7.8 1.64 1.91 3.2 3.31 4.68a5.018 5.018 0 0 0 4.18 1.53l.79-.09c.07 0 .14-.02.21-.03 1.83-.28 3.64-.77 5.38-1.44 1.6-.61 3.18-1.42 4.7-2.4 3.71-2.35 6.89-5.62 9.45-9.72 1.74-2.77 3.13-5.87 4.12-9.18 1.94-6.36 2.4-13.43 1.32-20.42-2.98-19.34-17.12-33.92-32.89-33.92Z" class="cls-12"/><path d="M360.34 180.45c-.68 0-1.34-.28-1.82-.78-1.22-1.29-2.19-2.65-2.87-4.03-2.68-5.55.1-10.11 1.94-11.76.36-.32.81-.53 1.28-.6 2.37-.37 4.58-1.53 6.39-3.37 4.01-4.04 5.84-10.81 4.78-17.67-1.48-9.58-8.08-16.81-15.36-16.81-.54 0-1.09.04-1.63.12-6.61 1.02-11.46 8.54-11.83 14.92a2.493 2.493 0 0 1-2.12 2.32l-9.55 1.47a2.502 2.502 0 0 1-1.95-.52c-.55-.44-.88-1.09-.93-1.79-1-16.55 9.43-31.25 23.74-33.45 1.17-.18 2.36-.27 3.53-.27 14.55 0 27.63 13.67 30.42 31.8 1.02 6.62.59 13.31-1.25 19.33-.92 3.09-2.22 5.97-3.85 8.56-2.36 3.78-5.28 6.79-8.68 8.94-1.35.88-2.79 1.61-4.25 2.17-1.57.61-3.2 1.05-4.85 1.3-.04 0-.89.1-.89.1-.09.01-.18.02-.28.02Z" class="cls-13"/><path d="M353.97 110.72c13.17 0 25.31 12.57 27.95 29.68 1 6.47.51 12.72-1.17 18.22-.87 2.9-2.08 5.58-3.57 7.97-2.11 3.38-4.79 6.19-7.9 8.15-1.21.78-2.48 1.44-3.82 1.96-1.39.54-2.83.93-4.33 1.16l-.79.09c-1.14-1.21-1.92-2.35-2.44-3.42-2.56-5.29 1.36-8.79 1.36-8.79 2.99-.46 5.65-1.91 7.79-4.09 4.41-4.44 6.7-11.86 5.47-19.81-1.68-10.91-9.43-18.93-17.83-18.93-.67 0-1.34.05-2.01.15-7.99 1.23-13.51 9.79-13.95 17.24l-9.55 1.47c-.88-14.57 8.19-28.76 21.63-30.83 1.05-.16 2.11-.24 3.15-.24m0-5c-1.31 0-2.62.1-3.91.3-15.57 2.4-26.93 18.25-25.85 36.07a4.999 4.999 0 0 0 5.75 4.64l9.55-1.47c2.33-.36 4.09-2.3 4.23-4.65.31-5.3 4.38-11.77 9.72-12.6.41-.06.83-.1 1.25-.1 5.96 0 11.62 6.45 12.89 14.69.94 6.1-.62 12.04-4.08 15.52-1.47 1.49-3.15 2.38-5.01 2.67-.95.15-1.84.57-2.56 1.21-2.33 2.08-5.86 7.82-2.54 14.7.8 1.64 1.91 3.2 3.31 4.68a5.018 5.018 0 0 0 4.18 1.53l.79-.09c.07 0 .14-.02.21-.03 1.83-.28 3.64-.77 5.38-1.44 1.6-.61 3.18-1.42 4.7-2.4 3.71-2.35 6.89-5.62 9.45-9.72 1.74-2.78 3.13-5.87 4.12-9.18 1.94-6.36 2.4-13.43 1.32-20.42-2.98-19.34-17.12-33.92-32.89-33.92Z" class="cls-12"/><rect width="30.86" height="30.86" x="355.77" y="292.41" class="cls-12" rx="3.47" ry="3.47" transform="rotate(-8.76 371.366 307.966)"/><rect width="30.86" height="30.86" x="362.82" y="338.12" class="cls-12" rx="3.47" ry="3.47" transform="rotate(-8.76 378.436 353.683)"/><rect width="30.86" height="30.86" x="369.87" y="383.82" class="cls-12" rx="3.47" ry="3.47" transform="rotate(-8.76 385.44 399.395)"/><path d="m397.16 296.48 77.72-11.98M399.38 310.85l133.54-20.58M404.21 342.19l77.72-11.98M406.43 356.56l133.54-20.59M411.26 387.89l77.71-11.98M413.47 402.26l133.55-20.58" class="cls-4"/><path d="m361.32 308.42 8.2 6.02 10.47-14.29" style="stroke:url(#Dégradé_secondaire1_6-4);stroke-miterlimit:10;stroke-width:3.38px;fill:none;stroke-linecap:round"/><path d="m368.36 354.13 8.21 6.01 10.47-14.29" style="stroke-miterlimit:10;stroke-width:3.38px;stroke:url(#Dégradé_secondaire1_6-5);fill:none;stroke-linecap:round"/></svg>