<svg xmlns="http://www.w3.org/2000/svg" xmlns:xlink="http://www.w3.org/1999/xlink" id="Calque_1" data-name="Calque 1" viewBox="0 0 283.46 283.46"><defs><linearGradient id="Dégradé_sans_nom_11" x1="37.77" x2="174.53" y1="86.24" y2="223" data-name="Dégradé sans nom 11" gradientUnits="userSpaceOnUse"><stop offset=".1" stop-color="#5c5b72"/><stop offset=".5" stop-color="#b0b0bf"/><stop offset=".96" stop-color="#f4f4f6"/></linearGradient><linearGradient xlink:href="#Dégradé_sans_nom_11" id="Dégradé_sans_nom_11-2" x1="164.03" x2="303.79" y1="3.7" y2="143.46" data-name="Dégradé sans nom 11"/><linearGradient xlink:href="#Dégradé_sans_nom_11" id="Dégradé_sans_nom_11-3" x1="58.99" x2="219" y1="60.69" y2="220.7" data-name="Dégradé sans nom 11"/><radialGradient id="Dégradé_sans_nom_47" cx="192.22" cy="102.47" r="34.99" data-name="Dégradé sans nom 47" fx="192.22" fy="102.47" gradientUnits="userSpaceOnUse"><stop offset=".27" stop-color="#cd3131" stop-opacity=".7"/><stop offset="1" stop-color="#cd3131" stop-opacity="0"/></radialGradient><style>.cls-1{stroke:#cd3131;stroke-width:3.79px;fill:none;stroke-linecap:round;stroke-linejoin:round}.cls-3{fill:#343443}.cls-8{fill:#fff;opacity:.5}</style></defs><path d="M45.83 86.8v8.49c-7.28 14.49-11.38 30.88-11.38 48.18V86.73c-5.31-4.33-9.03-17.28-9.03-29.22 0-15.86 6.6-24.72 14.8-24.72s14.8 8.86 14.8 24.72c0 11.95-3.79 24.96-9.18 29.29Z" style="fill:url(#Dégradé_sans_nom_11)"/><path d="M249.02 86.73v56.74c0-17.3-4.1-33.69-11.38-48.18V86.8c-5.39-4.33-9.18-17.35-9.18-29.29 0-15.86 6.68-24.72 14.8-24.72s14.8 8.86 14.8 24.72c0 11.95-3.72 24.89-9.03 29.22Z" style="fill:url(#Dégradé_sans_nom_11-2)"/><path d="M141.73 208.23c27.69 0 50.08-17.86 50.08-39.89s-22.38-39.96-50.08-39.96-50.08 17.86-50.08 39.96 22.46 39.89 50.08 39.89Zm95.9-112.94c7.28 14.49 11.38 30.88 11.38 48.18 0 59.18-48.03 107.21-107.28 107.21S34.45 202.65 34.45 143.47c0-17.3 4.1-33.69 11.38-48.18 17.68-35.05 53.95-59.1 95.9-59.1s78.22 24.05 95.9 59.1Z" style="fill:url(#Dégradé_sans_nom_11-3)"/><path d="M132.23 228.69s0-10.62 9.51-10.62 9.54 10.62 9.54 10.62" style="stroke:#5c5b72;stroke-width:4px;fill:none;stroke-linecap:round;stroke-linejoin:round"/><path d="M171.83 173.9c1.38 18.1 9.51 27.55 19.34 27.55 10.8 0 19.55-11.4 19.55-33.14 0-3.61-.24-6.93-.69-9.97l-38.2 15.56Z" class="cls-3"/><ellipse cx="193.32" cy="182.39" class="cls-8" rx="4.54" ry="3.12"/><ellipse cx="200.26" cy="172.8" class="cls-8" rx="6.94" ry="6.1"/><path d="M111.63 173.9c-1.38 18.1-9.51 27.55-19.34 27.55-10.8 0-19.55-11.4-19.55-33.14 0-3.61.24-6.93.69-9.97l38.2 15.56Z" class="cls-3"/><ellipse cx="90.68" cy="188.49" class="cls-8" rx="4.54" ry="3.12"/><ellipse cx="97.63" cy="178.9" class="cls-8" rx="6.94" ry="6.1"/><circle cx="192.22" cy="102.47" r="34.99" style="fill:url(#Dégradé_sans_nom_47)"/><path d="M184.75 82.94s10.82 18.66-13.69 24.57M215.94 106.7s-21.51 1.7-16.25-22.96M178.15 120.26s10.66-18.75 28.13-.56" class="cls-1"/><path d="M171.83 153.03s.66 14.34 11.56 7.2c9.93-6.5 21.66-22.78 21.66-22.78s-25.96 21.9-33.22 15.58ZM111.63 153.03s-.66 14.34-11.56 7.2c-9.93-6.5-21.66-22.78-21.66-22.78s25.96 21.9 33.22 15.58Z" class="cls-3"/></svg>