<svg xmlns="http://www.w3.org/2000/svg" xmlns:xlink="http://www.w3.org/1999/xlink" id="Calque_1" data-name="Calque 1" viewBox="0 0 283.46 283.46"><defs><linearGradient id="Dégradé_sans_nom_11" x1="37.93" x2="236.26" y1="86.04" y2="284.37" data-name="Dégradé sans nom 11" gradientUnits="userSpaceOnUse"><stop offset=".1" stop-color="#5c5b72"/><stop offset=".5" stop-color="#b0b0bf"/><stop offset=".96" stop-color="#f4f4f6"/></linearGradient><linearGradient xlink:href="#Dégradé_sans_nom_11" id="Dégradé_sans_nom_11-2" x1="130.6" x2="327.31" y1="-30.16" y2="166.55" data-name="Dégradé sans nom 11"/><linearGradient xlink:href="#Dégradé_sans_nom_11" id="Dégradé_sans_nom_11-3" x1="58.96" x2="219.03" y1="84.92" y2="244.99" data-name="Dégradé sans nom 11"/><style>.cls-2{fill:#343443}.cls-6{fill:#fff;opacity:.5}</style></defs><path d="M45.8 60.94v58.59c-7.29 14.5-11.38 30.89-11.38 48.2V60.86c-5.31-4.71-9.03-15.79-9.03-28.77 0-17.23 6.6-23.6 14.8-23.6s14.8 6.37 14.8 23.6c0 12.98-3.79 24.14-9.18 28.84Z" style="fill:url(#Dégradé_sans_nom_11)"/><path d="M249.05 60.86v106.87c0-17.3-4.1-33.7-11.38-48.2V60.94c-5.39-4.71-9.18-15.86-9.18-28.84 0-17.23 6.68-23.6 14.8-23.6s14.8 6.37 14.8 23.6c0 12.98-3.72 24.06-9.03 28.77Z" style="fill:url(#Dégradé_sans_nom_11-2)"/><path d="M141.73 217.74c27.7 0 50.09-22.39 50.09-50.02s-22.39-50.09-50.09-50.09-50.09 22.39-50.09 50.09 22.47 50.02 50.09 50.02Zm95.93-98.21c7.29 14.5 11.38 30.89 11.38 48.2 0 59.2-48.04 107.24-107.32 107.24S34.4 226.93 34.4 167.73c0-17.3 4.1-33.7 11.38-48.2 17.68-35.06 53.96-59.12 95.93-59.12s78.25 24.06 95.93 59.12Z" style="fill:url(#Dégradé_sans_nom_11-3)"/><path d="M75.71 148.55c-1.89 5.06-2.99 11.45-2.99 19.14 0 21.75 8.75 33.15 19.55 33.15s19.55-11.41 19.55-33.15c0-16.31-4.92-26.8-11.94-31.03L75.7 148.55Z" class="cls-2"/><ellipse cx="89.06" cy="160.81" class="cls-6" rx="4.55" ry="3.12"/><ellipse cx="96.01" cy="151.22" class="cls-6" rx="6.95" ry="6.1"/><path d="M207.76 148.55c1.89 5.06 2.99 11.45 2.99 19.14 0 21.75-8.75 33.15-19.55 33.15s-19.55-11.41-19.55-33.15c0-16.31 4.92-26.8 11.94-31.03l24.18 11.89Z" class="cls-2"/><ellipse cx="194.4" cy="160.81" class="cls-6" rx="4.55" ry="3.12"/><ellipse cx="187.46" cy="151.22" class="cls-6" rx="6.95" ry="6.1"/><path d="M128.6 250.84c6.31-1.38 15.67-2.36 26.27 0 0 0 3.36 1.08 4.77-2.08 1.6-3.6-2.18-7.29-2.18-7.29-3.2-3.27-8.14-5.93-15.72-5.93-7.63-.04-12.59 2.76-15.8 6.14 0 0-3.7 3.47-2.1 7.07 1.41 3.17 4.77 2.08 4.77 2.08Z" style="fill:#5c5b72"/><path d="M175.56 89.34s-9.95 11.19 1.84 16.75c12.9 6.09 30.17 14.48 30.17 14.48s-33.45-20.54-32.01-31.24ZM107.9 89.34s9.95 11.19-1.84 16.75c-12.9 6.09-30.17 14.48-30.17 14.48s33.45-20.54 32.01-31.24Z" class="cls-2"/></svg>