<svg xmlns="http://www.w3.org/2000/svg" xmlns:xlink="http://www.w3.org/1999/xlink" id="Calque_1" data-name="Calque 1" viewBox="0 0 283.46 283.46"><defs><linearGradient id="Dégradé_sans_nom_11" x1="37.72" x2="236.45" y1="85.93" y2="284.65" data-name="Dégradé sans nom 11" gradientUnits="userSpaceOnUse"><stop offset=".1" stop-color="#5c5b72"/><stop offset=".5" stop-color="#b0b0bf"/><stop offset=".96" stop-color="#f4f4f6"/></linearGradient><linearGradient xlink:href="#Dégradé_sans_nom_11" id="Dégradé_sans_nom_11-2" x1="130.58" x2="327.69" y1="-30.51" y2="166.6" data-name="Dégradé sans nom 11"/><linearGradient xlink:href="#Dégradé_sans_nom_11" id="Dégradé_sans_nom_11-3" x1="58.79" x2="219.19" y1="84.81" y2="245.2" data-name="Dégradé sans nom 11"/><style>.cls-1{fill:#343443}.cls-6{fill:#fff;opacity:.5}</style></defs><path d="M45.6 60.77v58.71c-7.3 14.53-11.41 30.95-11.41 48.29V60.7c-5.32-4.72-9.05-15.82-9.05-28.82 0-17.26 6.62-23.65 14.83-23.65S54.8 14.62 54.8 31.88c0 13-3.8 24.18-9.2 28.9Z" style="fill:url(#Dégradé_sans_nom_11)"/><path d="M249.27 60.7v107.08c0-17.34-4.11-33.77-11.41-48.29V60.78c-5.4-4.72-9.2-15.89-9.2-28.9 0-17.26 6.69-23.65 14.83-23.65s14.83 6.39 14.83 23.65c0 13-3.73 24.11-9.05 28.82Z" style="fill:url(#Dégradé_sans_nom_11-2)"/><path d="M141.73 217.9c27.76 0 50.19-22.44 50.19-50.12s-22.44-50.19-50.19-50.19-50.19 22.44-50.19 50.19 22.51 50.12 50.19 50.12Zm96.13-98.41c7.3 14.53 11.41 30.95 11.41 48.29 0 59.32-48.14 107.46-107.54 107.46S34.19 227.1 34.19 167.78c0-17.34 4.11-33.77 11.41-48.29 17.72-35.14 54.07-59.24 96.13-59.24s78.41 24.11 96.13 59.24Z" style="fill:url(#Dégradé_sans_nom_11-3)"/><path d="M207.09 146.61c2.38 5.34 3.79 12.4 3.79 21.13 0 21.79-8.77 33.22-19.59 33.22s-19.59-11.43-19.59-33.22c0-8.52 1.76-15.85 4.04-21.13h31.36Z" class="cls-1"/><ellipse cx="188.13" cy="166.54" class="cls-6" rx="4.55" ry="3.13"/><ellipse cx="195.09" cy="156.92" class="cls-6" rx="6.96" ry="6.11"/><path d="M169.06 111.7s.27 15.01 12.74 11.1c13.65-4.28 32.08-9.82 32.08-9.82s-38.62 7.58-44.82-1.28ZM114.41 111.72s-.28 15.01-12.75 11.09c-13.64-4.29-32.08-9.85-32.08-9.85s38.61 7.62 44.82-1.24ZM76.62 146.61c-2.28 5.29-4.04 12.61-4.04 21.13 0 21.79 8.77 33.22 19.59 33.22s19.59-11.43 19.59-33.22c0-8.73-1.41-15.8-3.79-21.13H76.61Z" class="cls-1"/><ellipse cx="89.01" cy="166.54" class="cls-6" rx="4.55" ry="3.13"/><ellipse cx="95.98" cy="156.92" class="cls-6" rx="6.96" ry="6.11"/><path d="M158.8 237.71s-16.08-3.71-34.07 5.19" style="fill:none;stroke:#5c5b72;stroke-linecap:round;stroke-linejoin:round;stroke-width:4px"/></svg>