<svg xmlns="http://www.w3.org/2000/svg" xmlns:xlink="http://www.w3.org/1999/xlink" id="Calque_1" data-name="Calque 1" viewBox="0 0 283.46 283.46"><defs><linearGradient id="Dégradé_sans_nom_11" x1="58.98" x2="219.01" y1="84.94" y2="244.96" data-name="Dégradé sans nom 11" gradientUnits="userSpaceOnUse"><stop offset=".1" stop-color="#5c5b72"/><stop offset=".5" stop-color="#b0b0bf"/><stop offset=".96" stop-color="#f4f4f6"/></linearGradient><linearGradient xlink:href="#Dégradé_sans_nom_11" id="Dégradé_sans_nom_11-2" x1="37.96" x2="236.23" y1="86.05" y2="284.33" data-name="Dégradé sans nom 11"/><linearGradient xlink:href="#Dégradé_sans_nom_11" id="Dégradé_sans_nom_11-3" x1="130.61" x2="327.27" y1="-30.12" y2="166.55" data-name="Dégradé sans nom 11"/><style>.cls-2{fill:#343443}</style></defs><path d="M141.73 217.73c27.7 0 50.08-22.38 50.08-50s-22.38-50.08-50.08-50.08-50.08 22.38-50.08 50.08 22.46 50 50.08 50Zm95.91-98.19c7.28 14.49 11.38 30.88 11.38 48.18 0 59.19-48.03 107.22-107.29 107.22S34.44 226.91 34.44 167.72c0-17.3 4.1-33.69 11.38-48.18 17.68-35.06 53.95-59.11 95.91-59.11s78.23 24.05 95.91 59.11Z" style="fill:url(#Dégradé_sans_nom_11)"/><path d="M77.29 179.63c-.98 2.02-4.07 1.21-3.91-1.03.85-11.56 4.74-25.07 18.28-25.07s18.26 14.39 19.43 26.18c.23 2.3-2.89 3.14-3.93 1.08-2.86-5.61-7.65-10.77-15.62-10.77-7.42 0-11.74 4.47-14.25 9.62ZM176.27 179.63c-.98 2.02-4.07 1.21-3.91-1.03.85-11.56 4.74-25.07 18.28-25.07s18.26 14.39 19.43 26.18c.23 2.3-2.89 3.14-3.93 1.08-2.86-5.61-7.65-10.77-15.62-10.77-7.42 0-11.74 4.47-14.25 9.62Z" class="cls-2"/><path d="M120.22 227.77h43.03s-2.25 17.95-21.52 17.85c-19.64 0-21.52-17.85-21.52-17.85Z" style="fill:#5c5b72"/><path d="M45.82 60.96v58.58c-7.28 14.49-11.38 30.88-11.38 48.18V60.88c-5.31-4.7-9.03-15.78-9.03-28.76 0-17.22 6.6-23.6 14.8-23.6s14.8 6.37 14.8 23.6c0 12.98-3.79 24.13-9.18 28.83Z" style="fill:url(#Dégradé_sans_nom_11-2)"/><path d="M249.03 60.88v106.84c0-17.3-4.1-33.69-11.38-48.18V60.96c-5.39-4.7-9.18-15.86-9.18-28.83 0-17.22 6.68-23.6 14.8-23.6s14.8 6.37 14.8 23.6c0 12.98-3.72 24.05-9.03 28.76Z" style="fill:url(#Dégradé_sans_nom_11-3)"/><path d="M57.66 119.54S43.09 170.96 59 171.91c15.91.94-1.34-52.37-1.34-52.37Z" style="fill:#fff;opacity:.5"/><path d="M173.85 93.78s-8.05 12.62 4.47 16.25c13.7 3.96 32.08 9.51 32.08 9.51s-36.28-14.97-36.55-25.76ZM108.97 93.78s8.05 12.62-4.47 16.25c-13.7 3.96-32.08 9.51-32.08 9.51s36.28-14.97 36.55-25.76Z" class="cls-2"/></svg>