<svg xmlns="http://www.w3.org/2000/svg" xmlns:xlink="http://www.w3.org/1999/xlink" id="Calque_1" data-name="Calque 1" viewBox="0 0 283.46 283.46"><defs><linearGradient id="Dégradé_sans_nom_11" x1="37.72" x2="236.45" y1="85.93" y2="284.65" data-name="Dégradé sans nom 11" gradientUnits="userSpaceOnUse"><stop offset=".1" stop-color="#5c5b72"/><stop offset=".5" stop-color="#b0b0bf"/><stop offset=".96" stop-color="#f4f4f6"/></linearGradient><linearGradient xlink:href="#Dégradé_sans_nom_11" id="Dégradé_sans_nom_11-2" x1="130.58" x2="327.69" y1="-30.51" y2="166.6" data-name="Dégradé sans nom 11"/><linearGradient xlink:href="#Dégradé_sans_nom_11" id="Dégradé_sans_nom_11-3" x1="58.79" x2="219.19" y1="84.81" y2="245.2" data-name="Dégradé sans nom 11"/><style>.cls-3{fill:#343443}.cls-7{fill:#fff;opacity:.5}</style></defs><path d="M243.49 8.22c-8.14 0-14.83 6.39-14.83 23.65 0 13 3.8 24.18 9.2 28.9v58.71c-17.72-35.14-54.07-59.24-96.13-59.24S63.32 84.35 45.6 119.48V60.77c5.4-4.72 9.2-15.89 9.2-28.9 0-17.26-6.62-23.65-14.83-23.65s-14.83 6.39-14.83 23.65c0 13 3.73 24.11 9.05 28.82v107.08c0 59.32 48.14 107.46 107.54 107.46s107.54-48.14 107.54-107.46V60.7c5.32-4.72 9.05-15.82 9.05-28.82 0-17.26-6.62-23.65-14.83-23.65ZM141.73 217.89c-16.47 0-31.11-7.95-40.27-20.21 6.14-4.82 10.31-14.92 10.31-29.94s-4.17-25.11-10.3-29.94c9.16-12.28 23.79-20.22 40.26-20.22s31.13 7.94 40.28 20.21c-6.14 4.82-10.31 14.92-10.31 29.95s4.18 25.13 10.32 29.95c-9.14 12.26-23.77 20.2-40.28 20.2Z" style="fill:none"/><path d="M45.6 60.77v58.71c-7.3 14.53-11.41 30.95-11.41 48.29V60.7c-5.32-4.72-9.05-15.82-9.05-28.82 0-17.26 6.62-23.65 14.83-23.65S54.8 14.62 54.8 31.88c0 13-3.8 24.18-9.2 28.9Z" style="fill:url(#Dégradé_sans_nom_11)"/><path d="M249.27 60.7v107.08c0-17.34-4.11-33.77-11.41-48.29V60.78c-5.4-4.72-9.2-15.89-9.2-28.9 0-17.26 6.69-23.65 14.83-23.65s14.83 6.39 14.83 23.65c0 13-3.73 24.11-9.05 28.82Z" style="fill:url(#Dégradé_sans_nom_11-2)"/><path d="M141.73 217.9c27.76 0 50.19-22.44 50.19-50.12s-22.44-50.19-50.19-50.19-50.19 22.44-50.19 50.19 22.51 50.12 50.19 50.12Zm96.13-98.41c7.3 14.53 11.41 30.95 11.41 48.29 0 59.32-48.14 107.46-107.54 107.46S34.19 227.1 34.19 167.78c0-17.34 4.11-33.77 11.41-48.29 17.72-35.14 54.07-59.24 96.13-59.24s78.41 24.11 96.13 59.24Z" style="fill:url(#Dégradé_sans_nom_11-3)"/><ellipse cx="191.29" cy="167.74" class="cls-3" rx="19.59" ry="33.22"/><ellipse cx="186.61" cy="158.97" class="cls-7" rx="4.55" ry="3.13"/><ellipse cx="193.57" cy="149.36" class="cls-7" rx="6.96" ry="6.11"/><ellipse cx="92.17" cy="167.74" class="cls-3" rx="19.59" ry="33.22"/><ellipse cx="87.48" cy="158.97" class="cls-7" rx="4.55" ry="3.13"/><ellipse cx="94.44" cy="149.36" class="cls-7" rx="6.96" ry="6.11"/><path d="M120.17 227.99h43.13s-2.26 17.99-21.56 17.89c-19.68 0-21.56-17.89-21.56-17.89Z" style="fill:#5c5b72"/><path d="M171.7 99.69s18.03-7.62 39.19 17.89c0 0-13.54-25.18-24.28-26.84-10.02-1.55-14.91 8.95-14.91 8.95ZM111.77 99.69s-18.03-7.62-39.19 17.89c0 0 13.54-25.18 24.28-26.84 10.02-1.55 14.91 8.95 14.91 8.95Z" class="cls-3"/></svg>