<svg xmlns="http://www.w3.org/2000/svg" xmlns:xlink="http://www.w3.org/1999/xlink" id="Calque_1" data-name="Calque 1" viewBox="0 0 283.46 283.46"><defs><linearGradient id="Dégradé_sans_nom_11" x1="37.72" x2="236.45" y1="85.93" y2="284.65" data-name="Dégradé sans nom 11" gradientUnits="userSpaceOnUse"><stop offset=".1" stop-color="#5c5b72"/><stop offset=".5" stop-color="#b0b0bf"/><stop offset=".96" stop-color="#f4f4f6"/></linearGradient><linearGradient xlink:href="#Dégradé_sans_nom_11" id="Dégradé_sans_nom_11-2" x1="130.58" x2="327.69" y1="-30.51" y2="166.6" data-name="Dégradé sans nom 11"/><linearGradient xlink:href="#Dégradé_sans_nom_11" id="Dégradé_sans_nom_11-3" x1="58.79" x2="219.19" y1="84.81" y2="245.2" data-name="Dégradé sans nom 11"/><radialGradient id="Dégradé_sans_nom_47" cx="191.29" cy="9245.51" r="24.5" data-name="Dégradé sans nom 47" fx="191.29" fy="9245.51" gradientTransform="matrix(1 0 0 .29 0 -2472.41)" gradientUnits="userSpaceOnUse"><stop offset=".27" stop-color="#cd3131" stop-opacity=".7"/><stop offset="1" stop-color="#cd3131" stop-opacity="0"/></radialGradient><radialGradient xlink:href="#Dégradé_sans_nom_47" id="Dégradé_sans_nom_47-2" cx="-10817.12" cy="9245.51" r="24.5" data-name="Dégradé sans nom 47" fx="-10817.12" fy="9245.51" gradientTransform="matrix(-1 0 0 .29 -10724.94 -2472.41)"/><style>.cls-1{fill:#cd3131}.cls-3{fill:#343443}.cls-7{opacity:.5;fill:#fff}</style></defs><path d="M45.6 60.77v58.71c-7.3 14.53-11.41 30.95-11.41 48.29V60.7c-5.32-4.72-9.05-15.82-9.05-28.82 0-17.26 6.62-23.65 14.83-23.65S54.8 14.62 54.8 31.88c0 13-3.8 24.18-9.2 28.9Z" style="fill:url(#Dégradé_sans_nom_11)"/><path d="M249.27 60.7v107.08c0-17.34-4.11-33.77-11.41-48.29V60.78c-5.4-4.72-9.2-15.89-9.2-28.9 0-17.26 6.69-23.65 14.83-23.65s14.83 6.39 14.83 23.65c0 13-3.73 24.11-9.05 28.82Z" style="fill:url(#Dégradé_sans_nom_11-2)"/><path d="M141.73 217.9c27.76 0 50.19-22.44 50.19-50.12s-22.44-50.19-50.19-50.19-50.19 22.44-50.19 50.19 22.51 50.12 50.19 50.12Zm96.13-98.41c7.3 14.53 11.41 30.95 11.41 48.29 0 59.32-48.14 107.46-107.54 107.46S34.19 227.1 34.19 167.78c0-17.34 4.11-33.77 11.41-48.29 17.72-35.14 54.07-59.24 96.13-59.24s78.41 24.11 96.13 59.24Z" style="fill:url(#Dégradé_sans_nom_11-3)"/><path d="M120.17 227.99h43.13s-2.26 29.74-21.56 29.64c-19.68 0-21.56-29.64-21.56-29.64Z" style="fill:#5c5b72"/><path d="M172.26 95.79s18.72-5.71 37.13 21.85c0 0-10.86-26.45-21.37-29.21-9.8-2.57-15.76 7.36-15.76 7.36ZM111.2 95.77s-18.73-5.7-37.1 21.89c0 0 10.83-26.46 21.34-29.23 9.8-2.58 15.76 7.34 15.76 7.34Z" class="cls-3"/><ellipse cx="191.29" cy="213.95" rx="24.5" ry="7.12" style="fill:url(#Dégradé_sans_nom_47);opacity:.5"/><ellipse cx="92.17" cy="213.95" rx="24.5" ry="7.12" style="opacity:.5;fill:url(#Dégradé_sans_nom_47-2)"/><path d="M98.62 197.52s31.05-21.23 27.25-43.67c-4.31-25.53-37.42-16.51-34.54.54-2.88-17.04-37.12-14.68-32.8 10.84 3.79 22.44 40.09 32.29 40.09 32.29Z" class="cls-1"/><path d="M74.44 151.95c-2.25-2.27-5.99-1.92-7.8.71-1.23 1.79-2.32 4.22-2.64 7.4-.84 8.38 5.4 17.29 14.67 20.83 0 0-12.48-10.54-3.76-22.35 1.49-2.02 1.3-4.82-.46-6.6Z" class="cls-7"/><path d="M184.85 197.52s-31.05-21.23-27.25-43.67c4.31-25.53 37.42-16.51 34.54.54 2.88-17.04 37.12-14.68 32.8 10.84-3.79 22.44-40.09 32.29-40.09 32.29Z" class="cls-1"/><path d="M179.54 147.75c-1.09-3-4.64-4.25-7.39-2.61-1.87 1.11-3.87 2.86-5.49 5.62-4.27 7.26-2.32 17.97 4.62 25.06 0 0-6.94-14.79 5.92-21.87a5.09 5.09 0 0 0 2.34-6.19Z" class="cls-7"/></svg>