<svg xmlns="http://www.w3.org/2000/svg" xmlns:xlink="http://www.w3.org/1999/xlink" id="Calque_1" data-name="Calque 1" viewBox="0 0 283.46 283.46"><defs><linearGradient id="Dégradé_sans_nom_11" x1="48.69" x2="226.78" y1="74.6" y2="252.68" data-name="Dégradé sans nom 11" gradientUnits="userSpaceOnUse"><stop offset=".1" stop-color="#5c5b72"/><stop offset=".5" stop-color="#b0b0bf"/><stop offset=".96" stop-color="#f4f4f6"/></linearGradient><linearGradient xlink:href="#Dégradé_sans_nom_11" id="Dégradé_sans_nom_11-2" x1="38.15" x2="236.06" y1="86.14" y2="284.05" data-name="Dégradé sans nom 11"/><linearGradient xlink:href="#Dégradé_sans_nom_11" id="Dégradé_sans_nom_11-3" x1="130.63" x2="326.93" y1="-29.82" y2="166.48" data-name="Dégradé sans nom 11"/><style>.cls-2{fill:#343443}.cls-6{fill:#fff;opacity:.5}</style></defs><path d="M141.75 102.97c-27.65 0-49.99 17.83-49.99 39.82s22.34 39.89 49.99 39.89 49.99-17.83 49.99-39.89-22.42-39.82-49.99-39.82ZM46.01 215.71c-7.27-14.47-11.36-30.83-11.36-48.09 0-59.08 47.94-107.02 107.1-107.02s107.1 47.94 107.1 107.02c0 17.27-4.09 33.63-11.36 48.09-17.65 34.99-53.85 59-95.74 59s-78.09-24.01-95.74-59Z" style="fill:url(#Dégradé_sans_nom_11)"/><path d="M46 61.09v58.47c-7.27 14.47-11.36 30.83-11.36 48.09V61.01c-5.3-4.7-9.01-15.75-9.01-28.71 0-17.19 6.59-23.55 14.77-23.55s14.77 6.36 14.77 23.55c0 12.95-3.79 24.09-9.16 28.78Z" style="fill:url(#Dégradé_sans_nom_11-2)"/><path d="M248.83 61.01v106.64c0-17.27-4.09-33.63-11.36-48.09V61.09c-5.38-4.7-9.16-15.83-9.16-28.78 0-17.19 6.67-23.55 14.77-23.55s14.77 6.36 14.77 23.55c0 12.95-3.71 24.01-9.01 28.71Z" style="fill:url(#Dégradé_sans_nom_11-3)"/><path d="M120.26 191.26h42.95s-.91 33.28-21.48 33.28-21.48-33.28-21.48-33.28Z" style="fill:#5c5b72"/><path d="M201.74 167.65c5.33-5.18 8.86-14.81 8.86-28.59 0-21.7-8.74-33.08-19.51-33.08s-19.51 11.38-19.51 33.08c0 13.56 3.41 23.1 8.6 28.34 0 0 11-4.41 21.56.25Z" class="cls-2"/><ellipse cx="186.42" cy="130.32" class="cls-6" rx="4.54" ry="3.12"/><ellipse cx="193.36" cy="120.75" class="cls-6" rx="6.93" ry="6.09"/><path d="M102.94 167.65c5.33-5.18 8.86-14.81 8.86-28.59 0-21.7-8.74-33.08-19.51-33.08s-19.51 11.38-19.51 33.08c0 13.56 3.41 23.1 8.6 28.34 0 0 11-4.41 21.56.25Z" class="cls-2"/><ellipse cx="87.62" cy="130.32" class="cls-6" rx="4.54" ry="3.12"/><ellipse cx="94.55" cy="120.75" class="cls-6" rx="6.93" ry="6.09"/><path d="M171.57 73.14s17.95-6.42 39.03 15.07c0 0-13.48-21.21-24.18-22.6-9.98-1.3-14.85 7.53-14.85 7.53ZM111.8 73.14s-17.95-6.42-39.03 15.07c0 0 13.48-21.21 24.18-22.6 9.98-1.3 14.85 7.53 14.85 7.53Z" class="cls-2"/></svg>