<svg xmlns="http://www.w3.org/2000/svg" xmlns:xlink="http://www.w3.org/1999/xlink" id="Calque_1" data-name="Calque 1" viewBox="0 0 283.46 283.46"><defs><linearGradient id="Dégradé_sans_nom_11" x1="48.68" x2="226.76" y1="74.6" y2="252.68" data-name="Dégradé sans nom 11" gradientUnits="userSpaceOnUse"><stop offset=".1" stop-color="#5c5b72"/><stop offset=".5" stop-color="#b0b0bf"/><stop offset=".96" stop-color="#f4f4f6"/></linearGradient><linearGradient xlink:href="#Dégradé_sans_nom_11" id="Dégradé_sans_nom_11-2" x1="38.13" x2="236.04" y1="86.14" y2="284.05" data-name="Dégradé sans nom 11"/><linearGradient xlink:href="#Dégradé_sans_nom_11" id="Dégradé_sans_nom_11-3" x1="130.61" x2="326.91" y1="-29.82" y2="166.48" data-name="Dégradé sans nom 11"/><style>.cls-1{fill:#64c5ed}.cls-3{fill:#343443}</style></defs><path d="M141.73 102.97c-27.65 0-49.99 17.83-49.99 39.82s22.34 39.89 49.99 39.89 49.99-17.83 49.99-39.89-22.42-39.82-49.99-39.82ZM45.99 215.71c-7.27-14.47-11.36-30.83-11.36-48.09 0-59.08 47.94-107.02 107.1-107.02s107.1 47.94 107.1 107.02c0 17.27-4.09 33.63-11.36 48.09-17.65 34.99-53.85 59-95.74 59s-78.09-24.01-95.74-59Z" style="fill:url(#Dégradé_sans_nom_11)"/><path d="M45.98 61.09v58.47c-7.27 14.47-11.36 30.83-11.36 48.09V61.01c-5.3-4.7-9.01-15.75-9.01-28.71 0-17.19 6.59-23.55 14.77-23.55s14.77 6.36 14.77 23.55c0 12.95-3.79 24.09-9.16 28.78Z" style="fill:url(#Dégradé_sans_nom_11-2)"/><path d="M248.81 61.01v106.64c0-17.27-4.09-33.63-11.36-48.09V61.09c-5.38-4.7-9.16-15.83-9.16-28.78 0-17.19 6.67-23.55 14.77-23.55s14.77 6.36 14.77 23.55c0 12.95-3.71 24.01-9.01 28.71Z" style="fill:url(#Dégradé_sans_nom_11-3)"/><path d="M120.24 191.26h42.95s-.91 33.28-21.48 33.28-21.48-33.28-21.48-33.28Z" style="fill:#5c5b72"/><path d="M77.29 145.33c-.98 2.02-4.07 1.21-3.91-1.03.85-11.56 4.74-25.07 18.28-25.07s18.26 14.39 19.43 26.18c.23 2.3-2.89 3.14-3.93 1.08-2.86-5.61-7.65-10.77-15.62-10.77-7.42 0-11.74 4.47-14.25 9.62ZM176.27 145.33c-.98 2.02-4.07 1.21-3.91-1.03.85-11.56 4.74-25.07 18.28-25.07s18.26 14.39 19.43 26.18c.23 2.3-2.89 3.14-3.93 1.08-2.86-5.61-7.65-10.77-15.62-10.77-7.42 0-11.74 4.47-14.25 9.62ZM176.21 58.32s-9.78 11.39 2.14 16.76c13.04 5.87 30.5 13.98 30.5 13.98s-33.9-20-32.64-30.75ZM107.11 58.27s9.81 11.36-2.08 16.77c-13.02 5.92-30.45 14.09-30.45 14.09s33.83-20.11 32.54-30.86Z" class="cls-3"/><path d="M218.78 151.91s63.74 7.13 50.43 29.28c-13.31 22.14-50.43-29.28-50.43-29.28ZM237.73 141.16s33.21-24.17 36.49-7.95c3.28 16.22-36.49 7.95-36.49 7.95ZM64.69 151.91s-63.74 7.13-50.43 29.28c13.31 22.14 50.43-29.28 50.43-29.28ZM45.74 141.16s-33.21-24.17-36.49-7.95c-3.28 16.22 36.49 7.95 36.49 7.95Z" class="cls-1"/></svg>