<svg xmlns="http://www.w3.org/2000/svg" xmlns:xlink="http://www.w3.org/1999/xlink" id="Calque_1" data-name="Calque 1" viewBox="0 0 283.46 283.46"><defs><linearGradient id="Dégradé_sans_nom_11" x1="58.75" x2="219.22" y1="60.46" y2="220.93" data-name="Dégradé sans nom 11" gradientUnits="userSpaceOnUse"><stop offset=".1" stop-color="#5c5b72"/><stop offset=".5" stop-color="#b0b0bf"/><stop offset=".96" stop-color="#f4f4f6"/></linearGradient><linearGradient xlink:href="#Dégradé_sans_nom_11" id="Dégradé_sans_nom_11-2" x1="37.47" x2="174.62" y1="86.09" y2="223.23" data-name="Dégradé sans nom 11"/><linearGradient xlink:href="#Dégradé_sans_nom_11" id="Dégradé_sans_nom_11-3" x1="164.09" x2="304.25" y1="3.31" y2="143.47" data-name="Dégradé sans nom 11"/><style>.cls-1{fill:#64c5ed}.cls-2{fill:#343443}.cls-7{fill:#fff;opacity:.5}</style></defs><path d="M141.73 216.32c27.77 0 50.22-16.72 50.22-37.35s-22.45-37.4-50.22-37.4-50.22 16.72-50.22 37.4 22.52 37.35 50.22 37.35Zm96.18-121.17c7.3 14.53 11.41 30.97 11.41 48.32 0 59.35-48.16 107.51-107.59 107.51S34.14 202.82 34.14 143.47c0-17.35 4.11-33.78 11.41-48.32C63.28 60 99.65 35.88 141.73 35.88S220.18 60 237.91 95.15Z" style="fill:url(#Dégradé_sans_nom_11)"/><path d="M210.92 178.95c0 21.8-8.78 33.24-19.6 33.24-10.83 0-19.6-11.43-19.6-33.24 0-5.75.61-10.77 1.71-15.06 0 0 21.03 8.32 37.5 15.06ZM72.55 178.95c0 21.8 8.78 33.24 19.6 33.24 10.83 0 19.6-11.43 19.6-33.24 0-5.75-.61-10.77-1.71-15.06 0 0-18.53 7.61-37.5 15.06Z" class="cls-2"/><ellipse cx="85.94" cy="199.65" class="cls-7" rx="5.4" ry="4.26"/><path d="M107.52 185.92c0 5.23-4.83 9.48-10.79 9.48-5.96 0-10.79-4.24-10.79-9.48s4.83-9.48 10.79-9.48 10.79 4.24 10.79 9.48Z" class="cls-7"/><ellipse cx="185.11" cy="199.65" class="cls-7" rx="5.4" ry="4.26"/><ellipse cx="195.89" cy="185.92" class="cls-7" rx="10.79" ry="9.48"/><path d="M132.2 235.98s0-10.65 9.53-10.65 9.57 10.65 9.57 10.65" style="fill:none;stroke:#5c5b72;stroke-linecap:round;stroke-linejoin:round;stroke-width:4px"/><path d="M99.72 209.36s-1.04.83-7.6.05c-6.56-.77-9.81-5.6-12.83-2.83-3.03 2.77-1.08 9.38 8.75 10.07 15.07 1.06 16.52-7.89 11.69-7.29ZM183.74 209.36s1.04.83 7.6.05 9.81-5.6 12.83-2.83c3.03 2.77 1.08 9.38-8.75 10.07-15.07 1.06-16.52-7.89-11.69-7.29ZM200.69 218.45s-6.9 20.81 0 20.81 0-20.81 0-20.81ZM92.15 228.94s-6.9 20.81 0 20.81 0-20.81 0-20.81Z" class="cls-1"/><path d="M45.56 86.64v8.51c-7.3 14.53-11.41 30.97-11.41 48.32v-56.9c-5.33-4.34-9.05-17.33-9.05-29.31 0-15.9 6.62-24.79 14.84-24.79s14.84 8.88 14.84 24.79c0 11.98-3.8 25.03-9.21 29.38Z" style="fill:url(#Dégradé_sans_nom_11-2)"/><path d="M249.32 86.57v56.9c0-17.35-4.11-33.78-11.41-48.32v-8.51c-5.4-4.34-9.21-17.4-9.21-29.38 0-15.9 6.7-24.79 14.84-24.79s14.84 8.88 14.84 24.79c0 11.98-3.73 24.96-9.05 29.31Z" style="fill:url(#Dégradé_sans_nom_11-3)"/><path d="M174.26 130.75s-8.07 12.66 4.49 16.29c13.74 3.97 32.17 9.54 32.17 9.54s-36.38-15.01-36.66-25.83ZM109.2 130.75s8.07 12.66-4.49 16.29c-13.74 3.97-32.17 9.54-32.17 9.54s36.38-15.01 36.66-25.83Z" class="cls-2"/></svg>