<svg xmlns="http://www.w3.org/2000/svg" xmlns:xlink="http://www.w3.org/1999/xlink" id="Calque_1" data-name="Calque 1" viewBox="0 0 283.46 283.46"><defs><linearGradient id="Dégradé_sans_nom_11" x1="37.72" x2="236.45" y1="85.93" y2="284.65" data-name="Dégradé sans nom 11" gradientUnits="userSpaceOnUse"><stop offset=".1" stop-color="#5c5b72"/><stop offset=".5" stop-color="#b0b0bf"/><stop offset=".96" stop-color="#f4f4f6"/></linearGradient><linearGradient xlink:href="#Dégradé_sans_nom_11" id="Dégradé_sans_nom_11-2" x1="130.58" x2="327.69" y1="-30.51" y2="166.6" data-name="Dégradé sans nom 11"/><linearGradient xlink:href="#Dégradé_sans_nom_11" id="Dégradé_sans_nom_11-3" x1="58.79" x2="219.19" y1="84.81" y2="245.2" data-name="Dégradé sans nom 11"/><style>.cls-2{fill:#343443}.cls-6{fill:#fff;stroke:#343443;stroke-miterlimit:10;stroke-width:1.1px}</style></defs><path d="M45.6 60.77v58.71c-7.3 14.53-11.41 30.95-11.41 48.29V60.7c-5.32-4.72-9.05-15.82-9.05-28.82 0-17.26 6.62-23.65 14.83-23.65S54.8 14.62 54.8 31.88c0 13-3.8 24.18-9.2 28.9Z" style="fill:url(#Dégradé_sans_nom_11)"/><path d="M249.27 60.7v107.08c0-17.34-4.11-33.77-11.41-48.29V60.78c-5.4-4.72-9.2-15.89-9.2-28.9 0-17.26 6.69-23.65 14.83-23.65s14.83 6.39 14.83 23.65c0 13-3.73 24.11-9.05 28.82Z" style="fill:url(#Dégradé_sans_nom_11-2)"/><path d="M141.73 217.9c27.76 0 50.19-22.44 50.19-50.12s-22.44-50.19-50.19-50.19-50.19 22.44-50.19 50.19 22.51 50.12 50.19 50.12Zm96.13-98.41c7.3 14.53 11.41 30.95 11.41 48.29 0 59.32-48.14 107.46-107.54 107.46S34.19 227.1 34.19 167.78c0-17.34 4.11-33.77 11.41-48.29 17.72-35.14 54.07-59.24 96.13-59.24s78.41 24.11 96.13 59.24Z" style="fill:url(#Dégradé_sans_nom_11-3)"/><ellipse cx="191.29" cy="167.74" class="cls-6" rx="21.55" ry="36.54"/><ellipse cx="92.17" cy="167.74" class="cls-6" rx="21.55" ry="36.54"/><path d="M171.7 83.61s18.03-7.62 39.19 17.89c0 0-13.54-25.18-24.28-26.84-10.02-1.55-14.91 8.95-14.91 8.95Z" class="cls-2"/><path d="M151.24 248.34c0-11.64-4.26-13.14-9.51-13.14s-9.51 1.5-9.51 13.14 4.26 21.07 9.51 21.07 9.51-9.44 9.51-21.07Z" style="fill:#5c5b72"/><path d="M111.77 83.61s-18.03-7.62-39.19 17.89c0 0 13.54-25.18 24.28-26.84 10.02-1.55 14.91 8.95 14.91 8.95Z" class="cls-2"/></svg>