<svg xmlns="http://www.w3.org/2000/svg" xmlns:xlink="http://www.w3.org/1999/xlink" id="Calque_1" data-name="Calque 1" viewBox="0 0 283.46 283.46"><defs><linearGradient id="Dégradé_sans_nom_5" x1="141.73" x2="141.73" y1="219.96" y2="36.13" data-name="Dégradé sans nom 5" gradientUnits="userSpaceOnUse"><stop offset=".1" stop-color="#b0b0bf"/><stop offset=".5" stop-color="#b0b0bf"/><stop offset=".96" stop-color="#5c5b72"/></linearGradient><linearGradient xlink:href="#Dégradé_sans_nom_5" id="Dégradé_sans_nom_5-2" x1="40.21" x2="40.21" y1="219.96" y2="36.13" data-name="Dégradé sans nom 5"/><linearGradient xlink:href="#Dégradé_sans_nom_5" id="Dégradé_sans_nom_5-3" x1="243.25" x2="243.25" y1="219.96" y2="36.13" data-name="Dégradé sans nom 5"/><style>.cls-1{fill:#343443}.cls-2{fill:none;stroke:#5c5b72;stroke-linecap:round;stroke-linejoin:round;stroke-width:4px}.cls-6{fill:#fff;opacity:.5}</style></defs><path d="M141.73 208.23c27.69 0 50.08-17.86 50.08-39.89s-22.38-39.96-50.08-39.96-50.08 17.86-50.08 39.96 22.46 39.89 50.08 39.89Zm95.9-112.94c7.28 14.49 11.38 30.88 11.38 48.18 0 59.18-48.03 107.21-107.28 107.21S34.45 202.65 34.45 143.47c0-17.3 4.1-33.69 11.38-48.18 17.68-35.05 53.95-59.1 95.9-59.1s78.22 24.05 95.9 59.1Z" style="fill:url(#Dégradé_sans_nom_5)"/><path d="M207.66 148.56c2.03 5.15 3.21 11.75 3.21 19.74 0 9.5-1.67 17.03-4.45 22.5-14.61-9.04-30.47-.34-30.47-.34-2.67-5.44-4.27-12.86-4.27-22.16 0-14.26 3.76-24.09 9.39-29.17 0 0 12.48 4.6 26.59 9.43Z" class="cls-1"/><ellipse cx="186.59" cy="164.47" class="cls-6" rx="4.55" ry="3.13"/><ellipse cx="193.55" cy="154.86" class="cls-6" rx="6.96" ry="6.11"/><path d="M103.69 196.15c4.89-5.38 8.06-14.74 8.06-27.84 0-7.31-.99-13.45-2.71-18.39l-31.64-4.87c-3.02 5.53-4.84 13.31-4.84 23.26 0 12.69 2.97 21.87 7.6 27.32 0 0 11.5-3.75 23.53.53" class="cls-1"/><ellipse cx="87.46" cy="168.14" class="cls-6" rx="4.55" ry="3.13"/><ellipse cx="94.42" cy="158.53" class="cls-6" rx="6.96" ry="6.11"/><path d="M176.84 76.55s-9.78 11.39 2.14 16.76c13.04 5.87 30.5 13.98 30.5 13.98s-33.9-20-32.64-30.75ZM113.56 120.21s3.36 14.63-9.69 13.84c-14.28-.86-33.51-1.8-33.51-1.8s39.31-1.94 43.19-12.04Z" class="cls-1"/><path d="M45.83 86.8v8.49c-7.28 14.49-11.38 30.88-11.38 48.18V86.73c-5.31-4.33-9.03-17.28-9.03-29.22 0-15.86 6.6-24.72 14.8-24.72s14.8 8.86 14.8 24.72c0 11.95-3.79 24.96-9.18 29.29Z" style="fill:url(#Dégradé_sans_nom_5-2)"/><path d="M249.02 86.73v56.74c0-17.3-4.1-33.69-11.38-48.18V86.8c-5.39-4.33-9.18-17.35-9.18-29.29 0-15.86 6.68-24.72 14.8-24.72s14.8 8.86 14.8 24.72c0 11.95-3.72 24.89-9.03 29.22Z" style="fill:url(#Dégradé_sans_nom_5-3)"/><path d="M160.02 215.81c-3.5 2.4-7 6.27-7 12.17s3.5 9.27 7 11.16M123.44 215.81c3.5 2.4 7 6.27 7 12.17s-3.5 9.27-7 11.16M130.45 227.81h22.57" class="cls-2"/></svg>