<svg xmlns="http://www.w3.org/2000/svg" xmlns:xlink="http://www.w3.org/1999/xlink" id="Calque_1" data-name="Calque 1" viewBox="0 0 283.46 283.46"><defs><linearGradient id="Dégradé_sans_nom_11" x1="58.74" x2="219.21" y1="60.47" y2="220.94" data-name="Dégradé sans nom 11" gradientUnits="userSpaceOnUse"><stop offset=".1" stop-color="#5c5b72"/><stop offset=".5" stop-color="#b0b0bf"/><stop offset=".96" stop-color="#f4f4f6"/></linearGradient><linearGradient xlink:href="#Dégradé_sans_nom_11" id="Dégradé_sans_nom_11-2" x1="37.47" x2="174.62" y1="86.09" y2="223.23" data-name="Dégradé sans nom 11"/><linearGradient xlink:href="#Dégradé_sans_nom_11" id="Dégradé_sans_nom_11-3" x1="163.94" x2="304.1" y1="3.46" y2="143.62" data-name="Dégradé sans nom 11"/><linearGradient xlink:href="#Dégradé_sans_nom_11" id="Dégradé_sans_nom_11-4" x1="245.52" x2="261.23" y1="44.51" y2="60.22" data-name="Dégradé sans nom 11"/><style>.cls-1{fill:#5c5b72}.cls-2{fill:#343443}</style></defs><path d="M220.72 84.78H203.1a2.58 2.58 0 0 1-2.58-2.58v-1.68c0-.59.2-1.15.56-1.61l14.55-18.22h-12.15a2.58 2.58 0 0 1-2.58-2.58v-.02a2.58 2.58 0 0 1 2.58-2.58h17.2a2.58 2.58 0 0 1 2.58 2.58v1.42c0 .58-.2 1.15-.56 1.61l-14.75 18.5h12.77a2.58 2.58 0 1 1 0 5.16Z" class="cls-1"/><path d="M237.91 95.16a108.286 108.286 0 0 0-18.75-26.39l-7.06 8.85h8.62c2.53 0 4.58 2.06 4.58 4.58s-2.06 4.58-4.58 4.58H203.1c-2.53 0-4.58-2.06-4.58-4.58v-1.68c0-1.03.36-2.05 1-2.86l11.96-14.97h-8c-2.53 0-4.58-2.06-4.58-4.6 0-1.81 1.06-3.36 2.58-4.1-17.09-11.43-37.63-18.11-59.75-18.11-42.08 0-78.45 24.12-96.18 59.27-7.3 14.53-11.41 30.97-11.41 48.32 0 59.35 48.16 107.51 107.59 107.51s107.59-48.16 107.59-107.51c0-17.35-4.11-33.78-11.41-48.32Zm-96.18 121.17c-27.7 0-50.22-16.72-50.22-37.35s22.52-37.4 50.22-37.4 50.22 16.72 50.22 37.4-22.45 37.35-50.22 37.35Zm52.38-115.79h-10.58a3.55 3.55 0 0 1-3.55-3.55v-1.01c0-.8.28-1.59.78-2.22l6.15-7.7h-3.15c-1.96 0-3.55-1.59-3.55-3.56s1.59-3.55 3.55-3.55h10.33a3.55 3.55 0 0 1 3.55 3.55v.85c0 .8-.28 1.59-.77 2.21l-6.27 7.87h3.52a3.55 3.55 0 0 1 0 7.1Z" style="fill:url(#Dégradé_sans_nom_11)"/><path d="M45.56 86.64v8.51c-7.3 14.53-11.41 30.97-11.41 48.32v-56.9c-5.33-4.34-9.05-17.33-9.05-29.31 0-15.9 6.62-24.79 14.84-24.79s14.84 8.88 14.84 24.79c0 11.98-3.8 25.03-9.21 29.38Z" style="fill:url(#Dégradé_sans_nom_11-2)"/><path d="M206.18 176.15c.98-2.02 4.07-1.21 3.91 1.03-.85 11.56-4.74 25.07-18.28 25.07-13.97 0-18.26-14.39-19.43-26.18-.23-2.3 2.89-3.14 3.93-1.08 2.86 5.61 7.65 10.77 15.62 10.77 7.42 0 11.74-4.47 14.25-9.62ZM107.19 176.15c.98-2.02 4.07-1.21 3.91 1.03-.85 11.56-4.74 25.07-18.28 25.07-13.97 0-18.26-14.39-19.43-26.18-.23-2.3 2.89-3.14 3.93-1.08 2.86 5.61 7.65 10.77 15.62 10.77 7.42 0 11.74-4.47 14.25-9.62Z" class="cls-2"/><ellipse cx="141.73" cy="233.46" class="cls-1" rx="6.33" ry="6.14"/><path d="M172.62 125.84s18.72-5.71 37.13 21.85c0 0-10.86-26.45-21.37-29.21-9.8-2.57-15.76 7.36-15.76 7.36ZM111.57 125.82s-18.73-5.7-37.1 21.89c0 0 10.83-26.46 21.34-29.23 9.8-2.58 15.76 7.34 15.76 7.34Z" class="cls-2"/><path d="M194.11 98.53h-10.58c-.86 0-1.55-.69-1.55-1.55v-1.01c0-.35.12-.69.34-.97l8.74-10.95h-7.3c-.86 0-1.55-.69-1.55-1.55 0-.87.69-1.56 1.55-1.56h10.33c.86 0 1.55.69 1.55 1.55v.85c0 .35-.12.69-.34.97l-8.86 11.11h7.67c.86 0 1.55.69 1.55 1.55 0 .86-.69 1.55-1.55 1.55ZM262.42 66.77h-26.74a3.92 3.92 0 0 1-3.92-3.92V60.3c0-.89.3-1.75.86-2.45l22.09-27.66h-18.45a3.92 3.92 0 0 1-3.92-3.92v-.03a3.92 3.92 0 0 1 3.92-3.92h26.11a3.92 3.92 0 0 1 3.92 3.92v2.16c0 .89-.3 1.75-.85 2.44l-22.39 28.08h19.39a3.92 3.92 0 1 1 0 7.84Z" class="cls-1"/><path d="M235.67 68.77c-3.26 0-5.92-2.66-5.92-5.92V60.3c0-1.34.46-2.65 1.29-3.69L249.09 34c-1.72-1-3.59-1.52-5.56-1.52-8.14 0-14.84 8.88-14.84 24.79 0 11.98 3.8 25.03 9.21 29.38v8.51c7.3 14.53 11.41 30.97 11.41 48.32v-56.9c3.62-2.95 6.5-9.9 7.97-17.81h-21.62Z" style="fill:url(#Dégradé_sans_nom_11-3)"/><path d="m256.73 44.96-9.54 11.97h11.18c-.03-4.61-.62-8.61-1.64-11.97Z" style="fill:url(#Dégradé_sans_nom_11-4)"/></svg>