<svg xmlns="http://www.w3.org/2000/svg" xmlns:xlink="http://www.w3.org/1999/xlink" id="Calque_1" data-name="Calque 1" viewBox="0 0 283.46 283.46"><defs><linearGradient id="Dégradé_sans_nom_11" x1="37.31" x2="174.67" y1="86" y2="223.36" data-name="Dégradé sans nom 11" gradientUnits="userSpaceOnUse"><stop offset=".1" stop-color="#5c5b72"/><stop offset=".5" stop-color="#b0b0bf"/><stop offset=".96" stop-color="#f4f4f6"/></linearGradient><linearGradient xlink:href="#Dégradé_sans_nom_11" id="Dégradé_sans_nom_11-2" x1="164.13" x2="304.51" y1="3.09" y2="143.47" data-name="Dégradé sans nom 11"/><linearGradient xlink:href="#Dégradé_sans_nom_11" id="Dégradé_sans_nom_11-3" x1="58.62" x2="219.35" y1="60.33" y2="221.05" data-name="Dégradé sans nom 11"/><style>.cls-1{fill:#343443}.cls-6{fill:#fff;opacity:.5}</style></defs><path d="M45.4 86.56v8.53c-7.32 14.56-11.43 31.02-11.43 48.39V86.49c-5.33-4.35-9.07-17.35-9.07-29.35 0-15.93 6.63-24.83 14.86-24.83s14.86 8.9 14.86 24.83c0 12-3.81 25.07-9.22 29.42Z" style="fill:url(#Dégradé_sans_nom_11)"/><path d="M249.49 86.49v56.99c0-17.38-4.12-33.84-11.43-48.39v-8.53c-5.41-4.35-9.22-17.42-9.22-29.42 0-15.93 6.71-24.83 14.86-24.83s14.86 8.9 14.86 24.83c0 12-3.73 25-9.07 29.35Z" style="fill:url(#Dégradé_sans_nom_11-2)"/><path d="M141.73 208.52c27.82 0 50.3-17.94 50.3-40.07s-22.48-40.13-50.3-40.13-50.3 17.94-50.3 40.13 22.56 40.07 50.3 40.07Zm96.33-113.44c7.32 14.56 11.43 31.02 11.43 48.39 0 59.44-48.24 107.68-107.76 107.68S33.97 202.91 33.97 143.47c0-17.38 4.12-33.84 11.43-48.39 17.76-35.21 54.18-59.37 96.33-59.37s78.57 24.16 96.33 59.37Z" style="fill:url(#Dégradé_sans_nom_11-3)"/><path d="M202.63 196.67c5.08-5.33 8.4-14.83 8.4-28.25 0-21.84-8.79-33.29-19.63-33.29s-19.63 11.45-19.63 33.29c0 13.68 3.45 23.29 8.7 28.55l22.17-.3Z" class="cls-1"/><ellipse cx="186.7" cy="159.63" class="cls-6" rx="4.56" ry="3.14"/><ellipse cx="193.68" cy="150" class="cls-6" rx="6.97" ry="6.13"/><path d="M103.3 196.67c5.08-5.33 8.4-14.83 8.4-28.25 0-21.84-8.79-33.29-19.63-33.29s-19.63 11.45-19.63 33.29c0 13.68 3.45 23.29 8.7 28.55l22.17-.3Z" class="cls-1"/><ellipse cx="87.38" cy="159.63" class="cls-6" rx="4.56" ry="3.14"/><ellipse cx="94.35" cy="150" class="cls-6" rx="6.97" ry="6.13"/><path d="M171.84 118.41s12.81-14.85 43.15-1.32c0 0-23.34-16.61-33.73-13.33-9.69 3.06-9.42 14.66-9.42 14.66ZM111.63 118.41s-12.81-14.85-43.15-1.32c0 0 23.34-16.61 33.73-13.33 9.69 3.06 9.42 14.66 9.42 14.66Z" class="cls-1"/><path d="M127.13 227.71s10.37-10.2 26.64-4.07" style="fill:none;stroke:#5c5b72;stroke-linecap:round;stroke-linejoin:round;stroke-width:4px"/></svg>