<svg xmlns="http://www.w3.org/2000/svg" xmlns:xlink="http://www.w3.org/1999/xlink" id="Calque_1" data-name="Calque 1" viewBox="0 0 283.46 283.46"><defs><linearGradient id="Dégradé_sans_nom_11" x1="48.73" x2="226.82" y1="74.6" y2="252.68" data-name="Dégradé sans nom 11" gradientUnits="userSpaceOnUse"><stop offset=".1" stop-color="#5c5b72"/><stop offset=".5" stop-color="#b0b0bf"/><stop offset=".96" stop-color="#f4f4f6"/></linearGradient><linearGradient xlink:href="#Dégradé_sans_nom_11" id="Dégradé_sans_nom_11-2" x1="38.18" x2="236.1" y1="86.14" y2="284.05" data-name="Dégradé sans nom 11"/><linearGradient xlink:href="#Dégradé_sans_nom_11" id="Dégradé_sans_nom_11-3" x1="130.66" x2="326.96" y1="-29.82" y2="166.48" data-name="Dégradé sans nom 11"/><linearGradient xlink:href="#Dégradé_sans_nom_11" id="Dégradé_sans_nom_11-4" x1="37.72" x2="236.45" y1="86.46" y2="285.18" data-name="Dégradé sans nom 11"/><linearGradient xlink:href="#Dégradé_sans_nom_11" id="Dégradé_sans_nom_11-5" x1="130.58" x2="327.69" y1="-29.98" y2="167.13" data-name="Dégradé sans nom 11"/><style>.cls-2{fill:#343443}</style></defs><path d="M141.79 102.97c-27.65 0-49.99 17.83-49.99 39.82s22.34 39.89 49.99 39.89 49.99-17.83 49.99-39.89-22.42-39.82-49.99-39.82ZM46.05 215.71c-7.27-14.47-11.36-30.83-11.36-48.09 0-59.08 47.94-107.02 107.1-107.02s107.1 47.94 107.1 107.02c0 17.27-4.09 33.63-11.36 48.09-17.65 34.99-53.85 59-95.74 59s-78.09-24.01-95.74-59Z" style="fill:url(#Dégradé_sans_nom_11)"/><path d="M46.03 61.09v58.47c-7.27 14.47-11.36 30.83-11.36 48.09V61.01c-5.3-4.7-9.01-15.75-9.01-28.71 0-17.19 6.59-23.55 14.77-23.55S55.2 15.11 55.2 32.3c0 12.95-3.79 24.09-9.16 28.78Z" style="fill:url(#Dégradé_sans_nom_11-2)"/><path d="M248.86 61.01v106.64c0-17.27-4.09-33.63-11.36-48.09V61.09c-5.38-4.7-9.16-15.83-9.16-28.78 0-17.19 6.67-23.55 14.77-23.55s14.77 6.36 14.77 23.55c0 12.95-3.71 24.01-9.01 28.71Z" style="fill:url(#Dégradé_sans_nom_11-3)"/><path d="M45.6 61.3v58.71c-7.3 14.53-11.41 30.95-11.41 48.29V61.23c-5.32-4.72-9.05-15.82-9.05-28.82 0-17.26 6.62-23.65 14.83-23.65S54.8 15.15 54.8 32.41c0 13-3.8 24.18-9.2 28.9Z" style="fill:url(#Dégradé_sans_nom_11-4)"/><path d="M249.27 61.23v107.08c0-17.34-4.11-33.77-11.41-48.29V61.31c-5.4-4.72-9.2-15.89-9.2-28.9 0-17.26 6.69-23.65 14.83-23.65s14.83 6.39 14.83 23.65c0 13-3.73 24.11-9.05 28.82Z" style="fill:url(#Dégradé_sans_nom_11-5)"/><path d="M221.02 132.83s-23.99-18.38-47.45-2.34c-3.93 2.69-3.3 8.59 1.19 10.17 6.12 2.16 14.14 5.95 21.02 12.4 0 0-.48-10.7-6.64-16.82 0 0 8.88-11.1 31.88-3.41ZM62.44 132.84s23.98-18.39 47.45-2.35c3.93 2.68 3.3 8.59-1.18 10.17-6.12 2.16-14.13 5.95-21.02 12.41 0 0 .48-10.7 6.63-16.83 0 0-8.88-11.1-31.88-3.4Z" class="cls-2"/><ellipse cx="141.73" cy="203.63" rx="30.54" ry="30.82" style="fill:#5c5b72"/><path d="M177.46 57.25s-9.78 11.39 2.14 16.76c13.04 5.87 30.5 13.98 30.5 13.98s-33.9-20-32.64-30.75ZM108.36 57.2s9.81 11.36-2.08 16.77c-13.02 5.92-30.45 14.09-30.45 14.09s33.83-20.11 32.54-30.86Z" class="cls-2"/></svg>