<svg xmlns="http://www.w3.org/2000/svg" xmlns:xlink="http://www.w3.org/1999/xlink" id="Calque_1" data-name="Calque 1" viewBox="0 0 283.46 283.46"><defs><linearGradient id="Dégradé_sans_nom_11" x1="48.69" x2="226.78" y1="74.6" y2="252.68" data-name="Dégradé sans nom 11" gradientUnits="userSpaceOnUse"><stop offset=".1" stop-color="#5c5b72"/><stop offset=".5" stop-color="#b0b0bf"/><stop offset=".96" stop-color="#f4f4f6"/></linearGradient><linearGradient xlink:href="#Dégradé_sans_nom_11" id="Dégradé_sans_nom_11-2" x1="38.15" x2="236.06" y1="86.14" y2="284.05" data-name="Dégradé sans nom 11"/><linearGradient xlink:href="#Dégradé_sans_nom_11" id="Dégradé_sans_nom_11-3" x1="156.95" x2="303.86" y1="-19.49" y2="127.42" data-name="Dégradé sans nom 11"/><style>.cls-1{fill:#5c5b72}.cls-2{fill:#343443}.cls-6{fill:#fff;opacity:.5}</style></defs><path d="M243.71 164.26c-.47.07-.95.11-1.42.11-4.5 0-8.42-3.36-9.12-7.81-.78-5.03 2.67-9.76 7.7-10.54.41-.06.82-.1 1.23-.11l-2.19-14.07c-.22-1.43.34-2.81 1.41-3.69-15.72-39.56-54.37-67.55-99.57-67.55-59.15 0-107.1 47.94-107.1 107.02 0 17.27 4.09 33.63 11.36 48.09 17.65 34.99 53.85 59 95.74 59s78.09-24.01 95.74-59c7.27-14.47 11.36-30.83 11.36-48.09 0-1.96-.06-3.9-.16-5.83a9.226 9.226 0 0 1-4.98 2.48Zm-101.96 18.42c-27.65 0-49.99-17.83-49.99-39.89s22.34-39.82 49.99-39.82 49.99 17.83 49.99 39.82-22.42 39.89-49.99 39.89Zm99.04-7.17c-3.77 5.73-8.08 6.46-11.4 6.46-.62 0-1.21-.03-1.78-.05-.53-.02-1.04-.04-1.51-.04-1.82 0-3.03.32-4.6 2.08-2.42 2.71-2.58 5.29-2.8 8.87-.16 2.57-.35 5.77-1.64 9.1-2.24 5.81-7.35 9.61-14.39 10.71-1.36.21-2.78.32-4.2.32-1.69 0-3.37-.15-4.86-.44-1.05-.2-1.96-.8-2.55-1.69-.6-.89-.82-1.95-.61-3a4.006 4.006 0 0 1 4.68-3.17c.06.01 1.53.29 3.54.29 3.95 0 9.06-1.02 10.93-5.89.84-2.18.97-4.28 1.12-6.72.26-4.18.55-8.93 4.82-13.71 3.76-4.21 7.64-4.75 10.59-4.75.65 0 1.25.03 1.83.05.51.02.99.04 1.45.04 1.7 0 2.95-.2 4.7-2.86.74-1.13 1.99-1.8 3.34-1.8.78 0 1.54.23 2.2.66.89.59 1.5 1.49 1.72 2.53.22 1.05.01 2.11-.58 3.01Z" style="fill:url(#Dégradé_sans_nom_11)"/><path d="M46 61.09v58.47c-7.27 14.47-11.36 30.83-11.36 48.09V61.01c-5.3-4.7-9.01-15.75-9.01-28.71 0-17.19 6.59-23.55 14.77-23.55s14.77 6.36 14.77 23.55c0 12.95-3.79 24.09-9.16 28.78Z" style="fill:url(#Dégradé_sans_nom_11-2)"/><path d="M171.57 73.14s17.95-6.42 39.03 15.07c0 0-13.48-21.21-24.18-22.6-9.98-1.3-14.85 7.53-14.85 7.53ZM111.8 73.14s-17.95-6.42-39.03 15.07c0 0 13.48-21.21 24.18-22.6 9.98-1.3 14.85 7.53 14.85 7.53Z" class="cls-2"/><ellipse cx="185.64" cy="135.72" class="cls-2" rx="19.59" ry="33.22"/><ellipse cx="180.95" cy="126.95" class="cls-6" rx="4.55" ry="3.13"/><ellipse cx="187.91" cy="117.34" class="cls-6" rx="6.96" ry="6.11"/><ellipse cx="86.52" cy="135.72" class="cls-2" rx="19.59" ry="33.22"/><ellipse cx="81.83" cy="126.95" class="cls-6" rx="4.55" ry="3.13"/><ellipse cx="88.79" cy="117.34" class="cls-6" rx="6.96" ry="6.11"/><ellipse cx="161.45" cy="208.05" class="cls-1" rx="4.8" ry="9.96"/><path d="M235.78 172.21c-2.6 3.95-4.83 3.85-7.91 3.72-3.11-.13-6.97-.3-10.84 4.03-3.81 4.26-4.07 8.45-4.32 12.5-.15 2.49-.3 4.84-1.24 7.31-3.56 9.23-16.15 6.96-16.71 6.85a2 2 0 0 0-2.34 1.58 2 2 0 0 0 1.58 2.34c2.17.42 5.22.6 8.37.11 5.1-.79 10.47-3.34 12.83-9.45 1.17-3.04 1.35-5.94 1.51-8.5.22-3.68.42-6.85 3.31-10.08 2.61-2.92 4.85-2.82 7.69-2.7 3.37.15 7.58.33 11.42-5.52a2 2 0 0 0-3.34-2.2ZM264.92 121.27c-.53-.3-1.18-.34-1.74-.11l-20.07 8.22c-.86.35-1.36 1.24-1.22 2.16l2.6 16.72a7.34 7.34 0 0 0-3.31-.27c-3.94.61-6.65 4.32-6.03 8.26s4.32 6.65 8.26 6.03 6.65-4.32 6.03-8.26l-2.31-14.83 16.27-6.66 1.17 7.5a7.34 7.34 0 0 0-3.31-.27c-3.94.61-6.65 4.32-6.03 8.26s4.32 6.65 8.26 6.03 6.65-4.32 6.03-8.26l-3.59-23.11c-.09-.61-.46-1.13-.99-1.43Zm-22.13 37.06a3.24 3.24 0 0 1-3.69-2.7c-.27-1.76.94-3.42 2.7-3.69s3.42.94 3.69 2.7-.94 3.42-2.7 3.69Zm3.71-23.19-.41-2.66 16.27-6.66.41 2.66-16.27 6.66Zm16.36 14.98a3.24 3.24 0 0 1-3.69-2.7c-.27-1.76.94-3.42 2.7-3.69s3.42.94 3.69 2.7-.94 3.42-2.7 3.69Z" class="cls-1"/><path d="M237.47 61.09v58.47c1.41 2.8 2.69 5.66 3.85 8.59.31-.25.65-.47 1.03-.63l6.48-2.65V61.01c5.3-4.7 9.01-15.75 9.01-28.71 0-17.19-6.59-23.55-14.77-23.55S228.3 15.11 228.3 32.3c0 12.95 3.79 24.09 9.16 28.78Z" style="fill:url(#Dégradé_sans_nom_11-3)"/></svg>