<svg width="16" height="16" viewBox="0 0 16 16" fill="none" xmlns="http://www.w3.org/2000/svg">
<path d="M7.99998 1.33334C4.31998 1.33334 1.33331 4.32001 1.33331 8.00001C1.33331 11.68 4.31998 14.6667 7.99998 14.6667C11.68 14.6667 14.6666 11.68 14.6666 8.00001C14.6666 4.32001 11.68 1.33334 7.99998 1.33334ZM4.71331 12.1867C4.99998 11.5867 6.74665 11 7.99998 11C9.25331 11 11.0066 11.5867 11.2866 12.1867C10.38 12.9067 9.23998 13.3333 7.99998 13.3333C6.75998 13.3333 5.61998 12.9067 4.71331 12.1867ZM12.24 11.22C11.2866 10.06 8.97331 9.66668 7.99998 9.66668C7.02665 9.66668 4.71331 10.06 3.75998 11.22C3.07998 10.3267 2.66665 9.21334 2.66665 8.00001C2.66665 5.06001 5.05998 2.66668 7.99998 2.66668C10.94 2.66668 13.3333 5.06001 13.3333 8.00001C13.3333 9.21334 12.92 10.3267 12.24 11.22ZM7.99998 4.00001C6.70665 4.00001 5.66665 5.04001 5.66665 6.33334C5.66665 7.62668 6.70665 8.66668 7.99998 8.66668C9.29331 8.66668 10.3333 7.62668 10.3333 6.33334C10.3333 5.04001 9.29331 4.00001 7.99998 4.00001ZM7.99998 7.33334C7.44665 7.33334 6.99998 6.88668 6.99998 6.33334C6.99998 5.78001 7.44665 5.33334 7.99998 5.33334C8.55331 5.33334 8.99998 5.78001 8.99998 6.33334C8.99998 6.88668 8.55331 7.33334 7.99998 7.33334Z" fill="#080C12"/>
</svg>
