<svg width="16" height="16" viewBox="0 0 16 16" fill="none" xmlns="http://www.w3.org/2000/svg">
<path d="M12.6667 2H3.33333C2.6 2 2 2.6 2 3.33333V12.6667C2 13.4 2.6 14 3.33333 14H12.6667C13.4 14 14 13.4 14 12.6667V3.33333C14 2.6 13.4 2 12.6667 2ZM12.6667 12.6667H3.33333V3.33333H12.6667V12.6667Z" fill="#080C12"/>
<path d="M6.00002 8H4.66669V11.3333H6.00002V8Z" fill="#080C12"/>
<path d="M11.3333 4.66666H10V11.3333H11.3333V4.66666Z" fill="#080C12"/>
<path d="M8.66665 9.33334H7.33331V11.3333H8.66665V9.33334Z" fill="#080C12"/>
<path d="M8.66665 6.66666H7.33331V8H8.66665V6.66666Z" fill="#080C12"/>
</svg>
