<svg width="16" height="16" viewBox="0 0 16 16" fill="none" xmlns="http://www.w3.org/2000/svg">
<path d="M15.0734 12.66L9.0201 6.60667C9.6401 5.04667 9.3201 3.20667 8.0601 1.94001C6.52676 0.406673 4.1401 0.266673 2.4401 1.50667L5.0001 4.07334L4.05343 5.01334L1.5001 2.46001C0.260096 4.15334 0.400096 6.54667 1.93343 8.07334C3.17343 9.31334 4.9801 9.64001 6.52676 9.06001L12.6001 15.1333C12.8601 15.3933 13.2801 15.3933 13.5401 15.1333L15.0734 13.6C15.3401 13.3467 15.3401 12.9267 15.0734 12.66ZM13.0734 13.7267L6.76676 7.42001C6.3601 7.72001 5.90676 7.90001 5.43343 7.96667C4.52676 8.10001 3.57343 7.82667 2.8801 7.13334C2.24676 6.50667 1.95343 5.66667 2.0001 4.84001L4.0601 6.90001L6.88676 4.07334L4.82676 2.01334C5.65343 1.96667 6.48676 2.26001 7.1201 2.88667C7.8401 3.60667 8.11343 4.60001 7.94676 5.52667C7.86676 6.00001 7.66676 6.44001 7.3601 6.83334L13.6601 13.1333L13.0734 13.7267Z" fill="#080C12"/>
</svg>
