<svg width="16" height="16" viewBox="0 0 16 16" fill="none" xmlns="http://www.w3.org/2000/svg">
<path d="M8 1.33334C4.31333 1.33334 1.33333 4.31334 1.33333 8.00001C1.33333 11.6867 4.31333 14.6667 8 14.6667C11.6867 14.6667 14.6667 11.6867 14.6667 8.00001C14.6667 4.31334 11.6867 1.33334 8 1.33334ZM8 13.3333C5.06 13.3333 2.66666 10.94 2.66666 8.00001C2.66666 5.06001 5.06 2.66668 8 2.66668C10.94 2.66668 13.3333 5.06001 13.3333 8.00001C13.3333 10.94 10.94 13.3333 8 13.3333ZM10.3933 4.66668L8 7.06001L5.60666 4.66668L4.66666 5.60668L7.06 8.00001L4.66666 10.3933L5.60666 11.3333L8 8.94001L10.3933 11.3333L11.3333 10.3933L8.93999 8.00001L11.3333 5.60668L10.3933 4.66668Z" fill="#080C12"/>
</svg>
