<svg width="16" height="16" viewBox="0 0 16 16" fill="none" xmlns="http://www.w3.org/2000/svg">
<path d="M13.3334 1.33333H2.66671C2.00004 1.33333 1.33337 1.93333 1.33337 2.66667V4.67333C1.33337 5.15333 1.62004 5.56667 2.00004 5.8V13.3333C2.00004 14.0667 2.73337 14.6667 3.33337 14.6667H12.6667C13.2667 14.6667 14 14.0667 14 13.3333V5.8C14.38 5.56667 14.6667 5.15333 14.6667 4.67333V2.66667C14.6667 1.93333 14 1.33333 13.3334 1.33333ZM12.6667 13.3333H3.33337V6H12.6667V13.3333ZM13.3334 4.66667H2.66671V2.66667H13.3334V4.66667Z" fill="#052F37"/>
<path d="M10 8H6V9.33333H10V8Z" fill="#052F37"/>
</svg>
