<svg width="16" height="16" viewBox="0 0 16 16" fill="none" xmlns="http://www.w3.org/2000/svg">
<path d="M7.33333 10H8.66666V11.3333H7.33333V10ZM7.33333 4.66668H8.66666V8.66668H7.33333V4.66668ZM7.99333 1.33334C4.31333 1.33334 1.33333 4.32001 1.33333 8.00001C1.33333 11.68 4.31333 14.6667 7.99333 14.6667C11.68 14.6667 14.6667 11.68 14.6667 8.00001C14.6667 4.32001 11.68 1.33334 7.99333 1.33334ZM7.99999 13.3333C5.05333 13.3333 2.66666 10.9467 2.66666 8.00001C2.66666 5.05334 5.05333 2.66668 7.99999 2.66668C10.9467 2.66668 13.3333 5.05334 13.3333 8.00001C13.3333 10.9467 10.9467 13.3333 7.99999 13.3333Z" fill="#080C12"/>
</svg>
