<svg width="16" height="16" viewBox="0 0 16 16" fill="none" xmlns="http://www.w3.org/2000/svg">
<path d="M9.33337 1.33333H2.66671C1.93337 1.33333 1.33337 1.93333 1.33337 2.66667V9.33333H2.66671V2.66667H9.33337V1.33333ZM12 4H5.33337C4.60004 4 4.00004 4.6 4.00004 5.33333V12H5.33337V5.33333H12V4ZM13.3334 6.66667H8.00004C7.26671 6.66667 6.66671 7.26667 6.66671 8V13.3333C6.66671 14.0667 7.26671 14.6667 8.00004 14.6667H13.3334C14.0667 14.6667 14.6667 14.0667 14.6667 13.3333V8C14.6667 7.26667 14.0667 6.66667 13.3334 6.66667ZM13.3334 13.3333H8.00004V8H13.3334V13.3333Z" fill="#052F37"/>
</svg>
