<svg width="16" height="16" viewBox="0 0 16 16" fill="none" xmlns="http://www.w3.org/2000/svg">
<path d="M7.33333 12H8.66666V10.6667H7.33333V12ZM8 1.33334C4.31999 1.33334 1.33333 4.32001 1.33333 8.00001C1.33333 11.68 4.31999 14.6667 8 14.6667C11.68 14.6667 14.6667 11.68 14.6667 8.00001C14.6667 4.32001 11.68 1.33334 8 1.33334ZM8 13.3333C5.06 13.3333 2.66666 10.94 2.66666 8.00001C2.66666 5.06001 5.06 2.66668 8 2.66668C10.94 2.66668 13.3333 5.06001 13.3333 8.00001C13.3333 10.94 10.94 13.3333 8 13.3333ZM8 4.00001C6.52666 4.00001 5.33333 5.19334 5.33333 6.66668H6.66666C6.66666 5.93334 7.26666 5.33334 8 5.33334C8.73333 5.33334 9.33333 5.93334 9.33333 6.66668C9.33333 8.00001 7.33333 7.83334 7.33333 10H8.66666C8.66666 8.50001 10.6667 8.33334 10.6667 6.66668C10.6667 5.19334 9.47333 4.00001 8 4.00001Z" fill="#080C12"/>
</svg>
