<svg width="16" height="16" viewBox="0 0 16 16" fill="none" xmlns="http://www.w3.org/2000/svg">
<path d="M2.66665 12V11.5667C2.66665 11.34 2.77331 11.1267 2.93998 11.0267C4.06665 10.3533 5.35331 10 6.66665 10C6.68665 10 6.69998 10 6.71998 10.0067C6.78665 9.54001 6.91998 9.09334 7.11331 8.68667C6.96665 8.67334 6.81998 8.66667 6.66665 8.66667C5.05331 8.66667 3.54665 9.11334 2.25998 9.88C1.67331 10.2267 1.33331 10.88 1.33331 11.5667V13.3333H7.50665C7.22665 12.9333 7.00665 12.48 6.85998 12H2.66665Z" fill="#080C12"/>
<path d="M6.66667 8C8.14 8 9.33333 6.80667 9.33333 5.33334C9.33333 3.86001 8.14 2.66667 6.66667 2.66667C5.19333 2.66667 4 3.86001 4 5.33334C4 6.80667 5.19333 8 6.66667 8ZM6.66667 4.00001C7.4 4.00001 8 4.6 8 5.33334C8 6.06667 7.4 6.66667 6.66667 6.66667C5.93333 6.66667 5.33333 6.06667 5.33333 5.33334C5.33333 4.6 5.93333 4.00001 6.66667 4.00001Z" fill="#080C12"/>
<path d="M13.8333 10.6667C13.8333 10.52 13.8133 10.3867 13.7933 10.2467L14.5533 9.57334L13.8866 8.42001L12.9199 8.74668C12.7066 8.56668 12.4666 8.42668 12.1999 8.32668L11.9999 7.33334H10.6666L10.4666 8.32668C10.1999 8.42668 9.95995 8.56668 9.74661 8.74668L8.77995 8.42001L8.11328 9.57334L8.87328 10.2467C8.85328 10.3867 8.83328 10.52 8.83328 10.6667C8.83328 10.8133 8.85328 10.9467 8.87328 11.0867L8.11328 11.76L8.77995 12.9133L9.74661 12.5867C9.95995 12.7667 10.1999 12.9067 10.4666 13.0067L10.6666 14H11.9999L12.1999 13.0067C12.4666 12.9067 12.7066 12.7667 12.9199 12.5867L13.8866 12.9133L14.5533 11.76L13.7933 11.0867C13.8133 10.9467 13.8333 10.8133 13.8333 10.6667ZM11.3333 12C10.5999 12 9.99995 11.4 9.99995 10.6667C9.99995 9.93334 10.5999 9.33334 11.3333 9.33334C12.0666 9.33334 12.6666 9.93334 12.6666 10.6667C12.6666 11.4 12.0666 12 11.3333 12Z" fill="#080C12"/>
</svg>
