<svg width="16" height="16" viewBox="0 0 16 16" fill="none" xmlns="http://www.w3.org/2000/svg">
<path d="M10 2.66667V7.33333H3.44671L3.05337 7.72667L2.66671 8.11333V2.66667H10ZM10.6667 1.33333H2.00004C1.63337 1.33333 1.33337 1.63333 1.33337 2V11.3333L4.00004 8.66667H10.6667C11.0334 8.66667 11.3334 8.36667 11.3334 8V2C11.3334 1.63333 11.0334 1.33333 10.6667 1.33333ZM14 4H12.6667V10H4.00004V11.3333C4.00004 11.7 4.30004 12 4.66671 12H12L14.6667 14.6667V4.66667C14.6667 4.3 14.3667 4 14 4Z" fill="#080C12"/>
</svg>
