<svg width="16" height="16" viewBox="0 0 16 16" fill="none" xmlns="http://www.w3.org/2000/svg">
<path d="M11.1134 8.75333C12.0267 9.37333 12.6667 10.2133 12.6667 11.3333V13.3333H15.3334V11.3333C15.3334 9.87999 12.9534 9.01999 11.1134 8.75333Z" fill="#080C12"/>
<path d="M10.0001 7.99999C11.4734 7.99999 12.6667 6.80666 12.6667 5.33332C12.6667 3.85999 11.4734 2.66666 10.0001 2.66666C9.68674 2.66666 9.3934 2.73332 9.1134 2.82666C9.66674 3.51332 10.0001 4.38666 10.0001 5.33332C10.0001 6.27999 9.66674 7.15332 9.1134 7.83999C9.3934 7.93332 9.68674 7.99999 10.0001 7.99999Z" fill="#080C12"/>
<path d="M6.00004 7.99999C7.47337 7.99999 8.66671 6.80666 8.66671 5.33332C8.66671 3.85999 7.47337 2.66666 6.00004 2.66666C4.52671 2.66666 3.33337 3.85999 3.33337 5.33332C3.33337 6.80666 4.52671 7.99999 6.00004 7.99999ZM6.00004 3.99999C6.73337 3.99999 7.33337 4.59999 7.33337 5.33332C7.33337 6.06666 6.73337 6.66666 6.00004 6.66666C5.26671 6.66666 4.66671 6.06666 4.66671 5.33332C4.66671 4.59999 5.26671 3.99999 6.00004 3.99999Z" fill="#080C12"/>
<path d="M6.00002 8.66666C4.22002 8.66666 0.666687 9.55999 0.666687 11.3333V13.3333H11.3334V11.3333C11.3334 9.55999 7.78002 8.66666 6.00002 8.66666ZM10 12H2.00002V11.34C2.13335 10.86 4.20002 9.99999 6.00002 9.99999C7.80002 9.99999 9.86669 10.86 10 11.3333V12Z" fill="#080C12"/>
</svg>
