<svg width="16" height="16" viewBox="0 0 16 16" fill="none" xmlns="http://www.w3.org/2000/svg">
<path d="M14.4467 12.1133L10.9134 8.57996H10.2534L8.56006 10.2733V10.9333L12.0934 14.4666C12.3534 14.7266 12.7734 14.7266 13.0334 14.4666L14.4467 13.0533C14.7067 12.8 14.7067 12.3733 14.4467 12.1133ZM12.5601 13.06L9.73339 10.2333L10.2067 9.75996L13.0334 12.5866L12.5601 13.06Z" fill="#052F37"/>
<path d="M11.56 6.79333L12.5 5.85333L13.9133 7.26666C14.6933 6.48666 14.6933 5.22 13.9133 4.44L11.5533 2.08L10.6133 3.02V1.14L10.1466 0.666664L7.78665 3.02666L8.25998 3.5H10.1466L9.20665 4.44L9.91331 5.14666L7.98665 7.07333L5.23331 4.32V3.37333L3.21998 1.36L1.33331 3.24666L3.35331 5.26666H4.29331L7.04665 8.02L6.47998 8.58666H5.06665L1.53331 12.12C1.27331 12.38 1.27331 12.8 1.53331 13.06L2.94665 14.4733C3.20665 14.7333 3.62665 14.7333 3.88665 14.4733L7.41998 10.94V9.52666L10.8533 6.09333L11.56 6.79333ZM6.23998 10.2267L3.41331 13.0533L2.93998 12.58L5.76665 9.75333L6.23998 10.2267Z" fill="#052F37"/>
</svg>
