<svg width="16" height="16" viewBox="0 0 16 16" fill="none" xmlns="http://www.w3.org/2000/svg">
<path d="M1.68669 13.1L2.58003 13.4733V7.45334L0.960025 11.36C0.686692 12.04 1.01336 12.82 1.68669 13.1ZM14.6867 10.6333L11.38 2.65334C11.1734 2.15334 10.6867 1.84668 10.1734 1.83334C10 1.83334 9.82003 1.86001 9.64669 1.93334L4.73336 3.96668C4.23336 4.17334 3.92669 4.65334 3.91336 5.16668C3.90669 5.34668 3.94003 5.52668 4.01336 5.70001L7.32003 13.68C7.52669 14.1867 8.02003 14.4933 8.54003 14.5C8.71336 14.5 8.88669 14.4667 9.05336 14.4L13.96 12.3667C14.64 12.0867 14.9667 11.3067 14.6867 10.6333ZM8.55336 13.1667L5.24669 5.19334L10.1467 3.16668H10.1534L13.4534 11.1333L8.55336 13.1667Z" fill="#080C12"/>
<path d="M7.33335 6.66668C7.70154 6.66668 8.00002 6.3682 8.00002 6.00001C8.00002 5.63182 7.70154 5.33334 7.33335 5.33334C6.96516 5.33334 6.66669 5.63182 6.66669 6.00001C6.66669 6.3682 6.96516 6.66668 7.33335 6.66668Z" fill="#080C12"/>
<path d="M3.91974 13.1667C3.91974 13.9 4.51974 14.5 5.25307 14.5H6.21974L3.91974 8.94003V13.1667Z" fill="#080C12"/>
</svg>
