<svg width="16" height="16" viewBox="0 0 16 16" fill="none" xmlns="http://www.w3.org/2000/svg">
<path d="M8.00001 1.33334C4.32001 1.33334 1.33334 4.32001 1.33334 8.00001C1.33334 11.68 4.32001 14.6667 8.00001 14.6667C11.68 14.6667 14.6667 11.68 14.6667 8.00001C14.6667 4.32001 11.68 1.33334 8.00001 1.33334ZM12.9733 6.08001L11.12 6.84668C10.78 5.94001 10.0667 5.22001 9.15334 4.88668L9.92001 3.03334C11.32 3.56668 12.4333 4.68001 12.9733 6.08001ZM8.00001 10C6.89334 10 6.00001 9.10668 6.00001 8.00001C6.00001 6.89334 6.89334 6.00001 8.00001 6.00001C9.10668 6.00001 10 6.89334 10 8.00001C10 9.10668 9.10668 10 8.00001 10ZM6.08668 3.02668L6.86668 4.88001C5.94668 5.21334 5.22001 5.94001 4.88001 6.86001L3.02668 6.08668C3.56668 4.68001 4.68001 3.56668 6.08668 3.02668ZM3.02668 9.91334L4.88001 9.14668C5.22001 10.0667 5.94001 10.7867 6.86001 11.12L6.08001 12.9733C4.68001 12.4333 3.56668 11.32 3.02668 9.91334ZM9.92001 12.9733L9.15334 11.12C10.0667 10.78 10.7867 10.06 11.12 9.14001L12.9733 9.92001C12.4333 11.32 11.32 12.4333 9.92001 12.9733Z" fill="#080C12"/>
</svg>
