<svg width="16" height="16" viewBox="0 0 16 16" fill="none" xmlns="http://www.w3.org/2000/svg">
<path d="M5.99998 9.16668C4.43998 9.16668 1.33331 9.94668 1.33331 11.5V12.6667H10.6666V11.5C10.6666 9.94668 7.55998 9.16668 5.99998 9.16668ZM2.89331 11.3333C3.45331 10.9467 4.80665 10.5 5.99998 10.5C7.19331 10.5 8.54665 10.9467 9.10665 11.3333H2.89331ZM5.99998 8.00001C7.28665 8.00001 8.33331 6.95334 8.33331 5.66668C8.33331 4.38001 7.28665 3.33334 5.99998 3.33334C4.71331 3.33334 3.66665 4.38001 3.66665 5.66668C3.66665 6.95334 4.71331 8.00001 5.99998 8.00001ZM5.99998 4.66668C6.55331 4.66668 6.99998 5.11334 6.99998 5.66668C6.99998 6.22001 6.55331 6.66668 5.99998 6.66668C5.44665 6.66668 4.99998 6.22001 4.99998 5.66668C4.99998 5.11334 5.44665 4.66668 5.99998 4.66668ZM10.6933 9.20668C11.4666 9.76668 12 10.5133 12 11.5V12.6667H14.6666V11.5C14.6666 10.1533 12.3333 9.38668 10.6933 9.20668ZM9.99998 8.00001C11.2866 8.00001 12.3333 6.95334 12.3333 5.66668C12.3333 4.38001 11.2866 3.33334 9.99998 3.33334C9.63998 3.33334 9.30665 3.42001 8.99998 3.56668C9.41998 4.16001 9.66665 4.88668 9.66665 5.66668C9.66665 6.44668 9.41998 7.17334 8.99998 7.76668C9.30665 7.91334 9.63998 8.00001 9.99998 8.00001Z" fill="#080C12"/>
</svg>
