<svg xmlns="http://www.w3.org/2000/svg" xmlns:xlink="http://www.w3.org/1999/xlink" data-name="Calque 1" viewBox="0 0 841.89 595.28"><defs><linearGradient id="a" x1="1623.59" x2="1655.31" y1="3763.7" y2="3795.41" data-name="Dégradé sans nom 11" gradientTransform="rotate(-29.98 -5664.583 3877.941)" gradientUnits="userSpaceOnUse"><stop offset=".1" stop-color="#5b5a72"/><stop offset=".5" stop-color="#b0b0bf"/><stop offset=".96" stop-color="#f4f4f6"/></linearGradient><linearGradient xlink:href="#a" id="b" x1="4325.78" x2="4341.03" y1="-1768.3" y2="-1753.05" data-name="Dégradé sans nom 11" gradientTransform="rotate(35.93 -676.61 -6590.539)"/><linearGradient xlink:href="#a" id="c" x1="4255.13" x2="4279.28" y1="-1467.58" y2="-1443.43" data-name="Dégradé sans nom 11" gradientTransform="rotate(35.93 -676.61 -6590.539)"/><linearGradient xlink:href="#a" id="d" x1="-2445.66" x2="-2430.42" y1="4716.84" y2="4732.09" data-name="Dégradé sans nom 11" gradientTransform="rotate(-69.47 -4183.72 227.948)"/><linearGradient xlink:href="#a" id="e" x1="1112.4" x2="1144.12" y1="3751.22" y2="3782.94" data-name="Dégradé sans nom 11"/><linearGradient xlink:href="#a" id="f" x1="-2832.24" x2="-2817" y1="4382.14" y2="4397.39" data-name="Dégradé sans nom 11" gradientTransform="rotate(-69.47 -4183.72 227.948)"/><linearGradient xlink:href="#a" id="g" x1="-3174.16" x2="-3148.8" y1="4447" y2="4472.36" data-name="Dégradé sans nom 11" gradientTransform="rotate(-47.05 -5907.705 -1865.407)"/><linearGradient xlink:href="#a" id="h" x1="-3176.24" x2="-3163.4" y1="4482.41" y2="4495.24" data-name="Dégradé sans nom 11" gradientTransform="rotate(-47.05 -5907.705 -1865.407)"/><linearGradient xlink:href="#a" id="i" x1="-3181.85" x2="-3157.49" y1="3948.87" y2="3973.23" data-name="Dégradé sans nom 11" gradientTransform="rotate(-47.05 -5907.705 -1865.407)"/><linearGradient xlink:href="#a" id="j" x1="-3299.88" x2="-3282.84" y1="4005.13" y2="4022.17" data-name="Dégradé sans nom 11" gradientTransform="rotate(-47.05 -5907.705 -1865.407)"/><linearGradient xlink:href="#a" id="k" x1="562.14" x2="586.85" y1="2383.49" y2="2408.21" data-name="Dégradé sans nom 11" gradientTransform="rotate(-21.63 -5166.613 2174.664)"/><linearGradient xlink:href="#a" id="l" x1="-7705.7" x2="-7686.13" y1="1589.8" y2="1609.37" data-name="Dégradé sans nom 11" gradientTransform="rotate(-113.41 -4134.723 -1858.592)"/><linearGradient xlink:href="#a" id="m" x1="2529.73" x2="2549.65" y1="-3875.33" y2="-3855.41" data-name="Dégradé sans nom 11" gradientTransform="rotate(48.03 -3388.286 -3981.494)"/><linearGradient xlink:href="#a" id="n" x1="2537.24" x2="2566.41" y1="-4138.61" y2="-4109.44" data-name="Dégradé sans nom 11" gradientTransform="rotate(48.03 -3388.286 -3981.494)"/></defs><path d="m632.87 151.06-22.47 12.96a4.078 4.078 0 0 1-5.58-1.5l-12.96-22.47a4.078 4.078 0 0 1 1.5-5.58l22.47-12.96a4.078 4.078 0 0 1 5.58 1.5l12.96 22.47c1.13 1.96.46 4.45-1.5 5.58Zm-23.01 3.84 15.39-8.88-8.88-15.39-15.39 8.88 8.88 15.39Z" style="fill:url(#a);opacity:.3"/><path d="m546.26 270.55-10.09-7.32a1.966 1.966 0 0 1-.44-2.74l7.32-10.09c.64-.88 1.86-1.07 2.74-.44l10.09 7.32c.88.64 1.07 1.86.44 2.74L549 270.11c-.64.88-1.86 1.07-2.74.44Zm-6.2-9.34 6.91 5.01 5.01-6.91-6.91-5.01-5.01 6.91Z" style="fill:url(#b);opacity:.3"/><path d="m313.72 484.83-15.99-11.59a3.115 3.115 0 0 1-.69-4.35l11.59-15.99a3.115 3.115 0 0 1 4.35-.69l15.99 11.59c1.39 1.01 1.7 2.95.69 4.35l-11.59 15.99a3.115 3.115 0 0 1-4.35.69Zm-9.82-14.8 10.95 7.94 7.94-10.95-10.95-7.94-7.94 10.95Z" style="opacity:.3;fill:url(#c)"/><path d="m649.27 167.1-4.37 11.68a1.961 1.961 0 0 1-2.53 1.15l-11.68-4.37a1.961 1.961 0 0 1-1.15-2.53l4.37-11.68a1.961 1.961 0 0 1 2.53-1.15l11.68 4.37c1.02.38 1.53 1.51 1.15 2.53Zm-7.36 8.46 2.99-8-8-2.99-2.99 8 8 2.99Z" style="fill:url(#d);opacity:.3"/><path d="m183.86 395.71-22.47 12.96a4.078 4.078 0 0 1-5.58-1.5l-12.96-22.47a4.078 4.078 0 0 1 1.5-5.58l22.47-12.96a4.078 4.078 0 0 1 5.58 1.5l12.96 22.47c1.13 1.96.46 4.45-1.5 5.58Zm-23.01 3.84 15.39-8.88-8.88-15.39-15.39 8.88 8.88 15.39Z" style="fill:url(#e);opacity:.3"/><path d="m200.25 411.75-4.37 11.68a1.961 1.961 0 0 1-2.53 1.15l-11.68-4.37a1.961 1.961 0 0 1-1.15-2.53l4.37-11.68a1.961 1.961 0 0 1 2.53-1.15l11.68 4.37c1.02.38 1.53 1.51 1.15 2.53Zm-7.36 8.46 2.99-8-8-2.99-2.99 8 8 2.99Z" style="fill:url(#f);opacity:.3"/><path d="M582.38 423.82c5.74-6.16 15.39-6.51 21.55-.78s6.51 15.4.77 21.56c-5.74 6.16-15.39 6.5-21.55.76s-6.51-15.38-.77-21.55Zm15.94 5.25a7.027 7.027 0 0 0-9.92.35c-2.64 2.84-2.48 7.28.35 9.92s7.28 2.48 9.92-.35a7.027 7.027 0 0 0-.35-9.92Z" style="fill:url(#g);opacity:.3"/><path d="M603.14 454.93c2.9-3.12 7.79-3.3 10.91-.39 3.12 2.9 3.29 7.79.39 10.91s-7.79 3.29-10.91.39-3.29-7.79-.39-10.9Zm8.07 2.66a3.545 3.545 0 0 0-5.02.18c-1.34 1.44-1.26 3.68.18 5.02s3.68 1.26 5.02-.18 1.26-3.68-.18-5.02Z" style="fill:url(#h);opacity:.3"/><path d="M212.26 90.46c5.51-5.92 14.78-6.26 20.7-.75s6.25 14.79.74 20.71-14.78 6.24-20.7.73-6.25-14.78-.74-20.69Zm15.31 5.04c-2.72-2.54-6.99-2.38-9.53.34-2.54 2.72-2.38 6.99.34 9.53 2.72 2.54 6.99 2.38 9.53-.34s2.38-6.99-.34-9.53Z" style="fill:url(#i);opacity:.3"/><path d="M170.83 218.37c3.85-4.14 10.34-4.38 14.48-.52 4.14 3.85 4.37 10.35.52 14.48-3.85 4.14-10.34 4.37-14.48.51-4.14-3.85-4.37-10.34-.52-14.47Zm10.71 3.53c-1.91-1.77-4.89-1.67-6.66.24-1.77 1.91-1.67 4.89.24 6.66 1.91 1.77 4.89 1.67 6.66-.24s1.67-4.89-.24-6.66Z" style="fill:url(#j);opacity:.3"/><path d="m268.14 267.24-26.3 10.43c-1.27.5-2.7.29-3.77-.55-1.07-.85-1.6-2.2-1.4-3.54l4.12-27.99c.2-1.35 1.1-2.49 2.37-2.99s2.7-.29 3.77.55l22.18 17.56c1.07.85 1.6 2.2 1.4 3.54-.2 1.35-1.1 2.49-2.37 2.99Zm-22.98.91 14.03-5.56-11.83-9.37-2.2 14.93Z" style="fill:url(#k);opacity:.3"/><path d="m455.9 22.29 8.9 20.56c.43.99.3 2.13-.35 3-.64.87-1.7 1.32-2.77 1.2l-22.26-2.57c-1.07-.12-1.99-.81-2.42-1.8s-.3-2.13.35-3l13.35-17.99a3.017 3.017 0 0 1 5.19.6Zm1.29 18.16-4.75-10.97-7.12 9.6 11.87 1.37Z" style="fill:url(#l);opacity:.3"/><path d="m491.91 517.03-15.25-16.96c-.73-.82-.98-1.96-.64-3a3.06 3.06 0 0 1 2.28-2.05l22.31-4.73c1.07-.23 2.19.13 2.92.95s.98 1.96.64 3l-7.06 21.69a3.06 3.06 0 0 1-2.28 2.05c-1.07.23-2.19-.13-2.92-.95Zm-7.13-17.11 8.14 9.05 3.77-11.57-11.9 2.52Z" style="fill:url(#m);opacity:.3"/><path d="m693.38 359.27-22.33-24.83a4.498 4.498 0 0 1-.93-4.4 4.51 4.51 0 0 1 3.34-3.01l32.67-6.93c1.57-.33 3.2.2 4.28 1.39a4.498 4.498 0 0 1 .93 4.4L701 357.64a4.51 4.51 0 0 1-3.34 3.01c-1.57.33-3.2-.2-4.28-1.39Zm-10.44-25.05 11.91 13.25 5.51-16.94-17.43 3.69Z" style="fill:url(#n);opacity:.3"/></svg>