<svg xmlns="http://www.w3.org/2000/svg" xmlns:xlink="http://www.w3.org/1999/xlink" data-name="Calque 1" viewBox="0 0 841.89 595.28"><defs><linearGradient id="a" x1="-3203.2" x2="-3153.09" y1="-432.56" y2="-382.45" data-name="Dégradé sans nom 60" gradientTransform="rotate(103.49 -1611.908 1583.906)" gradientUnits="userSpaceOnUse"><stop offset=".1" stop-color="#5b5a72"/><stop offset=".5" stop-color="#b0b0bf"/><stop offset=".96" stop-color="#f4f4f6"/></linearGradient><linearGradient xlink:href="#a" id="b" x1="2672.54" x2="2705.05" y1="10773.35" y2="10805.86" data-name="Dégradé sans nom 60" gradientTransform="rotate(-138.74 -222.234 5921.02)"/><linearGradient xlink:href="#a" id="c" x1="10160.69" x2="10182.96" y1="5922.3" y2="5944.57" data-name="Dégradé sans nom 60" gradientTransform="rotate(-66.87 1163.552 10380.44)"/><linearGradient xlink:href="#a" id="d" x1="10292.12" x2="10305.97" y1="5931.94" y2="5945.79" data-name="Dégradé sans nom 60" gradientTransform="rotate(-66.87 1163.552 10380.44)"/><linearGradient xlink:href="#a" id="e" x1="3063.66" x2="3085.01" y1="-4331.75" y2="-4310.39" data-name="Dégradé sans nom 60" gradientTransform="rotate(43.84 -4166.156 -5095.505)"/><linearGradient xlink:href="#a" id="f" x1="1312.73" x2="1378.72" y1="2141.46" y2="2207.46" data-name="Dégradé sans nom 60" gradientTransform="rotate(-16.34 -4491.906 3321.493)"/><linearGradient xlink:href="#a" id="g" x1="1126.77" x2="1174.48" y1="2091.3" y2="2139.02" data-name="Dégradé sans nom 60" gradientTransform="rotate(-16.34 -4491.906 3321.493)"/><linearGradient xlink:href="#a" id="h" x1="-10792.6" x2="-10747.94" y1="748.97" y2="793.63" data-name="Dégradé sans nom 60" gradientTransform="rotate(93.27 -4842.783 6031.592)"/><linearGradient xlink:href="#a" id="i" x1="-10924.35" x2="-10909.63" y1="1008.79" y2="1023.51" data-name="Dégradé sans nom 60" gradientTransform="rotate(93.27 -4842.783 6031.592)"/><linearGradient xlink:href="#a" id="j" x1="-10688.02" x2="-10673.26" y1="1123.69" y2="1138.45" data-name="Dégradé sans nom 60" gradientTransform="rotate(93.27 -4842.783 6031.592)"/><linearGradient xlink:href="#a" id="k" x1="-10954.75" x2="-10924.54" y1="683.89" y2="714.1" data-name="Dégradé sans nom 60" gradientTransform="rotate(93.27 -4842.783 6031.592)"/><linearGradient xlink:href="#a" id="l" x1="-10163.63" x2="-10101.75" y1="-128.21" y2="-66.33" data-name="Dégradé sans nom 60" gradientTransform="rotate(121.47 -4818.871 3265.715)"/><linearGradient xlink:href="#a" id="m" x1="-5713.27" x2="-5683.86" y1="8678.27" y2="8707.68" data-name="Dégradé sans nom 60" gradientTransform="rotate(-156.69 -3351.622 3833.77)"/><linearGradient xlink:href="#a" id="n" x1="-5696.51" x2="-5681.84" y1="8851.72" y2="8866.39" data-name="Dégradé sans nom 60" gradientTransform="rotate(-156.69 -3351.622 3833.77)"/><linearGradient xlink:href="#a" id="o" x1="-291.16" x2="-258.17" y1="8768.04" y2="8801.03" data-name="Dégradé sans nom 60" gradientTransform="rotate(-115.78 -2453.75 4314.745)"/><linearGradient xlink:href="#a" id="p" x1="-178.09" x2="-163.25" y1="8674.59" y2="8689.42" data-name="Dégradé sans nom 60" gradientTransform="rotate(-115.78 -2453.75 4314.745)"/><linearGradient xlink:href="#a" id="q" x1="-366.84" x2="-346.75" y1="8538.23" y2="8558.32" data-name="Dégradé sans nom 60" gradientTransform="rotate(-115.78 -2453.75 4314.745)"/></defs><path d="m665.36 549.01 13.38-55.79a7.726 7.726 0 0 1 12.83-3.81l41.62 39.48c2 1.9 2.84 4.72 2.2 7.41a7.74 7.74 0 0 1-5.32 5.61l-55 16.31a7.726 7.726 0 0 1-9.71-9.21Zm25.28-39.17-7.14 29.76 29.34-8.7-22.21-21.06Z" style="fill:url(#a)"/><path d="m793.7 320.11 27.99 24.55a5.015 5.015 0 0 1-1.7 8.52l-35.25 11.96c-1.7.58-3.57.2-4.92-.98a5.005 5.005 0 0 1-1.61-4.75l7.27-36.51a5.015 5.015 0 0 1 3.31-3.77c1.7-.58 3.57-.2 4.92.98Zm14.85 26.36-14.93-13.1-3.88 19.48 18.81-6.38Z" style="fill:url(#b)"/><path d="m624.48 340.06-10.01 23.45a3.436 3.436 0 0 1-5.91.71l-15.3-20.4a3.435 3.435 0 0 1 2.34-5.47l25.32-3.05a3.436 3.436 0 0 1 3.57 4.76Zm-13.99 15.28 5.34-12.51-13.51 1.63 8.16 10.88Z" style="fill:url(#c)"/><path d="m674.73 228.43-6.23 14.58a2.134 2.134 0 0 1-3.67.44l-9.51-12.68a2.13 2.13 0 0 1 1.45-3.4l15.74-1.9c.76-.09 1.51.23 1.96.84.46.61.56 1.42.26 2.12Zm-8.7 9.5 3.32-7.78-8.4 1.01 5.08 6.77Z" style="fill:url(#d)"/><path d="m523.23 492.06-17.63-16.93c-.85-.81-1.2-2.02-.92-3.16a3.274 3.274 0 0 1 2.28-2.37l23.48-6.8c1.13-.33 2.35-.03 3.2.79s1.2 2.02.92 3.16l-5.85 23.74a3.274 3.274 0 0 1-2.28 2.37c-1.13.33-2.35.03-3.2-.79Zm-8.96-17.73 9.41 9.03 3.12-12.66-12.53 3.63Z" style="fill:url(#e)"/><path d="M777.88 541.44c21.02-6.16 43.09 5.88 49.25 26.9 6.16 21.02-5.9 43.09-26.92 49.26-21.02 6.16-43.07-5.91-49.23-26.93-6.16-21.02 5.89-43.06 26.91-49.22Zm28.68 32.93c-2.84-9.67-12.99-15.22-22.66-12.39-9.67 2.84-15.22 12.99-12.39 22.66 2.84 9.67 12.99 15.22 22.66 12.39 9.67-2.84 15.22-12.99 12.39-22.66Z" style="fill:url(#f)"/><path d="M576.56 549.69c15.2-4.46 31.15 4.25 35.61 19.45 4.46 15.2-4.27 31.16-19.47 35.61-15.2 4.46-31.14-4.27-35.59-19.47-4.46-15.2 4.26-31.13 19.45-35.59Zm20.74 23.81c-2.05-6.99-9.39-11.01-16.39-8.96-6.99 2.05-11.01 9.39-8.96 16.39 2.05 6.99 9.39 11.01 16.39 8.96 6.99-2.05 11.01-9.39 8.96-16.39Z" style="fill:url(#g)"/><path d="M773.11 416.28c-.85 14.8-13.54 26.14-28.34 25.29-14.8-.85-26.13-13.55-25.29-28.36.85-14.8 13.55-26.12 28.35-25.27 14.8.85 26.12 13.53 25.27 28.34Zm-27.51 10.81c6.81.39 12.66-4.82 13.05-11.64.39-6.81-4.82-12.66-11.64-13.05-6.81-.39-12.66 4.82-13.05 11.64-.39 6.81 4.82 12.66 11.64 13.05Z" style="fill:url(#h)"/><path d="M519.78 254.17c-.28 4.88-4.46 8.61-9.34 8.33-4.88-.28-8.61-4.47-8.33-9.34s4.47-8.61 9.34-8.33c4.88.28 8.61 4.46 8.33 9.34Zm-9.06 3.56c2.24.13 4.17-1.59 4.3-3.83a4.078 4.078 0 0 0-3.83-4.3c-2.24-.13-4.17 1.59-4.3 3.83s1.59 4.17 3.83 4.3Z" style="fill:url(#i)"/><path d="M391.58 483.58c-.28 4.89-4.48 8.64-9.37 8.36-4.89-.28-8.64-4.48-8.36-9.37.28-4.89 4.48-8.63 9.37-8.36 4.89.28 8.64 4.47 8.36 9.37Zm-9.1 3.57c2.25.13 4.18-1.59 4.31-3.85a4.084 4.084 0 0 0-3.85-4.31 4.084 4.084 0 0 0-4.31 3.85 4.084 4.084 0 0 0 3.85 4.31Z" style="fill:url(#j)"/><path d="M846.63 250.51c-.57 10.01-9.15 17.67-19.16 17.1-10.01-.57-17.67-9.16-17.1-19.17.57-10.01 9.16-17.66 19.17-17.09 10.01.57 17.66 9.15 17.09 19.16Zm-18.6 7.31c4.61.26 8.56-3.26 8.82-7.87.26-4.61-3.26-8.56-7.87-8.82-4.61-.26-8.56 3.26-8.82 7.87-.26 4.61 3.26 8.56 7.87 8.82Z" style="fill:url(#k)"/><path d="m781.64 493.15 26.42-43.16c2.3-3.76 7.21-4.94 10.96-2.64l43.16 26.42c3.76 2.3 4.94 7.21 2.64 10.96l-26.42 43.16c-2.3 3.76-7.21 4.94-10.96 2.64l-43.16-26.42c-3.76-2.3-4.94-7.21-2.64-10.96Zm35.86-28.04-18.09 29.56 29.56 18.09 18.09-29.56-29.56-18.09Z" style="fill:url(#l)"/><path d="m721.84 280.68 22.09 9.52c1.92.83 2.81 3.06 1.98 4.98l-9.52 22.09a3.791 3.791 0 0 1-4.98 1.98l-22.09-9.52a3.791 3.791 0 0 1-1.98-4.98l9.52-22.09a3.791 3.791 0 0 1 4.98-1.98Zm15.61 14.98-15.13-6.52-6.52 15.13 15.13 6.52 6.52-15.13Z" style="fill:url(#m)"/><path d="m781.33 134.1 11.02 4.75c.96.41 1.4 1.53.99 2.48l-4.75 11.02a1.89 1.89 0 0 1-2.48.99l-11.02-4.75a1.89 1.89 0 0 1-.99-2.48l4.75-11.02a1.89 1.89 0 0 1 2.48-.99Zm7.79 7.47-7.55-3.25-3.25 7.55 7.55 3.25 3.25-7.55Z" style="fill:url(#n)"/><path d="m633.74 389.12 11.73 24.3a4.26 4.26 0 0 1-1.98 5.68l-24.3 11.73a4.26 4.26 0 0 1-5.68-1.98l-11.73-24.3a4.26 4.26 0 0 1 1.98-5.68l24.3-11.73a4.26 4.26 0 0 1 5.68 1.98Zm2.23 24.17-8.04-16.64-16.64 8.04 8.04 16.64 16.64-8.04Z" style="fill:url(#o)"/><path d="m490.63 350.99 5.28 10.93c.46.95.06 2.09-.89 2.55l-10.93 5.28c-.95.46-2.09.06-2.55-.89l-5.28-10.93c-.46-.95-.06-2.09.89-2.55l10.93-5.28c.95-.46 2.09-.06 2.55.89Zm1 10.87-3.61-7.48-7.48 3.61 3.61 7.48 7.48-3.61Z" style="fill:url(#p)"/><path d="m452.76 573.58 7.15 14.8c.62 1.29.08 2.84-1.21 3.46l-14.8 7.15c-1.29.62-2.84.08-3.46-1.21l-7.15-14.8a2.592 2.592 0 0 1 1.21-3.46l14.8-7.15c1.29-.62 2.84-.08 3.46 1.21Zm1.36 14.72-4.89-10.13-10.13 4.89 4.89 10.13 10.13-4.89Z" style="fill:url(#q)"/></svg>