<?xml version="1.0" encoding="utf-8"?>
<!-- Generator: Adobe Illustrator 27.9.0, SVG Export Plug-In . SVG Version: 6.00 Build 0)  -->
<svg version="1.1" id="Calque_1" xmlns="http://www.w3.org/2000/svg" xmlns:xlink="http://www.w3.org/1999/xlink" x="0px" y="0px"
	 viewBox="0 0 841.9 595.3" style="enable-background:new 0 0 841.9 595.3;" xml:space="preserve">
<style type="text/css">
	.st0{opacity:0.1;fill:url(#SVGID_1_);enable-background:new    ;}
	.st1{opacity:0.1;fill:url(#SVGID_00000108279150388263661640000014147623503117320071_);enable-background:new    ;}
	.st2{opacity:0.1;fill:url(#SVGID_00000112630155748348093320000001347655618859873179_);enable-background:new    ;}
	.st3{opacity:0.1;fill:url(#SVGID_00000000209262419196668810000001484779417025098160_);enable-background:new    ;}
	.st4{opacity:0.1;fill:url(#SVGID_00000093164977219922762780000004222694389995342219_);enable-background:new    ;}
	.st5{opacity:0.1;fill:url(#SVGID_00000181073285837978936760000011568467391869713285_);enable-background:new    ;}
	.st6{opacity:0.1;fill:url(#SVGID_00000054983910824883039690000006334329731622343350_);enable-background:new    ;}
	.st7{opacity:0.1;fill:url(#SVGID_00000174579118358467569890000014894152997591537817_);enable-background:new    ;}
	.st8{opacity:0.1;fill:url(#SVGID_00000071527832173169628790000018357830447316257685_);enable-background:new    ;}
	.st9{opacity:0.1;fill:url(#SVGID_00000021799651829547443780000010819098738256038049_);enable-background:new    ;}
	.st10{opacity:0.1;fill:url(#SVGID_00000128456284707945659540000015634409363430294188_);enable-background:new    ;}
	.st11{opacity:0.1;fill:url(#SVGID_00000088118970330604214590000007130000100754697857_);enable-background:new    ;}
	.st12{opacity:0.1;fill:url(#SVGID_00000090993004919305897190000000792885699199403428_);enable-background:new    ;}
	.st13{opacity:0.1;fill:url(#SVGID_00000002360051433482803080000010705405142942310562_);enable-background:new    ;}
	.st14{opacity:0.1;fill:url(#SVGID_00000135659070054766850140000007453248431762631588_);enable-background:new    ;}
	.st15{opacity:0.1;fill:url(#SVGID_00000156556816933864391610000015997838715230510258_);enable-background:new    ;}
	.st16{opacity:0.1;fill:url(#SVGID_00000102513172850661023430000005415345042055183244_);enable-background:new    ;}
</style>
<linearGradient id="SVGID_1_" gradientUnits="userSpaceOnUse" x1="-2653.9507" y1="-193.2038" x2="-2603.8564" y2="-143.1093" gradientTransform="matrix(0.2333 -0.9724 0.9724 0.2333 928.8467 -2447.1245)">
	<stop  offset="0.1" style="stop-color:#5B5A72"/>
	<stop  offset="0.5" style="stop-color:#B0B0BF"/>
	<stop  offset="0.96" style="stop-color:#F4F4F6"/>
</linearGradient>
<path class="st0" d="M176.5,46.3l-13.4,55.8c-1,4.1-5.2,6.7-9.3,5.7c-1.3-0.3-2.5-1-3.5-1.9l-41.6-39.5c-2-1.9-2.8-4.7-2.2-7.4
	s2.7-4.8,5.3-5.6l55-16.3c4.1-1.2,8.4,1.1,9.6,5.2C176.8,43.6,176.9,45,176.5,46.3L176.5,46.3z M151.3,85.5l7.1-29.8l-29.3,8.7
	L151.3,85.5L151.3,85.5z"/>
<linearGradient id="SVGID_00000145047712477880601030000008337806678930803607_" gradientUnits="userSpaceOnUse" x1="3349.8308" y1="10610.7471" x2="3382.3523" y2="10643.2695" gradientTransform="matrix(0.7517 0.6595 -0.6595 0.7517 4520.146 -9954.5928)">
	<stop  offset="0.1" style="stop-color:#5B5A72"/>
	<stop  offset="0.5" style="stop-color:#B0B0BF"/>
	<stop  offset="0.96" style="stop-color:#F4F4F6"/>
</linearGradient>
<path style="opacity:0.1;fill:url(#SVGID_00000145047712477880601030000008337806678930803607_);enable-background:new    ;" d="
	M48.2,275.2l-28-24.5c-2.1-1.8-2.3-5-0.5-7.1c0.6-0.7,1.3-1.2,2.2-1.4l35.2-12c1.7-0.6,3.6-0.2,4.9,1s2,3,1.6,4.8l-7.3,36.5
	c-0.4,1.8-1.6,3.2-3.3,3.8C51.4,276.8,49.5,276.4,48.2,275.2L48.2,275.2z M33.4,248.8l14.9,13.1l3.9-19.5L33.4,248.8z"/>
<linearGradient id="SVGID_00000074437106145886122310000004613884322200966280_" gradientUnits="userSpaceOnUse" x1="10556.6631" y1="5695.4683" x2="10578.9502" y2="5717.7554" gradientTransform="matrix(-0.3928 0.9196 -0.9196 -0.3928 9628.6797 -7229.9893)">
	<stop  offset="0.1" style="stop-color:#5B5A72"/>
	<stop  offset="0.5" style="stop-color:#B0B0BF"/>
	<stop  offset="0.96" style="stop-color:#F4F4F6"/>
</linearGradient>
<path style="opacity:0.1;fill:url(#SVGID_00000074437106145886122310000004613884322200966280_);enable-background:new    ;" d="
	M217.4,255.2l10-23.5c0.7-1.7,2.8-2.6,4.5-1.8c0.6,0.2,1,0.6,1.4,1.1l15.3,20.4c1.1,1.5,0.8,3.7-0.7,4.8c-0.5,0.4-1.1,0.6-1.7,0.7
	l-25.3,3c-1.9,0.2-3.6-1.1-3.8-3C217.1,256.4,217.2,255.8,217.4,255.2L217.4,255.2z M231.4,240l-5.3,12.5l13.5-1.6L231.4,240
	L231.4,240z"/>
<linearGradient id="SVGID_00000156559539056952025620000009147119276298810781_" gradientUnits="userSpaceOnUse" x1="10688.1953" y1="5705.0059" x2="10702.042" y2="5718.853" gradientTransform="matrix(-0.3928 0.9196 -0.9196 -0.3928 9628.6797 -7229.9893)">
	<stop  offset="0.1" style="stop-color:#5B5A72"/>
	<stop  offset="0.5" style="stop-color:#B0B0BF"/>
	<stop  offset="0.96" style="stop-color:#F4F4F6"/>
</linearGradient>
<path style="opacity:0.1;fill:url(#SVGID_00000156559539056952025620000009147119276298810781_);enable-background:new    ;" d="
	M167.2,366.9l6.2-14.6c0.5-1.1,1.7-1.6,2.8-1.1c0.3,0.1,0.6,0.4,0.9,0.7l9.5,12.7c0.7,0.9,0.5,2.3-0.4,3c-0.3,0.2-0.7,0.4-1,0.4
	l-15.7,1.9c-0.8,0.1-1.5-0.2-2-0.8C167,368.4,166.9,367.6,167.2,366.9L167.2,366.9z M175.9,357.4l-3.3,7.8l8.4-1L175.9,357.4z"/>
<linearGradient id="SVGID_00000005949558811178021860000005805590169921862838_" gradientUnits="userSpaceOnUse" x1="3378.324" y1="-4161.4683" x2="3399.6797" y2="-4140.103" gradientTransform="matrix(-0.7213 -0.6926 0.6926 -0.7213 5641.4004 -529.3579)">
	<stop  offset="0.1" style="stop-color:#5B5A72"/>
	<stop  offset="0.5" style="stop-color:#B0B0BF"/>
	<stop  offset="0.96" style="stop-color:#F4F4F6"/>
</linearGradient>
<path style="opacity:0.1;fill:url(#SVGID_00000005949558811178021860000005805590169921862838_);enable-background:new    ;" d="
	M318.7,103.2l17.6,16.9c0.9,0.8,1.2,2,0.9,3.2c-0.3,1.1-1.1,2-2.3,2.4l-23.5,6.8c-1.1,0.3-2.3,0-3.2-0.8s-1.2-2-0.9-3.2l5.8-23.7
	c0.3-1.1,1.1-2,2.3-2.4C316.6,102.1,317.8,102.4,318.7,103.2L318.7,103.2z M327.6,121l-9.4-9l-3.1,12.7L327.6,121L327.6,121z"/>
<linearGradient id="SVGID_00000016046333034857015380000009434398157995822233_" gradientUnits="userSpaceOnUse" x1="1568.6681" y1="2072.2424" x2="1634.6581" y2="2138.2422" gradientTransform="matrix(-0.9596 0.2813 -0.2813 -0.9596 2183.8879 1586.4691)">
	<stop  offset="0.1" style="stop-color:#5B5A72"/>
	<stop  offset="0.5" style="stop-color:#B0B0BF"/>
	<stop  offset="0.96" style="stop-color:#F4F4F6"/>
</linearGradient>
<path style="opacity:0.1;fill:url(#SVGID_00000016046333034857015380000009434398157995822233_);enable-background:new    ;" d="
	M64,53.9C43,60.1,20.9,48,14.8,27s5.9-43.1,26.9-49.3s43.1,5.9,49.2,26.9S85,47.7,64,53.9L64,53.9z M35.3,20.9
	c2.8,9.7,13,15.2,22.7,12.4s15.2-13,12.4-22.7S57.4-4.6,47.7-1.8C38.1,1.1,32.5,11.3,35.3,20.9z"/>
<linearGradient id="SVGID_00000084499951973646111900000010945040311230568624_" gradientUnits="userSpaceOnUse" x1="1382.6974" y1="2022.0934" x2="1430.4073" y2="2069.8132" gradientTransform="matrix(-0.9596 0.2813 -0.2813 -0.9596 2183.8879 1586.4691)">
	<stop  offset="0.1" style="stop-color:#5B5A72"/>
	<stop  offset="0.5" style="stop-color:#B0B0BF"/>
	<stop  offset="0.96" style="stop-color:#F4F4F6"/>
</linearGradient>
<path style="opacity:0.1;fill:url(#SVGID_00000084499951973646111900000010945040311230568624_);enable-background:new    ;" d="
	M265.3,45.6c-15.2,4.5-31.2-4.2-35.6-19.5c-4.5-15.2,4.3-31.2,19.5-35.6c15.2-4.5,31.1,4.3,35.6,19.5S280.5,41.1,265.3,45.6z
	 M244.6,21.8c2,7,9.4,11,16.4,9s11-9.4,9-16.4s-9.4-11-16.4-9C246.6,7.5,242.6,14.8,244.6,21.8z"/>
<linearGradient id="SVGID_00000049185359920101836480000006637187804096817550_" gradientUnits="userSpaceOnUse" x1="-10286.2656" y1="994.2665" x2="-10241.6064" y2="1038.9264" gradientTransform="matrix(5.704123e-02 -0.9984 0.9984 5.704123e-02 -334.9345 -10124.0303)">
	<stop  offset="0.1" style="stop-color:#5B5A72"/>
	<stop  offset="0.5" style="stop-color:#B0B0BF"/>
	<stop  offset="0.96" style="stop-color:#F4F4F6"/>
</linearGradient>
<path style="opacity:0.1;fill:url(#SVGID_00000049185359920101836480000006637187804096817550_);enable-background:new    ;" d="
	M68.8,179c0.8-14.8,13.5-26.1,28.3-25.3c14.8,0.9,26.1,13.5,25.3,28.4c-0.8,14.8-13.5,26.1-28.3,25.3S68,193.8,68.8,179L68.8,179z
	 M96.3,168.2c-6.8-0.4-12.7,4.8-13,11.6c-0.4,6.8,4.8,12.7,11.6,13c6.8,0.4,12.7-4.8,13-11.6C108.3,174.4,103.1,168.6,96.3,168.2z"
	/>
<linearGradient id="SVGID_00000006683289211664274790000005049863299098280894_" gradientUnits="userSpaceOnUse" x1="-10417.9492" y1="1254.0209" x2="-10403.2295" y2="1268.7408" gradientTransform="matrix(5.704123e-02 -0.9984 0.9984 5.704123e-02 -334.9345 -10124.0303)">
	<stop  offset="0.1" style="stop-color:#5B5A72"/>
	<stop  offset="0.5" style="stop-color:#B0B0BF"/>
	<stop  offset="0.96" style="stop-color:#F4F4F6"/>
</linearGradient>
<path style="opacity:0.1;fill:url(#SVGID_00000006683289211664274790000005049863299098280894_);enable-background:new    ;" d="
	M322.1,341.1c0.3-4.9,4.5-8.6,9.3-8.3c4.9,0.3,8.6,4.5,8.3,9.3s-4.5,8.6-9.3,8.3C325.6,350.2,321.8,346,322.1,341.1z M331.2,337.6
	c-2.2-0.1-4.2,1.6-4.3,3.8c-0.1,2.2,1.6,4.2,3.8,4.3s4.2-1.6,4.3-3.8C335.1,339.7,333.4,337.7,331.2,337.6z"/>
<linearGradient id="SVGID_00000157270370128004297490000007741414157049699730_" gradientUnits="userSpaceOnUse" x1="-10181.6777" y1="1368.978" x2="-10166.918" y2="1383.738" gradientTransform="matrix(5.704123e-02 -0.9984 0.9984 5.704123e-02 -334.9345 -10124.0303)">
	<stop  offset="0.1" style="stop-color:#5B5A72"/>
	<stop  offset="0.5" style="stop-color:#B0B0BF"/>
	<stop  offset="0.96" style="stop-color:#F4F4F6"/>
</linearGradient>
<path style="opacity:0.1;fill:url(#SVGID_00000157270370128004297490000007741414157049699730_);enable-background:new    ;" d="
	M450.3,111.7c0.3-4.9,4.5-8.6,9.4-8.4c4.9,0.3,8.6,4.5,8.4,9.4c-0.3,4.9-4.5,8.6-9.4,8.4C453.8,120.8,450,116.6,450.3,111.7z
	 M459.4,108.2c-2.2-0.1-4.2,1.6-4.3,3.9c-0.1,2.3,1.6,4.2,3.8,4.3l0,0c2.3,0.1,4.2-1.6,4.3-3.8l0,0
	C463.4,110.2,461.7,108.3,459.4,108.2L459.4,108.2z"/>
<linearGradient id="SVGID_00000165926895385726167360000007347751649646623124_" gradientUnits="userSpaceOnUse" x1="-10448.4434" y1="929.2148" x2="-10418.2334" y2="959.4247" gradientTransform="matrix(5.704123e-02 -0.9984 0.9984 5.704123e-02 -334.9345 -10124.0303)">
	<stop  offset="0.1" style="stop-color:#5B5A72"/>
	<stop  offset="0.5" style="stop-color:#B0B0BF"/>
	<stop  offset="0.96" style="stop-color:#F4F4F6"/>
</linearGradient>
<path style="opacity:0.1;fill:url(#SVGID_00000165926895385726167360000007347751649646623124_);enable-background:new    ;" d="
	M-4.7,344.8c0.6-10,9.2-17.7,19.2-17.1s17.7,9.2,17.1,19.2c-0.6,10-9.2,17.7-19.2,17.1S-5.3,354.8-4.7,344.8L-4.7,344.8z
	 M13.9,337.5c-4.6-0.3-8.6,3.3-8.8,7.9s3.3,8.6,7.9,8.8c4.6,0.3,8.6-3.3,8.8-7.9C22,341.7,18.5,337.7,13.9,337.5z"/>
<linearGradient id="SVGID_00000160892169128168944710000006918479389802436025_" gradientUnits="userSpaceOnUse" x1="-9543.6143" y1="82.0232" x2="-9481.6885" y2="143.9482" gradientTransform="matrix(0.5221 -0.8529 0.8529 0.5221 4888.2422 -8065.7749)">
	<stop  offset="0.1" style="stop-color:#5B5A72"/>
	<stop  offset="0.5" style="stop-color:#B0B0BF"/>
	<stop  offset="0.96" style="stop-color:#F4F4F6"/>
</linearGradient>
<path style="opacity:0.1;fill:url(#SVGID_00000160892169128168944710000006918479389802436025_);enable-background:new    ;" d="
	M60.3,102.2l-26.4,43.2c-2.3,3.8-7.2,4.9-11,2.6l-43.2-26.4c-3.8-2.3-4.9-7.2-2.6-11L3.5,67.4c2.3-3.8,7.2-4.9,11-2.6l43.2,26.4
	C61.4,93.5,62.6,98.4,60.3,102.2L60.3,102.2z M24.4,130.2l18.1-29.6L12.9,82.5l-18.1,29.6L24.4,130.2L24.4,130.2z"/>
<linearGradient id="SVGID_00000041989279282959470610000008561004784331522731_" gradientUnits="userSpaceOnUse" x1="-4995.2344" y1="8580.8076" x2="-4965.8115" y2="8610.2324" gradientTransform="matrix(0.9184 0.3957 -0.3957 0.9184 8090.7666 -5627.7632)">
	<stop  offset="0.1" style="stop-color:#5B5A72"/>
	<stop  offset="0.5" style="stop-color:#B0B0BF"/>
	<stop  offset="0.96" style="stop-color:#F4F4F6"/>
</linearGradient>
<path style="opacity:0.1;fill:url(#SVGID_00000041989279282959470610000008561004784331522731_);enable-background:new    ;" d="
	M120.1,314.6L98,305.1c-1.9-0.8-2.8-3.1-2-5l9.5-22.1c0.8-1.9,3.1-2.8,5-2l22.1,9.5c1.9,0.8,2.8,3.1,2,5l-9.5,22.1
	C124.2,314.6,122,315.4,120.1,314.6z M104.4,299.6l15.1,6.5L126,291l-15.1-6.5L104.4,299.6z"/>
<linearGradient id="SVGID_00000124148595475835105750000012970244771233130936_" gradientUnits="userSpaceOnUse" x1="-4978.4473" y1="8754.2314" x2="-4963.7778" y2="8768.9004" gradientTransform="matrix(0.9184 0.3957 -0.3957 0.9184 8090.7666 -5627.7632)">
	<stop  offset="0.1" style="stop-color:#5B5A72"/>
	<stop  offset="0.5" style="stop-color:#B0B0BF"/>
	<stop  offset="0.96" style="stop-color:#F4F4F6"/>
</linearGradient>
<path style="opacity:0.1;fill:url(#SVGID_00000124148595475835105750000012970244771233130936_);enable-background:new    ;" d="
	M60.6,461.2l-11-4.8c-1-0.4-1.4-1.5-1-2.5l4.8-11c0.4-1,1.5-1.4,2.5-1l11,4.8c1,0.4,1.4,1.5,1,2.5l-4.8,11
	C62.6,461.2,61.5,461.6,60.6,461.2z M52.8,453.7l7.5,3.2l3.2-7.6l-7.5-3.2L52.8,453.7z"/>
<linearGradient id="SVGID_00000054985812586191055000000003501266952137137540_" gradientUnits="userSpaceOnUse" x1="307.8469" y1="8546.498" x2="340.8406" y2="8579.4922" gradientTransform="matrix(0.4349 0.9005 -0.9005 0.4349 7788.1768 -3829.5005)">
	<stop  offset="0.1" style="stop-color:#5B5A72"/>
	<stop  offset="0.5" style="stop-color:#B0B0BF"/>
	<stop  offset="0.96" style="stop-color:#F4F4F6"/>
</linearGradient>
<path style="opacity:0.1;fill:url(#SVGID_00000054985812586191055000000003501266952137137540_);enable-background:new    ;" d="
	M208.2,206.2l-11.7-24.3c-1-2.1-0.1-4.7,2-5.7l24.3-11.7c2.1-1,4.7-0.1,5.7,2l11.7,24.3c1,2.1,0.1,4.7-2,5.7l-24.3,11.7
	C211.7,209.2,209.2,208.3,208.2,206.2z M205.9,182l8,16.6l16.6-8l-8-16.6L205.9,182z"/>
<linearGradient id="SVGID_00000158735279567402003790000012575803356596632743_" gradientUnits="userSpaceOnUse" x1="420.8451" y1="8453.1211" x2="435.6961" y2="8467.9619" gradientTransform="matrix(0.4349 0.9005 -0.9005 0.4349 7788.1768 -3829.5005)">
	<stop  offset="0.1" style="stop-color:#5B5A72"/>
	<stop  offset="0.5" style="stop-color:#B0B0BF"/>
	<stop  offset="0.96" style="stop-color:#F4F4F6"/>
</linearGradient>
<path style="opacity:0.1;fill:url(#SVGID_00000158735279567402003790000012575803356596632743_);enable-background:new    ;" d="
	M351.3,244.3l-5.3-10.9c-0.5-1-0.1-2.1,0.9-2.5l10.9-5.3c1-0.5,2.1-0.1,2.5,0.9l5.3,10.9c0.5,1,0.1,2.1-0.9,2.5l-10.9,5.3
	C352.9,245.7,351.7,245.3,351.3,244.3z M350.3,233.4l3.6,7.5l7.5-3.6l-3.6-7.5L350.3,233.4z"/>
<linearGradient id="SVGID_00000068659861167969987450000017246817475853553285_" gradientUnits="userSpaceOnUse" x1="232.09" y1="8316.7666" x2="252.192" y2="8336.8682" gradientTransform="matrix(0.4349 0.9005 -0.9005 0.4349 7788.1768 -3829.5005)">
	<stop  offset="0.1" style="stop-color:#5B5A72"/>
	<stop  offset="0.5" style="stop-color:#B0B0BF"/>
	<stop  offset="0.96" style="stop-color:#F4F4F6"/>
</linearGradient>
<path style="opacity:0.1;fill:url(#SVGID_00000068659861167969987450000017246817475853553285_);enable-background:new    ;" d="
	M389.1,21.7L382,6.9c-0.6-1.3-0.1-2.8,1.2-3.5L398-3.8c1.3-0.6,2.8-0.1,3.5,1.2l7.1,14.8c0.6,1.3,0.1,2.8-1.2,3.5l-14.8,7.2
	C391.3,23.5,389.8,23,389.1,21.7z M387.8,7l4.9,10.1l10.1-4.9l-4.9-10.1L387.8,7z"/>
</svg>
