<?xml version="1.0" encoding="utf-8"?>
<!-- Generator: Adobe Illustrator 27.9.0, SVG Export Plug-In . SVG Version: 6.00 Build 0)  -->
<svg version="1.1" id="Calque_1" xmlns="http://www.w3.org/2000/svg" xmlns:xlink="http://www.w3.org/1999/xlink" x="0px" y="0px"
	 viewBox="0 0 841.9 595.3" style="enable-background:new 0 0 841.9 595.3;" xml:space="preserve">
<style type="text/css">
	.st0{opacity:0.1;fill:url(#SVGID_1_);enable-background:new    ;}
	.st1{opacity:0.1;fill:url(#SVGID_00000070837375680265276290000009536825645283003293_);enable-background:new    ;}
	.st2{opacity:0.1;fill:url(#SVGID_00000175315869115020267680000017242190292373766837_);enable-background:new    ;}
	.st3{opacity:0.1;fill:url(#SVGID_00000047754374470700476440000003847376119749442199_);enable-background:new    ;}
	.st4{opacity:0.1;fill:url(#SVGID_00000109749464207758046200000014312327820949623445_);enable-background:new    ;}
	.st5{opacity:0.1;fill:url(#SVGID_00000164484924470809933110000005079079807592374206_);enable-background:new    ;}
	.st6{opacity:0.1;fill:url(#SVGID_00000042700116711119988610000010361545813797344417_);enable-background:new    ;}
	.st7{opacity:0.1;fill:url(#SVGID_00000132766838492909029210000011152398519372059831_);enable-background:new    ;}
	.st8{opacity:0.1;fill:url(#SVGID_00000158722017341165849010000016662563618804307854_);enable-background:new    ;}
	.st9{opacity:0.1;fill:url(#SVGID_00000011731964642799307050000013851906856630232194_);enable-background:new    ;}
	.st10{opacity:0.1;fill:url(#SVGID_00000173877227993458980050000005907143405118735778_);enable-background:new    ;}
	.st11{opacity:0.1;fill:url(#SVGID_00000089571393394469451280000017246509281868023177_);enable-background:new    ;}
	.st12{opacity:0.1;fill:url(#SVGID_00000029043518801055168910000001083650825317796268_);enable-background:new    ;}
	.st13{opacity:0.1;fill:url(#SVGID_00000036952028089539217430000004794850009891021198_);enable-background:new    ;}
	.st14{opacity:0.1;fill:url(#SVGID_00000157299243470419139230000014850162797208465826_);enable-background:new    ;}
	.st15{opacity:0.1;fill:url(#SVGID_00000067227135609490916040000010479114863085990274_);enable-background:new    ;}
	.st16{opacity:0.1;fill:url(#SVGID_00000164480532600500470150000015946730178857607867_);enable-background:new    ;}
</style>
<linearGradient id="SVGID_1_" gradientUnits="userSpaceOnUse" x1="-2472.1587" y1="-489.7806" x2="-2422.0645" y2="-439.6862" gradientTransform="matrix(0.2333 0.9724 0.9724 -0.2333 1174.8468 2794.3713)">
	<stop  offset="0.1" style="stop-color:#5B5A72"/>
	<stop  offset="0.5" style="stop-color:#B0B0BF"/>
	<stop  offset="0.96" style="stop-color:#F4F4F6"/>
</linearGradient>
<path class="st0" d="M176.5,546.9c0.4,1.3,0.3,2.7-0.1,4c-1.2,4.1-5.5,6.4-9.6,5.2l-55-16.3c-2.6-0.8-4.7-2.9-5.3-5.6
	s0.2-5.5,2.2-7.4l41.6-39.5c1-0.9,2.2-1.6,3.5-1.9c4.1-1,8.3,1.6,9.3,5.7L176.5,546.9L176.5,546.9z M151.3,507.7l-22.2,21.1
	l29.3,8.7L151.3,507.7L151.3,507.7z"/>
<linearGradient id="SVGID_00000092447384255652798460000012024127651141568183_" gradientUnits="userSpaceOnUse" x1="3002.6707" y1="10588.0684" x2="3035.1921" y2="10620.5908" gradientTransform="matrix(0.7517 -0.6595 -0.6595 -0.7517 4766.146 10301.8389)">
	<stop  offset="0.1" style="stop-color:#5B5A72"/>
	<stop  offset="0.5" style="stop-color:#B0B0BF"/>
	<stop  offset="0.96" style="stop-color:#F4F4F6"/>
</linearGradient>
<path style="opacity:0.1;fill:url(#SVGID_00000092447384255652798460000012024127651141568183_);enable-background:new    ;" d="
	M48.2,318c1.3-1.2,3.2-1.6,4.8-1.1c1.7,0.6,2.9,2,3.3,3.8l7.3,36.5c0.4,1.8-0.3,3.6-1.6,4.8c-1.3,1.2-3.2,1.6-4.9,1l-35.2-12
	c-0.9-0.2-1.6-0.7-2.2-1.4c-1.8-2.1-1.6-5.3,0.5-7.1L48.2,318L48.2,318z M52.2,350.8l-3.9-19.5l-14.9,13.1L52.2,350.8z"/>
<linearGradient id="SVGID_00000111881055022348103090000017041991811051700121_" gradientUnits="userSpaceOnUse" x1="10427.0957" y1="6018.3027" x2="10449.3828" y2="6040.5894" gradientTransform="matrix(-0.3928 -0.9196 -0.9196 0.3928 9874.6797 7577.2358)">
	<stop  offset="0.1" style="stop-color:#5B5A72"/>
	<stop  offset="0.5" style="stop-color:#B0B0BF"/>
	<stop  offset="0.96" style="stop-color:#F4F4F6"/>
</linearGradient>
<path style="opacity:0.1;fill:url(#SVGID_00000111881055022348103090000017041991811051700121_);enable-background:new    ;" d="
	M217.4,338c-0.2-0.6-0.3-1.2-0.3-1.7c0.2-1.9,1.9-3.2,3.8-3l25.3,3c0.6,0.1,1.2,0.3,1.7,0.7c1.5,1.1,1.8,3.3,0.7,4.8l-15.3,20.4
	c-0.4,0.5-0.8,0.9-1.4,1.1c-1.7,0.8-3.8-0.1-4.5-1.8L217.4,338L217.4,338z M231.4,353.2l8.2-10.9l-13.5-1.6L231.4,353.2L231.4,353.2
	z"/>
<linearGradient id="SVGID_00000083801247420339388900000016135558499505823895_" gradientUnits="userSpaceOnUse" x1="10558.627" y1="6027.8398" x2="10572.4736" y2="6041.687" gradientTransform="matrix(-0.3928 -0.9196 -0.9196 0.3928 9874.6797 7577.2358)">
	<stop  offset="0.1" style="stop-color:#5B5A72"/>
	<stop  offset="0.5" style="stop-color:#B0B0BF"/>
	<stop  offset="0.96" style="stop-color:#F4F4F6"/>
</linearGradient>
<path style="opacity:0.1;fill:url(#SVGID_00000083801247420339388900000016135558499505823895_);enable-background:new    ;" d="
	M167.2,226.3c-0.3-0.7-0.2-1.5,0.3-2.2c0.5-0.6,1.2-0.9,2-0.8l15.7,1.9c0.3,0,0.7,0.2,1,0.4c0.9,0.7,1.1,2.1,0.4,3l-9.5,12.7
	c-0.3,0.3-0.6,0.6-0.9,0.7c-1.1,0.5-2.3,0-2.8-1.1L167.2,226.3L167.2,226.3z M181,229l-8.4-1l3.3,7.8L181,229z"/>
<linearGradient id="SVGID_00000024682235831237125130000016286406076473530787_" gradientUnits="userSpaceOnUse" x1="3726.155" y1="-4154.4087" x2="3747.5105" y2="-4133.0435" gradientTransform="matrix(-0.7213 0.6926 0.6926 0.7213 5887.4004 876.6046)">
	<stop  offset="0.1" style="stop-color:#5B5A72"/>
	<stop  offset="0.5" style="stop-color:#B0B0BF"/>
	<stop  offset="0.96" style="stop-color:#F4F4F6"/>
</linearGradient>
<path style="opacity:0.1;fill:url(#SVGID_00000024682235831237125130000016286406076473530787_);enable-background:new    ;" d="
	M318.7,490c-0.9,0.8-2.1,1.1-3.3,0.8c-1.2-0.4-2-1.3-2.3-2.4l-5.8-23.7c-0.3-1.2,0-2.4,0.9-3.2c0.9-0.8,2.1-1.1,3.2-0.8l23.5,6.8
	c1.2,0.4,2,1.3,2.3,2.4c0.3,1.2,0,2.4-0.9,3.2L318.7,490L318.7,490z M327.6,472.2l-12.5-3.7l3.1,12.7L327.6,472.2L327.6,472.2z"/>
<linearGradient id="SVGID_00000044863388642120383890000003519203579433439370_" gradientUnits="userSpaceOnUse" x1="1735.5652" y1="2377.4866" x2="1801.5552" y2="2443.4866" gradientTransform="matrix(-0.9596 -0.2813 -0.2813 0.9596 2429.8879 -1239.2225)">
	<stop  offset="0.1" style="stop-color:#5B5A72"/>
	<stop  offset="0.5" style="stop-color:#B0B0BF"/>
	<stop  offset="0.96" style="stop-color:#F4F4F6"/>
</linearGradient>
<path style="opacity:0.1;fill:url(#SVGID_00000044863388642120383890000003519203579433439370_);enable-background:new    ;" d="
	M64,539.3c21,6.2,33,28.3,26.9,49.3s-28.2,33.1-49.2,26.9s-33-28.3-26.9-49.3S43,533.1,64,539.3L64,539.3z M47.7,595
	c9.7,2.8,19.9-2.7,22.7-12.4s-2.7-19.9-12.4-22.7s-19.9,2.7-22.7,12.4C32.5,581.9,38.1,592.1,47.7,595z"/>
<linearGradient id="SVGID_00000152953286909957564810000014712145594288747966_" gradientUnits="userSpaceOnUse" x1="1549.5945" y1="2327.3374" x2="1597.3044" y2="2375.0574" gradientTransform="matrix(-0.9596 -0.2813 -0.2813 0.9596 2429.8879 -1239.2225)">
	<stop  offset="0.1" style="stop-color:#5B5A72"/>
	<stop  offset="0.5" style="stop-color:#B0B0BF"/>
	<stop  offset="0.96" style="stop-color:#F4F4F6"/>
</linearGradient>
<path style="opacity:0.1;fill:url(#SVGID_00000152953286909957564810000014712145594288747966_);enable-background:new    ;" d="
	M284.8,583.2c-4.5,15.2-20.4,24-35.6,19.5c-15.2-4.4-24-20.4-19.5-35.6c4.4-15.3,20.4-24,35.6-19.5
	C280.5,552.1,289.3,568,284.8,583.2z M253.6,587.8c7,2,14.4-2,16.4-9s-2-14.4-9-16.4s-14.4,2-16.4,9S246.6,585.7,253.6,587.8z"/>
<linearGradient id="SVGID_00000181803688038344144820000018215562874397834629_" gradientUnits="userSpaceOnUse" x1="-10054.7285" y1="734.6669" x2="-10010.0693" y2="779.3268" gradientTransform="matrix(5.704123e-02 0.9984 0.9984 -5.704123e-02 -88.9346 10471.2764)">
	<stop  offset="0.1" style="stop-color:#5B5A72"/>
	<stop  offset="0.5" style="stop-color:#B0B0BF"/>
	<stop  offset="0.96" style="stop-color:#F4F4F6"/>
</linearGradient>
<path style="opacity:0.1;fill:url(#SVGID_00000181803688038344144820000018215562874397834629_);enable-background:new    ;" d="
	M68.8,414.2c-0.8-14.8,10.5-27.6,25.3-28.4s27.5,10.5,28.3,25.3c0.8,14.9-10.5,27.5-25.3,28.4C82.3,440.3,69.6,429,68.8,414.2
	L68.8,414.2z M107.9,412c-0.3-6.8-6.2-12-13-11.6c-6.8,0.3-12,6.2-11.6,13c0.3,6.8,6.2,12,13,11.6
	C103.1,424.6,108.3,418.8,107.9,412z"/>
<linearGradient id="SVGID_00000160186218237670902340000015954104223823857557_" gradientUnits="userSpaceOnUse" x1="-10186.4131" y1="994.4214" x2="-10171.6934" y2="1009.1414" gradientTransform="matrix(5.704123e-02 0.9984 0.9984 -5.704123e-02 -88.9346 10471.2764)">
	<stop  offset="0.1" style="stop-color:#5B5A72"/>
	<stop  offset="0.5" style="stop-color:#B0B0BF"/>
	<stop  offset="0.96" style="stop-color:#F4F4F6"/>
</linearGradient>
<path style="opacity:0.1;fill:url(#SVGID_00000160186218237670902340000015954104223823857557_);enable-background:new    ;" d="
	M330.4,242.8c4.8-0.3,9,3.5,9.3,8.3s-3.4,9-8.3,9.3c-4.8,0.3-9-3.4-9.3-8.3C321.8,247.2,325.6,243,330.4,242.8z M335,251.3
	c-0.1-2.2-2.1-3.9-4.3-3.8s-3.9,2.1-3.8,4.3s2.1,3.9,4.3,3.8C333.4,255.5,335.1,253.5,335,251.3z"/>
<linearGradient id="SVGID_00000059310718838713121280000012227004547739729046_" gradientUnits="userSpaceOnUse" x1="-9950.1406" y1="1109.3785" x2="-9935.3809" y2="1124.1385" gradientTransform="matrix(5.704123e-02 0.9984 0.9984 -5.704123e-02 -88.9346 10471.2764)">
	<stop  offset="0.1" style="stop-color:#5B5A72"/>
	<stop  offset="0.5" style="stop-color:#B0B0BF"/>
	<stop  offset="0.96" style="stop-color:#F4F4F6"/>
</linearGradient>
<path style="opacity:0.1;fill:url(#SVGID_00000059310718838713121280000012227004547739729046_);enable-background:new    ;" d="
	M458.7,472.1c4.9-0.2,9.1,3.5,9.4,8.4c0.2,4.9-3.5,9.1-8.4,9.4c-4.9,0.2-9.1-3.5-9.4-8.4S453.8,472.4,458.7,472.1z M459.4,485
	c2.3-0.1,4-2,3.8-4.4l0,0c-0.1-2.2-2-3.9-4.3-3.8l0,0c-2.2,0.1-3.9,2-3.8,4.3S457.2,485.1,459.4,485L459.4,485z"/>
<linearGradient id="SVGID_00000082352802875750653640000012546097214657383346_" gradientUnits="userSpaceOnUse" x1="-10216.9062" y1="669.6153" x2="-10186.6963" y2="699.8252" gradientTransform="matrix(5.704123e-02 0.9984 0.9984 -5.704123e-02 -88.9346 10471.2764)">
	<stop  offset="0.1" style="stop-color:#5B5A72"/>
	<stop  offset="0.5" style="stop-color:#B0B0BF"/>
	<stop  offset="0.96" style="stop-color:#F4F4F6"/>
</linearGradient>
<path style="opacity:0.1;fill:url(#SVGID_00000082352802875750653640000012546097214657383346_);enable-background:new    ;" d="
	M-4.7,248.4c-0.6-10,7.1-18.6,17.1-19.2s18.6,7.1,19.2,17.1c0.6,10-7.1,18.6-17.1,19.2S-4.1,258.4-4.7,248.4L-4.7,248.4z
	 M21.8,246.9c-0.2-4.6-4.2-8.2-8.8-7.9c-4.6,0.2-8.1,4.2-7.9,8.8s4.2,8.2,8.8,7.9C18.5,255.5,22,251.5,21.8,246.9z"/>
<linearGradient id="SVGID_00000034799145925333742720000008791830272325932163_" gradientUnits="userSpaceOnUse" x1="-9462.2715" y1="-256.1855" x2="-9400.3457" y2="-194.2605" gradientTransform="matrix(0.5221 0.8529 0.8529 -0.5221 5134.2422 8413.0215)">
	<stop  offset="0.1" style="stop-color:#5B5A72"/>
	<stop  offset="0.5" style="stop-color:#B0B0BF"/>
	<stop  offset="0.96" style="stop-color:#F4F4F6"/>
</linearGradient>
<path style="opacity:0.1;fill:url(#SVGID_00000034799145925333742720000008791830272325932163_);enable-background:new    ;" d="
	M60.3,491c2.3,3.8,1.1,8.7-2.6,11l-43.2,26.4c-3.8,2.3-8.7,1.2-11-2.6l-26.4-43.2c-2.3-3.8-1.2-8.7,2.6-11l43.2-26.4
	c3.8-2.3,8.7-1.2,11,2.6L60.3,491L60.3,491z M24.4,463l-29.6,18.1l18.1,29.6l29.6-18.1L24.4,463L24.4,463z"/>
<linearGradient id="SVGID_00000132056956956347899720000006313466367068609450_" gradientUnits="userSpaceOnUse" x1="-5318.5034" y1="8452.2412" x2="-5289.0806" y2="8481.665" gradientTransform="matrix(0.9184 -0.3957 -0.3957 -0.9184 8336.7676 5975.0098)">
	<stop  offset="0.1" style="stop-color:#5B5A72"/>
	<stop  offset="0.5" style="stop-color:#B0B0BF"/>
	<stop  offset="0.96" style="stop-color:#F4F4F6"/>
</linearGradient>
<path style="opacity:0.1;fill:url(#SVGID_00000132056956956347899720000006313466367068609450_);enable-background:new    ;" d="
	M125.1,280.6l9.5,22.1c0.8,1.9-0.1,4.2-2,5l-22.1,9.5c-1.9,0.8-4.2-0.1-5-2L96,293.1c-0.8-1.9,0.1-4.2,2-5l22.1-9.5
	C122,277.8,124.2,278.6,125.1,280.6z M110.9,308.7l15.1-6.5l-6.5-15.1l-15.1,6.5L110.9,308.7z"/>
<linearGradient id="SVGID_00000169526801649832982600000004184501982344473252_" gradientUnits="userSpaceOnUse" x1="-5301.7163" y1="8625.6641" x2="-5287.0469" y2="8640.333" gradientTransform="matrix(0.9184 -0.3957 -0.3957 -0.9184 8336.7676 5975.0098)">
	<stop  offset="0.1" style="stop-color:#5B5A72"/>
	<stop  offset="0.5" style="stop-color:#B0B0BF"/>
	<stop  offset="0.96" style="stop-color:#F4F4F6"/>
</linearGradient>
<path style="opacity:0.1;fill:url(#SVGID_00000169526801649832982600000004184501982344473252_);enable-background:new    ;" d="
	M63.1,133l4.8,11c0.4,1,0,2.1-1,2.5l-11,4.8c-1,0.4-2.1,0-2.5-1l-4.8-11c-0.4-1,0-2.1,1-2.5l11-4.8C61.5,131.6,62.6,132,63.1,133z
	 M56,147.1l7.5-3.2l-3.2-7.6l-7.5,3.2L56,147.1z"/>
<linearGradient id="SVGID_00000016076732487770811830000009473901086034103189_" gradientUnits="userSpaceOnUse" x1="-20.6379" y1="8661.0205" x2="12.3558" y2="8694.0146" gradientTransform="matrix(0.4349 -0.9005 -0.9005 -0.4349 8034.1768 4176.7471)">
	<stop  offset="0.1" style="stop-color:#5B5A72"/>
	<stop  offset="0.5" style="stop-color:#B0B0BF"/>
	<stop  offset="0.96" style="stop-color:#F4F4F6"/>
</linearGradient>
<path style="opacity:0.1;fill:url(#SVGID_00000016076732487770811830000009473901086034103189_);enable-background:new    ;" d="
	M213.9,385l24.3,11.7c2.1,1,3,3.6,2,5.7l-11.7,24.3c-1,2.1-3.6,3-5.7,2L198.5,417c-2.1-1-3-3.6-2-5.7l11.7-24.3
	C209.2,384.9,211.7,384,213.9,385z M222.5,419.2l8-16.6l-16.6-8l-8,16.6L222.5,419.2z"/>
<linearGradient id="SVGID_00000109721990202933146530000003326137842877215664_" gradientUnits="userSpaceOnUse" x1="92.3601" y1="8567.6436" x2="107.211" y2="8582.4844" gradientTransform="matrix(0.4349 -0.9005 -0.9005 -0.4349 8034.1768 4176.7471)">
	<stop  offset="0.1" style="stop-color:#5B5A72"/>
	<stop  offset="0.5" style="stop-color:#B0B0BF"/>
	<stop  offset="0.96" style="stop-color:#F4F4F6"/>
</linearGradient>
<path style="opacity:0.1;fill:url(#SVGID_00000109721990202933146530000003326137842877215664_);enable-background:new    ;" d="
	M353.8,348l10.9,5.3c1,0.4,1.4,1.5,0.9,2.5l-5.3,10.9c-0.4,1-1.5,1.4-2.5,0.9l-10.9-5.3c-1-0.4-1.4-1.5-0.9-2.5l5.3-10.9
	C351.7,347.9,352.9,347.5,353.8,348z M357.8,363.4l3.6-7.5l-7.5-3.6l-3.6,7.5L357.8,363.4z"/>
<linearGradient id="SVGID_00000005230431239502681030000009335705147164862880_" gradientUnits="userSpaceOnUse" x1="-96.395" y1="8431.2891" x2="-76.293" y2="8451.3906" gradientTransform="matrix(0.4349 -0.9005 -0.9005 -0.4349 8034.1768 4176.7471)">
	<stop  offset="0.1" style="stop-color:#5B5A72"/>
	<stop  offset="0.5" style="stop-color:#B0B0BF"/>
	<stop  offset="0.96" style="stop-color:#F4F4F6"/>
</linearGradient>
<path style="opacity:0.1;fill:url(#SVGID_00000005230431239502681030000009335705147164862880_);enable-background:new    ;" d="
	M392.6,570.3l14.8,7.2c1.3,0.7,1.8,2.2,1.2,3.5l-7.1,14.8c-0.7,1.3-2.2,1.8-3.5,1.2l-14.8-7.2c-1.3-0.7-1.8-2.2-1.2-3.5l7.1-14.8
	C389.8,570.2,391.3,569.7,392.6,570.3z M397.9,591.1l4.9-10.1l-10.1-4.9l-4.9,10.1L397.9,591.1z"/>
</svg>
