<?xml version="1.0" encoding="utf-8"?>
<!-- Generator: Adobe Illustrator 27.8.1, SVG Export Plug-In . SVG Version: 6.00 Build 0)  -->
<svg version="1.1" id="Calque_1" xmlns="http://www.w3.org/2000/svg" xmlns:xlink="http://www.w3.org/1999/xlink" x="0px" y="0px"
	 viewBox="0 0 841.9 595.3" style="enable-background:new 0 0 841.9 595.3;" xml:space="preserve">
<style type="text/css">
	.st0{opacity:0.1;fill:url(#SVGID_1_);enable-background:new    ;}
	.st1{opacity:0.1;fill:url(#SVGID_00000043431000892798524870000013646698988761008536_);enable-background:new    ;}
	.st2{opacity:0.1;fill:url(#SVGID_00000155134254196957765430000002945533320609835421_);enable-background:new    ;}
	.st3{opacity:0.1;fill:url(#SVGID_00000010297280531324184980000001198579435579443074_);enable-background:new    ;}
	.st4{opacity:0.1;fill:url(#SVGID_00000039099049720526494120000008808732394330113921_);enable-background:new    ;}
	.st5{opacity:0.1;fill:url(#SVGID_00000008829128714229208760000017902900538838445706_);enable-background:new    ;}
	.st6{opacity:0.1;fill:url(#SVGID_00000119087499208892010380000010381970467755058338_);enable-background:new    ;}
	.st7{opacity:0.1;fill:url(#SVGID_00000083085523654756766520000012982496708826815886_);enable-background:new    ;}
	.st8{opacity:0.1;fill:url(#SVGID_00000106865887620670169330000012451504000248982928_);enable-background:new    ;}
	.st9{opacity:0.1;fill:url(#SVGID_00000135666563583868580500000000070984376128652720_);enable-background:new    ;}
	.st10{opacity:0.1;fill:url(#SVGID_00000181085897744298598880000000611623584241907881_);enable-background:new    ;}
	.st11{opacity:0.1;fill:url(#SVGID_00000029724753838418738450000005538245800427699089_);enable-background:new    ;}
	.st12{opacity:0.1;fill:url(#SVGID_00000070084982688878356920000013454468015572151485_);enable-background:new    ;}
	.st13{opacity:0.1;fill:url(#SVGID_00000132046744616645422640000013639405017289184410_);enable-background:new    ;}
	.st14{opacity:0.1;fill:url(#SVGID_00000075847482079559361420000015241890721427600037_);enable-background:new    ;}
	.st15{opacity:0.1;fill:url(#SVGID_00000042704263973896502350000002323782500069389465_);enable-background:new    ;}
	.st16{opacity:0.1;fill:url(#SVGID_00000080904837211742733280000007266006052949937034_);enable-background:new    ;}
</style>
<linearGradient id="SVGID_1_" gradientUnits="userSpaceOnUse" x1="-1814.7407" y1="170.4369" x2="-1764.6465" y2="220.5312" gradientTransform="matrix(-0.2333 0.9724 -0.9724 -0.2333 462.4451 2311.2141)">
	<stop  offset="0.1" style="stop-color:#5B5A72"/>
	<stop  offset="0.5" style="stop-color:#B0B0BF"/>
	<stop  offset="0.96" style="stop-color:#F4F4F6"/>
</linearGradient>
<path class="st0" d="M665.4,549l13.4-55.8c1-4.1,5.2-6.7,9.3-5.7c1.3,0.3,2.5,1,3.5,1.9l41.6,39.5c2,1.9,2.8,4.7,2.2,7.4
	s-2.7,4.8-5.3,5.6l-55,16.3c-4.1,1.2-8.4-1.1-9.6-5.2C665.1,551.7,665,550.3,665.4,549L665.4,549z M690.6,509.8l-7.1,29.8l29.3-8.7
	L690.6,509.8L690.6,509.8z"/>
<linearGradient id="SVGID_00000165216445216005251110000007352117016334935446_" gradientUnits="userSpaceOnUse" x1="3641.1934" y1="9916.4326" x2="3673.7148" y2="9948.9551" gradientTransform="matrix(-0.7517 -0.6595 0.6595 -0.7517 -3001.3276 10220.1299)">
	<stop  offset="0.1" style="stop-color:#5B5A72"/>
	<stop  offset="0.5" style="stop-color:#B0B0BF"/>
	<stop  offset="0.96" style="stop-color:#F4F4F6"/>
</linearGradient>
<path style="opacity:0.1;fill:url(#SVGID_00000165216445216005251110000007352117016334935446_);enable-background:new    ;" d="
	M793.7,320.1l28,24.5c2.1,1.8,2.3,5,0.5,7.1c-0.6,0.7-1.3,1.2-2.2,1.4l-35.2,12c-1.7,0.6-3.6,0.2-4.9-1c-1.3-1.2-2-3-1.6-4.8
	l7.3-36.5c0.4-1.8,1.6-3.2,3.3-3.8C790.5,318.5,792.4,318.9,793.7,320.1L793.7,320.1z M808.5,346.5l-14.9-13.1l-3.9,19.5
	L808.5,346.5z"/>
<linearGradient id="SVGID_00000100343086978260991760000010123231000578105479_" gradientUnits="userSpaceOnUse" x1="10156.9346" y1="5436.272" x2="10179.2217" y2="5458.5586" gradientTransform="matrix(0.3928 -0.9196 0.9196 0.3928 -8391.4092 7559.5107)">
	<stop  offset="0.1" style="stop-color:#5B5A72"/>
	<stop  offset="0.5" style="stop-color:#B0B0BF"/>
	<stop  offset="0.96" style="stop-color:#F4F4F6"/>
</linearGradient>
<path style="opacity:0.1;fill:url(#SVGID_00000100343086978260991760000010123231000578105479_);enable-background:new    ;" d="
	M624.5,340.1l-10,23.5c-0.7,1.7-2.8,2.6-4.5,1.8c-0.6-0.2-1-0.6-1.4-1.1l-15.3-20.4c-1.1-1.5-0.8-3.7,0.7-4.8
	c0.5-0.4,1.1-0.6,1.7-0.7l25.3-3c1.9-0.2,3.6,1.1,3.8,3C624.8,338.9,624.7,339.5,624.5,340.1L624.5,340.1z M610.5,355.3l5.3-12.5
	l-13.5,1.6L610.5,355.3L610.5,355.3z"/>
<linearGradient id="SVGID_00000161624478048656803030000013749184465900425089_" gradientUnits="userSpaceOnUse" x1="10288.4658" y1="5445.8086" x2="10302.3125" y2="5459.6558" gradientTransform="matrix(0.3928 -0.9196 0.9196 0.3928 -8391.4092 7559.5107)">
	<stop  offset="0.1" style="stop-color:#5B5A72"/>
	<stop  offset="0.5" style="stop-color:#B0B0BF"/>
	<stop  offset="0.96" style="stop-color:#F4F4F6"/>
</linearGradient>
<path style="opacity:0.1;fill:url(#SVGID_00000161624478048656803030000013749184465900425089_);enable-background:new    ;" d="
	M674.7,228.4l-6.2,14.6c-0.5,1.1-1.7,1.6-2.8,1.1c-0.3-0.1-0.6-0.4-0.9-0.7l-9.5-12.7c-0.7-0.9-0.5-2.3,0.4-3c0.3-0.2,0.7-0.4,1-0.4
	l15.7-1.9c0.8-0.1,1.5,0.2,2,0.8C674.9,226.9,675,227.7,674.7,228.4L674.7,228.4z M666,237.9l3.3-7.8l-8.4,1L666,237.9z"/>
<linearGradient id="SVGID_00000017506192226898679220000012830270538471622789_" gradientUnits="userSpaceOnUse" x1="3610.2034" y1="-3465.8079" x2="3631.5588" y2="-3444.4429" gradientTransform="matrix(0.7213 0.6926 -0.6926 0.7213 -4484.9404 462.2782)">
	<stop  offset="0.1" style="stop-color:#5B5A72"/>
	<stop  offset="0.5" style="stop-color:#B0B0BF"/>
	<stop  offset="0.96" style="stop-color:#F4F4F6"/>
</linearGradient>
<path style="opacity:0.1;fill:url(#SVGID_00000017506192226898679220000012830270538471622789_);enable-background:new    ;" d="
	M523.2,492.1l-17.6-16.9c-0.9-0.8-1.2-2-0.9-3.2c0.3-1.1,1.1-2,2.3-2.4l23.5-6.8c1.1-0.3,2.3,0,3.2,0.8s1.2,2,0.9,3.2l-5.8,23.7
	c-0.3,1.1-1.1,2-2.3,2.4C525.3,493.2,524.1,492.9,523.2,492.1L523.2,492.1z M514.3,474.3l9.4,9l3.1-12.7L514.3,474.3L514.3,474.3z"
	/>
<linearGradient id="SVGID_00000102540159930448415390000007165685028152413106_" gradientUnits="userSpaceOnUse" x1="1204.1219" y1="2405.9788" x2="1270.1119" y2="2471.9788" gradientTransform="matrix(0.9596 -0.2813 0.2813 0.9596 -1086.0497 -1413.9694)">
	<stop  offset="0.1" style="stop-color:#5B5A72"/>
	<stop  offset="0.5" style="stop-color:#B0B0BF"/>
	<stop  offset="0.96" style="stop-color:#F4F4F6"/>
</linearGradient>
<path style="opacity:0.1;fill:url(#SVGID_00000102540159930448415390000007165685028152413106_);enable-background:new    ;" d="
	M777.9,541.4c21-6.2,43.1,5.9,49.2,26.9s-5.9,43.1-26.9,49.3s-43.1-5.9-49.2-26.9S756.9,547.6,777.9,541.4L777.9,541.4z
	 M806.6,574.4c-2.8-9.7-13-15.2-22.7-12.4s-15.2,13-12.4,22.7s13,15.2,22.7,12.4C803.8,594.2,809.4,584,806.6,574.4z"/>
<linearGradient id="SVGID_00000114754260417837759670000009623106006191977091_" gradientUnits="userSpaceOnUse" x1="1018.1512" y1="2355.8296" x2="1065.8612" y2="2403.5496" gradientTransform="matrix(0.9596 -0.2813 0.2813 0.9596 -1086.0497 -1413.9694)">
	<stop  offset="0.1" style="stop-color:#5B5A72"/>
	<stop  offset="0.5" style="stop-color:#B0B0BF"/>
	<stop  offset="0.96" style="stop-color:#F4F4F6"/>
</linearGradient>
<path style="opacity:0.1;fill:url(#SVGID_00000114754260417837759670000009623106006191977091_);enable-background:new    ;" d="
	M576.6,549.7c15.2-4.5,31.2,4.2,35.6,19.5c4.5,15.2-4.3,31.2-19.5,35.6c-15.2,4.5-31.1-4.3-35.6-19.5S561.4,554.2,576.6,549.7z
	 M597.3,573.5c-2-7-9.4-11-16.4-9s-11,9.4-9,16.4s9.4,11,16.4,9C595.3,587.8,599.3,580.5,597.3,573.5z"/>
<linearGradient id="SVGID_00000060724075033550377920000015266515840211704488_" gradientUnits="userSpaceOnUse" x1="-9521.0176" y1="1457.3887" x2="-9476.3584" y2="1502.0486" gradientTransform="matrix(-5.704123e-02 0.9984 -0.9984 -5.704123e-02 1682.8666 9981.7236)">
	<stop  offset="0.1" style="stop-color:#5B5A72"/>
	<stop  offset="0.5" style="stop-color:#B0B0BF"/>
	<stop  offset="0.96" style="stop-color:#F4F4F6"/>
</linearGradient>
<path style="opacity:0.1;fill:url(#SVGID_00000060724075033550377920000015266515840211704488_);enable-background:new    ;" d="
	M773.1,416.3c-0.8,14.8-13.5,26.1-28.3,25.3c-14.8-0.9-26.1-13.5-25.3-28.4c0.8-14.8,13.5-26.1,28.3-25.3S773.9,401.5,773.1,416.3
	L773.1,416.3z M745.6,427.1c6.8,0.4,12.7-4.8,13-11.6c0.4-6.8-4.8-12.7-11.6-13c-6.8-0.4-12.7,4.8-13,11.6
	C733.6,420.9,738.8,426.7,745.6,427.1z"/>
<linearGradient id="SVGID_00000064355568901570744080000007097825372920661944_" gradientUnits="userSpaceOnUse" x1="-9652.7012" y1="1717.1433" x2="-9637.9814" y2="1731.8634" gradientTransform="matrix(-5.704123e-02 0.9984 -0.9984 -5.704123e-02 1682.8666 9981.7236)">
	<stop  offset="0.1" style="stop-color:#5B5A72"/>
	<stop  offset="0.5" style="stop-color:#B0B0BF"/>
	<stop  offset="0.96" style="stop-color:#F4F4F6"/>
</linearGradient>
<path style="opacity:0.1;fill:url(#SVGID_00000064355568901570744080000007097825372920661944_);enable-background:new    ;" d="
	M519.8,254.2c-0.3,4.9-4.5,8.6-9.3,8.3c-4.9-0.3-8.6-4.5-8.3-9.3s4.5-8.6,9.3-8.3C516.3,245.1,520.1,249.3,519.8,254.2z
	 M510.7,257.7c2.2,0.1,4.2-1.6,4.3-3.8s-1.6-4.2-3.8-4.3s-4.2,1.6-4.3,3.8C506.8,255.6,508.5,257.6,510.7,257.7z"/>
<linearGradient id="SVGID_00000080923318745560028930000013761633041101609383_" gradientUnits="userSpaceOnUse" x1="-9416.4297" y1="1832.1002" x2="-9401.6699" y2="1846.8604" gradientTransform="matrix(-5.704123e-02 0.9984 -0.9984 -5.704123e-02 1682.8666 9981.7236)">
	<stop  offset="0.1" style="stop-color:#5B5A72"/>
	<stop  offset="0.5" style="stop-color:#B0B0BF"/>
	<stop  offset="0.96" style="stop-color:#F4F4F6"/>
</linearGradient>
<path style="opacity:0.1;fill:url(#SVGID_00000080923318745560028930000013761633041101609383_);enable-background:new    ;" d="
	M391.6,483.6c-0.3,4.9-4.5,8.6-9.4,8.4c-4.9-0.3-8.6-4.5-8.4-9.4c0.3-4.9,4.5-8.6,9.4-8.4C388.1,474.5,391.9,478.7,391.6,483.6z
	 M382.5,487.1c2.2,0.1,4.2-1.6,4.3-3.9c0.1-2.3-1.6-4.2-3.8-4.3l0,0c-2.3-0.1-4.2,1.6-4.3,3.8l0,0
	C378.5,485.1,380.2,487,382.5,487.1L382.5,487.1z"/>
<linearGradient id="SVGID_00000135669170116710229410000002836869745191098773_" gradientUnits="userSpaceOnUse" x1="-9683.1953" y1="1392.337" x2="-9652.9854" y2="1422.547" gradientTransform="matrix(-5.704123e-02 0.9984 -0.9984 -5.704123e-02 1682.8666 9981.7236)">
	<stop  offset="0.1" style="stop-color:#5B5A72"/>
	<stop  offset="0.5" style="stop-color:#B0B0BF"/>
	<stop  offset="0.96" style="stop-color:#F4F4F6"/>
</linearGradient>
<path style="opacity:0.1;fill:url(#SVGID_00000135669170116710229410000002836869745191098773_);enable-background:new    ;" d="
	M846.6,250.5c-0.6,10-9.2,17.7-19.2,17.1s-17.7-9.2-17.1-19.2c0.6-10,9.2-17.7,19.2-17.1S847.2,240.5,846.6,250.5L846.6,250.5z
	 M828,257.8c4.6,0.3,8.6-3.3,8.8-7.9c0.2-4.6-3.3-8.6-7.9-8.8c-4.6-0.3-8.6,3.3-8.8,7.9C819.9,253.6,823.4,257.6,828,257.8z"/>
<linearGradient id="SVGID_00000092441893978352366820000005727680861704620941_" gradientUnits="userSpaceOnUse" x1="-8621.1328" y1="244.7726" x2="-8559.207" y2="306.6979" gradientTransform="matrix(-0.5221 0.8529 -0.8529 -0.5221 -3425.9058 7959.2617)">
	<stop  offset="0.1" style="stop-color:#5B5A72"/>
	<stop  offset="0.5" style="stop-color:#B0B0BF"/>
	<stop  offset="0.96" style="stop-color:#F4F4F6"/>
</linearGradient>
<path style="opacity:0.1;fill:url(#SVGID_00000092441893978352366820000005727680861704620941_);enable-background:new    ;" d="
	M781.6,493.1l26.4-43.2c2.3-3.8,7.2-4.9,11-2.6l43.2,26.4c3.8,2.3,4.9,7.2,2.6,11l-26.4,43.2c-2.3,3.8-7.2,4.9-11,2.6l-43.2-26.4
	C780.5,501.8,779.3,496.9,781.6,493.1L781.6,493.1z M817.5,465.1l-18.1,29.6l29.6,18.1l18.1-29.6L817.5,465.1L817.5,465.1z"/>
<linearGradient id="SVGID_00000122691701670311644070000007270986499018322088_" gradientUnits="userSpaceOnUse" x1="-4492.0757" y1="7934.2944" x2="-4462.6528" y2="7963.7192" gradientTransform="matrix(-0.9184 -0.3957 0.3957 -0.9184 -6530.9404 5828.4053)">
	<stop  offset="0.1" style="stop-color:#5B5A72"/>
	<stop  offset="0.5" style="stop-color:#B0B0BF"/>
	<stop  offset="0.96" style="stop-color:#F4F4F6"/>
</linearGradient>
<path style="opacity:0.1;fill:url(#SVGID_00000122691701670311644070000007270986499018322088_);enable-background:new    ;" d="
	M721.8,280.7l22.1,9.5c1.9,0.8,2.8,3.1,2,5l-9.5,22.1c-0.8,1.9-3.1,2.8-5,2l-22.1-9.5c-1.9-0.8-2.8-3.1-2-5l9.5-22.1
	C717.7,280.7,719.9,279.9,721.8,280.7z M737.5,295.7l-15.1-6.5l-6.5,15.1l15.1,6.5L737.5,295.7z"/>
<linearGradient id="SVGID_00000150061186301887825580000001524801592139572644_" gradientUnits="userSpaceOnUse" x1="-4475.2886" y1="8107.7183" x2="-4460.6191" y2="8122.3872" gradientTransform="matrix(-0.9184 -0.3957 0.3957 -0.9184 -6530.9404 5828.4053)">
	<stop  offset="0.1" style="stop-color:#5B5A72"/>
	<stop  offset="0.5" style="stop-color:#B0B0BF"/>
	<stop  offset="0.96" style="stop-color:#F4F4F6"/>
</linearGradient>
<path style="opacity:0.1;fill:url(#SVGID_00000150061186301887825580000001524801592139572644_);enable-background:new    ;" d="
	M781.3,134.1l11,4.8c1,0.4,1.4,1.5,1,2.5l-4.8,11c-0.4,1-1.5,1.4-2.5,1l-11-4.8c-1-0.4-1.4-1.5-1-2.5l4.8-11
	C779.3,134.1,780.4,133.7,781.3,134.1z M789.1,141.6l-7.5-3.2l-3.2,7.6l7.5,3.2L789.1,141.6z"/>
<linearGradient id="SVGID_00000010295612092377410480000014542905182001338028_" gradientUnits="userSpaceOnUse" x1="324.7801" y1="7889.5063" x2="357.7738" y2="7922.5005" gradientTransform="matrix(-0.4349 -0.9005 0.9005 -0.4349 -6347.2915 4154.3232)">
	<stop  offset="0.1" style="stop-color:#5B5A72"/>
	<stop  offset="0.5" style="stop-color:#B0B0BF"/>
	<stop  offset="0.96" style="stop-color:#F4F4F6"/>
</linearGradient>
<path style="opacity:0.1;fill:url(#SVGID_00000010295612092377410480000014542905182001338028_);enable-background:new    ;" d="
	M633.7,389.1l11.7,24.3c1,2.1,0.1,4.7-2,5.7l-24.3,11.7c-2.1,1-4.7,0.1-5.7-2l-11.7-24.3c-1-2.1-0.1-4.7,2-5.7l24.3-11.7
	C630.2,386.1,632.7,387,633.7,389.1z M636,413.3l-8-16.6l-16.6,8l8,16.6L636,413.3z"/>
<linearGradient id="SVGID_00000005954074854244271680000004286319125609965471_" gradientUnits="userSpaceOnUse" x1="437.7784" y1="7796.1289" x2="452.6294" y2="7810.9697" gradientTransform="matrix(-0.4349 -0.9005 0.9005 -0.4349 -6347.2915 4154.3232)">
	<stop  offset="0.1" style="stop-color:#5B5A72"/>
	<stop  offset="0.5" style="stop-color:#B0B0BF"/>
	<stop  offset="0.96" style="stop-color:#F4F4F6"/>
</linearGradient>
<path style="opacity:0.1;fill:url(#SVGID_00000005954074854244271680000004286319125609965471_);enable-background:new    ;" d="
	M490.6,351l5.3,10.9c0.5,1,0.1,2.1-0.9,2.5l-10.9,5.3c-1,0.5-2.1,0.1-2.5-0.9l-5.3-10.9c-0.5-1-0.1-2.1,0.9-2.5l10.9-5.3
	C489,349.6,490.2,350,490.6,351z M491.6,361.9l-3.6-7.5l-7.5,3.6l3.6,7.5L491.6,361.9z"/>
<linearGradient id="SVGID_00000034048518774201552720000015991832847615641731_" gradientUnits="userSpaceOnUse" x1="249.0233" y1="7659.7744" x2="269.1253" y2="7679.876" gradientTransform="matrix(-0.4349 -0.9005 0.9005 -0.4349 -6347.2915 4154.3232)">
	<stop  offset="0.1" style="stop-color:#5B5A72"/>
	<stop  offset="0.5" style="stop-color:#B0B0BF"/>
	<stop  offset="0.96" style="stop-color:#F4F4F6"/>
</linearGradient>
<path style="opacity:0.1;fill:url(#SVGID_00000034048518774201552720000015991832847615641731_);enable-background:new    ;" d="
	M452.8,573.6l7.1,14.8c0.6,1.3,0.1,2.8-1.2,3.5l-14.8,7.2c-1.3,0.6-2.8,0.1-3.5-1.2l-7.1-14.8c-0.6-1.3-0.1-2.8,1.2-3.5l14.8-7.2
	C450.6,571.8,452.1,572.3,452.8,573.6z M454.1,588.3l-4.9-10.1l-10.1,4.9l4.9,10.1L454.1,588.3z"/>
</svg>
