<?xml version="1.0" encoding="utf-8"?>
<!-- Generator: Adobe Illustrator 27.8.1, SVG Export Plug-In . SVG Version: 6.00 Build 0)  -->
<svg version="1.1" id="Calque_1" xmlns="http://www.w3.org/2000/svg" xmlns:xlink="http://www.w3.org/1999/xlink" x="0px" y="0px"
	 viewBox="0 0 841.9 595.3" style="enable-background:new 0 0 841.9 595.3;" xml:space="preserve">
<style type="text/css">
	.st0{opacity:0.3;fill:url(#SVGID_1_);enable-background:new    ;}
	.st1{opacity:0.3;fill:url(#SVGID_00000021835945171177750420000012863331355883336591_);enable-background:new    ;}
	.st2{opacity:0.3;fill:url(#SVGID_00000103225648789358481320000002796794403682544575_);enable-background:new    ;}
	.st3{opacity:0.3;fill:url(#SVGID_00000048469241437475765190000013071948699846591112_);enable-background:new    ;}
	.st4{opacity:0.3;fill:url(#SVGID_00000162316953253584337590000015094290736102919855_);enable-background:new    ;}
	.st5{opacity:0.3;fill:url(#SVGID_00000088853163078264086600000007674431561638200476_);enable-background:new    ;}
	.st6{opacity:0.3;fill:url(#SVGID_00000090254987379214991850000015435227621555192501_);enable-background:new    ;}
	.st7{opacity:0.3;fill:url(#SVGID_00000124852387299990118200000010548406748729023150_);enable-background:new    ;}
	.st8{opacity:0.3;fill:url(#SVGID_00000016046042995430968770000015812791202363141805_);enable-background:new    ;}
	.st9{opacity:0.3;fill:url(#SVGID_00000170266078191591828740000008337534558494131347_);enable-background:new    ;}
	.st10{opacity:0.3;fill:url(#SVGID_00000075863753527815624710000017009981939726632360_);enable-background:new    ;}
	.st11{opacity:0.3;fill:url(#SVGID_00000022525574331596762000000010406994049300645291_);enable-background:new    ;}
	.st12{opacity:0.3;fill:url(#SVGID_00000035503724547235033010000012960647905811580581_);enable-background:new    ;}
	.st13{opacity:0.3;fill:url(#SVGID_00000004515912156876285610000002509838950536870581_);enable-background:new    ;}
	.st14{opacity:0.3;fill:url(#SVGID_00000180346450868172004810000011558105663269928113_);enable-background:new    ;}
	.st15{opacity:0.3;fill:url(#SVGID_00000114032763990121626580000016713746848761344908_);enable-background:new    ;}
	.st16{opacity:0.3;fill:url(#SVGID_00000085958664252962992550000004807510178210410380_);enable-background:new    ;}
</style>
<linearGradient id="SVGID_1_" gradientUnits="userSpaceOnUse" x1="-2686.0688" y1="1060.3678" x2="-2635.9746" y2="1010.2733" gradientTransform="matrix(0.2333 0.9724 -0.9724 0.2333 1779.5911 2869.2595)">
	<stop  offset="0.1" style="stop-color:#5B5A72"/>
	<stop  offset="0.5" style="stop-color:#B0B0BF"/>
	<stop  offset="0.96" style="stop-color:#F4F4F6"/>
</linearGradient>
<path class="st0" d="M176.5,546.9c0.4,1.3,0.3,2.7-0.1,4c-1.2,4.1-5.5,6.4-9.6,5.2l-55-16.3c-2.6-0.8-4.7-2.9-5.3-5.6
	s0.2-5.5,2.2-7.4l41.6-39.5c1-0.9,2.2-1.6,3.5-1.9c4.1-1,8.3,1.6,9.3,5.7L176.5,546.9L176.5,546.9z M151.3,507.7l-22.2,21.1
	l29.3,8.7L151.3,507.7L151.3,507.7z"/>
<linearGradient id="SVGID_00000029755837369169216620000001518097084651067525_" gradientUnits="userSpaceOnUse" x1="3053.2498" y1="-9880.5186" x2="3085.7712" y2="-9913.041" gradientTransform="matrix(0.7517 -0.6595 0.6595 0.7517 4261.4971 9803.3311)">
	<stop  offset="0.1" style="stop-color:#5B5A72"/>
	<stop  offset="0.5" style="stop-color:#B0B0BF"/>
	<stop  offset="0.96" style="stop-color:#F4F4F6"/>
</linearGradient>
<path style="opacity:0.3;fill:url(#SVGID_00000029755837369169216620000001518097084651067525_);enable-background:new    ;" d="
	M48.2,318c1.3-1.2,3.2-1.6,4.8-1.1c1.7,0.6,2.9,2,3.3,3.8l7.3,36.5c0.4,1.8-0.3,3.6-1.6,4.8c-1.3,1.2-3.2,1.6-4.9,1l-35.2-12
	c-0.9-0.2-1.6-0.7-2.2-1.4c-1.8-2.1-1.6-5.3,0.5-7.1L48.2,318L48.2,318z M52.2,350.8l-3.9-19.5l-14.9,13.1L52.2,350.8z"/>
<linearGradient id="SVGID_00000016790084280886948260000008543469621588348038_" gradientUnits="userSpaceOnUse" x1="10368.8945" y1="-5137.9805" x2="10391.1816" y2="-5160.2671" gradientTransform="matrix(-0.3928 -0.9196 0.9196 -0.3928 9042.2744 7869.5049)">
	<stop  offset="0.1" style="stop-color:#5B5A72"/>
	<stop  offset="0.5" style="stop-color:#B0B0BF"/>
	<stop  offset="0.96" style="stop-color:#F4F4F6"/>
</linearGradient>
<path style="opacity:0.3;fill:url(#SVGID_00000016790084280886948260000008543469621588348038_);enable-background:new    ;" d="
	M217.4,338c-0.2-0.6-0.3-1.2-0.3-1.7c0.2-1.9,1.9-3.2,3.8-3l25.3,3c0.6,0.1,1.2,0.3,1.7,0.7c1.5,1.1,1.8,3.3,0.7,4.8l-15.3,20.4
	c-0.4,0.5-0.8,0.9-1.4,1.1c-1.7,0.8-3.8-0.1-4.5-1.8L217.4,338L217.4,338z M231.4,353.2l8.2-10.9l-13.5-1.6L231.4,353.2L231.4,353.2
	z"/>
<linearGradient id="SVGID_00000128478386236195521460000002822653032999803055_" gradientUnits="userSpaceOnUse" x1="10500.4268" y1="-5147.5176" x2="10514.2734" y2="-5161.3647" gradientTransform="matrix(-0.3928 -0.9196 0.9196 -0.3928 9042.2744 7869.5049)">
	<stop  offset="0.1" style="stop-color:#5B5A72"/>
	<stop  offset="0.5" style="stop-color:#B0B0BF"/>
	<stop  offset="0.96" style="stop-color:#F4F4F6"/>
</linearGradient>
<path style="opacity:0.3;fill:url(#SVGID_00000128478386236195521460000002822653032999803055_);enable-background:new    ;" d="
	M167.2,226.3c-0.3-0.7-0.2-1.5,0.3-2.2c0.5-0.6,1.2-0.9,2-0.8l15.7,1.9c0.3,0,0.7,0.2,1,0.4c0.9,0.7,1.1,2.1,0.4,3l-9.5,12.7
	c-0.3,0.3-0.6,0.6-0.9,0.7c-1.1,0.5-2.3,0-2.8-1.1L167.2,226.3L167.2,226.3z M181,229l-8.4-1l3.3,7.8L181,229z"/>
<linearGradient id="SVGID_00000112601953350746267220000012914066937808678022_" gradientUnits="userSpaceOnUse" x1="3429.2397" y1="4876.8286" x2="3450.5955" y2="4855.4634" gradientTransform="matrix(-0.7213 0.6926 -0.6926 -0.7213 6173.5835 1603.3296)">
	<stop  offset="0.1" style="stop-color:#5B5A72"/>
	<stop  offset="0.5" style="stop-color:#B0B0BF"/>
	<stop  offset="0.96" style="stop-color:#F4F4F6"/>
</linearGradient>
<path style="opacity:0.3;fill:url(#SVGID_00000112601953350746267220000012914066937808678022_);enable-background:new    ;" d="
	M318.7,490c-0.9,0.8-2.1,1.1-3.3,0.8c-1.2-0.4-2-1.3-2.3-2.4l-5.8-23.7c-0.3-1.2,0-2.4,0.9-3.2c0.9-0.8,2.1-1.1,3.2-0.8l23.5,6.8
	c1.2,0.4,2,1.3,2.3,2.4c0.3,1.2,0,2.4-0.9,3.2L318.7,490L318.7,490z M327.6,472.2l-12.5-3.7l3.1,12.7L327.6,472.2L327.6,472.2z"/>
<linearGradient id="SVGID_00000002346168763066755440000000958150055595954327_" gradientUnits="userSpaceOnUse" x1="1529.1311" y1="-1505.9602" x2="1595.1211" y2="-1571.9602" gradientTransform="matrix(-0.9596 -0.2813 0.2813 -0.9596 1986.6335 -460.9758)">
	<stop  offset="0.1" style="stop-color:#5B5A72"/>
	<stop  offset="0.5" style="stop-color:#B0B0BF"/>
	<stop  offset="0.96" style="stop-color:#F4F4F6"/>
</linearGradient>
<path style="opacity:0.3;fill:url(#SVGID_00000002346168763066755440000000958150055595954327_);enable-background:new    ;" d="
	M64,539.3c21,6.2,33,28.3,26.9,49.3s-28.2,33.1-49.2,26.9s-33-28.3-26.9-49.3S43,533.1,64,539.3L64,539.3z M47.7,595
	c9.7,2.8,19.9-2.7,22.7-12.4s-2.7-19.9-12.4-22.7c-9.7-2.8-19.9,2.7-22.7,12.4C32.5,581.9,38.1,592.1,47.7,595z"/>
<linearGradient id="SVGID_00000114043351015433799360000000914891352345211815_" gradientUnits="userSpaceOnUse" x1="1343.1604" y1="-1455.8112" x2="1390.8704" y2="-1503.5311" gradientTransform="matrix(-0.9596 -0.2813 0.2813 -0.9596 1986.6335 -460.9758)">
	<stop  offset="0.1" style="stop-color:#5B5A72"/>
	<stop  offset="0.5" style="stop-color:#B0B0BF"/>
	<stop  offset="0.96" style="stop-color:#F4F4F6"/>
</linearGradient>
<path style="opacity:0.3;fill:url(#SVGID_00000114043351015433799360000000914891352345211815_);enable-background:new    ;" d="
	M284.8,583.2c-4.5,15.2-20.4,24-35.6,19.5c-15.2-4.4-24-20.4-19.5-35.6c4.4-15.3,20.4-24,35.6-19.5
	C280.5,552.1,289.3,568,284.8,583.2z M253.6,587.8c7,2,14.4-2,16.4-9s-2-14.4-9-16.4s-14.4,2-16.4,9S246.6,585.7,253.6,587.8z"/>
<linearGradient id="SVGID_00000139994411670924295380000015356679294450049457_" gradientUnits="userSpaceOnUse" x1="-10293.5088" y1="-145.5891" x2="-10248.8496" y2="-190.249" gradientTransform="matrix(5.704123e-02 0.9984 -0.9984 5.704123e-02 512.821 10676.0732)">
	<stop  offset="0.1" style="stop-color:#5B5A72"/>
	<stop  offset="0.5" style="stop-color:#B0B0BF"/>
	<stop  offset="0.96" style="stop-color:#F4F4F6"/>
</linearGradient>
<path style="opacity:0.3;fill:url(#SVGID_00000139994411670924295380000015356679294450049457_);enable-background:new    ;" d="
	M68.8,414.2c-0.8-14.8,10.5-27.6,25.3-28.4c14.8-0.8,27.5,10.5,28.3,25.3c0.8,14.9-10.5,27.5-25.3,28.4
	C82.3,440.3,69.6,429,68.8,414.2L68.8,414.2z M107.9,412c-0.3-6.8-6.2-12-13-11.6c-6.8,0.3-12,6.2-11.6,13c0.3,6.8,6.2,12,13,11.6
	C103.1,424.6,108.3,418.8,107.9,412z"/>
<linearGradient id="SVGID_00000004509680825602963650000010445141085967537074_" gradientUnits="userSpaceOnUse" x1="-10425.1934" y1="-405.3435" x2="-10410.4736" y2="-420.0635" gradientTransform="matrix(5.704123e-02 0.9984 -0.9984 5.704123e-02 512.821 10676.0732)">
	<stop  offset="0.1" style="stop-color:#5B5A72"/>
	<stop  offset="0.5" style="stop-color:#B0B0BF"/>
	<stop  offset="0.96" style="stop-color:#F4F4F6"/>
</linearGradient>
<path style="opacity:0.3;fill:url(#SVGID_00000004509680825602963650000010445141085967537074_);enable-background:new    ;" d="
	M330.4,242.8c4.8-0.3,9,3.5,9.3,8.3c0.3,4.8-3.4,9-8.3,9.3c-4.8,0.3-9-3.4-9.3-8.3C321.8,247.2,325.6,243,330.4,242.8z M335,251.3
	c-0.1-2.2-2.1-3.9-4.3-3.8s-3.9,2.1-3.8,4.3c0.1,2.2,2.1,3.9,4.3,3.8C333.4,255.5,335.1,253.5,335,251.3z"/>
<linearGradient id="SVGID_00000124848927819845448330000011023248002213798572_" gradientUnits="userSpaceOnUse" x1="-10188.9209" y1="-520.3006" x2="-10174.1611" y2="-535.0606" gradientTransform="matrix(5.704123e-02 0.9984 -0.9984 5.704123e-02 512.821 10676.0732)">
	<stop  offset="0.1" style="stop-color:#5B5A72"/>
	<stop  offset="0.5" style="stop-color:#B0B0BF"/>
	<stop  offset="0.96" style="stop-color:#F4F4F6"/>
</linearGradient>
<path style="opacity:0.3;fill:url(#SVGID_00000124848927819845448330000011023248002213798572_);enable-background:new    ;" d="
	M458.7,472.1c4.9-0.2,9.1,3.5,9.4,8.4c0.2,4.9-3.5,9.1-8.4,9.4c-4.9,0.2-9.1-3.5-9.4-8.4S453.8,472.4,458.7,472.1z M459.4,485
	c2.3-0.1,4-2,3.8-4.4l0,0c-0.1-2.2-2-3.9-4.3-3.8l0,0c-2.2,0.1-3.9,2-3.8,4.3C455.2,483.4,457.2,485.1,459.4,485L459.4,485z"/>
<linearGradient id="SVGID_00000093890225801539107630000001918342290550810248_" gradientUnits="userSpaceOnUse" x1="-10455.6875" y1="-80.5377" x2="-10425.4775" y2="-110.7476" gradientTransform="matrix(5.704123e-02 0.9984 -0.9984 5.704123e-02 512.821 10676.0732)">
	<stop  offset="0.1" style="stop-color:#5B5A72"/>
	<stop  offset="0.5" style="stop-color:#B0B0BF"/>
	<stop  offset="0.96" style="stop-color:#F4F4F6"/>
</linearGradient>
<path style="opacity:0.3;fill:url(#SVGID_00000093890225801539107630000001918342290550810248_);enable-background:new    ;" d="
	M-4.7,248.4c-0.6-10,7.1-18.6,17.1-19.2s18.6,7.1,19.2,17.1s-7.1,18.6-17.1,19.2S-4.1,258.4-4.7,248.4L-4.7,248.4z M21.8,246.9
	c-0.2-4.6-4.2-8.2-8.8-7.9c-4.6,0.2-8.1,4.2-7.9,8.8s4.2,8.2,8.8,7.9C18.5,255.5,22,251.5,21.8,246.9z"/>
<linearGradient id="SVGID_00000141427311547683467980000017511375126405678720_" gradientUnits="userSpaceOnUse" x1="-9625.959" y1="805.9545" x2="-9564.0332" y2="744.0294" gradientTransform="matrix(0.5221 0.8529 -0.8529 0.5221 5688.6016 8265.5957)">
	<stop  offset="0.1" style="stop-color:#5B5A72"/>
	<stop  offset="0.5" style="stop-color:#B0B0BF"/>
	<stop  offset="0.96" style="stop-color:#F4F4F6"/>
</linearGradient>
<path style="opacity:0.3;fill:url(#SVGID_00000141427311547683467980000017511375126405678720_);enable-background:new    ;" d="
	M60.3,491c2.3,3.8,1.1,8.7-2.6,11l-43.2,26.4c-3.8,2.3-8.7,1.2-11-2.6l-26.4-43.2c-2.3-3.8-1.2-8.7,2.6-11l43.2-26.4
	c3.8-2.3,8.7-1.2,11,2.6L60.3,491L60.3,491z M24.4,463l-29.6,18.1l18.1,29.6l29.6-18.1L24.4,463L24.4,463z"/>
<linearGradient id="SVGID_00000139996455098232680480000001854822531513184957_" gradientUnits="userSpaceOnUse" x1="-5279.875" y1="-7797.6406" x2="-5250.4521" y2="-7827.0654" gradientTransform="matrix(0.9184 -0.3957 0.3957 0.9184 8042.2656 5389.1104)">
	<stop  offset="0.1" style="stop-color:#5B5A72"/>
	<stop  offset="0.5" style="stop-color:#B0B0BF"/>
	<stop  offset="0.96" style="stop-color:#F4F4F6"/>
</linearGradient>
<path style="opacity:0.3;fill:url(#SVGID_00000139996455098232680480000001854822531513184957_);enable-background:new    ;" d="
	M125.1,280.6l9.5,22.1c0.8,1.9-0.1,4.2-2,5l-22.1,9.5c-1.9,0.8-4.2-0.1-5-2L96,293.1c-0.8-1.9,0.1-4.2,2-5l22.1-9.5
	C122,277.8,124.2,278.6,125.1,280.6z M110.9,308.7l15.1-6.5l-6.5-15.1l-15.1,6.5L110.9,308.7z"/>
<linearGradient id="SVGID_00000150790172000685692160000010963508364016928402_" gradientUnits="userSpaceOnUse" x1="-5263.0879" y1="-7971.0645" x2="-5248.4185" y2="-7985.7334" gradientTransform="matrix(0.9184 -0.3957 0.3957 0.9184 8042.2656 5389.1104)">
	<stop  offset="0.1" style="stop-color:#5B5A72"/>
	<stop  offset="0.5" style="stop-color:#B0B0BF"/>
	<stop  offset="0.96" style="stop-color:#F4F4F6"/>
</linearGradient>
<path style="opacity:0.3;fill:url(#SVGID_00000150790172000685692160000010963508364016928402_);enable-background:new    ;" d="
	M63.1,133l4.8,11c0.4,1,0,2.1-1,2.5l-11,4.8c-1,0.4-2.1,0-2.5-1l-4.8-11c-0.4-1,0-2.1,1-2.5l11-4.8C61.5,131.6,62.6,132,63.1,133z
	 M56,147.1l7.5-3.2l-3.2-7.6l-7.5,3.2L56,147.1z"/>
<linearGradient id="SVGID_00000013898818108263462890000004736748146188164492_" gradientUnits="userSpaceOnUse" x1="20.6099" y1="-7884.8643" x2="53.6036" y2="-7917.8584" gradientTransform="matrix(0.4349 -0.9005 0.9005 0.4349 7317.3091 3876.3403)">
	<stop  offset="0.1" style="stop-color:#5B5A72"/>
	<stop  offset="0.5" style="stop-color:#B0B0BF"/>
	<stop  offset="0.96" style="stop-color:#F4F4F6"/>
</linearGradient>
<path style="opacity:0.3;fill:url(#SVGID_00000013898818108263462890000004736748146188164492_);enable-background:new    ;" d="
	M213.9,385l24.3,11.7c2.1,1,3,3.6,2,5.7l-11.7,24.3c-1,2.1-3.6,3-5.7,2L198.5,417c-2.1-1-3-3.6-2-5.7l11.7-24.3
	C209.2,384.9,211.7,384,213.9,385z M222.5,419.2l8-16.6l-16.6-8l-8,16.6L222.5,419.2z"/>
<linearGradient id="SVGID_00000026129429217655169130000009106605886962308529_" gradientUnits="userSpaceOnUse" x1="133.608" y1="-7791.4868" x2="148.4589" y2="-7806.3276" gradientTransform="matrix(0.4349 -0.9005 0.9005 0.4349 7317.3091 3876.3403)">
	<stop  offset="0.1" style="stop-color:#5B5A72"/>
	<stop  offset="0.5" style="stop-color:#B0B0BF"/>
	<stop  offset="0.96" style="stop-color:#F4F4F6"/>
</linearGradient>
<path style="opacity:0.3;fill:url(#SVGID_00000026129429217655169130000009106605886962308529_);enable-background:new    ;" d="
	M353.8,348l10.9,5.3c1,0.4,1.4,1.5,0.9,2.5l-5.3,10.9c-0.4,1-1.5,1.4-2.5,0.9l-10.9-5.3c-1-0.4-1.4-1.5-0.9-2.5l5.3-10.9
	C351.7,347.9,352.9,347.5,353.8,348z M357.8,363.4l3.6-7.5l-7.5-3.6l-3.6,7.5L357.8,363.4z"/>
<linearGradient id="SVGID_00000036213378547415848290000013375404813600252580_" gradientUnits="userSpaceOnUse" x1="-55.1471" y1="-7655.1323" x2="-35.0451" y2="-7675.2339" gradientTransform="matrix(0.4349 -0.9005 0.9005 0.4349 7317.3091 3876.3403)">
	<stop  offset="0.1" style="stop-color:#5B5A72"/>
	<stop  offset="0.5" style="stop-color:#B0B0BF"/>
	<stop  offset="0.96" style="stop-color:#F4F4F6"/>
</linearGradient>
<path style="opacity:0.3;fill:url(#SVGID_00000036213378547415848290000013375404813600252580_);enable-background:new    ;" d="
	M392.6,570.3l14.8,7.2c1.3,0.7,1.8,2.2,1.2,3.5l-7.1,14.8c-0.7,1.3-2.2,1.8-3.5,1.2l-14.8-7.2c-1.3-0.7-1.8-2.2-1.2-3.5l7.1-14.8
	C389.8,570.2,391.3,569.7,392.6,570.3z M397.9,591.1l4.9-10.1l-10.1-4.9l-4.9,10.1L397.9,591.1z"/>
</svg>
