<?xml version="1.0" encoding="utf-8"?>
<!-- Generator: Adobe Illustrator 27.8.1, SVG Export Plug-In . SVG Version: 6.00 Build 0)  -->
<svg version="1.1" id="Calque_1" xmlns="http://www.w3.org/2000/svg" xmlns:xlink="http://www.w3.org/1999/xlink" x="0px" y="0px"
	 viewBox="0 0 841.9 595.3" style="enable-background:new 0 0 841.9 595.3;" xml:space="preserve">
<style type="text/css">
	.st0{opacity:0.3;fill:url(#SVGID_1_);enable-background:new    ;}
	.st1{opacity:0.3;fill:url(#SVGID_00000171716375533203668690000010213943885110551742_);enable-background:new    ;}
	.st2{opacity:0.3;fill:url(#SVGID_00000117635191291218080640000015885870640908501381_);enable-background:new    ;}
	.st3{opacity:0.3;fill:url(#SVGID_00000000199587565281124360000000897645878178033075_);enable-background:new    ;}
	.st4{opacity:0.3;fill:url(#SVGID_00000074402759623689694420000011415983181706135687_);enable-background:new    ;}
	.st5{opacity:0.3;fill:url(#SVGID_00000176021894034438284080000013495754124798149541_);enable-background:new    ;}
	.st6{opacity:0.3;fill:url(#SVGID_00000147898731903118652740000001157507939104168345_);enable-background:new    ;}
	.st7{opacity:0.3;fill:url(#SVGID_00000114791335994686981730000008771687375269546402_);enable-background:new    ;}
	.st8{opacity:0.3;fill:url(#SVGID_00000073001768554567014010000015434672152986179761_);enable-background:new    ;}
	.st9{opacity:0.3;fill:url(#SVGID_00000043437941120649596370000008017838394607256470_);enable-background:new    ;}
	.st10{opacity:0.3;fill:url(#SVGID_00000114073144651337885480000014433895730448972442_);enable-background:new    ;}
	.st11{opacity:0.3;fill:url(#SVGID_00000124150327506944070920000009756216689044274353_);enable-background:new    ;}
	.st12{opacity:0.3;fill:url(#SVGID_00000034802151507219909950000012976883636586231985_);enable-background:new    ;}
	.st13{opacity:0.3;fill:url(#SVGID_00000067220503217595002560000015716623178002839722_);enable-background:new    ;}
	.st14{opacity:0.3;fill:url(#SVGID_00000179631477864039686440000009744472468791488407_);enable-background:new    ;}
	.st15{opacity:0.3;fill:url(#SVGID_00000133492005248380932150000015425678038662388382_);enable-background:new    ;}
	.st16{opacity:0.3;fill:url(#SVGID_00000007398435936316818330000012213003973572270468_);enable-background:new    ;}
</style>
<linearGradient id="SVGID_1_" gradientUnits="userSpaceOnUse" x1="-2628.6482" y1="821.1833" x2="-2578.5542" y2="771.0889" gradientTransform="matrix(0.2333 -0.9724 -0.9724 -0.2333 1533.5911 -2276.0127)">
	<stop  offset="0.1" style="stop-color:#5B5A72"/>
	<stop  offset="0.5" style="stop-color:#B0B0BF"/>
	<stop  offset="0.96" style="stop-color:#F4F4F6"/>
</linearGradient>
<path class="st0" d="M176.5,46.3l-13.4,55.8c-1,4.1-5.2,6.7-9.3,5.7c-1.3-0.3-2.5-1-3.5-1.9l-41.6-39.5c-2-1.9-2.8-4.7-2.2-7.4
	s2.7-4.8,5.3-5.6l55-16.3c4.1-1.2,8.4,1.1,9.6,5.2C176.8,43.6,176.9,45,176.5,46.3L176.5,46.3z M151.3,85.5l7.1-29.8l-29.3,8.7
	L151.3,85.5L151.3,85.5z"/>
<linearGradient id="SVGID_00000112615580599567722320000017953056932525250186_" gradientUnits="userSpaceOnUse" x1="3238.1711" y1="-9718.2793" x2="3270.6926" y2="-9750.8018" gradientTransform="matrix(0.7517 0.6595 0.6595 -0.7517 4015.4971 -9210.085)">
	<stop  offset="0.1" style="stop-color:#5B5A72"/>
	<stop  offset="0.5" style="stop-color:#B0B0BF"/>
	<stop  offset="0.96" style="stop-color:#F4F4F6"/>
</linearGradient>
<path style="opacity:0.3;fill:url(#SVGID_00000112615580599567722320000017953056932525250186_);enable-background:new    ;" d="
	M48.2,275.2l-28-24.5c-2.1-1.8-2.3-5-0.5-7.1c0.6-0.7,1.3-1.2,2.2-1.4l35.2-12c1.7-0.6,3.6-0.2,4.9,1s2,3,1.6,4.8l-7.3,36.5
	c-0.4,1.8-1.6,3.2-3.3,3.8C51.4,276.8,49.5,276.4,48.2,275.2L48.2,275.2z M33.4,248.8l14.9,13.1l3.9-19.5L33.4,248.8z"/>
<linearGradient id="SVGID_00000062179685538767040710000011448020836019294338_" gradientUnits="userSpaceOnUse" x1="10272.2305" y1="-4911.7798" x2="10294.5176" y2="-4934.0664" gradientTransform="matrix(-0.3928 0.9196 0.9196 0.3928 8796.2744 -7276.2583)">
	<stop  offset="0.1" style="stop-color:#5B5A72"/>
	<stop  offset="0.5" style="stop-color:#B0B0BF"/>
	<stop  offset="0.96" style="stop-color:#F4F4F6"/>
</linearGradient>
<path style="opacity:0.3;fill:url(#SVGID_00000062179685538767040710000011448020836019294338_);enable-background:new    ;" d="
	M217.4,255.2l10-23.5c0.7-1.7,2.8-2.6,4.5-1.8c0.6,0.2,1,0.6,1.4,1.1l15.3,20.4c1.1,1.5,0.8,3.7-0.7,4.8c-0.5,0.4-1.1,0.6-1.7,0.7
	l-25.3,3c-1.9,0.2-3.6-1.1-3.8-3C217.1,256.4,217.2,255.8,217.4,255.2L217.4,255.2z M231.4,240l-5.3,12.5l13.5-1.6L231.4,240
	L231.4,240z"/>
<linearGradient id="SVGID_00000154419817922097161060000016155645148845381038_" gradientUnits="userSpaceOnUse" x1="10403.7627" y1="-4921.3169" x2="10417.6094" y2="-4935.1641" gradientTransform="matrix(-0.3928 0.9196 0.9196 0.3928 8796.2744 -7276.2583)">
	<stop  offset="0.1" style="stop-color:#5B5A72"/>
	<stop  offset="0.5" style="stop-color:#B0B0BF"/>
	<stop  offset="0.96" style="stop-color:#F4F4F6"/>
</linearGradient>
<path style="opacity:0.3;fill:url(#SVGID_00000154419817922097161060000016155645148845381038_);enable-background:new    ;" d="
	M167.2,366.9l6.2-14.6c0.5-1.1,1.7-1.6,2.8-1.1c0.3,0.1,0.6,0.4,0.9,0.7l9.5,12.7c0.7,0.9,0.5,2.3-0.4,3c-0.3,0.2-0.7,0.4-1,0.4
	l-15.7,1.9c-0.8,0.1-1.5-0.2-2-0.8C167,368.4,166.9,367.6,167.2,366.9L167.2,366.9z M175.9,357.4l-3.3,7.8l8.4-1L175.9,357.4z"/>
<linearGradient id="SVGID_00000079483012145219102160000010998604674639991483_" gradientUnits="userSpaceOnUse" x1="3251.7937" y1="4706.4429" x2="3273.1494" y2="4685.0776" gradientTransform="matrix(-0.7213 -0.6926 -0.6926 0.7213 5927.5835 -1010.0829)">
	<stop  offset="0.1" style="stop-color:#5B5A72"/>
	<stop  offset="0.5" style="stop-color:#B0B0BF"/>
	<stop  offset="0.96" style="stop-color:#F4F4F6"/>
</linearGradient>
<path style="opacity:0.3;fill:url(#SVGID_00000079483012145219102160000010998604674639991483_);enable-background:new    ;" d="
	M318.7,103.2l17.6,16.9c0.9,0.8,1.2,2,0.9,3.2c-0.3,1.1-1.1,2-2.3,2.4l-23.5,6.8c-1.1,0.3-2.3,0-3.2-0.8s-1.2-2-0.9-3.2l5.8-23.7
	c0.3-1.1,1.1-2,2.3-2.4C316.6,102.1,317.8,102.4,318.7,103.2L318.7,103.2z M327.6,121l-9.4-9l-3.1,12.7L327.6,121L327.6,121z"/>
<linearGradient id="SVGID_00000145027536449119030760000015062044715716852353_" gradientUnits="userSpaceOnUse" x1="1293.0315" y1="-1436.7867" x2="1359.0215" y2="-1502.7866" gradientTransform="matrix(-0.9596 0.2813 0.2813 0.9596 1740.6335 1054.2224)">
	<stop  offset="0.1" style="stop-color:#5B5A72"/>
	<stop  offset="0.5" style="stop-color:#B0B0BF"/>
	<stop  offset="0.96" style="stop-color:#F4F4F6"/>
</linearGradient>
<path style="opacity:0.3;fill:url(#SVGID_00000145027536449119030760000015062044715716852353_);enable-background:new    ;" d="
	M64,53.9C43,60.1,20.9,48,14.8,27s5.9-43.1,26.9-49.3s43.1,5.9,49.2,26.9S85,47.7,64,53.9L64,53.9z M35.3,20.9
	c2.8,9.7,13,15.2,22.7,12.4s15.2-13,12.4-22.7S57.4-4.6,47.7-1.8C38.1,1.1,32.5,11.3,35.3,20.9z"/>
<linearGradient id="SVGID_00000001632335631935005020000012993467487088260231_" gradientUnits="userSpaceOnUse" x1="1107.0608" y1="-1386.6377" x2="1154.7708" y2="-1434.3577" gradientTransform="matrix(-0.9596 0.2813 0.2813 0.9596 1740.6335 1054.2224)">
	<stop  offset="0.1" style="stop-color:#5B5A72"/>
	<stop  offset="0.5" style="stop-color:#B0B0BF"/>
	<stop  offset="0.96" style="stop-color:#F4F4F6"/>
</linearGradient>
<path style="opacity:0.3;fill:url(#SVGID_00000001632335631935005020000012993467487088260231_);enable-background:new    ;" d="
	M265.3,45.6c-15.2,4.5-31.2-4.2-35.6-19.5c-4.5-15.2,4.3-31.2,19.5-35.6c15.2-4.5,31.1,4.3,35.6,19.5S280.5,41.1,265.3,45.6z
	 M244.6,21.8c2,7,9.4,11,16.4,9s11-9.4,9-16.4s-9.4-11-16.4-9C246.6,7.5,242.6,14.8,244.6,21.8z"/>
<linearGradient id="SVGID_00000014602311063926962060000012055907329864484030_" gradientUnits="userSpaceOnUse" x1="-10279.4531" y1="-391.1573" x2="-10234.7939" y2="-435.8172" gradientTransform="matrix(5.704123e-02 -0.9984 -0.9984 -5.704123e-02 266.8211 -10082.8271)">
	<stop  offset="0.1" style="stop-color:#5B5A72"/>
	<stop  offset="0.5" style="stop-color:#B0B0BF"/>
	<stop  offset="0.96" style="stop-color:#F4F4F6"/>
</linearGradient>
<path style="opacity:0.3;fill:url(#SVGID_00000014602311063926962060000012055907329864484030_);enable-background:new    ;" d="
	M68.8,179c0.8-14.8,13.5-26.1,28.3-25.3c14.8,0.9,26.1,13.5,25.3,28.4c-0.8,14.8-13.5,26.1-28.3,25.3S68,193.8,68.8,179L68.8,179z
	 M96.3,168.2c-6.8-0.4-12.7,4.8-13,11.6c-0.4,6.8,4.8,12.7,11.6,13c6.8,0.4,12.7-4.8,13-11.6C108.3,174.4,103.1,168.6,96.3,168.2z"
	/>
<linearGradient id="SVGID_00000012473801407587646800000018388348318233084573_" gradientUnits="userSpaceOnUse" x1="-10411.1377" y1="-650.9117" x2="-10396.418" y2="-665.6317" gradientTransform="matrix(5.704123e-02 -0.9984 -0.9984 -5.704123e-02 266.8211 -10082.8271)">
	<stop  offset="0.1" style="stop-color:#5B5A72"/>
	<stop  offset="0.5" style="stop-color:#B0B0BF"/>
	<stop  offset="0.96" style="stop-color:#F4F4F6"/>
</linearGradient>
<path style="opacity:0.3;fill:url(#SVGID_00000012473801407587646800000018388348318233084573_);enable-background:new    ;" d="
	M322.1,341.1c0.3-4.9,4.5-8.6,9.3-8.3c4.9,0.3,8.6,4.5,8.3,9.3s-4.5,8.6-9.3,8.3C325.6,350.2,321.8,346,322.1,341.1z M331.2,337.6
	c-2.2-0.1-4.2,1.6-4.3,3.8c-0.1,2.2,1.6,4.2,3.8,4.3s4.2-1.6,4.3-3.8C335.1,339.7,333.4,337.7,331.2,337.6z"/>
<linearGradient id="SVGID_00000000940019182504509530000004229980361542097795_" gradientUnits="userSpaceOnUse" x1="-10174.8652" y1="-765.8688" x2="-10160.1055" y2="-780.6288" gradientTransform="matrix(5.704123e-02 -0.9984 -0.9984 -5.704123e-02 266.8211 -10082.8271)">
	<stop  offset="0.1" style="stop-color:#5B5A72"/>
	<stop  offset="0.5" style="stop-color:#B0B0BF"/>
	<stop  offset="0.96" style="stop-color:#F4F4F6"/>
</linearGradient>
<path style="opacity:0.3;fill:url(#SVGID_00000000940019182504509530000004229980361542097795_);enable-background:new    ;" d="
	M450.3,111.7c0.3-4.9,4.5-8.6,9.4-8.4c4.9,0.3,8.6,4.5,8.4,9.4c-0.3,4.9-4.5,8.6-9.4,8.4C453.8,120.8,450,116.6,450.3,111.7z
	 M459.4,108.2c-2.2-0.1-4.2,1.6-4.3,3.9c-0.1,2.3,1.6,4.2,3.8,4.3l0,0c2.3,0.1,4.2-1.6,4.3-3.8l0,0
	C463.4,110.2,461.7,108.3,459.4,108.2L459.4,108.2z"/>
<linearGradient id="SVGID_00000111873839611615636480000003548790433922174886_" gradientUnits="userSpaceOnUse" x1="-10441.6318" y1="-326.1059" x2="-10411.4219" y2="-356.3158" gradientTransform="matrix(5.704123e-02 -0.9984 -0.9984 -5.704123e-02 266.8211 -10082.8271)">
	<stop  offset="0.1" style="stop-color:#5B5A72"/>
	<stop  offset="0.5" style="stop-color:#B0B0BF"/>
	<stop  offset="0.96" style="stop-color:#F4F4F6"/>
</linearGradient>
<path style="opacity:0.3;fill:url(#SVGID_00000111873839611615636480000003548790433922174886_);enable-background:new    ;" d="
	M-4.7,344.8c0.6-10,9.2-17.7,19.2-17.1s17.7,9.2,17.1,19.2c-0.6,10-9.2,17.7-19.2,17.1S-5.3,354.8-4.7,344.8L-4.7,344.8z
	 M13.9,337.5c-4.6-0.3-8.6,3.3-8.8,7.9c-0.2,4.6,3.3,8.6,7.9,8.8c4.6,0.3,8.6-3.3,8.8-7.9C22,341.7,18.5,337.7,13.9,337.5z"/>
<linearGradient id="SVGID_00000155855805630388300520000003906578631096053909_" gradientUnits="userSpaceOnUse" x1="-9497.4941" y1="596.1789" x2="-9435.5684" y2="534.2538" gradientTransform="matrix(0.5221 -0.8529 -0.8529 -0.5221 5442.6016 -7672.3491)">
	<stop  offset="0.1" style="stop-color:#5B5A72"/>
	<stop  offset="0.5" style="stop-color:#B0B0BF"/>
	<stop  offset="0.96" style="stop-color:#F4F4F6"/>
</linearGradient>
<path style="opacity:0.3;fill:url(#SVGID_00000155855805630388300520000003906578631096053909_);enable-background:new    ;" d="
	M60.3,102.2l-26.4,43.2c-2.3,3.8-7.2,4.9-11,2.6l-43.2-26.4c-3.8-2.3-4.9-7.2-2.6-11L3.5,67.4c2.3-3.8,7.2-4.9,11-2.6l43.2,26.4
	C61.4,93.5,62.6,98.4,60.3,102.2L60.3,102.2z M24.4,130.2l18.1-29.6L12.9,82.5l-18.1,29.6L24.4,130.2L24.4,130.2z"/>
<linearGradient id="SVGID_00000025422369675309242670000000941138952573202849_" gradientUnits="userSpaceOnUse" x1="-5053.9443" y1="-7700.2896" x2="-5024.5215" y2="-7729.7144" gradientTransform="matrix(0.9184 0.3957 0.3957 -0.9184 7796.2651 -4795.8638)">
	<stop  offset="0.1" style="stop-color:#5B5A72"/>
	<stop  offset="0.5" style="stop-color:#B0B0BF"/>
	<stop  offset="0.96" style="stop-color:#F4F4F6"/>
</linearGradient>
<path style="opacity:0.3;fill:url(#SVGID_00000025422369675309242670000000941138952573202849_);enable-background:new    ;" d="
	M120.1,314.6L98,305.1c-1.9-0.8-2.8-3.1-2-5l9.5-22.1c0.8-1.9,3.1-2.8,5-2l22.1,9.5c1.9,0.8,2.8,3.1,2,5l-9.5,22.1
	C124.2,314.6,122,315.4,120.1,314.6z M104.4,299.6l15.1,6.5L126,291l-15.1-6.5L104.4,299.6z"/>
<linearGradient id="SVGID_00000067951311515478268470000015193727474266517425_" gradientUnits="userSpaceOnUse" x1="-5037.1572" y1="-7873.7134" x2="-5022.4878" y2="-7888.3823" gradientTransform="matrix(0.9184 0.3957 0.3957 -0.9184 7796.2651 -4795.8638)">
	<stop  offset="0.1" style="stop-color:#5B5A72"/>
	<stop  offset="0.5" style="stop-color:#B0B0BF"/>
	<stop  offset="0.96" style="stop-color:#F4F4F6"/>
</linearGradient>
<path style="opacity:0.3;fill:url(#SVGID_00000067951311515478268470000015193727474266517425_);enable-background:new    ;" d="
	M60.6,461.2l-11-4.8c-1-0.4-1.4-1.5-1-2.5l4.8-11c0.4-1,1.5-1.4,2.5-1l11,4.8c1,0.4,1.4,1.5,1,2.5l-4.8,11
	C62.6,461.2,61.5,461.6,60.6,461.2z M52.8,453.7l7.5,3.2l3.2-7.6l-7.5-3.2L52.8,453.7z"/>
<linearGradient id="SVGID_00000135660566561145616040000012920458966280174468_" gradientUnits="userSpaceOnUse" x1="127.5802" y1="-7663.3604" x2="160.574" y2="-7696.3545" gradientTransform="matrix(0.4349 0.9005 0.9005 -0.4349 7071.3091 -3283.0938)">
	<stop  offset="0.1" style="stop-color:#5B5A72"/>
	<stop  offset="0.5" style="stop-color:#B0B0BF"/>
	<stop  offset="0.96" style="stop-color:#F4F4F6"/>
</linearGradient>
<path style="opacity:0.3;fill:url(#SVGID_00000135660566561145616040000012920458966280174468_);enable-background:new    ;" d="
	M208.2,206.2l-11.7-24.3c-1-2.1-0.1-4.7,2-5.7l24.3-11.7c2.1-1,4.7-0.1,5.7,2l11.7,24.3c1,2.1,0.1,4.7-2,5.7l-24.3,11.7
	C211.7,209.2,209.2,208.3,208.2,206.2z M205.9,182l8,16.6l16.6-8l-8-16.6L205.9,182z"/>
<linearGradient id="SVGID_00000022544644531838883550000006697399581606339468_" gradientUnits="userSpaceOnUse" x1="240.5783" y1="-7569.9834" x2="255.4293" y2="-7584.8242" gradientTransform="matrix(0.4349 0.9005 0.9005 -0.4349 7071.3091 -3283.0938)">
	<stop  offset="0.1" style="stop-color:#5B5A72"/>
	<stop  offset="0.5" style="stop-color:#B0B0BF"/>
	<stop  offset="0.96" style="stop-color:#F4F4F6"/>
</linearGradient>
<path style="opacity:0.3;fill:url(#SVGID_00000022544644531838883550000006697399581606339468_);enable-background:new    ;" d="
	M351.3,244.3l-5.3-10.9c-0.5-1-0.1-2.1,0.9-2.5l10.9-5.3c1-0.5,2.1-0.1,2.5,0.9l5.3,10.9c0.5,1,0.1,2.1-0.9,2.5l-10.9,5.3
	C352.9,245.7,351.7,245.3,351.3,244.3z M350.3,233.4l3.6,7.5l7.5-3.6l-3.6-7.5L350.3,233.4z"/>
<linearGradient id="SVGID_00000121272458813102340870000001767137303049461123_" gradientUnits="userSpaceOnUse" x1="51.8232" y1="-7433.6289" x2="71.9252" y2="-7453.7305" gradientTransform="matrix(0.4349 0.9005 0.9005 -0.4349 7071.3091 -3283.0938)">
	<stop  offset="0.1" style="stop-color:#5B5A72"/>
	<stop  offset="0.5" style="stop-color:#B0B0BF"/>
	<stop  offset="0.96" style="stop-color:#F4F4F6"/>
</linearGradient>
<path style="opacity:0.3;fill:url(#SVGID_00000121272458813102340870000001767137303049461123_);enable-background:new    ;" d="
	M389.1,21.7L382,6.9c-0.6-1.3-0.1-2.8,1.2-3.5L398-3.8c1.3-0.6,2.8-0.1,3.5,1.2l7.1,14.8c0.6,1.3,0.1,2.8-1.2,3.5l-14.8,7.2
	C391.3,23.5,389.8,23,389.1,21.7z M387.8,7l4.9,10.1l10.1-4.9l-4.9-10.1L387.8,7z"/>
</svg>
