<?xml version="1.0" encoding="utf-8"?>
<!-- Generator: Adobe Illustrator 27.9.0, SVG Export Plug-In . SVG Version: 6.00 Build 0)  -->
<svg version="1.1" id="Calque_1" xmlns="http://www.w3.org/2000/svg" xmlns:xlink="http://www.w3.org/1999/xlink" x="0px" y="0px"
	 viewBox="0 0 841.9 595.3" style="enable-background:new 0 0 841.9 595.3;" xml:space="preserve">
<style type="text/css">
	.st0{opacity:0.1;fill:url(#SVGID_1_);enable-background:new    ;}
	.st1{opacity:0.1;fill:url(#SVGID_00000061439014186879350460000006919460085898802328_);enable-background:new    ;}
	.st2{opacity:0.1;fill:url(#SVGID_00000103261985035610419010000005044853847499760024_);enable-background:new    ;}
	.st3{opacity:0.1;fill:url(#SVGID_00000089537578484062573480000004898910762058573192_);enable-background:new    ;}
	.st4{opacity:0.1;fill:url(#SVGID_00000157994017998800879390000008503269439281083068_);enable-background:new    ;}
	.st5{opacity:0.1;fill:url(#SVGID_00000127016966914228169570000003575767893645141895_);enable-background:new    ;}
	.st6{opacity:0.1;fill:url(#SVGID_00000167391202847825506820000005915907385993212344_);enable-background:new    ;}
	.st7{opacity:0.1;fill:url(#SVGID_00000124135293548149136340000012487381083025869748_);enable-background:new    ;}
	.st8{opacity:0.1;fill:url(#SVGID_00000149365713820880654670000015978840205911926668_);enable-background:new    ;}
	.st9{opacity:0.1;fill:url(#SVGID_00000155848394097744280840000007812156539677940621_);enable-background:new    ;}
	.st10{opacity:0.1;fill:url(#SVGID_00000036971010921535365470000002832650438492587958_);enable-background:new    ;}
	.st11{opacity:0.1;fill:url(#SVGID_00000000225093731088168540000017382947306355338664_);enable-background:new    ;}
	.st12{opacity:0.1;fill:url(#SVGID_00000170242271016907257860000015915558521577896842_);enable-background:new    ;}
	.st13{opacity:0.1;fill:url(#SVGID_00000024717016787815542510000002592699193072072836_);enable-background:new    ;}
	.st14{opacity:0.1;fill:url(#SVGID_00000078044178965134902070000007743082174652134310_);enable-background:new    ;}
	.st15{opacity:0.1;fill:url(#SVGID_00000158736644690006390700000014602670716075527334_);enable-background:new    ;}
	.st16{opacity:0.1;fill:url(#SVGID_00000093864478087482897350000011559727372659533493_);enable-background:new    ;}
</style>
<linearGradient id="SVGID_1_" gradientUnits="userSpaceOnUse" x1="-2628.6482" y1="821.1833" x2="-2578.5542" y2="771.0889" gradientTransform="matrix(-0.2333 -0.9724 0.9724 -0.2333 -691.691 -2276.0127)">
	<stop  offset="0.1" style="stop-color:#5B5A72"/>
	<stop  offset="0.5" style="stop-color:#B0B0BF"/>
	<stop  offset="0.96" style="stop-color:#F4F4F6"/>
</linearGradient>
<path class="st0" d="M665.4,46.3c-0.4-1.3-0.3-2.7,0.1-4c1.2-4.1,5.5-6.4,9.6-5.2l55,16.3c2.6,0.8,4.7,2.9,5.3,5.6s-0.2,5.5-2.2,7.4
	l-41.6,39.5c-1,0.9-2.2,1.6-3.5,1.9c-4.1,1-8.3-1.6-9.3-5.7L665.4,46.3L665.4,46.3z M690.6,85.5l22.2-21.1l-29.3-8.7L690.6,85.5
	L690.6,85.5z"/>
<linearGradient id="SVGID_00000037683938756474346710000018438803236630266530_" gradientUnits="userSpaceOnUse" x1="3238.1711" y1="-9718.2793" x2="3270.6926" y2="-9750.8018" gradientTransform="matrix(-0.7517 0.6595 -0.6595 -0.7517 -3173.5972 -9210.085)">
	<stop  offset="0.1" style="stop-color:#5B5A72"/>
	<stop  offset="0.5" style="stop-color:#B0B0BF"/>
	<stop  offset="0.96" style="stop-color:#F4F4F6"/>
</linearGradient>
<path style="opacity:0.1;fill:url(#SVGID_00000037683938756474346710000018438803236630266530_);enable-background:new    ;" d="
	M793.7,275.2c-1.3,1.2-3.2,1.6-4.8,1.1c-1.7-0.6-2.9-2-3.3-3.8l-7.3-36.5c-0.4-1.8,0.3-3.6,1.6-4.8s3.2-1.6,4.9-1l35.2,12
	c0.9,0.2,1.6,0.7,2.2,1.4c1.8,2.1,1.6,5.3-0.5,7.1L793.7,275.2L793.7,275.2z M789.7,242.4l3.9,19.5l14.9-13.1L789.7,242.4z"/>
<linearGradient id="SVGID_00000111154890995256249580000012251695417134804153_" gradientUnits="userSpaceOnUse" x1="10272.2305" y1="-4911.7798" x2="10294.5176" y2="-4934.0664" gradientTransform="matrix(0.3928 0.9196 -0.9196 0.3928 -7954.3745 -7276.2583)">
	<stop  offset="0.1" style="stop-color:#5B5A72"/>
	<stop  offset="0.5" style="stop-color:#B0B0BF"/>
	<stop  offset="0.96" style="stop-color:#F4F4F6"/>
</linearGradient>
<path style="opacity:0.1;fill:url(#SVGID_00000111154890995256249580000012251695417134804153_);enable-background:new    ;" d="
	M624.5,255.2c0.2,0.6,0.3,1.2,0.3,1.7c-0.2,1.9-1.9,3.2-3.8,3l-25.3-3c-0.6-0.1-1.2-0.3-1.7-0.7c-1.5-1.1-1.8-3.3-0.7-4.8l15.3-20.4
	c0.4-0.5,0.8-0.9,1.4-1.1c1.7-0.8,3.8,0.1,4.5,1.8L624.5,255.2L624.5,255.2z M610.5,240l-8.2,10.9l13.5,1.6L610.5,240L610.5,240z"/>
<linearGradient id="SVGID_00000180351112362184218380000005052385791796943783_" gradientUnits="userSpaceOnUse" x1="10403.7627" y1="-4921.3169" x2="10417.6094" y2="-4935.1641" gradientTransform="matrix(0.3928 0.9196 -0.9196 0.3928 -7954.3745 -7276.2583)">
	<stop  offset="0.1" style="stop-color:#5B5A72"/>
	<stop  offset="0.5" style="stop-color:#B0B0BF"/>
	<stop  offset="0.96" style="stop-color:#F4F4F6"/>
</linearGradient>
<path style="opacity:0.1;fill:url(#SVGID_00000180351112362184218380000005052385791796943783_);enable-background:new    ;" d="
	M674.7,366.9c0.3,0.7,0.2,1.5-0.3,2.2c-0.5,0.6-1.2,0.9-2,0.8l-15.7-1.9c-0.3,0-0.7-0.2-1-0.4c-0.9-0.7-1.1-2.1-0.4-3l9.5-12.7
	c0.3-0.3,0.6-0.6,0.9-0.7c1.1-0.5,2.3,0,2.8,1.1L674.7,366.9L674.7,366.9z M660.9,364.2l8.4,1l-3.3-7.8L660.9,364.2z"/>
<linearGradient id="SVGID_00000059285949619472749710000015540967009310294697_" gradientUnits="userSpaceOnUse" x1="3251.7937" y1="4706.4429" x2="3273.1494" y2="4685.0776" gradientTransform="matrix(0.7213 -0.6926 0.6926 0.7213 -5085.6836 -1010.0829)">
	<stop  offset="0.1" style="stop-color:#5B5A72"/>
	<stop  offset="0.5" style="stop-color:#B0B0BF"/>
	<stop  offset="0.96" style="stop-color:#F4F4F6"/>
</linearGradient>
<path style="opacity:0.1;fill:url(#SVGID_00000059285949619472749710000015540967009310294697_);enable-background:new    ;" d="
	M523.2,103.2c0.9-0.8,2.1-1.1,3.3-0.8c1.2,0.4,2,1.3,2.3,2.4l5.8,23.7c0.3,1.2,0,2.4-0.9,3.2s-2.1,1.1-3.2,0.8l-23.5-6.8
	c-1.2-0.4-2-1.3-2.3-2.4c-0.3-1.2,0-2.4,0.9-3.2L523.2,103.2L523.2,103.2z M514.3,121l12.5,3.7l-3.1-12.7L514.3,121L514.3,121z"/>
<linearGradient id="SVGID_00000031902762408260552450000013527533194290889890_" gradientUnits="userSpaceOnUse" x1="1293.0315" y1="-1436.7867" x2="1359.0215" y2="-1502.7866" gradientTransform="matrix(0.9596 0.2813 -0.2813 0.9596 -898.7335 1054.2224)">
	<stop  offset="0.1" style="stop-color:#5B5A72"/>
	<stop  offset="0.5" style="stop-color:#B0B0BF"/>
	<stop  offset="0.96" style="stop-color:#F4F4F6"/>
</linearGradient>
<path style="opacity:0.1;fill:url(#SVGID_00000031902762408260552450000013527533194290889890_);enable-background:new    ;" d="
	M777.9,53.9c-21-6.2-33-28.3-26.9-49.3s28.2-33.1,49.2-26.9S833.2,6,827.1,27S798.9,60.1,777.9,53.9L777.9,53.9z M794.2-1.8
	c-9.7-2.8-19.9,2.7-22.7,12.4s2.7,19.9,12.4,22.7s19.9-2.7,22.7-12.4C809.4,11.3,803.8,1.1,794.2-1.8z"/>
<linearGradient id="SVGID_00000054954770944373656520000012326998677880556453_" gradientUnits="userSpaceOnUse" x1="1107.0608" y1="-1386.6377" x2="1154.7708" y2="-1434.3577" gradientTransform="matrix(0.9596 0.2813 -0.2813 0.9596 -898.7335 1054.2224)">
	<stop  offset="0.1" style="stop-color:#5B5A72"/>
	<stop  offset="0.5" style="stop-color:#B0B0BF"/>
	<stop  offset="0.96" style="stop-color:#F4F4F6"/>
</linearGradient>
<path style="opacity:0.1;fill:url(#SVGID_00000054954770944373656520000012326998677880556453_);enable-background:new    ;" d="
	M557.1,10c4.5-15.2,20.4-24,35.6-19.5c15.2,4.4,24,20.4,19.5,35.6c-4.4,15.3-20.4,24-35.6,19.5S552.6,25.2,557.1,10z M588.3,5.4
	c-7-2-14.4,2-16.4,9s2,14.4,9,16.4s14.4-2,16.4-9S595.3,7.5,588.3,5.4z"/>
<linearGradient id="SVGID_00000004515443664884136770000010806185666481210030_" gradientUnits="userSpaceOnUse" x1="-10279.4531" y1="-391.1573" x2="-10234.7939" y2="-435.8172" gradientTransform="matrix(-5.704123e-02 -0.9984 0.9984 -5.704123e-02 575.0789 -10082.8271)">
	<stop  offset="0.1" style="stop-color:#5B5A72"/>
	<stop  offset="0.5" style="stop-color:#B0B0BF"/>
	<stop  offset="0.96" style="stop-color:#F4F4F6"/>
</linearGradient>
<path style="opacity:0.1;fill:url(#SVGID_00000004515443664884136770000010806185666481210030_);enable-background:new    ;" d="
	M773.1,179c0.8,14.8-10.5,27.6-25.3,28.4s-27.5-10.5-28.3-25.3c-0.8-14.9,10.5-27.5,25.3-28.4C759.6,152.9,772.3,164.2,773.1,179
	L773.1,179z M734,181.2c0.3,6.8,6.2,12,13,11.6c6.8-0.3,12-6.2,11.6-13c-0.3-6.8-6.2-12-13-11.6S733.6,174.4,734,181.2z"/>
<linearGradient id="SVGID_00000082366967591230248500000016861075432618085798_" gradientUnits="userSpaceOnUse" x1="-10411.1377" y1="-650.9117" x2="-10396.418" y2="-665.6317" gradientTransform="matrix(-5.704123e-02 -0.9984 0.9984 -5.704123e-02 575.0789 -10082.8271)">
	<stop  offset="0.1" style="stop-color:#5B5A72"/>
	<stop  offset="0.5" style="stop-color:#B0B0BF"/>
	<stop  offset="0.96" style="stop-color:#F4F4F6"/>
</linearGradient>
<path style="opacity:0.1;fill:url(#SVGID_00000082366967591230248500000016861075432618085798_);enable-background:new    ;" d="
	M511.5,350.4c-4.8,0.3-9-3.5-9.3-8.3s3.4-9,8.3-9.3c4.8-0.3,9,3.4,9.3,8.3S516.3,350.2,511.5,350.4z M506.9,341.9
	c0.1,2.2,2.1,3.9,4.3,3.8s3.9-2.1,3.8-4.3c-0.1-2.2-2.1-3.9-4.3-3.8S506.8,339.7,506.9,341.9z"/>
<linearGradient id="SVGID_00000020392504925043485450000015050935236871516345_" gradientUnits="userSpaceOnUse" x1="-10174.8652" y1="-765.8688" x2="-10160.1055" y2="-780.6288" gradientTransform="matrix(-5.704123e-02 -0.9984 0.9984 -5.704123e-02 575.0789 -10082.8271)">
	<stop  offset="0.1" style="stop-color:#5B5A72"/>
	<stop  offset="0.5" style="stop-color:#B0B0BF"/>
	<stop  offset="0.96" style="stop-color:#F4F4F6"/>
</linearGradient>
<path style="opacity:0.1;fill:url(#SVGID_00000020392504925043485450000015050935236871516345_);enable-background:new    ;" d="
	M383.2,121.1c-4.9,0.2-9.1-3.5-9.4-8.4c-0.2-4.9,3.5-9.1,8.4-9.4c4.9-0.2,9.1,3.5,9.4,8.4S388.1,120.8,383.2,121.1z M382.5,108.2
	c-2.3,0.1-4,2-3.8,4.4l0,0c0.1,2.2,2,3.9,4.3,3.8l0,0c2.2-0.1,3.9-2,3.8-4.3C386.7,109.8,384.7,108.1,382.5,108.2L382.5,108.2z"/>
<linearGradient id="SVGID_00000078020333796295880200000006142645345578797971_" gradientUnits="userSpaceOnUse" x1="-10441.6318" y1="-326.1059" x2="-10411.4219" y2="-356.3158" gradientTransform="matrix(-5.704123e-02 -0.9984 0.9984 -5.704123e-02 575.0789 -10082.8271)">
	<stop  offset="0.1" style="stop-color:#5B5A72"/>
	<stop  offset="0.5" style="stop-color:#B0B0BF"/>
	<stop  offset="0.96" style="stop-color:#F4F4F6"/>
</linearGradient>
<path style="opacity:0.1;fill:url(#SVGID_00000078020333796295880200000006142645345578797971_);enable-background:new    ;" d="
	M846.6,344.8c0.6,10-7.1,18.6-17.1,19.2s-18.6-7.1-19.2-17.1c-0.6-10,7.1-18.6,17.1-19.2S846,334.8,846.6,344.8L846.6,344.8z
	 M820.1,346.3c0.2,4.6,4.2,8.2,8.8,7.9c4.6-0.2,8.1-4.2,7.9-8.8c-0.2-4.6-4.2-8.2-8.8-7.9C823.4,337.7,819.9,341.7,820.1,346.3z"/>
<linearGradient id="SVGID_00000016050624058359476900000004996091159365626556_" gradientUnits="userSpaceOnUse" x1="-9497.4941" y1="596.1789" x2="-9435.5684" y2="534.2538" gradientTransform="matrix(-0.5221 -0.8529 0.8529 -0.5221 -4600.7017 -7672.3491)">
	<stop  offset="0.1" style="stop-color:#5B5A72"/>
	<stop  offset="0.5" style="stop-color:#B0B0BF"/>
	<stop  offset="0.96" style="stop-color:#F4F4F6"/>
</linearGradient>
<path style="opacity:0.1;fill:url(#SVGID_00000016050624058359476900000004996091159365626556_);enable-background:new    ;" d="
	M781.6,102.2c-2.3-3.8-1.1-8.7,2.6-11l43.2-26.4c3.8-2.3,8.7-1.2,11,2.6l26.4,43.2c2.3,3.8,1.2,8.7-2.6,11L819,148
	c-3.8,2.3-8.7,1.2-11-2.6L781.6,102.2L781.6,102.2z M817.5,130.2l29.6-18.1L829,82.5l-29.6,18.1L817.5,130.2L817.5,130.2z"/>
<linearGradient id="SVGID_00000115490987406373061520000013495365059235821711_" gradientUnits="userSpaceOnUse" x1="-5053.9443" y1="-7700.2896" x2="-5024.5215" y2="-7729.7144" gradientTransform="matrix(-0.9184 0.3957 -0.3957 -0.9184 -6954.3652 -4795.8638)">
	<stop  offset="0.1" style="stop-color:#5B5A72"/>
	<stop  offset="0.5" style="stop-color:#B0B0BF"/>
	<stop  offset="0.96" style="stop-color:#F4F4F6"/>
</linearGradient>
<path style="opacity:0.1;fill:url(#SVGID_00000115490987406373061520000013495365059235821711_);enable-background:new    ;" d="
	M716.8,312.6l-9.5-22.1c-0.8-1.9,0.1-4.2,2-5l22.1-9.5c1.9-0.8,4.2,0.1,5,2l9.5,22.1c0.8,1.9-0.1,4.2-2,5l-22.1,9.5
	C719.9,315.4,717.7,314.6,716.8,312.6z M731,284.5l-15.1,6.5l6.5,15.1l15.1-6.5L731,284.5z"/>
<linearGradient id="SVGID_00000157307954669456321360000015712160596436093592_" gradientUnits="userSpaceOnUse" x1="-5037.1572" y1="-7873.7134" x2="-5022.4878" y2="-7888.3823" gradientTransform="matrix(-0.9184 0.3957 -0.3957 -0.9184 -6954.3652 -4795.8638)">
	<stop  offset="0.1" style="stop-color:#5B5A72"/>
	<stop  offset="0.5" style="stop-color:#B0B0BF"/>
	<stop  offset="0.96" style="stop-color:#F4F4F6"/>
</linearGradient>
<path style="opacity:0.1;fill:url(#SVGID_00000157307954669456321360000015712160596436093592_);enable-background:new    ;" d="
	M778.8,460.2l-4.8-11c-0.4-1,0-2.1,1-2.5l11-4.8c1-0.4,2.1,0,2.5,1l4.8,11c0.4,1,0,2.1-1,2.5l-11,4.8
	C780.4,461.6,779.3,461.2,778.8,460.2z M785.9,446.1l-7.5,3.2l3.2,7.6l7.5-3.2L785.9,446.1z"/>
<linearGradient id="SVGID_00000109010516096654170500000007394592937640684673_" gradientUnits="userSpaceOnUse" x1="127.5802" y1="-7663.3604" x2="160.574" y2="-7696.3545" gradientTransform="matrix(-0.4349 0.9005 -0.9005 -0.4349 -6229.4092 -3283.0938)">
	<stop  offset="0.1" style="stop-color:#5B5A72"/>
	<stop  offset="0.5" style="stop-color:#B0B0BF"/>
	<stop  offset="0.96" style="stop-color:#F4F4F6"/>
</linearGradient>
<path style="opacity:0.1;fill:url(#SVGID_00000109010516096654170500000007394592937640684673_);enable-background:new    ;" d="
	M628,208.2l-24.3-11.7c-2.1-1-3-3.6-2-5.7l11.7-24.3c1-2.1,3.6-3,5.7-2l24.3,11.7c2.1,1,3,3.6,2,5.7l-11.7,24.3
	C632.7,208.3,630.2,209.2,628,208.2z M619.4,174l-8,16.6l16.6,8l8-16.6L619.4,174z"/>
<linearGradient id="SVGID_00000013192511024332454800000017394451209585322926_" gradientUnits="userSpaceOnUse" x1="240.5783" y1="-7569.9834" x2="255.4293" y2="-7584.8242" gradientTransform="matrix(-0.4349 0.9005 -0.9005 -0.4349 -6229.4092 -3283.0938)">
	<stop  offset="0.1" style="stop-color:#5B5A72"/>
	<stop  offset="0.5" style="stop-color:#B0B0BF"/>
	<stop  offset="0.96" style="stop-color:#F4F4F6"/>
</linearGradient>
<path style="opacity:0.1;fill:url(#SVGID_00000013192511024332454800000017394451209585322926_);enable-background:new    ;" d="
	M488.1,245.2l-10.9-5.3c-1-0.4-1.4-1.5-0.9-2.5l5.3-10.9c0.4-1,1.5-1.4,2.5-0.9l10.9,5.3c1,0.4,1.4,1.5,0.9,2.5l-5.3,10.9
	C490.2,245.3,489,245.7,488.1,245.2z M484.1,229.8l-3.6,7.5l7.5,3.6l3.6-7.5L484.1,229.8z"/>
<linearGradient id="SVGID_00000165940542886650291050000004183964412411536539_" gradientUnits="userSpaceOnUse" x1="51.8232" y1="-7433.6289" x2="71.9252" y2="-7453.7305" gradientTransform="matrix(-0.4349 0.9005 -0.9005 -0.4349 -6229.4092 -3283.0938)">
	<stop  offset="0.1" style="stop-color:#5B5A72"/>
	<stop  offset="0.5" style="stop-color:#B0B0BF"/>
	<stop  offset="0.96" style="stop-color:#F4F4F6"/>
</linearGradient>
<path style="opacity:0.1;fill:url(#SVGID_00000165940542886650291050000004183964412411536539_);enable-background:new    ;" d="
	M449.3,22.9l-14.8-7.2c-1.3-0.7-1.8-2.2-1.2-3.5l7.1-14.8c0.7-1.3,2.2-1.8,3.5-1.2l14.8,7.2c1.3,0.7,1.8,2.2,1.2,3.5l-7.1,14.8
	C452.1,23,450.6,23.5,449.3,22.9z M444,2.1l-4.9,10.1l10.1,4.9L454.1,7L444,2.1z"/>
</svg>
