<?xml version="1.0" encoding="utf-8"?>
<!-- Generator: Adobe Illustrator 27.8.1, SVG Export Plug-In . SVG Version: 6.00 Build 0)  -->
<svg version="1.1" id="Calque_1" xmlns="http://www.w3.org/2000/svg" xmlns:xlink="http://www.w3.org/1999/xlink" x="0px" y="0px"
	 viewBox="0 0 841.9 595.3" style="enable-background:new 0 0 841.9 595.3;" xml:space="preserve">
<style type="text/css">
	.st0{opacity:0.3;fill:url(#SVGID_1_);enable-background:new    ;}
	.st1{opacity:0.3;fill:url(#SVGID_00000095312315272439832010000006542161180732349610_);enable-background:new    ;}
	.st2{opacity:0.3;fill:url(#SVGID_00000061441267602503399600000017842222250219798912_);enable-background:new    ;}
	.st3{opacity:0.3;fill:url(#SVGID_00000022527123847012481930000000219206750539491969_);enable-background:new    ;}
	.st4{opacity:0.3;fill:url(#SVGID_00000142165907963440188490000013694987583324388521_);enable-background:new    ;}
	.st5{opacity:0.3;fill:url(#SVGID_00000072972918199368021280000005906509606100791991_);enable-background:new    ;}
	.st6{opacity:0.3;fill:url(#SVGID_00000080887686275722425400000004670625680416607382_);enable-background:new    ;}
	.st7{opacity:0.3;fill:url(#SVGID_00000144311500349575765380000015886245622568861348_);enable-background:new    ;}
	.st8{opacity:0.3;fill:url(#SVGID_00000084501164943494761610000012133853693914684067_);enable-background:new    ;}
	.st9{opacity:0.3;fill:url(#SVGID_00000057132283065606899040000017768085083330313636_);enable-background:new    ;}
	.st10{opacity:0.3;fill:url(#SVGID_00000168810742505536445330000000515216571148534168_);enable-background:new    ;}
	.st11{opacity:0.3;fill:url(#SVGID_00000041279921002022765780000017885149333785402803_);enable-background:new    ;}
	.st12{opacity:0.3;fill:url(#SVGID_00000145050699050093003640000018214415581344246177_);enable-background:new    ;}
	.st13{opacity:0.3;fill:url(#SVGID_00000054968137456452200270000006448702862673748353_);enable-background:new    ;}
	.st14{opacity:0.3;fill:url(#SVGID_00000118368968360217224920000018167478770847765634_);enable-background:new    ;}
	.st15{opacity:0.3;fill:url(#SVGID_00000108302126929298103050000004642346887904329885_);enable-background:new    ;}
	.st16{opacity:0.3;fill:url(#SVGID_00000047756718768048965320000012397275016062454961_);enable-background:new    ;}
</style>
<linearGradient id="SVGID_1_" gradientUnits="userSpaceOnUse" x1="-2660.738" y1="-250.5961" x2="-2610.644" y2="-200.5017" gradientTransform="matrix(-0.2333 -0.9724 -0.9724 0.2333 -144.3385 -2440.335)">
	<stop  offset="0.1" style="stop-color:#5B5A72"/>
	<stop  offset="0.5" style="stop-color:#B0B0BF"/>
	<stop  offset="0.96" style="stop-color:#F4F4F6"/>
</linearGradient>
<path class="st0" d="M665.4,46.3c-0.4-1.3-0.3-2.7,0.1-4c1.2-4.1,5.5-6.4,9.6-5.2l55,16.3c2.6,0.8,4.7,2.9,5.3,5.6s-0.2,5.5-2.2,7.4
	l-41.6,39.5c-1,0.9-2.2,1.6-3.5,1.9c-4.1,1-8.3-1.6-9.3-5.7L665.4,46.3L665.4,46.3z M690.6,85.5l22.2-21.1l-29.3-8.7L690.6,85.5
	L690.6,85.5z"/>
<linearGradient id="SVGID_00000177467347174121389900000015844989559090246291_" gradientUnits="userSpaceOnUse" x1="2941.5923" y1="10425.8281" x2="2974.1138" y2="10458.3506" gradientTransform="matrix(-0.7517 0.6595 0.6595 0.7517 -3863.1641 -9546.3555)">
	<stop  offset="0.1" style="stop-color:#5B5A72"/>
	<stop  offset="0.5" style="stop-color:#B0B0BF"/>
	<stop  offset="0.96" style="stop-color:#F4F4F6"/>
</linearGradient>
<path style="opacity:0.3;fill:url(#SVGID_00000177467347174121389900000015844989559090246291_);enable-background:new    ;" d="
	M793.7,275.2c-1.3,1.2-3.2,1.6-4.8,1.1c-1.7-0.6-2.9-2-3.3-3.8l-7.3-36.5c-0.4-1.8,0.3-3.6,1.6-4.8c1.3-1.2,3.2-1.6,4.9-1l35.2,12
	c0.9,0.2,1.6,0.7,2.2,1.4c1.8,2.1,1.6,5.3-0.5,7.1L793.7,275.2L793.7,275.2z M789.7,242.4l3.9,19.5l14.9-13.1L789.7,242.4z"/>
<linearGradient id="SVGID_00000170974583715557041050000004638898037658637200_" gradientUnits="userSpaceOnUse" x1="10084.4316" y1="5792.1016" x2="10106.7188" y2="5814.3887" gradientTransform="matrix(0.3928 0.9196 0.9196 -0.3928 -8690.1514 -6757.7676)">
	<stop  offset="0.1" style="stop-color:#5B5A72"/>
	<stop  offset="0.5" style="stop-color:#B0B0BF"/>
	<stop  offset="0.96" style="stop-color:#F4F4F6"/>
</linearGradient>
<path style="opacity:0.3;fill:url(#SVGID_00000170974583715557041050000004638898037658637200_);enable-background:new    ;" d="
	M624.5,255.2c0.2,0.6,0.3,1.2,0.3,1.7c-0.2,1.9-1.9,3.2-3.8,3l-25.3-3c-0.6-0.1-1.2-0.3-1.7-0.7c-1.5-1.1-1.8-3.3-0.7-4.8l15.3-20.4
	c0.4-0.5,0.8-0.9,1.4-1.1c1.7-0.8,3.8,0.1,4.5,1.8L624.5,255.2L624.5,255.2z M610.5,240l-8.2,10.9l13.5,1.6L610.5,240L610.5,240z"/>
<linearGradient id="SVGID_00000137109113148822054330000000861055599717712319_" gradientUnits="userSpaceOnUse" x1="10215.9639" y1="5801.6387" x2="10229.8105" y2="5815.4858" gradientTransform="matrix(0.3928 0.9196 0.9196 -0.3928 -8690.1514 -6757.7676)">
	<stop  offset="0.1" style="stop-color:#5B5A72"/>
	<stop  offset="0.5" style="stop-color:#B0B0BF"/>
	<stop  offset="0.96" style="stop-color:#F4F4F6"/>
</linearGradient>
<path style="opacity:0.3;fill:url(#SVGID_00000137109113148822054330000000861055599717712319_);enable-background:new    ;" d="
	M674.7,366.9c0.3,0.7,0.2,1.5-0.3,2.2c-0.5,0.6-1.2,0.9-2,0.8l-15.7-1.9c-0.3,0-0.7-0.2-1-0.4c-0.9-0.7-1.1-2.1-0.4-3l9.5-12.7
	c0.3-0.3,0.6-0.6,0.9-0.7c1.1-0.5,2.3,0,2.8,1.1L674.7,366.9L674.7,366.9z M660.9,364.2l8.4,1l-3.3-7.8L660.9,364.2z"/>
<linearGradient id="SVGID_00000169541289782958840610000018217597701098217140_" gradientUnits="userSpaceOnUse" x1="3302.709" y1="-3984.0229" x2="3324.0647" y2="-3962.6577" gradientTransform="matrix(0.7213 -0.6926 -0.6926 -0.7213 -4622.0605 -453.7375)">
	<stop  offset="0.1" style="stop-color:#5B5A72"/>
	<stop  offset="0.5" style="stop-color:#B0B0BF"/>
	<stop  offset="0.96" style="stop-color:#F4F4F6"/>
</linearGradient>
<path style="opacity:0.3;fill:url(#SVGID_00000169541289782958840610000018217597701098217140_);enable-background:new    ;" d="
	M523.2,103.2c0.9-0.8,2.1-1.1,3.3-0.8c1.2,0.4,2,1.3,2.3,2.4l5.8,23.7c0.3,1.2,0,2.4-0.9,3.2s-2.1,1.1-3.2,0.8l-23.5-6.8
	c-1.2-0.4-2-1.3-2.3-2.4c-0.3-1.2,0-2.4,0.9-3.2L523.2,103.2L523.2,103.2z M514.3,121l12.5,3.7l-3.1-12.7L514.3,121L514.3,121z"/>
<linearGradient id="SVGID_00000174587581169612405760000002649395256081968282_" gradientUnits="userSpaceOnUse" x1="1253.4656" y1="2308.313" x2="1319.4556" y2="2374.313" gradientTransform="matrix(0.9596 0.2813 0.2813 -0.9596 -1105.9264 1901.6689)">
	<stop  offset="0.1" style="stop-color:#5B5A72"/>
	<stop  offset="0.5" style="stop-color:#B0B0BF"/>
	<stop  offset="0.96" style="stop-color:#F4F4F6"/>
</linearGradient>
<path style="opacity:0.3;fill:url(#SVGID_00000174587581169612405760000002649395256081968282_);enable-background:new    ;" d="
	M777.9,53.9c-21-6.2-33-28.3-26.9-49.3s28.2-33.1,49.2-26.9S833.2,6,827.1,27S798.9,60.1,777.9,53.9L777.9,53.9z M794.2-1.8
	c-9.7-2.8-19.9,2.7-22.7,12.4s2.7,19.9,12.4,22.7s19.9-2.7,22.7-12.4C809.4,11.3,803.8,1.1,794.2-1.8z"/>
<linearGradient id="SVGID_00000175282796264289840910000010492464981422295968_" gradientUnits="userSpaceOnUse" x1="1067.4948" y1="2258.1641" x2="1115.2047" y2="2305.884" gradientTransform="matrix(0.9596 0.2813 0.2813 -0.9596 -1105.9264 1901.6689)">
	<stop  offset="0.1" style="stop-color:#5B5A72"/>
	<stop  offset="0.5" style="stop-color:#B0B0BF"/>
	<stop  offset="0.96" style="stop-color:#F4F4F6"/>
</linearGradient>
<path style="opacity:0.3;fill:url(#SVGID_00000175282796264289840910000010492464981422295968_);enable-background:new    ;" d="
	M557.1,10c4.5-15.2,20.4-24,35.6-19.5c15.2,4.4,24,20.4,19.5,35.6c-4.4,15.3-20.4,24-35.6,19.5C561.4,41.1,552.6,25.2,557.1,10z
	 M588.3,5.4c-7-2-14.4,2-16.4,9s2,14.4,9,16.4s14.4-2,16.4-9S595.3,7.5,588.3,5.4z"/>
<linearGradient id="SVGID_00000103241238421236511830000018199535893227547054_" gradientUnits="userSpaceOnUse" x1="-10286.6729" y1="980.2352" x2="-10242.0137" y2="1024.8951" gradientTransform="matrix(-5.704123e-02 -0.9984 -0.9984 5.704123e-02 1162.8024 -10123.6367)">
	<stop  offset="0.1" style="stop-color:#5B5A72"/>
	<stop  offset="0.5" style="stop-color:#B0B0BF"/>
	<stop  offset="0.96" style="stop-color:#F4F4F6"/>
</linearGradient>
<path style="opacity:0.3;fill:url(#SVGID_00000103241238421236511830000018199535893227547054_);enable-background:new    ;" d="
	M773.1,179c0.8,14.8-10.5,27.6-25.3,28.4s-27.5-10.5-28.3-25.3c-0.8-14.9,10.5-27.5,25.3-28.4C759.6,152.9,772.3,164.2,773.1,179
	L773.1,179z M734,181.2c0.3,6.8,6.2,12,13,11.6c6.8-0.3,12-6.2,11.6-13c-0.3-6.8-6.2-12-13-11.6S733.6,174.4,734,181.2z"/>
<linearGradient id="SVGID_00000181061267635055151160000007953829921969782144_" gradientUnits="userSpaceOnUse" x1="-10418.3574" y1="1239.9896" x2="-10403.6377" y2="1254.7096" gradientTransform="matrix(-5.704123e-02 -0.9984 -0.9984 5.704123e-02 1162.8024 -10123.6367)">
	<stop  offset="0.1" style="stop-color:#5B5A72"/>
	<stop  offset="0.5" style="stop-color:#B0B0BF"/>
	<stop  offset="0.96" style="stop-color:#F4F4F6"/>
</linearGradient>
<path style="opacity:0.3;fill:url(#SVGID_00000181061267635055151160000007953829921969782144_);enable-background:new    ;" d="
	M511.5,350.4c-4.8,0.3-9-3.5-9.3-8.3c-0.3-4.8,3.4-9,8.3-9.3c4.8-0.3,9,3.4,9.3,8.3C520.1,346,516.3,350.2,511.5,350.4z
	 M506.9,341.9c0.1,2.2,2.1,3.9,4.3,3.8s3.9-2.1,3.8-4.3c-0.1-2.2-2.1-3.9-4.3-3.8S506.8,339.7,506.9,341.9z"/>
<linearGradient id="SVGID_00000178168862599084318420000015829563615933207998_" gradientUnits="userSpaceOnUse" x1="-10182.085" y1="1354.9467" x2="-10167.3252" y2="1369.7067" gradientTransform="matrix(-5.704123e-02 -0.9984 -0.9984 5.704123e-02 1162.8024 -10123.6367)">
	<stop  offset="0.1" style="stop-color:#5B5A72"/>
	<stop  offset="0.5" style="stop-color:#B0B0BF"/>
	<stop  offset="0.96" style="stop-color:#F4F4F6"/>
</linearGradient>
<path style="opacity:0.3;fill:url(#SVGID_00000178168862599084318420000015829563615933207998_);enable-background:new    ;" d="
	M383.2,121.1c-4.9,0.2-9.1-3.5-9.4-8.4c-0.2-4.9,3.5-9.1,8.4-9.4c4.9-0.2,9.1,3.5,9.4,8.4S388.1,120.8,383.2,121.1z M382.5,108.2
	c-2.3,0.1-4,2-3.8,4.4l0,0c0.1,2.2,2,3.9,4.3,3.8l0,0c2.2-0.1,3.9-2,3.8-4.3C386.7,109.8,384.7,108.1,382.5,108.2L382.5,108.2z"/>
<linearGradient id="SVGID_00000017480760812515659290000014592157790934475949_" gradientUnits="userSpaceOnUse" x1="-10448.8506" y1="915.1834" x2="-10418.6406" y2="945.3933" gradientTransform="matrix(-5.704123e-02 -0.9984 -0.9984 5.704123e-02 1162.8024 -10123.6367)">
	<stop  offset="0.1" style="stop-color:#5B5A72"/>
	<stop  offset="0.5" style="stop-color:#B0B0BF"/>
	<stop  offset="0.96" style="stop-color:#F4F4F6"/>
</linearGradient>
<path style="opacity:0.3;fill:url(#SVGID_00000017480760812515659290000014592157790934475949_);enable-background:new    ;" d="
	M846.6,344.8c0.6,10-7.1,18.6-17.1,19.2c-10,0.6-18.6-7.1-19.2-17.1c-0.6-10,7.1-18.6,17.1-19.2S846,334.8,846.6,344.8L846.6,344.8z
	 M820.1,346.3c0.2,4.6,4.2,8.2,8.8,7.9c4.6-0.2,8.1-4.2,7.9-8.8c-0.2-4.6-4.2-8.2-8.8-7.9C823.4,337.7,819.9,341.7,820.1,346.3z"/>
<linearGradient id="SVGID_00000003820188874478326890000009697920006839309976_" gradientUnits="userSpaceOnUse" x1="-9579.8066" y1="-46.4093" x2="-9517.8809" y2="15.5159" gradientTransform="matrix(-0.5221 -0.8529 -0.8529 0.5221 -4174.7788 -8029.5884)">
	<stop  offset="0.1" style="stop-color:#5B5A72"/>
	<stop  offset="0.5" style="stop-color:#B0B0BF"/>
	<stop  offset="0.96" style="stop-color:#F4F4F6"/>
</linearGradient>
<path style="opacity:0.3;fill:url(#SVGID_00000003820188874478326890000009697920006839309976_);enable-background:new    ;" d="
	M781.6,102.2c-2.3-3.8-1.1-8.7,2.6-11l43.2-26.4c3.8-2.3,8.7-1.2,11,2.6l26.4,43.2c2.3,3.8,1.2,8.7-2.6,11L819,148
	c-3.8,2.3-8.7,1.2-11-2.6L781.6,102.2L781.6,102.2z M817.5,130.2l29.6-18.1L829,82.5l-29.6,18.1L817.5,130.2L817.5,130.2z"/>
<linearGradient id="SVGID_00000155123178609045921390000006738695369692698501_" gradientUnits="userSpaceOnUse" x1="-5338.5728" y1="8354.8896" x2="-5309.1494" y2="8384.3145" gradientTransform="matrix(-0.9184 0.3957 0.3957 0.9184 -7474.793 -5284.4209)">
	<stop  offset="0.1" style="stop-color:#5B5A72"/>
	<stop  offset="0.5" style="stop-color:#B0B0BF"/>
	<stop  offset="0.96" style="stop-color:#F4F4F6"/>
</linearGradient>
<path style="opacity:0.3;fill:url(#SVGID_00000155123178609045921390000006738695369692698501_);enable-background:new    ;" d="
	M716.8,312.6l-9.5-22.1c-0.8-1.9,0.1-4.2,2-5l22.1-9.5c1.9-0.8,4.2,0.1,5,2l9.5,22.1c0.8,1.9-0.1,4.2-2,5l-22.1,9.5
	C719.9,315.4,717.7,314.6,716.8,312.6z M731,284.5l-15.1,6.5l6.5,15.1l15.1-6.5L731,284.5z"/>
<linearGradient id="SVGID_00000054253225982112429430000001273690073580321443_" gradientUnits="userSpaceOnUse" x1="-5321.7856" y1="8528.3135" x2="-5307.1162" y2="8542.9824" gradientTransform="matrix(-0.9184 0.3957 0.3957 0.9184 -7474.793 -5284.4209)">
	<stop  offset="0.1" style="stop-color:#5B5A72"/>
	<stop  offset="0.5" style="stop-color:#B0B0BF"/>
	<stop  offset="0.96" style="stop-color:#F4F4F6"/>
</linearGradient>
<path style="opacity:0.3;fill:url(#SVGID_00000054253225982112429430000001273690073580321443_);enable-background:new    ;" d="
	M778.8,460.2l-4.8-11c-0.4-1,0-2.1,1-2.5l11-4.8c1-0.4,2.1,0,2.5,1l4.8,11c0.4,1,0,2.1-1,2.5l-11,4.8
	C780.4,461.6,779.3,461.2,778.8,460.2z M785.9,446.1l-7.5,3.2l3.2,7.6l7.5-3.2L785.9,446.1z"/>
<linearGradient id="SVGID_00000176760983872667051630000005439884397555476616_" gradientUnits="userSpaceOnUse" x1="-159.6674" y1="8439.5166" x2="-126.6736" y2="8472.5107" gradientTransform="matrix(-0.4349 0.9005 0.9005 0.4349 -7053.2622 -3361.9773)">
	<stop  offset="0.1" style="stop-color:#5B5A72"/>
	<stop  offset="0.5" style="stop-color:#B0B0BF"/>
	<stop  offset="0.96" style="stop-color:#F4F4F6"/>
</linearGradient>
<path style="opacity:0.3;fill:url(#SVGID_00000176760983872667051630000005439884397555476616_);enable-background:new    ;" d="
	M628,208.2l-24.3-11.7c-2.1-1-3-3.6-2-5.7l11.7-24.3c1-2.1,3.6-3,5.7-2l24.3,11.7c2.1,1,3,3.6,2,5.7l-11.7,24.3
	C632.7,208.3,630.2,209.2,628,208.2z M619.4,174l-8,16.6l16.6,8l8-16.6L619.4,174z"/>
<linearGradient id="SVGID_00000046341206978292181410000011008908663262991751_" gradientUnits="userSpaceOnUse" x1="-46.6696" y1="8346.1396" x2="-31.8187" y2="8360.9805" gradientTransform="matrix(-0.4349 0.9005 0.9005 0.4349 -7053.2622 -3361.9773)">
	<stop  offset="0.1" style="stop-color:#5B5A72"/>
	<stop  offset="0.5" style="stop-color:#B0B0BF"/>
	<stop  offset="0.96" style="stop-color:#F4F4F6"/>
</linearGradient>
<path style="opacity:0.3;fill:url(#SVGID_00000046341206978292181410000011008908663262991751_);enable-background:new    ;" d="
	M488.1,245.2l-10.9-5.3c-1-0.4-1.4-1.5-0.9-2.5l5.3-10.9c0.4-1,1.5-1.4,2.5-0.9l10.9,5.3c1,0.4,1.4,1.5,0.9,2.5l-5.3,10.9
	C490.2,245.3,489,245.7,488.1,245.2z M484.1,229.8l-3.6,7.5l7.5,3.6l3.6-7.5L484.1,229.8z"/>
<linearGradient id="SVGID_00000113349035363041302170000000992285218257739166_" gradientUnits="userSpaceOnUse" x1="-235.4246" y1="8209.7852" x2="-215.3226" y2="8229.8867" gradientTransform="matrix(-0.4349 0.9005 0.9005 0.4349 -7053.2622 -3361.9773)">
	<stop  offset="0.1" style="stop-color:#5B5A72"/>
	<stop  offset="0.5" style="stop-color:#B0B0BF"/>
	<stop  offset="0.96" style="stop-color:#F4F4F6"/>
</linearGradient>
<path style="opacity:0.3;fill:url(#SVGID_00000113349035363041302170000000992285218257739166_);enable-background:new    ;" d="
	M449.3,22.9l-14.8-7.2c-1.3-0.7-1.8-2.2-1.2-3.5l7.1-14.8c0.7-1.3,2.2-1.8,3.5-1.2l14.8,7.2c1.3,0.7,1.8,2.2,1.2,3.5l-7.1,14.8
	C452.1,23,450.6,23.5,449.3,22.9z M444,2.1l-4.9,10.1l10.1,4.9L454.1,7L444,2.1z"/>
</svg>
