<svg xmlns="http://www.w3.org/2000/svg" xmlns:xlink="http://www.w3.org/1999/xlink" data-name="Calque 1" viewBox="0 0 841.89 595.28"><defs><radialGradient id="a" cx="1389.76" cy="-504.5" r="50.04" data-name="Dégradé sans nom 17" fx="1389.76" fy="-504.5" gradientTransform="matrix(.6 .0002 -.00002 .07 -520.67 508.69)" gradientUnits="userSpaceOnUse"><stop offset=".4" stop-color="#353544" stop-opacity=".5"/><stop offset="1" stop-color="#353544" stop-opacity="0"/></radialGradient><radialGradient xlink:href="#a" id="c" cx="2090.19" r="50.04" data-name="Dégradé sans nom 17" fx="2090.19" gradientTransform="matrix(.45 .00024 -.00004 .07 -731.07 508.52)"/><radialGradient xlink:href="#a" id="d" cx="3658.9" cy="-504.5" r="50.04" data-name="Dégradé sans nom 17" fx="3658.9" fy="-504.5" gradientTransform="matrix(.3 .0002 -.00005 .07 -940.04 508.15)"/><radialGradient xlink:href="#a" id="e" cx="3318.34" cy="-504.5" r="50.04" data-name="Dégradé sans nom 17" fx="3318.34" fy="-504.5" gradientTransform="matrix(.3 .0002 -.00005 .07 -940.04 508.23)"/><radialGradient xlink:href="#a" id="f" cx="1966.75" cy="-504.5" r="50.04" data-name="Dégradé sans nom 17" fx="1966.75" fy="-504.5" gradientTransform="matrix(.44 .00023 -.00004 .07 -736.58 508.55)"/><radialGradient xlink:href="#a" id="g" cx="270.7" cy="401.5" r="50.04" data-name="Dégradé sans nom 17" fx="270.7" fy="401.5" gradientTransform="matrix(1 .00035 -.00004 .11 .02 427.25)"/><radialGradient xlink:href="#a" id="m" cx="1909.23" r="50.04" data-name="Dégradé sans nom 17" fx="1909.23" gradientTransform="matrix(.6 .0002 -.00002 .07 -520.67 508.56)"/><radialGradient xlink:href="#a" id="n" cx="3215.97" cy="-504.5" data-name="Dégradé sans nom 17" fx="3215.97" fy="-504.5" gradientTransform="matrix(.43 .00023 -.00004 .07 -706.9 508.25)"/><radialGradient xlink:href="#a" id="o" cx="2855.99" r="50.04" data-name="Dégradé sans nom 17" fx="2855.99" gradientTransform="matrix(.48 .00025 -.00004 .07 -655.55 508.34)"/><radialGradient xlink:href="#a" id="p" cx="5692.32" cy="-1039.51" r="50.04" data-name="Dégradé sans nom 17" fx="5692.32" fy="-1039.51" gradientTransform="matrix(.28 .0002 -.00004 .06 -851.47 535.54)"/><radialGradient xlink:href="#a" id="q" cx="6293.5" cy="-1178.12" r="50.04" data-name="Dégradé sans nom 17" fx="6293.5" fy="-1178.12" gradientTransform="matrix(.26 .00018 -.00004 .06 -871.82 541.27)"/><radialGradient xlink:href="#a" id="r" cx="802.94" cy="-77.13" r="50.04" data-name="Dégradé sans nom 17" fx="802.94" fy="-77.13" gradientTransform="matrix(.93 .00032 -.00003 .09 -154.23 477.9)"/><linearGradient id="b" x1="-201.45" x2="-122.32" y1="365.45" y2="444.57" data-name="Dégradé sans nom 11" gradientTransform="rotate(.01 -136204.92 2478971.095)" gradientUnits="userSpaceOnUse"><stop offset=".1" stop-color="#5b5a72"/><stop offset=".5" stop-color="#b0b0bf"/><stop offset=".96" stop-color="#f4f4f6"/></linearGradient><linearGradient xlink:href="#b" id="h" x1="290.84" x2="341.78" y1="414.09" y2="465.03" data-name="Dégradé sans nom 11"/><linearGradient xlink:href="#b" id="i" x1="-2651.29" x2="-2626.52" y1="2144.03" y2="2168.79" data-name="Dégradé sans nom 11" gradientTransform="rotate(119.83 -722.906 2132.033)"/><linearGradient xlink:href="#b" id="j" x1="160.02" x2="180.75" y1="448.04" y2="468.77" data-name="Dégradé sans nom 11"/><linearGradient xlink:href="#b" id="k" x1="-317.66" x2="-281.7" y1="410.26" y2="446.22" data-name="Dégradé sans nom 11"/><linearGradient xlink:href="#b" id="l" x1="-2572.91" x2="-2555.51" y1="2269.91" y2="2287.3" data-name="Dégradé sans nom 11" gradientTransform="rotate(119.83 -722.906 2132.033)"/><linearGradient xlink:href="#b" id="s" x1="-2867.94" x2="-2812.65" y1="1810.88" y2="1866.17" data-name="Dégradé sans nom 11" gradientTransform="rotate(119.83 -722.906 2132.033)"/><linearGradient xlink:href="#b" id="t" x1="612.33" x2="647.61" y1="431.76" y2="467.04" data-name="Dégradé sans nom 11"/><linearGradient xlink:href="#b" id="u" x1="-1679.35" x2="-1654.21" y1="4667.91" y2="4693.05" data-name="Dégradé sans nom 11" gradientTransform="rotate(-166.45 -747.873 2425.33)"/><linearGradient xlink:href="#b" id="v" x1="261.98" x2="297.94" y1="410.23" y2="446.19" data-name="Dégradé sans nom 11"/><linearGradient xlink:href="#b" id="w" x1="765.73" x2="786.46" y1="448.11" y2="468.84" data-name="Dégradé sans nom 11"/><linearGradient xlink:href="#b" id="x" x1="-2914.47" x2="-2899.32" y1="1670.67" y2="1685.81" data-name="Dégradé sans nom 11" gradientTransform="rotate(119.83 -722.906 2132.033)"/></defs><ellipse cx="317.46" cy="471.34" rx="30.66" ry="4.06" style="fill:url(#a)"/><ellipse cx="211.39" cy="471.34" rx="22.92" ry="4.06" style="fill:url(#c)"/><ellipse cx="170.85" cy="471.34" rx="15.44" ry="4.06" style="fill:url(#d)"/><ellipse cx="67.45" cy="471.34" rx="15.44" ry="4.06" style="fill:url(#e)"/><ellipse cx="132.9" cy="471.34" rx="22.48" ry="4.06" style="fill:url(#f)"/><ellipse cx="270.7" cy="471.34" rx="50.84" ry="5.95" style="fill:url(#g)"/><path d="M303.04 471.34h-64.7c-5.63-.01-10.19-4.58-10.19-10.21v-64.7c.01-5.63 4.58-10.19 10.21-10.19h64.7c5.63.01 10.19 4.58 10.19 10.21v64.7c-.01 5.63-4.58 10.19-10.21 10.19Zm-54.5-20.4h44.31v-44.3h-44.31v44.3Z" style="fill:url(#b)"/><path d="M317.46 410.08c16.91 0 30.64 13.71 30.64 30.62s-13.73 30.64-30.64 30.64-30.62-13.73-30.62-30.64 13.71-30.62 30.62-30.62Zm14.1 30.62c0-7.78-6.32-14.1-14.1-14.1s-14.1 6.32-14.1 14.1 6.32 14.1 14.1 14.1 14.1-6.32 14.1-14.1Z" style="fill:url(#h)"/><path d="m193.9 465.63 14.1-24.6a3.844 3.844 0 0 1 3.3-1.92c1.36 0 2.63.72 3.31 1.9l14.25 24.51c.69 1.18.69 2.63.01 3.82a3.844 3.844 0 0 1-3.3 1.92l-28.35.09a3.82 3.82 0 0 1-3.32-5.72Zm17.44-15.06-7.52 13.12 15.13-.05-7.6-13.08Z" style="fill:url(#i)"/><path d="M170.85 446.41c6.88 0 12.47 5.58 12.47 12.46s-5.59 12.47-12.47 12.47-12.46-5.59-12.46-12.47 5.58-12.46 12.46-12.46Zm5.74 12.46a5.74 5.74 0 1 0-11.48 0 5.74 5.74 0 0 0 11.48 0Z" style="fill:url(#j)"/><path d="M147.6 471.34h-29.41c-2.56 0-4.63-2.08-4.63-4.64v-29.41c0-2.56 2.08-4.63 4.64-4.63h29.41c2.56 0 4.63 2.08 4.63 4.64v29.41c0 2.56-2.08 4.63-4.64 4.63Zm-24.77-9.27h20.14v-20.14h-20.14v20.14Z" style="fill:url(#k)"/><path d="m55.17 467.33 9.9-17.28c.48-.83 1.36-1.35 2.32-1.35.96 0 1.84.51 2.33 1.33l10.01 17.22c.48.83.48 1.85 0 2.68s-1.36 1.35-2.32 1.35l-19.91.06c-.96 0-1.84-.51-2.33-1.33-.48-.83-.48-1.85 0-2.68Zm12.25-10.58-5.28 9.22 10.62-.03-5.34-9.18Z" style="fill:url(#l)"/><ellipse cx="630.74" cy="471.34" rx="30.66" ry="4.06" style="fill:url(#m)"/><ellipse cx="674.43" cy="471.34" rx="21.84" ry="4.06" style="fill:url(#n)"/><ellipse cx="712.54" cy="471.34" rx="24.35" ry="4.06" style="fill:url(#o)"/><ellipse cx="758.49" cy="471.34" rx="14.38" ry="3.42" style="fill:url(#p)"/><ellipse cx="776.56" cy="471.34" rx="13.32" ry="3.28" style="fill:url(#q)"/><ellipse cx="590.57" cy="471.34" rx="47.16" ry="4.77" style="fill:url(#r)"/><path d="M551.52 458.65 583 403.74a8.516 8.516 0 0 1 7.37-4.28c3.05 0 5.86 1.61 7.39 4.24l31.81 54.72a8.53 8.53 0 0 1 .03 8.52 8.516 8.516 0 0 1-7.37 4.28l-63.3.19c-3.05 0-5.86-1.61-7.39-4.24a8.53 8.53 0 0 1-.03-8.52Zm38.93-33.62-16.8 29.3 33.77-.1-16.97-29.19Z" style="fill:url(#s)"/><path d="M630.76 428.99c11.71 0 21.22 9.5 21.22 21.21s-9.51 21.22-21.22 21.22-21.21-9.51-21.21-21.22 9.5-21.21 21.21-21.21Zm9.76 21.21c0-5.39-4.37-9.76-9.76-9.76s-9.76 4.37-9.76 9.76 4.37 9.76 9.76 9.76 9.76-4.37 9.76-9.76Z" style="fill:url(#t)"/><path d="m662.25 436.17 27.98 6.74c1.35.32 2.42 1.34 2.81 2.67.39 1.33.05 2.76-.91 3.77l-19.83 20.86c-.95 1-2.37 1.42-3.72 1.1a3.855 3.855 0 0 1-2.81-2.67l-8.15-27.6c-.39-1.33-.05-2.76.91-3.77.95-1 2.37-1.42 3.72-1.1Zm19.64 12.71-14.93-3.6 4.35 14.73 10.58-11.13Z" style="fill:url(#u)"/><path d="M727.24 471.41h-29.41c-2.56 0-4.63-2.08-4.63-4.64v-29.41c0-2.56 2.08-4.63 4.64-4.63h29.41c2.56 0 4.63 2.08 4.63 4.64v29.41c0 2.56-2.08 4.63-4.64 4.63Zm-24.77-9.27h20.14V442h-20.14v20.14Z" style="fill:url(#v)"/><path d="M776.56 446.48c6.88 0 12.47 5.58 12.47 12.46s-5.59 12.47-12.47 12.47-12.46-5.59-12.46-12.47 5.58-12.46 12.46-12.46Zm5.74 12.46a5.74 5.74 0 1 0-11.48 0 5.74 5.74 0 0 0 11.48 0Z" style="fill:url(#w)"/><path d="m747.8 467.92 8.62-15.04c.41-.72 1.18-1.17 2.02-1.17.83 0 1.61.44 2.03 1.16l8.71 14.99c.42.72.42 1.61 0 2.33-.41.72-1.18 1.17-2.02 1.17l-17.34.05c-.83 0-1.61-.44-2.03-1.16-.42-.72-.42-1.61 0-2.33Zm10.66-9.21-4.6 8.02 9.25-.03-4.65-8Z" style="fill:url(#x)"/></svg>