<?xml version="1.0" encoding="utf-8"?>
<!-- Generator: Adobe Illustrator 27.7.0, SVG Export Plug-In . SVG Version: 6.00 Build 0)  -->
<svg version="1.1" id="Calque_1" xmlns="http://www.w3.org/2000/svg" xmlns:xlink="http://www.w3.org/1999/xlink" x="0px" y="0px"
	 viewBox="0 0 2107.6 1790.8" style="enable-background:new 0 0 2107.6 1790.8;" xml:space="preserve">
<style type="text/css">
	.st0{opacity:0.1;}
	.st1{fill:url(#SVGID_1_);}
	.st2{fill:url(#SVGID_00000044172600542571740770000004429104518812561586_);}
	.st3{fill:url(#SVGID_00000078728514075688816780000007314865978839374501_);}
	.st4{fill:url(#SVGID_00000128453348925754096210000011708538493203268258_);}
	.st5{fill:url(#SVGID_00000153678951743614821690000016576735296672073865_);}
	.st6{fill:url(#SVGID_00000073681080033156965370000005901622981437066117_);}
	.st7{fill:url(#SVGID_00000062179026936907547130000008157767645001938359_);}
	.st8{fill:url(#SVGID_00000173856885650953945590000015748032396809076377_);}
	.st9{fill:url(#SVGID_00000075152859524060132770000011493826929385601933_);}
	.st10{fill:url(#SVGID_00000131365064806857768440000009796357860474504323_);}
	.st11{fill:url(#SVGID_00000004520959356833394540000018252755840746013570_);}
	.st12{fill:url(#SVGID_00000010290332725053661020000012758634269895942539_);}
	.st13{fill:url(#SVGID_00000090293430816654102930000012790840491461631895_);}
	.st14{fill:url(#SVGID_00000049200485688892746100000012994660962465271174_);}
	.st15{fill:url(#SVGID_00000109752590524042376380000016869994091329898376_);}
	.st16{fill:url(#SVGID_00000179628117514032978840000011341532416463031714_);}
	.st17{fill:url(#SVGID_00000021821964582905512760000018032482714723513233_);}
	.st18{fill:url(#SVGID_00000058558801466328567010000013132021914012357559_);}
	.st19{fill:url(#SVGID_00000143578419125891471250000005804142622296431279_);}
	.st20{fill:url(#SVGID_00000111909603553996053270000002883389618946830522_);}
	.st21{fill:url(#SVGID_00000120548004029068489380000015431538488297669556_);}
	.st22{fill:url(#SVGID_00000072268989816939687040000003715747552500334014_);}
	.st23{fill:url(#SVGID_00000140703172377193135750000015803018690633957538_);}
	.st24{fill:url(#SVGID_00000111871921675784921810000010897060599457228162_);}
	.st25{fill:url(#SVGID_00000083073568187908475430000003292972292455525000_);}
	.st26{fill:url(#SVGID_00000163044203763833213450000005123273841241259169_);}
	.st27{fill:url(#SVGID_00000115482985371691086820000013473594272942198974_);}
	.st28{fill:url(#SVGID_00000018921996602098680110000017871790191994518971_);}
	.st29{fill:url(#SVGID_00000011733822459257979020000010125238141497644468_);}
	.st30{fill:url(#SVGID_00000071561532594389691540000011416244205049312174_);}
	.st31{fill:url(#SVGID_00000163756061521081512470000000103147306358523777_);}
	.st32{fill:url(#SVGID_00000161620816582507057900000009001781896172357772_);}
	.st33{fill:url(#SVGID_00000013184054400197593290000015778698957410455426_);}
	.st34{fill:url(#SVGID_00000039107036859781058200000011545951095083431314_);}
	.st35{fill:url(#SVGID_00000164478485085810575830000004889149087296688514_);}
	.st36{fill:url(#SVGID_00000170254611584260054130000010903205656085686669_);}
	.st37{fill:url(#SVGID_00000016071200550890844230000017503064918614312592_);}
	.st38{fill:url(#SVGID_00000083079864471555850850000009080788588870689964_);}
	.st39{fill:url(#SVGID_00000044167899531695065510000000463748713739782296_);}
	.st40{fill:url(#SVGID_00000067233761127247941130000011728439673065265849_);}
	.st41{fill:url(#SVGID_00000115509376282538827200000012352786696515568278_);}
	.st42{fill:url(#SVGID_00000089563382659457656600000012312989820233084084_);}
	.st43{fill:url(#SVGID_00000156578843585812230250000008248237261094686394_);}
	.st44{fill:url(#SVGID_00000142863305858174114790000005761762965895743126_);}
	.st45{fill:url(#SVGID_00000087378118365608914070000003546961174444790938_);}
	.st46{fill:url(#SVGID_00000176008113643390870810000008921777793669109941_);}
	.st47{fill:url(#SVGID_00000163776310065579258100000010739559438212950679_);}
	.st48{fill:url(#SVGID_00000115501679750895153380000005899936347750995381_);}
	.st49{fill:url(#SVGID_00000085238174391181717140000004117954699016423045_);}
	.st50{fill:url(#SVGID_00000116915376306050160760000001329725643854124191_);}
	.st51{fill:url(#SVGID_00000013183806916301790010000002232253859906935231_);}
	.st52{fill:url(#SVGID_00000062872167025982803230000011236731109444428686_);}
	.st53{fill:url(#SVGID_00000057132714544917611460000013277947047701003197_);}
	.st54{fill:url(#SVGID_00000036209058029974619490000007591180793050211263_);}
</style>
<g class="st0">
	
		<linearGradient id="SVGID_1_" gradientUnits="userSpaceOnUse" x1="-11137.2021" y1="-522.5696" x2="-11117.71" y2="-542.0616" gradientTransform="matrix(-0.9961 8.837289e-02 8.837289e-02 0.9961 -9729.2422 2187.6575)">
		<stop  offset="0.1" style="stop-color:#5B5A72"/>
		<stop  offset="0.5" style="stop-color:#B0B0BF"/>
		<stop  offset="0.96" style="stop-color:#F4F4F6"/>
	</linearGradient>
	<path class="st1" d="M1295.9,668l22.2-2c1.1-0.1,2.1,0.4,2.7,1.3c0.6,0.9,0.7,2,0.3,3l-9.4,20.2c-0.4,1-1.4,1.6-2.5,1.7
		c-1.1,0.1-2.1-0.4-2.7-1.3l-12.8-18.3c-0.6-0.9-0.7-2-0.3-3C1293.9,668.8,1294.9,668.1,1295.9,668L1295.9,668z M1313.5,672.5
		l-11.9,1l6.8,9.7L1313.5,672.5L1313.5,672.5z"/>
	
		<linearGradient id="SVGID_00000179620724072427306430000001401274003112619443_" gradientUnits="userSpaceOnUse" x1="-5412.8901" y1="6491.9604" x2="-5394.687" y2="6473.7568" gradientTransform="matrix(-0.2357 0.9718 0.9718 0.2357 -5734.5562 3835.6284)">
		<stop  offset="0.1" style="stop-color:#5B5A72"/>
		<stop  offset="0.5" style="stop-color:#B0B0BF"/>
		<stop  offset="0.96" style="stop-color:#F4F4F6"/>
	</linearGradient>
	<path style="fill:url(#SVGID_00000179620724072427306430000001401274003112619443_);" d="M1830.2,120.3l4.9-20.2c0.2-1,1-1.8,1.9-2
		c1-0.3,2,0,2.7,0.7l15.1,14.4c1.1,1.1,1.2,2.8,0.1,4c-0.3,0.4-0.8,0.6-1.2,0.8l-20,5.9c-1,0.3-2,0-2.7-0.7
		C1830.3,122.3,1830,121.3,1830.2,120.3L1830.2,120.3z M1839.5,106.1l-2.6,10.8l10.7-3.1C1847.5,113.8,1839.5,106.1,1839.5,106.1z"
		/>
	
		<linearGradient id="SVGID_00000043454725515236339850000008513826683389431425_" gradientUnits="userSpaceOnUse" x1="1953.3732" y1="-6729.1338" x2="2000.7375" y2="-6776.4878" gradientTransform="matrix(0.7649 -0.6441 -0.6441 -0.7649 -4343.1255 -3447.2095)">
		<stop  offset="0.1" style="stop-color:#5B5A72"/>
		<stop  offset="0.5" style="stop-color:#B0B0BF"/>
		<stop  offset="0.96" style="stop-color:#F4F4F6"/>
	</linearGradient>
	<path style="fill:url(#SVGID_00000043454725515236339850000008513826683389431425_);" d="M1550.8,440.4l-41.5,34.9
		c-3.1,2.6-7.7,2.2-10.3-0.9c-0.8-1-1.4-2.2-1.6-3.4l-9.5-53.4c-0.5-2.6,0.5-5.2,2.5-6.9s4.7-2.2,7.2-1.3l51,18.5
		c2.4,0.9,4.2,3,4.7,5.6C1553.7,436.1,1552.8,438.7,1550.8,440.4L1550.8,440.4z M1509.6,456l22.1-18.6l-27.2-9.8L1509.6,456
		L1509.6,456z"/>
	
		<linearGradient id="SVGID_00000152245022597427386450000007825234713572176519_" gradientUnits="userSpaceOnUse" x1="-11205.4385" y1="1869.9141" x2="-11180.583" y2="1845.0585" gradientTransform="matrix(-0.9429 0.333 0.333 0.9429 -9549.7275 2227.9216)">
		<stop  offset="0.1" style="stop-color:#5B5A72"/>
		<stop  offset="0.5" style="stop-color:#B0B0BF"/>
		<stop  offset="0.96" style="stop-color:#F4F4F6"/>
	</linearGradient>
	<path style="fill:url(#SVGID_00000152245022597427386450000007825234713572176519_);" d="M1606.2,248.3l26.8-9.5
		c2-0.7,4.2,0.3,4.9,2.3c0.2,0.6,0.3,1.3,0.2,2l-5.2,28c-0.2,1.4-1.2,2.5-2.5,2.9s-2.7,0.2-3.8-0.7l-21.6-18.5
		c-1-0.9-1.5-2.3-1.3-3.6C1603.9,249.9,1604.9,248.8,1606.2,248.3L1606.2,248.3z M1629.3,248.3l-14.3,5.1l11.5,9.9L1629.3,248.3
		L1629.3,248.3z"/>
	
		<linearGradient id="SVGID_00000003825052035900782230000017325284061031925904_" gradientUnits="userSpaceOnUse" x1="-291.9174" y1="7099.9541" x2="-216.4974" y2="7024.5439" gradientTransform="matrix(0.4351 0.9004 0.9004 -0.4351 -4585.7031 3842.3442)">
		<stop  offset="0.1" style="stop-color:#5B5A72"/>
		<stop  offset="0.5" style="stop-color:#B0B0BF"/>
		<stop  offset="0.96" style="stop-color:#F4F4F6"/>
	</linearGradient>
	<path style="fill:url(#SVGID_00000003825052035900782230000017325284061031925904_);" d="M1702.4,523.7
		c10.9,22.5,1.5,49.7-21.1,60.6c-22.5,10.9-49.7,1.4-60.6-21.1s-1.4-49.7,21.1-60.5S1691.5,501.2,1702.4,523.7L1702.4,523.7z
		 M1670.7,562.2c10.4-5,14.7-17.5,9.7-27.9c-5-10.4-17.5-14.7-27.9-9.7c-10.4,5-14.7,17.5-9.7,27.9S1660.3,567.2,1670.7,562.2z"/>
	
		<linearGradient id="SVGID_00000091006357861026453730000008368456605541149107_" gradientUnits="userSpaceOnUse" x1="-487.7027" y1="7276.3184" x2="-449.4527" y2="7238.0684" gradientTransform="matrix(0.4351 0.9004 0.9004 -0.4351 -4585.7031 3842.3442)">
		<stop  offset="0.1" style="stop-color:#5B5A72"/>
		<stop  offset="0.5" style="stop-color:#B0B0BF"/>
		<stop  offset="0.96" style="stop-color:#F4F4F6"/>
	</linearGradient>
	<path style="fill:url(#SVGID_00000091006357861026453730000008368456605541149107_);" d="M1765,254.5c5.5,11.4,0.7,25.2-10.7,30.7
		c-11.4,5.5-25.2,0.7-30.7-10.7s-0.7-25.2,10.7-30.7C1745.7,238.3,1759.4,243.1,1765,254.5z M1748.9,274c5.3-2.5,7.5-8.9,4.9-14.1
		s-8.9-7.5-14.1-4.9c-5.3,2.5-7.5,8.9-4.9,14.1C1737.3,274.3,1743.6,276.6,1748.9,274z"/>
	
		<linearGradient id="SVGID_00000089536096096330459460000007032339609860731296_" gradientUnits="userSpaceOnUse" x1="-370.7556" y1="6818.0654" x2="-340.1855" y2="6787.4956" gradientTransform="matrix(0.4351 0.9004 0.9004 -0.4351 -4585.7031 3842.3442)">
		<stop  offset="0.1" style="stop-color:#5B5A72"/>
		<stop  offset="0.5" style="stop-color:#B0B0BF"/>
		<stop  offset="0.96" style="stop-color:#F4F4F6"/>
	</linearGradient>
	<path style="fill:url(#SVGID_00000089536096096330459460000007032339609860731296_);" d="M1400.9,555.8c4.4,9.1,0.6,20.1-8.6,24.5
		c-9.1,4.4-20.1,0.6-24.6-8.6s-0.6-20.1,8.6-24.5C1385.5,542.8,1396.5,546.7,1400.9,555.8z M1388.1,571.4c4.2-2,6-7.1,3.9-11.3
		s-7.1-6-11.3-3.9c-4.2,2-6,7.1-3.9,11.3C1378.8,571.7,1383.9,573.4,1388.1,571.4z"/>
	
		<linearGradient id="SVGID_00000049224104594218814040000006147696140888517300_" gradientUnits="userSpaceOnUse" x1="-3748.6384" y1="9097.082" x2="-3651.1702" y2="8999.6143" gradientTransform="matrix(1.186797e-02 0.9999 0.9999 -1.186797e-02 -7343.6143 4197.3872)">
		<stop  offset="0.1" style="stop-color:#5B5A72"/>
		<stop  offset="0.5" style="stop-color:#B0B0BF"/>
		<stop  offset="0.96" style="stop-color:#F4F4F6"/>
	</linearGradient>
	<path style="fill:url(#SVGID_00000049224104594218814040000006147696140888517300_);" d="M1608.4,430.6l-0.9-79.7
		c-0.1-6.9,5.5-12.6,12.4-12.7l79.7-1c6.9-0.1,12.6,5.5,12.7,12.4l0.9,79.7c0.1,6.9-5.5,12.6-12.4,12.7l-79.7,1
		C1614.2,443.1,1608.5,437.6,1608.4,430.6L1608.4,430.6z M1632.7,363.2l0.7,54.6l54.6-0.6l-0.7-54.6L1632.7,363.2z"/>
	
		<linearGradient id="SVGID_00000082349570667946337690000011701876043420517565_" gradientUnits="userSpaceOnUse" x1="-9592.2129" y1="7283.3633" x2="-9562.2021" y2="7253.3525" gradientTransform="matrix(-0.6947 0.7193 0.7193 0.6947 -10137.5254 2013.828)">
		<stop  offset="0.1" style="stop-color:#5B5A72"/>
		<stop  offset="0.5" style="stop-color:#B0B0BF"/>
		<stop  offset="0.96" style="stop-color:#F4F4F6"/>
	</linearGradient>
	<path style="fill:url(#SVGID_00000082349570667946337690000011701876043420517565_);" d="M1723.8,171.2l17.1-17.6
		c1.5-1.5,3.9-1.6,5.5-0.1l17.7,17.1c1.5,1.5,1.6,3.9,0.1,5.5l-17.1,17.6c-1.5,1.5-3.9,1.6-5.5,0.1l-17.7-17.1
		C1722.4,175.2,1722.3,172.7,1723.8,171.2z M1743.7,161.7l-11.7,12.1l12.1,11.7l11.7-12.1L1743.7,161.7L1743.7,161.7z"/>
	
		<linearGradient id="SVGID_00000009587531141477755790000009074796174025795734_" gradientUnits="userSpaceOnUse" x1="-3546.2222" y1="8907.5879" x2="-3486.8589" y2="8848.2246" gradientTransform="matrix(1.186797e-02 0.9999 0.9999 -1.186797e-02 -7343.6143 4197.3872)">
		<stop  offset="0.1" style="stop-color:#5B5A72"/>
		<stop  offset="0.5" style="stop-color:#B0B0BF"/>
		<stop  offset="0.96" style="stop-color:#F4F4F6"/>
	</linearGradient>
	<path style="fill:url(#SVGID_00000009587531141477755790000009074796174025795734_);" d="M1460.5,600.2l-0.6-48.5
		c-0.1-4.2,3.3-7.7,7.6-7.7c0,0,0,0,0,0l48.5-0.6c4.2,0,7.7,3.3,7.7,7.6c0,0,0,0,0,0l0.6,48.5c0.1,4.2-3.3,7.7-7.6,7.7c0,0,0,0,0,0
		l-48.5,0.6C1464,607.8,1460.5,604.4,1460.5,600.2C1460.5,600.2,1460.5,600.2,1460.5,600.2z M1475.3,559.1l0.4,33.2l33.2-0.4
		l-0.4-33.2L1475.3,559.1z"/>
	
		<linearGradient id="SVGID_00000171697008605302721840000005495342850702252983_" gradientUnits="userSpaceOnUse" x1="-11005.5654" y1="5217.6147" x2="-10967.707" y2="5179.7563" gradientTransform="matrix(-0.8775 0.4796 0.4796 0.8775 -10623.2178 1020.871)">
		<stop  offset="0.1" style="stop-color:#5B5A72"/>
		<stop  offset="0.5" style="stop-color:#B0B0BF"/>
		<stop  offset="0.96" style="stop-color:#F4F4F6"/>
	</linearGradient>
	<path style="fill:url(#SVGID_00000171697008605302721840000005495342850702252983_);" d="M1487.2,302.8l27.2-14.9
		c2.4-1.3,5.3-0.4,6.6,1.9l14.8,27.2c1.3,2.4,0.4,5.3-1.9,6.6l-27.2,14.9c-2.4,1.3-5.3,0.4-6.6-1.9l-14.8-27.2
		C1483.9,307.1,1484.8,304.1,1487.2,302.8z M1514.7,298.9l-18.6,10.2l10.2,18.6l18.6-10.2L1514.7,298.9z"/>
	
		<linearGradient id="SVGID_00000116198911832475902850000010727517199925424294_" gradientUnits="userSpaceOnUse" x1="-9967.8711" y1="-1050.7495" x2="-9926.2852" y2="-1092.3362" gradientTransform="matrix(-0.9961 8.837289e-02 8.837289e-02 0.9961 -9729.2422 2187.6575)">
		<stop  offset="0.1" style="stop-color:#5B5A72"/>
		<stop  offset="0.5" style="stop-color:#B0B0BF"/>
		<stop  offset="0.96" style="stop-color:#F4F4F6"/>
	</linearGradient>
	<path style="fill:url(#SVGID_00000116198911832475902850000010727517199925424294_);" d="M59.2,228.3l47.4-4.2
		c2.3-0.2,4.5,0.8,5.8,2.7c1.3,1.9,1.5,4.3,0.6,6.4l-20.1,43.2c-1.5,3.2-5.3,4.6-8.5,3.1c-1-0.5-1.9-1.2-2.5-2.1l-27.3-39
		c-1.3-1.9-1.5-4.3-0.6-6.4C54.9,229.9,56.9,228.5,59.2,228.3L59.2,228.3z M96.7,237.9l-25.3,2.2L86,260.9
		C86,260.9,96.7,237.9,96.7,237.9z"/>
	
		<linearGradient id="SVGID_00000154405210785003131010000006093232202203845527_" gradientUnits="userSpaceOnUse" x1="-11365.4922" y1="-1135.59" x2="-11337.5059" y2="-1163.5664" gradientTransform="matrix(-0.9961 8.837289e-02 8.837289e-02 0.9961 -9729.2422 2187.6575)">
		<stop  offset="0.1" style="stop-color:#5B5A72"/>
		<stop  offset="0.5" style="stop-color:#B0B0BF"/>
		<stop  offset="0.96" style="stop-color:#F4F4F6"/>
	</linearGradient>
	<path style="fill:url(#SVGID_00000154405210785003131010000006093232202203845527_);" d="M1459.4,30.7l31.9-2.8
		c1.5-0.1,3,0.6,3.9,1.8c0.9,1.3,1,2.9,0.4,4.3l-13.5,29c-0.7,1.4-2,2.3-3.5,2.5c-1.5,0.1-3-0.6-3.9-1.8l-18.4-26.2
		c-0.9-1.3-1-2.9-0.4-4.3C1456.6,31.8,1457.9,30.9,1459.4,30.7z M1484.7,37.1l-17,1.5l9.8,14L1484.7,37.1L1484.7,37.1z"/>
	
		<linearGradient id="SVGID_00000044899927402892754170000013992635587644844946_" gradientUnits="userSpaceOnUse" x1="-3232.0916" y1="-7063.4292" x2="-3182.8877" y2="-7112.6328" gradientTransform="matrix(0.7008 -0.7134 -0.7134 -0.7008 -1353.4036 -6345.4565)">
		<stop  offset="0.1" style="stop-color:#5B5A72"/>
		<stop  offset="0.5" style="stop-color:#B0B0BF"/>
		<stop  offset="0.96" style="stop-color:#F4F4F6"/>
	</linearGradient>
	<path style="fill:url(#SVGID_00000044899927402892754170000013992635587644844946_);" d="M1487.3,902.3l-39.5,40.2
		c-1.9,1.9-4.7,2.7-7.3,2c-2.6-0.7-4.7-2.7-5.4-5.3l-15.1-54.3c-1.1-4,1.2-8.2,5.3-9.3c1.3-0.4,2.6-0.4,3.9,0l54.5,14.1
		c4.1,1.1,6.5,5.2,5.4,9.2C1488.9,900.2,1488.3,901.4,1487.3,902.3L1487.3,902.3z M1446.2,922.5l21.1-21.4l-29.1-7.5L1446.2,922.5
		L1446.2,922.5z"/>
	
		<linearGradient id="SVGID_00000035491306857924180730000002040366614596348330_" gradientUnits="userSpaceOnUse" x1="-7817.2334" y1="2728.8586" x2="-7795.8989" y2="2707.5244" gradientTransform="matrix(-0.5937 0.8047 0.8047 0.5937 -5929.1792 4932.1016)">
		<stop  offset="0.1" style="stop-color:#5B5A72"/>
		<stop  offset="0.5" style="stop-color:#B0B0BF"/>
		<stop  offset="0.96" style="stop-color:#F4F4F6"/>
	</linearGradient>
	<path style="fill:url(#SVGID_00000035491306857924180730000002040366614596348330_);" d="M879.2,269.3l14.5-19.6
		c1.1-1.5,3.1-1.8,4.6-0.7c0.5,0.3,0.8,0.8,1.1,1.3l9.8,22.4c0.5,1.1,0.3,2.3-0.4,3.3c-0.7,1-1.8,1.5-3,1.3l-24.3-2.7
		c-1.2-0.1-2.2-0.9-2.7-2C878.4,271.5,878.5,270.2,879.2,269.3L879.2,269.3z M895.6,258.1l-7.7,10.5l13,1.5L895.6,258.1L895.6,258.1
		z"/>
	
		<linearGradient id="SVGID_00000144306935556826071850000000198745621792920456_" gradientUnits="userSpaceOnUse" x1="-9742.2285" y1="-5376.1631" x2="-9706.8027" y2="-5411.5889" gradientTransform="matrix(-0.6642 -0.7476 -0.7476 0.6642 -9976.0781 -2816.2573)">
		<stop  offset="0.1" style="stop-color:#5B5A72"/>
		<stop  offset="0.5" style="stop-color:#B0B0BF"/>
		<stop  offset="0.96" style="stop-color:#F4F4F6"/>
	</linearGradient>
	<path style="fill:url(#SVGID_00000144306935556826071850000000198745621792920456_);" d="M511.3,846.8l26.9,30.3
		c1.3,1.5,1.7,3.5,1.1,5.3c-0.6,1.8-2.2,3.2-4.1,3.6l-39.7,8.2c-1.9,0.4-3.9-0.3-5.2-1.7c-1.3-1.5-1.7-3.5-1.1-5.3l12.8-38.5
		c0.6-1.8,2.2-3.2,4.1-3.6C508,844.7,510,845.4,511.3,846.8L511.3,846.8z M523.8,877.4l-14.4-16.2l-6.8,20.5L523.8,877.4
		L523.8,877.4z"/>
	
		<linearGradient id="SVGID_00000173861223516384591100000016086202082521414075_" gradientUnits="userSpaceOnUse" x1="-8711.1582" y1="1842.0521" x2="-8660.8662" y2="1791.7593" gradientTransform="matrix(-0.6521 0.7581 0.7581 0.6521 -5074.2954 6565.4321)">
		<stop  offset="0.1" style="stop-color:#5B5A72"/>
		<stop  offset="0.5" style="stop-color:#B0B0BF"/>
		<stop  offset="0.96" style="stop-color:#F4F4F6"/>
	</linearGradient>
	<path style="fill:url(#SVGID_00000173861223516384591100000016086202082521414075_);" d="M1934.4,1175l37.5-43.7
		c1.8-2.1,4.6-3.1,7.3-2.6c2.7,0.5,5,2.4,5.9,5.1l19,54.3c0.9,2.6,0.4,5.5-1.4,7.6c-1.8,2.1-4.6,3.1-7.3,2.6l-56.6-10.7
		c-2.7-0.5-5-2.4-5.9-5.1C1932.1,1180,1932.6,1177.1,1934.4,1175L1934.4,1175z M1975,1151.6l-20,23.3l30.2,5.7L1975,1151.6z"/>
	
		<linearGradient id="SVGID_00000165214393047316442950000005949392998589583250_" gradientUnits="userSpaceOnUse" x1="-11172.2754" y1="-436.1471" x2="-11130.1885" y2="-478.244" gradientTransform="matrix(-0.9996 -2.687472e-02 -2.687472e-02 0.9996 -10637.2109 1893.4342)">
		<stop  offset="0.1" style="stop-color:#5B5A72"/>
		<stop  offset="0.5" style="stop-color:#B0B0BF"/>
		<stop  offset="0.96" style="stop-color:#F4F4F6"/>
	</linearGradient>
	<path style="fill:url(#SVGID_00000165214393047316442950000005949392998589583250_);" d="M499.1,1720.7l48.2,1.3
		c2.3,0.1,4.4,1.4,5.5,3.4c1.1,2,1,4.5-0.2,6.5l-25.2,41.1c-1.2,2-3.4,3.2-5.7,3.1c-2.3-0.1-4.4-1.4-5.5-3.4l-23-42.4
		c-1.1-2-1-4.5,0.2-6.5C494.6,1721.8,496.8,1720.6,499.1,1720.7L499.1,1720.7z M535.7,1734.7L510,1734l12.2,22.6L535.7,1734.7z"/>
	
		<linearGradient id="SVGID_00000153668523919927473490000006676462197055285399_" gradientUnits="userSpaceOnUse" x1="-1175.6869" y1="6225.7847" x2="-1145.1268" y2="6195.2246" gradientTransform="matrix(0.4351 0.9004 0.9004 -0.4351 -4585.7031 3842.3442)">
		<stop  offset="0.1" style="stop-color:#5B5A72"/>
		<stop  offset="0.5" style="stop-color:#B0B0BF"/>
		<stop  offset="0.96" style="stop-color:#F4F4F6"/>
	</linearGradient>
	<path style="fill:url(#SVGID_00000153668523919927473490000006676462197055285399_);" d="M517.5,88.6c4.4,9.1,0.6,20.1-8.5,24.5
		c-9.1,4.4-20.1,0.6-24.5-8.6s-0.6-20.1,8.6-24.5C502.1,75.7,513.1,79.5,517.5,88.6z M504.6,104.2c4.2-2,6-7.1,3.9-11.3
		s-7.1-6-11.3-3.9c-4.2,2-6,7.1-3.9,11.3C495.4,104.5,500.4,106.3,504.6,104.2z"/>
	
		<linearGradient id="SVGID_00000183955858250878922270000005497853077540338312_" gradientUnits="userSpaceOnUse" x1="-8155.7183" y1="-2355.1694" x2="-8129.0278" y2="-2381.8594" gradientTransform="matrix(-0.6104 -0.7921 -0.7921 0.6104 -6734.7695 -3516.9695)">
		<stop  offset="0.1" style="stop-color:#5B5A72"/>
		<stop  offset="0.5" style="stop-color:#B0B0BF"/>
		<stop  offset="0.96" style="stop-color:#F4F4F6"/>
	</linearGradient>
	<path style="fill:url(#SVGID_00000183955858250878922270000005497853077540338312_);" d="M98.9,1496.2c-5.4-7-4.1-17.1,2.9-22.5
		c7-5.4,17.1-4.1,22.5,2.9c5.4,7,4.1,17.1-2.9,22.5C114.4,1504.5,104.3,1503.2,98.9,1496.2L98.9,1496.2z M107.1,1480.5
		c-3.2,2.5-3.8,7.1-1.3,10.4s7.1,3.8,10.4,1.3c3.2-2.5,3.8-7.1,1.3-10.4C114.9,1478.6,110.3,1478,107.1,1480.5z"/>
	
		<linearGradient id="SVGID_00000017488423453245320360000005528156762868949141_" gradientUnits="userSpaceOnUse" x1="-6836.2095" y1="6624.9917" x2="-6814.0693" y2="6602.8418" gradientTransform="matrix(-0.6739 0.7388 0.7388 0.6739 -9031.7119 1310.0129)">
		<stop  offset="0.1" style="stop-color:#5B5A72"/>
		<stop  offset="0.5" style="stop-color:#B0B0BF"/>
		<stop  offset="0.96" style="stop-color:#F4F4F6"/>
	</linearGradient>
	<path style="fill:url(#SVGID_00000017488423453245320360000005528156762868949141_);" d="M463.4,733.8c-5,5.4-13.4,5.8-18.8,0.9
		s-5.8-13.4-0.9-18.8s13.4-5.8,18.8-0.9S468.3,728.3,463.4,733.8L463.4,733.8z M449.4,729.3c2.5,2.3,6.4,2.1,8.7-0.4
		s2.1-6.4-0.4-8.7c-2.5-2.3-6.4-2.1-8.7,0.4S446.9,727.1,449.4,729.3z"/>
	
		<linearGradient id="SVGID_00000071525974709676679980000006276536288556089496_" gradientUnits="userSpaceOnUse" x1="-6759.4961" y1="7232.8252" x2="-6716.5464" y2="7189.875" gradientTransform="matrix(-0.6739 0.7388 0.7388 0.6739 -9031.7119 1310.0129)">
		<stop  offset="0.1" style="stop-color:#5B5A72"/>
		<stop  offset="0.5" style="stop-color:#B0B0BF"/>
		<stop  offset="0.96" style="stop-color:#F4F4F6"/>
	</linearGradient>
	<path style="fill:url(#SVGID_00000071525974709676679980000006276536288556089496_);" d="M854.6,1209.2c-9.6,10.5-26,11.3-36.5,1.7
		c-10.5-9.6-11.3-26-1.7-36.5c9.6-10.5,26-11.3,36.5-1.7C863.5,1182.3,864.2,1198.7,854.6,1209.2L854.6,1209.2z M827.5,1200.6
		c4.8,4.4,12.4,4.1,16.8-0.8s4.1-12.4-0.8-16.8s-12.4-4.1-16.8,0.8S822.7,1196.2,827.5,1200.6z"/>
	
		<linearGradient id="SVGID_00000134233025084313028280000007465300108353585340_" gradientUnits="userSpaceOnUse" x1="-6779.3071" y1="7796.8638" x2="-6718.3467" y2="7735.9136" gradientTransform="matrix(-0.6739 0.7388 0.7388 0.6739 -9031.7119 1310.0129)">
		<stop  offset="0.1" style="stop-color:#5B5A72"/>
		<stop  offset="0.5" style="stop-color:#B0B0BF"/>
		<stop  offset="0.96" style="stop-color:#F4F4F6"/>
	</linearGradient>
	<path style="fill:url(#SVGID_00000134233025084313028280000007465300108353585340_);" d="M1279.4,1582.6
		c-13.6,14.9-36.8,16-51.8,2.4c-14.9-13.6-16-36.8-2.4-51.8c13.6-14.9,36.8-16,51.8-2.4C1292,1544.5,1293.1,1567.7,1279.4,1582.6
		L1279.4,1582.6z M1241,1570.4c6.9,6.3,17.6,5.8,23.8-1.1c6.3-6.9,5.8-17.6-1.1-23.8c-6.9-6.3-17.6-5.8-23.8,1.1
		C1233.6,1553.4,1234.1,1564.1,1241,1570.4z"/>
	
		<linearGradient id="SVGID_00000096058606554946519500000008272769290394908045_" gradientUnits="userSpaceOnUse" x1="-8548.4531" y1="-1218.5522" x2="-8513.124" y2="-1253.8823" gradientTransform="matrix(-0.4161 -0.9093 -0.9093 0.4161 -2652.9453 -6169.2397)">
		<stop  offset="0.1" style="stop-color:#5B5A72"/>
		<stop  offset="0.5" style="stop-color:#B0B0BF"/>
		<stop  offset="0.96" style="stop-color:#F4F4F6"/>
	</linearGradient>
	<path style="fill:url(#SVGID_00000096058606554946519500000008272769290394908045_);" d="M2002.2,1081.1
		c-4.9-10.7-0.2-23.3,10.5-28.2c10.7-4.9,23.3-0.2,28.2,10.5s0.2,23.3-10.5,28.2C2019.6,1096.4,2007,1091.7,2002.2,1081.1
		L2002.2,1081.1z M2017.4,1063.4c-4.9,2.2-7.1,8.1-4.8,13s8.1,7.1,13,4.8s7.1-8.1,4.8-13S2022.3,1061.1,2017.4,1063.4z"/>
	
		<linearGradient id="SVGID_00000142155653216717596130000000765265813014214588_" gradientUnits="userSpaceOnUse" x1="-9242.1514" y1="6436.2109" x2="-9206.9609" y2="6401.02" gradientTransform="matrix(-0.8545 0.5194 0.5194 0.8545 -10258.2871 -413.1202)">
		<stop  offset="0.1" style="stop-color:#5B5A72"/>
		<stop  offset="0.5" style="stop-color:#B0B0BF"/>
		<stop  offset="0.96" style="stop-color:#F4F4F6"/>
	</linearGradient>
	<path style="fill:url(#SVGID_00000142155653216717596130000000765265813014214588_);" d="M935.9,272.2l24.6-15
		c2.1-1.3,4.9-0.6,6.2,1.5l15,24.6c1.3,2.1,0.6,4.9-1.5,6.2l-24.6,15c-2.1,1.3-4.9,0.6-6.2-1.5l-15-24.6
		C933.1,276.3,933.8,273.5,935.9,272.2z M961.4,267.4l-16.8,10.2l10.2,16.8l16.8-10.2L961.4,267.4z"/>
	
		<linearGradient id="SVGID_00000074404849704817041330000001811249664281351869_" gradientUnits="userSpaceOnUse" x1="-9719.0889" y1="4618.2715" x2="-9688.9912" y2="4588.1831" gradientTransform="matrix(-0.9867 0.1623 0.1623 0.9867 -10117.2256 -2634.6519)">
		<stop  offset="0.1" style="stop-color:#5B5A72"/>
		<stop  offset="0.5" style="stop-color:#B0B0BF"/>
		<stop  offset="0.96" style="stop-color:#F4F4F6"/>
	</linearGradient>
	<path style="fill:url(#SVGID_00000074404849704817041330000001811249664281351869_);" d="M190.6,318.8l24.3-4
		c2.1-0.4,4.1,1.1,4.4,3.2c0,0,0,0,0,0l4,24.3c0.4,2.1-1.1,4.1-3.2,4.4c0,0,0,0,0,0l-24.3,4c-2.1,0.4-4.1-1.1-4.4-3.2c0,0,0,0,0,0
		l-4-24.3C187.1,321.2,188.5,319.2,190.6,318.8C190.6,318.8,190.6,318.8,190.6,318.8z M212.4,323.1l-16.6,2.7l2.7,16.6l16.6-2.7
		L212.4,323.1z"/>
	
		<linearGradient id="SVGID_00000072261914660446403770000015476067818583697555_" gradientUnits="userSpaceOnUse" x1="-11494.123" y1="5160.2275" x2="-11460.2236" y2="5126.3179" gradientTransform="matrix(-0.9867 0.1623 0.1623 0.9867 -10117.2256 -2634.6519)">
		<stop  offset="0.1" style="stop-color:#5B5A72"/>
		<stop  offset="0.5" style="stop-color:#B0B0BF"/>
		<stop  offset="0.96" style="stop-color:#F4F4F6"/>
	</linearGradient>
	<path style="fill:url(#SVGID_00000072261914660446403770000015476067818583697555_);" d="M2026.1,562.2l27.4-4.5
		c2.4-0.4,4.6,1.2,5,3.6l4.5,27.4c0.4,2.4-1.2,4.6-3.6,5l-27.4,4.5c-2.4,0.4-4.6-1.2-5-3.6l-4.5-27.4
		C2022.1,564.8,2023.7,562.6,2026.1,562.2L2026.1,562.2z M2050.5,567l-18.7,3.1l3.1,18.7l18.7-3.1L2050.5,567z"/>
	
		<linearGradient id="SVGID_00000168819802631352140810000001472595151946583990_" gradientUnits="userSpaceOnUse" x1="-3647.625" y1="1959.3546" x2="-3618.5088" y2="1930.2384" gradientTransform="matrix(3.960855e-02 0.9992 0.9992 -3.960855e-02 -909.8161 4317.4517)">
		<stop  offset="0.1" style="stop-color:#5B5A72"/>
		<stop  offset="0.5" style="stop-color:#B0B0BF"/>
		<stop  offset="0.96" style="stop-color:#F4F4F6"/>
	</linearGradient>
	<path style="fill:url(#SVGID_00000168819802631352140810000001472595151946583990_);" d="M879.5,627.4l-1.3-33.3
		c-0.1-1.6,0.7-3.1,2.1-4c1.4-0.9,3.1-0.9,4.5-0.2l29.5,15.5c1.4,0.8,2.3,2.2,2.4,3.8c0.1,1.6-0.7,3.1-2.1,4L886.5,631
		c-1.4,0.9-3.1,0.9-4.5,0.2C880.5,630.4,879.6,629,879.5,627.4L879.5,627.4z M887.5,601.5l0.7,17.8l15-9.5L887.5,601.5L887.5,601.5z
		"/>
	
		<linearGradient id="SVGID_00000145760700402818025860000014855891437665539200_" gradientUnits="userSpaceOnUse" x1="-10828.1572" y1="-470.8246" x2="-10803.3506" y2="-495.6302" gradientTransform="matrix(-0.9961 8.837289e-02 8.837289e-02 0.9961 -9729.2422 2187.6575)">
		<stop  offset="0.1" style="stop-color:#5B5A72"/>
		<stop  offset="0.5" style="stop-color:#B0B0BF"/>
		<stop  offset="0.96" style="stop-color:#F4F4F6"/>
	</linearGradient>
	<path style="fill:url(#SVGID_00000145760700402818025860000014855891437665539200_);" d="M986.6,742.8l28.3-2.5
		c1.4-0.1,2.7,0.5,3.5,1.6c0.8,1.1,0.9,2.6,0.3,3.8l-12,25.8c-0.6,1.2-1.8,2.1-3.1,2.2c-1.4,0.1-2.7-0.5-3.5-1.6l-16.3-23.2
		c-0.8-1.1-0.9-2.6-0.3-3.8C984,743.8,985.2,742.9,986.6,742.8z M1009,748.5l-15.1,1.3l8.7,12.4L1009,748.5L1009,748.5z"/>
	
		<linearGradient id="SVGID_00000106119141741476887780000005471352261933729720_" gradientUnits="userSpaceOnUse" x1="-483.8864" y1="6369.0747" x2="-426.2964" y2="6311.4849" gradientTransform="matrix(0.4351 0.9004 0.9004 -0.4351 -4585.7031 3842.3442)">
		<stop  offset="0.1" style="stop-color:#5B5A72"/>
		<stop  offset="0.5" style="stop-color:#B0B0BF"/>
		<stop  offset="0.96" style="stop-color:#F4F4F6"/>
	</linearGradient>
	<path style="fill:url(#SVGID_00000106119141741476887780000005471352261933729720_);" d="M955.5,661c8.3,17.2,1.1,37.9-16.1,46.2
		s-37.9,1.1-46.3-16.1s-1.1-37.9,16.1-46.2S947.2,643.8,955.5,661z M931.3,690.4c7.9-3.8,11.2-13.4,7.4-21.3s-13.4-11.2-21.3-7.4
		c-7.9,3.8-11.2,13.4-7.4,21.3C913.8,690.9,923.4,694.3,931.3,690.4z"/>
	
		<linearGradient id="SVGID_00000170238272380682412380000000209356135071371401_" gradientUnits="userSpaceOnUse" x1="-265.4095" y1="6414.6514" x2="-245.9395" y2="6395.1816" gradientTransform="matrix(0.4351 0.9004 0.9004 -0.4351 -4585.7031 3842.3442)">
		<stop  offset="0.1" style="stop-color:#5B5A72"/>
		<stop  offset="0.5" style="stop-color:#B0B0BF"/>
		<stop  offset="0.96" style="stop-color:#F4F4F6"/>
	</linearGradient>
	<path style="fill:url(#SVGID_00000170238272380682412380000000209356135071371401_);" d="M1080.2,821.3c2.8,5.8,0.4,12.8-5.4,15.6
		c-5.8,2.8-12.8,0.4-15.6-5.5s-0.4-12.8,5.4-15.6S1077.4,815.5,1080.2,821.3L1080.2,821.3z M1072.1,831.2c2.7-1.3,3.8-4.5,2.5-7.2
		s-4.5-3.8-7.2-2.5c-2.7,1.3-3.8,4.5-2.5,7.2S1069.4,832.5,1072.1,831.2z"/>
	
		<linearGradient id="SVGID_00000169541093245628335930000018389707375796814260_" gradientUnits="userSpaceOnUse" x1="-5460.8047" y1="-3083.1689" x2="-5418.3584" y2="-3125.6255" gradientTransform="matrix(0.4258 -0.9048 -0.9048 -0.4258 441.4133 -5473.6035)">
		<stop  offset="0.1" style="stop-color:#5B5A72"/>
		<stop  offset="0.5" style="stop-color:#B0B0BF"/>
		<stop  offset="0.96" style="stop-color:#F4F4F6"/>
	</linearGradient>
	<path style="fill:url(#SVGID_00000169541093245628335930000018389707375796814260_);" d="M962.3,764.1l-14.8,31.4
		c-1.3,2.7-4.5,3.9-7.3,2.6c0,0,0,0,0,0l-31.4-14.8c-2.7-1.3-3.9-4.5-2.6-7.3c0,0,0,0,0,0l14.8-31.4c1.3-2.7,4.5-3.9,7.3-2.6
		c0,0,0,0,0,0l31.4,14.8C962.5,758.1,963.6,761.3,962.3,764.1C962.3,764.1,962.3,764.1,962.3,764.1z M940,785.9l10.1-21.5
		l-21.5-10.1l-10.1,21.5L940,785.9z"/>
	
		<linearGradient id="SVGID_00000000933282003066849900000007679599237601314981_" gradientUnits="userSpaceOnUse" x1="-5334.9844" y1="-2883.3997" x2="-5316.3525" y2="-2902.0312" gradientTransform="matrix(0.4258 -0.9048 -0.9048 -0.4258 441.4133 -5473.6035)">
		<stop  offset="0.1" style="stop-color:#5B5A72"/>
		<stop  offset="0.5" style="stop-color:#B0B0BF"/>
		<stop  offset="0.96" style="stop-color:#F4F4F6"/>
	</linearGradient>
	<path style="fill:url(#SVGID_00000000933282003066849900000007679599237601314981_);" d="M803.6,574.2l-6.5,13.8
		c-0.6,1.2-2,1.7-3.2,1.2l-13.8-6.5c-1.2-0.6-1.7-2-1.2-3.2l6.5-13.8c0.6-1.2,2-1.7,3.2-1.2l13.8,6.5
		C803.7,571.6,804.2,573,803.6,574.2z M793.8,583.8l4.4-9.4l-9.4-4.4l-4.4,9.4L793.8,583.8z"/>
	
		<linearGradient id="SVGID_00000039129011693107949570000015258294819335106970_" gradientUnits="userSpaceOnUse" x1="-10625.3809" y1="5787.6602" x2="-10594.4727" y2="5756.752" gradientTransform="matrix(-0.9867 0.1623 0.1623 0.9867 -10117.2256 -2634.6519)">
		<stop  offset="0.1" style="stop-color:#5B5A72"/>
		<stop  offset="0.5" style="stop-color:#B0B0BF"/>
		<stop  offset="0.96" style="stop-color:#F4F4F6"/>
	</linearGradient>
	<path style="fill:url(#SVGID_00000039129011693107949570000015258294819335106970_);" d="M1273.8,1324.9l24.9-4.1
		c2.2-0.4,4.2,1.1,4.6,3.3l4.1,24.9c0.4,2.2-1.1,4.2-3.3,4.6l-24.9,4.1c-2.2,0.4-4.2-1.1-4.6-3.3l-4.1-24.9
		C1270.2,1327.3,1271.7,1325.2,1273.8,1324.9z M1296.1,1329.3l-17.1,2.8l2.8,17.1l17.1-2.8L1296.1,1329.3z"/>
	
		<linearGradient id="SVGID_00000028325116500455845880000011055472901715669905_" gradientUnits="userSpaceOnUse" x1="-8936.8838" y1="-6881.293" x2="-8920.7412" y2="-6897.4438" gradientTransform="matrix(-0.2135 -0.9769 -0.9769 0.2135 -6663.4263 -5679.2915)">
		<stop  offset="0.1" style="stop-color:#5B5A72"/>
		<stop  offset="0.5" style="stop-color:#B0B0BF"/>
		<stop  offset="0.96" style="stop-color:#F4F4F6"/>
	</linearGradient>
	<path style="fill:url(#SVGID_00000028325116500455845880000011055472901715669905_);" d="M1977.9,1561.4l3.9,18.1
		c0.2,0.9-0.1,1.8-0.8,2.4s-1.6,0.8-2.4,0.5l-17.6-5.6c-1.3-0.4-2-1.8-1.6-3.1c0.1-0.4,0.4-0.8,0.7-1.1l13.7-12.4
		c0.7-0.6,1.6-0.8,2.4-0.5C1977.1,1559.8,1977.7,1560.5,1977.9,1561.4L1977.9,1561.4z M1976.1,1576.3l-2.1-9.6l-7.3,6.6
		L1976.1,1576.3z"/>
	
		<linearGradient id="SVGID_00000133515025855806159460000004058529950290786969_" gradientUnits="userSpaceOnUse" x1="-8724.3936" y1="3828.5652" x2="-8682.5967" y2="3786.7678" gradientTransform="matrix(-0.7142 0.6999 0.6999 0.7142 -7230.7769 4832.5894)">
		<stop  offset="0.1" style="stop-color:#5B5A72"/>
		<stop  offset="0.5" style="stop-color:#B0B0BF"/>
		<stop  offset="0.96" style="stop-color:#F4F4F6"/>
	</linearGradient>
	<path style="fill:url(#SVGID_00000133515025855806159460000004058529950290786969_);" d="M1622.5,1466.3l34.2-33.5
		c1.6-1.6,4-2.2,6.2-1.6c2.2,0.6,3.9,2.4,4.5,4.6l11.9,46.3c0.6,2.2-0.1,4.6-1.7,6.2s-4,2.2-6.2,1.6l-46.1-12.8
		c-2.2-0.6-3.9-2.4-4.5-4.6C1620.2,1470.3,1620.9,1467.9,1622.5,1466.3L1622.5,1466.3z M1657.8,1449.9l-18.2,17.9l24.6,6.9
		L1657.8,1449.9z"/>
	
		<linearGradient id="SVGID_00000055694880082896284670000007915900787081960107_" gradientUnits="userSpaceOnUse" x1="-9998.5156" y1="3031.3469" x2="-9964.04" y2="2996.8816" gradientTransform="matrix(-0.8836 0.4682 0.4682 0.8836 -8500.3145 3651.5862)">
		<stop  offset="0.1" style="stop-color:#5B5A72"/>
		<stop  offset="0.5" style="stop-color:#B0B0BF"/>
		<stop  offset="0.96" style="stop-color:#F4F4F6"/>
	</linearGradient>
	<path style="fill:url(#SVGID_00000055694880082896284670000007915900787081960107_);" d="M1706.9,1639.3l34.9-18.5
		c1.7-0.9,3.7-0.8,5.3,0.2c1.6,1,2.6,2.8,2.5,4.7l-1.4,39.4c-0.1,1.9-1.1,3.6-2.8,4.5s-3.7,0.8-5.3-0.2l-33.4-21
		c-2.5-1.6-3.2-4.8-1.7-7.3C1705.4,1640.4,1706.1,1639.8,1706.9,1639.3z M1738.6,1634.5l-18.6,9.9l17.8,11.2L1738.6,1634.5z"/>
	
		<linearGradient id="SVGID_00000139980431068174722810000018389772744615914129_" gradientUnits="userSpaceOnUse" x1="-9912.4697" y1="1233.6752" x2="-9840.6396" y2="1161.8452" gradientTransform="matrix(-0.8181 -0.575 -0.575 0.8181 -5704.75 -5098.5361)">
		<stop  offset="0.1" style="stop-color:#5B5A72"/>
		<stop  offset="0.5" style="stop-color:#B0B0BF"/>
		<stop  offset="0.96" style="stop-color:#F4F4F6"/>
	</linearGradient>
	<path style="fill:url(#SVGID_00000139980431068174722810000018389772744615914129_);" d="M1661.9,1593.8
		c-19.5-13.7-24.2-40.7-10.5-60.2s40.7-24.2,60.2-10.5c19.5,13.7,24.2,40.7,10.5,60.2C1708.3,1602.8,1681.4,1607.5,1661.9,1593.8
		L1661.9,1593.8z M1670.4,1547.1c-6.3,9-4.2,21.4,4.8,27.7c9,6.3,21.4,4.2,27.7-4.8c6.3-9,4.2-21.4-4.8-27.7
		C1689.1,1535.9,1676.7,1538.1,1670.4,1547.1z"/>
	
		<linearGradient id="SVGID_00000124858826979221076250000000942245060581616548_" gradientUnits="userSpaceOnUse" x1="-673.6484" y1="-1481.6089" x2="-644.2784" y2="-1510.9788" gradientTransform="matrix(0.8539 -0.5204 -0.5204 -0.8539 1656.2258 6.2161)">
		<stop  offset="0.1" style="stop-color:#5B5A72"/>
		<stop  offset="0.5" style="stop-color:#B0B0BF"/>
		<stop  offset="0.96" style="stop-color:#F4F4F6"/>
	</linearGradient>
	<path style="fill:url(#SVGID_00000124858826979221076250000000942245060581616548_);" d="M1863.7,1611.9c8.3-5.1,19.2-2.4,24.3,5.9
		s2.4,19.2-5.9,24.3c-8.3,5.1-19.2,2.4-24.3-5.9C1852.8,1627.9,1855.4,1617,1863.7,1611.9z M1879.9,1622.8
		c-2.3-3.8-7.3-5.1-11.2-2.7c-3.8,2.3-5.1,7.3-2.7,11.2c2.3,3.8,7.3,5.1,11.2,2.7S1882.2,1626.6,1879.9,1622.8z"/>
	
		<linearGradient id="SVGID_00000152969808987509883740000012849565118902459292_" gradientUnits="userSpaceOnUse" x1="-9630.8311" y1="1062.1635" x2="-9616.0713" y2="1047.4034" gradientTransform="matrix(-0.8181 -0.575 -0.575 0.8181 -5704.75 -5098.5361)">
		<stop  offset="0.1" style="stop-color:#5B5A72"/>
		<stop  offset="0.5" style="stop-color:#B0B0BF"/>
		<stop  offset="0.96" style="stop-color:#F4F4F6"/>
	</linearGradient>
	<path style="fill:url(#SVGID_00000152969808987509883740000012849565118902459292_);" d="M1557,1305c-4-2.8-5-8.4-2.2-12.4
		c2.8-4,8.4-5,12.4-2.2s5,8.4,2.2,12.4S1561,1307.8,1557,1305L1557,1305z M1558.8,1295.4c-1.3,1.8-0.8,4.4,1,5.7
		c1.8,1.3,4.4,0.8,5.7-1s0.8-4.4-1-5.7S1560.1,1293.6,1558.8,1295.4z"/>
	
		<linearGradient id="SVGID_00000004533626921943196180000016770681435861030847_" gradientUnits="userSpaceOnUse" x1="-9732.3682" y1="1194.7563" x2="-9707.9883" y2="1170.3763" gradientTransform="matrix(-0.8181 -0.575 -0.575 0.8181 -5704.75 -5098.5361)">
		<stop  offset="0.1" style="stop-color:#5B5A72"/>
		<stop  offset="0.5" style="stop-color:#B0B0BF"/>
		<stop  offset="0.96" style="stop-color:#F4F4F6"/>
	</linearGradient>
	<path style="fill:url(#SVGID_00000004533626921943196180000016770681435861030847_);" d="M1559.3,1469.6
		c-6.6-4.7-8.2-13.8-3.6-20.4s13.8-8.2,20.4-3.6c6.6,4.7,8.2,13.8,3.6,20.4C1575.1,1472.7,1565.9,1474.3,1559.3,1469.6
		L1559.3,1469.6z M1562.2,1453.8c-2.1,3.1-1.4,7.3,1.6,9.4s7.3,1.4,9.4-1.6s1.4-7.3-1.6-9.4S1564.4,1450.7,1562.2,1453.8z"/>
	
		<linearGradient id="SVGID_00000054960691977926677700000009811394641368477348_" gradientUnits="userSpaceOnUse" x1="-10764.5879" y1="730.4352" x2="-10723.0225" y2="688.8704" gradientTransform="matrix(-0.6761 -0.7368 -0.7368 0.6761 -4939.7705 -6824.7212)">
		<stop  offset="0.1" style="stop-color:#5B5A72"/>
		<stop  offset="0.5" style="stop-color:#B0B0BF"/>
		<stop  offset="0.96" style="stop-color:#F4F4F6"/>
	</linearGradient>
	<path style="fill:url(#SVGID_00000054960691977926677700000009811394641368477348_);" d="M1806.3,1543.3l23,25.1
		c2,2.2,1.8,5.6-0.3,7.6l-25.1,23c-2.2,2-5.6,1.8-7.6-0.3l-23-25.1c-2-2.2-1.8-5.6,0.3-7.6l25.1-23
		C1800.9,1541,1804.3,1541.1,1806.3,1543.3z M1817.8,1571.7l-15.7-17.2l-17.2,15.7l15.7,17.2L1817.8,1571.7z"/>
	
		<linearGradient id="SVGID_00000153666593761243613540000015351425138859375765_" gradientUnits="userSpaceOnUse" x1="-3516.3706" y1="9220.1279" x2="-3483.5159" y2="9187.2725" gradientTransform="matrix(4.257321e-02 0.9991 0.9991 -4.257321e-02 -7440.9204 5424.4487)">
		<stop  offset="0.1" style="stop-color:#5B5A72"/>
		<stop  offset="0.5" style="stop-color:#B0B0BF"/>
		<stop  offset="0.96" style="stop-color:#F4F4F6"/>
	</linearGradient>
	<path style="fill:url(#SVGID_00000153666593761243613540000015351425138859375765_);" d="M1588.5,1549.9l-1.2-26.8
		c-0.1-2.3,1.7-4.3,4-4.4c0,0,0,0,0,0l26.8-1.2c2.3-0.1,4.3,1.7,4.4,4.1l1.2,26.8c0.1,2.3-1.7,4.3-4.1,4.4l-26.8,1.2
		C1590.5,1554.1,1588.6,1552.3,1588.5,1549.9z M1595.9,1526.9l0.8,18.4l18.4-0.8l-0.8-18.4L1595.9,1526.9z"/>
	
		<linearGradient id="SVGID_00000139980331471344548850000015602390489093163186_" gradientUnits="userSpaceOnUse" x1="-11100.0605" y1="4482.3594" x2="-11076.2363" y2="4458.5356" gradientTransform="matrix(-0.9729 -0.2314 -0.2314 0.9729 -8134.2402 -5528.6167)">
		<stop  offset="0.1" style="stop-color:#5B5A72"/>
		<stop  offset="0.5" style="stop-color:#B0B0BF"/>
		<stop  offset="0.96" style="stop-color:#F4F4F6"/>
	</linearGradient>
	<path style="fill:url(#SVGID_00000139980331471344548850000015602390489093163186_);" d="M1611.9,1371.6l18.9,4.5
		c1.7,0.4,2.7,2.1,2.3,3.7l-4.5,18.9c-0.4,1.7-2,2.7-3.7,2.3l-18.9-4.5c-1.7-0.4-2.7-2-2.3-3.7l4.5-18.9
		C1608.6,1372.2,1610.2,1371.2,1611.9,1371.6z M1626.4,1381.4l-13-3.1l-3.1,13l13,3.1L1626.4,1381.4z"/>
	
		<linearGradient id="SVGID_00000036247909796859988380000017094045611244226188_" gradientUnits="userSpaceOnUse" x1="-10024.2578" y1="562.0427" x2="-9995.9658" y2="533.74" gradientTransform="matrix(-0.8527 -0.5223 -0.5223 0.8527 -8216.6611 -4801.1982)">
		<stop  offset="0.1" style="stop-color:#5B5A72"/>
		<stop  offset="0.5" style="stop-color:#B0B0BF"/>
		<stop  offset="0.96" style="stop-color:#F4F4F6"/>
	</linearGradient>
	<path style="fill:url(#SVGID_00000036247909796859988380000017094045611244226188_);" d="M31.3,876.4L51,888.5c1.7,1,2.3,3.3,1.2,5
		c0,0,0,0,0,0l-12.1,19.7c-1,1.7-3.3,2.3-5,1.2c0,0,0,0,0,0l-19.7-12.1c-1.7-1-2.3-3.3-1.2-5c0,0,0,0,0,0l12.1-19.7
		C27.3,875.8,29.6,875.3,31.3,876.4C31.3,876.4,31.3,876.4,31.3,876.4z M44.1,892.8l-13.5-8.3L22.3,898l13.5,8.3
		C35.8,906.3,44.1,892.8,44.1,892.8z"/>
	
		<linearGradient id="SVGID_00000101096678481864850380000003381869473622322598_" gradientUnits="userSpaceOnUse" x1="-3469.6162" y1="-5083.4727" x2="-3418.4341" y2="-5134.6548" gradientTransform="matrix(0.8722 -0.4892 -0.4892 -0.8722 967.8129 -4727.3501)">
		<stop  offset="0.1" style="stop-color:#5B5A72"/>
		<stop  offset="0.5" style="stop-color:#B0B0BF"/>
		<stop  offset="0.96" style="stop-color:#F4F4F6"/>
	</linearGradient>
	<path style="fill:url(#SVGID_00000101096678481864850380000003381869473622322598_);" d="M498.2,1415.4l-51.1,28.7
		c-2.5,1.4-5.5,1.3-7.9-0.1c-2.4-1.4-3.9-4.1-3.9-6.9l0.7-58.6c0.1-4.4,3.6-7.8,8-7.8c1.4,0,2.7,0.4,3.9,1.1l50.4,29.9
		c2.4,1.4,3.9,4.1,3.9,6.9C502.3,1411.4,500.7,1414,498.2,1415.4L498.2,1415.4z M451.4,1423.6l27.3-15.3l-26.9-16L451.4,1423.6
		L451.4,1423.6z"/>
	
		<linearGradient id="SVGID_00000118383268793719026810000001026981602314616727_" gradientUnits="userSpaceOnUse" x1="-10474.3975" y1="-1094.2395" x2="-10459.9639" y2="-1108.6836" gradientTransform="matrix(-0.9983 5.791264e-02 5.791264e-02 0.9983 -9739.3818 3085.2854)">
		<stop  offset="0.1" style="stop-color:#5B5A72"/>
		<stop  offset="0.5" style="stop-color:#B0B0BF"/>
		<stop  offset="0.96" style="stop-color:#F4F4F6"/>
	</linearGradient>
	<path style="fill:url(#SVGID_00000118383268793719026810000001026981602314616727_);" d="M638.1,1374.9l16.5-1c0.8-0.1,1.5,0.3,2,1
		c0.4,0.7,0.5,1.5,0.1,2.2l-7.4,14.8c-0.4,0.7-1.1,1.2-1.9,1.2s-1.5-0.3-2-1l-9.1-13.8c-0.7-1-0.4-2.4,0.6-3.1
		C637.3,1375.1,637.7,1374.9,638.1,1374.9L638.1,1374.9z M651,1378.6l-8.8,0.5l4.8,7.4L651,1378.6L651,1378.6z"/>
	
		<linearGradient id="SVGID_00000157310578206156284380000016855349861542543038_" gradientUnits="userSpaceOnUse" x1="-5355.8018" y1="1943.8593" x2="-5326.0889" y2="1914.1459" gradientTransform="matrix(0.1028 0.9947 0.9947 -0.1028 -1125.8503 6848.1353)">
		<stop  offset="0.1" style="stop-color:#5B5A72"/>
		<stop  offset="0.5" style="stop-color:#B0B0BF"/>
		<stop  offset="0.96" style="stop-color:#F4F4F6"/>
	</linearGradient>
	<path style="fill:url(#SVGID_00000157310578206156284380000016855349861542543038_);" d="M235,1355.2l-3.5-33.8
		c-0.3-2.5,1.6-4.8,4.1-5c0.8-0.1,1.6,0,2.3,0.4l31.1,13.9c1.5,0.7,2.5,2.1,2.7,3.7s-0.5,3.2-1.9,4.2l-27.6,19.9
		c-1.3,1-3.1,1.1-4.6,0.5C236.1,1358.2,235.1,1356.8,235,1355.2L235,1355.2z M241.4,1328.3l1.9,18.1l14.7-10.6L241.4,1328.3
		L241.4,1328.3z"/>
	
		<linearGradient id="SVGID_00000067928383881778270800000011727630733847620268_" gradientUnits="userSpaceOnUse" x1="-8963.7344" y1="2991.6482" x2="-8941.5938" y2="2969.498" gradientTransform="matrix(-0.9831 -0.1831 -0.1831 0.9831 -8046.3301 -3345.3008)">
		<stop  offset="0.1" style="stop-color:#5B5A72"/>
		<stop  offset="0.5" style="stop-color:#B0B0BF"/>
		<stop  offset="0.96" style="stop-color:#F4F4F6"/>
	</linearGradient>
	<path style="fill:url(#SVGID_00000067928383881778270800000011727630733847620268_);" d="M206.5,1236.6c-7.2-1.3-12-8.3-10.7-15.5
		c1.4-7.2,8.3-12,15.5-10.7c7.2,1.3,12,8.3,10.6,15.5C220.6,1233.2,213.7,1237.9,206.5,1236.6L206.5,1236.6z M202.9,1222.4
		c-0.6,3.3,1.6,6.5,4.9,7.2c3.3,0.6,6.5-1.6,7.1-4.9s-1.6-6.5-4.9-7.2C206.7,1216.9,203.5,1219.1,202.9,1222.4z"/>
	
		<linearGradient id="SVGID_00000150066858886944767590000003595029425157304715_" gradientUnits="userSpaceOnUse" x1="-9172.8164" y1="3184.8367" x2="-9131.5967" y2="3143.6167" gradientTransform="matrix(-0.9831 -0.1831 -0.1831 0.9831 -8046.3301 -3345.3008)">
		<stop  offset="0.1" style="stop-color:#5B5A72"/>
		<stop  offset="0.5" style="stop-color:#B0B0BF"/>
		<stop  offset="0.96" style="stop-color:#F4F4F6"/>
	</linearGradient>
	<path style="fill:url(#SVGID_00000150066858886944767590000003595029425157304715_);" d="M366.6,1464.5
		c-13.5-2.5-22.3-15.4-19.8-28.9c2.5-13.4,15.5-22.3,28.9-19.8s22.3,15.5,19.8,28.9C393,1458.1,380,1467,366.6,1464.5z M359.9,1438
		c-1.1,6.2,2.9,12.2,9.1,13.3s12.1-2.9,13.3-9.1s-2.9-12.2-9.1-13.3S361,1431.8,359.9,1438z"/>
	
		<linearGradient id="SVGID_00000163035047236324550550000006538481130524086165_" gradientUnits="userSpaceOnUse" x1="-1921.2064" y1="5777.8276" x2="-1893.9364" y2="5750.5576" gradientTransform="matrix(0.5394 0.8421 0.8421 -0.5394 -3360.5386 6031.855)">
		<stop  offset="0.1" style="stop-color:#5B5A72"/>
		<stop  offset="0.5" style="stop-color:#B0B0BF"/>
		<stop  offset="0.96" style="stop-color:#F4F4F6"/>
	</linearGradient>
	<path style="fill:url(#SVGID_00000163035047236324550550000006538481130524086165_);" d="M478.1,1308.5c4.9,7.6,2.7,17.8-5,22.7
		c-7.6,4.9-17.8,2.7-22.7-5s-2.6-17.8,5-22.7C463.1,1298.6,473.2,1300.9,478.1,1308.5z M468.4,1323.7c3.5-2.2,4.5-6.9,2.3-10.4
		c-2.2-3.5-6.9-4.5-10.4-2.3c-3.5,2.2-4.5,6.9-2.3,10.4C460.2,1324.9,464.9,1325.9,468.4,1323.7z"/>
	
		<linearGradient id="SVGID_00000105402733346206989420000013307953957095746981_" gradientUnits="userSpaceOnUse" x1="-7261.5425" y1="-2709.3457" x2="-7222.6304" y2="-2748.2681" gradientTransform="matrix(-5.585019e-03 -1 -1 5.585019e-03 -2423.5674 -5874.3154)">
		<stop  offset="0.1" style="stop-color:#5B5A72"/>
		<stop  offset="0.5" style="stop-color:#B0B0BF"/>
		<stop  offset="0.96" style="stop-color:#F4F4F6"/>
	</linearGradient>
	<path style="fill:url(#SVGID_00000105402733346206989420000013307953957095746981_);" d="M366.6,1336.2l0.2,31.8c0,2.8-2.2,5-5,5
		c0,0,0,0,0,0l-31.8,0.2c-2.8,0-5-2.2-5-5c0,0,0,0,0,0l-0.2-31.8c0-2.8,2.2-5,5-5c0,0,0,0,0,0l31.8-0.2
		C364.3,1331.2,366.6,1333.5,366.6,1336.2C366.6,1336.2,366.6,1336.2,366.6,1336.2z M356.7,1363.1l-0.1-21.8l-21.8,0.1l0.1,21.8
		L356.7,1363.1z"/>
	
		<linearGradient id="SVGID_00000147930757898429092470000007078292569373036713_" gradientUnits="userSpaceOnUse" x1="-7099.2109" y1="-2506.6545" x2="-7081.1597" y2="-2524.7061" gradientTransform="matrix(-5.585019e-03 -1 -1 5.585019e-03 -2423.5674 -5874.3154)">
		<stop  offset="0.1" style="stop-color:#5B5A72"/>
		<stop  offset="0.5" style="stop-color:#B0B0BF"/>
		<stop  offset="0.96" style="stop-color:#F4F4F6"/>
	</linearGradient>
	<path style="fill:url(#SVGID_00000147930757898429092470000007078292569373036713_);" d="M141.5,1194.1l0.1,14.8
		c0,1.3-1,2.3-2.3,2.3l-14.8,0.1c-1.3,0-2.3-1-2.3-2.3l-0.1-14.8c0-1.3,1-2.3,2.3-2.3l14.8-0.1
		C140.4,1191.8,141.5,1192.8,141.5,1194.1z M136.9,1206.6l-0.1-10.1l-10.1,0.1l0.1,10.1L136.9,1206.6z"/>
	
		<linearGradient id="SVGID_00000114034233184301111960000009323283038537706901_" gradientUnits="userSpaceOnUse" x1="-4556.8179" y1="5092.6274" x2="-4531.6943" y2="5067.5039" gradientTransform="matrix(0.1762 0.9843 0.9843 -0.1762 -3651.1663 6727.5361)">
		<stop  offset="0.1" style="stop-color:#5B5A72"/>
		<stop  offset="0.5" style="stop-color:#B0B0BF"/>
		<stop  offset="0.96" style="stop-color:#F4F4F6"/>
	</linearGradient>
	<path style="fill:url(#SVGID_00000114034233184301111960000009323283038537706901_);" d="M537.1,1371.7l-3.6-20.2
		c-0.3-1.8,0.9-3.4,2.6-3.8l20.2-3.6c1.8-0.3,3.4,0.9,3.8,2.6l3.6,20.2c0.3,1.8-0.9,3.4-2.6,3.8l-20.2,3.6
		C539.1,1374.6,537.4,1373.4,537.1,1371.7z M540.4,1353.5l2.5,13.8l13.8-2.5l-2.5-13.8L540.4,1353.5z"/>
</g>
</svg>
