<?xml version="1.0" encoding="utf-8"?>
<!-- Generator: Adobe Illustrator 23.0.2, SVG Export Plug-In . SVG Version: 6.00 Build 0)  -->
<svg version="1.1" id="Calque_1" xmlns="http://www.w3.org/2000/svg" xmlns:xlink="http://www.w3.org/1999/xlink" x="0px" y="0px"
	 viewBox="0 0 100 100" style="enable-background:new 0 0 100 100;" xml:space="preserve">
<style type="text/css">
	.st0{opacity:0.8;}
	.st1{fill-rule:evenodd;clip-rule:evenodd;fill:#CECECE;}
</style>
<g class="st0">
	<path class="st1" d="M61.4,18l3.2,1.3l0,0l0,0c0.2,0.1,0.4,0.1,0.6,0.1c0.2,0,0.4-0.1,0.6-0.2l6.8-3.5c0.7-0.3,1.4-0.4,2-0.3
		c0.7,0.1,1.3,0.4,1.8,0.9v0l0,0l7.1,7.1c0.5,0.5,0.8,1.2,0.9,1.8c0.1,0.7,0,1.4-0.3,2l-3.5,6.8c-0.1,0.2-0.2,0.4-0.2,0.6
		c0,0.2,0,0.4,0.1,0.6l1.4,3.3c0.1,0.2,0.2,0.4,0.4,0.5c0.1,0.1,0.3,0.2,0.5,0.3l7.3,2.3c0.7,0.2,1.3,0.6,1.7,1.2v0
		c0.4,0.6,0.6,1.2,0.6,2v10c0,0.7-0.2,1.4-0.6,2l0,0v0c-0.4,0.5-1,1-1.7,1.2l-7.3,2.3c-0.2,0.1-0.4,0.2-0.5,0.3
		c-0.1,0.1-0.3,0.3-0.3,0.5l0,0l-1.3,3.2c-0.1,0.2-0.1,0.4-0.1,0.6c0,0.2,0.1,0.4,0.2,0.6l3.5,6.8c0.3,0.6,0.4,1.4,0.3,2
		c-0.1,0.7-0.4,1.3-0.9,1.8l-7.1,7.1c-0.5,0.5-1.2,0.8-1.8,0.9c-0.7,0.1-1.4,0-2-0.3l-6.8-3.5c-0.2-0.1-0.4-0.2-0.6-0.2
		c-0.2,0-0.4,0-0.6,0.1L61.3,82c-0.2,0.1-0.4,0.2-0.5,0.4c-0.1,0.1-0.2,0.3-0.3,0.5l-2.3,7.3l0,0h0c-0.2,0.7-0.7,1.3-1.2,1.7
		c-0.6,0.4-1.2,0.6-2,0.6H45c-0.7,0-1.4-0.2-2-0.6c-0.6-0.4-1-1-1.2-1.7l0,0l-2.3-7.3c-0.1-0.2-0.2-0.4-0.3-0.5
		c-0.1-0.2-0.3-0.3-0.5-0.4l0,0l-3.2-1.3c-0.2-0.1-0.4-0.1-0.6-0.1c-0.2,0-0.4,0.1-0.6,0.2l-6.8,3.5c-0.6,0.3-1.4,0.4-2,0.3
		c-0.7-0.1-1.3-0.4-1.8-0.9l-7.1-7.1l-0.1-0.1c-0.5-0.5-0.8-1.1-0.9-1.8c-0.1-0.7,0-1.4,0.3-2l3.5-6.8c0.1-0.2,0.2-0.4,0.2-0.6
		c0-0.2,0-0.4-0.1-0.6L18,61.3c-0.1-0.2-0.2-0.4-0.3-0.5c-0.2-0.1-0.3-0.2-0.5-0.3l-7.3-2.3C9.1,58,8.5,57.5,8.1,57l0-0.1
		c-0.4-0.5-0.6-1.2-0.6-1.9V45c0-0.7,0.2-1.4,0.6-2l0,0v0c0.4-0.5,1-1,1.7-1.2l7.3-2.3l0,0c0.2-0.1,0.4-0.2,0.5-0.3
		c0.1-0.1,0.3-0.3,0.3-0.5l1.4-3.3c0.1-0.2,0.1-0.4,0.1-0.6c0-0.2-0.1-0.4-0.2-0.6l-3.5-6.8c-0.3-0.6-0.4-1.4-0.3-2
		c0.1-0.7,0.4-1.3,0.9-1.8l0,0l7.1-7.1c0.5-0.5,1.2-0.8,1.8-0.9c0.7-0.1,1.4,0,2,0.3l6.8,3.5c0.2,0.1,0.4,0.2,0.6,0.2
		c0.2,0,0.4,0,0.6-0.1h0l3.3-1.4l0,0c0.2-0.1,0.3-0.2,0.5-0.3c0.1-0.1,0.2-0.3,0.3-0.5l0,0l2.3-7.3v0l0,0C42,9.1,42.5,8.5,43,8.1
		c0.6-0.4,1.2-0.6,2-0.6h10c0.7,0,1.4,0.2,2,0.6c0.6,0.4,1,1,1.2,1.7l0,0l2.3,7.3c0.1,0.2,0.2,0.4,0.3,0.5
		C61,17.8,61.1,17.9,61.4,18L61.4,18L61.4,18z M50,70.9c5.8,0,11-2.3,14.8-6.1c3.8-3.8,6.1-9,6.1-14.8c0-5.8-2.3-11-6.1-14.8
		c-3.8-3.8-9-6.1-14.8-6.1c-5.8,0-11,2.3-14.8,6.1c-3.8,3.8-6.1,9-6.1,14.8c0,5.8,2.3,11,6.1,14.8C39,68.6,44.2,70.9,50,70.9
		L50,70.9z M66.1,66.1c4.1-4.1,6.7-9.8,6.7-16.1c0-6.3-2.6-12-6.7-16.1c-4.1-4.1-9.8-6.7-16.1-6.7c-6.3,0-12,2.6-16.1,6.7
		c-4.1,4.1-6.7,9.8-6.7,16.1c0,6.3,2.6,12,6.7,16.1c4.1,4.1,9.8,6.7,16.1,6.7C56.3,72.8,62,70.2,66.1,66.1L66.1,66.1z M63.9,21.1
		l-3.2-1.3l0,0c-0.5-0.2-0.9-0.5-1.2-0.8c-0.3-0.3-0.6-0.8-0.7-1.2l-2.3-7.3l0,0c-0.1-0.3-0.3-0.6-0.5-0.7c-0.2-0.2-0.5-0.3-0.9-0.3
		H45c-0.3,0-0.6,0.1-0.9,0.3c-0.2,0.2-0.4,0.4-0.5,0.7l0,0l-2.3,7.3l0,0c-0.2,0.5-0.4,0.9-0.7,1.2c-0.3,0.3-0.7,0.6-1.1,0.8l-0.1,0
		l-3.3,1.4l0,0l0,0c-0.5,0.2-0.9,0.3-1.4,0.3c-0.5,0-0.9-0.1-1.4-0.4l-6.8-3.5c-0.3-0.1-0.6-0.2-0.9-0.1c-0.3,0-0.6,0.2-0.8,0.4
		l-7.1,7.1v0l0,0c-0.2,0.2-0.4,0.5-0.4,0.8c0,0.3,0,0.6,0.2,0.9l3.5,6.8c0.2,0.4,0.4,0.9,0.4,1.4c0,0.5-0.1,0.9-0.3,1.4l-1.4,3.3
		c-0.2,0.5-0.5,0.9-0.8,1.2c-0.3,0.3-0.8,0.6-1.2,0.7v0l0,0l-7.3,2.3c-0.3,0.1-0.6,0.3-0.7,0.5h0c-0.2,0.2-0.3,0.5-0.3,0.8v10
		c0,0.3,0.1,0.6,0.2,0.8l0,0c0.2,0.2,0.4,0.4,0.7,0.5l7.3,2.3c0.5,0.2,0.9,0.4,1.2,0.7c0.3,0.3,0.6,0.7,0.8,1.2l1.4,3.3
		c0.2,0.5,0.3,0.9,0.3,1.4c0,0.5-0.1,0.9-0.4,1.4l-3.5,6.8c-0.2,0.3-0.2,0.6-0.2,0.9c0,0.3,0.2,0.5,0.4,0.7l0,0l7.1,7.1
		c0.2,0.2,0.5,0.4,0.8,0.4c0.3,0,0.6,0,0.9-0.1l6.8-3.5c0.4-0.2,0.9-0.4,1.4-0.4c0.5,0,0.9,0.1,1.4,0.3l3.2,1.3l0,0
		c0.5,0.2,0.9,0.5,1.2,0.8c0.3,0.3,0.6,0.8,0.7,1.2l2.3,7.3l0,0c0.1,0.3,0.3,0.6,0.5,0.7c0.2,0.2,0.5,0.3,0.8,0.3h10
		c0.3,0,0.6-0.1,0.9-0.3c0.2-0.2,0.4-0.4,0.5-0.7v0l2.3-7.3c0.2-0.5,0.4-0.9,0.7-1.2c0.3-0.3,0.7-0.6,1.2-0.8l3.3-1.4
		c0.5-0.2,0.9-0.3,1.4-0.3c0.5,0,0.9,0.1,1.4,0.4l6.8,3.5c0.3,0.1,0.6,0.2,0.9,0.1c0.3,0,0.6-0.2,0.8-0.4l7.1-7.1
		c0.2-0.2,0.4-0.5,0.4-0.8c0-0.3,0-0.6-0.2-0.9L79,66.7c-0.2-0.4-0.4-0.9-0.4-1.4c0-0.5,0.1-0.9,0.3-1.4l1.3-3.2l0,0
		c0.2-0.5,0.5-0.9,0.8-1.2c0.3-0.3,0.8-0.6,1.2-0.7l7.3-2.3c0.3-0.1,0.5-0.3,0.7-0.5l0,0c0.2-0.2,0.3-0.5,0.3-0.8V45
		c0-0.3-0.1-0.6-0.3-0.8h0h0c-0.2-0.2-0.4-0.4-0.7-0.5l-7.3-2.3c-0.5-0.2-0.9-0.4-1.2-0.7c-0.3-0.3-0.6-0.7-0.8-1.2l-1.4-3.3
		c-0.2-0.5-0.3-0.9-0.3-1.4c0-0.5,0.1-0.9,0.4-1.4l3.5-6.8c0.2-0.3,0.2-0.6,0.2-0.9c0-0.3-0.2-0.6-0.4-0.8l-7.1-7.1l0,0
		c-0.2-0.2-0.5-0.4-0.8-0.4c-0.3,0-0.6,0-0.9,0.1L66.7,21c-0.4,0.2-0.9,0.4-1.4,0.4C64.8,21.4,64.3,21.3,63.9,21.1L63.9,21.1
		L63.9,21.1z M58.2,9.9L57.6,11C58,10.8,58.3,10.3,58.2,9.9L58.2,9.9z M50,40.5c-2.6,0-5,1.1-6.7,2.8l0,0h0
		c-1.7,1.7-2.8,4.1-2.8,6.7c0,2.6,1,4.9,2.7,6.7l0.1,0.1c1.7,1.7,4.1,2.8,6.7,2.8c2.6,0,4.9-1,6.7-2.7l0.1-0.1
		c1.7-1.7,2.8-4.1,2.8-6.7c0-2.6-1.1-5-2.8-6.7C55,41.6,52.6,40.5,50,40.5L50,40.5z M55.4,44.6c-1.4-1.4-3.3-2.2-5.4-2.2
		c-2.1,0-4,0.8-5.4,2.2l0,0c-1.4,1.4-2.2,3.3-2.2,5.4c0,2.1,0.8,4,2.2,5.3l0,0c1.4,1.4,3.3,2.2,5.4,2.2c2.1,0,3.9-0.8,5.3-2.2l0-0.1
		c1.4-1.4,2.2-3.3,2.2-5.4S56.7,46,55.4,44.6z"/>
</g>
</svg>
