<?xml version="1.0" encoding="utf-8"?>
<!-- Generator: Adobe Illustrator 23.0.2, SVG Export Plug-In . SVG Version: 6.00 Build 0)  -->
<svg version="1.1" id="Calque_1" xmlns="http://www.w3.org/2000/svg" xmlns:xlink="http://www.w3.org/1999/xlink" x="0px" y="0px"
	 viewBox="0 0 100 100" style="enable-background:new 0 0 100 100;" xml:space="preserve">
<style type="text/css">
	.st0{opacity:0.8;fill-rule:evenodd;clip-rule:evenodd;fill:#CECECE;enable-background:new    ;}
</style>
<path class="st0" d="M29.3,16.4l28.2,0l0.1,0c0.2,0,0.5,0.1,0.6,0.3l17.1,17.1c0.2,0.1,0.3,0.4,0.3,0.6l0,0.1l0,44.3
	c0,1.3-0.5,2.6-1.4,3.4c-0.9,0.9-2.1,1.4-3.4,1.4H29.3h0v0c-1.3,0-2.6-0.5-3.4-1.4c-0.9-0.9-1.4-2.1-1.4-3.4h0v0V21.2v0
	c0-1.3,0.5-2.6,1.4-3.4C26.7,16.9,28,16.4,29.3,16.4L29.3,16.4L29.3,16.4L29.3,16.4L29.3,16.4z M33.8,59.3h24.2
	c0.4,0,0.8-0.4,0.8-0.8c0-0.4-0.4-0.8-0.8-0.8H33.8c-0.4,0-0.8,0.4-0.8,0.8C33,58.9,33.3,59.3,33.8,59.3L33.8,59.3z M33.8,50.3h30.7
	c0.4,0,0.8-0.4,0.8-0.8c0-0.4-0.4-0.8-0.8-0.8H33.8c-0.4,0-0.8,0.4-0.8,0.8C33,50,33.3,50.3,33.8,50.3L33.8,50.3z M33.8,41.9h28.4
	c0.4,0,0.8-0.4,0.8-0.8c0-0.5-0.4-0.8-0.8-0.8H33.8c-0.4,0-0.8,0.4-0.8,0.8C33,41.5,33.3,41.9,33.8,41.9L33.8,41.9z M63.2,62.2
	c-1.3,0-2.6,0.5-3.4,1.4l0,0c-0.9,0.9-1.4,2.1-1.4,3.4c0,1.3,0.5,2.6,1.4,3.4c0.9,0.9,2.1,1.4,3.4,1.4c1.3,0,2.6-0.5,3.4-1.4v0v0
	c0.9-0.9,1.4-2.1,1.4-3.4c0-1.3-0.5-2.6-1.4-3.4l0,0C65.7,62.7,64.5,62.2,63.2,62.2L63.2,62.2z M58.6,62.4L58.6,62.4
	c-1.2,1.2-1.9,2.8-1.9,4.6c0,1.8,0.7,3.4,1.9,4.6c1.2,1.2,2.8,1.9,4.6,1.9c1.8,0,3.4-0.7,4.6-1.9l0,0c1.2-1.2,1.9-2.8,1.9-4.6
	c0-1.8-0.7-3.4-1.9-4.6l0,0v0l0,0c-1.2-1.2-2.8-1.9-4.6-1.9C61.4,60.5,59.7,61.3,58.6,62.4L58.6,62.4z M73.9,35.2H61.6
	c-1.3,0-2.6-0.5-3.4-1.4h0l0,0l0,0c-0.9-0.9-1.4-2.1-1.4-3.4V18H29.3v0h0v0c-0.9,0-1.7,0.4-2.3,1c-0.6,0.6-1,1.4-1,2.3v0v57.5v0h0
	c0,0.9,0.4,1.7,1,2.3c0.6,0.6,1.4,1,2.3,1v0h0h41.4c0.9,0,1.7-0.4,2.3-1c0.6-0.6,1-1.4,1-2.3L73.9,35.2L73.9,35.2z M58.4,19.1v11.2
	c0,0.9,0.4,1.7,1,2.3h0c0.6,0.6,1.4,1,2.3,1h11.2L58.4,19.1z"/>
</svg>
