<?xml version="1.0" encoding="utf-8"?>
<!-- Generator: Adobe Illustrator 23.0.2, SVG Export Plug-In . SVG Version: 6.00 Build 0)  -->
<svg version="1.1" id="Calque_1" xmlns="http://www.w3.org/2000/svg" xmlns:xlink="http://www.w3.org/1999/xlink" x="0px" y="0px"
	 viewBox="0 0 100 100" style="enable-background:new 0 0 100 100;" xml:space="preserve">
<style type="text/css">
	.st0{fill:#DE6339;}
</style>
<g>
	<path class="st0" d="M26.6,80.7c0.3,4.1,3.7,7.3,7.8,7.3h31.1c4.1,0,7.6-3.2,7.8-7.3L76.9,26H84v-4H64v-4.3c0-3.2-2.6-5.7-5.7-5.7
		H41.7c-3.2,0-5.7,2.6-5.7,5.7V22H16v4h7.1L26.6,80.7z M40,17.7c0-1,0.8-1.7,1.7-1.7h16.5c1,0,1.7,0.8,1.7,1.7V22H40V17.7z M36,26
		h28h8.9l-3.5,54.4c-0.1,2-1.8,3.6-3.8,3.6H34.5c-2,0-3.7-1.6-3.8-3.6L27.1,26H36z"/>
	<rect x="48" y="37" class="st0" width="4" height="37"/>
	<rect x="37" y="37" class="st0" width="4" height="37"/>
	<rect x="59" y="37" class="st0" width="4" height="37"/>
</g>
</svg>
