<?xml version="1.0" encoding="utf-8"?>
<!-- Generator: Adobe Illustrator 23.0.2, SVG Export Plug-In . SVG Version: 6.00 Build 0)  -->
<svg version="1.1" id="Calque_1" xmlns="http://www.w3.org/2000/svg" xmlns:xlink="http://www.w3.org/1999/xlink" x="0px" y="0px"
	 viewBox="0 0 100 100" style="enable-background:new 0 0 100 100;" xml:space="preserve">
<style type="text/css">
	.st0{fill:#DE6339;}
</style>
<g>
	<path class="st0" d="M71,15.3l8.8,7.7c3.9,3,4.1,8.5,1.1,12.4L39.3,84.7l-20.4,1.9L17,66l41.6-49.6C61.6,12.8,67.2,12.3,71,15.3z
		 M24.2,65.2L39,77.6l31.1-37.2L55.3,28L24.2,65.2z M34.6,80.3L22.2,69.9l1.1,11.3L34.6,80.3z M76.5,26.6l-8.8-7.4
		c-1.7-1.4-4.1-1.1-5.5,0.6l-3.6,4.4l14.9,12.4l3.6-4.4C78.5,30.5,78.2,28,76.5,26.6z"/>
</g>
</svg>
