<?xml version="1.0" encoding="utf-8"?>
<!-- Generator: Adobe Illustrator 23.0.2, SVG Export Plug-In . SVG Version: 6.00 Build 0)  -->
<svg version="1.1" id="Calque_1" xmlns="http://www.w3.org/2000/svg" xmlns:xlink="http://www.w3.org/1999/xlink" x="0px" y="0px"
	 viewBox="0 0 100 100" style="enable-background:new 0 0 100 100;" xml:space="preserve">
<style type="text/css">
	.st0{opacity:0.8;fill-rule:evenodd;clip-rule:evenodd;fill:#CECECE;}
</style>
<path class="st0" d="M7.5,40.6h16h51.3h15.9h0.1v-4H7.5V40.6L7.5,40.6z M75.4,42v23.2c0,0.4-0.3,0.7-0.7,0.7H23.4
	c-0.4,0-0.7-0.3-0.7-0.7V42h-16C6.3,42,6,41.7,6,41.3v-5.4c0-0.4,0.3-0.7,0.7-0.7h84.7c0.4,0,0.7,0.3,0.7,0.7v5.4
	c0,0.4-0.3,0.7-0.7,0.7h-0.1v23c0.6,0.1,1.2,0.5,1.7,0.9c0.6,0.6,1,1.5,1,2.4s-0.4,1.8-1,2.4c-0.4,0.4-1,0.8-1.7,0.9v0.8
	c0.6,0.1,1.2,0.5,1.7,0.9l0,0l0,0c0.6,0.6,1,1.5,1,2.4v8.7c0,0.7-0.3,1.3-0.7,1.8c-0.5,0.5-1.1,0.7-1.8,0.7h-1.6
	c-0.7,0-1.3-0.3-1.8-0.7l0,0l0,0c-0.5-0.5-0.7-1.1-0.7-1.8v-8.7c0-0.9,0.4-1.8,1-2.4l0,0c0.4-0.4,1-0.8,1.7-0.9v-0.8
	c-0.6-0.1-1.2-0.5-1.7-0.9c-0.6-0.6-1-1.5-1-2.4s0.4-1.8,1-2.4c0.4-0.4,1-0.8,1.7-0.9V42H75.4L75.4,42z M24.2,42v22.4H74V42H24.2
	L24.2,42z M92,67c-0.3-0.3-0.8-0.6-1.4-0.6c-0.5,0-1,0.2-1.4,0.6c-0.3,0.3-0.6,0.8-0.6,1.4c0,0.5,0.2,1,0.6,1.4
	c0.3,0.3,0.8,0.6,1.4,0.6c0.5,0,1-0.2,1.4-0.6c0.3-0.3,0.6-0.8,0.6-1.4C92.5,67.8,92.3,67.3,92,67L92,67z M88.7,75.7v8.7
	c0,0.3,0.1,0.6,0.3,0.8l0,0c0.2,0.2,0.5,0.3,0.8,0.3h1.6c0.3,0,0.6-0.1,0.8-0.3c0.2-0.2,0.3-0.5,0.3-0.8v-8.7c0-0.5-0.2-1-0.6-1.4
	l0,0c-0.3-0.3-0.8-0.6-1.4-0.6c-0.5,0-1,0.2-1.4,0.6C88.9,74.7,88.7,75.2,88.7,75.7z"/>
</svg>
