<?xml version="1.0" encoding="utf-8"?>
<!-- Generator: Adobe Illustrator 23.0.2, SVG Export Plug-In . SVG Version: 6.00 Build 0)  -->
<svg version="1.1" id="Calque_1" xmlns="http://www.w3.org/2000/svg" xmlns:xlink="http://www.w3.org/1999/xlink" x="0px" y="0px"
	 viewBox="0 0 100 100" style="enable-background:new 0 0 100 100;" xml:space="preserve">
<style type="text/css">
	.st0{fill-rule:evenodd;clip-rule:evenodd;fill:#30383B;}
	.st1{fill-rule:evenodd;clip-rule:evenodd;fill:#DE6339;enable-background:new    ;}
</style>
<path class="st0" d="M214.6,236.4l1.6-0.1l0,0c0,0,0,0,0.1,0c0,0,0,0,0,0l0.6-1.5c0,0,0.1-0.1,0.1-0.1c0,0,0.1,0,0.1,0
	c0.1,0,0.1,0,0.1,0c0,0,0.1,0.1,0.1,0.1l0.6,1.5c0,0,0,0,0,0c0,0,0,0,0.1,0l1.6,0.1c0.1,0,0.1,0,0.1,0.1c0,0,0.1,0.1,0.1,0.1l0,0
	c0,0,0,0.1,0,0.1c0,0,0,0.1-0.1,0.1l-1.2,1c0,0,0,0,0,0c0,0,0,0,0,0.1l0.3,1.5c0,0,0,0.1,0,0.1c0,0,0,0.1-0.1,0.1c0,0-0.1,0-0.1,0
	c0,0-0.1,0-0.1,0l-1.4-0.8c0,0,0,0-0.1,0c0,0,0,0-0.1,0l-1.4,0.8c0,0-0.1,0-0.1,0c0,0-0.1,0-0.1,0h0c0,0-0.1-0.1-0.1-0.1
	c0,0,0-0.1,0-0.1l0.3-1.5l0,0c0,0,0,0,0-0.1l0,0c0,0,0,0,0,0l-1.2-1c0,0-0.1-0.1-0.1-0.1c0,0,0-0.1,0-0.1c0,0,0-0.1,0.1-0.1l0,0
	C214.5,236.4,214.6,236.4,214.6,236.4L214.6,236.4z M216.2,236.4l-1.6,0.1c0,0,0,0-0.1,0l0,0c0,0,0,0,0,0.1c0,0,0,0,0,0.1
	c0,0,0,0,0,0.1l1.2,1c0,0,0.1,0.1,0.1,0.1l0,0v0c0,0,0,0.1,0,0.1l0,0l-0.3,1.5c0,0,0,0,0,0.1c0,0,0,0,0,0l0,0v0c0,0,0,0,0.1,0
	c0,0,0,0,0.1,0l1.4-0.8c0,0,0.1,0,0.1,0c0,0,0.1,0,0.1,0l1.4,0.8c0,0,0,0,0.1,0c0,0,0,0,0.1,0c0,0,0,0,0,0c0,0,0,0,0-0.1l-0.3-1.5
	c0,0,0-0.1,0-0.1c0,0,0-0.1,0.1-0.1l1.2-1c0,0,0,0,0-0.1c0,0,0,0,0-0.1l0,0c0,0,0,0,0-0.1c0,0,0,0-0.1,0l-1.6-0.1c0,0-0.1,0-0.1,0
	c0,0-0.1-0.1-0.1-0.1l-0.6-1.5c0,0,0,0,0,0c0,0,0,0-0.1,0c0,0,0,0-0.1,0c0,0,0,0,0,0l-0.6,1.5c0,0,0,0.1-0.1,0.1
	C216.3,236.4,216.3,236.4,216.2,236.4L216.2,236.4L216.2,236.4z"/>
<path class="st1" d="M18.7,39.9l19.5-1.8l0,0c0.3,0,0.5-0.1,0.7-0.2c0.2-0.1,0.3-0.3,0.4-0.6l7.8-18c0.3-0.6,0.6-1.1,1.1-1.4
	c0.5-0.3,1.1-0.5,1.7-0.5c0.6,0,1.2,0.2,1.7,0.5c0.5,0.3,0.9,0.8,1.1,1.4l7.8,18c0.1,0.2,0.3,0.4,0.4,0.6c0.2,0.1,0.4,0.2,0.7,0.2
	L81.3,40c0.6,0.1,1.2,0.3,1.7,0.7c0.5,0.4,0.8,0.9,1,1.5l0,0.1c0.2,0.6,0.2,1.2,0,1.7c-0.2,0.6-0.5,1.1-1,1.5L68.3,58.3
	c-0.2,0.2-0.3,0.4-0.4,0.6c-0.1,0.2-0.1,0.5,0,0.7l4.3,19.1c0.1,0.6,0.1,1.2-0.1,1.8c-0.2,0.6-0.6,1.1-1.1,1.4
	c-0.5,0.4-1.1,0.6-1.7,0.6c-0.6,0-1.2-0.1-1.7-0.4l-16.9-10c-0.2-0.1-0.5-0.2-0.7-0.2c-0.2,0-0.5,0.1-0.7,0.2l-16.9,10
	c-0.5,0.3-1.1,0.5-1.7,0.4c-0.6,0-1.2-0.2-1.7-0.6h0c-0.5-0.4-0.9-0.9-1.1-1.4c-0.2-0.6-0.3-1.2-0.1-1.8l4.3-19.1l0,0
	c0-0.2,0-0.5,0-0.7l0,0c-0.1-0.2-0.2-0.4-0.4-0.6L17,45.4c-0.5-0.4-0.8-0.9-1-1.5c-0.2-0.6-0.1-1.2,0-1.8c0.2-0.6,0.6-1.1,1-1.5l0,0
	C17.6,40.2,18.1,40,18.7,39.9L18.7,39.9z M38.4,39.9l-19.5,1.8c-0.3,0-0.5,0.1-0.7,0.3l0,0c-0.2,0.2-0.3,0.4-0.4,0.6
	c-0.1,0.3-0.1,0.5,0,0.8c0.1,0.2,0.2,0.5,0.4,0.6l14.7,13c0.4,0.4,0.7,0.9,0.9,1.4l0,0v0c0.2,0.5,0.2,1.1,0.1,1.6l0,0l-4.3,19.1
	c-0.1,0.3,0,0.5,0,0.8c0.1,0.2,0.3,0.4,0.5,0.6l0,0v0c0.2,0.2,0.5,0.2,0.7,0.3c0.2,0,0.5-0.1,0.7-0.2l16.9-10c0.5-0.3,1-0.4,1.6-0.4
	c0.5,0,1.1,0.1,1.6,0.4l16.9,10c0.2,0.1,0.5,0.2,0.7,0.2c0.2,0,0.5-0.1,0.7-0.3c0.2-0.2,0.4-0.4,0.5-0.6c0.1-0.2,0.1-0.5,0-0.8
	L66.2,60c-0.1-0.6-0.1-1.1,0.1-1.6c0.2-0.5,0.5-1,0.9-1.4l14.7-12.9c0.2-0.2,0.3-0.4,0.4-0.6c0.1-0.2,0.1-0.5,0-0.7l0,0
	c-0.1-0.3-0.2-0.5-0.4-0.6c-0.2-0.2-0.4-0.3-0.7-0.3l-19.5-1.8c-0.6-0.1-1.1-0.3-1.5-0.6c-0.4-0.3-0.8-0.8-1-1.3l-7.8-18
	c-0.1-0.3-0.3-0.5-0.5-0.6c-0.2-0.1-0.5-0.2-0.7-0.2c-0.3,0-0.5,0.1-0.7,0.2c-0.2,0.1-0.4,0.3-0.5,0.6L41,38c-0.2,0.5-0.6,1-1,1.3
	C39.5,39.6,39,39.8,38.4,39.9L38.4,39.9L38.4,39.9z"/>
</svg>
