<?xml version="1.0" encoding="UTF-8" standalone="no"?>
<!-- Created with Inkscape (http://www.inkscape.org/) -->

<svg
   xmlns:dc="http://purl.org/dc/elements/1.1/"
   xmlns:cc="http://creativecommons.org/ns#"
   xmlns:rdf="http://www.w3.org/1999/02/22-rdf-syntax-ns#"
   xmlns:svg="http://www.w3.org/2000/svg"
   xmlns="http://www.w3.org/2000/svg"
   xmlns:sodipodi="http://sodipodi.sourceforge.net/DTD/sodipodi-0.dtd"
   xmlns:inkscape="http://www.inkscape.org/namespaces/inkscape"
   width="113"
   height="45"
   viewBox="0 0 113 45.000001"
   id="svg4464"
   version="1.1"
   inkscape:version="0.91 r13725"
   sodipodi:docname="u2f.svg">
  <defs
     id="defs4466" />
  <sodipodi:namedview
     id="base"
     pagecolor="#ffffff"
     bordercolor="#666666"
     borderopacity="1.0"
     inkscape:pageopacity="0.0"
     inkscape:pageshadow="2"
     inkscape:zoom="5.6"
     inkscape:cx="52.184818"
     inkscape:cy="52.64811"
     inkscape:document-units="px"
     inkscape:current-layer="layer1"
     showgrid="false"
     units="px"
     inkscape:window-width="1500"
     inkscape:window-height="937"
     inkscape:window-x="-8"
     inkscape:window-y="-8"
     inkscape:window-maximized="1" />
  <metadata
     id="metadata4469">
    <rdf:RDF>
      <cc:Work
         rdf:about="">
        <dc:format>image/svg+xml</dc:format>
        <dc:type
           rdf:resource="http://purl.org/dc/dcmitype/StillImage" />
        <dc:title></dc:title>
      </cc:Work>
    </rdf:RDF>
  </metadata>
  <g
     inkscape:label="Layer 1"
     inkscape:groupmode="layer"
     id="layer1"
     transform="translate(0,-1007.3621)">
    <g
       style="display:inline"
       id="g3403"
       transform="matrix(0.25,0,0,0.25,-5,939.27156)">
      <path
         id="rect3344"
         transform="translate(0,452.36214)"
         d="m 30,-180 c -5.54,0 -10,4.46 -10,10 l 0,160 c 0,5.54 4.46,10 10,10 l 320,0 c 5.54,0 10,-4.46 10,-10 l 0,-20 100,0 c 5.54,0 10,-4.46 10,-10 l 0,-100 c 0,-5.54 -4.46,-10 -10,-10 l -100,0 0,-20 c 0,-5.54 -4.46,-10 -10,-10 l -320,0 z m 45,65 a 25,25 0 0 1 25,25 25,25 0 0 1 -25,25 25,25 0 0 1 -25,-25 25,25 0 0 1 25,-25 z"
         style="fill:#0000ff"
         inkscape:connector-curvature="0" />
      <circle
         r="45"
         cy="362.36215"
         cx="225"
         id="path3353"
         style="fill:#ffd42a" />
      <rect
         y="321.36215"
         x="360"
         height="19"
         width="100"
         id="rect3356"
         style="fill:#ffd42a" />
      <rect
         y="342.63687"
         x="360"
         height="19"
         width="90"
         id="rect3356-5"
         style="display:inline;fill:#ffd42a" />
      <rect
         y="363.36215"
         x="360"
         height="19"
         width="90"
         id="rect3356-5-3"
         style="display:inline;fill:#ffd42a" />
      <rect
         y="384.36215"
         x="360"
         height="19"
         width="100"
         id="rect3356-5-3-1"
         style="display:inline;fill:#ffd42a" />
    </g>
  </g>
</svg>
