<?xml version="1.0" encoding="utf-8"?>
<!-- Generator: Adobe Illustrator 24.3.0, SVG Export Plug-In . SVG Version: 6.00 Build 0)  -->
<svg version="1.1" id="Capa_1" xmlns="http://www.w3.org/2000/svg" xmlns:xlink="http://www.w3.org/1999/xlink" x="0px" y="0px"
	 viewBox="0 0 54 54" style="enable-background:new 0 0 54 54;" xml:space="preserve">
<style type="text/css">
	.st0{fill:#CCCCCC;}
</style>
<g>
	<path class="st0" d="M53.2,23.5l-3.1-0.6c-1.8-0.4-3.4-1.6-4-3.4c-0.7-1.7-0.4-3.7,0.7-5.2l2-2.7c0.3-0.4,0.2-0.9-0.1-1.3l-4.2-4.2
		C44,5.8,43.5,5.7,43.1,6l-2.6,1.8c-1.6,1.1-3.5,1.2-5.2,0.5C33.5,7.5,32.3,6,32,4.1l-0.5-3.3C31.4,0.4,31,0,30.5,0h-6
		c-0.5,0-0.9,0.3-1,0.8l-0.8,4c-0.3,1.8-1.6,3.3-3.3,4c-1.7,0.7-3.6,0.5-5.1-0.5L10.9,6C10.5,5.8,10,5.8,9.7,6.1l-4.2,4.2
		c-0.3,0.3-0.4,0.9-0.1,1.3l2,2.7c1.1,1.5,1.4,3.5,0.7,5.2c-0.7,1.7-2.2,3-4,3.4l-3.1,0.6C0.3,23.6,0,24,0,24.5v6
		c0,0.5,0.4,0.9,0.8,1L4.1,32c1.9,0.3,3.4,1.5,4.2,3.2c0.8,1.7,0.6,3.7-0.5,5.2L6,43.1c-0.3,0.4-0.2,0.9,0.1,1.3l4.2,4.2
		c0.3,0.3,0.9,0.4,1.3,0.1l2.7-2c1.5-1.1,3.5-1.4,5.2-0.7c1.7,0.7,3,2.2,3.4,4l0.6,3.1c0.1,0.5,0.5,0.8,1,0.8h6c0.5,0,0.9-0.4,1-0.8
		l0.4-2.3c0.3-1.9,1.5-3.5,3.3-4.2c1.8-0.7,3.8-0.5,5.3,0.6l1.9,1.4c0.4,0.3,1,0.2,1.3-0.1l4.2-4.2c0.3-0.3,0.4-0.9,0.1-1.3
		l-1.8-2.6c-1.1-1.6-1.2-3.5-0.5-5.2c0.8-1.7,2.3-2.9,4.2-3.2l3.3-0.5c0.5-0.1,0.8-0.5,0.8-1v-6C54,24,53.7,23.6,53.2,23.5z
		 M52,29.6L49.6,30c-2.5,0.4-4.7,2-5.7,4.4c-1,2.4-0.8,5,0.7,7.1l1.3,2l-3.1,3.1l-1.2-0.9c-2.1-1.6-4.8-1.9-7.2-0.9
		c-2.4,1-4.1,3.1-4.5,5.7L29.6,52h-4.3l-0.4-2.3c-0.5-2.5-2.2-4.6-4.6-5.5c-2.4-0.9-5-0.6-7.1,0.9l-2,1.5l-3.1-3.1l1.3-2
		c1.4-2.1,1.7-4.8,0.7-7.1c-1-2.4-3.2-4-5.7-4.4L2,29.6v-4.3l2.3-0.4c2.5-0.5,4.6-2.2,5.5-4.6c0.9-2.4,0.6-5-0.9-7.1l-1.5-2l3.1-3.1
		l2.7,1.8c2.1,1.4,4.7,1.7,7,0.7c2.3-1,4-3,4.5-5.5L25.3,2h4.3L30,4.4c0.4,2.5,2,4.7,4.4,5.7s5,0.8,7.1-0.7l2-1.3l3.1,3.1l-1.5,2
		c-1.5,2.1-1.9,4.7-0.9,7.1c0.9,2.4,3,4.1,5.5,4.6l2.3,0.4V29.6z"/>
	<path class="st0" d="M27.5,17C21.7,17,17,21.7,17,27.5S21.7,38,27.5,38S38,33.3,38,27.5S33.3,17,27.5,17z M27.5,36
		c-4.7,0-8.5-3.8-8.5-8.5s3.8-8.5,8.5-8.5s8.5,3.8,8.5,8.5S32.2,36,27.5,36z"/>
	<path class="st0" d="M27.5,22c-3,0-5.5,2.5-5.5,5.5s2.5,5.5,5.5,5.5s5.5-2.5,5.5-5.5S30.5,22,27.5,22z M27.5,31
		c-1.9,0-3.5-1.6-3.5-3.5s1.6-3.5,3.5-3.5s3.5,1.6,3.5,3.5S29.4,31,27.5,31z"/>
</g>
</svg>
