<?xml version="1.0" encoding="utf-8"?>
<!-- Generator: Adobe Illustrator 24.3.0, SVG Export Plug-In . SVG Version: 6.00 Build 0)  -->
<svg version="1.1" id="Layer_1" xmlns="http://www.w3.org/2000/svg" xmlns:xlink="http://www.w3.org/1999/xlink" x="0px" y="0px"
	 viewBox="0 0 512 512" style="enable-background:new 0 0 512 512;" xml:space="preserve">
<style type="text/css">
	.st0{fill:#CCCCCC;}
</style>
<g>
	<g>
		<g>
			<path class="st0" d="M230.8,354.3l-6.7,60.5c-0.3,3,0.6,6,2.7,8.3c2,2.3,4.9,3.6,7.9,3.6h42.7c3,0,5.9-1.3,7.9-3.6s3-5.3,2.7-8.3
				l-6.7-60.5c10.9-7.9,17.5-20.5,17.5-34.3c0-23.5-19.1-42.7-42.7-42.7s-42.7,19.1-42.7,42.7C213.3,333.8,219.9,346.4,230.8,354.3z
				 M256,298.7c11.8,0,21.3,9.6,21.3,21.3c0,8.2-4.6,15.5-12.1,19.1c-4.1,2-6.5,6.3-6,10.8l6.2,55.4h-18.8l6.2-55.4
				c0.5-4.5-1.9-8.8-6-10.8c-7.5-3.6-12.1-10.9-12.1-19.1C234.7,308.2,244.2,298.7,256,298.7z"/>
			<path class="st0" d="M437.3,192h-32v-42.7C405.3,67,338.3,0,256,0S106.7,67,106.7,149.3V192h-32c-5.9,0-10.7,4.8-10.7,10.7v266.7
				c0,23.5,19.1,42.7,42.7,42.7h298.7c23.5,0,42.7-19.1,42.7-42.7V202.7C448,196.8,443.2,192,437.3,192z M128,149.3
				c0-70.6,57.4-128,128-128s128,57.4,128,128V192h-21.3v-42.7c0-58.8-47.9-106.7-106.7-106.7S149.3,90.5,149.3,149.3V192H128V149.3
				z M341.3,149.3V192H170.7v-42.7c0-47.1,38.3-85.3,85.3-85.3S341.3,102.3,341.3,149.3z M426.7,469.3c0,11.8-9.6,21.3-21.3,21.3
				H106.7c-11.8,0-21.3-9.6-21.3-21.3v-256h341.3V469.3z"/>
		</g>
	</g>
</g>
</svg>
