<?xml version="1.0" encoding="utf-8"?>
<!-- Generator: Adobe Illustrator 24.3.0, SVG Export Plug-In . SVG Version: 6.00 Build 0)  -->
<svg version="1.1" id="Capa_1" xmlns="http://www.w3.org/2000/svg" xmlns:xlink="http://www.w3.org/1999/xlink" x="0px" y="0px"
	 viewBox="0 0 480 480" style="enable-background:new 0 0 480 480;" xml:space="preserve">
<style type="text/css">
	.st0{fill:#CCCCCC;}
</style>
<g>
	<g>
		<path class="st0" d="M240,0C107.7,0,0,107.7,0,240c0,58,20.7,111.2,55,152.7c0.1,0.1,0.1,0.3,0.2,0.4
			c24.8,29.9,55.9,52.8,90.6,67.6c0.4,0.2,0.8,0.4,1.2,0.5c2.8,1.2,5.6,2.3,8.5,3.4c1.1,0.4,2.2,0.9,3.4,1.3
			c2.5,0.9,4.9,1.7,7.4,2.5c1.6,0.5,3.2,1,4.8,1.5c2.2,0.7,4.4,1.3,6.6,1.9c2,0.5,3.9,1,5.9,1.5c2,0.5,4,1,6,1.4
			c2.2,0.5,4.5,0.9,6.8,1.3c1.8,0.3,3.6,0.7,5.5,1c2.5,0.4,5.1,0.7,7.6,1.1c1.6,0.2,3.3,0.4,4.9,0.6c2.9,0.3,5.8,0.5,8.7,0.7
			c1.4,0.1,2.7,0.2,4.1,0.3c4.2,0.2,8.5,0.4,12.9,0.4s8.6-0.1,12.9-0.4c1.4-0.1,2.7-0.2,4.1-0.3c2.9-0.2,5.8-0.4,8.7-0.7
			c1.6-0.2,3.3-0.4,4.9-0.6c2.5-0.3,5.1-0.6,7.6-1.1c1.8-0.3,3.7-0.6,5.5-1c2.3-0.4,4.5-0.8,6.8-1.3c2-0.4,4-0.9,6-1.4
			c2-0.5,3.9-1,5.9-1.5c2.2-0.6,4.4-1.2,6.6-1.9c1.6-0.5,3.2-1,4.8-1.5c2.5-0.8,5-1.6,7.4-2.5c1.1-0.4,2.2-0.8,3.4-1.3
			c2.9-1.1,5.7-2.2,8.5-3.4c0.4-0.2,0.8-0.4,1.2-0.5c34.7-14.8,65.8-37.7,90.6-67.6c0.1-0.1,0.1-0.3,0.2-0.4
			c34.3-41.5,55-94.8,55-152.7C480,107.7,372.3,0,240,0z M337.3,441.8c-0.1,0.1-0.2,0.1-0.4,0.2c-2.9,1.4-5.8,2.7-8.7,3.9
			c-0.7,0.3-1.3,0.6-2,0.8c-2.6,1.1-5.2,2.1-7.8,3.1c-1.1,0.4-2.2,0.8-3.3,1.2c-2.3,0.8-4.6,1.6-7,2.4c-1.5,0.5-2.9,0.9-4.4,1.3
			c-2.1,0.6-4.2,1.2-6.3,1.8c-1.8,0.5-3.6,0.9-5.4,1.3c-1.9,0.4-3.8,0.9-5.6,1.3c-2.1,0.4-4.2,0.8-6.2,1.2c-1.7,0.3-3.4,0.6-5.1,0.9
			c-2.3,0.4-4.7,0.7-7.1,1c-1.5,0.2-3,0.4-4.5,0.6c-2.7,0.3-5.4,0.5-8.1,0.7c-1.2,0.1-2.4,0.2-3.6,0.3c-4,0.2-7.9,0.3-11.9,0.3
			s-8-0.1-11.9-0.3c-1.2-0.1-2.4-0.2-3.6-0.3c-2.7-0.2-5.4-0.4-8.1-0.7c-1.5-0.2-3-0.4-4.5-0.6c-2.4-0.3-4.7-0.6-7.1-1
			c-1.7-0.3-3.4-0.6-5.1-0.9c-2.1-0.4-4.2-0.8-6.2-1.2c-1.9-0.4-3.8-0.9-5.6-1.3c-1.8-0.4-3.6-0.9-5.4-1.3c-2.1-0.6-4.2-1.2-6.3-1.8
			c-1.5-0.4-2.9-0.9-4.4-1.3c-2.3-0.8-4.7-1.5-7-2.4c-1.1-0.4-2.2-0.8-3.3-1.2c-2.6-1-5.2-2-7.8-3.1c-0.7-0.3-1.3-0.6-2-0.8
			c-2.9-1.3-5.8-2.6-8.7-3.9c-0.1-0.1-0.2-0.1-0.4-0.2c-27.9-13.5-52.6-32.7-72.6-56c15.5-56.9,59.2-102.8,115.6-121.1
			c1.1,0.7,2.3,1.3,3.4,1.9c0.7,0.4,1.3,0.8,2,1.1c2.4,1.3,4.8,2.4,7.3,3.5c1.9,0.8,3.9,1.5,5.8,2.3c0.4,0.1,0.8,0.3,1.2,0.4
			c10.8,3.8,22.5,6,34.6,6s23.8-2.2,34.6-6c0.4-0.1,0.8-0.3,1.2-0.4c2-0.7,3.9-1.4,5.8-2.3c2.5-1.1,4.9-2.2,7.3-3.5
			c0.7-0.4,1.3-0.8,2-1.1c1.1-0.6,2.3-1.2,3.4-1.9c56.3,18.3,100.1,64.2,115.6,121.1C389.8,409.1,365.2,428.2,337.3,441.8z M152,176
			c0-48.5,39.5-88,88-88s88,39.5,88,88c0,30.9-16,58-40.1,73.7c-3.2,2-6.4,3.9-9.8,5.5c-0.4,0.2-0.8,0.4-1.2,0.6
			c-23.2,10.5-50.6,10.5-73.8,0c-0.4-0.2-0.8-0.4-1.2-0.6c-3.4-1.6-6.6-3.4-9.8-5.5C168,234,152,206.9,152,176z M421.8,370.6
			c-18.1-53.6-59.5-96.8-112.4-117.4c21.1-19,34.5-46.6,34.5-77.2c0-57.3-46.7-104-104-104s-104,46.7-104,104
			c0,30.6,13.4,58.1,34.6,77.2C117.7,273.8,76.3,317,58.2,370.6C31.7,333.8,16,288.7,16,240C16,116.5,116.5,16,240,16
			s224,100.5,224,224C464,288.7,448.3,333.8,421.8,370.6z"/>
	</g>
</g>
</svg>
