<svg xmlns="http://www.w3.org/2000/svg" viewBox="0 0 4480 960">
	<path d="M444.22,100.12H175.9A40,40,0,0,0,140.12,158L247.45,372.67a40,40,0,0,0,53.66,17.89L515.78,283.23a40,40,0,0,0,17.89-53.67L480,122.23A40,40,0,0,0,444.22,100.12Z" style="fill: #18a047" />
	<path d="M658.89,569.44,444.22,676.77a40,40,0,0,0-17.89,53.67L480,837.77a40,40,0,0,0,35.78,22.11H784.1A40,40,0,0,0,819.88,802L712.55,587.33A40,40,0,0,0,658.89,569.44Z" style="fill: #dc2a28" />
	<path d="M229.56,426.33,122.23,480a40,40,0,0,0-22.11,35.78V784.1A40,40,0,0,0,158,819.88L372.67,712.55a40,40,0,0,0,17.89-53.66L283.23,444.22A40,40,0,0,0,229.56,426.33Z" style="fill: #115dda" />
	<path d="M840.91,141.87A40,40,0,0,0,802,140.12L587.33,247.45a40,40,0,0,0-17.89,53.66L676.77,515.78a40,40,0,0,0,53.67,17.89L837.77,480a40,40,0,0,0,22.11-35.78V175.9A40,40,0,0,0,840.91,141.87Z" style="fill: #ffa813" />
	<path d="M1343.92,643a26.69,26.69,0,0,1-9.86-11.31q-3.48-7.24-5.22-20t-2.9-34.22q-.59-24.36-10.44-42.63A92.46,92.46,0,0,0,1290,504.65a86,86,0,0,0-16.32-9.76,104,104,0,0,0,30.82-20.69A114.5,114.5,0,0,0,1330,437.37a112.24,112.24,0,0,0,9.28-45.53q0-33.06-15.37-59.16a110.77,110.77,0,0,0-41.47-40.89Q1256.34,277,1223.86,277H1063.78A23.76,23.76,0,0,0,1040,300.78V659.22q0,9.87,8.12,16.82a28.46,28.46,0,0,0,19.14,7q9.85,0,15.66-7a25.43,25.43,0,0,0,5.8-16.82V518.28H1211.1a98.37,98.37,0,0,1,24.94,3.19,61.47,61.47,0,0,1,21.75,10.44,53.85,53.85,0,0,1,15.66,19.72q6.09,12.48,6.09,30.45,0,33.06,5.51,52.2t14.5,29.29q9,10.15,17.69,15.37a32.59,32.59,0,0,0,11.6,3.77,28.7,28.7,0,0,0,12.76-1.16,17.25,17.25,0,0,0,9.86-7.83q5.79-8.12,3.19-16.82A24.62,24.62,0,0,0,1343.92,643ZM1223.86,476.52H1088.72V322.24H1221q29,0,48.43,20.3T1288.82,393q0,24.36-9.28,42.92t-24.07,29A61.37,61.37,0,0,1,1223.86,476.52Z M1543.16,383.7a132.7,132.7,0,0,0-52.39-6.22,138.58,138.58,0,0,0-50.84,14.39q-32.17,16.1-52.53,47.34t-22.3,72.11q-1.95,40.86,20.62,86,20.23,40.46,53,62.64a140.48,140.48,0,0,0,72.76,24.25q39.95,2.09,81.44-18.68a135.06,135.06,0,0,0,47-38.38q18.94-24.39,25.42-47.73,5.19-11.67.78-20.49a19,19,0,0,0-11.41-9.86,19.68,19.68,0,0,0-15.56,1.3q-6.23,3.1-10.64,11.15a120.11,120.11,0,0,1-9.47,22.57,104,104,0,0,1-17.25,23.21q-10.89,11.28-29.57,20.62-28.53,14.28-56.93,11.94a103.06,103.06,0,0,1-52-19.07q-20.51-14.52-34.54-39.14l188.1-94.05a23.92,23.92,0,0,0,11.8-12.71,21.42,21.42,0,0,0-.13-17.12q-15.3-29.31-37.35-47.47A146.38,146.38,0,0,0,1543.16,383.7Zm-130.47,99.61a87.2,87.2,0,0,1,18.68-31.39,98.18,98.18,0,0,1,28-21.14,94.36,94.36,0,0,1,82.1-1.17q19.83,9.22,32.55,29.45l2.08,4.15-163.17,81.58a116.32,116.32,0,0,1-4.14-20.63Q1406.48,501.35,1412.69,483.31Z M1957,380.24q-10.44,0-16.82,6.67a23,23,0,0,0-6.38,16.53V430.5a122,122,0,0,0-22.91-24.74A134.3,134.3,0,0,0,1873.47,384a126.22,126.22,0,0,0-46.4-8.41q-40,0-72.21,20t-51,55.39Q1685,486.39,1685,532.2q0,45.24,18.85,80.62t51.33,55.68q32.47,20.31,73.08,20.3a127.19,127.19,0,0,0,71.92-22.91A120.71,120.71,0,0,0,1926,641.24a79.49,79.49,0,0,0,7.83-12.35v33.23q0,42.33-26.39,68.15t-75.11,25.81a132.41,132.41,0,0,1-28.42-3.19,212.61,212.61,0,0,1-25.81-7.25q-11.31-4.07-16.53-5.8-12.77-5.22-21.17-5.22t-13.63,8.12q-4.65,7-2.32,13.92t11,13.34q4,7,20.3,13.63a210.27,210.27,0,0,0,37.41,11,193,193,0,0,0,38.57,4.35q41.18,0,74.82-15.37a122.68,122.68,0,0,0,53.65-47q20-31.62,20-79.17v-254a23,23,0,0,0-6.38-16.53Q1967.42,380.25,1957,380.24Zm-34.22,210.54a103.84,103.84,0,0,1-36.54,40.31q-23.2,14.79-52.78,14.79-30.17,0-53.36-15.08t-36.54-40.89q-13.35-25.8-13.34-57.71,0-32.48,13.34-58.29t36.54-40.6q23.19-14.79,53.36-14.79,29.58,0,52.78,14.5t36.54,40.31q13.34,25.82,13.34,58.87T1922.77,590.78Z M2265,383.14q-10.44,0-16.82,6.67t-6.38,17.11V564.68q0,39.45-20.3,59.74T2164,644.72q-36.54,0-56.83-20.3t-20.3-59.74V406.92q0-10.44-6.38-17.11t-16.82-6.67a22.49,22.49,0,0,0-16.54,6.67q-6.66,6.68-6.67,17.11V564.68q0,58.59,32.78,90.77T2164,687.64q58.59,0,91.35-32.19t32.78-90.77V406.92q0-10.44-6.38-17.11T2265,383.14Z M2381,253.8a23.76,23.76,0,0,0-23.78,23.78V659.22a23.4,23.4,0,0,0,6.67,16.82,22,22,0,0,0,16.53,7,23.76,23.76,0,0,0,23.78-23.78V277.58a24,24,0,0,0-6.38-16.82Q2391.39,253.8,2381,253.8Z M2717.36,380.24q-10.44,0-16.82,6.67a23,23,0,0,0-6.38,16.53v23.19a114.31,114.31,0,0,0-18.85-20.87,122.15,122.15,0,0,0-37.41-22,130.16,130.16,0,0,0-46.4-8.12q-38.28,0-69.6,20t-49.59,55.1Q2454,485.81,2454,531.62q0,45.24,18.27,80.62t49.59,56q31.32,20.6,71.34,20.59a114.84,114.84,0,0,0,43.79-8.41,127.9,127.9,0,0,0,35.67-21.46,115.94,115.94,0,0,0,21.46-24.1v24.39a24,24,0,0,0,6.38,16.82q6.38,7,16.82,7a22,22,0,0,0,16.53-7,23.44,23.44,0,0,0,6.67-16.82V403.44a23,23,0,0,0-6.38-16.53Q2727.79,380.25,2717.36,380.24ZM2649.21,630.8q-22.34,15.09-51.33,15.08-28.43,0-50.75-15.08T2512,589.91q-12.76-25.8-12.76-58.29t12.76-58q12.75-25.51,35.09-40.31t50.75-14.79q29,0,51.33,15.08t34.8,40.6q12.47,25.53,12.47,57.42,0,32.49-12.47,58.29T2649.21,630.8Z M2975.17,381.69a46.81,46.81,0,0,0-23.49-6.09,97.68,97.68,0,0,0-39.44,7.83,105.37,105.37,0,0,0-31.9,21.46,122.68,122.68,0,0,0-22.91,30.74q-3.09,5.88-5.51,11.86V406.92q0-10.44-6.38-17.11t-16.82-6.67a22.45,22.45,0,0,0-16.53,6.67q-6.68,6.68-6.67,17.11v252.3a23.4,23.4,0,0,0,6.67,16.82,23.11,23.11,0,0,0,33.06,0,23.44,23.44,0,0,0,6.67-16.82V518.28a105,105,0,0,1,7.25-39.15,118,118,0,0,1,19.14-32.48,96.79,96.79,0,0,1,26.1-22.33q14.21-8.11,28.71-8.12,10.44,0,17.4,3.48a32,32,0,0,0,14.5,3.48,20.46,20.46,0,0,0,14.5-6.09q6.38-6.09,6.38-18.27Q2985.9,387.79,2975.17,381.69Z M3387.83,637.18H3212.08V300.78A23.76,23.76,0,0,0,3188.31,277q-11,0-18,7a22.92,22.92,0,0,0-7,16.82V659.22A23.4,23.4,0,0,0,3170,676q6.66,7,17.11,7h200.68a24,24,0,0,0,16.82-6.38,21,21,0,0,0,7-16.24,22,22,0,0,0-7-16.53A23.48,23.48,0,0,0,3387.83,637.18Z M3693.48,380.24q-10.44,0-16.82,6.67a23,23,0,0,0-6.38,16.53v23.19a114.31,114.31,0,0,0-18.85-20.87,122.15,122.15,0,0,0-37.41-22,130.16,130.16,0,0,0-46.4-8.12q-38.28,0-69.6,20t-49.59,55.1q-18.27,35.1-18.27,80.91,0,45.24,18.27,80.62t49.59,56q31.32,20.6,71.34,20.59a114.84,114.84,0,0,0,43.79-8.41,127.9,127.9,0,0,0,35.67-21.46,115.94,115.94,0,0,0,21.46-24.1v24.39a24,24,0,0,0,6.38,16.82q6.38,7,16.82,7a22,22,0,0,0,16.53-7,23.44,23.44,0,0,0,6.67-16.82V403.44a23,23,0,0,0-6.38-16.53Q3703.91,380.25,3693.48,380.24ZM3625.33,630.8Q3603,645.89,3574,645.88q-28.42,0-50.75-15.08t-35.09-40.89q-12.76-25.8-12.76-58.29t12.76-58q12.75-25.51,35.09-40.31T3574,418.52q29,0,51.33,15.08t34.8,40.6q12.47,25.53,12.47,57.42,0,32.49-12.47,58.29T3625.33,630.8Z M4000.3,395.61q-31.32-20-70.76-20a114.47,114.47,0,0,0-38,6.38,127.8,127.8,0,0,0-33.06,17.11,115.08,115.08,0,0,0-24.94,24.36,97.71,97.71,0,0,0-5.51,8.24V277.58a24,24,0,0,0-6.38-16.82q-6.39-7-16.82-7a22,22,0,0,0-16.53,7,23.42,23.42,0,0,0-6.67,16.82V662.12q0,10.44,6.67,17.11a22.45,22.45,0,0,0,16.53,6.67q10.44,0,16.82-7a24,24,0,0,0,6.38-16.82v-25.7c.75,1,1.52,2.06,2.32,3.08a133.85,133.85,0,0,0,60,42.63,120.09,120.09,0,0,0,40.31,6.67q38.85,0,69.89-20.59t49.3-56q18.27-35.37,18.27-81.2t-18.27-80.62Q4031.62,415.62,4000.3,395.61Zm9.86,194q-12.76,26.1-34.8,41.18t-51,15.08q-29,0-51.33-15.08t-34.8-41.18q-12.48-26.1-12.47-58.58t12.47-57.71q12.46-25.23,34.8-40t51.33-14.79q29,0,51,14.79t34.8,40q12.75,25.23,12.76,57.71T4010.16,589.62Z M4313.49,564.39a71.38,71.38,0,0,0-22-25.23,127.31,127.31,0,0,0-31-15.95q-17.11-6.09-35.67-10.73-20.31-5.79-37.12-11.89T4161,484.64q-9.87-9.86-10.44-25.52,0-16.81,9-26.1a53.64,53.64,0,0,1,22.33-13.63,85.58,85.58,0,0,1,26.68-4.35,101.3,101.3,0,0,1,40.31,7.83,82.9,82.9,0,0,1,31,22.91,18.73,18.73,0,0,0,13,5.51,22.07,22.07,0,0,0,14.21-4.35q8.12-7,7.54-15.66a23.32,23.32,0,0,0-5.8-14.5,97.1,97.1,0,0,0-29.58-24.65,131.33,131.33,0,0,0-34.51-12.76,163.12,163.12,0,0,0-33.93-3.77q-29,0-52.78,10.44t-38,29.58q-14.22,19.14-14.21,45.24,0,22.62,9,38a78.82,78.82,0,0,0,23.78,25.52A137.32,137.32,0,0,0,4172,540.9q18.55,6.39,37.7,11.6a320.06,320.06,0,0,1,33.93,10.73q15.94,6.09,25.81,15.66t9.86,25.81q0,16.83-9.57,27a51.31,51.31,0,0,1-23.78,14.21,118.61,118.61,0,0,1-27.55,4.64q-30.16,0-51-11.31a129.12,129.12,0,0,1-37.12-30.45q-6.39-7-14.21-7.54a22.74,22.74,0,0,0-14.21,3.48q-9.28,6.39-9.57,14.79a27.91,27.91,0,0,0,4.35,16q22.62,29.58,53.94,41.47a177,177,0,0,0,63.22,11.89,138.18,138.18,0,0,0,53.07-10.15q24.64-10.14,39.73-29.58T4321.61,603Q4321.61,579.77,4313.49,564.39Z" style="fill: #1e2228" />
</svg>
