<?xml version="1.0" encoding="utf-8"?>
<!-- Generator: Adobe Illustrator 27.9.0, SVG Export Plug-In . SVG Version: 6.00 Build 0)  -->
<svg version="1.1" id="Calque_1" xmlns="http://www.w3.org/2000/svg" xmlns:xlink="http://www.w3.org/1999/xlink" x="0px" y="0px"
	 viewBox="0 0 292.1 71" style="enable-background:new 0 0 292.1 71;" xml:space="preserve">
<style type="text/css">
	.st0{opacity:0.3;clip-path:url(#SVGID_00000078012818342708434500000012195636464978228102_);}
	.st1{opacity:0.3;fill:#0A53CC;enable-background:new    ;}
</style>
<g>
	<defs>
		<rect id="SVGID_1_" x="0.1" width="292" height="71"/>
	</defs>
	<clipPath id="SVGID_00000011714233094851542830000005323396937078100361_">
		<use xlink:href="#SVGID_1_"  style="overflow:visible;"/>
	</clipPath>
	<g style="opacity:0.3;clip-path:url(#SVGID_00000011714233094851542830000005323396937078100361_);">
		<path class="st1" d="M53.5,62c-4,0.2-7.4-2.8-7.7-6.8c-0.2-4,2.8-7.4,6.8-7.7c4-0.2,7.4,2.8,7.7,6.8C60.5,58.3,57.5,61.8,53.5,62z
			 M49.7,55c0.1,1.8,1.7,3.2,3.5,3.1c1.8-0.1,3.2-1.7,3.1-3.5c-0.1-1.8-1.7-3.2-3.5-3.1C51,51.5,49.6,53.1,49.7,55z"/>
		<path class="st1" d="M124.5,57c1.1,6.2-3.1,12.1-9.3,13.2s-12.1-3.1-13.2-9.3s3.1-12.1,9.3-13.2C117.6,46.6,123.5,50.8,124.5,57z
			 M114.2,64.1c2.9-0.5,4.8-3.2,4.3-6.1c-0.5-2.9-3.2-4.8-6.1-4.3s-4.8,3.2-4.3,6.1C108.6,62.7,111.3,64.6,114.2,64.1z"/>
		<path class="st1" d="M23.8,15.8L21.1,4.3c-0.2-1,0.4-2,1.4-2.3l11.6-2.7c1-0.2,2,0.4,2.3,1.4l2.7,11.5c0.2,1-0.4,2-1.4,2.3
			l-11.6,2.7C25,17.5,24,16.8,23.8,15.8z M25.1,5.2l1.9,7.9l7.9-1.9L33,3.3C33,3.3,25.1,5.2,25.1,5.2z"/>
		<path class="st1" d="M83.7,12.4c0.8,0.3,1.3,0.9,1.5,1.7l3.3,16.6c0.2,0.8-0.1,1.6-0.7,2.2c-0.6,0.5-1.5,0.7-2.2,0.4l-16-5.5
			c-0.8-0.3-1.3-0.9-1.5-1.7s0.1-1.6,0.7-2.2l12.7-11.1C82,12.3,82.9,12.2,83.7,12.4z M83.2,27.7l-1.7-8.8l-6.8,5.9L83.2,27.7
			L83.2,27.7z"/>
		<path class="st1" d="M15.5,38.8c0.3,0.5,0.2,1.2-0.1,1.6L8.6,50.6c-0.3,0.5-0.9,0.8-1.5,0.7c-0.6,0-1.1-0.4-1.4-0.9l-5.4-11
			c-0.3-0.5-0.2-1.2,0.1-1.6c0.3-0.5,0.9-0.8,1.5-0.7l12.2,0.8C14.7,37.9,15.2,38.3,15.5,38.8C15.5,38.8,15.5,38.8,15.5,38.8z
			 M7.4,46.4l3.7-5.4l-6.5-0.4C4.6,40.6,7.4,46.4,7.4,46.4z"/>
		<path class="st1" d="M284.6,31.6c13-3.8,26.7,3.6,30.5,16.7c3.8,13-3.7,26.7-16.7,30.5s-26.7-3.7-30.5-16.7S271.6,35.4,284.6,31.6
			C284.6,31.6,284.6,31.6,284.6,31.6z M302.4,52c-1.8-6-8-9.4-14-7.7c-6,1.8-9.4,8-7.7,14c1.8,6,8,9.4,14,7.7S304.1,58,302.4,52z"/>
		<path class="st1" d="M210.5,23.9l16.4-26.7c1.4-2.3,4.5-3.1,6.8-1.6l26.7,16.3c2.3,1.4,3.1,4.5,1.6,6.8l-16.4,26.7
			c-1.4,2.3-4.5,3.1-6.8,1.6l-26.7-16.3C209.8,29.3,209.1,26.2,210.5,23.9L210.5,23.9z M232.7,6.6l-11.2,18.3l18.3,11.2L251,17.8
			C251,17.8,232.7,6.6,232.7,6.6z"/>
		<path class="st1" d="M124.2-12c5.9-0.3,11,4.2,11.4,10.1c0.3,5.9-4.2,11-10.1,11.3s-11-4.2-11.3-10.1
			C113.8-6.6,118.3-11.7,124.2-12z M129.8-1.6c-0.2-2.7-2.5-4.8-5.2-4.7c-2.7,0.2-4.8,2.5-4.7,5.2c0.2,2.7,2.5,4.8,5.2,4.7
			C127.9,3.5,130,1.1,129.8-1.6z"/>
		<path class="st1" d="M173.7,19.5l11.2,19.3c1,1.7,0.4,3.8-1.3,4.8l-19.3,11.2c-1.7,1-3.8,0.4-4.8-1.3l-11.2-19.3
			c-1-1.7-0.4-3.8,1.3-4.8l19.3-11.2C170.6,17.2,172.7,17.8,173.7,19.5z M163.8,46.9l13.2-7.6L169.4,26l-13.2,7.6L163.8,46.9z"/>
	</g>
</g>
</svg>
