<svg xmlns="http://www.w3.org/2000/svg" xmlns:xlink="http://www.w3.org/1999/xlink" id="Calque_1" data-name="Calque 1" viewBox="0 0 841.89 595.28"><defs><linearGradient id="Dégradé_sans_nom_26" x1="280.21" x2="349.65" y1="355.42" y2="285.98" data-name="Dégradé sans nom 26" gradientUnits="userSpaceOnUse"><stop offset="0" stop-color="#b0b0bf"/><stop offset="1" stop-color="#f4f4f6"/></linearGradient><linearGradient id="Dégradé_sans_nom_46" x1="859.96" x2="1017.37" y1="-40.92" y2="116.49" data-name="Dégradé sans nom 46" gradientTransform="scale(1 -1) rotate(31.52 1179.037 -1440.156)" gradientUnits="userSpaceOnUse"><stop offset="0" stop-color="#5b5a72"/><stop offset="1" stop-color="#b0b0bf"/></linearGradient><linearGradient id="Dégradé_sans_nom_11" x1="160.21" x2="306.34" y1="290.46" y2="436.59" data-name="Dégradé sans nom 11" gradientUnits="userSpaceOnUse"><stop offset=".1" stop-color="#5b5a72"/><stop offset=".5" stop-color="#b0b0bf"/><stop offset=".96" stop-color="#f4f4f6"/></linearGradient><linearGradient xlink:href="#Dégradé_sans_nom_46" id="Dégradé_sans_nom_46-2" x1="97.82" x2="116.25" y1="265.85" y2="284.28" data-name="Dégradé sans nom 46"/><linearGradient xlink:href="#Dégradé_sans_nom_46" id="Dégradé_sans_nom_46-3" x1="104.34" x2="119.49" y1="280.03" y2="295.18" data-name="Dégradé sans nom 46"/><linearGradient xlink:href="#Dégradé_sans_nom_11" id="Dégradé_sans_nom_11-2" x1="145.97" x2="310.96" y1="104.7" y2="269.69" data-name="Dégradé sans nom 11"/><linearGradient xlink:href="#Dégradé_sans_nom_11" id="Dégradé_sans_nom_11-3" x1="210.1" x2="271.64" y1="52.2" y2="113.74" data-name="Dégradé sans nom 11"/><linearGradient xlink:href="#Dégradé_sans_nom_46" id="Dégradé_sans_nom_46-4" x1="539.19" x2="572.29" y1="117.87" y2="150.97" data-name="Dégradé sans nom 46"/><linearGradient xlink:href="#Dégradé_sans_nom_46" id="Dégradé_sans_nom_46-5" x1="545.28" x2="565.55" y1="138.45" y2="158.71" data-name="Dégradé sans nom 46"/><linearGradient xlink:href="#Dégradé_sans_nom_46" id="Dégradé_sans_nom_46-6" x1="495.49" x2="528.6" y1="156.79" y2="189.9" data-name="Dégradé sans nom 46"/><linearGradient xlink:href="#Dégradé_sans_nom_46" id="Dégradé_sans_nom_46-7" x1="501.59" x2="521.85" y1="177.37" y2="197.63" data-name="Dégradé sans nom 46"/><radialGradient id="Dégradé_sans_nom_17" cx="1097.65" cy="524.13" r="116.02" data-name="Dégradé sans nom 17" fx="1097.65" fy="524.13" gradientTransform="rotate(179.98 670.77 232.192) scale(1 -.11)" gradientUnits="userSpaceOnUse"><stop offset=".4" stop-color="#353544" stop-opacity=".5"/><stop offset="1" stop-color="#353544" stop-opacity="0"/></radialGradient><radialGradient xlink:href="#Dégradé_sans_nom_17" id="Dégradé_sans_nom_17-2" cx="695.4" cy="524.13" r="116.02" data-name="Dégradé sans nom 17" fx="695.4" fy="524.13" gradientTransform="matrix(-.83 .00043 .00006 .11 1231.3 464.29)"/><style>.cls-1,.cls-2{fill:#fff}.cls-4{fill:#b0b0bf}.cls-7{fill:#353544}.cls-2{opacity:.5}</style></defs><path d="M655.78 87.16c-25.63 0-48.23 20.94-61.57 52.78h4.97a5.54 5.54 0 0 1 4.8-2.79h14.04c7.19 0 14.39.8 21.4 2.38.06.01.11.05.16.07l34.64 1.58c.8.04 1.43.7 1.43 1.5s-.63 1.46-1.43 1.5l-34.64 1.68c-.06.02-.11.06-.17.07-6.71 1.47-14.31 2.28-21.39 2.28h-14.04c-2.05 0-3.84-1.13-4.8-2.79h-7.13c-3.56 9.59-6.31 20.05-8.1 31.14 3.96.39 7.89 1.02 11.77 1.89.06.01.11.05.16.07l34.64 1.58c.8.04 1.43.7 1.43 1.5s-.63 1.46-1.43 1.5l-34.64 1.68c-.06.02-.11.06-.17.07-4.15.91-8.63 1.56-13.13 1.93-.68 6.5-1.04 13.17-1.04 19.98 0 66.06 33.23 119.61 74.22 119.61s74.22-53.55 74.22-119.61-33.23-119.61-74.22-119.61Z" style="fill:#e76767"/><path d="M667.83 87.43c15.68 3.99 30.11 15.75 41.5 34.1 14.14 22.79 21.93 53.06 21.93 85.24s-7.79 62.45-21.93 85.24c-11.39 18.36-25.82 30.11-41.5 34.1 38.7-4.07 69.31-55.94 69.31-119.34S706.53 91.5 667.83 87.43Z" style="fill:#c31924"/><ellipse cx="243.99" cy="524.13" rx="117.87" ry="14.32" style="fill:url(#Dégradé_sans_nom_17)"/><path d="M372.98 289.56c-.6-1.15-1.84-1.97-3.44-1.69-20.54 3.49-59.08 16.77-82.24 28.57l8.39 1.61c1.75.34 3.01 1.87 3.01 3.65v36.45c20.78-11.5 59.05-45.84 74-64.97.94-1.2.89-2.57.28-3.62Z" style="fill:url(#Dégradé_sans_nom_26)"/><path d="m187.18 250.58 32.2-14.64-33.44 11.55" class="cls-7"/><path d="M161.05 247.95c1.02-.66 2.38-.78 3.63.1 20.6 14.46 58.8 53.13 69.96 72.74 8.73 15.31 12.9 32.01 8.21 41.91-.73 1.54-1.7 2.61-3 3.4-1.2.85-2.66 1.39-4.31 1.47-10.94.54-24.78-9.71-35.58-23.63-13.85-17.81-34.95-67.91-40.42-92.47-.36-1.59.39-2.87 1.51-3.52Z" style="fill:url(#Dégradé_sans_nom_46)"/><path d="m157 256.7-4.23 1.7c-2.02.81-3 3.1-2.19 5.11.81 2.02 3.1 3 5.11 2.19l3.49-1.4c-.83-2.68-1.56-5.23-2.19-7.6Z" class="cls-4"/><ellipse cx="655.78" cy="206.78" class="cls-1" rx="14.45" ry="23.29"/><path d="m595.14 180.01 35.33 1.61-35.33 1.72" class="cls-7"/><ellipse cx="655.78" cy="524.13" rx="97.55" ry="14.32" style="fill:url(#Dégradé_sans_nom_17-2)"/><path d="M231.59 309.53c2.53 3.43 4.67 6.61 6.27 9.42 7.87 13.81 14.2 32.97 8.34 45.35-1.01 2.13-2.42 3.74-4.31 4.91-1.8 1.24-3.93 1.96-6.16 2.07-.34.02-.68.02-1.02.02-11.41 0-25.49-9.38-37.67-25.08-7.57-9.73-17.1-28.58-25.21-47.81-4.76.85-8.01 6.99-5.48 12.53l73.13 160.97c4.17 9.24 14.68 9.7 18.27 0l37.24-81.09v-69.13l-63.39-12.17Z" style="fill:url(#Dégradé_sans_nom_11)"/><path d="m187.18 250.58 32.2-14.64-33.44 11.55 1.24 3.09z" class="cls-7"/><path d="M179.72 255.2c.87-.49 1.74-.99 2.6-1.5.17-.1.35-.2.53-.31.63-.38 1.24-.77 1.86-1.16l.96-.63-1.54-3.8-.32.06c-.55.11-1.1.22-1.65.34-.4.09-.79.17-1.19.26-.53.12-1.07.25-1.6.38-.41.1-.83.21-1.24.32-.52.14-1.05.27-1.57.41-.48.13-.95.27-1.42.41-.42.12-.84.24-1.26.37 1.88 1.51 3.84 3.13 5.86 4.86l-.01-.01Z" class="cls-4"/><path d="m101.78 281.39 4.33-2.31c3.45-1.84 7.03-3.51 10.65-4.96l8.41-3.37-6.13-.88c-3.66-.53-7.41-.08-10.85 1.3l-19.64 7.87 13.22 2.35Z" style="fill:url(#Dégradé_sans_nom_46-2)"/><path d="M116.78 292.58c3.32-1.33 5.92-3.87 7.32-7.16l4.3-10.06-9.6 3.85a107.71 107.71 0 0 1-11.12 3.77l-4.23 1.18-7.1 16.61 20.44-8.19Z" style="fill:url(#Dégradé_sans_nom_46-3)"/><path d="m148.79 263-18.8 7.54-12.64 5.07c-3.56 1.43-7.09 3.07-10.49 4.89l-2.9 1.55.03.06c.02.05.05.09.06.14 0 .03.02.06.03.09l3.17-.89c3.71-1.04 7.4-2.29 10.96-3.71l12.67-5.08 18.77-7.53c-.21-.32-.4-.65-.55-1.01a4.97 4.97 0 0 1-.31-1.11Z" class="cls-7"/><path d="M330.54 163.33c-15.95-31.63-48.68-53.34-86.54-53.34-3.86 0-7.66.24-11.4.68v-.07c5.25-4.59 8.95-15.46 8.95-28.11 0-16.79-6.51-23.56-14.43-23.56s-14.43 6.77-14.43 23.56c0 12.65 3.63 23.45 8.8 28.04v2.11c-28.05 6.67-51.36 25.54-64.04 50.69-6.57 13.08-10.27 27.87-10.27 43.48 0 14.69 3.29 28.62 9.15 41.09.56-1.26 1.5-2.35 2.77-3.11a6.869 6.869 0 0 1 3.69-1.08c1.43 0 2.82.45 4.02 1.3 1.72 1.21 3.58 2.6 5.54 4.13 4.13-1.3 8.36-2.36 12.43-3.09.16-.13.35-.24.56-.32l33.43-11.56c.94-.32 1.96.15 2.33 1.07.37.92-.05 1.97-.96 2.38l-32.19 14.65c-.19.09-.4.13-.6.15a102.45 102.45 0 0 1-6.33 3.91c14.65 12.69 32.17 30.42 44.52 45.46a97.486 97.486 0 0 0 18.45 1.76c53.47 0 96.81-43.34 96.81-96.74 0-15.61-3.7-30.4-10.27-43.48Zm-24.75 88.6c-12.56 0-22.71-20.2-22.71-45.12s10.15-45.19 22.71-45.19 22.71 20.2 22.71 45.19-10.19 45.12-22.71 45.12Z" style="fill:url(#Dégradé_sans_nom_11-2)"/><path d="M245.34 82.49c0 9.19-1.8 17.59-4.92 23.78 1.2-.04 2.39-.07 3.57-.07 3.46 0 6.91.18 10.33.53 1.9-4.87 3.05-11.08 3.05-17.86 0-15.57-6.04-21.85-13.38-21.85-.37 0-.73.03-1.09.06 1.61 4.17 2.43 9.31 2.43 15.4Z" style="fill:url(#Dégradé_sans_nom_11-3)"/><path d="M277.23 232.8c-4.82-4.69-8.01-13.38-8.01-25.85 0-19.62 7.9-29.91 17.64-29.91s17.64 10.29 17.64 29.91c0 12.26-3.09 20.88-7.78 25.62 0 0-9.94-3.98-19.49.23Z" class="cls-7"/><ellipse cx="291.08" cy="199.05" class="cls-2" rx="4.1" ry="2.82"/><ellipse cx="284.81" cy="190.4" class="cls-2" rx="6.27" ry="5.5"/><path d="m305.79 265.36-18.81-8s-1.95 10.76 5.53 14.3c7.48 3.54 13.28-6.3 13.28-6.3Z" style="fill:#5b5a72"/><path d="M618.02 146.62c.82 0 1.66-.01 2.49-.03.35 0 .7-.03 1.04-.04.48-.02.96-.03 1.45-.06.48-.02.95-.06 1.43-.09.35-.02.7-.04 1.05-.07.56-.04 1.13-.09 1.69-.15.25-.02.51-.05.76-.07.63-.06 1.26-.13 1.89-.21l.54-.06c.68-.08 1.36-.18 2.04-.27.11-.02.23-.03.34-.05.73-.11 1.45-.22 2.17-.34.05 0 .11-.02.16-.03.76-.13 1.52-.27 2.27-.42-.02-.11-.04-.21-.04-.32v-3.33c0-.11.02-.23.04-.34-.77-.16-1.54-.31-2.31-.45-.05 0-.1-.02-.14-.03-.73-.13-1.45-.25-2.18-.36-.11-.02-.22-.03-.33-.05-.68-.1-1.35-.2-2.03-.29-.18-.02-.35-.04-.53-.07-.62-.08-1.25-.15-1.87-.22-.25-.03-.5-.05-.75-.07-.56-.05-1.12-.11-1.68-.15-.34-.03-.69-.05-1.03-.07-.48-.03-.96-.07-1.44-.09-.48-.03-.96-.04-1.44-.06-.36-.01-.71-.03-1.07-.04-.85-.02-1.69-.04-2.54-.04h-14.04c-.29 0-.58.04-.85.1-.06.01-.11.04-.17.05-.22.06-.44.13-.64.23-.04.02-.07.04-.11.06-.22.12-.44.25-.63.4-.01 0-.02.02-.03.03-.21.17-.41.37-.59.58-.03.04-.06.07-.09.1-.14.18-.44.61-.63 1.23-.05.17-.09.34-.12.52-.03.21-.06.41-.06.63s.03.42.06.63c.03.17.07.34.12.51v.02c.02.07.21.64.71 1.33.18.21.37.41.59.58.01 0 .02.02.03.03.2.16.41.29.63.4.04.02.07.04.11.06.2.1.42.17.64.23.06.02.11.04.17.05.27.06.56.1.85.1h14.04Z" class="cls-4"/><path d="M304.51 149.78s-16.23-6.86-35.28 16.11c0 0 12.19-22.67 21.86-24.16 9.02-1.39 13.42 8.05 13.42 8.05ZM638.83 141.07v3.33l35.33-1.71-35.33-1.62M598.57 143.83c-.08-.37-.12-.75-.12-1.14s.04-.77.12-1.14H564.7c-3.84 0-7.73.21-11.56.63l-3.27.36v.31l3.27.36c3.83.42 7.71.63 11.56.63h33.87Z" class="cls-7"/><path d="M564.7 139.95h10.34l-7.74-7.74a13.29 13.29 0 0 0-9.46-3.92h-22.02l12.78 12.78 4.37-.48c3.88-.42 7.83-.64 11.73-.64Z" style="fill:url(#Dégradé_sans_nom_46-4)"/><path d="m568.41 148.52 5.36-3.1h-9.06c-3.9 0-7.85-.22-11.73-.64l-4.88-.53-11.4 7.1h21.16c3.7 0 7.35-.98 10.55-2.83Z" style="fill:url(#Dégradé_sans_nom_46-5)"/><path d="M557.26 184.09c.72.88 1.8 1.45 3.03 1.45h14.04c6.32 0 13.08-.65 19.34-1.9-.02-.11-.04-.21-.04-.32v-3.33c0-.11.02-.22.04-.33l-.58-.12-.77-.15c-.61-.12-1.21-.23-1.82-.33-.22-.04-.45-.08-.67-.11-.67-.11-1.34-.21-2.01-.31l-.46-.06c-.78-.11-1.56-.21-2.35-.29-.04 0-.09-.01-.13-.02-3.5-.39-7.02-.58-10.55-.58h-14.04c-.46 0-.9.09-1.31.24-.09.03-.19.06-.28.1-.12.06-.24.13-.36.19-.13.08-.26.15-.38.24-.08.06-.15.12-.23.19-.14.12-.27.25-.39.39-.1.11-.19.22-.28.34-.02.03-.03.05-.06.08-.11.16-.19.33-.27.51-.05.11-.1.24-.15.38-.03.09-.06.19-.09.29-.03.1-.05.2-.07.3-.04.23-.07.46-.07.7 0 .23.03.44.07.66.03.15.06.29.1.43.01.04.03.09.04.13.07.19.27.68.69 1.26Z" class="cls-4"/><path d="M554.88 182.76c-.08-.37-.12-.75-.12-1.14s.04-.77.12-1.14h-33.87c-3.84 0-7.73.21-11.56.63l-3.27.36v.31l3.27.36c3.83.42 7.71.63 11.56.63h33.87Z" class="cls-7"/><path d="M521.01 178.87h10.34l-7.74-7.74a13.29 13.29 0 0 0-9.46-3.92h-22.02l12.78 12.78 4.37-.48c3.88-.42 7.83-.64 11.73-.64Z" style="fill:url(#Dégradé_sans_nom_46-6)"/><path d="m524.71 187.45 5.36-3.1h-9.06c-3.9 0-7.85-.22-11.73-.64l-4.88-.53-11.4 7.1h21.16c3.7 0 7.35-.98 10.55-2.83Z" style="fill:url(#Dégradé_sans_nom_46-7)"/><path d="M655.78 117.11c-13.34 0-25.57 7.58-35.16 20.19.24 0 .48.02.71.03l.68.03c.38.01.75.03 1.13.05.44.02.88.05 1.32.08l.45.03c.25.02.5.03.74.05l1.71.15.76.07c.63.07 1.27.14 1.9.22l.53.07c.69.09 1.38.19 2.07.29l.34.05c.74.11 1.47.24 2.21.37l.15.03c.78.14 1.56.29 2.34.45.27.06.52.19.72.38.16-.05.33-.08.5-.07l35.33 1.61c.8.04 1.43.7 1.43 1.5s-.63 1.46-1.43 1.5l-35.33 1.71h-.07c-.16 0-.31-.04-.46-.09-.22.2-.47.35-.76.39-.75.15-1.5.29-2.26.42l-.17.03c-.73.12-1.47.24-2.21.35l-.34.05c-.69.1-1.38.19-2.08.28l-.56.07c-.63.08-1.27.15-1.91.21l-.77.07-1.71.15-.9.06-.32.02c-.43.03-.86.06-1.29.08-.38.02-.76.03-1.13.05l-1.39.05c-.85.02-1.7.04-2.54.04h-4.32c-4.78 8.89-8.49 19.31-10.81 30.74l22.49 1.03c5.9-17.27 17.3-28.99 30.39-28.99 19.15 0 34.67 25.02 34.67 55.87s-15.52 55.87-34.67 55.87-34.67-25.01-34.67-55.87c0-8.34 1.14-16.24 3.18-23.35l-22.42 1.09c-1.13 7.12-1.73 14.58-1.73 22.26 0 49.53 24.91 89.67 55.64 89.67s55.64-40.14 55.64-89.67-24.91-89.67-55.64-89.67Z" class="cls-1"/></svg>