<svg xmlns="http://www.w3.org/2000/svg" xmlns:xlink="http://www.w3.org/1999/xlink" id="Calque_1" data-name="Calque 1" viewBox="0 0 841.89 595.28"><defs><linearGradient id="Dégradé_secondaire1" x1="489.81" x2="693.47" y1="95.73" y2="95.73" data-name="Dégradé secondaire1" gradientUnits="userSpaceOnUse"><stop offset="0" stop-color="#5b5a72"/><stop offset="1" stop-color="#b0b0bf"/></linearGradient><linearGradient xlink:href="#Dégradé_secondaire1" id="Dégradé_secondaire1-2" x1="497.31" x2="504.11" y1="122.78" y2="122.78" data-name="Dégradé secondaire1"/><linearGradient xlink:href="#Dégradé_secondaire1" id="Dégradé_secondaire1-3" y1="238.63" y2="238.63" data-name="Dégradé secondaire1"/><linearGradient xlink:href="#Dégradé_secondaire1" id="Dégradé_secondaire1-4" x1="497.31" x2="504.11" y1="197.28" y2="197.28" data-name="Dégradé secondaire1"/><linearGradient xlink:href="#Dégradé_secondaire1" id="Dégradé_secondaire1-5" x1="497.31" x2="504.11" y1="364.48" y2="364.48" data-name="Dégradé secondaire1"/><linearGradient xlink:href="#Dégradé_secondaire1" id="Dégradé_secondaire1-6" y1="386.43" y2="386.43" data-name="Dégradé secondaire1"/><linearGradient xlink:href="#Dégradé_secondaire1" id="Dégradé_secondaire1-7" x1="513.51" x2="564.32" y1="146.91" y2="146.91" data-name="Dégradé secondaire1"/><linearGradient xlink:href="#Dégradé_secondaire1" id="Dégradé_secondaire1-8" x1="517.51" x2="559.01" y1="195.47" y2="195.47" data-name="Dégradé secondaire1"/><linearGradient xlink:href="#Dégradé_secondaire1" id="Dégradé_secondaire1-9" x1="570.46" x2="644.92" y1="117.93" y2="117.93" data-name="Dégradé secondaire1"/><linearGradient xlink:href="#Dégradé_secondaire1" id="Dégradé_secondaire1-10" x1="570.46" x2="644.92" y1="266.22" y2="266.22" data-name="Dégradé secondaire1"/><linearGradient xlink:href="#Dégradé_secondaire1" id="Dégradé_secondaire1-11" x1="513.51" x2="564.32" y1="398.43" y2="398.43" data-name="Dégradé secondaire1"/><linearGradient xlink:href="#Dégradé_secondaire1" id="Dégradé_secondaire1-12" x1="517.51" x2="559.01" y1="450.07" y2="450.07" data-name="Dégradé secondaire1"/><linearGradient xlink:href="#Dégradé_secondaire1" id="Dégradé_secondaire1-13" x1="570.46" x2="644.92" y1="420.63" y2="420.63" data-name="Dégradé secondaire1"/><linearGradient xlink:href="#Dégradé_secondaire1" id="Dégradé_secondaire1-14" x1="365.01" x2="485.74" y1="176.77" y2="176.77" data-name="Dégradé secondaire1"/><linearGradient xlink:href="#Dégradé_secondaire1" id="Dégradé_secondaire1-15" x1="365.01" x2="485.74" y1="261.48" y2="261.48" data-name="Dégradé secondaire1"/><linearGradient xlink:href="#Dégradé_secondaire1" id="Dégradé_secondaire1-16" x1="379.33" x2="409.24" y1="206.86" y2="206.86" data-name="Dégradé secondaire1"/><linearGradient xlink:href="#Dégradé_secondaire1" id="Dégradé_secondaire1-17" x1="381.68" x2="406.12" y1="236.29" y2="236.29" data-name="Dégradé secondaire1"/><linearGradient xlink:href="#Dégradé_secondaire1" id="Dégradé_secondaire1-18" x1="412.85" x2="456.69" y1="189.8" y2="189.8" data-name="Dégradé secondaire1"/><linearGradient xlink:href="#Dégradé_secondaire1" id="Dégradé_secondaire1-19" x1="416.19" x2="451.97" y1="224.83" y2="224.83" data-name="Dégradé secondaire1"/><linearGradient xlink:href="#Dégradé_secondaire1" id="Dégradé_secondaire1-20" x1="379.33" x2="409.24" y1="279.91" y2="279.91" data-name="Dégradé secondaire1"/><linearGradient xlink:href="#Dégradé_secondaire1" id="Dégradé_secondaire1-21" x1="412.85" x2="456.69" y1="277.62" y2="277.62" data-name="Dégradé secondaire1"/><linearGradient xlink:href="#Dégradé_secondaire1" id="Dégradé_secondaire1-22" x1="412.85" x2="456.69" y1="368.68" y2="368.68" data-name="Dégradé secondaire1"/><linearGradient xlink:href="#Dégradé_secondaire1" id="Dégradé_secondaire1-23" x1="416.19" x2="451.97" y1="406.28" y2="406.28" data-name="Dégradé secondaire1"/><linearGradient id="Dégradé_sans_nom_11" x1="183.65" x2="390.57" y1="-21.36" y2="185.56" data-name="Dégradé sans nom 11" gradientUnits="userSpaceOnUse"><stop offset=".1" stop-color="#5b5a72"/><stop offset=".5" stop-color="#b0b0bf"/><stop offset=".96" stop-color="#f4f4f6"/></linearGradient><linearGradient xlink:href="#Dégradé_sans_nom_11" id="Dégradé_sans_nom_11-2" x1="98.98" x2="305.9" y1="63.3" y2="270.22" data-name="Dégradé sans nom 11"/><linearGradient xlink:href="#Dégradé_sans_nom_11" id="Dégradé_sans_nom_11-3" x1="95.48" x2="302.4" y1="66.8" y2="273.72" data-name="Dégradé sans nom 11"/><linearGradient xlink:href="#Dégradé_secondaire1" id="Dégradé_secondaire1-24" x1="309.83" x2="398.43" y1="296.87" y2="385.48" data-name="Dégradé secondaire1"/><linearGradient xlink:href="#Dégradé_secondaire1" id="Dégradé_secondaire1-25" x1="174.17" x2="275.41" y1="321.01" y2="422.25" data-name="Dégradé secondaire1"/><linearGradient xlink:href="#Dégradé_sans_nom_11" id="Dégradé_sans_nom_11-4" x1="127.14" x2="297.01" y1="296.04" y2="465.9" data-name="Dégradé sans nom 11"/><linearGradient xlink:href="#Dégradé_secondaire1" id="Dégradé_secondaire1-26" x1="253.61" x2="356.5" y1="344.55" y2="447.44" data-name="Dégradé secondaire1"/><linearGradient xlink:href="#Dégradé_sans_nom_11" id="Dégradé_sans_nom_11-5" x1="201.8" x2="371.67" y1="221.38" y2="391.24" data-name="Dégradé sans nom 11"/><linearGradient xlink:href="#Dégradé_secondaire1" id="Dégradé_secondaire1-27" x1="331.44" x2="424.13" y1="278.62" y2="371.32" data-name="Dégradé secondaire1"/><linearGradient xlink:href="#Dégradé_secondaire1" id="Dégradé_secondaire1-28" x1="281.12" x2="379.28" y1="318.14" y2="416.3" data-name="Dégradé secondaire1"/><linearGradient xlink:href="#Dégradé_secondaire1" id="Dégradé_secondaire1-29" x1="299.85" x2="398.56" y1="307.84" y2="406.54" data-name="Dégradé secondaire1"/><linearGradient xlink:href="#Dégradé_secondaire1" id="Dégradé_secondaire1-30" x1="410.86" x2="485.74" y1="354.82" y2="354.82" data-name="Dégradé secondaire1"/><linearGradient xlink:href="#Dégradé_secondaire1" id="Dégradé_secondaire1-31" x1="416.19" x2="451.97" y1="316.15" y2="316.15" data-name="Dégradé secondaire1"/><linearGradient xlink:href="#Dégradé_secondaire1" id="Dégradé_secondaire1-32" x1="381.68" x2="394.97" y1="285.78" y2="285.78" data-name="Dégradé secondaire1"/><linearGradient xlink:href="#Dégradé_secondaire1" id="Dégradé_secondaire1-33" x1="381.68" x2="406.12" y1="300.56" y2="300.56" data-name="Dégradé secondaire1"/><linearGradient xlink:href="#Dégradé_secondaire1" id="Dégradé_secondaire1-34" x1="371.47" x2="371.47" y1="186.6" y2="204.17" data-name="Dégradé secondaire1"/><linearGradient xlink:href="#Dégradé_secondaire1" id="Dégradé_secondaire1-35" x1="468.01" x2="473.57" y1="137.02" y2="137.02" data-name="Dégradé secondaire1"/><linearGradient xlink:href="#Dégradé_secondaire1" id="Dégradé_secondaire1-36" x1="468.01" x2="473.57" y1="206.32" y2="206.32" data-name="Dégradé secondaire1"/><linearGradient xlink:href="#Dégradé_secondaire1" id="Dégradé_secondaire1-37" x1="371.47" x2="371.47" y1="212.34" y2="293.68" data-name="Dégradé secondaire1"/><linearGradient xlink:href="#Dégradé_secondaire1" id="Dégradé_secondaire1-38" x1="371.47" x2="371.47" y1="277.53" y2="334.12" data-name="Dégradé secondaire1"/><linearGradient xlink:href="#Dégradé_secondaire1" id="Dégradé_secondaire1-39" x1="468.01" x2="473.57" y1="411.88" y2="411.88" data-name="Dégradé secondaire1"/><linearGradient xlink:href="#Dégradé_secondaire1" id="Dégradé_secondaire1-40" x1="468.01" x2="473.57" y1="308.16" y2="308.16" data-name="Dégradé secondaire1"/><linearGradient xlink:href="#Dégradé_secondaire1" id="Dégradé_secondaire1-41" x1="656.56" x2="672.95" y1="31.94" y2="31.94" data-name="Dégradé secondaire1"/><linearGradient xlink:href="#Dégradé_secondaire1" id="Dégradé_secondaire1-42" x1="697.24" x2="759.78" y1="51.27" y2="51.27" data-name="Dégradé secondaire1"/><linearGradient xlink:href="#Dégradé_secondaire1" id="Dégradé_secondaire1-43" x1="576.13" x2="636.9" y1="176.01" y2="176.01" data-name="Dégradé secondaire1"/><linearGradient xlink:href="#Dégradé_secondaire1" id="Dégradé_secondaire1-44" x1="656.56" x2="672.95" y1="145.97" y2="145.97" data-name="Dégradé secondaire1"/><linearGradient xlink:href="#Dégradé_secondaire1" id="Dégradé_secondaire1-45" x1="676.75" x2="742.83" y1="108.2" y2="108.2" data-name="Dégradé secondaire1"/><linearGradient xlink:href="#Dégradé_secondaire1" id="Dégradé_secondaire1-46" x1="648.7" x2="652.76" y1="103.85" y2="103.85" data-name="Dégradé secondaire1"/><linearGradient xlink:href="#Dégradé_secondaire1" id="Dégradé_secondaire1-47" x1="640.7" x2="652.76" y1="169.84" y2="169.84" data-name="Dégradé secondaire1"/><linearGradient xlink:href="#Dégradé_secondaire1" id="Dégradé_secondaire1-48" x1="676.75" x2="736.25" y1="168.41" y2="168.41" data-name="Dégradé secondaire1"/><linearGradient xlink:href="#Dégradé_secondaire1" id="Dégradé_secondaire1-49" x1="676.75" x2="742.83" y1="265.33" y2="265.33" data-name="Dégradé secondaire1"/><linearGradient xlink:href="#Dégradé_secondaire1" id="Dégradé_secondaire1-50" x1="576.13" x2="636.9" y1="483.09" y2="483.09" data-name="Dégradé secondaire1"/><linearGradient xlink:href="#Dégradé_secondaire1" id="Dégradé_secondaire1-51" x1="648.7" x2="652.76" y1="431.04" y2="431.04" data-name="Dégradé secondaire1"/><linearGradient xlink:href="#Dégradé_secondaire1" id="Dégradé_secondaire1-52" x1="676.75" x2="736.25" y1="490.17" y2="490.17" data-name="Dégradé secondaire1"/><linearGradient xlink:href="#Dégradé_secondaire1" id="Dégradé_secondaire1-53" x1="640.7" x2="652.76" y1="493.88" y2="493.88" data-name="Dégradé secondaire1"/><linearGradient xlink:href="#Dégradé_secondaire1" id="Dégradé_secondaire1-54" x1="656.56" x2="672.95" y1="317.4" y2="317.4" data-name="Dégradé secondaire1"/><linearGradient xlink:href="#Dégradé_secondaire1" id="Dégradé_secondaire1-55" x1="656.56" x2="672.95" y1="490.05" y2="490.05" data-name="Dégradé secondaire1"/><linearGradient xlink:href="#Dégradé_secondaire1" id="Dégradé_secondaire1-56" x1="697.26" x2="759.78" y1="408.82" y2="408.82" data-name="Dégradé secondaire1"/><linearGradient xlink:href="#Dégradé_secondaire1" id="Dégradé_secondaire1-57" x1="676.75" x2="742.83" y1="431.01" y2="431.01" data-name="Dégradé secondaire1"/><linearGradient xlink:href="#Dégradé_secondaire1" id="Dégradé_secondaire1-58" x1="576.13" x2="636.9" y1="330.35" y2="330.35" data-name="Dégradé secondaire1"/><linearGradient xlink:href="#Dégradé_secondaire1" id="Dégradé_secondaire1-59" x1="648.72" x2="652.76" y1="265.33" y2="265.33" data-name="Dégradé secondaire1"/><linearGradient xlink:href="#Dégradé_secondaire1" id="Dégradé_secondaire1-60" x1="640.7" x2="652.76" y1="330.25" y2="330.25" data-name="Dégradé secondaire1"/><linearGradient xlink:href="#Dégradé_secondaire1" id="Dégradé_secondaire1-61" x1="676.75" x2="736.25" y1="330.25" y2="330.25" data-name="Dégradé secondaire1"/><linearGradient xlink:href="#Dégradé_secondaire1" id="Dégradé_secondaire1-62" x1="697.26" x2="759.78" y1="228.52" y2="228.52" data-name="Dégradé secondaire1"/><radialGradient id="Dégradé_sans_nom_17" cx="345.36" cy="545.38" r="128.75" data-name="Dégradé sans nom 17" fx="345.36" fy="545.38" gradientTransform="matrix(-1.32 .00046 .00004 .11 723.07 483.25)" gradientUnits="userSpaceOnUse"><stop offset=".4" stop-color="#353544" stop-opacity=".5"/><stop offset="1" stop-color="#353544" stop-opacity="0"/></radialGradient><style>.cls-3{fill:#353544}.cls-71{fill:#fff;opacity:.5}</style></defs><path d="m693.47 59.84-203.66 95.37v-13.78L693.47 36.26v23.58z" style="fill:url(#Dégradé_secondaire1)"/><path d="M504.11 129.77v-17.5l-6.8 4.01v17l6.8-3.51z" style="fill:url(#Dégradé_secondaire1-2)"/><path d="m693.47 240.26-203.66 20.32v-13.77l203.66-30.14v23.59z" style="fill:url(#Dégradé_secondaire1-3)"/><path d="M504.11 240.85v-88.14l-6.8 3.18v85.97l6.8-1.01z" style="fill:url(#Dégradé_secondaire1-4)"/><path d="M497.31 263.65v198.32l6.8 4.01V262.97l-6.8.68z" style="fill:url(#Dégradé_secondaire1-5)"/><path d="m693.47 420.67-203.66-54.71v-13.78l203.66 44.9v23.59z" style="fill:url(#Dégradé_secondaire1-6)"/><path d="m564.32 146.77-50.81 19.75v-16.63l50.81-22.59v19.47z" style="fill:url(#Dégradé_secondaire1-7)"/><path d="M517.51 169.04v68.99l41.5-6.11v-79.01l-41.5 16.13z" style="fill:url(#Dégradé_secondaire1-8)"/><path d="M543.07 188.52 531 191.98c-1.63.47-2.94-1.68-2.94-4.79 0-3.11 1.31-6.05 2.94-6.57l12.07-3.89c1.77-.57 3.23 1.63 3.23 4.91 0 3.29-1.45 6.37-3.23 6.88Z" class="cls-3"/><path d="m644.92 115.44-74.46 28.94v-19.8l74.46-33.1v23.96z" style="fill:url(#Dégradé_secondaire1-9)"/><path d="m644.92 277.31-74.46 1.78v-19.8l74.46-5.93v23.95z" style="fill:url(#Dégradé_secondaire1-10)"/><path d="m564.32 415.53-50.81-17.58v-16.63l50.81 14.75v19.46z" style="fill:url(#Dégradé_secondaire1-11)"/><path d="M517.51 403.36v69.04l41.5 24.38v-79.07l-41.5-14.35z" style="fill:url(#Dégradé_secondaire1-12)"/><path d="M543.07 441.67 531 436.26c-1.63-.73-2.94-3.83-2.94-6.94 0-3.11 1.31-5.09 2.94-4.42l12.07 4.97c1.77.73 3.23 4 3.23 7.28 0 3.29-1.45 5.3-3.23 4.51Z" class="cls-3"/><path d="m644.92 443.41-74.46-25.76v-19.8l74.46 21.61v23.95z" style="fill:url(#Dégradé_secondaire1-13)"/><path d="m485.74 155.5-120.73 56.53v-8.17l120.73-62.34v13.98z" style="fill:url(#Dégradé_secondaire1-14)"/><path d="M485.74 262.45 365.01 274.5v-8.17l120.73-17.87v13.99z" style="fill:url(#Dégradé_secondaire1-15)"/><path d="m409.24 206.78-29.91 11.63v-9.8l29.91-13.29v11.46z" style="fill:url(#Dégradé_secondaire1-16)"/><path d="M381.68 221.57v38.94l24.44-3.6v-44.84l-24.44 9.5z" style="fill:url(#Dégradé_secondaire1-17)"/><path d="m396.73 231.36-7.11 2.04c-.96.27-1.73-.99-1.73-2.82 0-1.83.77-3.56 1.73-3.87l7.11-2.29c1.04-.34 1.9.96 1.9 2.89 0 1.94-.86 3.75-1.9 4.05Z" class="cls-3"/><path d="m456.69 188.33-43.84 17.04v-11.66l43.84-19.48v14.1z" style="fill:url(#Dégradé_secondaire1-18)"/><path d="M416.19 208.15v47.28l35.78-5.27v-55.92l-35.78 13.91z" style="fill:url(#Dégradé_secondaire1-19)"/><path d="m438 219.53-10.39 2.98c-1.39.4-2.5-1.07-2.5-3.26 0-2.2 1.11-4.34 2.5-4.79l10.39-3.35c1.54-.5 2.8 1 2.8 3.36 0 2.35-1.26 4.63-2.8 5.07Z" class="cls-3"/><path d="m409.24 285.28-29.91.72v-9.79l29.91-2.39v11.46z" style="fill:url(#Dégradé_secondaire1-20)"/><path d="m456.69 284.14-43.84 1.05v-11.65l43.84-3.5v14.1z" style="fill:url(#Dégradé_secondaire1-21)"/><path d="m456.69 382.09-43.84-15.16v-11.66l43.84 12.72v14.1z" style="fill:url(#Dégradé_secondaire1-22)"/><path d="M416.19 372.11v47.33l35.78 21.01v-55.97l-35.78-12.37z" style="fill:url(#Dégradé_secondaire1-23)"/><path d="m438 399.56-10.39-4.65c-1.39-.62-2.5-2.9-2.5-5.1 0-2.2 1.11-3.52 2.5-2.95l10.39 4.28c1.54.63 2.8 3.06 2.8 5.42 0 2.35-1.26 3.7-2.8 3.01Z" class="cls-3"/><ellipse cx="265.65" cy="545.38" rx="173.25" ry="15.89" style="fill:url(#Dégradé_sans_nom_17)"/><path d="M311.49 89.24v57.27c6.26 13.95 9.78 29.73 9.78 46.39V89.17c4.56-4.53 7.76-15.19 7.76-27.69 0-16.58-5.67-22.42-12.71-22.42-7.04 0-12.71 5.84-12.71 22.42 0 12.49 3.26 23.23 7.89 27.76Z" style="fill:url(#Dégradé_sans_nom_11)"/><path d="M298.46 193.42c0-27.73-18.65-50.15-41.58-50.15-23 0-41.58 22.41-41.58 50.15 0 27.66 18.59 50.07 41.58 50.07 22.93 0 41.58-22.41 41.58-50.07Zm-69.4-107.44c42.02 0 78.34 24.09 96.04 59.19 7.29 14.51 11.4 30.92 11.4 48.25 0 59.27-48.1 107.36-107.44 107.36-59.34 0-107.44-48.1-107.44-107.36 0-17.32 4.1-33.74 11.4-48.25 17.7-35.1 54.02-59.19 96.04-59.19Z" style="fill:url(#Dégradé_sans_nom_11-2)"/><path d="M203.93 222.07c-5.35-5.2-8.89-14.85-8.89-28.68 0-21.77 8.76-33.19 19.58-33.19 10.81 0 19.58 11.42 19.58 33.19 0 13.61-3.42 23.17-8.63 28.43 0 0-11.03-4.42-21.63.25Z" class="cls-3"/><ellipse cx="219.3" cy="184.62" class="cls-71" rx="4.55" ry="3.13"/><ellipse cx="212.34" cy="175.01" class="cls-71" rx="6.95" ry="6.11"/><path d="M287.93 219.63c-3.91-4.89-7.01-14.14-7.01-26.24 0-19.93 6.9-30.39 15.42-30.39s15.42 10.45 15.42 30.39c0 12.65-2.78 21.48-6.98 26.24 0 0-8.4-4.02-16.85 0Z" class="cls-3"/><ellipse cx="300.04" cy="185.36" class="cls-71" rx="3.58" ry="2.86"/><ellipse cx="294.56" cy="176.56" class="cls-71" rx="5.48" ry="5.59"/><path d="M267.81 253.65s-1.33 10.42-8.28 11.26c-11.1 1.34-13.58-11.26-13.58-11.26" style="fill:none;stroke:#5b5a72;stroke-linecap:round;stroke-linejoin:round;stroke-width:3.8px"/><path d="M136.82 86.44v106.98c0-17.32 4.1-33.74 11.4-48.25V86.51c5.39-4.71 9.19-15.88 9.19-28.87 0-17.25-6.69-23.63-14.82-23.63-8.21 0-14.82 6.38-14.82 23.63 0 12.99 3.72 24.09 9.04 28.8Z" style="fill:url(#Dégradé_sans_nom_11-3)"/><path d="M234.19 131.73s-18.01-7.61-39.15 17.88c0 0 13.53-25.16 24.26-26.82 10.01-1.54 14.9 8.94 14.9 8.94ZM283.88 133.75s12.83-6.75 27.88 15.86c0 0-9.63-22.32-17.27-23.79-7.13-1.37-10.61 7.93-10.61 7.93Z" class="cls-3"/><path d="m362.49 330.74 41.72-14.98h-81.94l-54.08 14.98h94.3z" style="fill:url(#Dégradé_secondaire1-24)"/><path d="M166.67 336.03s-10.51 19.62 32.89 43.71c43.4 24.08 89.13 32.48 92.85 23.29 2.82-6.94-32.04-29.71-68.45-53.89-37.41-24.84-51.72-23.81-57.29-13.1Z" style="fill:url(#Dégradé_secondaire1-25)"/><path d="M320.04 370.68c4.03 0 7.3 3.27 7.3 7.3a7.287 7.287 0 0 1-7.3 7.29h-23.05c-4.03 0-7.3-3.26-7.3-7.29 0-2.01.82-3.84 2.14-5.16s3.14-2.14 5.16-2.14h23.05Z" class="cls-3"/><path d="M262.27 442.37c-2.1 0-3.8-1.7-3.8-3.8V407.2c-17.05-4.04-38.76-11.94-60.76-24.14-46.14-25.6-34.89-47.88-34.41-48.78 3.18-6.12 8.46-9.22 15.69-9.22 10.49 0 25.88 6.84 47.07 20.91l4.34 2.88c6.58 4.37 13.02 8.64 19.14 12.76l-3.34-40.69-102.62-25.53c-8.13-2.43-15.2 6.08-11.25 13.6l93.23 178.63c5.32 10.26 18.89 10.26 23.29 0l19.54-45.26h-6.13Z" style="fill:url(#Dégradé_sans_nom_11-4)"/><path d="M262.27 360.35v9.94c5.27 3.65 10.13 7.12 14.43 10.35 16.35 12.29 21.38 18.52 19.24 23.81-1.64 4.04-6.39 6.01-14.51 6.01-5 0-11.53-.79-19.15-2.4v30.52h92.49v-78.22h-92.49Zm62.93 22.79a7.32 7.32 0 0 1-5.16 2.13h-23.05c-4.03 0-7.3-3.26-7.3-7.29 0-2.01.82-3.84 2.14-5.16a7.27 7.27 0 0 1 5.16-2.14h23.05c4.03 0 7.3 3.27 7.3 7.3 0 2.01-.82 3.84-2.14 5.16Z" style="fill:url(#Dégradé_secondaire1-26)"/><path d="M321.51 312.03c.17-.04.34-.07.51-.07h2.71l1.28-2.97c3.21-7.52-2.64-16.03-9.37-13.6l-53.7 25.53-.51 7.47 59.08-16.37Z" style="fill:url(#Dégradé_sans_nom_11-5)"/><path d="m364.72 355.75 48.5-17.42v-21.77l-48.5 17.42v21.77z" style="fill:url(#Dégradé_secondaire1-27)"/><path d="M256.11 334.54h104.81v22.01H256.11z" style="fill:url(#Dégradé_secondaire1-28)"/><path d="M363.47 360.24h-.06c-.19.06-.38.1-.59.1h-4.26v76.67l48.5-19.78v-72.66l-43.6 15.66Z" style="fill:url(#Dégradé_secondaire1-29)"/><path d="M416.93 340.24c-.18.56-.6 1.01-1.17 1.21l-4.9 1.76v6.06l74.88 20.12v-13.98l-68.8-15.17Z" style="fill:url(#Dégradé_secondaire1-30)"/><path d="M416.19 288.91v23.38s.02 0 .02.01c.07.05.12.11.18.16.03.03.07.06.1.09.05.06.1.12.14.18.04.05.08.11.11.17.03.05.06.11.09.17.04.08.06.16.09.24.02.05.03.1.04.16 0 .02.02.05.02.07v.12c0 .07.02.13.02.2v22.79l34.95 7.6v-56.19l-35.78.86Z" style="fill:url(#Dégradé_secondaire1-31)"/><path d="m381.68 285.94 13.29-.32-13.29.32z" style="fill:url(#Dégradé_secondaire1-32)"/><path d="M381.68 289.74v22.22h24.44v-22.8l-24.44.58z" style="fill:url(#Dégradé_secondaire1-33)"/><path d="m396.73 305.3-7.11-.56c-.96-.07-1.73-1.62-1.73-3.45s.77-3.28 1.73-3.24l7.11.3c1.04.04 1.9 1.65 1.9 3.59s-.86 3.44-1.9 3.36ZM438 308.52l-10.39-.81c-1.39-.11-2.5-1.98-2.5-4.18 0-2.2 1.11-3.93 2.5-3.88l10.39.44c1.54.07 2.8 2.03 2.8 4.38s-1.26 4.17-2.8 4.04Z" class="cls-3"/><path d="M373.49 195.21v-8.63l-4.03 2.37v8.34l4.03-2.08z" style="fill:url(#Dégradé_secondaire1-34)"/><path d="M473.57 143.52v-15.88l-5.56 2.68v16.08l5.56-2.88z" style="fill:url(#Dégradé_secondaire1-35)"/><path d="M473.57 246.42v-81.03l-5.56 2.6v79.26l5.56-.83z" style="fill:url(#Dégradé_secondaire1-36)"/><path d="M373.49 261.23v-48.98l-4.03 1.89v47.69l4.03-.6z" style="fill:url(#Dégradé_secondaire1-37)"/><path d="M369.46 277.87v34.09h4.03v-34.49l-4.03.4z" style="fill:url(#Dégradé_secondaire1-38)"/><path d="M468.01 368.57v82.51l5.56 4.11v-85.13l-5.56-1.49z" style="fill:url(#Dégradé_secondaire1-39)"/><path d="M473.57 348.84v-81.36l-5.56.55v79.58l5.56 1.23z" style="fill:url(#Dégradé_secondaire1-40)"/><path d="M672.95 42.58V12.84l-16.39 9.66v28.54l16.39-8.46z" style="fill:url(#Dégradé_secondaire1-41)"/><path d="M697.27 36.6v23.24c0 .15-.01.3-.03.45l62.54 5.66V42.26l-62.51-5.65Z" style="fill:url(#Dégradé_secondaire1-42)"/><path d="M576.13 146.25v83.15l60.77-8.94v-97.83l-60.77 23.62z" style="fill:url(#Dégradé_secondaire1-43)"/><path d="M672.95 215.87V73.65l-16.39 7.67v136.97l16.39-2.42z" style="fill:url(#Dégradé_secondaire1-44)"/><path d="M676.75 93.83v23.88l66.08 4.87V98.7l-66.08-4.87z" style="fill:url(#Dégradé_secondaire1-45)"/><path d="m652.76 92.06-4.04-.3v23.67c0 .07-.01.14-.02.2l4.05.3V92.05Z" style="fill:url(#Dégradé_secondaire1-46)"/><path d="m652.76 119.75-7.1-.53-4.96 1.93v99.31h1.24l10.82-1.61v-99.1z" style="fill:url(#Dégradé_secondaire1-47)"/><path d="M676.75 121.52v93.79l16.17-2.39c.19-.03.37-.04.56-.04h42.78v-86.97l-59.5-4.39Z" style="fill:url(#Dégradé_secondaire1-48)"/><path d="M676.75 253.35h66.09v23.95h-66.09z" style="fill:url(#Dégradé_secondaire1-49)"/><path d="M576.13 423.63v83.21l60.77 35.7v-97.88l-60.77-21.03z" style="fill:url(#Dégradé_secondaire1-50)"/><path d="M648.7 419.25c0 .07.02.14.02.21v23.77l4.04-.19v-24.19l-4.05.39Z" style="fill:url(#Dégradé_secondaire1-51)"/><path d="M676.75 445.72v91.69l59.5-7.65v-86.84l-59.5 2.8z" style="fill:url(#Dégradé_secondaire1-52)"/><path d="M640.7 445.71v96.34l12.06-1.55v-93.65l-7.66.36h-.18c-.97 0-1.91-.37-2.62-1.05l-1.6-.44Z" style="fill:url(#Dégradé_secondaire1-53)"/><path d="M672.95 388.67V246.12l-16.39 1.64v137.29l16.39 3.62z" style="fill:url(#Dégradé_secondaire1-54)"/><path d="M656.56 414.69v141.07l16.39 9.65V419.09l-16.39-4.4z" style="fill:url(#Dégradé_secondaire1-55)"/><path d="M697.26 396.98v23.7h62.51v-23.69h-62.52Z" style="fill:url(#Dégradé_secondaire1-56)"/><path d="M693.47 424.47c-.22 0-.45-.03-.67-.07l-.17-.03-.14-.03-15.74-4.23v21.8l66.09-3.1v-14.34h-49.36Z" style="fill:url(#Dégradé_secondaire1-57)"/><path d="M576.13 282.75v83.43l60.77 13.22v-98.1l-60.77 1.45z" style="fill:url(#Dégradé_secondaire1-58)"/><path d="M648.72 253.35v23.96h4.04v-23.96h-4.04z" style="fill:url(#Dégradé_secondaire1-59)"/><path d="m644.97 281.11-4.27.1v98.19h12.06v-98.29h-7.79z" style="fill:url(#Dégradé_secondaire1-60)"/><path d="M676.75 281.11h59.5v98.3h-59.5z" style="fill:url(#Dégradé_secondaire1-61)"/><path d="m613.18 168.43-17.64 5.06c-2.36.68-4.25-1.81-4.25-5.55 0-3.74 1.89-7.37 4.25-8.13l17.64-5.69c2.62-.84 4.76 1.71 4.76 5.71s-2.15 7.86-4.76 8.61ZM613.18 318.72l-17.64-1.38c-2.36-.18-4.25-3.36-4.25-7.1 0-3.74 1.89-6.68 4.25-6.58l17.64.74c2.62.11 4.76 3.44 4.76 7.44s-2.15 7.07-4.76 6.87ZM613.18 473.08l-17.64-7.9c-2.36-1.06-4.25-4.93-4.25-8.67s1.89-5.98 4.25-5.01l17.64 7.27c2.62 1.08 4.76 5.21 4.76 9.21 0 4-2.15 6.28-4.76 5.11Z" class="cls-3"/><path d="M697.27 216.67v23.59s0 .07-.01.11h62.52v-23.69h-62.51Z" style="fill:url(#Dégradé_secondaire1-62)"/></svg>