<svg xmlns="http://www.w3.org/2000/svg" xmlns:xlink="http://www.w3.org/1999/xlink" id="Calque_1" data-name="Calque 1" viewBox="0 0 841.89 595.28"><defs><linearGradient id="Dégradé_sans_nom_46" x1="571.81" x2="654.51" y1="88.57" y2="123.17" data-name="Dégradé sans nom 46" gradientUnits="userSpaceOnUse"><stop offset="0" stop-color="#5b5a72"/><stop offset="1" stop-color="#b0b0bf"/></linearGradient><linearGradient id="Dégradé_secondaire1" x1="595.17" x2="632.25" y1="56.17" y2="93.25" data-name="Dégradé secondaire1" gradientTransform="rotate(-22.3 718.74 106.56)" gradientUnits="userSpaceOnUse"><stop offset="0" stop-color="#5b5a72"/><stop offset="1" stop-color="#b0b0bf"/></linearGradient><linearGradient xlink:href="#Dégradé_secondaire1" id="Dégradé_secondaire1-2" x1="607.66" x2="644.56" y1="42.9" y2="79.81" data-name="Dégradé secondaire1"/><linearGradient xlink:href="#Dégradé_sans_nom_46" id="Dégradé_sans_nom_46-2" x1="639.02" x2="675.48" y1="273.73" y2="310.18" data-name="Dégradé sans nom 46" gradientTransform="rotate(21.03 757.975 385.762)"/><linearGradient xlink:href="#Dégradé_sans_nom_46" id="Dégradé_sans_nom_46-3" x1="553.52" x2="576.25" y1="281.74" y2="304.47" data-name="Dégradé sans nom 46" gradientTransform="rotate(21.03 757.975 385.762)"/><linearGradient xlink:href="#Dégradé_sans_nom_46" id="Dégradé_sans_nom_46-4" x1="140.8" x2="226.8" y1="53.06" y2="139.06" data-name="Dégradé sans nom 46" gradientTransform="rotate(12.62 159.546 221.369)"/><linearGradient xlink:href="#Dégradé_sans_nom_46" id="Dégradé_sans_nom_46-5" x1="126.63" x2="243.91" y1="249.09" y2="366.37" data-name="Dégradé sans nom 46" gradientTransform="rotate(-20.36 97.591 322.31)"/><linearGradient id="Dégradé_sans_nom_26" x1="504.22" x2="504.22" y1="337.01" y2="458.62" data-name="Dégradé sans nom 26" gradientTransform="rotate(-51.99 535.067 360.72)" gradientUnits="userSpaceOnUse"><stop offset="0" stop-color="#b0b0bf"/><stop offset="1" stop-color="#f4f4f6"/></linearGradient><linearGradient id="Dégradé_sans_nom_8" x1="296.13" x2="296.13" y1="349.75" y2="464.93" data-name="Dégradé sans nom 8" gradientUnits="userSpaceOnUse"><stop offset="0" stop-color="#5b5a72"/><stop offset="1" stop-color="#b0b0bf"/></linearGradient><linearGradient id="Dégradé_sans_nom_11" x1="351.12" x2="497.18" y1="305.43" y2="451.49" data-name="Dégradé sans nom 11" gradientUnits="userSpaceOnUse"><stop offset=".1" stop-color="#5b5a72"/><stop offset=".5" stop-color="#b0b0bf"/><stop offset=".96" stop-color="#f4f4f6"/></linearGradient><linearGradient xlink:href="#Dégradé_sans_nom_11" id="Dégradé_sans_nom_11-2" x1="347.76" x2="489.95" y1="165.39" y2="307.58" data-name="Dégradé sans nom 11"/><linearGradient xlink:href="#Dégradé_sans_nom_11" id="Dégradé_sans_nom_11-3" x1="329.08" x2="505.26" y1="166.38" y2="342.56" data-name="Dégradé sans nom 11"/><linearGradient xlink:href="#Dégradé_sans_nom_11" id="Dégradé_sans_nom_11-4" x1="411.4" x2="586.15" y1="63.16" y2="237.9" data-name="Dégradé sans nom 11"/><linearGradient xlink:href="#Dégradé_sans_nom_11" id="Dégradé_sans_nom_11-5" x1="-365.39" x2="-329.26" y1="110.84" y2="146.98" data-name="Dégradé sans nom 11" gradientTransform="rotate(79.37 56.26 849.18)"/><linearGradient xlink:href="#Dégradé_sans_nom_11" id="Dégradé_sans_nom_11-6" x1="-606.03" x2="-583.53" y1="96.8" y2="119.29" data-name="Dégradé sans nom 11" gradientTransform="rotate(51.6 -172.38 1553.499)"/><linearGradient xlink:href="#Dégradé_sans_nom_11" id="Dégradé_sans_nom_11-7" x1="-589.49" x2="-553.36" y1="-.46" y2="35.67" data-name="Dégradé sans nom 11" gradientTransform="rotate(160.72 -3.33 182.6)"/><linearGradient xlink:href="#Dégradé_sans_nom_11" id="Dégradé_sans_nom_11-8" x1="-578.24" x2="-553.54" y1="-6.66" y2="18.05" data-name="Dégradé sans nom 11" gradientTransform="rotate(161.94 -3.544 175.683)"/><linearGradient xlink:href="#Dégradé_sans_nom_11" id="Dégradé_sans_nom_11-9" x1="-580.12" x2="-543.99" y1="-2.68" y2="33.46" data-name="Dégradé sans nom 11" gradientTransform="scale(-1 1) rotate(-69.61 -574.291 80.277)"/><linearGradient xlink:href="#Dégradé_sans_nom_11" id="Dégradé_sans_nom_11-10" x1="-568.92" x2="-544.22" y1="-9.08" y2="15.63" data-name="Dégradé sans nom 11" gradientTransform="scale(-1 1) rotate(-68.39 -573.433 79.352)"/><linearGradient xlink:href="#Dégradé_sans_nom_11" id="Dégradé_sans_nom_11-11" x1="-615.69" x2="-579.55" y1="498.57" y2="534.71" data-name="Dégradé sans nom 11" gradientTransform="rotate(79.37 56.26 849.18)"/><linearGradient xlink:href="#Dégradé_sans_nom_11" id="Dégradé_sans_nom_11-12" x1="-1008.13" x2="-985.64" y1="323.28" y2="345.77" data-name="Dégradé sans nom 11" gradientTransform="rotate(51.6 -172.38 1553.499)"/><linearGradient xlink:href="#Dégradé_sans_nom_11" id="Dégradé_sans_nom_11-13" x1="-466.54" x2="-430.41" y1="668.22" y2="704.35" data-name="Dégradé sans nom 11" gradientTransform="rotate(-175.33 -170.308 490.317)"/><linearGradient xlink:href="#Dégradé_sans_nom_11" id="Dégradé_sans_nom_11-14" x1="-955.19" x2="-932.69" y1="542.87" y2="565.36" data-name="Dégradé sans nom 11" gradientTransform="rotate(156.9 -390.565 547.528)"/><linearGradient xlink:href="#Dégradé_sans_nom_11" id="Dégradé_sans_nom_11-15" x1="-521.36" x2="-485.22" y1="673.09" y2="709.23" data-name="Dégradé sans nom 11" gradientTransform="scale(1 -1) rotate(68.8 552.163 758.12)"/><linearGradient xlink:href="#Dégradé_sans_nom_11" id="Dégradé_sans_nom_11-16" x1="-1005.96" x2="-983.47" y1="521.65" y2="544.14" data-name="Dégradé sans nom 11" gradientTransform="scale(1 -1) rotate(41.04 665.374 1795.189)"/><linearGradient xlink:href="#Dégradé_sans_nom_11" id="Dégradé_sans_nom_11-17" x1="441.36" x2="476.74" y1="25.72" y2="61.1" data-name="Dégradé sans nom 11" gradientTransform="rotate(111.59 449.946 78.305)"/><linearGradient xlink:href="#Dégradé_sans_nom_11" id="Dégradé_sans_nom_11-18" x1="438.77" x2="474.15" y1="83.69" y2="119.06" data-name="Dégradé sans nom 11" gradientTransform="rotate(88.62 450.183 72.1)"/><linearGradient xlink:href="#Dégradé_sans_nom_11" id="Dégradé_sans_nom_11-19" x1="441.36" x2="476.74" y1="25.72" y2="61.1" data-name="Dégradé sans nom 11" gradientTransform="scale(1 -1) rotate(-68.41 306.09 42.158)"/><linearGradient xlink:href="#Dégradé_sans_nom_46" id="Dégradé_sans_nom_46-6" x1="583.47" x2="620.11" y1="58.38" y2="95.02" data-name="Dégradé sans nom 46"/><linearGradient xlink:href="#Dégradé_sans_nom_46" id="Dégradé_sans_nom_46-7" x1="559.52" x2="672.12" y1="282.31" y2="394.9" data-name="Dégradé sans nom 46" gradientTransform="rotate(21.03 757.975 385.762)"/><radialGradient id="Dégradé_sans_nom_17" cx="424.93" cy="547.41" r="114.24" data-name="Dégradé sans nom 17" fx="424.93" fy="547.41" gradientTransform="matrix(1 .00035 -.00004 .11 .02 485.02)" gradientUnits="userSpaceOnUse"><stop offset=".4" stop-color="#353544" stop-opacity=".5"/><stop offset="1" stop-color="#353544" stop-opacity="0"/></radialGradient><style>.cls-2,.cls-3{fill:#fff}.cls-4{fill:#b0b0bf}.cls-5{fill:#5b5a72}.cls-6{fill:#353544}.cls-3{opacity:.5}</style></defs><path d="m656.61 109.64-16.9-41.2c-.31.71-.82 1.28-1.47 1.68l16.52 40.28c1.93 4.72-.32 10.11-5.04 12.04l-50.87 20.86c-1.15.47-2.33.69-3.5.69-3.63 0-7.08-2.16-8.54-5.73l-16.58-40.43c-.28.07-.56.11-.85.11-.48 0-.94-.1-1.37-.27v.02l16.95 41.33c1.74 4.23 5.82 6.97 10.39 6.97 1.46 0 2.9-.28 4.26-.84l50.87-20.86c2.78-1.14 4.94-3.29 6.1-6.06 1.16-2.77 1.17-5.82.03-8.59Z" style="fill:url(#Dégradé_sans_nom_46)"/><path d="m654.76 110.4-16.52-40.28c-.16.1-.32.19-.5.26l-66.97 27.3c-.17.07-.35.12-.53.16l16.58 40.43c1.93 4.72 7.33 6.97 12.04 5.04l50.87-20.86c4.72-1.93 6.97-7.33 5.04-12.04Z" class="cls-2"/><path d="m598.2 127.19.02-.15c1.64-10.25 2.55-16.61 2.7-18.91.14-2.26 0-3.91-.41-4.92-.29-.72-.64-1.22-1-1.45a.958.958 0 0 0-.51-.16c-.16 0-.34.04-.54.12-.42.17-.63.42-.7.81-.04.26-.02.95.66 2.61l1.42 3.46-7.95 3.26-.67-1.64c-.72-1.76-1.21-3.21-1.44-4.3-.25-1.15-.21-2.41.11-3.74.33-1.35.99-2.55 1.97-3.57.97-1.01 2.29-1.86 3.92-2.53 1.87-.77 3.61-1.16 5.19-1.16 1.12 0 2.17.2 3.14.58 2.33.93 4.03 2.65 5.04 5.12.75 1.84 1.09 3.99 1.02 6.39-.07 2.29-.88 7.16-2.47 14.86l8.02-3.29 2.58 6.3-18.02 7.39-2.07-5.08Z" style="fill:url(#Dégradé_secondaire1)"/><path d="M600.96 95.45c1.05 0 2.03.18 2.93.54 2.2.88 3.78 2.48 4.73 4.81.73 1.77 1.05 3.83.98 6.17-.08 2.34-.97 7.6-2.67 15.79l8.47-3.47 2.16 5.28-17 6.97-1.81-4.42c1.65-10.3 2.56-16.62 2.7-18.97.15-2.35 0-4.07-.45-5.16-.35-.84-.75-1.41-1.21-1.71-.25-.16-.52-.25-.82-.25-.24 0-.49.05-.75.16-.59.24-.93.65-1.03 1.23-.1.58.13 1.55.69 2.91l1.21 2.94-6.92 2.84-.46-1.13c-.71-1.73-1.18-3.14-1.41-4.21-.23-1.07-.2-2.24.11-3.49.3-1.26.91-2.36 1.83-3.32s2.16-1.76 3.73-2.4c1.81-.74 3.47-1.11 4.98-1.11m0-1.11c-1.65 0-3.46.4-5.4 1.2-1.7.7-3.09 1.59-4.11 2.66-1.05 1.1-1.76 2.38-2.11 3.83-.34 1.41-.38 2.76-.11 3.99.25 1.15.73 2.59 1.47 4.4l.46 1.13.42 1.03 1.03-.42 6.92-2.84.75-.31c-.28 2.84-1.16 8.86-2.62 17.94l-.05.31.12.29 1.81 4.42.42 1.03 1.03-.42 17-6.97 1.03-.42-.42-1.03-2.16-5.28-.42-1.03-1.03.42-6.54 2.68c1.46-7.15 2.2-11.72 2.27-13.94.08-2.49-.28-4.71-1.06-6.62-1.07-2.61-2.87-4.44-5.35-5.42a8.976 8.976 0 0 0-3.34-.62Zm-.62 14.01-.2-.49-1.21-2.94c-.68-1.67-.64-2.21-.62-2.3.02-.14.07-.27.36-.39.13-.05.24-.08.33-.08.08 0 .14.02.21.07.15.1.45.38.78 1.2.26.64.54 1.97.37 4.67 0 .08-.01.17-.02.26Z" class="cls-2"/><path d="M626.08 121.31c-1.66-.03-3.14-.47-4.38-1.31-1.23-.83-2.19-1.86-2.83-3.07-.62-1.16-1.61-3.41-3.04-6.88l-1.76-4.28c-1.51-3.68-2.48-6.2-2.88-7.5-.43-1.38-.47-2.84-.13-4.36.35-1.53 1.12-2.9 2.31-4.07 1.16-1.15 2.67-2.11 4.49-2.86 1.95-.8 3.74-1.2 5.32-1.2.24 0 .47 0 .7.03 1.8.14 3.32.78 4.53 1.88 1.18 1.08 2.19 2.64 3.01 4.65l.21.51-8.75 3.59-.21-.51c-.72-1.76-1.02-2.42-1.15-2.66-.12-.24-.3-.4-.55-.49-.1-.04-.2-.06-.31-.06-.17 0-.36.04-.56.13-.26.11-.43.26-.53.48-.1.22-.11.46-.03.73.11.38.41 1.15.87 2.29l1.37 3.34c.18-.4.4-.78.69-1.12.65-.8 1.59-1.45 2.79-1.94.97-.4 1.96-.6 2.93-.6.54 0 1.08.06 1.62.18 1.52.35 2.7 1.06 3.51 2.11.76.99 1.53 2.43 2.29 4.29l1.01 2.47c.89 2.18 1.49 3.87 1.76 5.02.29 1.22.25 2.48-.13 3.77-.38 1.28-1.14 2.48-2.25 3.55-1.1 1.06-2.53 1.95-4.26 2.66-2.06.85-3.92 1.28-5.51 1.28h-.17Zm-1-17.77c-.13 0-.28.03-.45.1-.46.19-.56.45-.6.65-.04.22-.02.78.53 2.13l2.3 5.6c.68 1.66 1.1 2.16 1.28 2.31.14.11.29.17.45.17.13 0 .27-.03.43-.1.2-.08.38-.29.54-.63.04-.08.19-.58-.55-2.4l-2.38-5.79c-.54-1.31-.92-1.74-1.11-1.88a.69.69 0 0 0-.45-.16Z" style="fill:url(#Dégradé_secondaire1-2)"/><path d="M623.17 86.33c.22 0 .44 0 .66.03 1.68.13 3.08.71 4.2 1.74s2.08 2.51 2.87 4.45l-7.72 3.17c-.59-1.44-.98-2.34-1.17-2.7s-.47-.62-.85-.76a1.44 1.44 0 0 0-.51-.09c-.24 0-.5.06-.77.17-.4.16-.67.42-.83.76-.16.35-.17.72-.06 1.12s.42 1.18.89 2.34l2.02 4.93c.06-.99.38-1.85.98-2.58.59-.73 1.45-1.32 2.57-1.78.91-.37 1.82-.56 2.72-.56.5 0 1 .06 1.49.17 1.4.32 2.46.96 3.19 1.91s1.47 2.34 2.22 4.16l1.01 2.47c.89 2.17 1.47 3.81 1.74 4.94.27 1.13.23 2.29-.12 3.48s-1.05 2.3-2.1 3.31c-1.05 1.01-2.41 1.86-4.08 2.55-2.01.82-3.77 1.23-5.3 1.23h-.16c-1.56-.03-2.92-.44-4.08-1.22-1.16-.78-2.05-1.74-2.65-2.88s-1.61-3.41-3.01-6.83l-1.76-4.28c-1.51-3.68-2.47-6.17-2.87-7.46-.4-1.29-.44-2.64-.12-4.07.32-1.43 1.04-2.69 2.16-3.8s2.56-2.02 4.31-2.74c1.89-.77 3.59-1.16 5.11-1.16m5.42 28.73c.2 0 .41-.05.64-.14.33-.14.61-.44.83-.91s.04-1.42-.54-2.85l-2.38-5.79c-.45-1.1-.88-1.8-1.29-2.11-.24-.18-.5-.27-.78-.27-.21 0-.42.05-.66.14-.54.22-.85.57-.94 1.07-.09.49.1 1.3.56 2.44l2.3 5.6c.56 1.36 1.04 2.21 1.45 2.53.24.19.51.29.8.29m-5.42-29.84c-1.65 0-3.51.42-5.53 1.24-1.89.77-3.46 1.78-4.67 2.98-1.26 1.25-2.09 2.71-2.46 4.34-.36 1.61-.32 3.18.14 4.65.42 1.33 1.36 3.8 2.9 7.55l1.76 4.28c1.43 3.48 2.43 5.75 3.06 6.93.69 1.29 1.7 2.39 3.01 3.27 1.34.9 2.91 1.37 4.68 1.41h.18c1.66 0 3.59-.44 5.72-1.32 1.79-.73 3.28-1.67 4.43-2.77 1.19-1.14 1.99-2.42 2.4-3.79.41-1.38.45-2.74.14-4.05-.28-1.19-.87-2.86-1.79-5.1l-1.01-2.47c-.79-1.93-1.57-3.38-2.37-4.42-.89-1.16-2.18-1.93-3.82-2.31-.58-.13-1.16-.2-1.74-.2-.75 0-1.5.11-2.25.33l5.37-2.2 1.03-.42-.42-1.03c-.85-2.08-1.91-3.71-3.15-4.85-1.3-1.2-2.94-1.88-4.86-2.03-.24-.02-.49-.03-.75-.03Zm-1.3 13.2-.94-2.29c-.57-1.4-.78-1.98-.85-2.23-.05-.18-.03-.28 0-.35.02-.04.05-.12.23-.19.13-.05.25-.08.35-.08.04 0 .08 0 .12.02.12.05.19.11.25.23.12.23.41.87 1.13 2.62l.42 1.03 1.03-.42.55-.23c-.87.46-1.58 1.03-2.11 1.68-.06.07-.12.15-.17.22Zm6.72 15.53s-.05 0-.11-.05c-.04-.03-.41-.36-1.11-2.08l-2.3-5.6c-.57-1.39-.5-1.8-.5-1.82.01-.06.03-.14.27-.24.13-.05.2-.06.23-.06.02 0 .05 0 .11.04.06.05.4.35.93 1.64l2.38 5.79c.57 1.4.56 1.89.55 1.99-.11.23-.21.31-.23.33-.12.05-.19.05-.22.05Z" class="cls-2"/><path d="M681.89 249.02c4.34 5.69 13.19 19.4 14.38 37.87.12 1.8 2.03 2.88 3.62 2.03 5.77-3.09 16.02-11.31 9.37-28.75-6.19-16.25-19.3-16.22-25.86-15.05-1.81.32-2.63 2.45-1.51 3.91Z" style="fill:url(#Dégradé_sans_nom_46-2)"/><path d="M633.47 230.4c-7.04 1.32-22.79 5.56-36.04 18.48-1.29 1.26-3.43.78-4.04-.92-2.21-6.16-4.32-19.13 12.3-27.63 15.48-7.91 25.19.89 29.28 6.15 1.13 1.45.31 3.58-1.49 3.92Z" style="fill:url(#Dégradé_sans_nom_46-3)"/><path d="m599.26 323.58-17.1 4.11c-1.59.38-2.67-1.57-1.51-2.72l11.64-11.46s1.75 5.33 6.97 10.07ZM656.75 337.54l1 17.07c.1 1.63-2.02 2.35-2.94 1.01l-10.67-15.57s5.61-.13 12.61-2.51Z" class="cls-5"/><path d="m659.64 294.59-20.5-4.42c2.05.33 4.1-.82 4.87-2.8.05-.13.1-.27.14-.4l.99-3.42 15.34 8.9c1.15.67.47 2.43-.83 2.15Z" class="cls-6"/><path d="M644 287.36a4.466 4.466 0 0 1-4.87 2.8h-.03l-.49-.12c-.13-.03-.26-.07-.39-.12-2.46-.94-3.57-3.79-2.4-6.16l15.03-29.8c.63-1.26 2.54-.52 2.16.83l-7.89 28.74-.99 3.42c-.03.13-.09.27-.14.4" class="cls-5"/><rect width="16.52" height="4.35" x="652.62" y="229.21" class="cls-4" rx="1.68" ry="1.68" transform="rotate(21.03 660.912 231.397)"/><path d="m655.013 236.646 1.375-3.575 6.664 2.563-1.374 3.574zM656.77 232.13l3.33 1.28-3.33-1.28z" class="cls-5"/><path d="M225.1 60.68c-27.18-6.09-54.16 11.01-60.24 38.2-6.09 27.18 11.01 54.16 38.2 60.24 27.18 6.09 54.15-11.02 60.24-38.2 6.09-27.18-11.01-54.16-38.19-60.24Zm5.04 90.21-2.6-7.5a1.745 1.745 0 1 0-3.3 1.14l2.6 7.51a43.792 43.792 0 0 1-20.67 1.17l1.73-7.74a1.75 1.75 0 0 0-1.32-2.09 1.75 1.75 0 0 0-2.09 1.32l-1.73 7.74c-6.78-1.8-12.8-5.11-17.76-9.48l5.48-5.75c.67-.7.64-1.81-.06-2.47-.7-.67-1.8-.64-2.47.06l-5.48 5.75a44.17 44.17 0 0 1-9.83-15.76l7.57-2.39a1.745 1.745 0 1 0-1.05-3.33l-7.57 2.39a43.867 43.867 0 0 1-.82-19.46l7.74 1.73c.94.21 1.88-.38 2.09-1.32s-.38-1.88-1.32-2.09l-7.74-1.73c1.69-6.35 4.7-12.03 8.66-16.8l5.9 5.31a1.743 1.743 0 0 0 2.47-.13c.65-.72.59-1.82-.13-2.47l-5.9-5.31c4.37-4.48 9.66-7.98 15.47-10.27l2.6 7.5c.21.59.7 1.01 1.27 1.13.31.07.63.06.95-.05.91-.32 1.4-1.31 1.08-2.22l-2.6-7.5a43.664 43.664 0 0 1 20.67-1.17l-1.73 7.74c-.21.94.38 1.88 1.32 2.09s1.88-.38 2.09-1.32l1.73-7.74c6.78 1.8 12.8 5.11 17.76 9.48l-5.48 5.75c-.67.7-.64 1.81.06 2.47a1.75 1.75 0 0 0 2.47-.06l5.47-5.75a44.17 44.17 0 0 1 9.83 15.76l-7.57 2.39c-.92.29-1.43 1.27-1.14 2.19.19.62.7 1.05 1.29 1.18.29.07.6.06.91-.04l7.58-2.39c1.68 6.17 2.04 12.79.82 19.46l-7.74-1.73c-.94-.21-1.88.38-2.09 1.32s.38 1.88 1.32 2.09l7.74 1.73a43.8 43.8 0 0 1-8.66 16.8l-5.9-5.32c-.72-.65-1.82-.59-2.47.13-.65.72-.59 1.82.13 2.47l5.9 5.31a44.204 44.204 0 0 1-15.47 10.27Z" style="fill:url(#Dégradé_sans_nom_46-4)"/><path d="m234.33 115.47-20.42-1.34c2.03.02 3.84-1.38 4.3-3.4.03-.13.06-.27.07-.41l.47-3.44 16.07 6.4c1.2.48.8 2.28-.5 2.19Z" class="cls-6"/><path d="M218.2 110.73c-.45 2.02-2.27 3.42-4.3 3.4h-.02l-.49-.04a2.63 2.63 0 0 1-.39-.06 4.36 4.36 0 0 1-3.2-5.6l10.26-30.9c.43-1.3 2.37-.87 2.21.5l-3.52 28.86-.47 3.44c-.01.13-.05.27-.07.41M167.64 272.34l-7.92-29.23 13.06 27.32" class="cls-5"/><circle cx="172.32" cy="277.06" r="6.65" class="cls-6"/><rect width="27.98" height="7.37" x="134.4" y="208.88" class="cls-4" rx="3.69" ry="3.69" transform="rotate(-20.36 148.349 212.516)"/><rect width="27.98" height="7.37" x="187.01" y="210.85" class="cls-4" rx="3.69" ry="3.69" transform="rotate(24.64 201.023 214.59)"/><rect width="27.98" height="7.37" x="95.81" y="244.69" class="cls-4" rx="3.69" ry="3.69" transform="rotate(-65.36 109.778 248.365)"/><path d="M152.45 223.5c29.58-10.97 62.46 4.11 73.44 33.69 10.97 29.58-4.11 62.46-33.69 73.44-29.59 10.98-62.47-4.11-73.44-33.69-10.97-29.58 4.11-62.46 33.7-73.44Zm58.35 39.29c-7.88-21.25-31.5-32.08-52.75-24.2-21.25 7.88-32.08 31.5-24.2 52.75 7.88 21.25 31.5 32.08 52.75 24.2 21.25-7.88 32.08-31.5 24.2-52.75Z" style="fill:url(#Dégradé_sans_nom_46-5)"/><path d="M118.57 252.41c.85-1.85 1.79-3.64 2.8-5.37l-3.88-1.78-5.04 10.99 3.88 1.78c.65-1.9 1.39-3.77 2.24-5.62Z" class="cls-5"/><ellipse cx="424.93" cy="547.41" rx="116.07" ry="14.1" style="fill:url(#Dégradé_sans_nom_17)"/><path d="m516.19 361.61 55.15 115.67c1.54 3.17 6.35 2.06 6.21-1.48-.92-24.77-4.34-73.82-17.42-99.02-10.19-19.69-24.79-25.54-35.49-26.97-6.44-.84-11.29 5.9-8.45 11.79Z" style="fill:url(#Dégradé_sans_nom_26)"/><path d="m326.39 361.61-55.15 115.67c-1.54 3.17-6.35 2.06-6.21-1.48.92-24.77 4.34-73.82 17.42-99.02 10.19-19.69 24.79-25.54 35.49-26.97 6.44-.84 11.29 5.9 8.45 11.79Z" style="fill:url(#Dégradé_sans_nom_8)"/><path d="M505.3 329.42c7.21-2.16 13.48 5.39 9.98 12.07L432.55 500c-4.72 9.1-17.8 9.1-22.52 0L327.3 341.49c-3.44-6.67 2.83-14.23 10.05-12.07l74.64 22.65 5.39 65.2c.4 4.79 7.42 4.79 7.82 0l5.39-65.2 74.7-22.65Z" style="fill:url(#Dégradé_sans_nom_11)"/><path d="M421.29 283.38c24.61 0 44.5-19.89 44.5-44.43s-19.89-44.5-44.5-44.5-44.5 19.89-44.5 44.5 19.96 44.43 44.5 44.43Zm85.22-87.24c6.47 12.88 10.11 27.44 10.11 42.81 0 52.59-42.68 95.27-95.33 95.27s-95.33-42.68-95.33-95.27c0-15.37 3.64-29.94 10.11-42.81 15.71-31.15 47.94-52.52 85.22-52.52s69.51 21.37 85.22 52.52Z" style="fill:url(#Dégradé_sans_nom_11-2)"/><path d="M336.07 144.08v52.05c-6.47 12.88-10.11 27.44-10.11 42.81v-94.93c-4.72-4.18-8.02-14.02-8.02-25.55 0-15.3 5.87-20.97 13.15-20.97s13.15 5.66 13.15 20.97c0 11.53-3.37 21.44-8.16 25.62Z" style="fill:url(#Dégradé_sans_nom_11-3)"/><path d="M516.63 144.01v94.93c0-15.37-3.64-29.94-10.11-42.81v-52.05c-4.79-4.18-8.16-14.09-8.16-25.62 0-15.3 5.93-20.97 13.15-20.97s13.15 5.66 13.15 20.97c0 11.53-3.3 21.37-8.02 25.55Z" style="fill:url(#Dégradé_sans_nom_11-4)"/><path d="M346.59 196.13s-12.95 45.69 1.19 46.53c14.13.84-1.19-46.53-1.19-46.53Z" class="cls-3"/><path d="M389.87 166.08s9.05 9.75-1.31 14.92c-11.34 5.66-26.52 13.45-26.52 13.45s29.31-18.89 27.82-28.36ZM452.71 166.08s-9.05 9.75 1.31 14.92c11.34 5.66 26.52 13.45 26.52 13.45s-29.31-18.89-27.82-28.36Z" class="cls-6"/><path d="M408.18 312.93c6.31-1.38 15.67-2.36 26.27 0 0 0 3.36 1.08 4.77-2.08 1.6-3.6-2.18-7.29-2.18-7.29-3.2-3.27-8.14-5.93-15.72-5.93-7.63-.04-12.59 2.76-15.8 6.14 0 0-3.7 3.47-2.1 7.07 1.41 3.17 4.77 2.08 4.77 2.08Z" class="cls-5"/><ellipse cx="465.01" cy="238.3" class="cls-6" rx="17.28" ry="29.3"/><ellipse cx="460.88" cy="230.57" class="cls-3" rx="4.02" ry="2.76"/><ellipse cx="467.02" cy="222.09" class="cls-3" rx="6.14" ry="5.39"/><ellipse cx="377.6" cy="238.3" class="cls-6" rx="17.28" ry="29.3"/><ellipse cx="373.46" cy="230.57" class="cls-3" rx="4.02" ry="2.76"/><ellipse cx="379.6" cy="222.09" class="cls-3" rx="6.14" ry="5.39"/><path d="M700.47 298.48c-.79 12.99-6.49 28.94-26.99 38.6" style="stroke:url(#Dégradé_sans_nom_11-5);stroke-width:4px;fill:none;stroke-linecap:round;stroke-linejoin:round"/><path d="M707.23 311.67s-1.6 17.54-18.33 25.87" style="stroke:url(#Dégradé_sans_nom_11-6);stroke-width:4px;fill:none;stroke-linecap:round;stroke-linejoin:round"/><path d="M611.28 155.41c-17.76 5.19-29.48 9.7-42.22-20.88" style="stroke:url(#Dégradé_sans_nom_11-7);stroke-width:4px;fill:none;stroke-linecap:round;stroke-linejoin:round"/><path d="M599.49 166.3c-9.93 2.67-18.9 5.05-29.03-11.17" style="stroke:url(#Dégradé_sans_nom_11-8);stroke-width:4px;fill:none;stroke-linecap:round;stroke-linejoin:round"/><path d="M649.67 61.64c-7.35-16.98-11.35-28.88-43.02-19.17" style="stroke-width:4px;stroke:url(#Dégradé_sans_nom_11-9);fill:none;stroke-linecap:round;stroke-linejoin:round"/><path d="M650.52 45.61c-4.28-9.35-8.18-17.77-27.13-15.22" style="stroke:url(#Dégradé_sans_nom_11-10);stroke-width:4px;fill:none;stroke-linecap:round;stroke-linejoin:round"/><path d="M273.22 124.01c-.79 12.99-6.49 28.94-26.99 38.6" style="stroke:url(#Dégradé_sans_nom_11-11);stroke-width:4px;fill:none;stroke-linecap:round;stroke-linejoin:round"/><path d="M279.98 137.21s-1.6 17.54-18.33 25.87" style="stroke:url(#Dégradé_sans_nom_11-12);stroke-width:4px;fill:none;stroke-linecap:round;stroke-linejoin:round"/><path d="M140.45 333.6c-12.32-4.19-26.2-13.9-30.11-36.22" style="stroke:url(#Dégradé_sans_nom_11-13);stroke-width:4px;fill:none;stroke-linecap:round;stroke-linejoin:round"/><path d="M125.94 336.64s-16.5-6.17-20.12-24.51" style="stroke:url(#Dégradé_sans_nom_11-14);stroke-width:4px;fill:none;stroke-linecap:round;stroke-linejoin:round"/><path d="M239.61 272.93c1.61-12.91-1.07-29.64-19.45-42.9" style="stroke:url(#Dégradé_sans_nom_11-15);stroke-width:4px;fill:none;stroke-linecap:round;stroke-linejoin:round"/><path d="M248.67 261.2s1.64-17.54-13.28-28.8" style="stroke:url(#Dégradé_sans_nom_11-16);stroke-width:4px;fill:none;stroke-linecap:round;stroke-linejoin:round"/><path d="M493.69 74.32s-12.54.24-12.62 7.32c-.07 7.08 9.34 13.24 4.04 18.95-5.3 5.71-16.89 2.34-16.37 11.22.52 8.88 3.53 12.78-3.8 14.42" style="stroke:url(#Dégradé_sans_nom_11-17);fill:none;stroke-linecap:round;stroke-linejoin:round;stroke-width:3.02px"/><path d="M424.69 50.07s-11.46 5.12-8.76 11.67c2.7 6.55 13.76 8.54 11.11 15.87-2.65 7.32-14.64 8.74-10.69 16.72 3.95 7.97 8.24 10.39 2.13 14.76" style="fill:none;stroke-linecap:round;stroke-linejoin:round;stroke-width:3.02px;stroke:url(#Dégradé_sans_nom_11-18)"/><path d="M348.89 74.32s12.54.24 12.62 7.32c.07 7.08-9.34 13.24-4.04 18.95 5.3 5.71 16.89 2.34 16.37 11.22-.52 8.88-3.53 12.78 3.8 14.42" style="stroke:url(#Dégradé_sans_nom_11-19);fill:none;stroke-linecap:round;stroke-linejoin:round;stroke-width:3.02px"/><path d="M151.75 221.62c1.9-.71 3.83-1.3 5.78-1.81l-1.49-4.02L144.7 220l1.49 4.01c1.8-.88 3.66-1.68 5.56-2.39ZM202.34 226.12l1.78-3.89-10.99-5.04-1.78 3.88c3.8 1.3 7.48 2.99 10.99 5.05Z" class="cls-5"/><path d="m615.07 50.39 3.77 9.19c.92 2.24-.15 4.8-2.39 5.72s-4.79-.16-5.71-2.39l-3.77-9.19c-.92-2.24.15-4.79 2.39-5.71a4.367 4.367 0 0 1 5.71 2.39ZM581.02 64.36l3.77 9.19c.92 2.24-.15 4.8-2.39 5.72s-4.79-.16-5.71-2.39l-3.77-9.19c-.92-2.24.15-4.79 2.39-5.71a4.367 4.367 0 0 1 5.71 2.39Z" class="cls-6"/><path d="m637.89 66.36-3.4-8.28c-1.99-4.86-7.55-7.18-12.4-5.19l-3.27 1.34 1.88 4.59a6.35 6.35 0 0 1-.01 4.88 6.343 6.343 0 0 1-3.46 3.44 6.38 6.38 0 0 1-8.33-3.48l-1.88-4.59-22.25 9.13 1.88 4.59a6.37 6.37 0 0 1-3.48 8.32 6.38 6.38 0 0 1-8.33-3.48l-1.88-4.59-3.27 1.34c-4.86 1.99-7.18 7.55-5.19 12.4l3.34 8.14c.35.85 1.32 1.26 2.17.91l66.97-27.3c.85-.35 1.26-1.32.91-2.17Z" style="fill:url(#Dégradé_sans_nom_46-6)"/><path d="M658.57 237.36c-26.71-10.27-56.69 3.06-66.96 29.77-10.27 26.71 3.06 56.69 29.77 66.96 26.7 10.27 56.68-3.06 66.95-29.77 10.27-26.71-3.06-56.69-29.76-66.96Zm-8.43 92.43-1.52-8.02a1.804 1.804 0 0 0-2.1-1.43c-.97.18-1.61 1.12-1.43 2.1l1.52 8.02a45.03 45.03 0 0 1-21.18-1.92l2.92-7.61c.36-.93-.11-1.96-1.03-2.32s-1.96.11-2.32 1.03l-2.92 7.61a44.94 44.94 0 0 1-16.62-12.3l6.43-5.02c.78-.61.92-1.74.31-2.52-.61-.78-1.74-.92-2.52-.31l-6.43 5.02a45.359 45.359 0 0 1-7.62-17.49l8.05-1.29a1.798 1.798 0 1 0-.57-3.55l-8.06 1.29a45.11 45.11 0 0 1 2.09-19.9l7.61 2.92c.93.36 1.96-.11 2.32-1.03s-.11-1.96-1.03-2.32l-7.61-2.92a44.98 44.98 0 0 1 11.33-15.77l5.2 6.28c.2.25.46.42.74.53.59.23 1.27.14 1.79-.29.76-.63.87-1.76.24-2.53l-5.2-6.29c5.12-3.9 11.01-6.66 17.27-8.11l1.51 8.01a1.799 1.799 0 0 0 2.1 1.43c.97-.18 1.61-1.12 1.43-2.1l-1.51-8.01c6.91-1.03 14.15-.48 21.18 1.91l-2.92 7.61a1.796 1.796 0 0 0 3.35 1.29l2.92-7.61a44.94 44.94 0 0 1 16.62 12.3l-6.43 5.02a1.797 1.797 0 0 0 .46 3.09c.57.22 1.24.14 1.75-.26l6.42-5.02a45.51 45.51 0 0 1 7.62 17.49l-8.05 1.29c-.98.16-1.65 1.08-1.49 2.06.1.66.55 1.17 1.13 1.39.29.11.6.15.93.1l8.06-1.29c.78 6.52.15 13.3-2.09 19.9l-7.61-2.92c-.93-.36-1.96.11-2.32 1.03s.11 1.96 1.03 2.32l7.61 2.92a45.086 45.086 0 0 1-11.32 15.78l-5.2-6.29c-.63-.76-1.76-.87-2.53-.24-.76.63-.87 1.76-.24 2.53l5.2 6.29a45.431 45.431 0 0 1-17.27 8.12Z" style="fill:url(#Dégradé_sans_nom_46-7)"/></svg>