<svg xmlns="http://www.w3.org/2000/svg" xmlns:xlink="http://www.w3.org/1999/xlink" id="Calque_1" data-name="Calque 1" viewBox="0 0 841.89 595.28"><defs><linearGradient id="Dégradé_sans_nom_46" x1="2920.74" x2="3005.1" y1="-1860.62" y2="-1776.26" data-name="Dégradé sans nom 46" gradientTransform="rotate(52.72 -629.208 -3368.368)" gradientUnits="userSpaceOnUse"><stop offset="0" stop-color="#5b5a72"/><stop offset="1" stop-color="#b0b0bf"/></linearGradient><linearGradient id="Dégradé_sans_nom_26" x1="2747.29" x2="2810.24" y1="-5486.64" y2="-5423.69" data-name="Dégradé sans nom 26" gradientTransform="scale(1 -1) rotate(-42.16 8321.403 30.793)" gradientUnits="userSpaceOnUse"><stop offset="0" stop-color="#b0b0bf"/><stop offset="1" stop-color="#f4f4f6"/></linearGradient><linearGradient id="Dégradé_sans_nom_11" x1="361.1" x2="491" y1="330.1" y2="460" data-name="Dégradé sans nom 11" gradientUnits="userSpaceOnUse"><stop offset=".1" stop-color="#5b5a72"/><stop offset=".5" stop-color="#b0b0bf"/><stop offset=".96" stop-color="#f4f4f6"/></linearGradient><linearGradient xlink:href="#Dégradé_sans_nom_11" id="Dégradé_sans_nom_11-2" x1="341.5" x2="498.18" y1="206.43" y2="363.12" data-name="Dégradé sans nom 11"/><linearGradient xlink:href="#Dégradé_sans_nom_11" id="Dégradé_sans_nom_11-3" x1="414.71" x2="570.12" y1="114.63" y2="270.04" data-name="Dégradé sans nom 11"/><linearGradient xlink:href="#Dégradé_sans_nom_11" id="Dégradé_sans_nom_11-4" x1="358.11" x2="484.57" y1="205.55" y2="332.01" data-name="Dégradé sans nom 11"/><linearGradient xlink:href="#Dégradé_sans_nom_11" id="Dégradé_sans_nom_11-5" x1="6519.61" x2="6531.73" y1="7514.66" y2="7526.78" data-name="Dégradé sans nom 11" gradientTransform="rotate(-133.76 1817.692 5159.341)"/><linearGradient xlink:href="#Dégradé_sans_nom_11" id="Dégradé_sans_nom_11-6" x1="6581.7" x2="6592.65" y1="7568.03" y2="7578.98" data-name="Dégradé sans nom 11" gradientTransform="rotate(153.56 4290.23 3076.32)"/><linearGradient xlink:href="#Dégradé_sans_nom_11" id="Dégradé_sans_nom_11-7" x1="6681.07" x2="6687.44" y1="7580.52" y2="7586.89" data-name="Dégradé sans nom 11" gradientTransform="rotate(-177.35 3324.68 3916.436)"/><linearGradient xlink:href="#Dégradé_sans_nom_11" id="Dégradé_sans_nom_11-8" x1="6483.48" x2="6506.32" y1="7528.47" y2="7551.31" data-name="Dégradé sans nom 11" gradientTransform="rotate(-143.99 2206.364 4830.643)"/><linearGradient xlink:href="#Dégradé_sans_nom_11" id="Dégradé_sans_nom_11-9" x1="335.88" x2="357.55" y1="20.57" y2="42.24" data-name="Dégradé sans nom 11" gradientTransform="rotate(19.46 277.464 52.108)"/><linearGradient xlink:href="#Dégradé_sans_nom_11" id="Dégradé_sans_nom_11-10" x1="228.91" x2="238.44" y1="123.96" y2="133.49" data-name="Dégradé sans nom 11" gradientTransform="rotate(19.46 277.464 52.108)"/><linearGradient xlink:href="#Dégradé_sans_nom_11" id="Dégradé_sans_nom_11-11" x1="291.02" x2="303.48" y1="59.39" y2="71.84" data-name="Dégradé sans nom 11" gradientTransform="rotate(16.14 267.702 95.072)"/><linearGradient xlink:href="#Dégradé_sans_nom_11" id="Dégradé_sans_nom_11-12" x1="-777.59" x2="-758.49" y1="5913" y2="5932.1" data-name="Dégradé sans nom 11" gradientTransform="rotate(154.26 428.686 3105.531)"/><linearGradient xlink:href="#Dégradé_sans_nom_11" id="Dégradé_sans_nom_11-13" x1="-740.94" x2="-724.99" y1="5878.07" y2="5894.02" data-name="Dégradé sans nom 11" gradientTransform="rotate(-147.75 -1069.81 2846.588)"/><linearGradient xlink:href="#Dégradé_sans_nom_11" id="Dégradé_sans_nom_11-14" x1="-711.85" x2="-702.67" y1="5930.4" y2="5939.59" data-name="Dégradé sans nom 11" gradientTransform="rotate(135.58 925.175 3189.868)"/><linearGradient xlink:href="#Dégradé_sans_nom_11" id="Dégradé_sans_nom_11-15" x1="6474.55" x2="6493.08" y1="7583.57" y2="7602.09" data-name="Dégradé sans nom 11" gradientTransform="scale(1 -1) rotate(16.76 29467.806 -16483.304)"/><linearGradient xlink:href="#Dégradé_sans_nom_11" id="Dégradé_sans_nom_11-16" x1="6613.63" x2="6620.89" y1="7543.54" y2="7550.8" data-name="Dégradé sans nom 11" gradientTransform="scale(1 -1) rotate(-26.44 -12674.602 16471.577)"/><linearGradient xlink:href="#Dégradé_sans_nom_11" id="Dégradé_sans_nom_11-17" x1="6693.65" x2="6700.02" y1="7590.47" y2="7596.84" data-name="Dégradé sans nom 11" gradientTransform="scale(1 -1) rotate(2.65 169745.513 -125548.143)"/><linearGradient xlink:href="#Dégradé_sans_nom_11" id="Dégradé_sans_nom_11-18" x1="6560.47" x2="6574.14" y1="7522.37" y2="7536.04" data-name="Dégradé sans nom 11" gradientTransform="scale(-1 1) rotate(-63.15 -3078.899 9635.633)"/><linearGradient xlink:href="#Dégradé_sans_nom_11" id="Dégradé_sans_nom_11-19" x1="210.92" x2="220.45" y1="134.49" y2="144.03" data-name="Dégradé sans nom 11" gradientTransform="rotate(-160.54 428.431 72.124)"/><linearGradient xlink:href="#Dégradé_sans_nom_11" id="Dégradé_sans_nom_11-20" x1="253.82" x2="266.27" y1="23.75" y2="36.21" data-name="Dégradé sans nom 11" gradientTransform="scale(-1 1) rotate(22.86 -163.45 -1982.189)"/><linearGradient xlink:href="#Dégradé_sans_nom_11" id="Dégradé_sans_nom_11-21" x1="260.33" x2="270.31" y1="123.2" y2="133.18" data-name="Dégradé sans nom 11" gradientTransform="scale(-1 1) rotate(8.32 -157.92 -5684.857)"/><linearGradient xlink:href="#Dégradé_sans_nom_11" id="Dégradé_sans_nom_11-22" x1="311.49" x2="332.5" y1="96.34" y2="117.35" data-name="Dégradé sans nom 11" gradientTransform="scale(-1 1) rotate(8.32 -157.92 -5684.857)"/><linearGradient xlink:href="#Dégradé_sans_nom_11" id="Dégradé_sans_nom_11-23" x1="-768.23" x2="-758.12" y1="5875.67" y2="5885.78" data-name="Dégradé sans nom 11" gradientTransform="scale(1 -1) rotate(-46.85 -6988.472 1375.118)"/><linearGradient xlink:href="#Dégradé_sans_nom_11" id="Dégradé_sans_nom_11-24" x1="-708.47" x2="-699.29" y1="5927.34" y2="5936.53" data-name="Dégradé sans nom 11" gradientTransform="rotate(-44.42 -7155.011 1332.053)"/><linearGradient xlink:href="#Dégradé_sans_nom_11" id="Dégradé_sans_nom_11-25" x1="-728.75" x2="-717.96" y1="5834.86" y2="5845.65" data-name="Dégradé sans nom 11" gradientTransform="rotate(21.6 15110.622 6397.017)"/><radialGradient id="Dégradé_sans_nom_17" cx="423.5" cy="548.72" r="101.61" data-name="Dégradé sans nom 17" fx="423.5" fy="548.72" gradientTransform="matrix(1 .00035 -.00004 .11 .02 486.19)" gradientUnits="userSpaceOnUse"><stop offset=".4" stop-color="#353544" stop-opacity=".5"/><stop offset="1" stop-color="#353544" stop-opacity="0"/></radialGradient><style>.cls-3{fill:#353544}.cls-24{stroke:#b0b0bf;stroke-linecap:round;stroke-linejoin:round;stroke-width:4.65px;fill:none}.cls-34{fill:#fff;opacity:.5}</style></defs><ellipse cx="423.5" cy="548.72" rx="103.23" ry="12.54" style="fill:url(#Dégradé_sans_nom_17)"/><path d="m340.77 386.95-50.35 102.24c-1.41 2.8-5.67 1.76-5.5-1.39 1.1-22.01 4.7-65.6 16.61-87.86 9.29-17.4 22.34-22.43 31.86-23.58 5.74-.68 9.97 5.37 7.38 10.58Z" style="fill:url(#Dégradé_sans_nom_46)"/><path d="M524.91 375.62c9.15-2.87 21.06-10.21 27-29.02 7.64-24.07 3.18-67.57.23-89.42-.41-3.12-4.79-3.37-5.66-.36l-30.77 109.74c-1.59 5.6 3.68 10.77 9.19 9.05Z" style="fill:url(#Dégradé_sans_nom_26)"/><path d="M498.22 351.44c6.42-1.92 11.99 4.8 8.87 10.73l-73.57 140.97c-4.2 8.09-15.83 8.09-20.03 0l-73.57-140.97c-3.06-5.94 2.52-12.65 8.93-10.73l66.38 20.15 4.8 57.98c.36 4.26 6.6 4.26 6.96 0l4.8-57.98 66.44-20.15Z" style="fill:url(#Dégradé_sans_nom_11)"/><path d="M347.71 186.6v46.29c-5.76 11.45-8.99 24.4-8.99 38.08v-84.43c-4.2-3.72-7.14-12.47-7.14-22.73 0-13.61 5.22-18.65 11.69-18.65s11.69 5.04 11.69 18.65c0 10.25-3 19.07-7.26 22.79Z" style="fill:url(#Dégradé_sans_nom_11-2)"/><path d="M508.29 186.54v84.43c0-13.67-3.24-26.62-8.99-38.08V186.6c-4.26-3.72-7.26-12.53-7.26-22.79 0-13.61 5.28-18.65 11.69-18.65s11.69 5.04 11.69 18.65c0 10.25-2.94 19.01-7.14 22.73Z" style="fill:url(#Dégradé_sans_nom_11-3)"/><path d="M423.5 310.48c21.89 0 39.58-17.69 39.58-39.52s-17.69-39.58-39.58-39.58-39.58 17.69-39.58 39.58 17.75 39.52 39.58 39.52Zm75.79-77.59c5.76 11.45 8.99 24.4 8.99 38.08 0 46.77-37.96 84.73-84.79 84.73s-84.79-37.96-84.79-84.73c0-13.67 3.24-26.62 8.99-38.08 13.97-27.7 42.63-46.71 75.79-46.71s61.82 19.01 75.79 46.71Z" style="fill:url(#Dégradé_sans_nom_11-4)"/><ellipse cx="462.58" cy="270.94" class="cls-3" rx="15.45" ry="26.19"/><ellipse cx="458.88" cy="264.02" class="cls-34" rx="3.59" ry="2.47"/><ellipse cx="464.37" cy="256.44" class="cls-34" rx="5.49" ry="4.82"/><ellipse cx="384.43" cy="270.94" class="cls-3" rx="15.45" ry="26.19"/><ellipse cx="380.73" cy="264.02" class="cls-34" rx="3.59" ry="2.47"/><ellipse cx="386.22" cy="256.44" class="cls-34" rx="5.49" ry="4.82"/><path d="M406.5 318.44h34s-1.77 23.15-16.99 23.07c-15.52 0-17.02-23.07-17.02-23.07Z" style="fill:#5b5a72"/><path d="M447.13 210.45s14.21-6.01 30.9 14.11c0 0-10.67-19.86-19.14-21.16-7.9-1.22-11.76 7.05-11.76 7.05ZM399.88 210.45s-14.21-6.01-30.9 14.11c0 0 10.67-19.86 19.14-21.16 7.9-1.22 11.76 7.05 11.76 7.05Z" class="cls-3"/><path d="M434.49 125.41c10.88-4.59 18.51-15.35 18.51-27.9 0-17.36-14.62-31.31-32.21-30.21-14.99.94-27.22 13.09-28.25 28.07-.92 13.45 6.95 25.18 18.44 30.03v5.52c0 1.08.87 1.95 1.95 1.95h19.62c1.08 0 1.95-.88 1.95-1.96v-5.51Z" style="fill:#b0b0bf"/><rect width="23.72" height="3.87" x="410.98" y="135.16" class="cls-3" rx="1.66" ry="1.66"/><rect width="23.72" height="3.87" x="410.98" y="141.17" class="cls-3" rx="1.66" ry="1.66"/><rect width="23.72" height="3.87" x="410.98" y="147.04" class="cls-3" rx="1.66" ry="1.66"/><path d="M415.89 152.98h13.8c1.11 0 1.83 1.2 1.28 2.17-1.09 1.93-3.45 4.46-8.28 4.46s-7.11-2.56-8.11-4.5c-.5-.97.21-2.12 1.31-2.12Z" class="cls-3"/><path d="M427.98 132.88v-25.8s-1.15-8.21 5.26-8.21 5.91 8.21-3.78 8.21h-13.24c-9.69 0-10.18-8.21-3.78-8.21s5.26 8.21 5.26 8.21v25.8" style="stroke:#fff;stroke-miterlimit:10;stroke-width:2px;fill:none"/><path d="m458.73 128.14 11.8 11.74M454.05 62.37l12.06-12.11M388.28 67.04l-11.8-12.36M392.96 132.82 380.9 144.3M420.2 51.08l.18-17.18M470.01 94.28l16.87-.13M376.99 100.9l-16.86-.49" class="cls-24"/><path d="m264.72 117.7 9.6 10.02c.46.48.63 1.17.44 1.81-.19.64-.7 1.13-1.35 1.29l-13.47 3.3a1.86 1.86 0 0 1-2.23-2.33l3.88-13.32c.19-.64.7-1.13 1.35-1.29.65-.16 1.33.04 1.79.52Zm4.66 10.27-5.12-5.34-2.07 7.11 7.19-1.76Z" style="fill:url(#Dégradé_sans_nom_11-5)"/><path d="m223.65 71.7 11.23-5.59c.54-.27 1.18-.23 1.69.1.5.33.79.91.75 1.51l-.78 12.52c-.04.6-.39 1.14-.93 1.41s-1.18.23-1.69-.1l-10.45-6.93c-.5-.33-.79-.91-.75-1.51.04-.6.39-1.14.93-1.41Zm10.12-1.26-5.99 2.98 5.58 3.7.42-6.68Z" style="fill:url(#Dégradé_sans_nom_11-6)"/><path d="m134.67 95.33 7.28.34c.35.02.67.22.83.53.16.31.14.69-.05.98l-3.93 6.14c-.19.3-.52.47-.87.45s-.67-.22-.83-.53l-3.35-6.47a.981.981 0 0 1 .05-.98c.19-.3.52-.47.87-.45Zm5.49 2.22-3.88-.18 1.79 3.45 2.1-3.27Z" style="fill:url(#Dégradé_sans_nom_11-7)"/><path d="m324.44 103.35 21.15 15.37a3.525 3.525 0 0 1-.64 6.07l-23.89 10.63a3.521 3.521 0 0 1-4.93-3.59l2.74-26a3.518 3.518 0 0 1 5.57-2.48Zm12.08 17.48-11.28-8.2-1.46 13.87 12.75-5.67Z" style="fill:url(#Dégradé_sans_nom_11-8)"/><path d="M354.28 44.02c6.78 2.4 10.35 9.84 7.95 16.63-2.4 6.78-9.85 10.34-16.64 7.95s-10.34-9.85-7.94-16.63 9.84-10.34 16.62-7.94Zm1.31 14.28c1.1-3.12-.53-6.55-3.66-7.65s-6.55.53-7.65 3.66.53 6.55 3.66 7.65 6.55-.53 7.65-3.66Z" style="fill:url(#Dégradé_sans_nom_11-9)"/><path d="M212.67 104.65a5.738 5.738 0 0 1 3.5 7.31c-1.05 2.98-4.33 4.55-7.32 3.5s-4.55-4.33-3.49-7.32 4.33-4.55 7.31-3.49Zm.58 6.28c.49-1.37-.24-2.88-1.61-3.37s-2.88.24-3.37 1.61c-.49 1.37.24 2.88 1.61 3.37s2.88-.24 3.37-1.61Z" style="fill:url(#Dégradé_sans_nom_11-10)"/><path d="M306.54 68.16a7.486 7.486 0 0 1 5.11 9.27 7.496 7.496 0 0 1-9.28 5.11 7.496 7.496 0 0 1-5.11-9.28 7.486 7.486 0 0 1 9.27-5.11Zm1.23 8.15c.53-1.83-.52-3.74-2.35-4.27s-3.74.52-4.27 2.35.52 3.74 2.35 4.27 3.74-.52 4.27-2.35Z" style="fill:url(#Dégradé_sans_nom_11-11)"/><path d="m271.66 42.48 14.08-6.79c1.22-.59 2.7-.08 3.29 1.15l6.79 14.08c.59 1.22.08 2.7-1.15 3.29L280.59 61c-1.22.59-2.7.08-3.29-1.15l-6.79-14.08c-.59-1.22-.08-2.7 1.15-3.29Zm14-1.28-9.64 4.65 4.65 9.64 9.64-4.65-4.65-9.64Z" style="fill:url(#Dégradé_sans_nom_11-12)"/><path d="m266.48 85.73 11.03 6.96c.96.61 1.25 1.87.64 2.83l-6.96 11.03c-.61.96-1.87 1.25-2.83.64l-11.03-6.96a2.046 2.046 0 0 1-.64-2.83l6.96-11.03c.61-.96 1.87-1.25 2.83-.64Zm7.1 9.34-7.55-4.77-4.77 7.55 7.55 4.77 4.77-7.55Z" style="fill:url(#Dégradé_sans_nom_11-13)"/><path d="m163.92 85.52 5.37-5.26c.47-.46 1.22-.45 1.67.02l5.26 5.37c.46.47.45 1.22-.02 1.67l-5.37 5.26c-.47.46-1.22.45-1.67-.02l-5.26-5.37c-.46-.47-.45-1.22.02-1.67Zm6.18-2.74-3.67 3.6 3.6 3.67 3.67-3.6-3.6-3.67Z" style="fill:url(#Dégradé_sans_nom_11-14)"/><path d="M529.23 49.12c.74.7 1.06 1.74.82 2.73l-4.86 20.65c-.23.99-.98 1.79-1.96 2.08-.98.29-2.04.04-2.78-.65L505 59.4c-.74-.7-1.06-1.74-.82-2.73.23-.99.98-1.79 1.96-2.08l20.31-6.11c.98-.29 2.04-.04 2.78.65Zm-8.46 17.26 2.59-11.01-10.84 3.26 8.24 7.75Z" style="fill:url(#Dégradé_sans_nom_11-15)"/><path d="M631.26 109.87c.02.4-.17.78-.5 1l-6.92 4.59a1.122 1.122 0 0 1-1.74-.86l-.52-8.29a1.122 1.122 0 0 1 1.62-1.07l7.44 3.7c.36.18.59.53.62.93Zm-7.04 2.66 3.69-2.45-3.97-1.97.28 4.42Z" style="fill:url(#Dégradé_sans_nom_11-16)"/><path d="M719.88 85.25c.19.3.21.67.05.98l-3.35 6.47a.982.982 0 0 1-1.7.08l-3.93-6.14a.983.983 0 0 1-.05-.98c.16-.31.48-.51.83-.53l7.28-.34c.35-.02.68.16.87.45Zm-4.27 5.04 1.79-3.45-3.88.18 2.1 3.27Z" style="fill:url(#Dégradé_sans_nom_11-17)"/><path d="M593.62 71.13a2.11 2.11 0 0 1 1.88-.95l15.63.86c.75.04 1.42.48 1.77 1.15s.3 1.47-.12 2.1l-8.56 13.11c-.41.63-1.13.99-1.88.95a2.13 2.13 0 0 1-1.77-1.15l-7.07-13.97c-.34-.67-.3-1.47.12-2.1Zm13.63 3.92-8.34-.46 3.77 7.45 4.57-6.99Z" style="fill:url(#Dégradé_sans_nom_11-18)"/><path d="M649.37 84.82a5.738 5.738 0 0 1-3.5-7.31c1.05-2.98 4.33-4.55 7.32-3.5s4.55 4.33 3.49 7.32-4.33 4.55-7.31 3.49Zm-.58-6.28c-.49 1.37.24 2.88 1.61 3.37s2.88-.24 3.37-1.61c.49-1.37-.24-2.88-1.61-3.37s-2.88.24-3.37 1.61Z" style="fill:url(#Dégradé_sans_nom_11-19)"/><path d="M561.66 33.93c1.61 3.81-.18 8.2-3.99 9.81-3.81 1.61-8.21-.18-9.81-3.99s.18-8.2 3.99-9.81c3.81-1.61 8.2.18 9.8 3.99Zm-5.56 6.08a3.447 3.447 0 0 0 1.84-4.51c-.74-1.75-2.76-2.58-4.51-1.84s-2.58 2.76-1.84 4.51 2.76 2.58 4.51 1.84Z" style="fill:url(#Dégradé_sans_nom_11-20)"/><path d="M586.05 127.64a6.004 6.004 0 0 1-11.88 1.74c-.48-3.28 1.79-6.32 5.07-6.8s6.32 1.79 6.8 5.07Zm-5.54 3.6a2.756 2.756 0 0 0 2.33-3.13c-.22-1.51-1.62-2.55-3.13-2.33s-2.55 1.62-2.33 3.13a2.756 2.756 0 0 0 3.13 2.33Z" style="fill:url(#Dégradé_sans_nom_11-21)"/><path d="M533.23 114.04c1.01 6.9-3.77 13.32-10.67 14.33-6.9 1.01-13.32-3.78-14.33-10.68-1.01-6.9 3.78-13.32 10.68-14.33 6.9-1.01 13.31 3.77 14.32 10.67Zm-11.66 7.58c3.18-.46 5.38-3.42 4.91-6.59s-3.42-5.38-6.59-4.91a5.804 5.804 0 0 0-4.91 6.59 5.804 5.804 0 0 0 6.59 4.91Z" style="fill:url(#Dégradé_sans_nom_11-22)"/><path d="m562.88 86.29-6.03 5.65c-.52.49-1.35.47-1.84-.06l-5.65-6.03c-.49-.52-.47-1.35.06-1.84l6.03-5.65c.52-.49 1.35-.47 1.84.06l5.65 6.03c.49.52.47 1.35-.06 1.84Zm-10.74-1.27 3.87 4.13 4.13-3.87-3.87-4.13-4.13 3.87Z" style="fill:url(#Dégradé_sans_nom_11-23)"/><path d="m677.92 103.33-5.37 5.26c-.47.46-1.22.45-1.67-.02l-5.26-5.37c-.46-.47-.45-1.22.02-1.67l5.37-5.26c.47-.46 1.22-.45 1.67.02l5.26 5.37c.46.47.45 1.22-.02 1.67Zm-6.18 2.74 3.67-3.6-3.6-3.67-3.67 3.6 3.6 3.67Z" style="fill:url(#Dégradé_sans_nom_11-24)"/><path d="m595.67 57.6-8.21-3.25a1.39 1.39 0 0 1-.78-1.8l3.25-8.21a1.39 1.39 0 0 1 1.8-.78l8.21 3.25c.71.28 1.06 1.09.78 1.8l-3.25 8.21a1.39 1.39 0 0 1-1.8.78Zm-5.89-5.32 5.62 2.22 2.22-5.62-5.62-2.22-2.22 5.62Z" style="fill:url(#Dégradé_sans_nom_11-25)"/></svg>