<svg xmlns="http://www.w3.org/2000/svg" xmlns:xlink="http://www.w3.org/1999/xlink" id="Calque_1" data-name="Calque 1" viewBox="0 0 841.89 595.28"><defs><linearGradient id="Dégradé_sans_nom_11" x1="152.03" x2="316.78" y1="266.77" y2="431.52" data-name="Dégradé sans nom 11" gradientUnits="userSpaceOnUse"><stop offset=".1" stop-color="#5b5a72"/><stop offset=".5" stop-color="#b0b0bf"/><stop offset=".96" stop-color="#f4f4f6"/></linearGradient><linearGradient xlink:href="#Dégradé_sans_nom_11" id="Dégradé_sans_nom_11-2" x1="149.49" x2="307.47" y1="112.33" y2="270.31" data-name="Dégradé sans nom 11"/><linearGradient id="Dégradé_sans_nom_26" x1="177.65" x2="270.01" y1="-20.44" y2="71.92" data-name="Dégradé sans nom 26" gradientUnits="userSpaceOnUse"><stop offset="0" stop-color="#b0b0bf"/><stop offset="1" stop-color="#f4f4f6"/></linearGradient><linearGradient xlink:href="#Dégradé_sans_nom_26" id="Dégradé_sans_nom_26-2" x1="129.57" x2="221.93" y1="27.64" y2="120" data-name="Dégradé sans nom 26"/><linearGradient xlink:href="#Dégradé_sans_nom_26" id="Dégradé_sans_nom_26-3" x1="157.68" x2="242.11" y1="51.47" y2="135.9" data-name="Dégradé sans nom 26"/><linearGradient xlink:href="#Dégradé_sans_nom_26" id="Dégradé_sans_nom_26-4" x1="140.32" x2="232.69" y1="16.88" y2="109.24" data-name="Dégradé sans nom 26"/><linearGradient xlink:href="#Dégradé_sans_nom_11" id="Dégradé_sans_nom_11-3" x1="448.22" x2="595.1" y1="127.43" y2="274.31" data-name="Dégradé sans nom 11"/><linearGradient xlink:href="#Dégradé_sans_nom_11" id="Dégradé_sans_nom_11-4" x1="482.18" x2="629.06" y1="93.47" y2="240.35" data-name="Dégradé sans nom 11"/><linearGradient xlink:href="#Dégradé_sans_nom_11" id="Dégradé_sans_nom_11-5" x1="633.64" x2="705.83" y1="257.87" y2="330.06" data-name="Dégradé sans nom 11"/><linearGradient xlink:href="#Dégradé_sans_nom_11" id="Dégradé_sans_nom_11-6" x1="653.13" x2="766.89" y1="62.56" y2="176.32" data-name="Dégradé sans nom 11"/><linearGradient xlink:href="#Dégradé_sans_nom_11" id="Dégradé_sans_nom_11-7" x1="627.02" x2="740.77" y1="88.68" y2="202.43" data-name="Dégradé sans nom 11"/><linearGradient xlink:href="#Dégradé_sans_nom_11" id="Dégradé_sans_nom_11-8" x1="470.2" x2="640.79" y1="340.37" y2="510.96" data-name="Dégradé sans nom 11"/><linearGradient xlink:href="#Dégradé_sans_nom_11" id="Dégradé_sans_nom_11-9" x1="5825.72" x2="5837.71" y1="1217.72" y2="1229.71" data-name="Dégradé sans nom 11" gradientTransform="rotate(119.83 3532.509 -788.72)"/><linearGradient xlink:href="#Dégradé_sans_nom_11" id="Dégradé_sans_nom_11-10" x1="5808.17" x2="5824.34" y1="1077.21" y2="1093.37" data-name="Dégradé sans nom 11" gradientTransform="rotate(168.74 3334.077 423.494)"/><linearGradient xlink:href="#Dégradé_sans_nom_11" id="Dégradé_sans_nom_11-11" x1="5991.33" x2="6003.31" y1="1026.64" y2="1038.63" data-name="Dégradé sans nom 11" gradientTransform="rotate(103.49 3601.27 -1336.82)"/><linearGradient xlink:href="#Dégradé_sans_nom_11" id="Dégradé_sans_nom_11-12" x1="6103.27" x2="6121.03" y1="1114.86" y2="1132.62" data-name="Dégradé sans nom 11" gradientTransform="rotate(27.73 4581.78 -10492.152)"/><linearGradient xlink:href="#Dégradé_sans_nom_11" id="Dégradé_sans_nom_11-13" x1="6018.85" x2="6033.57" y1="1361.18" y2="1375.9" data-name="Dégradé sans nom 11" gradientTransform="rotate(152.37 3360.25 149.086)"/><linearGradient xlink:href="#Dégradé_sans_nom_11" id="Dégradé_sans_nom_11-14" x1="5809.55" x2="5819.73" y1="1523.1" y2="1533.27" data-name="Dégradé sans nom 11" gradientTransform="rotate(-157.56 3037.943 1330.762)"/><linearGradient xlink:href="#Dégradé_sans_nom_11" id="Dégradé_sans_nom_11-15" x1="770.57" x2="779.81" y1="141.1" y2="150.33" data-name="Dégradé sans nom 11"/><linearGradient xlink:href="#Dégradé_sans_nom_11" id="Dégradé_sans_nom_11-16" x1="717.19" x2="737.93" y1="373.46" y2="394.2" data-name="Dégradé sans nom 11" gradientTransform="rotate(-16.34 721.05 401.134)"/><linearGradient xlink:href="#Dégradé_sans_nom_11" id="Dégradé_sans_nom_11-17" x1="382.15" x2="398.23" y1="122.98" y2="139.05" data-name="Dégradé sans nom 11"/><linearGradient xlink:href="#Dégradé_sans_nom_11" id="Dégradé_sans_nom_11-18" x1="469.83" x2="483.46" y1="497.06" y2="510.69" data-name="Dégradé sans nom 11"/><linearGradient xlink:href="#Dégradé_sans_nom_11" id="Dégradé_sans_nom_11-19" x1="297.78" x2="308.97" y1="202.41" y2="213.6" data-name="Dégradé sans nom 11" gradientTransform="rotate(121.47 394.368 344.996)"/><linearGradient xlink:href="#Dégradé_sans_nom_11" id="Dégradé_sans_nom_11-20" x1="2.01" x2="17.53" y1="158.92" y2="174.45" data-name="Dégradé sans nom 11" gradientTransform="rotate(60.27 427.265 773.587)"/><linearGradient xlink:href="#Dégradé_sans_nom_11" id="Dégradé_sans_nom_11-21" x1="491.42" x2="517.39" y1="290.18" y2="316.15" data-name="Dégradé sans nom 11" gradientTransform="rotate(121.47 394.368 344.996)"/><linearGradient xlink:href="#Dégradé_sans_nom_11" id="Dégradé_sans_nom_11-22" x1="388.36" x2="403.91" y1="-36.74" y2="-21.18" data-name="Dégradé sans nom 11" gradientTransform="rotate(121.47 394.368 344.996)"/><linearGradient xlink:href="#Dégradé_sans_nom_11" id="Dégradé_sans_nom_11-23" x1="103.21" x2="121.1" y1="414.1" y2="431.98" data-name="Dégradé sans nom 11" gradientTransform="rotate(44.2 748.758 710.828)"/><linearGradient xlink:href="#Dégradé_sans_nom_11" id="Dégradé_sans_nom_11-24" x1="220.02" x2="417.13" y1="-6.51" y2="190.59" data-name="Dégradé sans nom 11"/><linearGradient xlink:href="#Dégradé_sans_nom_11" id="Dégradé_sans_nom_11-25" x1="127.17" x2="325.89" y1="109.92" y2="308.65" data-name="Dégradé sans nom 11"/><linearGradient id="Dégradé_sans_nom_46" x1="109.4" x2="160.82" y1="337.83" y2="389.26" data-name="Dégradé sans nom 46" gradientUnits="userSpaceOnUse"><stop offset="0" stop-color="#5b5a72"/><stop offset="1" stop-color="#b0b0bf"/></linearGradient><linearGradient xlink:href="#Dégradé_sans_nom_46" id="Dégradé_sans_nom_46-2" x1="148.21" x2="179.48" y1="349.89" y2="381.16" data-name="Dégradé sans nom 46"/><linearGradient id="Dégradé_sans_nom_10" x1="2577.08" x2="2668.59" y1="1881.38" y2="1881.38" data-name="Dégradé sans nom 10" gradientTransform="rotate(76.51 2432.078 -380.49)" gradientUnits="userSpaceOnUse"><stop offset="0" stop-color="#b0b0bf"/><stop offset="1" stop-color="#f4f4f6"/></linearGradient><linearGradient xlink:href="#Dégradé_sans_nom_10" id="Dégradé_sans_nom_10-2" x1="364.97" x2="310.25" y1="325.83" y2="380.54" data-name="Dégradé sans nom 10"/><radialGradient id="Dégradé_sans_nom_17" cx="231.18" cy="544.05" r="128.87" data-name="Dégradé sans nom 17" fx="231.18" fy="544.05" gradientTransform="matrix(1 .00035 -.00004 .11 .02 482.12)" gradientUnits="userSpaceOnUse"><stop offset=".4" stop-color="#353544" stop-opacity=".5"/><stop offset="1" stop-color="#353544" stop-opacity="0"/></radialGradient><style>.cls-2{fill:#fff}.cls-3{fill:#5b5a72}.cls-4{fill:#353544}.cls-2{opacity:.5}</style></defs><path d="m325.94 293.83-84.26 25.55-6.08 73.54c-.46 5.4-8.37 5.4-8.82 0l-6.08-73.54-84.19-25.55c-8.14-2.43-15.21 6.08-11.33 13.61l16.34 31.3 29.48 23.9c2.23-.56 4.85-1.03 7.44-1.03 8.03 0 11.14 4.43 12.28 7.08 2.05 4.76.87 11.08-3.24 17.32-3.22 4.89-8.66 10.11-14.3 10.11-.62 0-1.23-.07-1.81-.2l47.13 90.31c5.32 10.27 20.08 10.27 25.4 0l47.13-90.31c-.59.12-1.19.2-1.81.2-5.64 0-11.08-5.22-14.3-10.11-4.11-6.24-5.29-12.55-3.24-17.32 1.14-2.64 4.25-7.08 12.28-7.08 2.6 0 5.21.46 7.44 1.03l29.48-23.9 16.34-31.3c3.95-7.53-3.12-16.05-11.26-13.61Z" style="fill:url(#Dégradé_sans_nom_11)"/><path d="M327.3 143.48c-1.2-2.37-2.5-4.69-3.86-6.96-8.87 4.24-26.19 9.01-59.97 10.89-2.26.38-4.58.72-6.96 1.02 14.87 8.7 24.85 24.83 24.85 43.34 0 27.68-22.44 50.12-50.19 50.12s-50.19-22.44-50.19-50.12c0-18.97 10.52-35.44 26.01-43.98-39.17-1.53-58.53-6.72-68.07-11.28-1.37 2.27-2.68 4.59-3.88 6.97-7.3 14.53-11.41 30.95-11.41 48.29 0 59.32 48.14 107.46 107.54 107.46s107.54-48.14 107.54-107.46c0-17.34-4.11-33.77-11.41-48.29Z" style="fill:url(#Dégradé_sans_nom_11-2)"/><ellipse cx="231.18" cy="544.05" rx="130.92" ry="15.9" style="fill:url(#Dégradé_sans_nom_17)"/><path d="M260.76 40.28c-.04.09-.09.18-.14.26-16.65 27.61-8.76 45.65-2.57 53.94 6.4 8.58 20.81 10.38 31.77 10.38s22.7-1.9 28.53-3.08c-3.83-11.69-18.63-48.26-57.36-61.99-.07.16-.15.32-.23.49Z" style="fill:url(#Dégradé_sans_nom_26)"/><path d="M172.57 104.86c10.96 0 25.37-1.8 31.77-10.38 6.19-8.29 14.09-26.32-2.57-53.94-.05-.09-.1-.17-.14-.26-.08-.17-.16-.33-.23-.49-38.73 13.73-53.53 50.3-57.36 61.99 5.85 1.18 17.05 3.08 28.53 3.08Z" style="fill:url(#Dégradé_sans_nom_26-2)"/><path d="M137.9 118.78s90.57 23.41 186.58 0c0 0 4.5.6 5.29 6.55s-19.04 19.12-98.58 19.12c-79.54 0-99.37-13.17-98.58-19.12.79-5.95 5.29-6.55 5.29-6.55Z" style="fill:url(#Dégradé_sans_nom_26-3)"/><path d="M138.85 115.1c.4.1 40.49 10.28 94.59 10.28 31.8 0 62.12-3.46 90.14-10.3.29-.07.59-.11.89-.11a131.3 131.3 0 0 0-.28-6.32c-.22-4.17-4.76-3.22-4.76-3.22-13.07 2.67-51.43 8.74-64.43-8.68-14.06-18.84-7.7-41.5 2.36-58.17 2.84-5.68-2.44-6.39-2.44-6.39-7.15-1.63-15.04-2.52-23.73-2.52s-16.58.89-23.73 2.52c0 0-5.28.71-2.44 6.39 10.05 16.67 16.42 39.33 2.36 58.17-13 17.42-51.36 11.35-64.43 8.68 0 0-4.54-.95-4.76 3.22a131.3 131.3 0 0 0-.28 6.32c.32 0 .63.04.94.12Z" style="fill:url(#Dégradé_sans_nom_26-4)"/><path d="M261.14 123.69s18.03-7.62 39.19 17.89c0 0-13.54-25.18-24.28-26.84-10.02-1.55-14.91 8.95-14.91 8.95ZM201.21 123.69s-18.03-7.62-39.19 17.89c0 0 13.54-25.18 24.28-26.84 10.02-1.55 14.91 8.95 14.91 8.95ZM290.99 220.19c5.33-5.18 8.86-14.81 8.86-28.59 0-21.7-8.74-33.08-19.51-33.08s-19.51 11.38-19.51 33.08c0 13.56 3.41 23.1 8.6 28.34 0 0 11-4.41 21.56.25Z" class="cls-4"/><ellipse cx="275.68" cy="182.86" class="cls-2" rx="4.54" ry="3.12"/><ellipse cx="282.61" cy="173.29" class="cls-2" rx="6.93" ry="6.09"/><path d="M192.19 220.19c5.33-5.18 8.86-14.81 8.86-28.59 0-21.7-8.74-33.08-19.51-33.08s-19.51 11.38-19.51 33.08c0 13.56 3.41 23.1 8.6 28.34 0 0 11-4.41 21.56.25Z" class="cls-4"/><ellipse cx="176.87" cy="182.86" class="cls-2" rx="4.54" ry="3.12"/><ellipse cx="183.81" cy="173.29" class="cls-2" rx="6.93" ry="6.09"/><path d="M245.7 252.69s0 16.47-14.74 16.47c-14.79 0-14.79-16.47-14.79-16.47" style="fill:none;stroke:#5b5a72;stroke-linecap:round;stroke-linejoin:round;stroke-width:4px"/><path d="m611.02 182.69-8.28-23.98c0-.02-.03-.04-.04-.06 0-.02 0-.05-.02-.07l-21.48-41.45s-.05-.06-.08-.09a1.01 1.01 0 0 0-.13-.16c-.05-.05-.1-.08-.16-.12-.03-.02-.06-.05-.09-.07l-.65-.31s-.1-.02-.14-.04c-.05-.01-.09-.04-.14-.05l-95.21-15.03h-.2c-.08 0-.16.01-.23.03h-.05l-11.97 4.16-12.04 4.19c-.38.13-.65.48-.67.89-.02.4.2.78.56.96l20.65 9.99c-.56.33-1.03.82-1.33 1.45l-15.3 31.61c-.37.25-.55.71-.4 1.15l3.01 8.67-.5 1.03c-.88.12-2.44.57-3.59 2.12-1.69 2.27-2.04 5.86 1.21 8.36.91.7 1.96 1.06 3.03 1.06.62 0 1.25-.12 1.86-.37 1.61-.64 2.88-2.08 3.1-3.49.07-.43-.16-.85-.55-1.05a1.01 1.01 0 0 0-1.17.21c-.06.07-1.58 1.62-2.93.76-.7-.44-1.04-1.46-.77-2.31.26-.85 1.07-1.33 2.29-1.26.39.02.76-.21.93-.56l1.21-2.51 8.87-3.08a.9.9 0 0 0 .34-.2c.1-.09.18-.19.23-.31l15.45-31.92c.3-.63.4-1.3.31-1.95l52.17 25.25-9.85 8.22c-.21.18-.34.44-.36.72l-.67 14.03-5.2 10.74-.1.21-9.99 20.64-10.1 20.86-10.09 20.86L494.7 265l-14.63-7.08c-.24-.12-.51-.13-.76-.04s-.46.27-.57.51l-4.1 8.47-13.67-6.62a.958.958 0 0 0-.76-.04c-.25.09-.46.27-.57.51l-6.68 13.79c-.24.5-.03 1.09.46 1.34l39.82 19.27 39.82 19.27a1.005 1.005 0 0 0 1.34-.46l6.68-13.79c.12-.24.13-.51.04-.76a.989.989 0 0 0-.51-.57l-13.67-6.62 4.1-8.47c.24-.5.03-1.09-.46-1.34l-13.5-6.53 6.91-14.28.29-.61 9.8-20.25.29-.6 9.8-20.25.29-.6 9.8-20.25.19-.39 4.81-9.94 4.87 2.36a1.005 1.005 0 0 0 1.34-.46l10.98-22.69 4.34 2.1c-.08.08-.16.17-.22.28l-2.06 4.25c-.11.23-.12.49-.05.73-.23.09-.43.26-.54.49l-2.06 4.25c-.11.24-.12.49-.05.72-.23.09-.43.26-.54.49l-2.06 4.25c-.24.5-.03 1.09.46 1.34l20.82 10.08a1.005 1.005 0 0 0 1.34-.46l2.06-4.25c.11-.23.12-.49.05-.73.23-.09.42-.25.54-.49l2.06-4.25c.11-.23.12-.49.05-.73.23-.09.43-.26.54-.49l2.06-4.25c.05-.11.08-.23.09-.34l6.36 3.08a1.004 1.004 0 0 0 1.1-.15c.3-.27.41-.69.28-1.07Zm-78.22 8.22 4.26 12.26-12.26 4.26 7.99-16.52Zm4.92 14.14 4.73 13.59-13.59 4.73-4.73-13.59 13.59-4.73Zm-15.02 6.72 4.26 12.26-12.26 4.26 7.99-16.52Zm4.92 14.14 4.73 13.59-13.59 4.73-4.73-13.59 13.59-4.73Zm-15.02 6.72 4.26 12.26-12.26 4.26 7.99-16.52Zm4.92 14.14 4.73 13.59-13.59 4.73-4.73-13.59 13.59-4.73Zm5.99 11.15-4.11-11.8 11.8-4.1-7.7 15.91Zm10.1-20.86-4.1-11.81 11.8-4.1-7.7 15.91Zm10.1-20.86-4.1-11.8 11.8-4.1-7.7 15.91Zm-4.76-13.69-4.67-13.43 13.43-4.67 4.67 13.43-13.43 4.67Zm-4.15-15.73 3.91-8.07 8.07 3.91-11.98 4.17Zm-32.29 66.72 4.26 12.26-6.16 2.14-4.11-1.99 6.01-12.41Zm4.92 14.14 1.49 4.27-5.76-2.79 4.27-1.49Zm17.26 24.58c-.12.24-.13.51-.04.76s.27.46.51.57l13.67 6.62-5.8 11.99-38.92-18.83-38.92-18.83 5.8-11.99 13.67 6.62c.24.12.51.13.76.04s.46-.27.57-.51l4.1-8.47 35.19 17.03 13.5 6.53-4.1 8.47Zm-13.23-19.08-2.14-6.16 11.8-4.1-5.86 12.11-3.8-1.84Zm42.24-77.59-4.01-11.53 7.77 3.76-3.76 7.77Zm10.4-6.78-4.57-2.21c-.05-.03-.11-.03-.16-.04-.05-.03-.09-.08-.14-.11l-9.41-4.55-10.55-5.1.63-13.13 10.21-8.52 24.54 11.88-10.55 21.79Zm30.38 5.81-19.02-9.2 1.19-2.45 19.02 9.21-1.19 2.45Zm2.65-5.46-19.02-9.2 1.19-2.45 19.02 9.21-1.19 2.45Zm2.65-5.46-19.02-9.21 1.19-2.45 19.02 9.2-1.19 2.45Zm-120.59-65.1 8.81-3.06 3.06 8.81-11.88-5.75Zm101.16 1.27 19.18 37-1.69-.82h-.01l-12.67-6.13 2.83-5.84c.12-.24.13-.51.04-.76a.989.989 0 0 0-.51-.57l-14.78-7.15 7.61-15.72Zm-12.33 32.82-10.08 3.51-3.51-10.08 10.08-3.51 3.51 10.08Zm-1.15-9.4 11.79 5.71-8.75 3.04-3.04-8.75Zm1.81 11.29 3.06 8.81-11.88-5.75 8.81-3.06Zm1.89-.66 10.08-3.51 3.51 10.08-10.08 3.51-3.51-10.08Zm12.44-2.83 11.79 5.71-8.75 3.04-3.04-8.75Zm2.75-6.99-2.39 4.94-1.66-.8-16.13-7.81-5.65-2.73 2.39-4.94 23.44 11.35Zm-23.23-2.92-8.75 3.04-3.04-8.75 11.79 5.71Zm-10.64 3.7-10.08 3.51-3.51-10.08 10.08-3.51 3.51 10.08Zm-14.25-8.47-3.04-8.75 11.79 5.71-8.75 3.04Zm-1.89.66-10.08 3.51-3.51-10.08 10.08-3.51 3.51 10.08Zm-14.25-8.47-3.04-8.75 11.79 5.71-8.75 3.04Zm-1.89.66-10.08 3.51-3.51-10.08 10.08-3.51 3.51 10.08Zm-14.25-8.47-3.04-8.75 11.79 5.71-8.75 3.04Zm-1.89.66-10.08 3.51-3.51-10.08 10.08-3.51 3.51 10.08Zm-14.25-8.47-3.04-8.75 11.79 5.71-8.75 3.04Zm-5.4-9.43 3.51 10.08-10.08 3.51-3.51-10.08 10.08-3.51Zm20.3 19.78 3.06 8.81-11.88-5.75 8.81-3.06Zm16.13 7.81 3.06 8.81-11.87-5.75 8.81-3.06Zm16.14 7.81 3.06 8.81-11.88-5.75 8.81-3.06Zm16.13 7.81 3.06 8.81-11.88-5.75 8.81-3.06Zm23.46 18.68 8.81-3.06 3.06 8.81-11.88-5.75Zm16.13 7.81 8.81-3.06 3.06 8.81-11.88-5.75Zm-1.93-1.45-3.51-10.08 10.08-3.51 3.51 10.08-10.08 3.51Zm8.93-12.91 1.86.9 2.55 7.38-1.36.47-3.04-8.75Zm-20.96-40.8-7.89 16.3-8.01-3.88c-.5-.24-1.09-.03-1.34.46l-2.83 5.84-8.68-4.2-16.13-7.81h-.01l-16.13-7.8-16.13-7.81-10.06-4.87 87.22 13.77Zm-106.31-10.37 3.06 8.81-11.88-5.75 8.81-3.06Zm11.05 18.14c-.37.13-.76.1-1.11-.07a1.465 1.465 0 0 1-.68-1.95c.25-.52.77-.82 1.31-.82.21 0 .43.05.63.15.35.17.61.46.74.83.13.37.1.76-.06 1.11-.17.35-.47.61-.83.74Zm-3.15.8c.31.38.7.71 1.17.94.46.22.96.33 1.45.34l-13.65 28.21-2.62-1.27 13.65-28.21Zm14.1 3.35c-.35.72-1.22 1.03-1.95.68a1.465 1.465 0 0 1-.68-1.95c.25-.52.77-.82 1.31-.82.21 0 .43.05.63.15.72.35 1.03 1.22.68 1.95Zm-3.99 1.54c.31.38.7.71 1.17.94.47.23.96.33 1.45.34L478.82 161l-2.62-1.27 13.65-28.21Zm-13.17 30.67-7.77 2.7-.27-.78-2.43-6.98 10.47 5.07Zm-12.28 7.93c-.52 1.69.17 3.66 1.61 4.58.14.09.28.17.42.23-.46-.06-.96-.24-1.48-.63-2.34-1.8-1.9-4.13-.82-5.58 1.03-1.38 2.54-1.36 2.59-1.36.38.02.7-.17.89-.48.15.14.34.23.54.27l-.15.31c-1.8.14-3.12 1.11-3.6 2.66Zm25.01-42.28-15.01 31.02-3.89-1.88 15.02-31.03c.3-.61.4-1.28.32-1.94l4.91 2.37c-.56.33-1.03.82-1.33 1.45Zm117.12 52.36-3.72-10.7 1.36-.47 4.16 12.04-1.8-.87Z" style="fill:url(#Dégradé_sans_nom_11-3)"/><path d="M541.31 163.9c-.24.23-.35.55-.3.88a1 1 0 0 0 .55.75l16.05 7.77a1.005 1.005 0 0 0 1.34-.46l4.7-9.72c.24-.5.03-1.09-.46-1.34l-12.32-5.96c-.37-.18-.82-.11-1.12.17l-8.43 7.91Zm9.3-5.98 10.8 5.23-3.83 7.92-13.84-6.7 6.87-6.45Z" style="fill:url(#Dégradé_sans_nom_11-4)"/><path d="m727.79 291.48-17.17-10.34a8.033 8.033 0 0 0-7.88-.51l-3.85 1.87-33.39-31.69c-.34-.49-1.07-.95-2.65-.72-1.03.15-2.28.56-3.52 1.16-1.23.6-2.33 1.33-3.09 2.05-1.16 1.11-1.26 1.96-1.08 2.53l4.22 45.83-3.85 1.87c-2.52 1.22-4.24 3.72-4.47 6.47l-2.52 19.96c-.25 2.58.55 4.64 2.24 5.82.98.68 2.21 1.02 3.56 1.02 1.46 0 3.08-.4 4.71-1.19l66.68-32.34c3.14-1.52 5.1-3.91 5.25-6.4.12-2.06-1.01-3.97-3.21-5.38Zm-63.17-37.74c.2-.19.35-.37.49-.54l6.87 6.52c-.51.86-2.04 2.76-6.22 4.79-4.18 2.03-6.61 2.05-7.61 1.92l-.87-9.43c.22 0 .46-.02.73-.06 1.03-.15 2.28-.56 3.52-1.16 1.23-.6 2.33-1.33 3.09-2.05Zm-5.72 14.74c1.59 0 4.12-.42 7.74-2.18 4.08-1.98 5.97-3.92 6.83-5.18l8.07 7.66c-.64 1.21-2.89 4.44-9.9 7.84-7 3.4-10.93 3.17-12.28 2.92l-1.02-11.09c.17.01.36.02.56.02Zm2.01 13.19c2.34 0 6.15-.6 11.61-3.25 6.69-3.24 9.43-6.45 10.52-8.22l8.02 7.61c-.67 1.46-3.48 6.05-13.53 10.93-10.07 4.88-15.41 4.23-16.96 3.86l-1.01-11.01c.38.05.83.08 1.36.08Zm47.33 12.45c.3 1-.7 3.26-4.53 6.6-3.81 3.33-9.35 6.83-15.59 9.86-13.83 6.71-23.93 7.77-25.38 5.62l-.77-8.41c.76.15 1.8.28 3.16.28 3.82 0 10.07-1.01 19.15-5.41 12.29-5.96 16.48-11.71 17.85-14.34l6.12 5.81Zm-24.84 6.73c-12.97 6.29-19.78 5.31-21.63 4.84l-1.01-11.02c.59.1 1.36.18 2.32.18 3.08 0 8.09-.81 15.32-4.32 9.49-4.6 12.96-9.08 14.17-11.29l5.47 5.19 2.56 2.43c-.74 1.74-4.1 7.63-17.2 13.99Zm-23.19-47.82c1.46-.71 2.64-.98 3.3-1.02-.44.49-1.38 1.25-2.84 1.96s-2.64.98-3.3 1.02c.44-.49 1.38-1.25 2.84-1.96Zm64.67 48.42-66.68 32.34c-2.44 1.18-4.84 1.31-6.26.32-1.09-.76-1.57-2.14-1.4-3.96l2.52-19.97a6.036 6.036 0 0 1 3.36-4.88l3.17-1.54 1.18 12.82c.01.12.04.24.1.34.75 1.55 2.73 2.22 5.47 2.22 5.68 0 14.62-2.89 22.66-6.79 6.4-3.1 12.09-6.71 16.04-10.15 4.31-3.76 6.03-6.92 4.96-9.12a.864.864 0 0 0-.21-.29l-9.33-8.86 3.17-1.54c1.89-.92 4.15-.77 5.94.4l17.18 10.35c1.56 1.01 2.35 2.24 2.27 3.56-.1 1.72-1.69 3.53-4.13 4.72Z" style="fill:url(#Dégradé_sans_nom_11-5)"/><path d="m736.7 87.5-2.72-10.02c-.07-.26-.24-.47-.47-.61s-.5-.17-.76-.1c-6.53 1.77-12.19 1.25-16.8-1.53-7.88-4.76-10.16-14.65-10.18-14.75-.06-.27-.23-.5-.46-.64s-.52-.18-.78-.11l-36.31 9.84a1.007 1.007 0 0 0-.71 1.23l1.71 6.33-2.56.69-1.71-6.33a1.007 1.007 0 0 0-1.23-.71l-9.69 2.63c-.53.14-.85.69-.7 1.23l8.94 33.02c.07.26.24.47.47.61.15.09.32.13.5.13.09 0 .18-.01.26-.04l9.77-2.65c.53-.15.84-.7.7-1.23-.04-.14-.1-.26-.19-.37l-1.61-5.94 2.56-.69 1.71 6.33c.07.26.24.47.47.61.15.09.32.13.5.13.09 0 .18-.01.26-.04l14.05-3.81 24.35 89.87c.4 1.46 1.34 2.68 2.65 3.43.87.5 1.83.75 2.81.75.5 0 1-.07 1.49-.2l5.07-1.37a5.68 5.68 0 0 0 3.99-6.95l-24.35-89.87 28.23-7.65c.53-.14.85-.69.7-1.23Zm-72.74 18.67-8.42-31.09 7.76-2.1 1.71 6.33L670 97.74l1.71 6.32-7.76 2.1Zm7.72-9.92-4.47-16.5 2.56-.69 4.47 16.5-2.56.69Zm58.51 90.51c.53 1.95-.63 3.97-2.58 4.5l-5.07 1.37c-.95.25-1.93.13-2.78-.36a3.63 3.63 0 0 1-1.71-2.22l-24.35-89.87 10.44-2.83 1.71-.46 24.35 89.87Zm-34.42-89.21-3.57.97-14.05 3.81-1.71-6.33-4.99-18.43-1.71-6.32 34.38-9.31c.82 2.81 3.67 10.69 10.81 15.01 4.87 2.95 10.72 3.62 17.4 2.01l2.2 8.11-38.75 10.5Z" style="fill:url(#Dégradé_sans_nom_11-6)"/><path d="M723.3 189.32c.34 0 .68-.04 1.01-.14 1.1-.3 2.01-1.05 2.54-2.12.52-1.03.63-2.23.32-3.39-.66-2.43-3.01-3.91-5.25-3.31-1.1.3-2.01 1.05-2.54 2.11-.52 1.03-.63 2.23-.32 3.39.56 2.06 2.34 3.44 4.23 3.44Zm-2.13-5.94c.28-.55.73-.94 1.28-1.08.17-.04.33-.07.5-.07 1.01 0 1.98.79 2.3 1.97.18.68.12 1.38-.17 1.97-.28.55-.73.94-1.28 1.08-1.17.31-2.43-.54-2.79-1.9-.18-.68-.12-1.38.17-1.97Z" style="fill:url(#Dégradé_sans_nom_11-7)"/><path d="m665.58 419.35-3.91-1.31-25.02-8.36.71-2.11a4.13 4.13 0 0 0-2.61-5.22l-5.9-1.97a4.13 4.13 0 0 0-5.22 2.61l-.71 2.11-17.36-5.8-28.05-9.37-28.05-9.37-28.05-9.37-4.33-1.45.71-2.11c.72-2.16-.45-4.5-2.6-5.22l-5.9-1.97a4.105 4.105 0 0 0-3.15.22c-.99.49-1.72 1.34-2.07 2.38l-.71 2.11-10-3.34-12.61-4.21c-2.26-.75-4.67-.59-6.8.48a8.82 8.82 0 0 0-4.47 5.15l-4.21 12.61-5.16 15.46c-1.25 3.73.14 7.89 3.37 10.14.7.49 1.46.87 2.26 1.13l22.61 7.55-10.71 32.06-11.16-3.73a5.09 5.09 0 0 0-3.92.28 5.115 5.115 0 0 0-2.58 2.97l-1.34 4.02c-.08.25-.06.53.05.76.12.24.33.42.58.5l43.89 14.66c.11.04.21.05.32.05.42 0 .81-.26.95-.68l1.34-4.02c.43-1.3.34-2.69-.28-3.92s-1.67-2.14-2.97-2.58l-11.16-3.73 10.71-32.06 17.36 5.8 28.05 9.37 28.05 9.37 28.05 9.37 4.33 1.45-10.71 32.06-11.16-3.73c-2.69-.9-5.6.56-6.49 3.24l-1.34 4.02a1 1 0 0 0 .63 1.26l43.89 14.66c.1.04.21.05.32.05.15 0 .31-.04.45-.11.24-.12.42-.33.5-.58l1.34-4.02c.43-1.3.34-2.69-.28-3.92s-1.67-2.14-2.97-2.58l-11.16-3.73 10.71-32.06 10 3.34 18.93 6.32c.93.31 1.88.46 2.83.46 1.36 0 2.72-.32 3.97-.94a8.82 8.82 0 0 0 4.47-5.15l6.32-18.93 3.05-9.13c1.56-4.66-.97-9.72-5.63-11.27Zm-40.06-15.73a2.126 2.126 0 0 1 2.69-1.34l5.9 1.97a2.13 2.13 0 0 1 1.34 2.69l-.71 2.11-1.13-.38-8.79-2.94.71-2.11Zm-105.87 14.87-25.37-8.47 54.93-27.42 25.37 8.47-54.93 27.42Zm-13.7-54.8a2.12 2.12 0 0 1 2.69-1.34l5.9 1.97c.54.18.97.56 1.23 1.07s.29 1.08.11 1.62l-.71 2.11-9.93-3.31.71-2.11Zm-34.6.19a6.84 6.84 0 0 1 3.47-3.99c.97-.49 2.02-.73 3.08-.73.74 0 1.48.12 2.2.36l10.32 3.45-5.01 2.5-17.5 8.74 3.45-10.32Zm-9.37 28.07 5.03-15.06 26.09-13.03 25.37 8.47-54.34 27.13c-2.17-1.8-3.06-4.81-2.15-7.51Zm4.25 8.71 54.93-27.42 25.37 8.47-54.93 27.42-25.25-8.43s-.08-.03-.12-.04Zm22.9 46.45c-.08.25-.06.53.05.76.12.24.33.42.58.5l12.11 4.04c.79.27 1.44.82 1.81 1.57.37.75.43 1.6.17 2.39l-1.03 3.07-41.99-14.02 1.02-3.07c.27-.79.82-1.44 1.57-1.81s1.6-.43 2.39-.17l12.11 4.04c.52.18 1.09-.11 1.27-.63l11.03-33.01 1.13.38 8.79 2.94-11.03 33.01Zm88.14-55.14 25.37 8.47-54.93 27.42-25.37-8.47 54.93-27.42Zm28.05 9.37 25.37 8.47-54.93 27.42-25.37-8.47 54.93-27.42Zm28.05 9.37 25.37 8.47-54.93 27.42-25.37-8.47 54.93-27.42Zm-24.67 76.33c-.08.25-.06.53.05.76.12.24.33.42.58.5l12.11 4.04c.79.27 1.44.82 1.81 1.57.37.75.43 1.6.17 2.39l-1.02 3.07-41.99-14.02 1.02-3.07c.55-1.64 2.33-2.53 3.96-1.98l12.11 4.05a.987.987 0 0 0 1.26-.63l11.02-33.01 9.93 3.31-11.03 33.01Zm51.24-28.98a6.84 6.84 0 0 1-3.47 3.99c-1.65.82-3.53.96-5.28.37l-16.65-5.56 30.95-15.45-5.56 16.64Zm9.37-28.07-2.92 8.74-34.53 17.24-22.38-7.47-2.99-1 54.93-27.42 3.52 1.18c3.61 1.21 5.57 5.13 4.37 8.75Z" style="fill:url(#Dégradé_sans_nom_11-8)"/><path d="m636.16 208.89 6.82-11.9c.33-.57.94-.93 1.6-.93.66 0 1.27.35 1.6.92l6.9 11.86a1.857 1.857 0 0 1-1.6 2.78l-13.72.04a1.847 1.847 0 0 1-1.6-2.77Zm8.44-7.29-3.64 6.35 7.32-.02-3.68-6.33Z" style="fill:url(#Dégradé_sans_nom_11-9)"/><path d="m760.23 254.72 18.15-3.61c.87-.17 1.77.13 2.36.8.59.67.77 1.6.49 2.44l-5.95 17.52c-.29.84-1 1.47-1.87 1.64s-1.77-.13-2.36-.8l-12.2-13.91c-.59-.67-.77-1.6-.49-2.44.29-.84 1-1.47 1.87-1.64Zm14.89 2.12-9.68 1.93 6.51 7.42 3.17-9.35Z" style="fill:url(#Dégradé_sans_nom_11-10)"/><path d="m732.69 446.16 3.2-13.34c.15-.64.64-1.15 1.27-1.34a1.86 1.86 0 0 1 1.8.43l9.96 9.44c.48.45.68 1.13.53 1.77s-.64 1.15-1.27 1.34l-13.16 3.9a1.853 1.853 0 0 1-2.33-2.2Zm6.05-9.37-1.71 7.12 7.02-2.08-5.31-5.04Z" style="fill:url(#Dégradé_sans_nom_11-11)"/><path d="m537.71 511.85-18-9.46a2.74 2.74 0 0 1-.19-4.74l17.19-10.86c.83-.52 1.87-.56 2.74-.11a2.74 2.74 0 0 1 1.46 2.32l.81 20.32c.04.98-.45 1.9-1.27 2.42-.83.52-1.87.56-2.74.11Zm-11.25-12.1 9.6 5.05-.43-10.84-9.17 5.79Z" style="fill:url(#Dégradé_sans_nom_11-12)"/><path d="m422.89 304.46 14.93-7.81c.72-.38 1.58-.34 2.27.09.68.43 1.09 1.2 1.05 2.01l-.7 16.84c-.03.81-.5 1.54-1.21 1.92s-1.58.34-2.27-.09l-14.23-9.02c-.68-.43-1.09-1.2-1.05-2.01.03-.81.5-1.54 1.21-1.92Zm13.55-1.97-7.96 4.17 7.59 4.81.37-8.98Z" style="fill:url(#Dégradé_sans_nom_11-13)"/><path d="m543.16 82.36 10.77 4.45c.52.21.88.69.96 1.24.07.56-.15 1.11-.6 1.45l-9.24 7.1c-.44.34-1.04.42-1.56.21s-.88-.69-.96-1.24L541 84.02c-.07-.56.15-1.11.6-1.45a1.59 1.59 0 0 1 1.56-.21Zm7.06 6.31-5.75-2.37.82 6.16 4.93-3.79Z" style="fill:url(#Dégradé_sans_nom_11-14)"/><path d="M775.4 140.37c3.06 0 5.55 2.49 5.55 5.55s-2.49 5.55-5.55 5.55-5.55-2.49-5.55-5.55 2.49-5.55 5.55-5.55Zm2.56 5.55c0-1.41-1.14-2.56-2.56-2.56s-2.56 1.14-2.56 2.56 1.14 2.56 2.56 2.56 2.56-1.14 2.56-2.56Z" style="fill:url(#Dégradé_sans_nom_11-15)"/><path d="M719.5 371.08c6.6-1.94 13.54 1.85 15.47 8.45 1.94 6.6-1.85 13.54-8.46 15.47-6.6 1.94-13.53-1.86-15.47-8.46-1.94-6.6 1.85-13.53 8.45-15.46Zm9.01 10.34a5.738 5.738 0 0 0-11.01 3.23 5.738 5.738 0 0 0 11.01-3.23Z" style="fill:url(#Dégradé_sans_nom_11-16)"/><path d="M390.55 121.71c5.34 0 9.67 4.33 9.67 9.66s-4.33 9.67-9.67 9.67-9.66-4.33-9.66-9.67 4.33-9.66 9.66-9.66Zm4.45 9.66c0-2.46-1.99-4.45-4.45-4.45s-4.45 1.99-4.45 4.45 1.99 4.45 4.45 4.45 4.45-1.99 4.45-4.45Z" style="fill:url(#Dégradé_sans_nom_11-17)"/><path d="M476.96 495.99c4.52 0 8.2 3.67 8.2 8.19s-3.67 8.2-8.2 8.2-8.19-3.67-8.19-8.2 3.67-8.19 8.19-8.19Zm3.77 8.19c0-2.08-1.69-3.77-3.77-3.77s-3.77 1.69-3.77 3.77 1.69 3.77 3.77 3.77 3.77-1.69 3.77-3.77Z" style="fill:url(#Dégradé_sans_nom_11-18)"/><path d="m551.2 339.68 4.78-7.81c.42-.68 1.3-.89 1.98-.48l7.81 4.78c.68.42.89 1.3.48 1.98l-4.78 7.81c-.42.68-1.3.89-1.98.48l-7.81-4.78c-.68-.42-.89-1.3-.48-1.98Zm6.48-5.07-3.27 5.35 5.35 3.27 3.27-5.35-5.35-3.27Z" style="fill:url(#Dégradé_sans_nom_11-19)"/><path d="m743.13 119.71-6.3-11.03c-.55-.96-.21-2.18.75-2.73l11.03-6.3c.96-.55 2.18-.21 2.73.75l6.3 11.03c.55.96.21 2.18-.75 2.73l-11.03 6.3c-.96.55-2.18.21-2.73-.75Zm-1.83-11.27 4.31 7.55 7.55-4.31-4.31-7.55-7.55 4.31Z" style="fill:url(#Dégradé_sans_nom_11-20)"/><path d="m355.16 462.47 11.08-18.11a3.345 3.345 0 0 1 4.6-1.11l18.11 11.08c1.58.96 2.07 3.02 1.11 4.6l-11.08 18.11a3.345 3.345 0 0 1-4.6 1.11l-18.11-11.08a3.345 3.345 0 0 1-1.11-4.6Zm15.04-11.76-7.59 12.4 12.4 7.59 7.59-12.4-12.4-7.59Z" style="fill:url(#Dégradé_sans_nom_11-21)"/><path d="m701.95 542.79 6.64-10.85a2.01 2.01 0 0 1 2.76-.66l10.85 6.64c.94.58 1.24 1.81.66 2.76l-6.64 10.85a2.01 2.01 0 0 1-2.76.66l-10.85-6.64a2.01 2.01 0 0 1-.66-2.76Zm9.02-7.05-4.55 7.43 7.43 4.55 4.55-7.43-7.43-4.55Z" style="fill:url(#Dégradé_sans_nom_11-22)"/><path d="m491.56 72.7-10.49-10.2c-.91-.89-.93-2.35-.05-3.26l10.2-10.49c.89-.91 2.35-.93 3.26-.05l10.49 10.2c.91.89.93 2.35.05 3.26l-10.2 10.49c-.89.91-2.35.93-3.26.05Zm-5.62-11.89 7.18 6.98 6.98-7.18-7.18-6.98-6.98 7.18Z" style="fill:url(#Dégradé_sans_nom_11-23)"/><path d="M332.93 32.22c-8.14 0-14.83 6.39-14.83 23.65 0 13 3.8 24.18 9.2 28.9v30.97c2.27 1.03 5.48 3.45 6.24 9.08.2 1.48-.03 3.78-2.26 6.32-.8.91-2.05 2.04-3.98 3.27v9.07c7.3 14.53 11.41 30.95 11.41 48.29V84.69c5.32-4.72 9.05-15.82 9.05-28.82 0-17.26-6.62-23.65-14.83-23.65Z" style="fill:url(#Dégradé_sans_nom_11-24)"/><path d="M131.1 131.14c-2.22-2.54-2.45-4.84-2.26-6.32.75-5.61 3.93-8.03 6.2-9.07V84.77c5.4-4.72 9.2-15.89 9.2-28.9 0-17.26-6.62-23.65-14.83-23.65s-14.83 6.39-14.83 23.65c0 13 3.73 24.11 9.05 28.82v107.08c0-17.34 4.11-33.77 11.41-48.29v-9.1c-1.91-1.22-3.15-2.34-3.94-3.25Z" style="fill:url(#Dégradé_sans_nom_11-25)"/><path d="M159.19 373.1c.5-3.8 2.47-6.77 5.56-8.35l.14-.07.15-.06c.08-.04.25-.11.49-.2l-42.11-34.15c-3.46-3.16-11.1.98-13.36 7.23-3.73 10.38-5.67 24.83 5.55 36.09 8.94 9 30.01 11.08 47.43 14.65-2.68-4.6-4.47-10.36-3.85-15.14Z" style="fill:url(#Dégradé_sans_nom_46)"/><path d="M166.95 369.05s15.73-6.78 19.32 1.56-10.07 24.67-15.49 19.8c-5.41-4.87-10.23-18.09-3.83-21.37Z" style="fill:url(#Dégradé_sans_nom_46-2)"/><path d="M295.4 369.05s-15.73-6.78-19.32 1.56 10.07 24.67 15.49 19.8c5.41-4.87 10.23-18.09 3.83-21.37Z" style="fill:url(#Dégradé_sans_nom_10)"/><path d="M274.9 386.02c-4.11-6.24-5.29-12.55-3.24-17.32 1.14-2.64 4.25-7.08 12.28-7.08 3.09 0 6.21.65 8.67 1.35l10.61-27.74c1.64-4.28-2.3-7.9-8.87-7.9H168.02c-6.57 0-10.51 3.62-8.87 7.9l10.61 27.74c2.46-.7 5.58-1.35 8.67-1.35 8.03 0 11.14 4.43 12.28 7.08 2.05 4.76.87 11.08-3.24 17.32-1.61 2.45-3.78 4.98-6.26 6.9l4.53 11.84c.63 1.64 4.27 2.94 8.15 2.94h74.59c3.88 0 7.52-1.3 8.15-2.94l4.53-11.84c-2.47-1.92-4.64-4.45-6.26-6.9Z" style="fill:#fff"/><path d="M266.86 344.88h-71.37c-2.58 0-4.97-1.33-5.35-2.99l-3.33-14.74c-.45-1.98 1.52-3.62 4.41-3.62h79.89c2.89 0 4.86 1.64 4.41 3.62l-3.33 14.74c-.38 1.67-2.77 2.99-5.35 2.99Z" class="cls-3"/><path d="M303.84 329.94c-1.72-2.5-5.18-3.93-9.5-3.93H168.01c-4.32 0-7.79 1.43-9.5 3.93-1.17 1.7-1.39 3.75-.61 5.78l10.58 27.65c.77-.24 1.63-.49 2.57-.73l-10.66-27.88c-.47-1.22-.36-2.34.32-3.32 1.2-1.74 3.93-2.78 7.32-2.78h126.33c3.38 0 6.12 1.04 7.32 2.78.68.98.78 2.1.32 3.32l-10.66 27.88c.93.23 1.8.48 2.57.73l10.58-27.65c.78-2.03.56-4.08-.61-5.78ZM280.07 392.02l-4.69 12.26c-.27.71-2.96 2.09-6.91 2.09h-74.59c-3.95 0-6.64-1.38-6.91-2.09l-4.69-12.26c-.7.62-1.44 1.19-2.2 1.7l4.4 11.51c.95 2.49 5.45 3.8 9.39 3.8h74.59c3.95 0 8.44-1.3 9.39-3.8l4.4-11.51c-.76-.51-1.49-1.08-2.2-1.7Z" class="cls-3"/><path d="M352.3 337.5c-2.26-6.25-9.9-10.4-13.36-7.23l-42.11 34.15c.24.1.41.17.49.2.1.04.19.09.29.14 3.09 1.58 5.06 4.54 5.56 8.35.62 4.77-1.17 10.54-3.85 15.14 17.42-3.56 38.49-5.64 47.43-14.65 11.22-11.26 9.28-25.72 5.55-36.09Z" style="fill:url(#Dégradé_sans_nom_10-2)"/></svg>