<svg xmlns="http://www.w3.org/2000/svg" xmlns:xlink="http://www.w3.org/1999/xlink" id="Calque_1" data-name="Calque 1" viewBox="0 0 841.89 595.28"><defs><linearGradient id="Dégradé_secondaire1" x1="513.98" x2="446.34" y1="369.84" y2="302.2" data-name="Dégradé secondaire1" gradientUnits="userSpaceOnUse"><stop offset="0" stop-color="#5b5a72"/><stop offset="1" stop-color="#b0b0bf"/></linearGradient><linearGradient id="Dégradé_sans_nom_26" x1="578.4" x2="678.75" y1="326.47" y2="426.82" data-name="Dégradé sans nom 26" gradientUnits="userSpaceOnUse"><stop offset="0" stop-color="#b0b0bf"/><stop offset="1" stop-color="#f4f4f6"/></linearGradient><linearGradient id="Dégradé_sans_nom_11" x1="471.94" x2="637.7" y1="366.29" y2="532.05" data-name="Dégradé sans nom 11" gradientUnits="userSpaceOnUse"><stop offset=".1" stop-color="#5b5a72"/><stop offset=".5" stop-color="#b0b0bf"/><stop offset=".96" stop-color="#f4f4f6"/></linearGradient><linearGradient xlink:href="#Dégradé_sans_nom_11" id="Dégradé_sans_nom_11-2" x1="443.47" x2="635.16" y1="63.57" y2="255.26" data-name="Dégradé sans nom 11"/><linearGradient xlink:href="#Dégradé_sans_nom_26" id="Dégradé_sans_nom_26-2" x1="207.92" x2="431.79" y1="153.14" y2="377" data-name="Dégradé sans nom 26"/><linearGradient xlink:href="#Dégradé_sans_nom_11" id="Dégradé_sans_nom_11-3" x1="-3127.47" x2="-3119.93" y1="-4305.06" y2="-4297.52" data-name="Dégradé sans nom 11" gradientTransform="rotate(-136.08 -581.17 -2703.56)"/><linearGradient xlink:href="#Dégradé_sans_nom_11" id="Dégradé_sans_nom_11-4" x1="-3224.79" x2="-3203.16" y1="-4072.51" y2="-4050.88" data-name="Dégradé sans nom 11" gradientTransform="rotate(-132.68 -599.8 -2679.58)"/><linearGradient xlink:href="#Dégradé_sans_nom_11" id="Dégradé_sans_nom_11-5" x1="-3177.51" x2="-3157.18" y1="-610.52" y2="-590.19" data-name="Dégradé sans nom 11" gradientTransform="rotate(-80.36 -1032.22 -2202.295)"/><linearGradient xlink:href="#Dégradé_sans_nom_11" id="Dégradé_sans_nom_11-6" x1="-3304.32" x2="-3294.94" y1="-4063.43" y2="-4054.05" data-name="Dégradé sans nom 11" gradientTransform="scale(1 -1) rotate(-81.54 670.403 -4369.552)"/><linearGradient xlink:href="#Dégradé_sans_nom_11" id="Dégradé_sans_nom_11-7" x1="-3383.63" x2="-3358.72" y1="-3815.23" y2="-3790.33" data-name="Dégradé sans nom 11" gradientTransform="scale(1 -1) rotate(-78.15 624.11 -4448.31)"/><linearGradient xlink:href="#Dégradé_sans_nom_11" id="Dégradé_sans_nom_11-8" x1="-3060.49" x2="-3035.8" y1="-320.48" y2="-295.79" data-name="Dégradé sans nom 11" gradientTransform="scale(1 -1) rotate(-25.83 -1441.766 -8025.674)"/><radialGradient id="Dégradé_sans_nom_17" cx="597.17" cy="565.28" r="128.75" data-name="Dégradé sans nom 17" fx="597.17" fy="565.28" gradientTransform="matrix(1.28 .00045 -.00004 .11 -202.04 500.8)" gradientUnits="userSpaceOnUse"><stop offset=".4" stop-color="#353544" stop-opacity=".5"/><stop offset="1" stop-color="#353544" stop-opacity="0"/></radialGradient><style>.cls-9{fill:#fbabab}.cls-10{fill:#b0b0bf}.cls-12{fill:#353544}.cls-18{fill:#fff;opacity:.5}</style></defs><path d="M514.83 354.4c-.01-.83-.06-6.44.62-12.65-2.98-2.08-6.36-4.29-10.21-6.63-40.72-24.77-78.18-35.46-81.17-29.27-1.78 3.7 17.15 23.53 53.38 44.61 15.5 9.02 27.63 15.29 36.73 18.93l.64-15Z" style="fill:url(#Dégradé_secondaire1)"/><path d="M573.79 336.17s9.18-13.4 50.26 16.31c41.07 29.71 71.6 65.16 66.67 70.46-3.72 4-39.29-19.03-76.74-42.99-38.48-24.61-45.28-36.6-40.18-43.78Z" style="fill:url(#Dégradé_sans_nom_26)"/><path d="M702.32 490.82c-31.73-21.19-57.15-63.44-57.15-63.44l-20.38-36.96c-2.59-1.65-5.24-3.35-7.97-5.1l-4.46-2.85c-35.98-23.02-41.67-33.54-42.82-39.45-.61-3.15 0-6.04 1.78-8.55.3-.44 3.19-4.32 11.09-4.32 3.02 0 6.38.57 10.05 1.66l-6.33-11.48a17.958 17.958 0 0 0-19.83-8.81c-12.89 3.1-21.39 14.12-19.44 27.24l1.45 29.86c.16 3.88-5.46 4.59-6.27.8l-3.86-27.74s-2.29-18.42-12.59-16.19c-8.28 1.8-7.75 28.96-7.75 28.96l-4.45 103.89s-3.96 49.15-22.95 82.24c-2.6 4.53 2.42 9.59 6.96 7.02l31.15-26.26c15.73-9.12 20.51-22.82 21.62-44.9l.71-15.92c-.44-3 1.49-5.01 3.77-5.54 2.28-.54 4.91.4 5.85 3.29l7.72 13.94c11.01 19.23 21.19 29.42 39.34 30.59l91.66-2.57c5.21.28 7.45-6.48 3.11-9.38Z" style="fill:url(#Dégradé_sans_nom_11)"/><ellipse cx="560.86" cy="565.28" rx="167.11" ry="15.89" style="fill:url(#Dégradé_sans_nom_17)"/><path d="M627.62 52.93c-2-4.4-8.61-2.56-8.03 2.23 2.51 20.72 3.83 49.65-3.5 72.56-17.16-18.57-40.9-31.19-68.06-33.94-28.84-2.92-56.13 5.85-77.23 22.44-2.93-23.08 3.43-51.81 9.21-71.67 1.25-4.28-3.38-7.07-5.61-3.4-28.4 46.74-34.12 86.92-33.87 112.6-5.35 11.05-8.89 23.21-10.2 36.11-5.96 58.97 37.05 111.66 96.09 117.63 59.04 5.97 111.73-37.04 117.7-96.01.97-9.58.64-19.01-.83-28.1 7.18-26.49 11.02-71.67-15.67-130.46Zm-76.7 149.13c-2.78 27.52-23.53 47.95-46.41 45.63-22.82-2.31-39.12-26.48-36.33-54 2.79-27.59 23.6-48.02 46.42-45.71 22.88 2.31 39.12 26.48 36.33 54.08Z" style="fill:url(#Dégradé_sans_nom_11-2)"/><path d="M538.33 138.78s18.69-5.76 37.16 21.73c0 0-10.93-26.39-21.43-29.12-9.8-2.54-15.72 7.39-15.72 7.39ZM488.69 135.79s-12.08-8.01-29.34 12.97c0 0 11.83-21.24 19.58-21.93 7.23-.65 9.76 8.96 9.76 8.96Z" class="cls-12"/><ellipse cx="450.8" cy="233.44" class="cls-9" rx="4.22" ry="6.65" transform="rotate(-84.23 450.77 233.444)"/><ellipse cx="571.7" cy="245.66" class="cls-9" rx="5.28" ry="9.99" transform="rotate(-84.23 571.672 245.673)"/><path d="M537.85 229.19c-4.65-5.76-7.1-15.63-5.73-29.17 2.19-21.68 12.07-32.17 22.84-31.08 5.2.53 9.65 3.66 12.62 9.21 2.12.6 7.73 1.59 12.77-2.74 0 0-.61 10.51-9.41 12.65 0 0 9.65 5.84 19.04.17 0 0-5.56 12.16-18.61 12.47a64.6 64.6 0 0 1-.26 3.28c-1.39 13.75-5.87 23-11.71 27.65 0 0-8.88-5.56-21.55-2.42Z" class="cls-12"/><ellipse cx="547.84" cy="192.79" class="cls-18" rx="3.13" ry="4.55" transform="rotate(-84.23 547.808 192.8)"/><ellipse cx="555.73" cy="183.93" class="cls-18" rx="6.11" ry="6.96" transform="rotate(-84.23 555.707 183.94)"/><path d="M476.2 220.6c4.59-4.39 8.17-12.84 9.42-25.25 2.01-19.87-3.85-30.99-12.38-31.85-4.12-.42-8.11 1.64-11.35 6.12-1.74.18-6.26.11-9.42-4.65 0 0-1.32 9.56 5.13 12.99 0 0-8.48 3.6-14.77-3.11 0 0 2.23 11.89 12.28 14.4-.13.97-.26 1.96-.36 2.99-1.27 12.6.62 21.69 4.35 26.87 0 0 7.83-3.48 17.11 1.51Z" class="cls-12"/><ellipse cx="467.38" cy="185.42" class="cls-18" rx="2.87" ry="3.61" transform="rotate(-84.23 467.363 185.426)"/><ellipse cx="473.76" cy="177.21" class="cls-18" rx="5.6" ry="5.51" transform="rotate(-84.23 473.728 177.22)"/><path d="m518.75 260.57-28.45-4.33s-2.7 21.53 8.05 23.16c14.96 2.28 20.4-18.83 20.4-18.83Z" style="fill:#5b5a72"/><g style="fill:none;opacity:.4"><path d="M402.91 358.49 189.6 329.64c-12.14-1.64-21.53-17.95-21.53-36.5v-54.81c0-18.55 9.39-34.86 21.53-36.5l213.31-28.85c27.3-3.69 51.08 17.66 51.08 47.97v89.56c0 30.31-23.78 51.67-51.08 47.97Z" style="fill:url(#Dégradé_sans_nom_26-2)"/></g><path d="M180.58 276.62c-1.67-3.52-2.5-8.34-2.5-14.48 0-6.63.8-11.79 2.41-15.5 1.62-3.74 4.08-5.7 7.41-5.88 2.11-.11 4.11.43 5.98 1.64v5.99c-1.81-1.32-3.72-1.93-5.73-1.85-2.43.1-4.15 1.45-5.2 4.03-1.04 2.58-1.56 6.42-1.56 11.54 0 4.67.55 8.2 1.66 10.59 1.11 2.41 2.83 3.64 5.15 3.69 2.07.05 3.98-.56 5.7-1.83v6.05c-1.83 1.07-3.83 1.57-5.98 1.5-3.23-.11-5.67-1.95-7.35-5.5ZM196.78 280.05c-1.04-1.61-1.55-3.89-1.55-6.85s.51-5.28 1.54-6.99c1.03-1.72 2.58-2.58 4.67-2.59l5.08-.02v-1.36c0-1.51-.12-2.69-.35-3.52-.24-.84-.67-1.44-1.29-1.82-.63-.38-1.52-.55-2.67-.53-1.85.04-3.57.6-5.15 1.69v-5.14c.74-.57 1.61-1.04 2.61-1.41 1.01-.37 2.08-.57 3.21-.61 2.36-.07 4.15.8 5.36 2.63 1.22 1.84 1.83 4.78 1.83 8.82v19.89l-3.17-.11-.24-3.12c-.67 1.23-1.49 2.14-2.45 2.74-.96.59-2.12.86-3.49.81-1.58-.05-2.88-.9-3.92-2.52Zm7.68-3.41c.83-.67 1.51-1.63 2.05-2.87v-5.37l-5.01-.03c-1.06 0-1.82.37-2.29 1.14-.47.76-.7 1.97-.7 3.62 0 1.53.26 2.65.79 3.36s1.31 1.08 2.37 1.11 1.97-.3 2.8-.96ZM214.23 251.2l3.51-.1.18 3.31c.8-1.21 1.74-2.2 2.81-2.96s2.23-1.17 3.46-1.2c2.23-.07 3.87.85 4.9 2.76 1.04 1.92 1.56 4.94 1.56 9.06v20.86l-3.98-.13v-20.36c0-2.47-.28-4.2-.84-5.18-.56-.98-1.58-1.45-3.05-1.42-.89.02-1.75.37-2.6 1.05-.84.68-1.55 1.55-2.11 2.62v23l-3.83-.13v-31.17ZM236.6 280.07c-1.43-2.53-2.14-6.6-2.14-12.21 0-3.79.36-7.03 1.1-9.74.73-2.71 1.75-4.79 3.05-6.22 1.31-1.44 2.81-2.19 4.52-2.24 1.09-.03 2.09.17 2.98.61.9.44 1.75 1.14 2.58 2.1v-16.25l4.38-.24v47.79l-3.74-.13-.28-3.32c-.88 1.38-1.82 2.37-2.82 2.97-1 .6-2.16.87-3.49.82-2.66-.09-4.7-1.41-6.14-3.96Zm12.09-5.12v-16.67c-1.25-1.95-2.8-2.9-4.66-2.86-1.79.04-3.14 1.12-4.04 3.26-.9 2.13-1.35 5.22-1.35 9.26 0 3.82.4 6.49 1.21 8.03s2.15 2.33 4.02 2.38c1.91.05 3.52-1.08 4.82-3.4ZM261.21 255.8l-2.99.05.41-5.95 7.16-.21v34.41l-4.59-.15V255.8Zm-.38-19.56 5.01-.27v6.53l-5.01.21v-6.47ZM272.82 281.07c-1.64-2.71-2.45-7.06-2.45-13.06 0-4.05.42-7.52 1.25-10.41.84-2.9 2-5.12 3.49-6.66 1.5-1.54 3.22-2.35 5.18-2.41 1.25-.04 2.39.18 3.42.65 1.03.47 2.01 1.22 2.96 2.25v-17.41l5.03-.28v51.24l-4.3-.14-.32-3.55c-1.01 1.48-2.08 2.53-3.23 3.17-1.15.64-2.48.93-4 .87-3.05-.11-5.39-1.53-7.03-4.25Zm13.86-5.46v-17.86c-1.43-2.09-3.21-3.1-5.35-3.06-2.06.04-3.6 1.21-4.63 3.5-1.03 2.28-1.54 5.58-1.54 9.91 0 4.09.46 6.95 1.39 8.59.93 1.65 2.46 2.5 4.6 2.55 2.19.05 4.04-1.15 5.53-3.63ZM298.73 283.09c-1.52-1.96-2.28-4.73-2.28-8.31s.75-6.4 2.26-8.47c1.51-2.08 3.8-3.13 6.88-3.15l7.52-.03v-1.66c0-1.84-.18-3.27-.53-4.29-.35-1.02-.99-1.76-1.92-2.21-.93-.45-2.24-.66-3.95-.63-2.73.05-5.26.75-7.6 2.07v-6.24c1.08-.7 2.37-1.27 3.85-1.73 1.49-.46 3.06-.71 4.73-.77 3.49-.11 6.15.94 7.95 3.16 1.81 2.23 2.71 5.82 2.71 10.75v24.26l-4.7-.16-.35-3.8c-1 1.5-2.21 2.6-3.64 3.31-1.42.71-3.14 1.03-5.15.96-2.33-.08-4.25-1.11-5.78-3.09Zm11.33-4.09c1.22-.81 2.24-1.97 3.04-3.48v-6.54l-7.42-.04c-1.56 0-2.68.45-3.37 1.38-.69.92-1.04 2.39-1.04 4.4 0 1.86.38 3.22 1.16 4.08.77.87 1.94 1.33 3.5 1.36 1.53.04 2.91-.35 4.13-1.15ZM326.83 283.77c-1.33-2.16-1.99-5.17-1.99-9.02v-19.94l-3.62.07v-6.79l3.62-.11v-8.76l5.68-2.93v11.52l6.76-.2-.38 6.98-6.38.11v19.64c0 2.22.33 3.78.98 4.69.66.91 1.77 1.38 3.34 1.42.97.02 2-.22 3.08-.75v6.32c-1.41.83-3.12 1.21-5.12 1.14-2.66-.09-4.65-1.23-5.98-3.39ZM345.29 282.44c-2.48-3.49-3.71-8.63-3.71-15.47 0-6.44 1.08-11.46 3.26-15.07 2.19-3.63 5.47-5.52 9.88-5.66 4.04-.12 7.17 1.35 9.36 4.42 2.21 3.1 3.32 7.29 3.32 12.57v7.57l-20.05-.16c.3 3.78 1.22 6.43 2.76 7.94 1.55 1.52 4 2.31 7.37 2.4 1.39.03 2.82-.13 4.28-.49 1.47-.37 2.77-.85 3.92-1.46v6.86c-2.48 1.52-5.64 2.21-9.47 2.07-4.8-.17-8.43-2.02-10.92-5.53Zm16.44-17.73v-2.81c0-2.9-.55-5.09-1.64-6.58-1.09-1.48-2.82-2.2-5.2-2.15-2.82.06-4.77.99-5.88 2.79-1.11 1.8-1.66 4.72-1.66 8.78l14.38-.02ZM373.79 246.54l6.14-.18.37 4.81c1.41-1.32 3.09-2.54 5.06-3.65 1.98-1.12 3.95-1.92 5.91-2.39v7.4c-1.83.51-3.8 1.27-5.91 2.28-2.09 1-3.72 2.04-4.87 3.11v30.02l-6.69-.22v-41.18ZM420.48 281.65l8.19.19v7.72l-8.19-.27v-7.63Zm.28-37.33v-14.99l7.69-.4v15.15l-.43 30.3-6.85-.08-.42-29.98Z" class="cls-10"/><path d="M409.03 172.57c24.64 0 44.96 20.37 44.96 48.39v89.56c0 28.02-20.32 48.39-44.96 48.39-2.01 0-4.05-.14-6.12-.42L189.6 329.64c-12.14-1.64-21.53-17.95-21.53-36.5v-54.81c0-18.55 9.39-34.85 21.53-36.5l213.31-28.85c2.06-.28 4.11-.42 6.12-.42m0-2.66c-2.14 0-4.32.15-6.47.44l-213.31 28.85c-13.37 1.81-23.84 19-23.84 39.13v54.81c0 20.14 10.47 37.32 23.84 39.13l213.31 28.85c2.15.29 4.33.44 6.47.44 12.81 0 24.76-5.15 33.65-14.51 9.01-9.49 13.97-22.46 13.97-36.53v-89.56c0-14.07-4.96-27.04-13.97-36.53-8.89-9.36-20.83-14.51-33.64-14.51Z" class="cls-10"/><path d="m156.61 214.43-29.91-7.1" style="stroke:url(#Dégradé_sans_nom_11-3);stroke-linecap:round;stroke-linejoin:round;stroke-width:3px;fill:none"/><path d="m167.35 193.45-21.82-28.49" style="stroke:url(#Dégradé_sans_nom_11-4);stroke-linecap:round;stroke-linejoin:round;stroke-width:3px;fill:none"/><path d="m186.46 188.87 6.1-35.9" style="stroke:url(#Dégradé_sans_nom_11-5);stroke-linecap:round;stroke-linejoin:round;stroke-width:3px;fill:none"/><path d="m401.73 377.56-15.51 38.18" style="stroke:url(#Dégradé_sans_nom_11-6);stroke-linecap:round;stroke-linejoin:round;stroke-width:3px;fill:none"/><path d="m430.78 383.31 9.29 44.69" style="stroke:url(#Dégradé_sans_nom_11-7);stroke-linecap:round;stroke-linejoin:round;stroke-width:3px;fill:none"/><path d="m452.87 364.85 43.95 29.19" style="stroke-linecap:round;stroke-linejoin:round;stroke-width:3px;stroke:url(#Dégradé_sans_nom_11-8);fill:none"/></svg>