<?xml version="1.0" encoding="utf-8"?>
<!-- Generator: Adobe Illustrator 27.9.0, SVG Export Plug-In . SVG Version: 6.00 Build 0)  -->
<svg version="1.1" id="Calque_1" xmlns="http://www.w3.org/2000/svg" xmlns:xlink="http://www.w3.org/1999/xlink" x="0px" y="0px"
	 viewBox="0 0 841.9 595.3" style="enable-background:new 0 0 841.9 595.3;" xml:space="preserve">
<style type="text/css">
	.st0{fill:url(#SVGID_1_);}
	.st1{fill:url(#SVGID_00000026855980033960581570000008671355559329330609_);}
	.st2{fill:url(#SVGID_00000183220562683784037310000017837569909448608179_);}
	.st3{fill:url(#SVGID_00000125580505380465949030000006919901940359456395_);}
	.st4{fill:url(#SVGID_00000083773092926145956800000006014830311497999780_);}
	.st5{fill:#353544;}
	.st6{fill:#FBABAB;}
	.st7{opacity:0.5;fill:#FFFFFF;enable-background:new    ;}
	.st8{fill:#5B5A72;}
	.st9{opacity:0.4;}
	.st10{fill:url(#SVGID_00000178195151869874145560000011814367324154900903_);}
	.st11{fill:#B0B0BF;}
	
		.st12{fill:none;stroke:url(#SVGID_00000132772249769575995450000009827127678801068679_);stroke-width:3;stroke-linecap:round;stroke-linejoin:round;}
	
		.st13{fill:none;stroke:url(#SVGID_00000045610574536074866480000003932674076457694382_);stroke-width:3;stroke-linecap:round;stroke-linejoin:round;}
	
		.st14{fill:none;stroke:url(#SVGID_00000057837294516769686600000012637507010032892602_);stroke-width:3;stroke-linecap:round;stroke-linejoin:round;}
	
		.st15{fill:none;stroke:url(#SVGID_00000070833379936126915960000011369952256852085148_);stroke-width:3;stroke-linecap:round;stroke-linejoin:round;}
	
		.st16{fill:none;stroke:url(#SVGID_00000038412779851537799080000005759099295370548924_);stroke-width:3;stroke-linecap:round;stroke-linejoin:round;}
	
		.st17{fill:none;stroke:url(#SVGID_00000030444422904160818530000008863862198306130103_);stroke-width:3;stroke-linecap:round;stroke-linejoin:round;}
</style>
<linearGradient id="SVGID_1_" gradientUnits="userSpaceOnUse" x1="513.9791" y1="226.0489" x2="446.3391" y2="293.6889" gradientTransform="matrix(1 0 0 -1 0 595.8898)">
	<stop  offset="0" style="stop-color:#5B5A72"/>
	<stop  offset="1" style="stop-color:#B0B0BF"/>
</linearGradient>
<path class="st0" d="M514.8,354.4c0-0.8-0.1-6.4,0.6-12.6c-3-2.1-6.4-4.3-10.2-6.6c-40.7-24.8-78.2-35.5-81.2-29.3
	c-1.8,3.7,17.1,23.5,53.4,44.6c15.5,9,27.6,15.3,36.7,18.9L514.8,354.4L514.8,354.4z"/>
<linearGradient id="SVGID_00000076591360714333260420000006538330818261706163_" gradientUnits="userSpaceOnUse" x1="578.3959" y1="269.4156" x2="678.7459" y2="169.0657" gradientTransform="matrix(1 0 0 -1 0 595.8898)">
	<stop  offset="0" style="stop-color:#B0B0BF"/>
	<stop  offset="1" style="stop-color:#F4F4F6"/>
</linearGradient>
<path style="fill:url(#SVGID_00000076591360714333260420000006538330818261706163_);" d="M573.8,336.2c0,0,9.2-13.4,50.3,16.3
	c41.1,29.7,71.6,65.2,66.7,70.5c-3.7,4-39.3-19-76.7-43C575.5,355.3,568.7,343.4,573.8,336.2L573.8,336.2z"/>
<linearGradient id="SVGID_00000083810377357781305420000005716073447041227402_" gradientUnits="userSpaceOnUse" x1="471.9377" y1="229.5975" x2="637.6978" y2="63.8375" gradientTransform="matrix(1 0 0 -1 0 595.8898)">
	<stop  offset="0.1" style="stop-color:#5B5A72"/>
	<stop  offset="0.5" style="stop-color:#B0B0BF"/>
	<stop  offset="0.96" style="stop-color:#F4F4F6"/>
</linearGradient>
<path style="fill:url(#SVGID_00000083810377357781305420000005716073447041227402_);" d="M702.3,490.8
	c-31.7-21.2-57.2-63.4-57.2-63.4l-20.4-37c-2.6-1.6-5.2-3.4-8-5.1l-4.5-2.9c-36-23-41.7-33.5-42.8-39.5c-0.6-3.1,0-6,1.8-8.5
	c0.3-0.4,3.2-4.3,11.1-4.3c3,0,6.4,0.6,10,1.7l-6.3-11.5c-3.9-7-12-10.7-19.8-8.8c-12.9,3.1-21.4,14.1-19.4,27.2l1.5,29.9
	c0.2,3.9-5.5,4.6-6.3,0.8l-3.9-27.7c0,0-2.3-18.4-12.6-16.2c-8.3,1.8-7.8,29-7.8,29l-4.5,103.9c0,0-4,49.1-23,82.2
	c-2.6,4.5,2.4,9.6,7,7l31.1-26.3c15.7-9.1,20.5-22.8,21.6-44.9l0.7-15.9c-0.4-3,1.5-5,3.8-5.5c2.3-0.5,4.9,0.4,5.8,3.3l7.7,13.9
	c11,19.2,21.2,29.4,39.3,30.6l91.7-2.6C704.4,500.5,706.7,493.7,702.3,490.8L702.3,490.8z"/>
<radialGradient id="SVGID_00000084497485063881407580000004379678750791327876_" cx="624.1112" cy="-964.9651" r="128.75" gradientTransform="matrix(1.28 4.500000e-04 4.000000e-05 -0.11 -236.5087 456.8225)" gradientUnits="userSpaceOnUse">
	<stop  offset="0.4" style="stop-color:#353544;stop-opacity:0.5"/>
	<stop  offset="1" style="stop-color:#353544;stop-opacity:0"/>
</radialGradient>
<ellipse style="fill:url(#SVGID_00000084497485063881407580000004379678750791327876_);" cx="560.9" cy="565.3" rx="167.1" ry="15.9"/>
<linearGradient id="SVGID_00000113335909239189661120000007859897542625703563_" gradientUnits="userSpaceOnUse" x1="443.4673" y1="532.317" x2="635.1573" y2="340.627" gradientTransform="matrix(1 0 0 -1 0 595.8898)">
	<stop  offset="0.1" style="stop-color:#5B5A72"/>
	<stop  offset="0.5" style="stop-color:#B0B0BF"/>
	<stop  offset="0.96" style="stop-color:#F4F4F6"/>
</linearGradient>
<path style="fill:url(#SVGID_00000113335909239189661120000007859897542625703563_);" d="M627.6,52.9c-2-4.4-8.6-2.6-8,2.2
	c2.5,20.7,3.8,49.6-3.5,72.6c-17.2-18.6-40.9-31.2-68.1-33.9c-28.8-2.9-56.1,5.8-77.2,22.4c-2.9-23.1,3.4-51.8,9.2-71.7
	c1.2-4.3-3.4-7.1-5.6-3.4c-28.4,46.7-34.1,86.9-33.9,112.6c-5.4,11.1-8.9,23.2-10.2,36.1c-6,59,37,111.7,96.1,117.6
	c59,6,111.7-37,117.7-96c1-9.6,0.6-19-0.8-28.1C650.5,156.9,654.3,111.7,627.6,52.9L627.6,52.9z M550.9,202.1
	c-2.8,27.5-23.5,47.9-46.4,45.6c-22.8-2.3-39.1-26.5-36.3-54c2.8-27.6,23.6-48,46.4-45.7C537.5,150.3,553.7,174.5,550.9,202.1
	L550.9,202.1z"/>
<path class="st5" d="M538.3,138.8c0,0,18.7-5.8,37.2,21.7c0,0-10.9-26.4-21.4-29.1C544.3,128.9,538.3,138.8,538.3,138.8L538.3,138.8
	z M488.7,135.8c0,0-12.1-8-29.3,13c0,0,11.8-21.2,19.6-21.9C486.2,126.2,488.7,135.8,488.7,135.8z"/>
<ellipse transform="matrix(0.1005 -0.9949 0.9949 0.1005 173.2197 658.4327)" class="st6" cx="450.8" cy="233.4" rx="4.2" ry="6.6"/>
<ellipse transform="matrix(0.1005 -0.9949 0.9949 0.1005 269.7903 789.7136)" class="st6" cx="571.7" cy="245.6" rx="5.3" ry="10"/>
<path class="st5" d="M537.8,229.2c-4.7-5.8-7.1-15.6-5.7-29.2c2.2-21.7,12.1-32.2,22.8-31.1c5.2,0.5,9.7,3.7,12.6,9.2
	c2.1,0.6,7.7,1.6,12.8-2.7c0,0-0.6,10.5-9.4,12.6c0,0,9.7,5.8,19,0.2c0,0-5.6,12.2-18.6,12.5c-0.1,1.1-0.1,2.2-0.3,3.3
	c-1.4,13.8-5.9,23-11.7,27.6C559.4,231.6,550.5,226.1,537.8,229.2L537.8,229.2z"/>
<ellipse transform="matrix(0.1005 -0.9949 0.9949 0.1005 300.9374 718.413)" class="st7" cx="547.8" cy="192.8" rx="3.1" ry="4.6"/>
<ellipse transform="matrix(0.1005 -0.9949 0.9949 0.1005 316.8477 718.3099)" class="st7" cx="555.7" cy="183.9" rx="6.1" ry="7"/>
<path class="st5" d="M476.2,220.6c4.6-4.4,8.2-12.8,9.4-25.2c2-19.9-3.9-31-12.4-31.9c-4.1-0.4-8.1,1.6-11.4,6.1
	c-1.7,0.2-6.3,0.1-9.4-4.6c0,0-1.3,9.6,5.1,13c0,0-8.5,3.6-14.8-3.1c0,0,2.2,11.9,12.3,14.4c-0.1,1-0.3,2-0.4,3
	c-1.3,12.6,0.6,21.7,4.4,26.9C459.1,219.1,466.9,215.6,476.2,220.6L476.2,220.6z"/>
<ellipse transform="matrix(0.1005 -0.9949 0.9949 0.1005 235.9035 631.7593)" class="st7" cx="467.4" cy="185.4" rx="2.9" ry="3.6"/>
<ellipse transform="matrix(0.1005 -0.9949 0.9949 0.1005 249.8062 630.6947)" class="st7" cx="473.7" cy="177.2" rx="5.6" ry="5.5"/>
<path class="st8" d="M518.8,260.6l-28.5-4.3c0,0-2.7,21.5,8,23.2C513.3,281.7,518.8,260.6,518.8,260.6L518.8,260.6z"/>
<g class="st9">
	
		<linearGradient id="SVGID_00000181052329044576882030000012231737989119870872_" gradientUnits="userSpaceOnUse" x1="207.918" y1="442.7477" x2="431.788" y2="218.8877" gradientTransform="matrix(1 0 0 -1 0 595.8898)">
		<stop  offset="0" style="stop-color:#B0B0BF"/>
		<stop  offset="1" style="stop-color:#F4F4F6"/>
	</linearGradient>
	<path style="fill:url(#SVGID_00000181052329044576882030000012231737989119870872_);" d="M402.9,358.5l-213.3-28.8
		c-12.1-1.6-21.5-18-21.5-36.5v-54.8c0-18.6,9.4-34.9,21.5-36.5L402.9,173c27.3-3.7,51.1,17.7,51.1,48v89.6
		C454,340.8,430.2,362.2,402.9,358.5L402.9,358.5z"/>
</g>
<path class="st11" d="M409,172.6c24.6,0,45,20.4,45,48.4v89.6c0,28-20.3,48.4-45,48.4c-2,0-4-0.1-6.1-0.4l-213.3-28.9
	c-12.1-1.6-21.5-18-21.5-36.5v-54.8c0-18.6,9.4-34.9,21.5-36.5L402.9,173C405,172.7,407,172.6,409,172.6 M409,169.9
	c-2.1,0-4.3,0.1-6.5,0.4l-213.3,28.9c-13.4,1.8-23.8,19-23.8,39.1v54.8c0,20.1,10.5,37.3,23.8,39.1l213.3,28.9
	c2.1,0.3,4.3,0.4,6.5,0.4c12.8,0,24.8-5.1,33.6-14.5c9-9.5,14-22.5,14-36.5V221c0-14.1-5-27-14-36.5
	C433.8,175.1,421.9,169.9,409,169.9L409,169.9z"/>
<linearGradient id="SVGID_00000041257608263663919220000004358994750796781995_" gradientUnits="userSpaceOnUse" x1="-3000.9717" y1="5198.0869" x2="-2993.4321" y2="5190.5474" gradientTransform="matrix(-0.7203 -0.6937 -0.6937 0.7203 1585.7997 -5609.5923)">
	<stop  offset="0.1" style="stop-color:#5B5A72"/>
	<stop  offset="0.5" style="stop-color:#B0B0BF"/>
	<stop  offset="0.96" style="stop-color:#F4F4F6"/>
</linearGradient>
<path style="fill:none;stroke:url(#SVGID_00000041257608263663919220000004358994750796781995_);stroke-width:3;stroke-linecap:round;stroke-linejoin:round;" d="
	M156.6,214.4l-29.9-7.1"/>
<linearGradient id="SVGID_00000119799078561955976770000017173613565178848943_" gradientUnits="userSpaceOnUse" x1="-3108.9517" y1="4965.1167" x2="-3087.3259" y2="4943.4912" gradientTransform="matrix(-0.6779 -0.7352 -0.7352 0.6779 1698.3656 -5456.9336)">
	<stop  offset="0.1" style="stop-color:#5B5A72"/>
	<stop  offset="0.5" style="stop-color:#B0B0BF"/>
	<stop  offset="0.96" style="stop-color:#F4F4F6"/>
</linearGradient>
<path style="fill:none;stroke:url(#SVGID_00000119799078561955976770000017173613565178848943_);stroke-width:3;stroke-linecap:round;stroke-linejoin:round;" d="
	M167.4,193.4L145.5,165"/>
<linearGradient id="SVGID_00000053508812929133726730000012400727555822373031_" gradientUnits="userSpaceOnUse" x1="-3196.3411" y1="1430.105" x2="-3176.0112" y2="1409.7754" gradientTransform="matrix(0.1675 -0.9859 -0.9859 -0.1675 2122.9709 -2732.5032)">
	<stop  offset="0.1" style="stop-color:#5B5A72"/>
	<stop  offset="0.5" style="stop-color:#B0B0BF"/>
	<stop  offset="0.96" style="stop-color:#F4F4F6"/>
</linearGradient>
<path style="fill:none;stroke:url(#SVGID_00000053508812929133726730000012400727555822373031_);stroke-width:3;stroke-linecap:round;stroke-linejoin:round;" d="
	M186.5,188.9l6.1-35.9"/>
<linearGradient id="SVGID_00000068640577630238603660000005683139939121091228_" gradientUnits="userSpaceOnUse" x1="-3078.0359" y1="4921.7949" x2="-3068.6519" y2="4912.4111" gradientTransform="matrix(0.1471 0.9891 -0.9891 0.1471 5709.7515 2713.176)">
	<stop  offset="0.1" style="stop-color:#5B5A72"/>
	<stop  offset="0.5" style="stop-color:#B0B0BF"/>
	<stop  offset="0.96" style="stop-color:#F4F4F6"/>
</linearGradient>
<path style="fill:none;stroke:url(#SVGID_00000068640577630238603660000005683139939121091228_);stroke-width:3;stroke-linecap:round;stroke-linejoin:round;" d="
	M401.7,377.6l-15.5,38.2"/>
<linearGradient id="SVGID_00000128454653322187267430000006786922450312898968_" gradientUnits="userSpaceOnUse" x1="-3165.4719" y1="4679.791" x2="-3140.5608" y2="4654.8901" gradientTransform="matrix(0.2054 0.9787 -0.9787 0.2054 5650.77 2533.0366)">
	<stop  offset="0.1" style="stop-color:#5B5A72"/>
	<stop  offset="0.5" style="stop-color:#B0B0BF"/>
	<stop  offset="0.96" style="stop-color:#F4F4F6"/>
</linearGradient>
<path style="fill:none;stroke:url(#SVGID_00000128454653322187267430000006786922450312898968_);stroke-width:3;stroke-linecap:round;stroke-linejoin:round;" d="
	M430.8,383.3l9.3,44.7"/>
<linearGradient id="SVGID_00000098200268387918727080000012025820961004705443_" gradientUnits="userSpaceOnUse" x1="-2994.5151" y1="1203.7668" x2="-2969.8176" y2="1179.0692" gradientTransform="matrix(0.9001 0.4357 -0.4357 0.9001 3678.2705 606.3626)">
	<stop  offset="0.1" style="stop-color:#5B5A72"/>
	<stop  offset="0.5" style="stop-color:#B0B0BF"/>
	<stop  offset="0.96" style="stop-color:#F4F4F6"/>
</linearGradient>
<path style="fill:none;stroke:url(#SVGID_00000098200268387918727080000012025820961004705443_);stroke-width:3;stroke-linecap:round;stroke-linejoin:round;" d="
	M452.9,364.9l44,29.2"/>
<g>
	<path class="st11" d="M272.4,245.6l-86.3,1.8c-2.7,0.1-4.9-2.3-4.9-5.3v-8c0-3,2.2-5.5,4.9-5.6l86.3-3.8c3.3-0.1,6.1,2.4,6.1,5.7
		v8.9C278.5,242.8,275.7,245.6,272.4,245.6z"/>
	<path class="st11" d="M425.6,268.5l-241.2-0.9c-1.7,0-3-1.5-3-3.4l0,0c0-1.8,1.4-3.4,3-3.4l241.2-1.1c2.9,0,5.2,1.9,5.2,4.4l0,0
		C430.8,266.5,428.5,268.5,425.6,268.5z"/>
	<path class="st11" d="M425.6,289.7l-241.2-5.8c-1.7,0-3-1.6-3-3.4l0,0c0-1.8,1.4-3.3,3-3.3l241.2,3.8c2.9,0,5.2,2,5.2,4.5l0,0
		C430.8,287.9,428.5,289.8,425.6,289.7z"/>
	<path class="st11" d="M425.6,311l-241.2-10.7c-1.7-0.1-3-1.6-3-3.5l0,0c0-1.8,1.4-3.3,3-3.2l241.2,8.7c2.9,0.1,5.2,2.2,5.2,4.6v0
		C430.8,309.2,428.5,311.1,425.6,311z"/>
</g>
</svg>
