<svg xmlns="http://www.w3.org/2000/svg" xmlns:xlink="http://www.w3.org/1999/xlink" id="Calque_1" data-name="Calque 1" viewBox="0 0 841.89 595.28"><defs><linearGradient id="Dégradé_sans_nom_11" x1="316.82" x2="521.02" y1="70.78" y2="274.98" data-name="Dégradé sans nom 11" gradientUnits="userSpaceOnUse"><stop offset=".1" stop-color="#5b5a72"/><stop offset=".5" stop-color="#b0b0bf"/><stop offset=".96" stop-color="#f4f4f6"/></linearGradient><linearGradient id="Dégradé_sans_nom_26" x1="505.55" x2="579.94" y1="347.85" y2="273.45" data-name="Dégradé sans nom 26" gradientUnits="userSpaceOnUse"><stop offset="0" stop-color="#b0b0bf"/><stop offset="1" stop-color="#f4f4f6"/></linearGradient><linearGradient id="Dégradé_sans_nom_46" x1="376.28" x2="281.76" y1="373.01" y2="278.49" data-name="Dégradé sans nom 46" gradientUnits="userSpaceOnUse"><stop offset="0" stop-color="#5b5a72"/><stop offset="1" stop-color="#b0b0bf"/></linearGradient><linearGradient xlink:href="#Dégradé_sans_nom_11" id="Dégradé_sans_nom_11-2" x1="366.39" x2="515.44" y1="308.57" y2="457.63" data-name="Dégradé sans nom 11"/><linearGradient id="Dégradé_sans_nom_35" x1="579.56" x2="643.58" y1="244.23" y2="180.21" data-name="Dégradé sans nom 35" gradientUnits="userSpaceOnUse"><stop offset="0" stop-color="#79b6fb"/><stop offset="1" stop-color="#e76767"/></linearGradient><linearGradient xlink:href="#Dégradé_sans_nom_11" id="Dégradé_sans_nom_11-3" x1="776.18" x2="792.98" y1="161.95" y2="178.75" data-name="Dégradé sans nom 11" gradientTransform="rotate(151.84 757.113 120.676)"/><linearGradient xlink:href="#Dégradé_sans_nom_11" id="Dégradé_sans_nom_11-4" x1="250.74" x2="267.55" y1="183.84" y2="200.65" data-name="Dégradé sans nom 11" gradientTransform="rotate(-65.63 258.897 192.094)"/><linearGradient xlink:href="#Dégradé_sans_nom_11" id="Dégradé_sans_nom_11-5" x1="134.68" x2="151.49" y1="67.02" y2="83.83" data-name="Dégradé sans nom 11" gradientTransform="rotate(-165.77 135.673 164.854)"/><linearGradient xlink:href="#Dégradé_sans_nom_11" id="Dégradé_sans_nom_11-6" x1="158.01" x2="174.81" y1="177" y2="193.8" data-name="Dégradé sans nom 11" gradientTransform="rotate(45.52 18.208 285.566)"/><linearGradient xlink:href="#Dégradé_sans_nom_11" id="Dégradé_sans_nom_11-7" x1="328.82" x2="345.63" y1="4.25" y2="21.05" data-name="Dégradé sans nom 11" gradientTransform="rotate(111.66 216.066 18.545)"/><linearGradient xlink:href="#Dégradé_sans_nom_11" id="Dégradé_sans_nom_11-8" x1="179.8" x2="196.6" y1="-564.18" y2="-547.37" data-name="Dégradé sans nom 11" gradientTransform="rotate(-51.83 1306.917 -560.474)"/><linearGradient xlink:href="#Dégradé_sans_nom_11" id="Dégradé_sans_nom_11-9" x1="346.22" x2="363.02" y1="-488.91" y2="-472.11" data-name="Dégradé sans nom 11" gradientTransform="rotate(87.49 192.663 58.28)"/><linearGradient xlink:href="#Dégradé_sans_nom_11" id="Dégradé_sans_nom_11-10" x1="244.32" x2="261.12" y1="-637.02" y2="-620.21" data-name="Dégradé sans nom 11" gradientTransform="rotate(153.91 316.609 -247.774)"/><linearGradient xlink:href="#Dégradé_sans_nom_11" id="Dégradé_sans_nom_11-11" x1="48.18" x2="64.99" y1="-802.18" y2="-785.37" data-name="Dégradé sans nom 11" gradientTransform="rotate(-126.33 411.338 -435.642)"/><linearGradient xlink:href="#Dégradé_sans_nom_11" id="Dégradé_sans_nom_11-12" x1="817.09" x2="827.52" y1="-186.52" y2="-176.08" data-name="Dégradé sans nom 11" gradientTransform="rotate(20.35 -49.396 -199.759)"/><linearGradient xlink:href="#Dégradé_sans_nom_11" id="Dégradé_sans_nom_11-13" x1="289.98" x2="300.41" y1="-65.81" y2="-55.38" data-name="Dégradé sans nom 11" gradientTransform="rotate(20.35 -49.396 -199.759)"/><linearGradient xlink:href="#Dégradé_sans_nom_11" id="Dégradé_sans_nom_11-14" x1="2589.35" x2="2601.94" y1="1417.82" y2="1430.41" data-name="Dégradé sans nom 11" gradientTransform="rotate(69.51 2552.074 -607.16)"/><linearGradient xlink:href="#Dégradé_sans_nom_11" id="Dégradé_sans_nom_11-15" x1="2686.36" x2="2698.95" y1="1469.02" y2="1481.62" data-name="Dégradé sans nom 11" gradientTransform="rotate(-24.57 -1133.799 5551.306)"/><linearGradient xlink:href="#Dégradé_sans_nom_11" id="Dégradé_sans_nom_11-16" x1="2388.75" x2="2401.35" y1="1176.79" y2="1189.39" data-name="Dégradé sans nom 11" gradientTransform="rotate(-24.57 -1133.799 5551.306)"/><linearGradient xlink:href="#Dégradé_sans_nom_11" id="Dégradé_sans_nom_11-17" x1="2377.17" x2="2389.76" y1="1295.3" y2="1307.9" data-name="Dégradé sans nom 11" gradientTransform="rotate(-24.57 -1133.799 5551.306)"/><linearGradient xlink:href="#Dégradé_sans_nom_11" id="Dégradé_sans_nom_11-18" x1="2182.68" x2="2195.27" y1="1295.06" y2="1307.65" data-name="Dégradé sans nom 11" gradientTransform="rotate(-24.57 -1133.799 5551.306)"/><linearGradient xlink:href="#Dégradé_sans_nom_11" id="Dégradé_sans_nom_11-19" x1="2285.87" x2="2298.47" y1="1201.94" y2="1214.54" data-name="Dégradé sans nom 11" gradientTransform="rotate(-24.57 -1133.799 5551.306)"/><linearGradient xlink:href="#Dégradé_sans_nom_11" id="Dégradé_sans_nom_11-20" x1="664.11" x2="671.86" y1="-192.5" y2="-184.75" data-name="Dégradé sans nom 11" gradientTransform="rotate(20.35 -49.396 -199.759)"/><linearGradient xlink:href="#Dégradé_sans_nom_11" id="Dégradé_sans_nom_11-21" x1="854.31" x2="862.06" y1="-93.55" y2="-85.8" data-name="Dégradé sans nom 11" gradientTransform="rotate(20.35 -49.396 -199.759)"/><linearGradient xlink:href="#Dégradé_sans_nom_11" id="Dégradé_sans_nom_11-22" x1="848.42" x2="856.17" y1="-24.79" y2="-17.03" data-name="Dégradé sans nom 11" gradientTransform="rotate(20.35 -49.396 -199.759)"/><linearGradient xlink:href="#Dégradé_sans_nom_11" id="Dégradé_sans_nom_11-23" x1="431.77" x2="439.53" y1="197.57" y2="205.33" data-name="Dégradé sans nom 11" gradientTransform="rotate(20.35 -49.396 -199.759)"/><linearGradient xlink:href="#Dégradé_sans_nom_11" id="Dégradé_sans_nom_11-24" x1="200.86" x2="208.61" y1="87.7" y2="95.45" data-name="Dégradé sans nom 11" gradientTransform="rotate(20.35 -49.396 -199.759)"/><linearGradient xlink:href="#Dégradé_sans_nom_11" id="Dégradé_sans_nom_11-25" x1="217.57" x2="225.32" y1="-13.21" y2="-5.46" data-name="Dégradé sans nom 11" gradientTransform="rotate(20.35 -49.396 -199.759)"/><linearGradient xlink:href="#Dégradé_sans_nom_11" id="Dégradé_sans_nom_11-26" x1="183.22" x2="200.88" y1="-2317.87" y2="-2300.21" data-name="Dégradé sans nom 11" gradientTransform="rotate(-1.49 99296.345 -1480.85)"/><linearGradient xlink:href="#Dégradé_sans_nom_11" id="Dégradé_sans_nom_11-27" x1="-4206.94" x2="-4181.99" y1="3864.94" y2="3889.88" data-name="Dégradé sans nom 11" gradientTransform="rotate(-28.14 -9235.168 -7503.329)"/><linearGradient xlink:href="#Dégradé_sans_nom_11" id="Dégradé_sans_nom_11-28" x1="350.95" x2="375.89" y1="5399.62" y2="5424.56" data-name="Dégradé sans nom 11" gradientTransform="rotate(10.43 29049.35 4000.64)"/><linearGradient xlink:href="#Dégradé_sans_nom_11" id="Dégradé_sans_nom_11-29" x1="-1301.05" x2="-1276.1" y1="3343.84" y2="3368.78" data-name="Dégradé sans nom 11" gradientTransform="scale(1 -1) rotate(67.14 2254.162 2996.165)"/><radialGradient id="Dégradé_sans_nom_17" cx="420.94" cy="567.17" r="128.75" data-name="Dégradé sans nom 17" fx="420.94" fy="567.17" gradientTransform="matrix(-1 .00035 .00004 .11 841.87 502.54)" gradientUnits="userSpaceOnUse"><stop offset=".4" stop-color="#353544" stop-opacity=".5"/><stop offset="1" stop-color="#353544" stop-opacity="0"/></radialGradient><style>.cls-1{fill:#e76767}.cls-3{fill:#5b5a72}.cls-4{fill:#353544}.cls-5{fill:#79b6fb}</style></defs><path d="M535.52 200.5c-3.63-16.94-11.07-32.13-21.24-44.79a106.4 106.4 0 0 0-5.21-5.99l-10.27-47.97c3.51-5.38 4.4-16.48 1.79-28.7-3.47-16.21-10.24-20.74-17.12-19.27-6.88 1.47-11.2 8.37-7.73 24.59 2.61 12.21 8.05 22.03 13.52 25.49l7.38 34.49a107.966 107.966 0 0 0-37.82-19.01c-.24.46-.58.88-1 1.22-12.27 9.88-26.02 16.79-40.86 20.54h-.02c-2.91.8-4.75 1.1-4.82 1.12v-.03c-7.89 1.61-15.31 2.21-21.91 2.21-12.07 0-21.45-1.95-26.13-3.17-.78-.21-1.44-.63-1.94-1.18a107.917 107.917 0 0 0-25.55 30.68l-7.57-35.36c4.29-5.74 5.67-17.45 2.95-30.16-3.61-16.87-11.48-21.71-19.43-20.01-8.02 1.72-13.15 9.34-9.54 26.21 2.72 12.71 8.68 22.77 14.87 26.27l10.86 50.72c-.84 2.47-1.61 4.97-2.27 7.51-4.1 15.72-4.67 32.63-1.05 49.57 12.4 57.95 69.5 94.92 127.53 82.5 31.21-6.68 56.32-26.29 70.94-52l-40.32 12.73c-.12.04-.23.05-.35.05-.47 0-.91-.29-1.09-.75l-3.61-9.41c-.22-.58.04-1.23.61-1.48l48.2-21.94h.03c.01 0 .02-.01.03-.02l6.32-2.43c4.77-16.46 5.66-34.3 1.83-52.23Zm-67.38 65.63c-22.49 4.81-45.35-13.22-51.14-40.26-5.8-27.12 7.68-52.93 30.17-57.74 22.43-4.8 45.35 13.22 51.16 40.33 5.79 27.04-7.76 52.87-30.18 57.67Z" style="fill:url(#Dégradé_sans_nom_11)"/><ellipse cx="420.94" cy="567.17" rx="130.8" ry="15.89" style="fill:url(#Dégradé_sans_nom_17)"/><path d="M590.39 273.44c-5.18-6.62-40.33 8.7-75.78 39.75.7-.15 1.41-.23 2.12-.23 3.69 0 7.09 1.95 9.34 5.35 2.67 4.05 3.13 9.4 1.17 13.98l-9.68 22.42c7.85-5.37 17.27-12.89 28.43-22.64 33.23-29.02 47.63-54.51 44.4-58.64Z" style="fill:url(#Dégradé_sans_nom_26)"/><path d="M370.6 364.57s13.93-17.36-24.31-49c-38.24-31.63-81.66-48.28-87.01-39.92-4.04 6.3 26.05 35.08 57.41 65.53 32.22 31.28 46.48 32.89 53.91 23.39Z" style="fill:url(#Dégradé_sans_nom_46)"/><path d="m514.38 317.18-53.7 25.53-5.03 73.47c-.38 5.39-5.22 5.39-5.68 0l-6.02-73.47-85.52-21.28c28.31 28.28 15.74 44.75 15.16 45.47-3.41 4.36-7.84 6.57-13.15 6.57-2.75 0-5.75-.6-9.03-1.83l71.9 137.76c5.32 10.26 18.89 10.26 23.29 0l77.15-178.63c3.21-7.52-2.64-16.03-9.37-13.6Z" style="fill:url(#Dégradé_sans_nom_11-2)"/><path d="M422.57 161.59s-19.21-3.68-34.54 25.68c0 0 7.96-27.43 18.11-31.3 9.46-3.6 16.44 5.62 16.44 5.62ZM471.57 153.16s11.13-9.29 30.58 9.67c0 0-14.09-19.81-21.87-19.65-7.26.15-8.71 9.97-8.71 9.97ZM402.72 239.38c-.42 2.26-3.68 2.31-4.13.06-2.34-11.63-2.21-26.02 11.13-29.74 13.77-3.84 21.96 9.17 26.35 20.47.86 2.2-1.98 3.88-3.58 2.14-4.36-4.75-10.5-8.52-18.36-6.33-7.32 2.04-10.34 7.64-11.4 13.4ZM486.9 217.65c-.37 1.92-3 1.83-3.34-.12-1.73-10.06-1.44-22.4 9.38-25.03 11.17-2.72 17.6 8.77 20.99 18.64.66 1.92-1.65 3.25-2.92 1.69-3.45-4.25-8.36-7.74-14.73-6.18-5.93 1.44-8.45 6.12-9.38 11.01Z" class="cls-4"/><path d="M632.67 227.22c9.43-5.42 10.92-11.95 10.51-16.46-.46-5.03-3.3-8.79-4.32-9.32-2.62.61-5.32 2.11-7.35 3.45.45.13.89.32 1.33.55 2.34 1.24 3.66 3.42 3.53 5.86-.25 5.08-7.26 7.32-7.56 7.41l-99.5 38.21 1.16 3.03 3.9 10.15c10.22-4.28 87.44-36.62 98.31-42.88Z" style="fill:url(#Dégradé_sans_nom_35)"/><path d="M441.09 129.15c5.33-2.96 10.45-6.4 15.33-10.33.73-.59.86-1.68.28-2.44l-3.21-4.24c-2.59 7.2-7.19 12.75-12.4 17.01Z" class="cls-5"/><path d="m481.07 278.79 2.83 7.36 48.27-15.25-5.02-13.08-46.08 20.97z" style="fill:#b0b0bf"/><path d="M492.63 286.13c-.23-.02-.44-.05-.66-.08l-6.26 1.98c1.85 1.2 4.07 1.91 6.64 2.09h.14a2.003 2.003 0 0 0 .14-4ZM484.24 274.79c.3-1.29.86-2.61 1.66-3.94.57-.94.27-2.17-.67-2.75a2.01 2.01 0 0 0-2.75.67c-1.6 2.64-2.44 5.33-2.51 7.96l4.26-1.94ZM478.5 297.94c-.46 0-.93-.16-1.31-.49-.83-.72-.92-1.99-.2-2.82 2.94-3.39 3.71-7.06 2.26-10.9-1.48-3.92-4.66-6.51-9.45-7.69a2.008 2.008 0 0 1-1.47-2.42c.26-1.07 1.35-1.72 2.42-1.47 6.06 1.49 10.29 5 12.24 10.16 1.97 5.25.94 10.41-2.98 14.93-.4.46-.95.69-1.51.69Z" class="cls-3"/><path d="M364.65 139.08c7.58 1.98 27.81 5.93 51.76-.13 8.75-2.39 29.54-9.96 35.45-28.96L437.15 90.6c-17.72 36.57-65.21 39.53-72.32 39.77l-1.45 6.6c-.2.94.36 1.86 1.27 2.11Z" class="cls-1"/><path d="m371.51 99.87-6.19 28.25c8.53-.36 53.93-3.96 70.31-39.53l-16.36-21.58c-12 28.51-42.29 32.39-47.75 32.86Z" class="cls-5"/><path d="m377.53 72.41-5.52 25.18c6.69-.69 34.93-5.2 45.69-32.63L405.06 48.3c-7.19 17.11-23.95 23.03-27.53 24.12Z" class="cls-1"/><path d="M393.35 32.85c-.83-1.09-2.03-1.68-3.33-1.68-.31 0-.64.04-.96.11-1.66.37-2.86 1.57-3.23 3.23l-7.75 35.35c5.06-1.82 19.53-8.24 25.39-23.65l-10.13-13.35Z" class="cls-5"/><path d="m721.32 90.12-7.22 7.24s-3.92-10.92-14.1-4.27l-2.56-6.59s12.62-7.96 23.87 3.62Z" style="fill:url(#Dégradé_sans_nom_11-3)"/><path d="m249.52 198.92 1.32-10.13s9.75 6.29 13.79-5.19l6.04 3.67s-5.17 13.99-21.15 11.65Z" style="fill:url(#Dégradé_sans_nom_11-4)"/><path d="m115.06 257.98-10.21.48s4.47-10.71-7.54-12.66l2.55-6.59s14.68 2.63 15.2 18.76Z" style="fill:url(#Dégradé_sans_nom_11-5)"/><path d="m190.5 309.63 8.97 4.89s-9.38 6.83-.13 14.73l-5.6 4.31s-11.18-9.87-3.24-23.93Z" style="fill:url(#Dégradé_sans_nom_11-6)"/><path d="m186.09 125.9-.84 10.19s-10.04-5.82-13.52 5.83l-6.21-3.38s4.51-14.22 20.57-12.64Z" style="fill:url(#Dégradé_sans_nom_11-7)"/><path d="m608.26 326.39 3.7-9.53s7.97 8.43 14.63-1.75l4.99 5s-8.36 12.35-23.32 6.27Z" style="fill:url(#Dégradé_sans_nom_11-8)"/><path d="m743.5 185.88 3.4 9.64s-11.54-1.2-9.95 10.86l-7.05-.54s-1.71-14.82 13.59-19.96Z" style="fill:url(#Dégradé_sans_nom_11-9)"/><path d="m553.33 66.92-7.47 6.97s-3.52-11.06-13.93-4.77l-2.32-6.67s12.9-7.5 23.73 4.47Z" style="fill:url(#Dégradé_sans_nom_11-10)"/><path d="m334.32 74.1-8.19-6.11s10.25-5.43 2.22-14.56l6.15-3.47s9.67 11.36-.19 24.15Z" style="fill:url(#Dégradé_sans_nom_11-11)"/><path d="m764.41 114.71.4 3.87 3.3 1.8c.4.22.38.8-.04.98l-3.43 1.52-.69 3.69c-.08.45-.64.6-.95.27l-2.51-2.79-3.72.48c-.45.06-.77-.43-.55-.82l1.88-3.25-1.61-3.39c-.2-.41.17-.87.61-.77l3.67.79 2.83-2.67c.29-.28.77-.1.81.3Z" style="fill:url(#Dégradé_sans_nom_11-12)"/><path d="m228.22 44.57.4 3.87 3.3 1.8c.4.22.38.8-.04.98l-3.43 1.52-.69 3.69c-.08.45-.64.6-.95.27l-2.51-2.79-3.72.48c-.45.06-.77-.43-.55-.82l1.88-3.25-1.61-3.39c-.2-.41.17-.87.61-.77l3.67.79 2.83-2.67c.29-.28.77-.1.81.3Z" style="fill:url(#Dégradé_sans_nom_11-13)"/><path d="m672.48 142.66-3.22 3.42.96 4.43a.66.66 0 0 1-.93.74l-4.1-1.93-3.92 2.28a.66.66 0 0 1-.99-.66l.57-4.5-3.38-3.02a.667.667 0 0 1 .32-1.15l4.46-.85 1.83-4.15c.22-.5.92-.53 1.19-.05l2.18 3.98 4.67.47c.48.05.7.63.37.98Z" style="fill:url(#Dégradé_sans_nom_11-14)"/><path d="m648.77 245.68 3.64 2.96 4.35-1.27c.53-.15 1 .36.81.88l-1.64 4.23 2.56 3.75c.31.45-.04 1.07-.58 1.04l-4.53-.25-2.77 3.59c-.34.44-1.03.3-1.17-.24l-1.16-4.38-4.27-1.53a.662.662 0 0 1-.14-1.18l3.81-2.46.14-4.69c.01-.48.58-.74.95-.44Z" style="fill:url(#Dégradé_sans_nom_11-15)"/><path d="m256.6 103.66 3.64 2.96 4.35-1.27c.53-.15 1 .36.81.88l-1.64 4.23 2.56 3.75c.31.45-.04 1.07-.58 1.04l-4.53-.25-2.77 3.59c-.34.44-1.03.3-1.17-.24l-1.16-4.38-4.27-1.53a.662.662 0 0 1-.14-1.18l3.81-2.46.14-4.69c.01-.48.58-.74.95-.44Z" style="fill:url(#Dégradé_sans_nom_11-16)"/><path d="m295.35 216.26 3.64 2.96 4.35-1.27c.53-.15 1 .36.81.88l-1.64 4.23 2.56 3.75c.31.45-.04 1.07-.58 1.04l-4.53-.25-2.77 3.59c-.34.44-1.03.3-1.17-.24l-1.16-4.38-4.27-1.53a.662.662 0 0 1-.14-1.18l3.81-2.46.14-4.69c.01-.48.58-.74.95-.44Z" style="fill:url(#Dégradé_sans_nom_11-17)"/><path d="m118.36 296.9 3.64 2.96 4.35-1.27c.53-.15 1 .36.81.88l-1.64 4.23 2.56 3.75c.31.45-.04 1.07-.58 1.04l-4.53-.25-2.77 3.59c-.34.44-1.03.3-1.17-.24l-1.16-4.38-4.27-1.53a.662.662 0 0 1-.14-1.18l3.81-2.46.14-4.69c.01-.48.58-.74.95-.44Z" style="fill:url(#Dégradé_sans_nom_11-18)"/><path d="m173.49 169.31 3.64 2.96 4.35-1.27c.53-.15 1 .36.81.88l-1.64 4.23 2.56 3.75c.31.45-.04 1.07-.58 1.04l-4.53-.25-2.77 3.59c-.34.44-1.03.3-1.17-.24l-1.16-4.38-4.27-1.53a.662.662 0 0 1-.14-1.18l3.81-2.46.14-4.69c.01-.48.58-.74.95-.44Z" style="fill:url(#Dégradé_sans_nom_11-19)"/><path d="m621.52 55.71.3 2.87 2.45 1.34c.3.16.28.59-.03.73l-2.55 1.13-.51 2.74c-.06.33-.48.45-.71.2l-1.87-2.08-2.77.36c-.34.04-.58-.32-.41-.61l1.4-2.42-1.2-2.52a.4.4 0 0 1 .45-.57l2.73.58 2.1-1.99c.22-.2.57-.07.61.22Z" style="fill:url(#Dégradé_sans_nom_11-20)"/><path d="m765.44 214.63.3 2.87 2.45 1.34c.3.16.28.59-.03.73l-2.55 1.13-.51 2.74c-.06.33-.48.45-.71.2l-1.87-2.08-2.77.36c-.34.04-.58-.32-.41-.61l1.4-2.42-1.2-2.52a.4.4 0 0 1 .45-.57l2.73.58 2.1-1.99c.22-.2.57-.07.61.22Z" style="fill:url(#Dégradé_sans_nom_11-21)"/><path d="m736 277.05.3 2.87 2.45 1.34c.3.16.28.59-.03.73l-2.55 1.13-.51 2.74c-.06.33-.48.45-.71.2l-1.87-2.08-2.77.36c-.34.04-.58-.32-.41-.61l1.4-2.42-1.2-2.52a.4.4 0 0 1 .45-.57l2.73.58 2.1-1.99c.22-.2.57-.07.61.22Z" style="fill:url(#Dégradé_sans_nom_11-22)"/><path d="m268.03 340.64.3 2.87 2.45 1.34c.3.16.28.59-.03.73l-2.55 1.13-.51 2.74c-.06.33-.48.45-.71.2l-1.87-2.08-2.77.36c-.34.04-.58-.32-.41-.61l1.4-2.42-1.2-2.52a.4.4 0 0 1 .45-.57l2.73.58 2.1-1.99c.22-.2.57-.07.61.22Z" style="fill:url(#Dégradé_sans_nom_11-23)"/><path d="m89.74 157.32.3 2.87 2.45 1.34c.3.16.28.59-.03.73l-2.55 1.13-.51 2.74c-.06.33-.48.45-.71.2l-1.87-2.08-2.77.36c-.34.04-.58-.32-.41-.61l1.4-2.42-1.2-2.52a.4.4 0 0 1 .45-.57l2.73.58 2.1-1.99c.22-.2.57-.07.61.22Z" style="fill:url(#Dégradé_sans_nom_11-24)"/><path d="m140.5 68.52.3 2.87 2.45 1.34c.3.16.28.59-.03.73l-2.55 1.13-.51 2.74c-.06.33-.48.45-.71.2l-1.87-2.08-2.77.36c-.34.04-.58-.32-.41-.61l1.4-2.42-1.2-2.52a.4.4 0 0 1 .45-.57l2.73.58 2.1-1.99c.22-.2.57-.07.61.22Z" style="fill:url(#Dégradé_sans_nom_11-25)"/><path d="m204.83 256.94 3.07 5.83 6.31.75c.77.09 1.09 1.02.56 1.57l-4.44 4.56 1.24 6.24c.15.76-.63 1.36-1.32 1.02l-5.7-2.81-5.55 3.1c-.67.38-1.49-.18-1.38-.95l.91-6.29-4.67-4.32a.929.929 0 0 1 .47-1.6l6.27-1.08 2.76-5.98c.28-.62 1.15-.64 1.47-.04Z" style="fill:url(#Dégradé_sans_nom_11-26)"/><path d="m557.93 165.48 39.25-21" style="stroke:url(#Dégradé_sans_nom_11-27);fill:none;stroke-linecap:round;stroke-linejoin:round;stroke-width:3.8px"/><path d="m560.32 191.65 43.78 8.05" style="stroke:url(#Dégradé_sans_nom_11-28);fill:none;stroke-linecap:round;stroke-linejoin:round;stroke-width:3.8px"/><path d="m537.37 149.12 17.29-41.02" style="fill:none;stroke-linecap:round;stroke-linejoin:round;stroke-width:3.8px;stroke:url(#Dégradé_sans_nom_11-29)"/></svg>