<svg xmlns="http://www.w3.org/2000/svg" xmlns:xlink="http://www.w3.org/1999/xlink" id="Calque_1" data-name="Calque 1" viewBox="0 0 841.89 595.28"><defs><linearGradient id="Dégradé_sans_nom_7" x1="441.78" x2="731.73" y1="63.28" y2="353.24" data-name="Dégradé sans nom 7" gradientUnits="userSpaceOnUse"><stop offset=".1" stop-color="#5b5a72"/><stop offset=".5" stop-color="#b0b0bf"/><stop offset=".96" stop-color="#f4f4f6"/></linearGradient><linearGradient xlink:href="#Dégradé_sans_nom_7" id="Dégradé_sans_nom_7-2" x1="399.39" x2="689.35" y1="105.67" y2="395.62" data-name="Dégradé sans nom 7"/><linearGradient id="Dégradé_sans_nom_26" x1="353.72" x2="424.1" y1="279.03" y2="279.03" data-name="Dégradé sans nom 26" gradientUnits="userSpaceOnUse"><stop offset="0" stop-color="#b0b0bf"/><stop offset="1" stop-color="#f4f4f6"/></linearGradient><linearGradient id="Dégradé_sans_nom_46" x1="462.99" x2="473.84" y1="159.68" y2="170.53" data-name="Dégradé sans nom 46" gradientUnits="userSpaceOnUse"><stop offset="0" stop-color="#5b5a72"/><stop offset="1" stop-color="#b0b0bf"/></linearGradient><linearGradient xlink:href="#Dégradé_sans_nom_46" id="Dégradé_sans_nom_46-2" x1="462.99" x2="473.84" y1="212.03" y2="222.89" data-name="Dégradé sans nom 46"/><linearGradient xlink:href="#Dégradé_sans_nom_46" id="Dégradé_sans_nom_46-3" x1="462.99" x2="473.84" y1="264.39" y2="275.24" data-name="Dégradé sans nom 46"/><linearGradient xlink:href="#Dégradé_sans_nom_26" id="Dégradé_sans_nom_26-2" x1="332.46" x2="405.42" y1="323.54" y2="323.54" data-name="Dégradé sans nom 26"/><linearGradient xlink:href="#Dégradé_sans_nom_46" id="Dégradé_sans_nom_46-4" x1="142.74" x2="240.37" y1="349.62" y2="447.24" data-name="Dégradé sans nom 46"/><linearGradient id="Dégradé_sans_nom_11" x1="195.39" x2="373.07" y1="270.48" y2="448.17" data-name="Dégradé sans nom 11" gradientUnits="userSpaceOnUse"><stop offset=".1" stop-color="#5b5a72"/><stop offset=".5" stop-color="#b0b0bf"/><stop offset=".96" stop-color="#f4f4f6"/></linearGradient><linearGradient xlink:href="#Dégradé_sans_nom_46" id="Dégradé_sans_nom_46-5" x1="376.04" x2="452.59" y1="245.49" y2="322.04" data-name="Dégradé sans nom 46"/><linearGradient xlink:href="#Dégradé_sans_nom_46" id="Dégradé_sans_nom_46-6" x1="459.04" x2="469.89" y1="320.7" y2="331.55" data-name="Dégradé sans nom 46"/><linearGradient xlink:href="#Dégradé_sans_nom_46" id="Dégradé_sans_nom_46-7" x1="233.9" x2="241.39" y1="394.01" y2="401.5" data-name="Dégradé sans nom 46" gradientTransform="scale(-1 1) rotate(-32.81 -247.821 1560.059)"/><linearGradient xlink:href="#Dégradé_sans_nom_7" id="Dégradé_sans_nom_7-3" x1="502.59" x2="792.54" y1="2.47" y2="292.43" data-name="Dégradé sans nom 7"/><linearGradient xlink:href="#Dégradé_sans_nom_7" id="Dégradé_sans_nom_7-4" x1="487.39" x2="777.34" y1="17.68" y2="307.63" data-name="Dégradé sans nom 7"/><linearGradient xlink:href="#Dégradé_sans_nom_7" id="Dégradé_sans_nom_7-5" x1="472.18" x2="762.14" y1="32.88" y2="322.83" data-name="Dégradé sans nom 7"/><linearGradient xlink:href="#Dégradé_sans_nom_7" id="Dégradé_sans_nom_7-6" x1="456.98" x2="746.93" y1="48.08" y2="338.04" data-name="Dégradé sans nom 7"/><linearGradient xlink:href="#Dégradé_sans_nom_7" id="Dégradé_sans_nom_7-7" x1="248.22" x2="456.95" y1="-3.06" y2="205.67" data-name="Dégradé sans nom 7"/><linearGradient xlink:href="#Dégradé_sans_nom_7" id="Dégradé_sans_nom_7-8" x1="167.37" x2="376.1" y1="77.79" y2="286.52" data-name="Dégradé sans nom 7"/><linearGradient xlink:href="#Dégradé_sans_nom_7" id="Dégradé_sans_nom_7-9" x1="174.77" x2="383.5" y1="70.38" y2="279.11" data-name="Dégradé sans nom 7"/><radialGradient id="Dégradé_sans_nom_17" cx="491.93" cy="545.83" r="125.81" data-name="Dégradé sans nom 17" fx="491.93" fy="545.83" gradientTransform="matrix(-1 .00035 .00004 .11 768.99 483.6)" gradientUnits="userSpaceOnUse"><stop offset=".4" stop-color="#353544" stop-opacity=".5"/><stop offset="1" stop-color="#353544" stop-opacity="0"/></radialGradient><radialGradient xlink:href="#Dégradé_sans_nom_17" id="Dégradé_sans_nom_17-2" cx="215.25" cy="545.83" r="125.81" data-name="Dégradé sans nom 17" fx="215.25" fy="545.83" gradientTransform="matrix(-1.39 .00024 .00002 .11 853.04 483.7)"/><style>.cls-1{stroke:#fff;stroke-width:3.82px;fill:none;stroke-linecap:round;stroke-linejoin:round}.cls-3,.cls-4{fill:#fff}.cls-5{fill:#b0b0bf}.cls-6{fill:#5b5a72}.cls-7{fill:#353544}.cls-4{opacity:.5}</style></defs><path d="M444.46 439.25c1 .96 2.09 1.85 3.26 2.65.04.03.08.05.11.08 1.12.75 2.34 1.43 3.65 2.01 3.16 1.43 6.55 2.15 10.08 2.15h205.78c13.64 0 24.74-11.11 24.74-24.76v-301.3c0-3.5-.72-6.89-2.13-10.09a28.13 28.13 0 0 0-2.09-3.76c-.8-1.18-1.7-2.28-2.67-3.29-.04-.16-.1-.33-.15-.49.74 2.56 1.12 5.19 1.12 7.89v301.31c0 15.75-12.81 28.57-28.55 28.57H451.83c-2.68 0-5.28-.37-7.79-1.09.14.04.28.09.43.13Z" class="cls-6"/><path d="M457.46 451.64s.08.05.11.08c1.12.75 2.34 1.43 3.65 2.01 3.16 1.43 6.55 2.15 10.08 2.15h205.78c13.64 0 24.74-11.11 24.74-24.76v-301.3c0-3.5-.72-6.89-2.13-10.08a28.13 28.13 0 0 0-2.09-3.76c-.8-1.18-1.7-2.27-2.67-3.28.64 2.4.98 4.87.98 7.39V421.4c0 15.76-12.81 28.58-28.56 28.58H461.57c-2.52 0-4.98-.33-7.36-.97 1 .96 2.09 1.85 3.26 2.64Z" class="cls-6"/><path d="M464.79 85.58c-.09.92-.16 1.84-.16 2.79 0 7.55 3.06 14.51 8 18.15 2.17 1.62 4.64 2.47 7.14 2.47h1.15c-2.8-6.26-4.3-13.36-4.3-20.63 0-.94.03-1.87.08-2.8h-11.92Z" style="fill:url(#Dégradé_sans_nom_7)"/><path d="M680.22 100.25c-.62-1.34-1.33-2.62-2.1-3.76-4.62-6.83-12.3-10.92-20.52-10.92h-40.78c-.09.92-.16 1.86-.16 2.81 0 7.55 3.06 14.51 8 18.15 2.17 1.62 4.64 2.47 7.14 2.47h1.13l.95.61c2.56 1.66 6.83 6.71 4.61 13.95-.55 1.76-1.44 3.53-2.64 5.27l-1.08 1.56-1.9.08-.9.04h-.16c-1.96 0-3.94-.22-5.86-.64-1.8-.39-3.6-.99-5.32-1.76-4.32-1.88-8.23-4.83-11.61-8.77-.12-.13-.22-.28-.33-.41.07 1.42-.08 2.96-.59 4.62-.55 1.76-1.44 3.53-2.64 5.27l-1.08 1.56-1.9.08-.9.04h-.16c-1.96 0-3.94-.22-5.86-.64-1.8-.39-3.6-.99-5.32-1.76-4.32-1.88-8.23-4.83-11.61-8.77-.12-.13-.22-.28-.33-.41.07 1.42-.08 2.96-.59 4.62-.55 1.76-1.44 3.53-2.64 5.27l-1.08 1.56-1.9.08-.9.04h-.16c-1.96 0-3.94-.22-5.86-.64-1.8-.39-3.6-.99-5.32-1.76-4.32-1.88-8.23-4.83-11.61-8.77-.12-.13-.22-.28-.33-.41.07 1.42-.08 2.96-.59 4.62-.55 1.76-1.44 3.53-2.64 5.27l-1.08 1.56-1.9.08-.9.04h-.16c-1.96 0-3.94-.22-5.86-.64-1.8-.39-3.6-.99-5.32-1.76-4.32-1.88-8.23-4.83-11.61-8.77-.12-.13-.22-.28-.33-.41.07 1.42-.08 2.96-.59 4.62-.55 1.76-1.44 3.53-2.64 5.27l-1.08 1.56-1.9.08-.9.04h-.16c-1.96 0-3.94-.22-5.86-.64-1.8-.39-3.6-.99-5.32-1.76-4.32-1.88-8.23-4.83-11.61-8.77-.12-.13-.22-.28-.33-.41.07 1.42-.08 2.96-.59 4.62-.55 1.76-1.44 3.53-2.64 5.27l-1.08 1.56-1.9.08-.9.04h-.16c-1.96 0-3.94-.22-5.86-.64-1.8-.39-3.6-.99-5.32-1.76-4.32-1.88-8.23-4.83-11.61-8.77-2.33-2.69-4.32-5.77-5.92-9.14-3.16-6.56-4.83-14.11-4.83-21.85 0-.74.02-1.47.05-2.2-11.07 2.47-19.2 12.29-19.2 24.16v157.11c4.57 1.67 9.04 5.61 11 9.23.93 1.71.99 3.69.25 5.58l16.48 10.92s.05.05.08.07c.14.1.28.22.41.35.08.08.17.15.24.23.02.02.05.04.07.06l16.53 19.77 4.86 5.82a4.626 4.626 0 0 1 .65 4.98 4.698 4.698 0 0 1-4.23 2.7c-.42 0-.85-.06-1.26-.17l-7.31-2.03-24.84-6.89s-.02 0-.03-.01c-.2-.06-.39-.13-.58-.22l-.15-.09c-.1-.05-.2-.1-.29-.16l-13.76-9.13 1.9 1.26v101.9c0 8.23 4.08 15.91 10.9 20.53.04.03.08.06.12.08 1.11.75 2.34 1.43 3.65 2.01 3.17 1.43 6.56 2.15 10.08 2.15h205.78c13.65 0 24.75-11.11 24.75-24.77v-301.2c0-3.5-.72-6.89-2.13-10.09Z" style="fill:url(#Dégradé_sans_nom_7-2)"/><path d="M419.51 271.76s-7.89 10.55-2.3 14.73 20.26-3.11 17.59-8.03c-2.67-4.92-11.69-10.9-15.29-6.69Z" style="fill:url(#Dégradé_sans_nom_26)"/><path d="M485.89 210.7v21.66a6.62 6.62 0 0 1-6.63 6.63H457.6c-3.67 0-6.65-2.96-6.65-6.63V210.7c0-3.67 2.98-6.63 6.65-6.63h21.66a6.62 6.62 0 0 1 6.63 6.63ZM485.89 158.34V180a6.62 6.62 0 0 1-6.63 6.63H457.6c-3.67 0-6.65-2.96-6.65-6.63v-21.66c0-3.67 2.98-6.63 6.65-6.63h21.66a6.62 6.62 0 0 1 6.63 6.63Z" class="cls-3"/><path d="M479.25 186.63h-21.66c-3.67 0-6.65-2.96-6.65-6.63v-21.66c0-3.67 2.98-6.63 6.65-6.63h21.66a6.62 6.62 0 0 1 6.63 6.63V180a6.62 6.62 0 0 1-6.63 6.63Z" class="cls-3"/><path d="M499.42 160.94h89.03M499.42 177.4h153" class="cls-1"/><path d="m465.39 178.98-9.5-9.5c-.75-.75-.75-1.96 0-2.7.75-.75 1.96-.75 2.7 0l6.79 6.79 12.83-12.83c.75-.75 1.96-.75 2.7 0 .75.75.75 1.96 0 2.7l-15.54 15.54Z" style="fill:url(#Dégradé_sans_nom_46)"/><path d="M479.25 238.99h-21.66c-3.67 0-6.65-2.96-6.65-6.63V210.7c0-3.67 2.98-6.63 6.65-6.63h21.66a6.62 6.62 0 0 1 6.63 6.63v21.66a6.62 6.62 0 0 1-6.63 6.63Z" class="cls-3"/><path d="M499.42 213.3h89.03M499.42 229.76h153" class="cls-1"/><path d="m465.39 231.32-9.49-9.5c-.75-.75-.75-1.96 0-2.7.75-.75 1.96-.75 2.7 0l6.79 6.79 12.83-12.82c.75-.75 1.96-.75 2.7 0 .75.75.75 1.96 0 2.7l-15.54 15.52Z" style="fill:url(#Dégradé_sans_nom_46-2)"/><rect width="34.94" height="34.94" x="450.95" y="256.42" class="cls-3" rx="3.47" ry="3.47"/><rect width="34.94" height="34.94" x="450.95" y="361.14" class="cls-3" rx="3.47" ry="3.47"/><path d="M499.43 265.66h89.03M499.43 282.12h152.98M499.43 318.02h89.03M499.43 334.48h152.98M499.43 370.38h89.03M499.43 386.84h152.98" class="cls-1"/><path d="m465.4 283.69-9.5-9.5c-.75-.75-.75-1.96 0-2.7.75-.75 1.96-.75 2.7 0l6.79 6.79 12.83-12.83c.75-.75 1.96-.75 2.7 0 .75.75.75 1.96 0 2.7l-15.53 15.53Z" style="fill:url(#Dégradé_sans_nom_46-3)"/><ellipse cx="277.08" cy="545.83" rx="127.82" ry="15.53" style="fill:url(#Dégradé_sans_nom_17)"/><ellipse cx="553.76" cy="545.83" rx="177.74" ry="15.53" style="fill:url(#Dégradé_sans_nom_17-2)"/><path d="M394.09 287.87c-6.32 4.47-12.94 9.62-19.65 15.41 2.27 3.87 2.6 8.78.79 13.03l-18.53 42.9c9.39-4.12 22.89-14.48 41.28-31.54 8.63-8 15.89-15.7 21.83-22.75l-25.72-17.06Z" style="fill:url(#Dégradé_sans_nom_26-2)"/><path d="M221.27 336.84s-19.89-8.81-40.2 35.23c-20.31 44.04-25.17 89.21-15.94 92.18 6.97 2.24 26.62-33.38 47.53-70.62 21.49-38.26 19.44-52.13 8.6-56.78Z" style="fill:url(#Dégradé_sans_nom_46-4)"/><path d="m362.66 301.55-52.48 24.95-4.92 71.8c-.37 5.27-5.1 5.27-5.55 0l-5.89-71.8-100.28-24.95c-7.94-2.38-14.85 5.94-10.99 13.29l14.1 27.02c.92-.87 1.84-1.69 2.78-2.44 7.17-5.79 13.42-7 17.4-7 3.41 0 5.53.86 5.88 1.02 4.57 1.96 7.65 5.19 9.15 9.61 3.07 9.05-.61 23.22-11.53 44.18l53.32 102.17c5.2 10.02 18.46 10.02 22.76 0l75.39-174.55c3.13-7.35-2.58-15.67-9.15-13.29Z" style="fill:url(#Dégradé_sans_nom_11)"/><path d="m461.49 320.2-16.96-4.7c.03-.11.08-.21.1-.32 1.77-9.72 10.17-15.82 10.25-15.88.08-.06.15-.12.23-.19l11.46 13.71s-3.84 1.2-5.09 7.37Z" class="cls-5"/><path d="m386.24 251.62 29.03 19.81c-.75 1.21-1.7 2.88-2.44 4.73-3.15 7.8 0 11.68 2.17 13.29 1.76 1.32 4 1.98 6.66 1.98 5.21 0 11.3-2.64 14.6-6.09l16.48 10.93s-9.67 6.81-11.76 18.24l-66.44-44.62s7.44-8.38 11.69-18.28Z" style="fill:url(#Dégradé_sans_nom_46-5)"/><path d="M473.4 327.18c-.42 0-.85-.06-1.26-.17l-2.44-.68-4.3 4.31-6.79-6.79c-.75-.75-1.96-.75-2.7 0-.75.75-.75 1.96 0 2.7l9.5 9.5 8.98-8.98c-.32.07-.64.12-.98.12Z" style="fill:url(#Dégradé_sans_nom_46-6)"/><path d="M465.82 321.4c.2-3.74 3.45-5.35 3.45-5.35l4.86 5.82c.61.73-.09 1.8-1 1.55l-7.31-2.03Z" style="fill:url(#Dégradé_sans_nom_46-7)"/><path d="M482.42 308.78h-14.39l4.09 4.89 4.86 5.82a4.626 4.626 0 0 1 .65 4.98 4.698 4.698 0 0 1-4.23 2.7c-.42 0-.85-.06-1.26-.17l-7.31-2.03-13.88-3.85v19.11c0 1.92 1.55 3.47 3.47 3.47h27.99c1.92 0 3.47-1.55 3.47-3.47v-27.99c0-1.92-1.55-3.47-3.47-3.47Z" class="cls-3"/><path d="M474.73 126.16c1.64.36 3.33.55 5.05.55l.9-.04c1.07-1.55 1.74-2.96 2.14-4.24 1.95-6.37-3.04-9.6-3.04-9.6-3.42 0-6.65-1.17-9.42-3.23-5.7-4.21-9.54-12.12-9.54-21.22 0-13.5 8.49-24.43 18.96-24.43 9.16 0 16.8 8.62 18.58 19.77h10.94c-1.53-19.33-14.13-33.65-29.52-33.65-16.42 0-29.73 17.15-29.73 38.31 0 7.42 1.62 14.32 4.45 20.19 1.47 3.1 3.29 5.89 5.37 8.3 2.94 3.42 6.42 6.1 10.25 7.76 1.49.67 3.02 1.19 4.61 1.53Z" class="cls-5"/><path d="M505.13 126.16c1.64.36 3.33.55 5.05.55l.9-.04c1.07-1.55 1.74-2.96 2.14-4.24 1.95-6.37-3.04-9.6-3.04-9.6-3.42 0-6.65-1.17-9.42-3.23-5.7-4.21-9.54-12.12-9.54-21.22 0-13.5 8.49-24.43 18.96-24.43 9.16 0 16.8 8.62 18.58 16.89h10.94c-1.53-16.45-14.13-30.77-29.52-30.77-16.42 0-29.73 17.15-29.73 38.31 0 7.42 1.62 14.32 4.45 20.19 1.47 3.1 3.29 5.89 5.37 8.3 2.94 3.42 6.42 6.1 10.25 7.76 1.49.67 3.02 1.19 4.61 1.53Z" class="cls-5"/><path d="M535.54 126.16c1.64.36 3.33.55 5.05.55l.9-.04c1.07-1.55 1.74-2.96 2.14-4.24 1.95-6.37-3.04-9.6-3.04-9.6-3.42 0-6.65-1.17-9.42-3.23-5.7-4.21-9.54-12.12-9.54-21.22 0-13.5 8.49-24.43 18.96-24.43 9.16 0 16.8 8.62 18.58 16.89h10.94c-1.53-16.45-14.13-30.77-29.52-30.77-16.42 0-29.73 17.15-29.73 38.31 0 7.42 1.62 14.32 4.45 20.19 1.47 3.1 3.29 5.89 5.37 8.3 2.94 3.42 6.42 6.1 10.25 7.76 1.49.67 3.02 1.19 4.61 1.53Z" class="cls-5"/><path d="M565.94 126.16c1.64.36 3.33.55 5.05.55l.9-.04c1.07-1.55 1.74-2.96 2.14-4.24 1.95-6.37-3.04-9.6-3.04-9.6-3.42 0-6.65-1.17-9.42-3.23-5.7-4.21-9.54-12.12-9.54-21.22 0-13.5 8.49-24.43 18.96-24.43 9.16 0 16.8 8.62 18.58 16.89h10.94c-1.53-16.45-14.13-30.77-29.52-30.77-16.42 0-29.73 17.15-29.73 38.31 0 7.42 1.62 14.32 4.45 20.19 1.47 3.1 3.29 5.89 5.37 8.3 2.94 3.42 6.42 6.1 10.25 7.76 1.49.67 3.02 1.19 4.61 1.53Z" class="cls-5"/><path d="M596.35 126.16c1.64.36 3.33.55 5.05.55l.9-.04c1.07-1.55 1.74-2.96 2.14-4.24 1.95-6.37-3.04-9.6-3.04-9.6-3.42 0-6.65-1.17-9.42-3.23-5.7-4.21-9.54-12.12-9.54-21.22 0-13.5 8.49-24.43 18.96-24.43 9.16 0 16.8 8.62 18.58 16.89h10.94c-1.53-16.45-14.13-30.77-29.52-30.77-16.42 0-29.73 17.15-29.73 38.31 0 7.42 1.62 14.32 4.45 20.19 1.47 3.1 3.29 5.89 5.37 8.3 2.94 3.42 6.42 6.1 10.25 7.76 1.49.67 3.02 1.19 4.61 1.53Z" class="cls-5"/><path d="M626.75 126.16c1.64.36 3.33.55 5.05.55l.9-.04c1.07-1.55 1.74-2.96 2.14-4.24 1.95-6.37-3.04-9.6-3.04-9.6-3.42 0-6.65-1.17-9.42-3.23-5.7-4.21-9.54-12.12-9.54-21.22 0-13.5 8.49-24.43 18.96-24.43 9.16 0 16.8 8.62 18.58 16.89h10.94c-1.53-16.45-14.13-30.77-29.52-30.77-16.42 0-29.73 17.15-29.73 38.31 0 7.42 1.62 14.32 4.45 20.19 1.47 3.1 3.29 5.89 5.37 8.3 2.94 3.42 6.42 6.1 10.25 7.76 1.49.67 3.02 1.19 4.61 1.53Z" class="cls-5"/><path d="M586.41 85.57c-.09.92-.16 1.85-.16 2.81 0 7.55 3.06 14.51 8 18.15 2.17 1.62 4.64 2.47 7.14 2.47h1.13l.02.01c-2.8-6.27-4.3-13.37-4.3-20.64 0-.94.03-1.88.08-2.81H586.4Z" style="fill:url(#Dégradé_sans_nom_7-3)"/><path d="M556 85.58c-.09.92-.16 1.85-.16 2.8 0 7.55 3.06 14.51 8 18.15 2.17 1.62 4.64 2.47 7.14 2.47h1.13l.02.01c-2.8-6.27-4.3-13.37-4.3-20.64 0-.94.03-1.88.08-2.8h-11.92Z" style="fill:url(#Dégradé_sans_nom_7-4)"/><path d="M525.6 85.58c-.09.92-.16 1.85-.16 2.8 0 7.55 3.06 14.51 8 18.15 2.17 1.62 4.64 2.47 7.14 2.47h1.13l.02.01c-2.8-6.27-4.3-13.37-4.3-20.64 0-.94.03-1.87.08-2.8h-11.92Z" style="fill:url(#Dégradé_sans_nom_7-5)"/><path d="M495.2 85.58c-.09.92-.16 1.85-.16 2.8 0 7.55 3.06 14.51 8 18.15 2.17 1.62 4.64 2.47 7.14 2.47h1.13l.02.01c-2.8-6.27-4.3-13.37-4.3-20.64 0-.94.03-1.87.08-2.8h-11.92Z" style="fill:url(#Dégradé_sans_nom_7-6)"/><path d="m383.13 110.05-7.57 55.45c4.21 14.33 5.54 30.08 3.33 46.2l13.71-100.43c5.02-3.78 9.52-13.69 11.17-25.78 2.19-16.05-2.53-22.46-9.34-23.39s-13.08 3.98-15.27 20.03c-1.65 12.09.09 22.92 3.97 27.92Z" style="fill:url(#Dégradé_sans_nom_7-7)"/><path d="M356.75 209.19c3.67-26.85-11.43-51.02-33.63-54.05-22.26-3.04-43.22 16.21-46.89 43.06-3.65 26.78 11.38 50.94 33.64 53.97 22.2 3.03 43.22-16.21 46.88-42.98ZM303.76 96c40.68 5.55 72.66 33.67 85.16 70 5.14 15.01 6.95 31.45 4.66 48.22-7.83 57.38-60.75 97.59-118.21 89.75-57.45-7.84-97.66-60.76-89.83-118.14 2.29-16.77 8.43-32.12 17.41-45.21 21.78-31.65 60.13-50.17 100.81-44.61Z" style="fill:url(#Dégradé_sans_nom_7-8)"/><path d="M282.42 227.05c5.74-4.4 10.32-13.21 12.11-26.38 2.88-21.08-4.1-33.29-14.57-34.72-10.47-1.43-20.46 8.47-23.34 29.55-1.83 13.39.32 23.2 4.82 28.95 0 0 9.11 10.55 20.98 2.61Z" class="cls-7"/><ellipse cx="281.27" cy="190.21" class="cls-4" rx="3.06" ry="4.45" transform="rotate(-82.23 281.258 190.21)"/><ellipse cx="275.81" cy="179.99" class="cls-4" rx="5.97" ry="6.8" transform="rotate(-82.23 275.795 179.991)"/><path d="M359.4 235.4c4.7-4.06 8.56-12.24 10.23-24.49 2.63-19.3-2.67-30.33-10.91-31.46-8.24-1.13-16.31 8.08-18.94 27.38-1.6 11.72.18 21.08 3.32 26.34 0 0 6.44 10.37 16.31 2.23Z" class="cls-7"/><ellipse cx="359.34" cy="201.59" class="cls-4" rx="2.8" ry="3.5" transform="rotate(-82.23 359.327 201.598)"/><ellipse cx="355.2" cy="192.36" class="cls-4" rx="5.46" ry="5.35" transform="rotate(-82.23 355.186 192.362)"/><path d="M319.11 263.45s-2.67 9.92-9.51 9.81c-10.93-.17-11.66-12.7-11.66-12.7" style="stroke:#5b5a72;stroke-width:3.71px;fill:none;stroke-linecap:round;stroke-linejoin:round"/><path d="m214.39 84.25-14.14 103.58c2.29-16.77 8.43-32.12 17.41-45.21l7.75-56.79c5.85-3.85 11-14.16 12.72-26.74 2.28-16.7-3.35-23.76-11.22-24.84-7.94-1.08-15.19 4.22-17.47 20.92-1.72 12.58.42 23.81 4.95 29.08Z" style="fill:url(#Dégradé_sans_nom_7-9)"/><path d="M302.64 143.16s-15.28-11.48-41.35 7.69c0 0 18.78-20.65 29.34-19.69 9.85.9 12.01 12 12.01 12ZM350.04 150.57s12.85-5.96 26.42 16.86c0 0-8.29-22.26-15.68-24.07-6.89-1.69-10.75 7.21-10.75 7.21Z" class="cls-7"/></svg>