<svg xmlns="http://www.w3.org/2000/svg" xmlns:xlink="http://www.w3.org/1999/xlink" id="Calque_1" data-name="Calque 1" viewBox="0 0 841.89 595.28"><defs><linearGradient id="Dégradé_sans_nom_11" x1="531.95" x2="565.99" y1="215.13" y2="249.17" data-name="Dégradé sans nom 11" gradientUnits="userSpaceOnUse"><stop offset=".1" stop-color="#5b5a72"/><stop offset=".5" stop-color="#b0b0bf"/><stop offset=".96" stop-color="#f4f4f6"/></linearGradient><linearGradient xlink:href="#Dégradé_sans_nom_11" id="Dégradé_sans_nom_11-2" x1="307.19" x2="338.1" y1="140.67" y2="171.58" data-name="Dégradé sans nom 11" gradientTransform="rotate(-15.54 567.765 346.03)"/><linearGradient xlink:href="#Dégradé_sans_nom_11" id="Dégradé_sans_nom_11-3" x1="437.51" x2="473.43" y1="105.08" y2="141" data-name="Dégradé sans nom 11" gradientTransform="rotate(-15.29 583.721 352.294)"/><linearGradient xlink:href="#Dégradé_sans_nom_11" id="Dégradé_sans_nom_11-4" x1="291.32" x2="343.98" y1="81.72" y2="134.38" data-name="Dégradé sans nom 11"/><linearGradient xlink:href="#Dégradé_sans_nom_11" id="Dégradé_sans_nom_11-5" x1="446.23" x2="494.04" y1="166.86" y2="214.67" data-name="Dégradé sans nom 11" gradientTransform="rotate(25.35 600.29 350.108)"/><linearGradient xlink:href="#Dégradé_sans_nom_11" id="Dégradé_sans_nom_11-6" x1="339.52" x2="395.09" y1="115.92" y2="171.5" data-name="Dégradé sans nom 11" gradientTransform="rotate(22.51 598.473 352.32)"/><linearGradient xlink:href="#Dégradé_sans_nom_11" id="Dégradé_sans_nom_11-7" x1="353.55" x2="484.21" y1="227.12" y2="357.78" data-name="Dégradé sans nom 11"/><linearGradient id="Dégradé_sans_nom_26" x1="502.69" x2="586.54" y1="401.14" y2="317.29" data-name="Dégradé sans nom 26" gradientUnits="userSpaceOnUse"><stop offset="0" stop-color="#b0b0bf"/><stop offset="1" stop-color="#f4f4f6"/></linearGradient><linearGradient id="Dégradé_sans_nom_46" x1="339.97" x2="260.3" y1="401.14" y2="321.48" data-name="Dégradé sans nom 46" gradientUnits="userSpaceOnUse"><stop offset="0" stop-color="#5b5a72"/><stop offset="1" stop-color="#b0b0bf"/></linearGradient><linearGradient xlink:href="#Dégradé_sans_nom_11" id="Dégradé_sans_nom_11-8" x1="363.98" x2="484.36" y1="350.2" y2="470.58" data-name="Dégradé sans nom 11"/><linearGradient xlink:href="#Dégradé_sans_nom_11" id="Dégradé_sans_nom_11-9" x1="345.81" x2="491.02" y1="235.59" y2="380.8" data-name="Dégradé sans nom 11"/><linearGradient xlink:href="#Dégradé_sans_nom_11" id="Dégradé_sans_nom_11-10" x1="413.66" x2="557.69" y1="150.51" y2="294.54" data-name="Dégradé sans nom 11"/><radialGradient id="Dégradé_sans_nom_17" cx="706.02" cy="549.64" r="94.16" data-name="Dégradé sans nom 17" fx="706.02" fy="549.64" gradientTransform="matrix(1.45 .00025 -.00002 .11 -599.15 486.9)" gradientUnits="userSpaceOnUse"><stop offset=".4" stop-color="#353544" stop-opacity=".5"/><stop offset="1" stop-color="#353544" stop-opacity="0"/></radialGradient><style>.cls-2{fill:#353544}.cls-16{fill:#fff;opacity:.5}</style></defs><path d="M549.73 212.46c11.3 0 20.47 9.16 20.47 20.46s-9.17 20.47-20.47 20.47-20.46-9.17-20.46-20.47 9.16-20.46 20.46-20.46Zm9.42 20.46c0-5.2-4.22-9.42-9.42-9.42s-9.42 4.22-9.42 9.42 4.22 9.42 9.42 9.42 9.42-4.22 9.42-9.42Z" style="fill:url(#Dégradé_sans_nom_11)"/><path d="m300.77 234.84-34.09 9.48c-1.64.46-3.4 0-4.61-1.19a4.786 4.786 0 0 1-1.28-4.59l8.84-34.26a4.78 4.78 0 0 1 3.34-3.4c1.64-.46 3.4 0 4.61 1.19l25.25 24.78a4.786 4.786 0 0 1 1.28 4.59 4.78 4.78 0 0 1-3.34 3.4Zm-28.69-1.91 18.19-5.06-13.47-13.22-4.71 18.28Z" style="fill:url(#Dégradé_sans_nom_11-2)"/><path d="m418.81 179.73-28.34 7.75a4.64 4.64 0 0 1-5.69-3.24l-7.75-28.34a4.64 4.64 0 0 1 3.24-5.69l28.34-7.75a4.64 4.64 0 0 1 5.69 3.24l7.75 28.34a4.64 4.64 0 0 1-3.24 5.69Zm-26.31-2.4 19.41-5.31-5.31-19.41-19.41 5.31 5.31 19.41Z" style="fill:url(#Dégradé_sans_nom_11-3)"/><path d="M318.84 77.58c17.48 0 31.67 14.17 31.67 31.65s-14.19 31.67-31.67 31.67-31.65-14.19-31.65-31.67 14.17-31.65 31.65-31.65Zm14.57 31.65c0-8.05-6.53-14.57-14.57-14.57s-14.57 6.53-14.57 14.57 6.53 14.57 14.57 14.57 14.57-6.53 14.57-14.57Z" style="fill:url(#Dégradé_sans_nom_11-4)"/><path d="m568.16 177.83-49.46-23.44a7.367 7.367 0 0 1-4.19-6.06 7.38 7.38 0 0 1 3.16-6.66l45.03-31.12a7.39 7.39 0 0 1 7.35-.6 7.367 7.367 0 0 1 4.19 6.06l4.43 54.56a7.38 7.38 0 0 1-3.16 6.66 7.39 7.39 0 0 1-7.35.6Zm-31.62-31.29 26.39 12.5-2.37-29.11-24.02 16.6Z" style="fill:url(#Dégradé_sans_nom_11-5)"/><path d="m474.32 107.42-41.99-17.4a7.157 7.157 0 0 1-3.87-9.36l17.4-41.99a7.157 7.157 0 0 1 9.36-3.87l41.99 17.4a7.157 7.157 0 0 1 3.87 9.36l-17.4 41.99a7.157 7.157 0 0 1-9.36 3.87Zm-29.89-27.89 28.75 11.92L485.1 62.7l-28.75-11.92-11.92 28.75Z" style="fill:url(#Dégradé_sans_nom_11-6)"/><ellipse cx="421.81" cy="549.64" rx="138.34" ry="11.62" style="fill:url(#Dégradé_sans_nom_17)"/><path d="M421.83 247.94c-20.28 0-36.68 13.08-36.68 29.22s16.39 29.26 36.68 29.26 36.68-13.08 36.68-29.26-16.45-29.22-36.68-29.22Zm-70.24 82.72c-5.33-10.61-8.34-22.62-8.34-35.29 0-43.35 35.18-78.52 78.58-78.52s78.58 35.18 78.58 78.52c0 12.67-3 24.67-8.34 35.29-12.95 25.67-39.51 43.29-70.24 43.29s-57.29-17.62-70.24-43.29Z" style="fill:url(#Dégradé_sans_nom_11-7)"/><path d="M510.46 395.13c8.8 1.3 21.69-.02 34.24-13.31 16.08-17 29.92-55.09 36.28-74.5.92-2.77-2.64-4.75-4.58-2.58l-69.95 79.14c-3.59 4.03-1.28 10.47 4.02 11.26Z" style="fill:url(#Dégradé_sans_nom_26)"/><path d="M332.2 395.13c-8.8 1.3-21.69-.02-34.24-13.31-16.08-17-29.92-55.09-36.28-74.5-.92-2.77 2.64-4.75 4.58-2.58l69.95 79.14c3.59 4.03 1.28 10.47-4.02 11.26Z" style="fill:url(#Dégradé_sans_nom_46)"/><path d="M491.05 369.97c5.95-1.78 11.11 4.45 8.22 9.95l-68.19 130.65c-3.89 7.5-14.67 7.5-18.56 0l-68.19-130.65c-2.83-5.5 2.33-11.73 8.28-9.95l61.52 18.67 4.45 53.74c.33 3.95 6.11 3.95 6.45 0l4.45-53.74 61.57-18.67Z" style="fill:url(#Dégradé_sans_nom_11-8)"/><path d="M351.57 217.21v42.9c-5.33 10.61-8.34 22.62-8.34 35.29v-78.24c-3.89-3.45-6.61-11.56-6.61-21.06 0-12.61 4.83-17.28 10.84-17.28s10.84 4.67 10.84 17.28c0 9.5-2.78 17.67-6.72 21.12Z" style="fill:url(#Dégradé_sans_nom_11-9)"/><path d="M500.39 217.15v78.24c0-12.67-3-24.67-8.34-35.29v-42.9c-3.95-3.45-6.72-11.61-6.72-21.12 0-12.61 4.89-17.28 10.84-17.28s10.84 4.67 10.84 17.28c0 9.5-2.72 17.62-6.61 21.06Z" style="fill:url(#Dégradé_sans_nom_11-10)"/><path d="M406.06 312.72h31.51s-.66 24.42-15.76 24.42-15.76-24.42-15.76-24.42Z" style="fill:#5b5a72"/><path d="M465.84 295.4c3.91-3.8 6.5-10.86 6.5-20.98 0-15.92-6.41-24.27-14.32-24.27s-14.32 8.35-14.32 24.27c0 9.95 2.5 16.95 6.31 20.79 0 0 8.07-3.23 15.82.19Z" class="cls-2"/><ellipse cx="454.6" cy="268.01" class="cls-16" rx="3.33" ry="2.29"/><ellipse cx="459.69" cy="260.99" class="cls-16" rx="5.09" ry="4.47"/><path d="M393.35 295.4c3.91-3.8 6.5-10.86 6.5-20.98 0-15.92-6.41-24.27-14.32-24.27s-14.32 8.35-14.32 24.27c0 9.95 2.5 16.95 6.31 20.79 0 0 8.07-3.23 15.82.19Z" class="cls-2"/><ellipse cx="382.11" cy="268.01" class="cls-16" rx="3.33" ry="2.29"/><ellipse cx="387.2" cy="260.99" class="cls-16" rx="5.09" ry="4.47"/><path d="M443.71 226.05s13.17-4.71 28.64 11.06c0 0-9.89-15.56-17.74-16.58-7.32-.96-10.9 5.53-10.9 5.53ZM399.85 226.05s-13.17-4.71-28.64 11.06c0 0 9.89-15.56 17.74-16.58 7.32-.96 10.9 5.53 10.9 5.53Z" class="cls-2"/></svg>