<svg xmlns="http://www.w3.org/2000/svg" xmlns:xlink="http://www.w3.org/1999/xlink" id="Calque_1" data-name="Calque 1" viewBox="0 0 841.89 595.28"><defs><linearGradient id="Dégradé_sans_nom_11" x1="191.13" x2="368.93" y1="68.63" y2="246.44" data-name="Dégradé sans nom 11" gradientUnits="userSpaceOnUse"><stop offset=".1" stop-color="#5b5a72"/><stop offset=".5" stop-color="#b0b0bf"/><stop offset=".96" stop-color="#f4f4f6"/></linearGradient><linearGradient xlink:href="#Dégradé_sans_nom_11" id="Dégradé_sans_nom_11-2" x1="206.58" x2="370.13" y1="282.08" y2="445.63" data-name="Dégradé sans nom 11"/><linearGradient xlink:href="#Dégradé_sans_nom_11" id="Dégradé_sans_nom_11-3" x1="239.67" x2="519.11" y1="-18.51" y2="260.93" data-name="Dégradé sans nom 11"/><linearGradient id="Dégradé_secondaire1" x1="156.04" x2="169.1" y1="231.79" y2="371.44" data-name="Dégradé secondaire1" gradientTransform="rotate(-12.82 195.866 297.638)" gradientUnits="userSpaceOnUse"><stop offset="0" stop-color="#5b5a72"/><stop offset="1" stop-color="#b0b0bf"/></linearGradient><linearGradient xlink:href="#Dégradé_sans_nom_11" id="Dégradé_sans_nom_11-4" x1="135.39" x2="289.96" y1="98.56" y2="253.12" data-name="Dégradé sans nom 11"/><linearGradient xlink:href="#Dégradé_sans_nom_11" id="Dégradé_sans_nom_11-5" x1="136.04" x2="415.49" y1="85.11" y2="364.56" data-name="Dégradé sans nom 11"/><linearGradient xlink:href="#Dégradé_secondaire1" id="Dégradé_secondaire1-2" x1="162.31" x2="134.78" y1="231.91" y2="231.91" data-name="Dégradé secondaire1"/><linearGradient xlink:href="#Dégradé_sans_nom_11" id="Dégradé_sans_nom_11-6" x1="216.18" x2="329.13" y1="299.23" y2="412.19" data-name="Dégradé sans nom 11"/><linearGradient id="Dégradé_sans_nom_10" x1="322.02" x2="210.39" y1="299.77" y2="411.41" data-name="Dégradé sans nom 10" gradientUnits="userSpaceOnUse"><stop offset="0" stop-color="#b0b0bf"/><stop offset="1" stop-color="#f4f4f6"/></linearGradient><linearGradient xlink:href="#Dégradé_sans_nom_10" id="Dégradé_sans_nom_10-2" x1="607.17" x2="695.41" y1="469.48" y2="557.71" data-name="Dégradé sans nom 10"/><linearGradient xlink:href="#Dégradé_sans_nom_11" id="Dégradé_sans_nom_11-7" x1="453.99" x2="655.31" y1="181.29" y2="382.61" data-name="Dégradé sans nom 11"/><linearGradient xlink:href="#Dégradé_secondaire1" id="Dégradé_secondaire1-3" x1="488" x2="488" y1="482.95" y2="355.03" data-name="Dégradé secondaire1"/><linearGradient xlink:href="#Dégradé_secondaire1" id="Dégradé_secondaire1-4" x1="449.54" x2="522.46" y1="326.19" y2="399.11" data-name="Dégradé secondaire1"/><linearGradient xlink:href="#Dégradé_sans_nom_11" id="Dégradé_sans_nom_11-8" x1="484.03" x2="646.6" y1="410.92" y2="573.49" data-name="Dégradé sans nom 11"/><linearGradient xlink:href="#Dégradé_sans_nom_11" id="Dégradé_sans_nom_11-9" x1="458.8" x2="621.37" y1="436.15" y2="598.72" data-name="Dégradé sans nom 11"/><linearGradient xlink:href="#Dégradé_sans_nom_11" id="Dégradé_sans_nom_11-10" x1="516.1" x2="833.32" y1="118.41" y2="435.63" data-name="Dégradé sans nom 11"/><linearGradient xlink:href="#Dégradé_sans_nom_11" id="Dégradé_sans_nom_11-11" x1="487.42" x2="804.64" y1="147.09" y2="464.31" data-name="Dégradé sans nom 11"/><linearGradient xlink:href="#Dégradé_sans_nom_11" id="Dégradé_sans_nom_11-12" x1="468.99" x2="786.21" y1="165.53" y2="482.75" data-name="Dégradé sans nom 11"/><linearGradient xlink:href="#Dégradé_sans_nom_11" id="Dégradé_sans_nom_11-13" x1="369.75" x2="686.97" y1="264.77" y2="581.98" data-name="Dégradé sans nom 11"/><linearGradient xlink:href="#Dégradé_sans_nom_11" id="Dégradé_sans_nom_11-14" x1="517.72" x2="556.17" y1="471.45" y2="509.9" data-name="Dégradé sans nom 11"/><linearGradient id="Dégradé_sans_nom_15" x1="539.7" x2="533.88" y1="501.56" y2="496.11" data-name="Dégradé sans nom 15" gradientUnits="userSpaceOnUse"><stop offset="0" stop-color="#1a1d35"/><stop offset="1" stop-color="#111422"/></linearGradient><linearGradient xlink:href="#Dégradé_sans_nom_15" id="Dégradé_sans_nom_15-2" x1="533.77" x2="536.09" y1="477.16" y2="486.69" data-name="Dégradé sans nom 15"/><clipPath id="clippath"><path d="M246.83 402.03a167.607 167.607 0 0 1-56.55-20.47c-125.5 45.36-106.7-48.45-111.49-162.85C74 104.31 140.31 28.68 267.36 18.3 394.4 7.91 456.73 70.24 478.3 207.26c21.57 137.03-111.61 169.19-111.61 169.19-36.37 24.11-79.16 32.43-119.86 25.58" class="cls-2"/></clipPath><clipPath id="clippath-1"><path d="M624.06 524.63C556.5 556.75 474 540.5 422.65 479.22c-44.48-53.08-53.67-125.74-29.58-186.79-20.44-32.71 14.96-147.35 159.43-154.92 144.47-7.57 129.86 105.11 129.86 105.11 58.72 70.08 55.92 174.42-3.72 241 0 0 38.88 76.14 16.17 92.03-22.71 15.9-70.75-51.02-70.75-51.02Z" class="cls-2"/></clipPath><style>.cls-2{fill:none}.cls-5,.cls-6{fill:#fff}.cls-8{fill:#d95832}.cls-10{fill:#5b5a72}.cls-11{fill:#353544}.cls-12{fill:#346aaf}.cls-6{opacity:.5}</style></defs><g style="clip-path:url(#clippath);fill:none"><path d="M160.87 89.19c71.68-65.31 180.68-57.73 243.31 17.02 62.63 74.75 55.28 188.48-16.41 253.79-71.68 65.31-180.67 57.56-243.3-17.19-62.63-74.75-55.29-188.31 16.4-253.62Z" class="cls-5"/><path d="M369.66 144.07s-.05-.09-.07-.14l-2.33-71.59c-.16-4.76-5.87-7.1-9.32-3.81L325.5 99.46c-13.94-7.21-29.77-11.3-46.56-11.3-23.42 0-44.96 7.93-62.13 21.23L200.52 73.8c-1.98-4.33-8.45-3.04-8.61 1.72l-2.29 65.9c-.48.88-.95 1.76-1.4 2.66-6.89 13.71-10.77 29.21-10.77 45.58 0 13.14 2.5 25.7 7.06 37.23l13.83-6.06c1.07-.47 2.18-.71 3.31-.71 4.32 0 7.98 3.38 9.11 8.4l9.87 44.14c16.5 11.6 36.61 18.41 58.32 18.41 56.06 0 101.49-45.44 101.49-101.42 0-16.37-3.88-31.87-10.77-45.58Zm-117.01 92.88c-21.66 0-39.28-21.17-39.28-47.3s17.62-47.37 39.28-47.37 39.28 21.17 39.28 47.37-17.56 47.3-39.28 47.3Z" style="fill:url(#Dégradé_sans_nom_11)"/><path d="M239.12 258.05s-.71-12.43 11.36-12.07c12.07.36 15.16 16.58 12.75 20.24-4.05 6.17-24.69 4.21-24.11-8.17Z" class="cls-10"/><path d="M274.32 131.29s16.99-7.18 36.93 16.86c0 0-12.76-23.73-22.88-25.29-9.44-1.46-14.05 8.43-14.05 8.43ZM227.45 133.19s-12.1-6.37-26.3 14.96c0 0 9.09-21.05 16.29-22.44 6.72-1.29 10.01 7.48 10.01 7.48Z" class="cls-11"/><ellipse cx="311.26" cy="228.43" rx="14.61" ry="4.98" style="fill:#fbabab"/><path d="M302.92 216.51c5.07-4.89 8.37-14.02 8.37-27.06 0-1.06-.03-2.09-.07-3.1 12.22-1.53 16.28-13.47 16.28-13.47-8.27 6.22-17.88 1.65-17.88 1.65 8.06-2.84 7.63-12.77 7.63-12.77-4.31 4.54-9.68 4.15-11.72 3.79-3.31-4.92-7.79-7.44-12.72-7.44-10.21 0-18.48 10.78-18.48 31.34 0 12.84 3.23 21.87 8.14 26.83 0 0 9.64 10.65 20.46.22Z" class="cls-11"/><ellipse cx="288.39" cy="181.17" class="cls-6" rx="4.3" ry="2.95"/><ellipse cx="294.95" cy="172.1" class="cls-6" rx="6.57" ry="5.77"/><path d="M223.79 214.07c3.89-4.55 6.45-12.83 6.45-24.6 0-18.84-6.55-28.72-14.64-28.72-3.91 0-7.45 2.31-10.08 6.82-1.62.33-5.87.69-9.29-3.47 0 0-.33 9.1 6.04 11.7 0 0-7.61 4.19-14.16-1.51 0 0 3.22 10.95 12.89 12.35-.03.92-.06 1.87-.06 2.84 0 11.95 2.64 20.3 6.63 24.8 0 0 8.43 8.69 16.2-.21Z" class="cls-11"/><ellipse cx="212.18" cy="181.89" class="cls-6" rx="3.4" ry="2.71"/><ellipse cx="217.38" cy="173.58" class="cls-6" rx="5.2" ry="5.29"/><path d="M344.17 287.9 301.32 300c-23.55 6.3-29.89 9.67-31.78 29.58 1.39-.7 2.79-1.4 4.22-2.13l5.25-2.64c25.69-12.93 43.58-19.22 54.71-19.22 9.67 0 13.68 4.76 15.32 8.7.32.73 1.79 4.7-.63 10.82-4.62 11.68-19.92 23.17-45.45 34.14-11.43 4.92-24.8 9.85-38.29 14.06-.78 1.92-2.65 2.89-4.53 2.85-.93.02-1.86-.22-2.66-.68-7.96 2.32-15.85 4.34-23.3 5.9l6.02 5.11h-7.5c-3.63 0-6.09 3.25-4.71 6.21l31.25 79.24c2.89 5.51 8.56 8.26 14.01 8.26s10.91-2.75 13.81-8.26l42.8-79.24c1.38-2.96-1.08-6.21-4.71-6.21h-45.08l43.26-16.18c10.28-3.8 21.95-12.73 24.38-25.16.58-2.96 1.06-5.95 1.43-8.94l5.14-41.28c.61-4.92-4.84-8.71-10.12-7.03Z" style="fill:url(#Dégradé_sans_nom_11-2)"/><path d="m353.05 67.62 2.07-1.97c-25.08-13.85-52.88-20.87-80.78-20.87v2.68c27.74 0 54.7 7.07 78.71 20.17Z" style="fill:url(#Dégradé_sans_nom_11-3)"/><path d="M322.86 333.19s.97 3.58-1.92 6.6c-2.85 2.97-82.21 22.65-82.21 22.65s-5.38 1.81-7.12 1.88l-116.12 4.88s-1.63-.55-2.33-3.71" class="cls-11"/><path d="m225.27 360.64-108.83 5.69c-2.59.14-4.06-.81-3.32-2.11l49.54-15.68c.94-1.49 4.28-2.96 7.52-3.27l143.33-13.65c7.16-.68 11.12.7 8.66 3.09l-84.3 21.95c-7.05 1.8-7.45 3.72-12.6 3.99Z" class="cls-10"/><path d="m230.25 360.88-113.88 5.81c-1.88.1-3.96-2.41-4.67-5.6l-18.89-84.43c-.71-3.19.09-6.38 1.82-7.14l104.9-45.95c3.51-1.54 7.25.96 8.29 5.6l27.5 122.94c1.04 4.64-1.26 8.57-5.07 8.76Z" style="fill:url(#Dégradé_secondaire1)"/><path d="M159.46 305.34c-1.86-8.33-7.83-13.8-13.15-12.27-5.15 1.48-7.77 8.98-6.02 16.81s7.3 13.4 12.56 12.41 8.48-8.62 6.62-16.95Z" class="cls-5"/><path d="M108.13 260.33c-11.87-60.46 6.89-125.74 54.55-169.16 8.18-7.45 16.97-14.01 26.23-19.64.35-.64.78-1.23 1.28-1.76.03-.03.05-.06.08-.09.49-.5 1.04-.94 1.64-1.31.06-.03.11-.06.17-.1.26-.15.53-.29.81-.41.05-.02.1-.05.15-.07.32-.13.65-.25.99-.34.07-.02.13-.03.2-.05.28-.07.56-.13.85-.17a9.812 9.812 0 0 1 1.38-.11h.13c23.87-12.84 50.5-19.68 77.74-19.69l.02-2.68h-.02c-40.28 0-80.75 14.63-113.45 44.42-48.61 44.28-67.62 110.75-55.3 172.27l2.56-1.12Z" style="fill:url(#Dégradé_sans_nom_11-4)"/><path d="M404.18 106.21c-9.88-11.8-20.93-21.91-32.79-30.34l.05 1.63.06 1.8a172.076 172.076 0 0 1 30.62 28.63c61.67 73.6 54.42 185.79-16.16 250.08-30.89 28.14-70.48 43.64-111.48 43.64-25.52 0-50.38-5.98-72.9-17.13-3.65-.48-7.12-1.68-8.6-4.58-5.49-3.13-10.81-6.58-15.95-10.33l-4.33.18c30.03 22.89 65.83 34.54 101.78 34.54 40.23 0 80.63-14.59 113.29-44.34 71.68-65.31 79.04-179.04 16.41-253.79Z" style="fill:url(#Dégradé_sans_nom_11-5)"/><path d="M163.04 236.27c-14.9-12.76-26.03-19.1-28.82-16.57-1.74 1.58 1.4 10.8 9.67 24.96l19.15-8.39Z" style="fill:url(#Dégradé_secondaire1-2)"/><path d="m234.81 336.1 16.17-1.54c-1.93-16.48-5.7-26.9-18.03-35.99l-7.46-4.13 9.32 41.66Z" style="fill:url(#Dégradé_sans_nom_11-6)"/><path d="M345.35 315.9c-3.98-9.54-19.27-10.28-64.53 12.51-2.71 1.37-5.42 2.73-8.11 4.08l40.52-3.86c1.3-.12 2.54-.19 3.68-.19 5.39 0 8.39 1.42 8.91 4.22.23 1.07.89 5.45-2.71 9.21-1 1.04-2.37 2.47-43.58 13.26-19.19 5.03-38.29 9.78-39.96 10.19-1.49.5-5.88 1.91-7.84 1.99l-26.07 1.1c-6.32 4.18-9.8 7.39-9.28 9.26 2.28 8.2 53.39.07 104.99-22.11 51.6-22.18 43.98-39.66 43.98-39.66Z" style="fill:url(#Dégradé_sans_nom_10)"/></g><g style="clip-path:url(#clippath-1);fill:none"><path d="M439.05 225.6c71.68-65.31 180.68-57.73 243.31 17.02 62.63 74.75 55.28 188.48-16.41 253.79-71.68 65.31-180.67 57.56-243.3-17.19-62.63-74.75-55.29-188.31 16.4-253.62Z" class="cls-5"/><path d="M652.37 489.59c-6.26-7.47-11.68-12.78-16.36-16.54L622.64 504c3.97 5.65 8.76 11.98 14.39 19.04 26.01 32.55 49.47 47.17 53.5 44.3 6.74-4.82-7.73-41.46-38.17-77.75Z" style="fill:url(#Dégradé_sans_nom_10-2)"/><path d="m654.13 245.6-10.82 14.79v-77.27c0-4.69-4.43-6.56-6.37-2.68l-32.83 65.86c-15.12-8.92-32.76-14.05-51.61-14.05-9.08 0-17.87 1.2-26.24 3.43l-42.73-62.69c-2.77-4.06-9.13-2.1-9.13 2.81v81.03l-15.51-15.51v52.92c-3.99 9.44-6.59 19.62-7.56 30.26l14.69-11.97c2.13-1.73 4.81-2.69 7.55-2.69 3.61 0 6.99 1.61 9.27 4.4l51.1 62.69c2.02 2.48 2.95 5.59 2.63 8.77s-1.87 6.04-4.34 8.06l-19.14 15.6.58.72c1.58 1.95 1.98 4.51 1.09 6.85a6.896 6.896 0 0 1-5.39 4.38l-2.18.35c.24 1.16.46 2.3.67 3.43 13.47 6.6 28.61 10.33 44.63 10.33 56.13 0 101.62-45.49 101.62-101.55V245.61Zm-75.31 135.63c-21.75 0-39.33-21.2-39.33-47.36s17.58-47.43 39.33-47.43 39.33 21.2 39.33 47.43-17.64 47.36-39.33 47.36Z" style="fill:url(#Dégradé_sans_nom_11-7)"/><path d="M502.37 418.36c13.57 58.97-12.12 64.37-12.12 64.37-11.24 1.9-20.17-8.29-22.75-50.62-2.52-41.2-5.21-80.43 1.62-82.26 1.74-.47 3.87.61 6.23 2.97l22.86 28.95c1.37 1.73.39 4.3-1.78 4.69l-6.14 1.09 20.28 25.05c1.41 1.75.41 4.37-1.81 4.72l-6.38 1.02Z" style="fill:url(#Dégradé_secondaire1-3)"/><path d="m530.83 379.48-51.1-62.69a7.938 7.938 0 0 0-11.17-1.14l-28.61 23.32a7.938 7.938 0 0 0-1.14 11.17l21.98 26.96c-.01-.9-.02-1.79-.02-2.66-.05-19.56 1.86-27.01 7.31-28.47.6-.16 1.23-.24 1.87-.24 2.69 0 5.39 1.39 8.25 4.26.11.11.21.23.31.35l22.86 28.95a6.875 6.875 0 0 1 1.04 6.77 6.886 6.886 0 0 1-4.72 4.25l12.89 15.93 19.13-15.59a7.938 7.938 0 0 0 1.14-11.17Z" style="fill:url(#Dégradé_secondaire1-4)"/><path d="M528.73 360.97c-5.06-4.92-8.41-14.05-8.41-27.13 0-20.59 8.29-31.39 18.52-31.39s18.52 10.8 18.52 31.39c0 12.87-3.24 21.92-8.16 26.89 0 0-10.43-4.18-20.46.24Z" class="cls-11"/><ellipse cx="543.27" cy="325.54" class="cls-6" rx="4.3" ry="2.96"/><ellipse cx="536.69" cy="316.46" class="cls-6" rx="6.58" ry="5.78"/><path d="M608.18 358.66c-3.7-4.63-6.63-13.37-6.63-24.82 0-18.85 6.53-28.74 14.58-28.74s14.58 9.89 14.58 28.74c0 11.96-2.63 20.31-6.61 24.82 0 0-7.94-3.8-15.93 0Z" class="cls-11"/><ellipse cx="619.63" cy="326.24" class="cls-6" rx="3.39" ry="2.71"/><ellipse cx="614.45" cy="317.93" class="cls-6" rx="5.18" ry="5.29"/><path d="M557.36 275.52s-17.04-7.2-37.03 16.91c0 0 12.79-23.8 22.94-25.36 9.47-1.46 14.09 8.45 14.09 8.45ZM604.35 277.43s12.13-6.39 26.37 15c0 0-9.11-21.11-16.34-22.5-6.74-1.3-10.03 7.5-10.03 7.5Z" class="cls-11"/><path d="m568.34 395.29 24.73-.33s-.24 18.64-9.58 18.77c-13.01.18-15.14-18.43-15.14-18.43Z" class="cls-10"/><rect width="17.19" height="9.85" x="461.96" y="320.58" class="cls-5" rx="3.67" ry="3.67" transform="rotate(140.82 470.559 325.474)"/><circle cx="473.42" cy="323.16" r="3.15" class="cls-11"/><circle cx="467.25" cy="328.2" r="2.11" class="cls-11"/><path d="m635.5 430.76-50.72 24.11-.44 6.46 26.37-10.94-10.2 25.66c-1.8 4.54-6.09 5.98-9.25 3.1l-7.67-6.93-3.56 17.28c-.36 5.09-4.93 5.09-5.36 0l-4.24-17.03-11.4 6.41c-4.3 2.42-9.75.79-12.03-3.58l-12.95-24.9 35.45 10.79-.52-6.31-59.01-14.68c1.3 15.64-.77 27.84-6.22 36.38-5.33 8.34-11.94 9.94-12.68 10.09-.05.01-.1.02-.16.03-1.07.18-2.12.27-3.13.27a16.2 16.2 0 0 1-3.96-.5l65.67 125.84c5.02 9.69 17.84 9.69 21.99 0l72.85-168.69c3.03-7.1-2.49-15.14-8.85-12.84Z" style="fill:url(#Dégradé_sans_nom_11-8)"/><path d="M463.5 432.63c-2.9 2.57-4.17 6.92-2.04 10.97l3.75 7.19c-.82-5.97-1.34-12.16-1.71-18.16Z" style="fill:url(#Dégradé_sans_nom_11-9)"/><path d="m622.82 199.74 1.21-2.43c-22.58-10.7-47.01-16.13-71.52-16.13v2.68c24.55 0 48.48 5.53 70.31 15.88Z" style="fill:url(#Dégradé_sans_nom_11-10)"/><path d="m499.83 189.75 1.59 2.34c16.4-5.4 33.61-8.22 51.08-8.23l.02-2.68h-.02c-17.75 0-35.53 2.85-52.68 8.57Z" style="fill:url(#Dégradé_sans_nom_11-11)"/><path d="M680.3 244.34c61.67 73.6 54.42 185.79-16.16 250.08-.53.48-1.06.95-1.59 1.42.55.71 1.09 1.42 1.63 2.14.59-.52 1.18-1.04 1.77-1.57 71.68-65.31 79.04-179.04 16.41-253.79-10.5-12.54-22.32-23.18-35.03-31.91v3.33c12.09 8.49 23.2 18.64 32.98 30.3Z" style="fill:url(#Dégradé_sans_nom_11-12)"/><path d="M628.88 519.17c-23.47 12.33-49.55 18.9-76.22 18.9-49.06 0-95.7-22.08-127.95-60.57-61.63-73.55-54.38-185.66 16.15-249.92a169.48 169.48 0 0 1 29.53-21.59v-3.12c-11 6.22-21.52 13.79-31.34 22.73-71.68 65.31-79.03 178.87-16.4 253.62 34.1 40.7 81.93 61.53 130.01 61.53 26.67 0 53.41-6.42 77.92-19.41-.58-.73-1.14-1.46-1.7-2.18Z" style="fill:url(#Dégradé_sans_nom_11-13)"/></g><circle cx="536.94" cy="490.67" r="25.63" class="cls-5"/><path d="M536.94 465.04c14.16 0 25.63 11.48 25.63 25.63s-11.48 25.63-25.63 25.63-25.63-11.48-25.63-25.63 11.48-25.63 25.63-25.63m0-1.57c-15 0-27.2 12.2-27.2 27.2s12.2 27.2 27.2 27.2 27.2-12.2 27.2-27.2-12.2-27.2-27.2-27.2Z" style="fill:url(#Dégradé_sans_nom_11-14)"/><path d="M548.72 496.99c-1.4-1.4-3.67-1.4-5.06 0a8.895 8.895 0 0 1-6.33 2.62c-2.19 0-4.2-.79-5.76-2.1s-.06-.05-.08-.07c-.03-.08-.12-.16-.15-.15-.33.08-.42.1-.45.11-1.03.24-1.89.81-2.51 1.65-.52.72-.83 1.6-.83 2.42s.32 1.94 1.17 2.82c.42.28.89.54 1.42.8-.12-.06-.23-.12-.34-.18.08.04.17.09.25.13.03.02.06.03.09.05a16.042 16.042 0 0 0 7.18 1.69c2.17 0 4.28-.43 6.27-1.27 1.92-.81 3.64-1.97 5.12-3.45 1.4-1.4 1.4-3.67 0-5.06Z" style="fill:url(#Dégradé_sans_nom_15)"/><path d="M545.98 477.14c-.01-.01-.03-.02-.04-.03a16.005 16.005 0 0 0-14.9-1.27c-1.92.81-3.64 1.97-5.12 3.45a16.01 16.01 0 0 0-2.8 3.76c-.27.52-.48 1.02-.66 1.49-.11.42 0 1.1.02 1.36.1 1.16.5 2.22 1.12 3.01.61.76 1.65 1.54 3.37 1.54.42 0 .88-.05 1.39-.15v-.18c-.02 0-.05 0-.07.01.03 0 .05-.01.08-.02.29-4.67 4.19-8.38 8.93-8.38 3.19 0 6.06 1.71 7.64 4.29l.09.15c2.22-1.05 3.08-3.56 3.08-5.07 0-1.15-.83-3.08-2.15-3.98Z" style="fill:url(#Dégradé_sans_nom_15-2)"/><path d="M552.2 484.55c-1.27-3.32-3.62-5.82-6.45-7.57 1.14.77 2.21 2.26 2.21 4.14 0 1.64-1.06 4.54-3.88 5.23-2.86.7-15.45 3.72-15.48 3.73-5.59 1.36-6.76-4.39-5.46-7.02-.96 1.85-1.25 3.43-1.25 4.65 0 3.78 3.2 6.06 6.23 5.31 1.45-.36 14.58-3.4 16.98-3.99 3.52-.86 4.58-2.9 4.7-5.06 1.07 1.91 1.38 5.74-3.68 6.97-3.15.77-16.32 4.08-16.58 4.14-2.05.5-3.82 2.11-3.82 4.33 0 1.46.75 3.93 4.44 5.68-1.69-.8-2.41-2.37-2.41-3.62 0-1.48 1.04-3.39 3.19-3.9.33-.08 13.56-3.34 16.15-3.95 4.34-1.03 6.55-5.33 5.11-9.08Z" style="fill:#1a1d35"/><circle cx="521.92" cy="478.36" r="1.79" class="cls-12"/><circle cx="529.28" cy="477.89" r="3.22" class="cls-8"/><path d="M543.5 484.22a2.5 2.5 0 1 0-3.53-2.28v.2c1.33.41 2.54 1.13 3.53 2.08Z" class="cls-12"/><path d="M536.44 499.57a3.218 3.218 0 0 0 3.17 3.77c1.78 0 3.22-1.44 3.22-3.22 0-.73-.24-1.4-.65-1.93-1.43.93-3.1 1.43-4.85 1.43-.3 0-.6-.02-.89-.04Z" class="cls-8"/><circle cx="547.03" cy="506.78" r="1.61" class="cls-12"/></svg>