<svg xmlns="http://www.w3.org/2000/svg" xmlns:xlink="http://www.w3.org/1999/xlink" id="Calque_1" data-name="Calque 1" viewBox="0 0 841.89 595.28"><defs><linearGradient id="Dégradé_secondaire1_3" x1="143.33" x2="280.77" y1="322.74" y2="460.18" data-name="Dégradé secondaire1 3" gradientUnits="userSpaceOnUse"><stop offset="0" stop-color="#5b5a72"/><stop offset="1" stop-color="#b0b0bf"/></linearGradient><linearGradient xlink:href="#Dégradé_secondaire1_3" id="Dégradé_secondaire1_3-2" x1="145.57" x2="272.21" y1="320.63" y2="447.27" data-name="Dégradé secondaire1 3"/><linearGradient id="Dégradé_sans_nom_22" x1="357.67" x2="478.53" y1="249.14" y2="370" data-name="Dégradé sans nom 22" gradientUnits="userSpaceOnUse"><stop offset=".1" stop-color="#5b5a72"/><stop offset=".5" stop-color="#b0b0bf"/><stop offset=".96" stop-color="#f4f4f6"/></linearGradient><linearGradient xlink:href="#Dégradé_sans_nom_22" id="Dégradé_sans_nom_22-2" x1="414.14" x2="534.02" y1="178.33" y2="298.2" data-name="Dégradé sans nom 22"/><linearGradient id="Dégradé_sans_nom_19" x1="8622.27" x2="8740.59" y1="-14074.37" y2="-13956.04" data-name="Dégradé sans nom 19" gradientTransform="rotate(176.04 4315.309 -6956.917)" gradientUnits="userSpaceOnUse"><stop offset="0" stop-color="#b0b0bf"/><stop offset="1" stop-color="#f4f4f6"/></linearGradient><linearGradient id="Dégradé_sans_nom_28" x1="364.11" x2="472.86" y1="242.09" y2="350.84" data-name="Dégradé sans nom 28" gradientUnits="userSpaceOnUse"><stop offset=".1" stop-color="#5b5a72"/><stop offset=".5" stop-color="#b0b0bf"/><stop offset=".96" stop-color="#f4f4f6"/></linearGradient><linearGradient id="Dégradé_sans_nom_46" x1="323.93" x2="452.55" y1="96.03" y2="224.65" data-name="Dégradé sans nom 46" gradientUnits="userSpaceOnUse"><stop offset="0" stop-color="#5b5a72"/><stop offset="1" stop-color="#b0b0bf"/></linearGradient><linearGradient xlink:href="#Dégradé_sans_nom_46" id="Dégradé_sans_nom_46-2" x1="347.33" x2="475.94" y1="72.64" y2="201.26" data-name="Dégradé sans nom 46"/><linearGradient xlink:href="#Dégradé_sans_nom_46" id="Dégradé_sans_nom_46-3" x1="387.11" x2="515.73" y1="32.85" y2="161.47" data-name="Dégradé sans nom 46"/><linearGradient xlink:href="#Dégradé_secondaire1_3" id="Dégradé_secondaire1_3-3" x1="573.04" x2="728.03" y1="220.41" y2="375.41" data-name="Dégradé secondaire1 3"/><linearGradient xlink:href="#Dégradé_secondaire1_3" id="Dégradé_secondaire1_3-4" x1="573.69" x2="716.17" y1="221.1" y2="363.57" data-name="Dégradé secondaire1 3"/><linearGradient id="Dégradé_secondaire1_4" x1="600.29" x2="689.58" y1="230.28" y2="319.57" data-name="Dégradé secondaire1 4" gradientUnits="userSpaceOnUse"><stop offset="0" stop-color="#5b5a72"/><stop offset="1" stop-color="#b0b0bf"/></linearGradient><linearGradient xlink:href="#Dégradé_secondaire1_4" id="Dégradé_secondaire1_4-2" x1="579.06" x2="625.9" y1="285.39" y2="332.23" data-name="Dégradé secondaire1 4"/><linearGradient xlink:href="#Dégradé_secondaire1_4" id="Dégradé_secondaire1_4-3" x1="600.29" x2="689.58" y1="247.22" y2="336.51" data-name="Dégradé secondaire1 4"/><linearGradient xlink:href="#Dégradé_secondaire1_3" id="Dégradé_secondaire1_3-5" x1="125.82" x2="244.12" y1="104.38" y2="222.67" data-name="Dégradé secondaire1 3"/><linearGradient xlink:href="#Dégradé_secondaire1_3" id="Dégradé_secondaire1_3-6" x1="127.4" x2="236.59" y1="101.61" y2="210.8" data-name="Dégradé secondaire1 3"/><linearGradient xlink:href="#Dégradé_secondaire1_4" id="Dégradé_secondaire1_4-4" x1="149.33" x2="214.66" y1="114.71" y2="180.04" data-name="Dégradé secondaire1 4"/><linearGradient xlink:href="#Dégradé_secondaire1_4" id="Dégradé_secondaire1_4-5" x1="129.28" x2="154.52" y1="151.7" y2="176.94" data-name="Dégradé secondaire1 4"/><linearGradient xlink:href="#Dégradé_secondaire1_4" id="Dégradé_secondaire1_4-6" x1="176.23" x2="241.56" y1="325.02" y2="390.35" data-name="Dégradé secondaire1 4"/><linearGradient xlink:href="#Dégradé_secondaire1_4" id="Dégradé_secondaire1_4-7" x1="156.18" x2="181.42" y1="398.14" y2="423.38" data-name="Dégradé secondaire1 4"/><linearGradient xlink:href="#Dégradé_secondaire1_4" id="Dégradé_secondaire1_4-8" x1="176.23" x2="241.56" y1="342.71" y2="408.04" data-name="Dégradé secondaire1 4"/><linearGradient xlink:href="#Dégradé_secondaire1_4" id="Dégradé_secondaire1_4-9" x1="176.23" x2="241.56" y1="360.4" y2="425.74" data-name="Dégradé secondaire1 4"/><linearGradient id="Dégradé_secondaire1" x1="561.99" x2="668.15" y1="325.05" y2="431.21" data-name="Dégradé secondaire1" gradientUnits="userSpaceOnUse"><stop offset="0" stop-color="#5b5a72"/><stop offset="1" stop-color="#b0b0bf"/></linearGradient><linearGradient xlink:href="#Dégradé_secondaire1_4" id="Dégradé_secondaire1_4-10" x1="560.81" x2="655.7" y1="323.87" y2="418.76" data-name="Dégradé secondaire1 4"/><linearGradient xlink:href="#Dégradé_secondaire1_4" id="Dégradé_secondaire1_4-11" x1="586.31" x2="621.64" y1="355.45" y2="390.78" data-name="Dégradé secondaire1 4"/><linearGradient xlink:href="#Dégradé_secondaire1_4" id="Dégradé_secondaire1_4-12" x1="584.01" x2="643.58" y1="333.71" y2="393.28" data-name="Dégradé secondaire1 4"/><linearGradient xlink:href="#Dégradé_secondaire1" id="Dégradé_secondaire1-2" x1="562.67" x2="668.82" y1="96.02" y2="202.17" data-name="Dégradé secondaire1"/><linearGradient xlink:href="#Dégradé_secondaire1_4" id="Dégradé_secondaire1_4-13" x1="561.49" x2="656.38" y1="94.84" y2="189.73" data-name="Dégradé secondaire1 4"/><linearGradient id="Dégradé_sans_nom_44" x1="608.72" x2="608.72" y1="105.83" y2="161.24" data-name="Dégradé sans nom 44" gradientUnits="userSpaceOnUse"><stop offset=".1" stop-color="#5b5a72"/><stop offset=".9" stop-color="#b0b0bf"/></linearGradient><linearGradient id="Dégradé_sans_nom_25" x1="204.89" x2="310.53" y1="174" y2="279.64" data-name="Dégradé sans nom 25" gradientUnits="userSpaceOnUse"><stop offset="0" stop-color="#5b5a72"/><stop offset="1" stop-color="#b0b0bf"/></linearGradient><linearGradient xlink:href="#Dégradé_secondaire1_3" id="Dégradé_secondaire1_3-7" x1="213.06" x2="308.27" y1="176.61" y2="271.81" data-name="Dégradé secondaire1 3"/><linearGradient xlink:href="#Dégradé_sans_nom_44" id="Dégradé_sans_nom_44-2" x1="218.38" x2="306.93" y1="181.02" y2="269.56" data-name="Dégradé sans nom 44"/><linearGradient id="Dégradé_sans_nom_11" x1="404.84" x2="505.91" y1="310.48" y2="411.56" data-name="Dégradé sans nom 11" gradientUnits="userSpaceOnUse"><stop offset=".1" stop-color="#5b5a72"/><stop offset=".5" stop-color="#b0b0bf"/><stop offset=".96" stop-color="#f4f4f6"/></linearGradient><linearGradient xlink:href="#Dégradé_sans_nom_46" id="Dégradé_sans_nom_46-4" x1="369.84" x2="431.55" y1="370.29" y2="432" data-name="Dégradé sans nom 46"/><linearGradient xlink:href="#Dégradé_sans_nom_11" id="Dégradé_sans_nom_11-2" x1="362.81" x2="463.91" y1="352.51" y2="453.61" data-name="Dégradé sans nom 11"/><linearGradient xlink:href="#Dégradé_sans_nom_11" id="Dégradé_sans_nom_11-3" x1="374.5" x2="475.6" y1="340.82" y2="441.92" data-name="Dégradé sans nom 11"/><linearGradient xlink:href="#Dégradé_sans_nom_11" id="Dégradé_sans_nom_11-4" x1="350.86" x2="451.96" y1="364.46" y2="465.55" data-name="Dégradé sans nom 11"/><radialGradient id="Dégradé_sans_nom_20" cx="420.94" cy="512.53" r="78.13" data-name="Dégradé sans nom 20" fx="420.94" fy="512.53" gradientTransform="matrix(1 .00035 -.00004 .11 .02 454.11)" gradientUnits="userSpaceOnUse"><stop offset=".4" stop-color="#353544" stop-opacity=".5"/><stop offset="1" stop-color="#353544" stop-opacity="0"/></radialGradient><style>.cls-22{fill:#fff}.cls-23{fill:#353544}.cls-22{opacity:.5}</style></defs><path d="M154.31 438.79h-6.85c-11.93 0-21.61-9.67-21.61-21.61V358.8c0-11.93 9.67-21.61 21.61-21.61h130.96c11.93 0 21.61 9.67 21.61 21.61v58.38c0 11.93-9.67 21.61-21.61 21.61H208.9l-44.34 27.42c-4.47 2.77-10.25-.45-10.25-5.71v-21.7Z" style="fill:url(#Dégradé_secondaire1_3)"/><path d="M131.33 431.06c3.45 2.33 7.61 3.69 12.08 3.69h130.96c11.93 0 21.61-9.67 21.61-21.61v-58.38c0-11.93-9.67-21.61-21.61-21.61H143.41c-11.93 0-21.61 9.67-21.61 21.61v58.38c0 7.46 3.78 14.03 9.53 17.92" style="stroke:url(#Dégradé_secondaire1_3-2);fill:#fff;stroke-linecap:round;stroke-linejoin:round;stroke-width:2px"/><path d="M362.46 233.84v35.71c-4.44 8.83-6.94 18.82-6.94 29.37V233.8c-3.24-2.87-5.5-9.62-5.5-17.53 0-10.5 4.02-14.38 9.02-14.38s9.02 3.88 9.02 14.38c0 7.91-2.31 14.71-5.6 17.58Z" style="fill:url(#Dégradé_sans_nom_22)"/><path d="M486.33 233.79v65.12c0-10.55-2.5-20.54-6.94-29.37v-35.71c-3.28-2.87-5.6-9.67-5.6-17.58 0-10.5 4.07-14.38 9.02-14.38s9.02 3.88 9.02 14.38c0 7.91-2.27 14.66-5.5 17.53Z" style="fill:url(#Dégradé_sans_nom_22-2)"/><ellipse cx="420.94" cy="512.53" rx="79.38" ry="9.64" style="fill:url(#Dégradé_sans_nom_20)"/><path d="M463.34 417.75s-12.1 6.4-26.77-20.37c-14.67-26.77-19.68-54.92-14.02-57.18 4.28-1.71 18.16 19.8 32.92 42.28 15.16 23.09 14.47 31.89 7.87 35.28Z" style="fill:url(#Dégradé_sans_nom_19)"/><path d="M420.94 233.54c-36.12 0-65.4 29.28-65.4 65.35 0 10.55 2.5 20.54 6.94 29.37 10.74 21.3 32.74 35.93 58.22 36.03-2.73-10.34-3.42-18.7-1.93-22.85.61-1.71 1.61-2.85 2.95-3.39.43-.17.89-.26 1.37-.26 4.01 0 9.71 6.73 20.44 22.5 15.63-5.75 28.45-17.29 35.88-32.03 4.44-8.83 6.94-18.82 6.94-29.37 0-36.08-29.28-65.35-65.4-65.35Zm0 74.55c-16.88 0-30.53-10.89-30.53-24.36s13.64-24.32 30.53-24.32 30.53 10.89 30.53 24.32-13.69 24.36-30.53 24.36Z" style="fill:url(#Dégradé_sans_nom_28)"/><path d="M457.87 296.4c3.08-3.23 5.09-8.99 5.09-17.13 0-13.24-5.33-20.18-11.9-20.18s-11.9 6.94-11.9 20.18c0 8.3 2.09 14.12 5.27 17.31l13.44-.18Z" class="cls-23"/><ellipse cx="448.22" cy="273.94" class="cls-22" rx="2.77" ry="1.9"/><ellipse cx="452.45" cy="268.1" class="cls-22" rx="4.23" ry="3.71"/><path d="M397.66 296.4c3.08-3.23 5.09-8.99 5.09-17.13 0-13.24-5.33-20.18-11.9-20.18s-11.9 6.94-11.9 20.18c0 8.3 2.09 14.12 5.27 17.31l13.44-.18Z" class="cls-23"/><ellipse cx="388" cy="273.94" class="cls-22" rx="2.77" ry="1.9"/><ellipse cx="392.23" cy="268.1" class="cls-22" rx="4.23" ry="3.71"/><path d="M399.83 242.35s-11.04-4.42-23.6 11.32c0 0 7.93-15.45 14.44-16.58 6.07-1.05 9.16 5.26 9.16 5.26ZM442.04 242.35s11.04-4.42 23.6 11.32c0 0-7.93-15.45-14.44-16.58-6.07-1.05-9.16 5.26-9.16 5.26Z" class="cls-23"/><path d="M412.11 320.59s6.29-6.18 16.15-2.47" style="stroke:#5b5a72;stroke-width:2.43px;fill:none;stroke-linecap:round;stroke-linejoin:round"/><path d="M331.36 95.07h44.6v11.82H346.7v12.87h25.73v12.01H346.7v24.68h-15.34V95.07Z" style="fill:url(#Dégradé_sans_nom_46)"/><path d="M404.19 95.38h16.58l23.44 61.38H428.2l-5.53-13.91h-20.49l-5.43 13.91h-16.01l23.44-61.38Zm16.39 36.12-8.2-21.35-8.1 21.35h16.3Z" style="fill:url(#Dégradé_sans_nom_46-2)"/><path d="M480.37 171.12c-2.45-1.14-4.16-2.86-5.15-5.15-.99-2.29-1.51-5.27-1.57-8.96-16.2-1.97-24.3-12.29-24.3-30.97 0-11.12 2.54-19.22 7.62-24.3 5.08-5.08 12.74-7.62 22.97-7.62s17.81 2.54 22.92 7.62c5.11 5.08 7.67 13.19 7.67 24.3 0 18.3-7.75 28.56-23.25 30.78 0 2.03.35 3.45 1.05 4.24.7.79 1.97 1.19 3.81 1.19 1.97 0 3.97-.26 6-.76v10.39c-.89.25-2.11.48-3.67.67-1.56.19-2.91.29-4.05.29-4.26 0-7.61-.57-10.05-1.72Zm10.86-31.21c2.38-2.95 3.57-7.58 3.57-13.87 0-6.8-1.18-11.63-3.53-14.49-2.35-2.86-6.13-4.29-11.34-4.29s-9.09 1.43-11.44 4.29c-2.35 2.86-3.53 7.69-3.53 14.49 0 6.29 1.19 10.91 3.57 13.87 2.38 2.95 6.18 4.43 11.39 4.43s8.91-1.48 11.29-4.43Z" style="fill:url(#Dégradé_sans_nom_46-3)"/><path d="m669.38 338.32 44.34 27.42c4.47 2.77 10.25-.45 10.25-5.71v-21.7h15.22c11.93 0 21.61-9.67 21.61-21.61v-40.66c0-11.93-9.67-21.61-21.61-21.61H558.84c-11.93 0-21.61 9.67-21.61 21.61v40.66c0 11.93 9.67 21.61 21.61 21.61h110.54Z" style="fill:url(#Dégradé_secondaire1_3-3)"/><path d="M696.92 334.27h38.19c11.93 0 21.61-9.67 21.61-21.61V272c0-11.93-9.67-21.61-21.61-21.61H554.76c-11.93 0-21.61 9.67-21.61 21.61v40.66c0 11.93 9.67 21.61 21.61 21.61h142.16Z" style="stroke:url(#Dégradé_secondaire1_3-4);fill:#fff;stroke-linecap:round;stroke-linejoin:round;stroke-width:2px"/><path d="M556.74 274.92h176.39" style="stroke:url(#Dégradé_secondaire1_4);fill:none;stroke-width:1.55px;stroke-linecap:round;stroke-linejoin:round"/><path d="M556.74 308.81h91.48" style="stroke:url(#Dégradé_secondaire1_4-2);fill:none;stroke-width:1.55px;stroke-linecap:round;stroke-linejoin:round"/><path d="M556.74 291.87h176.39" style="stroke:url(#Dégradé_secondaire1_4-3);fill:none;stroke-width:1.55px;stroke-linecap:round;stroke-linejoin:round"/><path d="M127.41 193.6h-6.85c-11.93 0-21.61-9.67-21.61-21.61V148.5c0-11.93 9.67-21.61 21.61-21.61h130.96c11.93 0 21.61 9.67 21.61 21.61v23.49c0 11.93-9.67 21.61-21.61 21.61H182l-44.34 27.42c-4.47 2.77-10.25-.45-10.25-5.71v-21.7Z" style="fill:url(#Dégradé_secondaire1_3-5)"/><path d="M104.43 185.86c3.45 2.33 7.61 3.69 12.08 3.69h130.96c11.93 0 21.61-9.67 21.61-21.61v-23.49c0-11.93-9.67-21.61-21.61-21.61H116.51c-11.93 0-21.61 9.67-21.61 21.61v23.49c0 7.46 3.78 14.03 9.53 17.92" style="stroke:url(#Dégradé_secondaire1_3-6);fill:#fff;stroke-linecap:round;stroke-linejoin:round;stroke-width:2px"/><path d="M117.76 147.38h128.47" style="stroke:url(#Dégradé_secondaire1_4-4);fill:none;stroke-width:1.55px;stroke-linecap:round;stroke-linejoin:round"/><path d="M117.76 164.32h48.29" style="stroke:url(#Dégradé_secondaire1_4-5);fill:none;stroke-width:1.55px;stroke-linecap:round;stroke-linejoin:round"/><path d="M144.66 357.68h128.47" style="stroke:url(#Dégradé_secondaire1_4-6);fill:none;stroke-width:1.55px;stroke-linecap:round;stroke-linejoin:round"/><path d="M144.66 410.76h48.29" style="stroke:url(#Dégradé_secondaire1_4-7);fill:none;stroke-width:1.55px;stroke-linecap:round;stroke-linejoin:round"/><path d="M144.66 375.38h128.47" style="stroke:url(#Dégradé_secondaire1_4-8);fill:none;stroke-width:1.55px;stroke-linecap:round;stroke-linejoin:round"/><path d="M144.66 393.07h128.47" style="stroke:url(#Dégradé_secondaire1_4-9);fill:none;stroke-width:1.55px;stroke-linecap:round;stroke-linejoin:round"/><path d="m591.73 427.45 38.7 23.71c3.88 2.4 8.9-.39 8.9-4.96v-18.84.09h8.42c9.19 0 16.65-7.45 16.65-16.65v-70.25c0-9.19-7.45-16.65-16.65-16.65H577.5c-9.19 0-16.65 7.45-16.65 16.65v70.25c0 9.19 7.45 16.65 16.65 16.65h14.24Z" style="fill:url(#Dégradé_secondaire1)"/><path d="M614.54 423.09h28.85c9.19 0 16.65-7.45 16.65-16.65v-70.25c0-9.19-7.45-16.65-16.65-16.65h-70.25c-9.19 0-16.65 7.45-16.65 16.65v70.25c0 9.19 7.45 16.65 16.65 16.65h41.41Z" style="stroke:url(#Dégradé_secondaire1_4-10);stroke-width:1.55px;fill:#fff;stroke-linecap:round;stroke-linejoin:round"/><path d="M619.88 366.55s-11.64-2.39-10.49-22.67c.1-1.76-1.55-3.16-3.25-2.72-3.75.97-8.98 4.58-7.55 17.35h-10.56s-5.95-.03-6.54 3.83c-.5 3.23 2.92 3.87 2.74 5.72-.18 1.84-3.33 2.73-3.33 6.46 0 3.49 3.39 2.58 3.63 4.85.24 2.26-2.16 1.86-1.25 4.91.65 2.19 3.72 1.49 4.08 3.33.36 1.84-2.81 5 3.4 6.41 7.81 1.78 25.54 1.42 29.13-2.59" style="fill:none;stroke-width:1.55px;stroke:url(#Dégradé_secondaire1_4-11);stroke-linecap:round;stroke-linejoin:round"/><path d="M625.42 361.76h7.75a6.32 6.32 0 0 1 6.32 6.32v21.84a6.32 6.32 0 0 1-6.32 6.32h-7.75a6.32 6.32 0 0 1-6.32-6.32v-21.84a6.32 6.32 0 0 1 6.32-6.32Z" style="fill:url(#Dégradé_secondaire1_4-12)"/><path d="M633.17 362.53a5.54 5.54 0 0 1 5.54 5.54v21.84a5.54 5.54 0 0 1-5.54 5.54h-7.75a5.54 5.54 0 0 1-5.54-5.54v-21.84a5.54 5.54 0 0 1 5.54-5.54h7.75m0-1.55h-7.75c-3.91 0-7.09 3.18-7.09 7.09v21.84c0 3.91 3.18 7.09 7.09 7.09h7.75c3.91 0 7.09-3.18 7.09-7.09v-21.84c0-3.91-3.18-7.09-7.09-7.09Z" style="fill:#fff"/><path d="m592.4 198.41 38.7 23.71c3.88 2.4 8.9-.39 8.9-4.96v-18.84.09h8.42c9.19 0 16.65-7.45 16.65-16.65v-70.25c0-9.19-7.45-16.65-16.65-16.65h-70.25c-9.19 0-16.65 7.45-16.65 16.65v70.25c0 9.19 7.45 16.65 16.65 16.65h14.24Z" style="fill:url(#Dégradé_secondaire1-2)"/><path d="M615.21 194.05h28.85c9.19 0 16.65-7.45 16.65-16.65v-70.25c0-9.19-7.45-16.65-16.65-16.65h-70.25c-9.19 0-16.65 7.45-16.65 16.65v70.25c0 9.19 7.45 16.65 16.65 16.65h41.41Z" style="stroke:url(#Dégradé_secondaire1_4-13);stroke-width:1.55px;fill:#fff;stroke-linecap:round;stroke-linejoin:round"/><path d="M614.52 150.79c-.05.16-.1.33-.14.51-.62 2.62-2.93 4.5-5.62 4.5-3.52 0-6.24-3.13-5.7-6.61.21-1.39.49-2.49.81-3.3.73-1.82 2.63-3.92 5.68-6.3l3.1-2.42c1.02-.76 1.84-1.6 2.46-2.5 1.13-1.55 1.7-3.27 1.7-5.13 0-2.15-.63-4.11-1.89-5.87-1.26-1.77-3.56-2.65-6.89-2.65s-5.61 1.09-6.98 3.27c-.61.97-1.08 1.95-1.42 2.95-.79 2.33-3.06 3.83-5.52 3.83h-.64c-3.86 0-6.68-3.73-5.52-7.41 1.33-4.26 3.75-7.51 7.24-9.73 3.34-2.15 7.44-3.22 12.3-3.22 6.39 0 11.7 1.53 15.93 4.58s6.34 7.58 6.34 13.57c0 3.68-.92 6.77-2.76 9.29-1.07 1.53-3.14 3.48-6.19 5.85l-3.01 2.33c-1.64 1.27-2.73 2.76-3.27 4.45Zm-5.42 23.07h-1.12c-3.18 0-5.76-2.58-5.76-5.76v-.74c0-3.18 2.58-5.76 5.76-5.76h1.12c3.18 0 5.76 2.58 5.76 5.76v.74c0 3.18-2.58 5.76-5.76 5.76Z" style="fill:url(#Dégradé_sans_nom_44)"/><path d="M233.05 280.34v-.09 18.84c0 4.57 5.01 7.36 8.9 4.96l38.7-23.71h19.51c9.19 0 16.65-7.45 16.65-16.65v-70.25c0-9.19-7.45-16.65-16.65-16.65h-70.25c-9.19 0-16.65 7.45-16.65 16.65v70.25c0 9.19 7.45 16.65 16.65 16.65h3.15Z" style="fill:url(#Dégradé_sans_nom_25)"/><path d="M266.94 275.98h28.85c9.19 0 16.65-7.45 16.65-16.65v-70.25c0-9.19-7.45-16.65-16.65-16.65h-70.25c-9.19 0-16.65 7.45-16.65 16.65v70.25c0 9.19 7.45 16.65 16.65 16.65h41.41Z" style="fill:#fff;stroke-linecap:round;stroke-linejoin:round;stroke-width:2px;stroke:url(#Dégradé_secondaire1_3-7)"/><path d="M261.56 192.02c5.31 0 9.41 4.68 8.71 9.95l-4.15 31.26c-.46 3.17-2.93 4.5-5.62 4.5-3.52 0-5.61-2.69-5.7-6.61l-2.01-29.72c-.34-5.08 3.68-9.38 8.77-9.38Zm-.72 63.77h-1.12c-3.18 0-5.76-2.58-5.76-5.76v-.74c0-3.18 2.58-5.76 5.76-5.76h1.12c3.18 0 5.76 2.58 5.76 5.76v.74c0 3.18-2.58 5.76-5.76 5.76Z" style="fill:url(#Dégradé_sans_nom_44-2)"/><path d="m478.38 360.83-28.67 8.69c1.86 2.8 3.83 5.79 5.94 9.01l1.76 2.68c5.34 8.13 8.93 14.8 10.9 20.27l16.91-32.39c2.4-4.56-1.89-9.73-6.82-8.25Z" style="fill:url(#Dégradé_sans_nom_11)"/><path d="m444.84 413.02-75.98-31.58c-4.13-1.73-8.56 1.81-7.76 6.18 1.35 7.25 5.85 17.02 19.65 23.3 17.67 8.06 51.29 8.68 68.24 8.45 1.01-.01 1.7-.6 2-1.35-1.94-1.17-4-2.79-6.15-5Z" style="fill:url(#Dégradé_sans_nom_46-4)"/><path d="M366.67 378.68c1.05 0 2.09.21 3.08.62l46.67 19.4-1.85-22.38-51.04-15.49c-4.93-1.48-9.22 3.69-6.87 8.25l5.69 10.9c1.28-.84 2.78-1.3 4.33-1.3Z" style="fill:url(#Dégradé_sans_nom_11-2)"/><path d="M441.44 409.11c-2.23-2.84-4.53-6.34-6.88-10.62a163.52 163.52 0 0 1-7.76-16.24l-1.66 20.08 16.3 6.78Z" style="fill:url(#Dégradé_sans_nom_11-3)"/><path d="M453.02 419.1a4.444 4.444 0 0 1-4 2.57c-1.82.02-3.66.04-5.47.04-6.18 0-13.02-.14-20-.53-.51 3-5.03 2.92-5.3-.26v-.09c-14.35-1.08-28.68-3.36-38.45-7.81-.1-.05-.2-.1-.3-.14l33.73 64.62c3.23 6.23 12.17 6.23 15.4 0l29.67-56.85c-1.59-.18-3.36-.64-5.28-1.53Z" style="fill:url(#Dégradé_sans_nom_11-4)"/></svg>