<svg xmlns="http://www.w3.org/2000/svg" xmlns:xlink="http://www.w3.org/1999/xlink" id="Calque_1" data-name="Calque 1" viewBox="0 0 841.89 595.28"><defs><linearGradient id="Dégradé_sans_nom_11" x1="624.13" x2="853.5" y1="-16.86" y2="212.51" data-name="Dégradé sans nom 11" gradientUnits="userSpaceOnUse"><stop offset=".1" stop-color="#5b5a72"/><stop offset=".5" stop-color="#b0b0bf"/><stop offset=".96" stop-color="#f4f4f6"/></linearGradient><linearGradient xlink:href="#Dégradé_sans_nom_11" id="Dégradé_sans_nom_11-2" x1="540.23" x2="769.6" y1="67.04" y2="296.41" data-name="Dégradé sans nom 11"/><linearGradient xlink:href="#Dégradé_sans_nom_11" id="Dégradé_sans_nom_11-3" x1="550.59" x2="779.96" y1="56.68" y2="286.06" data-name="Dégradé sans nom 11"/><linearGradient id="Dégradé_sans_nom_26" x1="49.67" x2="439.1" y1="223.61" y2="510.42" data-name="Dégradé sans nom 26" gradientUnits="userSpaceOnUse"><stop offset="0" stop-color="#b0b0bf"/><stop offset="1" stop-color="#f4f4f6"/></linearGradient><linearGradient id="Dégradé_sans_nom_46" x1="5430.77" x2="5527.4" y1="1581.95" y2="1678.58" data-name="Dégradé sans nom 46" gradientTransform="scale(-1 1) rotate(-28.64 -15.293 12749.34)" gradientUnits="userSpaceOnUse"><stop offset="0" stop-color="#5b5a72"/><stop offset="1" stop-color="#b0b0bf"/></linearGradient><linearGradient xlink:href="#Dégradé_sans_nom_26" id="Dégradé_sans_nom_26-2" x1="88.67" x2="534.99" y1="108.99" y2="437.7" data-name="Dégradé sans nom 26"/><linearGradient xlink:href="#Dégradé_sans_nom_11" id="Dégradé_sans_nom_11-4" x1="521.05" x2="661.98" y1="292.75" y2="433.68" data-name="Dégradé sans nom 11"/><linearGradient xlink:href="#Dégradé_sans_nom_26" id="Dégradé_sans_nom_26-3" x1="243.28" x2="523.4" y1="105.36" y2="385.48" data-name="Dégradé sans nom 26"/><linearGradient xlink:href="#Dégradé_sans_nom_26" id="Dégradé_sans_nom_26-4" x1="126.56" x2="406.68" y1="222.08" y2="502.2" data-name="Dégradé sans nom 26"/><linearGradient xlink:href="#Dégradé_sans_nom_26" id="Dégradé_sans_nom_26-5" x1="717.09" x2="637.46" y1="376.49" y2="456.11" data-name="Dégradé sans nom 26"/><linearGradient xlink:href="#Dégradé_sans_nom_11" id="Dégradé_sans_nom_11-5" x1="-971.95" x2="-953.27" y1="-1308.51" y2="-1289.83" data-name="Dégradé sans nom 11" gradientTransform="rotate(135.87 -576.712 -297.485)"/><linearGradient xlink:href="#Dégradé_sans_nom_11" id="Dégradé_sans_nom_11-6" x1="-811.12" x2="-792.44" y1="-1009.57" y2="-990.88" data-name="Dégradé sans nom 11" gradientTransform="rotate(135.87 -576.712 -297.485)"/><linearGradient xlink:href="#Dégradé_sans_nom_11" id="Dégradé_sans_nom_11-7" x1="-758.88" x2="-740.2" y1="-1103.69" y2="-1085.01" data-name="Dégradé sans nom 11" gradientTransform="rotate(135.87 -576.712 -297.485)"/><linearGradient xlink:href="#Dégradé_sans_nom_11" id="Dégradé_sans_nom_11-8" x1="1428.68" x2="1439.11" y1="-2907.56" y2="-2897.12" data-name="Dégradé sans nom 11" gradientTransform="rotate(99.45 -344.052 -1735.42)"/><linearGradient xlink:href="#Dégradé_sans_nom_11" id="Dégradé_sans_nom_11-9" x1="-1444.07" x2="-1431.48" y1="-536.09" y2="-523.5" data-name="Dégradé sans nom 11" gradientTransform="rotate(148.61 -677.434 108.128)"/><linearGradient xlink:href="#Dégradé_sans_nom_11" id="Dégradé_sans_nom_11-10" x1="-1432.61" x2="-1420.02" y1="-442.74" y2="-430.14" data-name="Dégradé sans nom 11" gradientTransform="rotate(148.61 -677.434 108.128)"/><linearGradient xlink:href="#Dégradé_sans_nom_11" id="Dégradé_sans_nom_11-11" x1="-1296.47" x2="-1283.88" y1="-431.01" y2="-418.41" data-name="Dégradé sans nom 11" gradientTransform="rotate(148.61 -677.434 108.128)"/><linearGradient xlink:href="#Dégradé_sans_nom_11" id="Dégradé_sans_nom_11-12" x1="-1471.85" x2="-1459.26" y1="-316.85" y2="-304.26" data-name="Dégradé sans nom 11" gradientTransform="rotate(148.61 -677.434 108.128)"/><linearGradient xlink:href="#Dégradé_sans_nom_11" id="Dégradé_sans_nom_11-13" x1="1351.78" x2="1366.19" y1="-3260.55" y2="-3246.13" data-name="Dégradé sans nom 11" gradientTransform="rotate(-165.84 1040.4 -1494.181)"/><linearGradient xlink:href="#Dégradé_sans_nom_11" id="Dégradé_sans_nom_11-14" x1="1416.42" x2="1424.17" y1="-2818.79" y2="-2811.04" data-name="Dégradé sans nom 11" gradientTransform="rotate(99.45 -344.052 -1735.42)"/><linearGradient xlink:href="#Dégradé_sans_nom_11" id="Dégradé_sans_nom_11-15" x1="1034.66" x2="1042.42" y1="-3094.53" y2="-3086.78" data-name="Dégradé sans nom 11" gradientTransform="rotate(-163.16 897.338 -1440.363)"/><linearGradient xlink:href="#Dégradé_sans_nom_11" id="Dégradé_sans_nom_11-16" x1="1010.49" x2="1018.25" y1="-3040.77" y2="-3033.02" data-name="Dégradé sans nom 11" gradientTransform="rotate(121.4 -279.044 -1701.612)"/><linearGradient xlink:href="#Dégradé_sans_nom_11" id="Dégradé_sans_nom_11-17" x1="1121.76" x2="1129.51" y1="-3108.68" y2="-3100.92" data-name="Dégradé sans nom 11" gradientTransform="rotate(121.4 -279.044 -1701.612)"/><linearGradient xlink:href="#Dégradé_sans_nom_11" id="Dégradé_sans_nom_11-18" x1="1097.35" x2="1105.1" y1="-2922.85" y2="-2915.1" data-name="Dégradé sans nom 11" gradientTransform="rotate(121.4 -279.044 -1701.612)"/><linearGradient xlink:href="#Dégradé_sans_nom_11" id="Dégradé_sans_nom_11-19" x1="1152.78" x2="1160.53" y1="-2989.63" y2="-2981.88" data-name="Dégradé sans nom 11" gradientTransform="rotate(121.4 -279.044 -1701.612)"/><linearGradient xlink:href="#Dégradé_sans_nom_11" id="Dégradé_sans_nom_11-20" x1="4866.95" x2="4884.61" y1="-2327.75" y2="-2310.09" data-name="Dégradé sans nom 11" gradientTransform="rotate(55.32 222.376 -5251.674)"/><linearGradient xlink:href="#Dégradé_sans_nom_11" id="Dégradé_sans_nom_11-21" x1="4802.89" x2="4813.84" y1="-2253.45" y2="-2242.51" data-name="Dégradé sans nom 11" gradientTransform="rotate(55.32 222.376 -5251.674)"/><linearGradient xlink:href="#Dégradé_sans_nom_11" id="Dégradé_sans_nom_11-22" x1="4439.09" x2="4450.03" y1="-3698.24" y2="-3687.3" data-name="Dégradé sans nom 11" gradientTransform="rotate(111.31 983.65 -3282.14)"/><radialGradient id="Dégradé_sans_nom_17" cx="1981.74" cy="545.02" r="131.6" data-name="Dégradé sans nom 17" fx="1981.74" fy="545.02" gradientTransform="matrix(1.48 .00026 -.00002 .11 -2359.75 482.34)" gradientUnits="userSpaceOnUse"><stop offset=".4" stop-color="#353544" stop-opacity=".5"/><stop offset="1" stop-color="#353544" stop-opacity="0"/></radialGradient><style>.cls-2{fill:#353544}</style></defs><ellipse cx="576.97" cy="545.02" rx="198.12" ry="16.24" style="fill:url(#Dégradé_sans_nom_17)"/><path d="m783.7 118.78-9.73 57.73c3.94 15.12 4.8 31.63 1.97 48.41l17.62-104.55c5.37-3.79 10.4-14 12.52-26.59 2.82-16.71-1.91-23.56-9-24.76-7.09-1.2-13.8 3.73-16.62 20.44-2.12 12.59-.66 23.97 3.23 29.32Z" style="fill:url(#Dégradé_sans_nom_11)"/><path d="M752.87 221.58c4.71-27.95-10.28-53.71-33.39-57.61-23.18-3.91-45.72 15.53-50.43 43.48-4.7 27.88 10.23 53.62 33.4 57.53 23.11 3.9 45.72-15.53 50.42-43.4Zm-51.7-120.08c42.35 7.14 74.86 37.58 86.74 75.97 4.89 15.87 6.23 33.1 3.29 50.57-10.07 59.73-66.71 100.04-126.52 89.96-59.81-10.08-100.12-66.73-90.05-126.46 2.94-17.46 9.87-33.31 19.68-46.69 23.81-32.37 64.5-50.48 106.85-43.34Z" style="fill:url(#Dégradé_sans_nom_11-2)"/><path d="m608.13 86.29-18.17 107.83c2.94-17.46 9.87-33.31 19.68-46.69l9.97-59.12c6.24-3.83 11.96-14.44 14.17-27.54 2.93-17.38-2.72-24.95-10.92-26.33-8.27-1.39-16.02 3.92-18.95 21.3-2.21 13.1-.34 24.91 4.22 30.56Z" style="fill:url(#Dégradé_sans_nom_11-3)"/><path d="M651.49 214.71c-1.28 1.9-4.3.64-3.81-1.6 2.52-11.59 8.39-24.73 22.11-22.8 14.16 2 16.45 17.2 15.95 29.3-.1 2.36-3.37 2.77-4.14.53-2.09-6.09-6.22-12.01-14.29-13.15-7.52-1.06-12.53 2.86-15.81 7.71ZM737.34 228.49c-1.1 1.61-3.48.47-3.01-1.45 2.44-9.92 7.65-21.1 18.62-19.18 11.32 1.98 12.61 15.08 11.77 25.48-.16 2.03-2.81 2.31-3.35.38-1.46-5.28-4.57-10.44-11.03-11.56-6.01-1.05-10.19 2.22-13 6.34Z" class="cls-2"/><path d="m682.38 269.15 37.54 7.12s-5.13 17.62-19.31 14.94c-19.75-3.74-18.23-22.05-18.23-22.05Z" style="fill:#5b5a72"/><path d="M697.5 151.87s-16.18-11.73-43.11 8.78c0 0 19.27-21.94 30.33-21.11 10.32.77 12.77 12.33 12.77 12.33ZM747.59 165.33s14.33-3.77 24.11 22.22c0 0-4.45-24.45-11.72-27.67-6.78-3.01-12.39 5.45-12.39 5.45Z" class="cls-2"/><path d="m550.99 415.61-448.77 23.91 451.33 4.27-2.56-28.18z" style="fill:url(#Dégradé_sans_nom_26)"/><path d="M575.45 318.46s-13.84-18.06-54.56 12.18c-40.73 30.24-67.83 69.28-60.85 76.62 5.27 5.55 41.17-17.3 79.05-41 38.91-24.35 43.98-38.11 36.37-47.81Z" style="fill:url(#Dégradé_sans_nom_46)"/><path d="M518.63 327.59c8.24-6.12 15.96-10.71 23.1-13.77l-.35-3.84-340.48 14.08 306.12 12.66c3.73-3.1 7.6-6.16 11.61-9.14Z" style="fill:url(#Dégradé_sans_nom_26-2)"/><path d="m721.97 338.9-60.69 3.25-33.33 67.5c-2.45 4.95-7.03 3.07-5.37-2.21l22.88-71.79-87.07-64.04c-6.74-5.46-16.73-.16-15.92 8.48l2.94 32.29c5.6-2.03 10.83-3.07 15.64-3.07 11.83 0 16.88 6.14 17.39 6.8 3.2 4.07 4.39 8.56 3.56 13.35-1.7 9.7-11.91 20.69-31.92 34.21l11.06 121.53c1.04 11.76 13.87 17.04 22.01 9.06l142.39-138.85c5.96-5.86 3.74-16.18-3.57-16.5Z" style="fill:url(#Dégradé_sans_nom_11-4)"/><path d="m541.1 369.49-4.49 2.81c-17 10.65-31.25 19.5-42.77 26.12l55.86 3.06-3.22-35.43c-1.73 1.13-3.51 2.27-5.37 3.44Z" style="fill:url(#Dégradé_sans_nom_26-3)"/><path d="M494.81 347.51 34.98 373.32l421.84 23.08c4.6-12.05 18.48-30.58 37.99-48.89Z" style="fill:url(#Dégradé_sans_nom_26-4)"/><path d="M621.55 461.96c15.91-6.17 40.86-21.95 65.17-45.14 24.49-23.35 25.85-35.92 23.95-41.77l-89.12 86.91Z" style="fill:url(#Dégradé_sans_nom_26-5)"/><path d="m405.13 162.21-6.56-2.34-5.45 3.94c-.66.48-1.58 0-1.56-.83l.19-6.72-5.43-3.97a.985.985 0 0 1 .3-1.74l6.45-1.9 2.09-6.39c.25-.78 1.29-.92 1.75-.25l3.8 5.55 6.73.02c.82 0 1.28.94.78 1.58l-4.1 5.33 2.14 6.63c.22.68-.44 1.32-1.12 1.08Z" style="fill:url(#Dégradé_sans_nom_11-5)"/><path d="m81.54 59.62-6.56-2.34-5.45 3.94c-.66.48-1.58 0-1.56-.83l.19-6.72-5.43-3.97a.985.985 0 0 1 .3-1.74l6.45-1.9 2.09-6.39c.25-.78 1.29-.92 1.75-.25l3.8 5.55 6.73.02c.82 0 1.28.94.78 1.58l-4.1 5.33 2.14 6.63c.22.68-.44 1.32-1.12 1.08Z" style="fill:url(#Dégradé_sans_nom_11-6)"/><path d="m109.58 163.55-6.56-2.34-5.45 3.94c-.66.48-1.58 0-1.56-.83l.19-6.72-5.43-3.97a.985.985 0 0 1 .3-1.74l6.45-1.9 2.09-6.39c.25-.78 1.29-.92 1.75-.25l3.8 5.55 6.73.02c.82 0 1.28.94.78 1.58l-4.1 5.33 2.14 6.63c.22.68-.44 1.32-1.12 1.08Z" style="fill:url(#Dégradé_sans_nom_11-7)"/><path d="m521.43 211.9-3.72 1.12-1.14 3.58c-.14.43-.71.52-.97.15l-2.14-3.08-3.76.02c-.46 0-.72-.52-.44-.88l2.27-2.99-1.18-3.57c-.14-.43.27-.84.7-.69l3.55 1.23 3.03-2.22c.37-.27.88 0 .87.45l-.08 3.76 3.16 2.27c.33.23.24.74-.14.86Z" style="fill:url(#Dégradé_sans_nom_11-8)"/><path d="m307.37 263.94-3.97-2.51-4.17 1.78a.657.657 0 0 1-.9-.77l1.12-4.39-2.98-3.42c-.36-.41-.09-1.06.46-1.1l4.53-.29 2.33-3.89c.28-.47.98-.42 1.19.1l1.67 4.21 4.42 1.01c.54.12.7.81.28 1.16l-3.49 2.89.42 4.68c.04.48-.49.81-.9.55Z" style="fill:url(#Dégradé_sans_nom_11-9)"/><path d="M248.97 190.21 245 187.7l-4.17 1.78a.657.657 0 0 1-.9-.77l1.12-4.39-2.98-3.42c-.36-.41-.09-1.06.46-1.1l4.53-.29 2.33-3.89c.28-.47.98-.42 1.19.1l1.67 4.21 4.42 1.01c.54.12.7.81.28 1.16l-3.49 2.89.42 4.68c.04.48-.49.81-.9.55Z" style="fill:url(#Dégradé_sans_nom_11-10)"/><path d="m126.65 251.11-3.97-2.51-4.17 1.78a.657.657 0 0 1-.9-.77l1.12-4.39-2.98-3.42c-.36-.41-.09-1.06.46-1.1l4.53-.29 2.33-3.89c.28-.47.98-.42 1.19.1l1.67 4.21 4.42 1.01c.54.12.7.81.28 1.16l-3.49 2.89.42 4.68c.04.48-.49.81-.9.55Z" style="fill:url(#Dégradé_sans_nom_11-11)"/><path d="m216.9 62.31-3.97-2.51-4.17 1.78a.657.657 0 0 1-.9-.77l1.12-4.39L206 53c-.36-.41-.09-1.06.46-1.1l4.53-.29 2.33-3.89c.28-.47.98-.42 1.19.1l1.67 4.21 4.42 1.01c.54.12.7.81.28 1.16l-3.49 2.89.42 4.68c.04.48-.49.81-.9.55Z" style="fill:url(#Dégradé_sans_nom_11-12)"/><path d="m298.2 142.4-1.13-5.25-4.8-1.98a.759.759 0 0 1-.09-1.36l4.49-2.6.4-5.18c.05-.63.8-.93 1.26-.51l3.86 3.47 5.05-1.22c.61-.15 1.13.47.87 1.05l-2.1 4.75 2.72 4.42c.33.54-.1 1.22-.72 1.15l-5.16-.53-3.48 4.09c-.36.42-1.05.25-1.16-.29Z" style="fill:url(#Dégradé_sans_nom_11-13)"/><path d="m435.77 183.68-2.77.84-.85 2.66c-.1.32-.53.39-.72.11l-1.59-2.29h-2.79c-.34.02-.53-.37-.33-.64l1.69-2.22-.88-2.65c-.11-.32.2-.63.52-.51l2.64.92 2.25-1.65c.27-.2.66 0 .65.34l-.06 2.79 2.35 1.69c.24.17.18.55-.11.64Z" style="fill:url(#Dégradé_sans_nom_11-14)"/><path d="m281.99 102.68-.47-2.85-2.53-1.18a.403.403 0 0 1-.01-.73l2.48-1.29.35-2.77c.04-.34.45-.48.69-.24l1.99 1.96 2.74-.53c.33-.06.59.28.44.58l-1.25 2.5 1.35 2.44c.16.3-.08.65-.42.6l-2.76-.42-1.98 2.11a.36.36 0 0 1-.62-.19Z" style="fill:url(#Dégradé_sans_nom_11-15)"/><path d="m190.96 100.9-2.88-.26-1.78 2.15c-.22.26-.64.16-.71-.17l-.62-2.72-2.59-1.03c-.31-.12-.35-.56-.06-.73l2.4-1.43.18-2.79c.02-.34.42-.5.68-.28l2.1 1.84 2.7-.69c.33-.08.61.24.48.56l-1.1 2.57 1.55 2.44a.36.36 0 0 1-.34.55Z" style="fill:url(#Dégradé_sans_nom_11-16)"/><path d="m190.96 231.25-2.88-.26-1.78 2.15c-.22.26-.64.16-.71-.17l-.62-2.72-2.59-1.03c-.31-.12-.35-.56-.06-.73l2.4-1.43.18-2.79c.02-.34.42-.5.68-.28l2.1 1.84 2.7-.69c.33-.08.61.24.48.56l-1.1 2.57 1.55 2.44a.36.36 0 0 1-.34.55Z" style="fill:url(#Dégradé_sans_nom_11-17)"/><path d="m45.05 113.61-2.88-.26-1.78 2.15c-.22.26-.64.16-.71-.17l-.62-2.72-2.59-1.03c-.31-.12-.35-.56-.06-.73l2.4-1.43.18-2.79c.02-.34.42-.5.68-.28l2.1 1.84 2.7-.69c.33-.08.61.24.48.56l-1.1 2.57 1.55 2.44a.36.36 0 0 1-.34.55Z" style="fill:url(#Dégradé_sans_nom_11-18)"/><path d="m73.19 195.71-2.88-.26-1.78 2.15c-.22.26-.64.16-.71-.17l-.62-2.72-2.59-1.03c-.31-.12-.35-.56-.06-.73l2.4-1.43.18-2.79c.02-.34.42-.5.68-.28l2.1 1.84 2.7-.69c.33-.08.61.24.48.56l-1.1 2.57 1.55 2.44a.36.36 0 0 1-.34.55Z" style="fill:url(#Dégradé_sans_nom_11-19)"/><path d="m468.35 238.16-3.2 5.75 2.83 5.69a.933.933 0 0 1-1.01 1.33l-6.24-1.22-4.54 4.45a.928.928 0 0 1-1.57-.55l-.77-6.31-5.64-2.94a.933.933 0 0 1 .04-1.67l5.77-2.68 1.06-6.27a.933.933 0 0 1 1.6-.48l4.33 4.65 6.51-.96c.67-.1 1.17.62.84 1.21Z" style="fill:url(#Dégradé_sans_nom_11-20)"/><path d="m367.9 225.16-1.98 3.57 1.75 3.53c.21.43-.16.91-.63.82l-3.87-.76-2.81 2.76c-.34.33-.92.13-.98-.34l-.48-3.91-3.49-1.82a.576.576 0 0 1 .02-1.03l3.57-1.66.66-3.89c.08-.47.67-.65.99-.3l2.69 2.88 4.04-.6c.42-.06.72.38.52.75Z" style="fill:url(#Dégradé_sans_nom_11-21)"/><path d="m115.12 94.42-4.06.35-1.94 3.43c-.24.42-.85.38-1.03-.06l-1.54-3.63-3.86-.79a.576.576 0 0 1-.26-1l2.98-2.58-.44-3.92c-.05-.47.46-.81.87-.56l3.38 2.03 3.59-1.63c.44-.2.91.19.8.66l-.89 3.84 2.75 3.01c.28.31.09.81-.33.85Z" style="fill:url(#Dégradé_sans_nom_11-22)"/></svg>