<svg xmlns="http://www.w3.org/2000/svg" xmlns:xlink="http://www.w3.org/1999/xlink" id="Calque_1" data-name="Calque 1" viewBox="0 0 841.89 595.28"><defs><linearGradient id="Dégradé_sans_nom_11" x1="189.84" x2="325.37" y1="231.65" y2="367.18" data-name="Dégradé sans nom 11" gradientUnits="userSpaceOnUse"><stop offset=".1" stop-color="#5b5a72"/><stop offset=".5" stop-color="#b0b0bf"/><stop offset=".96" stop-color="#f4f4f6"/></linearGradient><linearGradient id="Dégradé_secondaire1" x1="546.49" x2="493.12" y1="421.06" y2="367.69" data-name="Dégradé secondaire1" gradientUnits="userSpaceOnUse"><stop offset="0" stop-color="#5b5a72"/><stop offset="1" stop-color="#b0b0bf"/></linearGradient><linearGradient id="Dégradé_sans_nom_26" x1="650.49" x2="722.42" y1="430.36" y2="358.43" data-name="Dégradé sans nom 26" gradientUnits="userSpaceOnUse"><stop offset="0" stop-color="#b0b0bf"/><stop offset="1" stop-color="#f4f4f6"/></linearGradient><linearGradient xlink:href="#Dégradé_sans_nom_11" id="Dégradé_sans_nom_11-2" x1="558.4" x2="668.14" y1="393.34" y2="503.07" data-name="Dégradé sans nom 11"/><linearGradient xlink:href="#Dégradé_sans_nom_11" id="Dégradé_sans_nom_11-3" x1="527.41" x2="670.76" y1="225.56" y2="368.92" data-name="Dégradé sans nom 11"/><linearGradient id="Dégradé_sans_nom_10" x1="327.03" x2="452.2" y1="138.55" y2="263.71" data-name="Dégradé sans nom 10" gradientUnits="userSpaceOnUse"><stop offset="0" stop-color="#b0b0bf"/><stop offset="1" stop-color="#f4f4f6"/></linearGradient><linearGradient xlink:href="#Dégradé_sans_nom_10" id="Dégradé_sans_nom_10-2" x1="391.57" x2="516.73" y1="74.01" y2="199.18" data-name="Dégradé sans nom 10"/><linearGradient xlink:href="#Dégradé_sans_nom_11" id="Dégradé_sans_nom_11-4" x1="522.73" x2="532.11" y1="97.84" y2="107.23" data-name="Dégradé sans nom 11"/><linearGradient xlink:href="#Dégradé_sans_nom_11" id="Dégradé_sans_nom_11-5" x1="522.73" x2="532.11" y1="-6514.9" y2="-6505.51" data-name="Dégradé sans nom 11" gradientTransform="matrix(1 0 0 -1 0 -6334.94)"/><linearGradient xlink:href="#Dégradé_sans_nom_11" id="Dégradé_sans_nom_11-6" x1="525.63" x2="552.16" y1="125.63" y2="152.17" data-name="Dégradé sans nom 11"/><linearGradient xlink:href="#Dégradé_sans_nom_11" id="Dégradé_sans_nom_11-7" x1="4371.75" x2="4381.14" y1="97.84" y2="107.23" data-name="Dégradé sans nom 11" gradientTransform="matrix(-1 0 0 1 4692.68 0)"/><linearGradient xlink:href="#Dégradé_sans_nom_11" id="Dégradé_sans_nom_11-8" x1="4371.75" x2="4381.14" y1="-6514.9" y2="-6505.51" data-name="Dégradé sans nom 11" gradientTransform="rotate(-180 2346.34 -3167.47)"/><linearGradient xlink:href="#Dégradé_sans_nom_11" id="Dégradé_sans_nom_11-9" x1="4374.65" x2="4401.19" y1="125.63" y2="152.17" data-name="Dégradé sans nom 11" gradientTransform="matrix(-1 0 0 1 4692.68 0)"/><linearGradient xlink:href="#Dégradé_sans_nom_11" id="Dégradé_sans_nom_11-10" x1="1874.31" x2="1893" y1="626.11" y2="644.79" data-name="Dégradé sans nom 11" gradientTransform="rotate(20.78 2496.911 -3052.774)"/><linearGradient xlink:href="#Dégradé_sans_nom_11" id="Dégradé_sans_nom_11-11" x1="-250.94" x2="-240.51" y1="-589.16" y2="-578.72" data-name="Dégradé sans nom 11" gradientTransform="rotate(-15.64 2484.264 -3410.036)"/><linearGradient xlink:href="#Dégradé_sans_nom_11" id="Dégradé_sans_nom_11-12" x1="2594.93" x2="2607.53" y1="618.7" y2="631.3" data-name="Dégradé sans nom 11" gradientTransform="rotate(33.52 2434.465 -3011.362)"/><linearGradient xlink:href="#Dégradé_sans_nom_11" id="Dégradé_sans_nom_11-13" x1="2535.24" x2="2547.83" y1="552.2" y2="564.79" data-name="Dégradé sans nom 11" gradientTransform="rotate(102.58 1762.229 -502.255)"/><linearGradient xlink:href="#Dégradé_sans_nom_11" id="Dégradé_sans_nom_11-14" x1="-263.21" x2="-255.45" y1="-500.39" y2="-492.64" data-name="Dégradé sans nom 11" gradientTransform="rotate(-15.64 2484.264 -3410.036)"/><linearGradient xlink:href="#Dégradé_sans_nom_11" id="Dégradé_sans_nom_11-15" x1="-358.83" x2="-351.08" y1="-610.09" y2="-602.34" data-name="Dégradé sans nom 11" gradientTransform="rotate(-15.64 2484.264 -3410.036)"/><linearGradient xlink:href="#Dégradé_sans_nom_11" id="Dégradé_sans_nom_11-16" x1="-457.69" x2="-449.93" y1="-664.87" y2="-657.11" data-name="Dégradé sans nom 11" gradientTransform="rotate(-15.64 2484.264 -3410.036)"/><linearGradient xlink:href="#Dégradé_sans_nom_11" id="Dégradé_sans_nom_11-17" x1="-556.24" x2="-548.49" y1="-670.28" y2="-662.53" data-name="Dégradé sans nom 11" gradientTransform="rotate(-15.64 2484.264 -3410.036)"/><linearGradient xlink:href="#Dégradé_sans_nom_11" id="Dégradé_sans_nom_11-18" x1="-1262.39" x2="-1244.73" y1="-3175.09" y2="-3157.43" data-name="Dégradé sans nom 11" gradientTransform="rotate(-59.78 2536.872 -3215.338)"/><linearGradient xlink:href="#Dégradé_sans_nom_11" id="Dégradé_sans_nom_11-19" x1="-1326.45" x2="-1315.51" y1="-3100.79" y2="-3089.85" data-name="Dégradé sans nom 11" gradientTransform="rotate(-59.78 2536.872 -3215.338)"/><linearGradient xlink:href="#Dégradé_sans_nom_11" id="Dégradé_sans_nom_11-20" x1="5473" x2="5491.69" y1="-739.33" y2="-720.65" data-name="Dégradé sans nom 11" gradientTransform="scale(-1 1) rotate(20.78 150.571 -15849.554)"/><linearGradient xlink:href="#Dégradé_sans_nom_11" id="Dégradé_sans_nom_11-21" x1="5316.81" x2="5335.5" y1="-792.34" y2="-773.66" data-name="Dégradé sans nom 11" gradientTransform="scale(-1 1) rotate(20.78 150.571 -15849.554)"/><linearGradient xlink:href="#Dégradé_sans_nom_11" id="Dégradé_sans_nom_11-22" x1="3455.57" x2="3466" y1="448.53" y2="458.96" data-name="Dégradé sans nom 11" gradientTransform="scale(-1 1) rotate(-15.64 137.924 13674.31)"/><linearGradient xlink:href="#Dégradé_sans_nom_11" id="Dégradé_sans_nom_11-23" x1="5803.95" x2="5816.55" y1="-1506.67" y2="-1494.08" data-name="Dégradé sans nom 11" gradientTransform="scale(-1 1) rotate(33.52 88.125 -10802.468)"/><linearGradient xlink:href="#Dégradé_sans_nom_11" id="Dégradé_sans_nom_11-24" x1="5628.6" x2="5641.2" y1="-1438.39" y2="-1425.79" data-name="Dégradé sans nom 11" gradientTransform="scale(-1 1) rotate(33.52 88.125 -10802.468)"/><linearGradient xlink:href="#Dégradé_sans_nom_11" id="Dégradé_sans_nom_11-25" x1="3443.3" x2="3451.06" y1="537.3" y2="545.05" data-name="Dégradé sans nom 11" gradientTransform="scale(-1 1) rotate(-15.64 137.924 13674.31)"/><linearGradient xlink:href="#Dégradé_sans_nom_11" id="Dégradé_sans_nom_11-26" x1="675.18" x2="692.84" y1="150.7" y2="168.36" data-name="Dégradé sans nom 11" gradientTransform="scale(-1 1) rotate(-59.78 190.532 866.721)"/><linearGradient xlink:href="#Dégradé_sans_nom_11" id="Dégradé_sans_nom_11-27" x1="611.12" x2="622.06" y1="224.99" y2="235.93" data-name="Dégradé sans nom 11" gradientTransform="scale(-1 1) rotate(-59.78 190.532 866.721)"/><linearGradient xlink:href="#Dégradé_sans_nom_10" id="Dégradé_sans_nom_10-3" x1="339.83" x2="465" y1="125.75" y2="250.91" data-name="Dégradé sans nom 10"/><linearGradient xlink:href="#Dégradé_sans_nom_10" id="Dégradé_sans_nom_10-4" x1="370.49" x2="495.66" y1="95.08" y2="220.25" data-name="Dégradé sans nom 10"/><linearGradient xlink:href="#Dégradé_sans_nom_26" id="Dégradé_sans_nom_26-2" x1="309.49" x2="371.63" y1="420.82" y2="358.68" data-name="Dégradé sans nom 26"/><linearGradient xlink:href="#Dégradé_secondaire1" id="Dégradé_secondaire1-2" x1="225.37" x2="137.5" y1="422" y2="334.13" data-name="Dégradé secondaire1"/><linearGradient xlink:href="#Dégradé_sans_nom_11" id="Dégradé_sans_nom_11-28" x1="202.84" x2="306.82" y1="407.12" y2="511.09" data-name="Dégradé sans nom 11"/><radialGradient id="Dégradé_sans_nom_17" cx="603.39" cy="581.22" r="92.73" data-name="Dégradé sans nom 17" fx="603.39" fy="581.22" gradientTransform="matrix(1.27 .00044 -.00004 .11 -165.53 514.93)" gradientUnits="userSpaceOnUse"><stop offset=".4" stop-color="#353544" stop-opacity=".5"/><stop offset="1" stop-color="#353544" stop-opacity="0"/></radialGradient><radialGradient xlink:href="#Dégradé_sans_nom_17" id="Dégradé_sans_nom_17-2" cx="260.96" cy="581.22" r="92.73" data-name="Dégradé sans nom 17" fx="260.96" fy="581.22" gradientTransform="matrix(-1.25 .00044 .00004 .11 580.46 515.05)"/><style>.cls-2{fill:#f4f4f6}.cls-3{fill:#fbabab}.cls-4{fill:#5b5a72}.cls-5{fill:#353544}</style></defs><path d="M340.06 303.51c-3.33-12.02-9.33-22.63-17.18-31.3-.46-.51-.94-1-1.41-1.5l-14.96-48.03c-1.16-3.72-6.56-3.33-7.16.53l-4.56 29.33c-15.31-6.28-32.75-7.72-49.95-2.96a77.023 77.023 0 0 0-31.9 17.76l-30.19-16.38c-2.99-1.62-6.5 1.06-5.71 4.37l12.62 53.29c-.03.17-.08.33-.11.5-2.28 11.47-1.97 23.66 1.36 35.68 11.39 41.14 54.01 65.28 95.2 53.88 41.19-11.4 65.34-54.02 53.95-95.16Zm-45.65 50.05c-15.96 4.42-33.17-7.57-38.48-26.77-5.33-19.25 3.27-38.38 19.23-42.8 15.92-4.41 33.17 7.57 38.5 26.82 5.31 19.2-3.33 38.34-19.24 42.75Z" style="fill:url(#Dégradé_sans_nom_11)"/><ellipse cx="603.39" cy="581.22" rx="120.06" ry="11.44" style="fill:url(#Dégradé_sans_nom_17)"/><path d="M539.73 419.61c-1.86-3.32-1.85-7.36.02-10.55 1.52-2.59 4.07-4.13 6.82-4.13.62 0 1.24.08 1.86.23.09.02.17.05.25.08l1.04.36c-.89-.86-1.82-1.74-2.81-2.66-26.64-24.39-54.08-36.63-57.98-31.65-2.32 2.97 8.05 21.33 31.98 42.23 11.31 9.88 20.15 16.58 26.82 20.26l-8.01-14.16Z" style="fill:url(#Dégradé_secondaire1)"/><path d="M653.17 430.21s12.58 9.94 35.15-17.78 34.31-59.08 28.27-62.88c-4.56-2.87-25.12 18.95-46.88 41.71-22.35 23.38-23.43 33.65-16.55 38.96Z" style="fill:url(#Dégradé_sans_nom_26)"/><path d="M659.56 434.68c-5 0-7.79-2.08-8.06-2.3-2.9-2.24-4.51-5.11-4.77-8.54-.47-6.14 3.47-14.12 12.23-24.68l-58.78 21.52 1.34 53.08c.09 3.9-3.38 4.27-4.06.44l-9.26-52.23-40.42-14.15c-5-1.22-8.54 5.32-5.66 10.46l68.99 121.98c3.94 7.01 13.66 5.96 16.68-1.79l41.68-106.23c-3.95 1.85-7.28 2.45-9.91 2.45Z" style="fill:url(#Dégradé_sans_nom_11-2)"/><path d="M675.04 228.09c-5.77-.97-11.29 2.76-13.34 15.02-1.55 9.23-.19 17.61 3.08 21.6l-4.32 25.69c-11.31-18.32-30.13-31.86-53.05-35.71-23.53-3.95-46.33 3.16-63.14 17.53l4.21-25.05c3.83-2.66 7.42-9.9 8.91-18.77 1.98-11.78-1.35-16.6-6.35-17.44s-9.72 2.63-11.7 14.41c-1.49 8.87-.5 16.83 2.2 20.59l-5.85 34.85a76.83 76.83 0 0 0-3.56 4.48 77.138 77.138 0 0 0-13.85 32.91c-7.07 42.09 21.35 82 63.5 89.08 42.15 7.08 82.05-21.34 89.12-63.43 2.07-12.3 1.11-24.45-2.34-35.63-.56-1.8-1.19-3.58-1.87-5.33l6.19-36.84c4.34-2.71 8.31-10.15 9.86-19.37 2.06-12.25-1.88-17.57-7.7-18.55Zm-70.67 104.55c-3.3 19.64-19.18 33.35-35.51 30.6-16.29-2.74-26.86-20.88-23.56-40.53 3.31-19.7 19.23-33.39 35.52-30.66 16.33 2.74 26.86 20.88 23.55 40.58Z" style="fill:url(#Dégradé_sans_nom_11-3)"/><path d="M598.31 286.56s13.7-3.26 25.68 17.37c0 0-6.6-19.48-14.03-21.94-6.92-2.29-11.65 4.57-11.65 4.57ZM562.78 282.07s-8.3-6.33-21.7 7.94c0 0 9.51-14.7 15.11-14.84 5.23-.12 6.59 6.9 6.59 6.9Z" class="cls-5"/><path d="m577.59 368.08-20.57-2.55s-1.51 15.55 6.26 16.51c10.82 1.34 14.31-13.97 14.31-13.97Z" class="cls-4"/><path d="M592.83 337.89c-.96 1.34-3.1.38-2.71-1.22 2.03-8.28 6.5-17.61 16.32-15.96 10.14 1.7 11.49 12.67 10.9 21.36-.11 1.7-2.48 1.92-2.99.3-1.39-4.42-4.24-8.75-10.02-9.72-5.38-.9-9.06 1.82-11.51 5.24ZM537.26 327.48c-.77 1.17-2.45.37-2.12-1.02 1.7-7.17 5.35-15.26 13.09-13.96 7.99 1.34 8.92 10.78 8.35 18.28-.11 1.46-1.98 1.69-2.36.3-1.04-3.79-3.24-7.49-7.79-8.25-4.24-.71-7.18 1.68-9.16 4.66Z" class="cls-5"/><ellipse cx="254.11" cy="581.22" rx="117.82" ry="11.44" style="fill:url(#Dégradé_sans_nom_17-2)"/><path d="m285.39 360.36 20.19-4.66s3.11 15.31-4.52 17.07c-10.62 2.45-15.68-12.41-15.68-12.41Z" class="cls-4"/><path d="M257.2 280.34s-13.97-1.82-23.74 19.93c0 0 4.56-20.06 11.68-23.27 6.65-2.99 12.06 3.34 12.06 3.34ZM292.07 272.2s7.61-7.15 22.4 5.65c0 0-10.97-13.64-16.56-13.19-5.21.42-5.84 7.54-5.84 7.54Z" class="cls-5"/><ellipse cx="249.81" cy="359.35" class="cls-3" rx="11.16" ry="3.81" transform="rotate(-15.47 249.803 359.348)"/><ellipse cx="331.51" cy="336.73" class="cls-3" rx="7.58" ry="2.96" transform="rotate(-15.47 331.528 336.745)"/><path d="M270.68 329.28c-2.87-8.03-8.28-16.85-17.88-14.19-3.89 1.08-6.28 3.44-7.67 6.43-1.43.67-6.18 1.68-10.28-.79 0 0 2.16 7.74 8.66 8.19 0 0-6.59 4.97-13.94 2.08 0 0 5.28 7.83 14.58 6.47.29 1.67 2.66 1.66 3 0 .92-4.54 3.31-9.14 8.96-10.7 5.26-1.46 9.2.87 11.99 4.03 1.09 1.24 3.12.06 2.57-1.5ZM331.11 302.01c-3.66 5.53-10.08 4.42-10.08 4.42 4.16-3.22 2.03-10.26 2.03-10.26-1.67 3.76-6.17 5.02-7.43 5.11-1.69-.76-3.6-.97-5.78-.37-7.8 2.16-7.76 11.64-6.41 19.04.26 1.44 2.14 1.48 2.38.05.64-3.88 2.45-7.78 6.9-9.01 4.15-1.15 7.32.93 9.59 3.69.89 1.08 2.48.11 2.01-1.24 6.84-3 6.79-11.43 6.79-11.43Z" class="cls-5"/><path d="M379.09 156.58c-19.73-11.94-25.66-26.18-19.85-30.23 4.48-3.13 9.17-1.08 12.47 1.38-.38-3.16-.62-6.07-.75-8.61-3.89-2.4-10.31-4.11-17.95 2.5-11.38 9.85 5.35 35.78 31.23 45.24a82.868 82.868 0 0 1-5.15-10.28Z" class="cls-2"/><rect width="79.54" height="8.43" x="382.06" y="229.13" rx="4.21" ry="4.21" style="fill:url(#Dégradé_sans_nom_10)"/><rect width="103.25" height="8.43" x="370.2" y="100.05" rx="4.21" ry="4.21" style="fill:url(#Dégradé_sans_nom_10-2)"/><path d="m509.67 113.01 35.49-20.96" style="stroke:url(#Dégradé_sans_nom_11-4);fill:none;stroke-linecap:round;stroke-linejoin:round;stroke-width:3px"/><path d="m509.67 164.78 35.49 20.96" style="stroke:url(#Dégradé_sans_nom_11-5);fill:none;stroke-linecap:round;stroke-linejoin:round;stroke-width:3px"/><path d="M514.48 138.9h48.83" style="stroke:url(#Dégradé_sans_nom_11-6);fill:none;stroke-linecap:round;stroke-linejoin:round;stroke-width:3px"/><path d="m333.98 113.01-35.49-20.96" style="stroke:url(#Dégradé_sans_nom_11-7);fill:none;stroke-linecap:round;stroke-linejoin:round;stroke-width:3px"/><path d="m333.98 164.78-35.49 20.96" style="stroke:url(#Dégradé_sans_nom_11-8);fill:none;stroke-linecap:round;stroke-linejoin:round;stroke-width:3px"/><path d="M329.17 138.9h-48.83" style="fill:none;stroke-linecap:round;stroke-linejoin:round;stroke-width:3px;stroke:url(#Dégradé_sans_nom_11-9)"/><path d="m620.42 167.23.67 6.93 5.88 3.27c.71.4.66 1.44-.09 1.76l-6.17 2.68-1.29 6.6a.982.982 0 0 1-1.7.46l-4.46-5.04-6.68.81c-.81.1-1.38-.77-.97-1.48l3.42-5.8-2.84-6.1a.99.99 0 0 1 1.11-1.38l6.57 1.46 5.1-4.75c.53-.49 1.39-.16 1.45.55Z" style="fill:url(#Dégradé_sans_nom_11-10)"/><path d="m616.1 40.84 2.6 2.89 3.73-.48c.45-.06.77.43.55.82l-1.88 3.25 1.61 3.39c.2.41-.17.87-.61.77l-3.67-.79-2.73 2.58c-.33.31-.88.11-.92-.34l-.39-3.74-3.3-1.8c-.4-.22-.38-.8.04-.98l3.43-1.52.72-3.82c.07-.39.57-.53.84-.23Z" style="fill:url(#Dégradé_sans_nom_11-11)"/><path d="m570.6 106.02-.59 4.66 3.38 3.02c.41.37.22 1.04-.32 1.15l-4.46.85-1.83 4.15c-.22.5-.92.53-1.19.05l-2.18-3.98-4.51-.46a.663.663 0 0 1-.42-1.11l3.11-3.3-.96-4.43a.66.66 0 0 1 .93-.74l4.1 1.93 4.06-2.36c.42-.24.94.1.87.58Z" style="fill:url(#Dégradé_sans_nom_11-12)"/><path d="m564.86 29.85-4.56 1.11-1.61 4.24c-.2.51-.9.58-1.18.11l-2.38-3.86-4.53-.23a.66.66 0 0 1-.47-1.09l2.93-3.46-1.19-4.38c-.14-.53.38-1 .89-.79l4.2 1.72 3.8-2.48a.66.66 0 0 1 1.02.61l-.34 4.52 3.66 2.94c.38.3.24.91-.23 1.02Z" style="fill:url(#Dégradé_sans_nom_11-13)"/><path d="m626.86 130.38 1.93 2.15 2.77-.36c.34-.04.58.32.41.61l-1.4 2.42 1.2 2.52a.4.4 0 0 1-.45.57l-2.73-.58-2.03 1.92c-.25.23-.65.08-.69-.25l-.29-2.78-2.45-1.34c-.3-.16-.28-.59.03-.73l2.55-1.13.53-2.84c.06-.29.42-.4.62-.17Z" style="fill:url(#Dégradé_sans_nom_11-14)"/><path d="m505.2 50.52 1.93 2.15 2.77-.36c.34-.04.58.32.41.61l-1.4 2.42 1.2 2.52a.4.4 0 0 1-.45.57l-2.73-.58-2.03 1.92c-.25.23-.65.08-.69-.25l-.29-2.78-2.45-1.34c-.3-.16-.28-.59.03-.73l2.55-1.13.53-2.84c.06-.29.42-.4.62-.17Z" style="fill:url(#Dégradé_sans_nom_11-15)"/><path d="m395.24 24.42 1.93 2.15 2.77-.36c.34-.04.58.32.41.61l-1.4 2.42 1.2 2.52a.4.4 0 0 1-.45.57l-2.73-.58-2.03 1.92c-.25.23-.65.08-.69-.25l-.29-2.78-2.45-1.34c-.3-.16-.28-.59.03-.73l2.55-1.13.53-2.84c.06-.29.42-.4.62-.17Z" style="fill:url(#Dégradé_sans_nom_11-16)"/><path d="m298.88 45.78 1.93 2.15 2.77-.36c.34-.04.58.32.41.61l-1.4 2.42 1.2 2.52a.4.4 0 0 1-.45.57l-2.73-.58-2.03 1.92c-.25.23-.65.08-.69-.25L297.6 52l-2.45-1.34c-.3-.16-.28-.59.03-.73l2.55-1.13.53-2.84c.06-.29.42-.4.62-.17Z" style="fill:url(#Dégradé_sans_nom_11-17)"/><path d="m662.38 77.77 6.57.45 3.96-4.98a.933.933 0 0 1 1.63.35l1.54 6.17 5.96 2.23c.72.27.82 1.25.17 1.66l-5.39 3.37-.28 6.35c-.03.77-.94 1.17-1.53.67l-4.87-4.08-6.13 1.7a.927.927 0 0 1-1.11-1.24l2.38-5.9-3.63-5.49a.817.817 0 0 1 .74-1.27Z" style="fill:url(#Dégradé_sans_nom_11-18)"/><path d="m693.21 174.26 4.07.28 2.45-3.08c.3-.37.89-.24 1.01.22l.96 3.82 3.69 1.38c.45.17.51.78.1 1.03l-3.34 2.09-.17 3.94c-.02.48-.58.72-.95.42l-3.02-2.53-3.8 1.05a.576.576 0 0 1-.69-.77l1.47-3.66-2.25-3.4c-.23-.35.04-.82.46-.79Z" style="fill:url(#Dégradé_sans_nom_11-19)"/><path d="m223.24 167.23-.67 6.93-5.88 3.27c-.71.4-.66 1.44.09 1.76l6.17 2.68 1.29 6.6a.982.982 0 0 0 1.7.46l4.46-5.04 6.68.81c.81.1 1.38-.77.97-1.48l-3.42-5.8 2.84-6.1a.99.99 0 0 0-1.11-1.38l-6.57 1.46-5.1-4.75c-.53-.49-1.39-.16-1.45.55Z" style="fill:url(#Dégradé_sans_nom_11-20)"/><path d="m350.47 62.27-.67 6.93-5.88 3.27c-.71.4-.66 1.44.09 1.76l6.17 2.68 1.29 6.6a.982.982 0 0 0 1.7.46l4.46-5.04 6.68.81c.81.1 1.38-.77.97-1.48l-3.42-5.8 2.84-6.1a.99.99 0 0 0-1.11-1.38l-6.57 1.46-5.1-4.75c-.53-.49-1.39-.16-1.45.55Z" style="fill:url(#Dégradé_sans_nom_11-21)"/><path d="m227.55 40.84-2.6 2.89-3.73-.48c-.45-.06-.77.43-.55.82l1.88 3.25-1.61 3.39c-.2.41.17.87.61.77l3.67-.79 2.73 2.58c.33.31.88.11.92-.34l.39-3.74 3.3-1.8c.4-.22.38-.8-.04-.98l-3.43-1.52-.72-3.82c-.07-.39-.57-.53-.84-.23Z" style="fill:url(#Dégradé_sans_nom_11-22)"/><path d="m273.06 106.02.59 4.66-3.38 3.02a.667.667 0 0 0 .32 1.15l4.46.85 1.83 4.15c.22.5.92.53 1.19.05l2.18-3.98 4.51-.46c.55-.06.79-.71.42-1.11l-3.11-3.3.96-4.43a.66.66 0 0 0-.93-.74l-4.1 1.93-4.06-2.36c-.42-.24-.94.1-.87.58Z" style="fill:url(#Dégradé_sans_nom_11-23)"/><path d="m456.95 66.12.59 4.66-3.38 3.02a.667.667 0 0 0 .32 1.15l4.46.85 1.83 4.15c.22.5.92.53 1.19.05l2.18-3.98 4.51-.46c.55-.06.79-.71.42-1.11l-3.11-3.3.96-4.43a.66.66 0 0 0-.93-.74l-4.1 1.93-4.06-2.36c-.42-.24-.94.1-.87.58Z" style="fill:url(#Dégradé_sans_nom_11-24)"/><path d="m216.79 130.38-1.93 2.15-2.77-.36c-.34-.04-.58.32-.41.61l1.4 2.42-1.2 2.52a.4.4 0 0 0 .45.57l2.73-.58 2.03 1.92c.25.23.65.08.69-.25l.29-2.78 2.45-1.34c.3-.16.28-.59-.03-.73l-2.55-1.13-.53-2.84c-.06-.29-.42-.4-.62-.17Z" style="fill:url(#Dégradé_sans_nom_11-25)"/><path d="m181.27 77.77-6.57.45-3.96-4.98a.933.933 0 0 0-1.63.35l-1.54 6.17-5.96 2.23a.932.932 0 0 0-.17 1.66l5.39 3.37.28 6.35c.03.77.94 1.17 1.53.67l4.87-4.08 6.13 1.7c.74.21 1.4-.53 1.11-1.24l-2.38-5.9 3.63-5.49a.817.817 0 0 0-.74-1.27Z" style="fill:url(#Dégradé_sans_nom_11-26)"/><path d="m150.44 174.26-4.07.28-2.45-3.08a.579.579 0 0 0-1.01.22l-.96 3.82-3.69 1.38c-.45.17-.51.78-.1 1.03l3.34 2.09.17 3.94c.02.48.58.72.95.42l3.02-2.53 3.8 1.05c.46.13.87-.33.69-.77l-1.47-3.66 2.25-3.4a.511.511 0 0 0-.46-.79Z" style="fill:url(#Dégradé_sans_nom_11-27)"/><rect width="35.12" height="8.43" x="404.27" y="203.53" rx="4.21" ry="4.21" style="fill:url(#Dégradé_sans_nom_10-3)"/><path d="M469.04 112.28h-94.43c-.1 13.16 2.26 57.08 36.68 76.27v11.18h21.07v-11.18c34.42-19.19 36.78-63.1 36.68-76.27Zm-22.97 30.19-7.97 7.77 1.88 10.97c.29 1.67-.17 3.36-1.26 4.65a5.719 5.719 0 0 1-4.38 2.04c-.92 0-1.84-.23-2.66-.66l-9.86-5.18-9.86 5.18c-.82.43-1.74.66-2.66.66-1.69 0-3.29-.75-4.38-2.04a5.744 5.744 0 0 1-1.26-4.65l1.88-10.97-7.97-7.77a5.679 5.679 0 0 1-1.45-5.86 5.673 5.673 0 0 1 4.62-3.89l11.02-1.6 5.13-10.4c.93-1.89 2.82-3.06 4.92-3.06s3.99 1.17 4.92 3.06l5.13 10.4 11.02 1.6c2.17.32 3.94 1.81 4.62 3.89.68 2.09.12 4.33-1.45 5.86Z" class="cls-2"/><path d="M490.64 121.62c-7.64-6.62-14.06-4.91-17.95-2.5-.13 2.55-.36 5.45-.75 8.61 3.3-2.46 7.99-4.5 12.47-1.38 5.8 4.05-.12 18.29-19.85 30.23a83.57 83.57 0 0 1-5.15 10.28c25.88-9.46 42.61-35.39 31.23-45.24Z" class="cls-2"/><path d="M434.61 164.09c.11-.02.21-.04.32-.07.05-.02.1-.03.14-.05.12-.05.24-.12.35-.19l.06-.03c.13-.09.24-.2.34-.32.03-.03.05-.07.08-.11.07-.09.13-.19.18-.29l.06-.15c.04-.1.07-.22.09-.33 0-.05.02-.1.03-.15.02-.17.02-.34-.01-.52l-.57-3.31-1.65-9.64 9.4-9.17c1.14-1.11.51-3.05-1.06-3.28l-12.99-1.89-6.02-12.19c-.31-.63-.91-.94-1.52-.94-.42 0-.84.16-1.16.47-.02.02-.05.03-.07.06-.11.12-.21.26-.28.41l-6.02 12.19-12.99 1.89c-.79.11-1.34.66-1.55 1.31-.21.65-.08 1.41.49 1.97l9.4 9.17-2.22 12.94c-.03.18-.03.35-.01.52 0 .05.02.1.03.15.02.11.05.22.09.33l.06.15c.05.1.11.2.18.29l.08.11c.1.12.21.23.34.32l.06.03c.11.08.23.14.35.19.05.02.1.03.14.05.1.03.21.06.32.07.05 0 .11.01.16.02.11 0 .22 0 .34-.02.05 0 .11 0 .16-.02.17-.04.33-.09.5-.18l11.62-6.11 11.62 6.11c.16.09.33.14.5.18.05.01.11.01.16.02.11.01.23.02.34.02.05 0 .11-.01.16-.02Z" style="fill:url(#Dégradé_sans_nom_10-4)"/><path d="M454.98 225.33c-4.75-6.68-10.31-10.07-14.33-11.75a7.962 7.962 0 0 1-5.48 2.18h-26.69a7.98 7.98 0 0 1-5.48-2.18c-4.02 1.69-9.58 5.07-14.33 11.75h66.3Z" class="cls-2"/><path d="M368.13 353.69c-4.35-3.83-32.93 18.84-60.11 53.98-.59.76-1.15 1.5-1.7 2.23l6.69-2.38c.12-.04.25-.08.38-.1.42-.06.86-.09 1.28-.09 2.73 0 5.3 1.26 6.87 3.37 1.36 1.83 1.79 4.08 1.17 6.19l-3.83 12.94c4.99-5.49 10.7-12.25 17.2-20.35 24.47-30.51 34.65-53.5 32.05-55.78Z" style="fill:url(#Dégradé_sans_nom_26-2)"/><path d="M221.82 427.45s12-9.58-16.4-44.79c-28.4-35.2-61.74-60.22-66.44-55.24-3.55 3.76 18.57 34.48 41.6 66.84 23.66 33.25 34.83 38.48 41.25 33.18Z" style="fill:url(#Dégradé_secondaire1-2)"/><path d="m313.68 409.4-16.7 5.95c-12.58 6.4-16.49 15.65-20.64 32.06l-6.72 23.2c-.59 2.3-2.64 3.15-4.46 2.81-1.84-.27-3.51-1.73-3.32-4.1l1.92-33.23c1.36-16.88-3.07-20.36-21.29-28.61l-25.25-11.87c5.64 8.98 9.86 18.56 9.01 26.3-.53 4.88-2.89 6.89-3.14 7.09-1.8 1.49-3.86 2.24-6.11 2.24-3.31 0-8.29-1.41-16.93-9.92l-.35 8.64c-.1 2.43-.11 4.86-.04 7.29.29 10.2 8.39 18.83 16.06 23.2L247.97 479l-35.82-5.93c-2.88-.48-5.27 1.78-4.56 4.31l23.58 68.59c1.57 4.76 5.55 7.66 9.88 8.38 4.34.72 9.2-.72 12.22-4.72l35.25-58.84c1.49-2.17-.04-5.08-2.93-5.55l-5.96-.99 13.37-8.02c8.05-4.19 12.39-11.31 15.96-20.87.85-2.28 1.62-4.59 2.31-6.92l9.51-32.12c1.13-3.83-2.7-7.56-7.11-6.92Z" style="fill:url(#Dégradé_sans_nom_11-28)"/></svg>