<svg xmlns="http://www.w3.org/2000/svg" xmlns:xlink="http://www.w3.org/1999/xlink" id="Calque_1" data-name="Calque 1" viewBox="0 0 841.89 595.28"><defs><linearGradient id="Dégradé_sans_nom_11" x1="353.55" x2="484.21" y1="227.12" y2="357.78" data-name="Dégradé sans nom 11" gradientUnits="userSpaceOnUse"><stop offset=".1" stop-color="#5b5a72"/><stop offset=".5" stop-color="#b0b0bf"/><stop offset=".96" stop-color="#f4f4f6"/></linearGradient><linearGradient xlink:href="#Dégradé_sans_nom_11" id="Dégradé_sans_nom_11-2" x1="363.98" x2="484.36" y1="350.2" y2="470.58" data-name="Dégradé sans nom 11"/><linearGradient xlink:href="#Dégradé_sans_nom_11" id="Dégradé_sans_nom_11-3" x1="345.81" x2="491.02" y1="235.59" y2="380.8" data-name="Dégradé sans nom 11"/><linearGradient xlink:href="#Dégradé_sans_nom_11" id="Dégradé_sans_nom_11-4" x1="413.66" x2="557.69" y1="150.51" y2="294.54" data-name="Dégradé sans nom 11"/><linearGradient id="Dégradé_sans_nom_26" x1="3184.13" x2="3242.47" y1="-3674.08" y2="-3615.74" data-name="Dégradé sans nom 26" gradientTransform="scale(1 -1) rotate(-33.82 7338.424 2477.45)" gradientUnits="userSpaceOnUse"><stop offset="0" stop-color="#b0b0bf"/><stop offset="1" stop-color="#f4f4f6"/></linearGradient><linearGradient id="Dégradé_sans_nom_9" x1="293.55" x2="380.08" y1="272.5" y2="359.03" data-name="Dégradé sans nom 9" gradientUnits="userSpaceOnUse"><stop offset="0" stop-color="#b0b0bf"/><stop offset="1" stop-color="#5b5a72"/></linearGradient><linearGradient xlink:href="#Dégradé_sans_nom_26" id="Dégradé_sans_nom_26-2" x1="327.03" x2="452.2" y1="88.81" y2="213.98" data-name="Dégradé sans nom 26"/><linearGradient xlink:href="#Dégradé_sans_nom_26" id="Dégradé_sans_nom_26-3" x1="391.57" x2="516.73" y1="24.27" y2="149.44" data-name="Dégradé sans nom 26"/><linearGradient xlink:href="#Dégradé_sans_nom_11" id="Dégradé_sans_nom_11-5" x1="522.73" x2="532.11" y1="48.1" y2="57.49" data-name="Dégradé sans nom 11"/><linearGradient xlink:href="#Dégradé_sans_nom_11" id="Dégradé_sans_nom_11-6" x1="522.73" x2="532.11" y1="49.27" y2="58.66" data-name="Dégradé sans nom 11" gradientTransform="matrix(1 0 0 -1 0 179.49)"/><linearGradient xlink:href="#Dégradé_sans_nom_11" id="Dégradé_sans_nom_11-7" x1="525.63" x2="552.16" y1="75.89" y2="102.43" data-name="Dégradé sans nom 11"/><linearGradient xlink:href="#Dégradé_sans_nom_11" id="Dégradé_sans_nom_11-8" x1="522.73" x2="532.11" y1="48.1" y2="57.49" data-name="Dégradé sans nom 11" gradientTransform="matrix(-1 0 0 1 843.65 0)"/><linearGradient xlink:href="#Dégradé_sans_nom_11" id="Dégradé_sans_nom_11-9" x1="522.73" x2="532.11" y1="49.27" y2="58.66" data-name="Dégradé sans nom 11" gradientTransform="rotate(-180 421.825 89.745)"/><linearGradient xlink:href="#Dégradé_sans_nom_11" id="Dégradé_sans_nom_11-10" x1="525.63" x2="552.16" y1="75.89" y2="102.43" data-name="Dégradé sans nom 11" gradientTransform="matrix(-1 0 0 1 843.65 0)"/><linearGradient xlink:href="#Dégradé_sans_nom_11" id="Dégradé_sans_nom_11-11" x1="595.68" x2="614.37" y1="160.61" y2="179.29" data-name="Dégradé sans nom 11" gradientTransform="rotate(20.78 572.614 204.186)"/><linearGradient xlink:href="#Dégradé_sans_nom_11" id="Dégradé_sans_nom_11-12" x1="554.38" x2="564.81" y1="55.82" y2="66.25" data-name="Dégradé sans nom 11" gradientTransform="rotate(-15.64 559.721 -152.772)"/><linearGradient xlink:href="#Dégradé_sans_nom_11" id="Dégradé_sans_nom_11-13" x1="479.52" x2="492.11" y1="102.41" y2="115" data-name="Dégradé sans nom 11" gradientTransform="rotate(33.52 510.204 245.623)"/><linearGradient xlink:href="#Dégradé_sans_nom_11" id="Dégradé_sans_nom_11-14" x1="616.29" x2="630.71" y1="200.56" y2="214.98" data-name="Dégradé sans nom 11" gradientTransform="rotate(-18.33 843.242 235.7)"/><linearGradient xlink:href="#Dégradé_sans_nom_11" id="Dégradé_sans_nom_11-15" x1="542.12" x2="549.87" y1="144.59" y2="152.34" data-name="Dégradé sans nom 11" gradientTransform="rotate(-15.64 559.721 -152.772)"/><linearGradient xlink:href="#Dégradé_sans_nom_11" id="Dégradé_sans_nom_11-16" x1="418.45" x2="426.21" y1="230.02" y2="237.77" data-name="Dégradé sans nom 11" gradientTransform="rotate(16.75 502.654 661.886)"/><linearGradient xlink:href="#Dégradé_sans_nom_11" id="Dégradé_sans_nom_11-17" x1="591.34" x2="609" y1="108.26" y2="125.92" data-name="Dégradé sans nom 11" gradientTransform="rotate(-59.78 612.365 41.568)"/><linearGradient xlink:href="#Dégradé_sans_nom_11" id="Dégradé_sans_nom_11-18" x1="527.28" x2="538.22" y1="182.55" y2="193.5" data-name="Dégradé sans nom 11" gradientTransform="rotate(-59.78 612.365 41.568)"/><linearGradient xlink:href="#Dégradé_sans_nom_11" id="Dégradé_sans_nom_11-19" x1="595.68" x2="614.37" y1="160.61" y2="179.29" data-name="Dégradé sans nom 11" gradientTransform="scale(-1 1) rotate(20.78 150.79 -2096.42)"/><linearGradient xlink:href="#Dégradé_sans_nom_11" id="Dégradé_sans_nom_11-20" x1="554.38" x2="564.81" y1="55.82" y2="66.25" data-name="Dégradé sans nom 11" gradientTransform="scale(-1 1) rotate(-15.64 137.896 2918.652)"/><linearGradient xlink:href="#Dégradé_sans_nom_11" id="Dégradé_sans_nom_11-21" x1="479.52" x2="492.11" y1="102.41" y2="115" data-name="Dégradé sans nom 11" gradientTransform="scale(-1 1) rotate(33.52 88.379 -1155.063)"/><linearGradient xlink:href="#Dégradé_sans_nom_11" id="Dégradé_sans_nom_11-22" x1="616.29" x2="630.71" y1="200.56" y2="214.98" data-name="Dégradé sans nom 11" gradientTransform="scale(-1 1) rotate(-18.33 421.412 2850.276)"/><linearGradient xlink:href="#Dégradé_sans_nom_11" id="Dégradé_sans_nom_11-23" x1="542.12" x2="549.87" y1="144.59" y2="152.34" data-name="Dégradé sans nom 11" gradientTransform="scale(-1 1) rotate(-15.64 137.896 2918.652)"/><linearGradient xlink:href="#Dégradé_sans_nom_11" id="Dégradé_sans_nom_11-24" x1="418.45" x2="426.21" y1="230.02" y2="237.77" data-name="Dégradé sans nom 11" gradientTransform="scale(-1 1) rotate(16.75 80.829 -2203.358)"/><linearGradient xlink:href="#Dégradé_sans_nom_11" id="Dégradé_sans_nom_11-25" x1="591.34" x2="609" y1="108.26" y2="125.92" data-name="Dégradé sans nom 11" gradientTransform="scale(-1 1) rotate(-59.78 190.54 775.44)"/><linearGradient xlink:href="#Dégradé_sans_nom_11" id="Dégradé_sans_nom_11-26" x1="527.28" x2="538.22" y1="182.55" y2="193.5" data-name="Dégradé sans nom 11" gradientTransform="scale(-1 1) rotate(-59.78 190.54 775.44)"/><linearGradient xlink:href="#Dégradé_sans_nom_26" id="Dégradé_sans_nom_26-4" x1="339.83" x2="465" y1="76.01" y2="201.18" data-name="Dégradé sans nom 26"/><linearGradient xlink:href="#Dégradé_sans_nom_26" id="Dégradé_sans_nom_26-5" x1="370.49" x2="495.66" y1="45.34" y2="170.51" data-name="Dégradé sans nom 26"/><radialGradient id="Dégradé_sans_nom_17" cx="1007.06" cy="549.64" r="94.16" data-name="Dégradé sans nom 17" fx="1007.06" fy="549.64" gradientTransform="matrix(1.45 .00025 -.00002 .11 -1034.5 486.79)" gradientUnits="userSpaceOnUse"><stop offset=".4" stop-color="#353544" stop-opacity=".5"/><stop offset="1" stop-color="#353544" stop-opacity="0"/></radialGradient><style>.cls-1{fill:#f4f4f6}.cls-3{fill:#353544}</style></defs><ellipse cx="421.81" cy="549.64" rx="138.34" ry="11.62" style="fill:url(#Dégradé_sans_nom_17)"/><path d="M421.83 247.94c-20.28 0-36.68 13.08-36.68 29.22s16.39 29.26 36.68 29.26 36.68-13.08 36.68-29.26-16.45-29.22-36.68-29.22Zm-70.24 82.72c-5.33-10.61-8.34-22.62-8.34-35.29 0-43.35 35.18-78.52 78.58-78.52s78.58 35.18 78.58 78.52c0 12.67-3 24.67-8.34 35.29-12.95 25.67-39.51 43.29-70.24 43.29s-57.29-17.62-70.24-43.29Z" style="fill:url(#Dégradé_sans_nom_11)"/><path d="M491.05 369.97c5.95-1.78 11.11 4.45 8.22 9.95l-68.19 130.65c-3.89 7.5-14.67 7.5-18.56 0l-68.19-130.65c-2.83-5.5 2.33-11.73 8.28-9.95l61.52 18.67 4.45 53.74c.33 3.95 6.11 3.95 6.45 0l4.45-53.74 61.57-18.67Z" style="fill:url(#Dégradé_sans_nom_11-2)"/><path d="M351.57 217.21v42.9c-5.33 10.61-8.34 22.62-8.34 35.29v-78.24c-3.89-3.45-6.61-11.56-6.61-21.06 0-12.61 4.83-17.28 10.84-17.28s10.84 4.67 10.84 17.28c0 9.5-2.78 17.67-6.72 21.12Z" style="fill:url(#Dégradé_sans_nom_11-3)"/><path d="M500.39 217.15v78.24c0-12.67-3-24.67-8.34-35.29v-42.9c-3.95-3.45-6.72-11.61-6.72-21.12 0-12.61 4.89-17.28 10.84-17.28s10.84 4.67 10.84 17.28c0 9.5-2.72 17.62-6.61 21.06Z" style="fill:url(#Dégradé_sans_nom_11-4)"/><path d="M406.06 312.72h31.51s-.66 24.42-15.76 24.42-15.76-24.42-15.76-24.42Z" style="fill:#5b5a72"/><path d="M443.71 226.05s13.17-4.71 28.64 11.06c0 0-9.89-15.56-17.74-16.58-7.32-.96-10.9 5.53-10.9 5.53ZM399.85 226.05s-13.17-4.71-28.64 11.06c0 0 9.89-15.56 17.74-16.58 7.32-.96 10.9 5.53 10.9 5.53ZM373.67 282.21c-.78 1.6-3.23.96-3.1-.82.68-9.17 3.76-19.9 14.51-19.9s14.49 11.42 15.42 20.77c.18 1.82-2.29 2.49-3.12.86-2.27-4.45-6.07-8.55-12.4-8.55-5.89 0-9.31 3.55-11.3 7.63ZM446.16 282.21c-.78 1.6-3.23.96-3.1-.82.68-9.17 3.76-19.9 14.51-19.9s14.49 11.42 15.42 20.77c.18 1.82-2.29 2.49-3.12.86-2.27-4.45-6.07-8.55-12.4-8.55-5.89 0-9.31 3.55-11.3 7.63Z" class="cls-3"/><path d="M506.87 368.73c8.01-3.87 17.94-12.2 20.86-30.24 3.76-23.1-6.17-62.39-11.81-82.02-.8-2.81-4.85-2.45-5.24.44l-13.45 104.76c-.71 5.35 4.82 9.38 9.65 7.06Z" style="fill:url(#Dégradé_sans_nom_26)"/><path d="M336.79 368.73c-8.01-3.87-17.94-12.2-20.86-30.24-3.76-23.1 6.17-62.39 11.81-82.02.8-2.81 4.85-2.45 5.24.44l13.45 104.76c.71 5.35-4.82 9.38-9.65 7.06Z" style="fill:url(#Dégradé_sans_nom_9)"/><path d="M379.09 106.84c-19.73-11.94-25.66-26.18-19.85-30.23 4.48-3.13 9.17-1.08 12.47 1.38-.38-3.16-.62-6.07-.75-8.61-3.89-2.4-10.31-4.11-17.95 2.5-11.38 9.85 5.35 35.78 31.23 45.24a82.868 82.868 0 0 1-5.15-10.28Z" class="cls-1"/><rect width="79.54" height="8.43" x="382.06" y="179.39" rx="4.21" ry="4.21" style="fill:url(#Dégradé_sans_nom_26-2)"/><rect width="103.25" height="8.43" x="370.2" y="50.32" rx="4.21" ry="4.21" style="fill:url(#Dégradé_sans_nom_26-3)"/><path d="m509.67 63.28 35.49-20.96" style="stroke:url(#Dégradé_sans_nom_11-5);fill:none;stroke-linecap:round;stroke-linejoin:round;stroke-width:3px"/><path d="m509.67 115.05 35.49 20.96" style="stroke:url(#Dégradé_sans_nom_11-6);fill:none;stroke-linecap:round;stroke-linejoin:round;stroke-width:3px"/><path d="M514.48 89.16h48.83" style="stroke:url(#Dégradé_sans_nom_11-7);fill:none;stroke-linecap:round;stroke-linejoin:round;stroke-width:3px"/><path d="m333.98 63.28-35.49-20.96" style="stroke:url(#Dégradé_sans_nom_11-8);fill:none;stroke-linecap:round;stroke-linejoin:round;stroke-width:3px"/><path d="m333.98 115.05-35.49 20.96" style="stroke:url(#Dégradé_sans_nom_11-9);fill:none;stroke-linecap:round;stroke-linejoin:round;stroke-width:3px"/><path d="M329.17 89.16h-48.83" style="fill:none;stroke-linecap:round;stroke-linejoin:round;stroke-width:3px;stroke:url(#Dégradé_sans_nom_11-10)"/><path d="m620.42 172.98.67 6.93 5.88 3.27c.71.4.66 1.44-.09 1.76l-6.17 2.68-1.29 6.6a.982.982 0 0 1-1.7.46l-4.46-5.04-6.68.81c-.81.1-1.38-.77-.97-1.48l3.42-5.8-2.84-6.1a.99.99 0 0 1 1.11-1.38l6.57 1.46 5.1-4.75c.53-.49 1.39-.16 1.45.55Z" style="fill:url(#Dégradé_sans_nom_11-11)"/><path d="m616.1 46.58 2.6 2.89 3.73-.48c.45-.06.77.43.55.82l-1.88 3.25 1.61 3.39c.2.41-.17.87-.61.77l-3.67-.79-2.73 2.58c-.33.31-.88.11-.92-.34l-.39-3.74-3.3-1.8c-.4-.22-.38-.8.04-.98l3.43-1.52.72-3.82c.07-.39.57-.53.84-.23Z" style="fill:url(#Dégradé_sans_nom_11-12)"/><path d="m570.6 111.76-.59 4.66 3.38 3.02c.41.37.22 1.04-.32 1.15l-4.46.85-1.83 4.15c-.22.5-.92.53-1.19.05l-2.18-3.98-4.51-.46a.663.663 0 0 1-.42-1.11l3.11-3.3-.96-4.43a.66.66 0 0 1 .93-.74l4.1 1.93 4.06-2.36c.42-.24.94.1.87.58Z" style="fill:url(#Dégradé_sans_nom_11-13)"/><path d="m623.86 269.31 3.77 3.83 5.11-.91c.62-.11 1.1.54.81 1.1l-2.39 4.61 2.44 4.58c.3.56-.17 1.21-.79 1.11l-5.12-.85-3.6 3.74c-.44.45-1.2.21-1.3-.41l-.78-5.13-4.67-2.27a.755.755 0 0 1 0-1.36l4.64-2.32.74-5.32c.08-.55.75-.77 1.14-.38Z" style="fill:url(#Dégradé_sans_nom_11-14)"/><path d="m626.86 136.13 1.93 2.15 2.77-.36c.34-.04.58.32.41.61l-1.4 2.42 1.2 2.52a.4.4 0 0 1-.45.57l-2.73-.58-2.03 1.92c-.25.23-.65.08-.69-.25l-.29-2.78-2.45-1.34c-.3-.16-.28-.59.03-.73l2.55-1.13.53-2.84c.06-.29.42-.4.62-.17Z" style="fill:url(#Dégradé_sans_nom_11-15)"/><path d="m550.99 224.33.48 2.85 2.53 1.18c.31.14.32.58.02.73l-2.48 1.29-.34 2.77c-.04.34-.45.48-.69.24l-1.99-1.96-2.74.53a.407.407 0 0 1-.44-.58l1.24-2.5-1.35-2.44c-.16-.3.08-.65.42-.6l2.76.41 1.97-2.11c.2-.22.57-.11.62.19Z" style="fill:url(#Dégradé_sans_nom_11-16)"/><path d="m662.38 83.51 6.57.45 3.96-4.98a.933.933 0 0 1 1.63.35l1.54 6.17 5.96 2.23c.72.27.82 1.25.17 1.66l-5.39 3.37-.28 6.35c-.03.77-.94 1.17-1.53.67l-4.87-4.08-6.13 1.7a.927.927 0 0 1-1.11-1.24l2.38-5.9-3.63-5.49a.817.817 0 0 1 .74-1.27Z" style="fill:url(#Dégradé_sans_nom_11-17)"/><path d="m693.21 180 4.07.28 2.45-3.08c.3-.37.89-.24 1.01.22l.96 3.82 3.69 1.38c.45.17.51.78.1 1.03l-3.34 2.09-.17 3.94c-.02.48-.58.72-.95.42l-3.02-2.53-3.8 1.05a.576.576 0 0 1-.69-.77l1.47-3.66-2.25-3.4c-.23-.35.04-.82.46-.79Z" style="fill:url(#Dégradé_sans_nom_11-18)"/><path d="m223.24 172.98-.67 6.93-5.88 3.27c-.71.4-.66 1.44.09 1.76l6.17 2.68 1.29 6.6a.982.982 0 0 0 1.7.46l4.46-5.04 6.68.81c.81.1 1.38-.77.97-1.48l-3.42-5.8 2.84-6.1a.99.99 0 0 0-1.11-1.38l-6.57 1.46-5.1-4.75c-.53-.49-1.39-.16-1.45.55Z" style="fill:url(#Dégradé_sans_nom_11-19)"/><path d="m227.55 46.58-2.6 2.89-3.73-.48c-.45-.06-.77.43-.55.82l1.88 3.25-1.61 3.39c-.2.41.17.87.61.77l3.67-.79 2.73 2.58c.33.31.88.11.92-.34l.39-3.74 3.3-1.8c.4-.22.38-.8-.04-.98l-3.43-1.52-.72-3.82c-.07-.39-.57-.53-.84-.23Z" style="fill:url(#Dégradé_sans_nom_11-20)"/><path d="m273.06 111.76.59 4.66-3.38 3.02a.667.667 0 0 0 .32 1.15l4.46.85 1.83 4.15c.22.5.92.53 1.19.05l2.18-3.98 4.51-.46c.55-.06.79-.71.42-1.11l-3.11-3.3.96-4.43a.66.66 0 0 0-.93-.74l-4.1 1.93-4.06-2.36c-.42-.24-.94.1-.87.58Z" style="fill:url(#Dégradé_sans_nom_11-21)"/><path d="m219.8 269.31-3.77 3.83-5.11-.91a.762.762 0 0 0-.81 1.1l2.39 4.61-2.44 4.58c-.3.56.17 1.21.79 1.11l5.12-.85 3.6 3.74c.44.45 1.2.21 1.3-.41l.78-5.13 4.67-2.27a.755.755 0 0 0 0-1.36l-4.64-2.32-.74-5.32a.672.672 0 0 0-1.14-.38Z" style="fill:url(#Dégradé_sans_nom_11-22)"/><path d="m216.79 136.13-1.93 2.15-2.77-.36c-.34-.04-.58.32-.41.61l1.4 2.42-1.2 2.52a.4.4 0 0 0 .45.57l2.73-.58 2.03 1.92c.25.23.65.08.69-.25l.29-2.78 2.45-1.34c.3-.16.28-.59-.03-.73l-2.55-1.13-.53-2.84c-.06-.29-.42-.4-.62-.17Z" style="fill:url(#Dégradé_sans_nom_11-23)"/><path d="m292.67 224.33-.48 2.85-2.53 1.18c-.31.14-.32.58-.02.73l2.48 1.29.34 2.77c.04.34.45.48.69.24l1.99-1.96 2.74.53c.33.06.59-.28.44-.58l-1.24-2.5 1.35-2.44c.16-.3-.08-.65-.42-.6l-2.76.41-1.97-2.11a.36.36 0 0 0-.62.19Z" style="fill:url(#Dégradé_sans_nom_11-24)"/><path d="m181.27 83.51-6.57.45-3.96-4.98a.933.933 0 0 0-1.63.35l-1.54 6.17-5.96 2.23a.932.932 0 0 0-.17 1.66l5.39 3.37.28 6.35c.03.77.94 1.17 1.53.67l4.87-4.08 6.13 1.7c.74.21 1.4-.53 1.11-1.24l-2.38-5.9 3.63-5.49a.817.817 0 0 0-.74-1.27Z" style="fill:url(#Dégradé_sans_nom_11-25)"/><path d="m150.44 180-4.07.28-2.45-3.08a.579.579 0 0 0-1.01.22l-.96 3.82-3.69 1.38c-.45.17-.51.78-.1 1.03l3.34 2.09.17 3.94c.02.48.58.72.95.42l3.02-2.53 3.8 1.05c.46.13.87-.33.69-.77l-1.47-3.66 2.25-3.4a.511.511 0 0 0-.46-.79Z" style="fill:url(#Dégradé_sans_nom_11-26)"/><rect width="35.12" height="8.43" x="404.27" y="153.79" rx="4.21" ry="4.21" style="fill:url(#Dégradé_sans_nom_26-4)"/><path d="M469.04 62.54h-94.43c-.1 13.16 2.26 57.08 36.68 76.27v11.18h21.07v-11.18c34.42-19.19 36.78-63.1 36.68-76.27Zm-22.97 30.19-7.97 7.77 1.88 10.97c.29 1.67-.17 3.36-1.26 4.65a5.719 5.719 0 0 1-4.38 2.04c-.92 0-1.84-.23-2.66-.66l-9.86-5.18-9.86 5.18c-.82.43-1.74.66-2.66.66-1.69 0-3.29-.75-4.38-2.04a5.744 5.744 0 0 1-1.26-4.65l1.88-10.97-7.97-7.77a5.679 5.679 0 0 1-1.45-5.86 5.673 5.673 0 0 1 4.62-3.89l11.02-1.6 5.13-10.4c.93-1.89 2.82-3.06 4.92-3.06s3.99 1.17 4.92 3.06l5.13 10.4 11.02 1.6c2.17.32 3.94 1.81 4.62 3.89.68 2.09.12 4.33-1.45 5.86Z" class="cls-1"/><path d="M490.64 71.88c-7.64-6.62-14.06-4.91-17.95-2.5-.13 2.55-.36 5.45-.75 8.61 3.3-2.46 7.99-4.5 12.47-1.38 5.8 4.05-.12 18.29-19.85 30.23a83.57 83.57 0 0 1-5.15 10.28c25.88-9.46 42.61-35.39 31.23-45.24Z" class="cls-1"/><path d="M434.61 114.35c.11-.02.21-.04.32-.07.05-.02.1-.03.14-.05.12-.05.24-.12.35-.19l.06-.03c.13-.09.24-.2.34-.32.03-.03.05-.07.08-.11.07-.09.13-.19.18-.29l.06-.15c.04-.1.07-.22.09-.33 0-.05.02-.1.03-.15.02-.17.02-.34-.01-.52l-.57-3.31-1.65-9.64 9.4-9.17c1.14-1.11.51-3.05-1.06-3.28l-12.99-1.89-6.02-12.19c-.31-.63-.91-.94-1.52-.94-.42 0-.84.16-1.16.47-.02.02-.05.03-.07.06-.11.12-.21.26-.28.41l-6.02 12.19-12.99 1.89c-.79.11-1.34.66-1.55 1.31-.21.65-.08 1.41.49 1.97l9.4 9.17-2.22 12.94c-.03.18-.03.35-.01.52 0 .05.02.1.03.15.02.11.05.22.09.33l.06.15c.05.1.11.2.18.29l.08.11c.1.12.21.23.34.32l.06.03c.11.08.23.14.35.19.05.02.1.03.14.05.1.03.21.06.32.07.05 0 .11.01.16.02.11 0 .22 0 .34-.02.05 0 .11 0 .16-.02.17-.04.33-.09.5-.18l11.62-6.11 11.62 6.11c.16.09.33.14.5.18.05.01.11.01.16.02.11.01.23.02.34.02.05 0 .11-.01.16-.02Z" style="fill:url(#Dégradé_sans_nom_26-5)"/><path d="M454.98 175.59c-4.75-6.68-10.31-10.07-14.33-11.75a7.962 7.962 0 0 1-5.48 2.18h-26.69a7.98 7.98 0 0 1-5.48-2.18c-4.02 1.69-9.58 5.07-14.33 11.75h66.3Z" class="cls-1"/></svg>