<svg xmlns="http://www.w3.org/2000/svg" xmlns:xlink="http://www.w3.org/1999/xlink" id="Calque_1" data-name="Calque 1" viewBox="0 0 841.89 595.28"><defs><linearGradient id="Dégradé_sans_nom_11" x1="463.3" x2="650.6" y1="83.55" y2="270.85" data-name="Dégradé sans nom 11" gradientUnits="userSpaceOnUse"><stop offset=".1" stop-color="#5b5a72"/><stop offset=".5" stop-color="#b0b0bf"/><stop offset=".96" stop-color="#f4f4f6"/></linearGradient><linearGradient id="Dégradé_secondaire1" x1="497.12" x2="422.97" y1="334.59" y2="408.74" data-name="Dégradé secondaire1" gradientUnits="userSpaceOnUse"><stop offset="0" stop-color="#5b5a72"/><stop offset="1" stop-color="#b0b0bf"/></linearGradient><linearGradient id="Dégradé_sans_nom_26" x1="296.84" x2="203.98" y1="359.63" y2="452.49" data-name="Dégradé sans nom 26" gradientUnits="userSpaceOnUse"><stop offset="0" stop-color="#b0b0bf"/><stop offset="1" stop-color="#f4f4f6"/></linearGradient><linearGradient xlink:href="#Dégradé_sans_nom_11" id="Dégradé_sans_nom_11-2" x1="228.13" x2="359.49" y1="299.52" y2="430.89" data-name="Dégradé sans nom 11"/><linearGradient xlink:href="#Dégradé_sans_nom_11" id="Dégradé_sans_nom_11-3" x1="198.83" x2="380.92" y1="82.04" y2="264.13" data-name="Dégradé sans nom 11"/><linearGradient xlink:href="#Dégradé_sans_nom_11" id="Dégradé_sans_nom_11-4" x1="334.46" x2="341.43" y1="321.06" y2="328.02" data-name="Dégradé sans nom 11" gradientTransform="rotate(80.99 328.653 451.507)"/><linearGradient xlink:href="#Dégradé_sans_nom_11" id="Dégradé_sans_nom_11-5" x1="334.39" x2="341.36" y1="-6723.05" y2="-6716.08" data-name="Dégradé sans nom 11" gradientTransform="scale(-1 1) rotate(79.88 -4305.237 -3578.665)"/><linearGradient xlink:href="#Dégradé_sans_nom_11" id="Dégradé_sans_nom_11-6" x1="336.77" x2="356.47" y1="344.55" y2="364.25" data-name="Dégradé sans nom 11" gradientTransform="rotate(90 338.425 442.495)"/><linearGradient xlink:href="#Dégradé_sans_nom_11" id="Dégradé_sans_nom_11-7" x1="361.81" x2="368.78" y1="-6727.21" y2="-6720.24" data-name="Dégradé sans nom 11" gradientTransform="rotate(-81.87 4461.681 -3208.191)"/><linearGradient xlink:href="#Dégradé_sans_nom_11" id="Dégradé_sans_nom_11-8" x1="363.97" x2="383.67" y1="351.93" y2="371.63" data-name="Dégradé sans nom 11" gradientTransform="scale(1 -1) rotate(81.87 809.704 40.562)"/><linearGradient xlink:href="#Dégradé_secondaire1" id="Dégradé_secondaire1-2" x1="327.26" x2="431.28" y1="315.59" y2="419.61" data-name="Dégradé secondaire1"/><linearGradient xlink:href="#Dégradé_secondaire1" id="Dégradé_secondaire1-3" x1="319.07" x2="423.09" y1="323.78" y2="427.79" data-name="Dégradé secondaire1"/><linearGradient xlink:href="#Dégradé_sans_nom_26" id="Dégradé_sans_nom_26-2" x1="622.67" x2="622.67" y1="327.97" y2="450.14" data-name="Dégradé sans nom 26"/><linearGradient xlink:href="#Dégradé_sans_nom_11" id="Dégradé_sans_nom_11-9" x1="490.21" x2="624.92" y1="297.2" y2="431.91" data-name="Dégradé sans nom 11"/><radialGradient id="Dégradé_sans_nom_17" cx="124.05" cy="529.27" r="113.16" data-name="Dégradé sans nom 17" fx="124.05" fy="529.27" gradientTransform="matrix(1 .00035 -.00004 .11 436.85 469.06)" gradientUnits="userSpaceOnUse"><stop offset=".4" stop-color="#353544" stop-opacity=".5"/><stop offset="1" stop-color="#353544" stop-opacity="0"/></radialGradient><radialGradient xlink:href="#Dégradé_sans_nom_17" id="Dégradé_sans_nom_17-2" cx="487.38" cy="539.43" r="124.43" data-name="Dégradé sans nom 17" fx="487.38" fy="539.43" gradientTransform="matrix(-1 .00035 .00004 .11 794.63 477.93)"/><style>.cls-9{fill:#353544}.cls-20{fill:#fff;opacity:.5}</style></defs><path d="M642.71 183.11v-49.17l-14.41 14.41V73.06c0-4.57-5.91-6.39-8.48-2.62l-39.7 58.25a94.696 94.696 0 0 0-24.38-3.19c-17.52 0-33.9 4.77-47.95 13.07s-30.51-61.21-30.51-61.21c-1.8-3.6-5.92-1.86-5.92 2.49v71.8l-10.05-13.75V219.92c0 52.09 42.27 94.36 94.43 94.36s94.43-42.27 94.43-94.36c0-13.05-2.65-25.5-7.44-36.82Zm-111.43 80.83c-20.16 0-36.55-19.7-36.55-44.01s16.39-44.08 36.55-44.08 36.55 19.7 36.55 44.08-16.34 44.01-36.55 44.01Z" style="fill:url(#Dégradé_sans_nom_11)"/><ellipse cx="560.88" cy="529.27" rx="114.97" ry="13.97" style="fill:url(#Dégradé_sans_nom_17)"/><path d="M577.82 245.11c4.7-4.57 7.81-13.06 7.81-25.21 0-19.14-7.7-29.17-17.21-29.17-9.5 0-17.21 10.04-17.21 29.17 0 11.96 3.01 20.36 7.59 24.99 0 0 9.7-3.89 19.01.22Z" class="cls-9"/><ellipse cx="564.31" cy="212.19" class="cls-20" rx="4" ry="2.75"/><ellipse cx="570.43" cy="203.75" class="cls-20" rx="6.11" ry="5.37"/><path d="M503.99 242.96c3.43-4.3 6.16-12.42 6.16-23.07 0-17.52-6.07-26.71-13.55-26.71s-13.55 9.19-13.55 26.71c0 11.12 2.44 18.88 6.14 23.07 0 0 7.38-3.54 14.81 0Z" class="cls-9"/><ellipse cx="493.35" cy="212.84" class="cls-20" rx="3.15" ry="2.52"/><ellipse cx="498.16" cy="205.12" class="cls-20" rx="4.81" ry="4.92"/><path d="M521.68 272.87s1.17 9.16 7.28 9.9c9.76 1.18 11.94-9.9 11.94-9.9" style="fill:none;stroke-linecap:round;stroke-linejoin:round;stroke:#5b5a72;stroke-width:3.34px"/><path d="M551.22 165.71s15.83-6.69 34.41 15.71c0 0-11.89-22.11-21.32-23.57-8.8-1.36-13.09 7.86-13.09 7.86ZM507.55 167.48s-11.27-5.94-24.51 13.94c0 0 8.47-19.62 15.18-20.91 6.26-1.2 9.32 6.97 9.32 6.97Z" class="cls-9"/><path d="M472.57 335.83c-2.7 2.01-5.65 4.38-8.87 7.18-14.11 12.22-28.92 27.43-39.7 40.4 8.33 6.91 16.04 13.68 22.23 19.59.16.15.31.32.46.48 9.45-5.92 20.67-14.5 28.69-21.54 4.63-4.07 8.65-7.94 12.11-11.6l-14.91-34.51Z" style="fill:url(#Dégradé_secondaire1)"/><ellipse cx="307.27" cy="539.43" rx="126.41" ry="15.36" style="fill:url(#Dégradé_sans_nom_17-2)"/><path d="M245.23 366.71c-10.52 23.5-21.48 76.76-22.18 102.56-.05 1.63.86 2.78 2.06 3.3 1.25.62 2.84.53 4.05-.74 11.05-11.47 26.83-33.07 39.5-53.57l-23.42-51.56Z" style="fill:url(#Dégradé_sans_nom_26)"/><path d="M334.71 383.75c-14.35-9.05-29.93-23.9-30.62-38.46-.11-2.46.4-4.64 1.56-6.66 1.05-2.04 2.66-3.74 4.67-4.95 4.23-2.53 9.67-3.81 16.18-3.81 9.6 0 21.24 2.85 32.78 8.02.84.37 1.74.81 2.67 1.29v-16.87l-128.51-24.67c-6.84-2.35-12.78 5.87-9.46 13.14l78.43 172.64c4.47 9.91 15.75 10.41 19.59 0l39.27-85.5c-10.93-5.22-20.37-10.25-26.57-14.17Z" style="fill:url(#Dégradé_sans_nom_11-2)"/><path d="M400.09 152.47c-16.21-32.15-48.59-54.72-86.49-57 5.39-5.14 9.14-16.52 9.14-29.71 0-18.01-6.98-25.27-15.47-25.27s-15.47 7.26-15.47 25.27c0 13.26 3.72 24.62 9.08 29.71-17.6 1.07-34.01 6.51-48.16 15.27v-7.86c4.33-4.39 7.38-14.78 7.38-26.88 0-16.05-5.36-22.52-11.89-22.52S236.32 59.95 236.32 76c0 12.09 2.99 22.42 7.25 26.81v14.28a104.423 104.423 0 0 0-29.12 35.38c-7.05 14.03-11.01 29.89-11.01 46.63 0 57.28 46.48 103.76 103.83 103.76S411.1 256.38 411.1 199.1c0-16.74-3.97-32.6-11.01-46.63Zm-26.54 95.02c-13.47 0-24.36-21.66-24.36-48.39s10.89-48.46 24.36-48.46 24.36 21.66 24.36 48.46-10.92 48.39-24.36 48.39Z" style="fill:url(#Dégradé_sans_nom_11-3)"/><path d="M342.92 226.97c-5.17-5.03-8.59-14.35-8.59-27.72 0-21.04 8.47-32.08 18.92-32.08 10.45 0 18.92 11.03 18.92 32.08 0 13.15-3.31 22.39-8.34 27.47 0 0-10.66-4.27-20.91.25Z" class="cls-9"/><ellipse cx="357.77" cy="190.78" class="cls-20" rx="4.4" ry="3.02"/><ellipse cx="351.05" cy="181.5" class="cls-20" rx="6.72" ry="5.9"/><path d="m373.55 261.9-20.17-8.58s-2.09 11.54 5.93 15.34c8.02 3.8 14.24-6.76 14.24-6.76Z" style="fill:#5b5a72"/><path d="M372.17 137.94s-17.41-7.36-37.84 17.28c0 0 13.07-24.32 23.44-25.91 9.67-1.49 14.4 8.64 14.4 8.64Z" class="cls-9"/><path d="m445.74 428.99 19.49 23.59" style="stroke:url(#Dégradé_sans_nom_11-4);stroke-width:2.23px;fill:none;stroke-linecap:round;stroke-linejoin:round"/><path d="m407.3 428.99-19.95 23.21" style="stroke:url(#Dégradé_sans_nom_11-5);stroke-width:2.23px;fill:none;stroke-linecap:round;stroke-linejoin:round"/><path d="M426.52 432.56v36.25" style="stroke:url(#Dégradé_sans_nom_11-6);stroke-width:2.23px;fill:none;stroke-linecap:round;stroke-linejoin:round"/><path d="m407.95 364.29-11.68-28.28" style="stroke:url(#Dégradé_sans_nom_11-7);stroke-width:2.23px;fill:none;stroke-linecap:round;stroke-linejoin:round"/><path d="m427.48 363.48 5.13-35.89" style="stroke-width:2.23px;stroke:url(#Dégradé_sans_nom_11-8);fill:none;stroke-linecap:round;stroke-linejoin:round"/><path d="M410.29 408.81s8.08-14.16 15.58-9.87c7.5 4.29 6.47 24.53-.44 23.93-6.9-.6-18.14-7.9-15.14-14.06Z" style="fill:url(#Dégradé_secondaire1-2)"/><path d="M443.69 405.65c-22.47-21.45-66.88-55.92-85.9-64.41-17.25-7.73-35.51-10.44-45.59-4.41a8.706 8.706 0 0 0-3.34 3.57c-.83 1.4-1.2 2.91-1.12 4.73.56 11.74 12.94 25.44 28.92 35.52 12.91 8.16 42.83 22.56 69.71 32.29-.45-1.97-.26-3.94.62-5.73.04-.07.07-.14.11-.21.73-1.28 7.39-12.53 15.79-12.53 1.68 0 3.29.43 4.78 1.29 6.95 3.97 8.09 15.72 6.24 22.67-.26 1-.58 1.86-.92 2.63.36.08.72.17 1.07.25 4.9.37 6.37-3.17 9.46-5.95 2.87-2.57 2.94-7.05.15-9.71Z" style="fill:url(#Dégradé_secondaire1-3)"/><path d="M636.46 388.01c1.32-56.26-23.09-56.38-23.09-56.38-10.59.37-16.82 11.33-11.25 50.38 5.42 38.01 10.31 74.25 16.87 74.64 1.67.1 3.41-1.28 5.12-3.87l15.4-30.66c.92-1.84-.45-3.99-2.5-3.94l-5.8.15L645 391.71c.96-1.86-.44-4.06-2.53-3.97l-6.01.26Z" style="fill:url(#Dégradé_sans_nom_26-2)"/><path d="m599 387.06-.64-4.52c-4.91-34.45-.21-44.73 3.75-49.46 2.78-3.32 6.53-5.09 11.13-5.25h.15c.7 0 7.05.22 13.48 6.84 1.51 1.55 2.89 3.34 4.14 5.3l9.61-18.42c3.47-6.61-2.74-14.08-9.88-11.95l-90.14 22.42-.48 5.87 32.98-10.03-12.04 23.16c-2.12 4.07-7.19 5.58-11.19 3.33l-10.61-5.96-3.95 15.84c-.4 4.74-4.65 4.74-4.99 0l-3.31-16.07-7.13 6.44c-2.93 2.68-6.92 1.34-8.6-2.88l-9.49-23.87 24.53 10.18-.41-6.01-47.17-22.42c-5.91-2.14-11.05 5.34-8.23 11.95l67.76 156.9c3.87 9.01 15.79 9.01 20.46 0l41.86-80.21c-.53-3.67-1.06-7.4-1.6-11.19Z" style="fill:url(#Dégradé_sans_nom_11-9)"/></svg>