<svg xmlns="http://www.w3.org/2000/svg" xmlns:xlink="http://www.w3.org/1999/xlink" id="Calque_1" data-name="Calque 1" viewBox="0 0 841.89 595.28"><defs><linearGradient id="Dégradé_sans_nom_26" x1="7548.02" x2="7722.79" y1="1075.07" y2="1249.84" data-name="Dégradé sans nom 26" gradientTransform="rotate(84.67 4510.767 -3201.666)" gradientUnits="userSpaceOnUse"><stop offset="0" stop-color="#b0b0bf"/><stop offset="1" stop-color="#f4f4f6"/></linearGradient><linearGradient id="Dégradé_sans_nom_11" x1="258.81" x2="473.57" y1="255.16" y2="469.92" data-name="Dégradé sans nom 11" gradientUnits="userSpaceOnUse"><stop offset=".1" stop-color="#5b5a72"/><stop offset=".5" stop-color="#b0b0bf"/><stop offset=".96" stop-color="#f4f4f6"/></linearGradient><linearGradient xlink:href="#Dégradé_sans_nom_11" id="Dégradé_sans_nom_11-2" x1="293.23" x2="438.57" y1="145.22" y2="290.56" data-name="Dégradé sans nom 11"/><linearGradient xlink:href="#Dégradé_sans_nom_11" id="Dégradé_sans_nom_11-3" x1="-683.45" x2="-504.55" y1="-5231.72" y2="-5052.83" data-name="Dégradé sans nom 11" gradientTransform="rotate(-60.21 4400.894 -3302.543)"/><linearGradient xlink:href="#Dégradé_sans_nom_11" id="Dégradé_sans_nom_11-4" x1="464.64" x2="582.23" y1="275.1" y2="392.69" data-name="Dégradé sans nom 11"/><linearGradient xlink:href="#Dégradé_sans_nom_11" id="Dégradé_sans_nom_11-5" x1="-116.98" x2="-99.72" y1="157.35" y2="174.62" data-name="Dégradé sans nom 11" gradientTransform="rotate(-170.59 234.138 165.483)"/><linearGradient xlink:href="#Dégradé_sans_nom_11" id="Dégradé_sans_nom_11-6" x1="104.5" x2="121.77" y1="245.51" y2="262.77" data-name="Dégradé sans nom 11" gradientTransform="rotate(149.63 278.605 212.171)"/><linearGradient xlink:href="#Dégradé_sans_nom_11" id="Dégradé_sans_nom_11-7" x1="-135.08" x2="-117.81" y1="-94.25" y2="-76.98" data-name="Dégradé sans nom 11" gradientTransform="rotate(-170.59 234.138 165.483)"/><linearGradient xlink:href="#Dégradé_sans_nom_11" id="Dégradé_sans_nom_11-8" x1="1841.99" x2="1851.63" y1="-1618.98" y2="-1609.34" data-name="Dégradé sans nom 11" gradientTransform="rotate(152.99 993.604 -796.82)"/><linearGradient xlink:href="#Dégradé_sans_nom_11" id="Dégradé_sans_nom_11-9" x1="-607.13" x2="-595.49" y1="974.83" y2="986.46" data-name="Dégradé sans nom 11" gradientTransform="rotate(-157.85 -64.346 489.31)"/><linearGradient xlink:href="#Dégradé_sans_nom_11" id="Dégradé_sans_nom_11-10" x1="-669.55" x2="-657.92" y1="1032.74" y2="1044.38" data-name="Dégradé sans nom 11" gradientTransform="rotate(-131.45 -189.636 312.142)"/><linearGradient xlink:href="#Dégradé_sans_nom_11" id="Dégradé_sans_nom_11-11" x1="-706.58" x2="-694.94" y1="805.56" y2="817.2" data-name="Dégradé sans nom 11" gradientTransform="rotate(-157.85 -64.346 489.31)"/><linearGradient xlink:href="#Dégradé_sans_nom_11" id="Dégradé_sans_nom_11-12" x1="-542.9" x2="-531.27" y1="718.7" y2="730.34" data-name="Dégradé sans nom 11" gradientTransform="rotate(-157.85 -109.07 522.84) scale(1.14 1.11)"/><linearGradient xlink:href="#Dégradé_sans_nom_11" id="Dégradé_sans_nom_11-13" x1="1941.67" x2="1955" y1="-1823.67" y2="-1810.34" data-name="Dégradé sans nom 11" gradientTransform="rotate(172.25 1184.34 -924.739)"/><linearGradient xlink:href="#Dégradé_sans_nom_11" id="Dégradé_sans_nom_11-14" x1="1951.74" x2="1965.06" y1="-2155.16" y2="-2141.84" data-name="Dégradé sans nom 11" gradientTransform="rotate(-167 1416.33 -800.359)"/><linearGradient xlink:href="#Dégradé_sans_nom_11" id="Dégradé_sans_nom_11-15" x1="2128.8" x2="2142.12" y1="-2248.75" y2="-2235.43" data-name="Dégradé sans nom 11" gradientTransform="rotate(-113.29 2180.281 -299.84)"/><linearGradient xlink:href="#Dégradé_sans_nom_11" id="Dégradé_sans_nom_11-16" x1="2215.11" x2="2228.44" y1="-2322.24" y2="-2308.92" data-name="Dégradé sans nom 11" gradientTransform="rotate(-113.29 2180.281 -299.84)"/><linearGradient xlink:href="#Dégradé_sans_nom_11" id="Dégradé_sans_nom_11-17" x1="1879.38" x2="1886.55" y1="-1563.57" y2="-1556.4" data-name="Dégradé sans nom 11" gradientTransform="rotate(152.99 993.604 -796.82)"/><linearGradient xlink:href="#Dégradé_sans_nom_11" id="Dégradé_sans_nom_11-18" x1="1760.49" x2="1767.66" y1="-1642.06" y2="-1634.89" data-name="Dégradé sans nom 11" gradientTransform="rotate(152.99 993.604 -796.82)"/><linearGradient xlink:href="#Dégradé_sans_nom_11" id="Dégradé_sans_nom_11-19" x1="1893.92" x2="1901.08" y1="-1399.93" y2="-1392.77" data-name="Dégradé sans nom 11" gradientTransform="rotate(152.99 993.604 -796.82)"/><linearGradient xlink:href="#Dégradé_sans_nom_11" id="Dégradé_sans_nom_11-20" x1="1833.96" x2="1841.13" y1="-1300.72" y2="-1293.55" data-name="Dégradé sans nom 11" gradientTransform="rotate(152.99 993.604 -796.82)"/><linearGradient xlink:href="#Dégradé_sans_nom_11" id="Dégradé_sans_nom_11-21" x1="2013.28" x2="2020.45" y1="-1241.14" y2="-1233.97" data-name="Dégradé sans nom 11" gradientTransform="rotate(152.99 993.604 -796.82)"/><linearGradient xlink:href="#Dégradé_sans_nom_11" id="Dégradé_sans_nom_11-22" x1="1932.44" x2="1939.61" y1="-2101.12" y2="-2093.95" data-name="Dégradé sans nom 11" gradientTransform="rotate(174.93 1052.93 -826.381)"/><linearGradient xlink:href="#Dégradé_sans_nom_11" id="Dégradé_sans_nom_11-23" x1="1722.76" x2="1729.93" y1="-2036.4" y2="-2029.24" data-name="Dégradé sans nom 11" gradientTransform="rotate(174.93 1052.93 -826.381)"/><linearGradient xlink:href="#Dégradé_sans_nom_11" id="Dégradé_sans_nom_11-24" x1="-99.05" x2="-91.88" y1="-4.16" y2="3.01" data-name="Dégradé sans nom 11" gradientTransform="rotate(-174.62 255.295 55.835)"/><linearGradient xlink:href="#Dégradé_sans_nom_11" id="Dégradé_sans_nom_11-25" x1="171.55" x2="178.71" y1="84" y2="91.16" data-name="Dégradé sans nom 11" gradientTransform="rotate(-174.62 255.295 55.835)"/><linearGradient xlink:href="#Dégradé_sans_nom_11" id="Dégradé_sans_nom_11-26" x1="-93.74" x2="-86.57" y1="-285.97" y2="-278.81" data-name="Dégradé sans nom 11" gradientTransform="rotate(-153.86 315.61 -8.403)"/><linearGradient xlink:href="#Dégradé_sans_nom_11" id="Dégradé_sans_nom_11-27" x1="-98.64" x2="-91.48" y1="-387.34" y2="-380.18" data-name="Dégradé sans nom 11" gradientTransform="rotate(-174.62 255.295 55.835)"/><linearGradient xlink:href="#Dégradé_sans_nom_11" id="Dégradé_sans_nom_11-28" x1="-81.56" x2="-64.29" y1="211.46" y2="228.73" data-name="Dégradé sans nom 11" gradientTransform="scale(1 -1) rotate(9.41 2393.128 1802.266)"/><linearGradient xlink:href="#Dégradé_sans_nom_11" id="Dégradé_sans_nom_11-29" x1="-121.29" x2="-104.03" y1="-125.78" y2="-108.52" data-name="Dégradé sans nom 11" gradientTransform="scale(1 -1) rotate(9.41 2393.128 1802.266)"/><linearGradient xlink:href="#Dégradé_sans_nom_11" id="Dégradé_sans_nom_11-30" x1="1797.79" x2="1807.43" y1="-1588.95" y2="-1579.31" data-name="Dégradé sans nom 11" gradientTransform="scale(1 -1) rotate(-27.01 3700.184 2544.598)"/><linearGradient xlink:href="#Dégradé_sans_nom_11" id="Dégradé_sans_nom_11-31" x1="-578.2" x2="-566.56" y1="908.72" y2="920.36" data-name="Dégradé sans nom 11" gradientTransform="scale(1 -1) rotate(22.15 2882.282 2282.713)"/><linearGradient xlink:href="#Dégradé_sans_nom_11" id="Dégradé_sans_nom_11-32" x1="-648.84" x2="-637.2" y1="1010.39" y2="1022.02" data-name="Dégradé sans nom 11" gradientTransform="scale(1 -1) rotate(48.55 1074.587 1268.54)"/><linearGradient xlink:href="#Dégradé_sans_nom_11" id="Dégradé_sans_nom_11-33" x1="-439.05" x2="-427.41" y1="996.23" y2="1007.87" data-name="Dégradé sans nom 11" gradientTransform="scale(1 -1) rotate(-15.53 -3969.114 -2041.327)"/><linearGradient xlink:href="#Dégradé_sans_nom_11" id="Dégradé_sans_nom_11-34" x1="-678.96" x2="-667.32" y1="794.32" y2="805.96" data-name="Dégradé sans nom 11" gradientTransform="scale(1 -1) rotate(22.15 2882.282 2282.713)"/><linearGradient xlink:href="#Dégradé_sans_nom_11" id="Dégradé_sans_nom_11-35" x1="1980.74" x2="1994.06" y1="-2119.28" y2="-2105.96" data-name="Dégradé sans nom 11" gradientTransform="scale(1 -1) rotate(-7.75 14034.81 11838.371)"/><linearGradient xlink:href="#Dégradé_sans_nom_11" id="Dégradé_sans_nom_11-36" x1="1888.14" x2="1895.3" y1="-1529.96" y2="-1522.79" data-name="Dégradé sans nom 11" gradientTransform="scale(1 -1) rotate(-27.01 3700.184 2544.598)"/><linearGradient xlink:href="#Dégradé_sans_nom_11" id="Dégradé_sans_nom_11-37" x1="1874.16" x2="1881.32" y1="-1405.15" y2="-1397.98" data-name="Dégradé sans nom 11" gradientTransform="scale(1 -1) rotate(-27.01 3700.184 2544.598)"/><linearGradient xlink:href="#Dégradé_sans_nom_11" id="Dégradé_sans_nom_11-38" x1="1788.89" x2="1796.05" y1="-1627.59" y2="-1620.42" data-name="Dégradé sans nom 11" gradientTransform="scale(1 -1) rotate(-27.01 3700.184 2544.598)"/><linearGradient xlink:href="#Dégradé_sans_nom_11" id="Dégradé_sans_nom_11-39" x1="-82.82" x2="-75.66" y1="19.94" y2="27.11" data-name="Dégradé sans nom 11" gradientTransform="scale(1 -1) rotate(5.38 1570.849 2706.782)"/><linearGradient xlink:href="#Dégradé_sans_nom_11" id="Dégradé_sans_nom_11-40" x1="-77.74" x2="-70.58" y1="-263.78" y2="-256.61" data-name="Dégradé sans nom 11" gradientTransform="scale(1 -1) rotate(5.38 1570.849 2706.782)"/><linearGradient xlink:href="#Dégradé_sans_nom_11" id="Dégradé_sans_nom_11-41" x1="-28.75" x2="-21.58" y1="-260.95" y2="-253.78" data-name="Dégradé sans nom 11" gradientTransform="scale(1 -1) rotate(5.38 1570.849 2706.782)"/><linearGradient xlink:href="#Dégradé_sans_nom_11" id="Dégradé_sans_nom_11-42" x1="-8.56" x2="-1.4" y1="-382.91" y2="-375.75" data-name="Dégradé sans nom 11" gradientTransform="rotate(-174.62 255.295 55.835)"/><linearGradient xlink:href="#Dégradé_sans_nom_11" id="Dégradé_sans_nom_11-43" x1="114.94" x2="122.11" y1="-363.89" y2="-356.73" data-name="Dégradé sans nom 11" gradientTransform="rotate(-174.62 255.295 55.835)"/><linearGradient xlink:href="#Dégradé_sans_nom_11" id="Dégradé_sans_nom_11-44" x1="4965.67" x2="4975.78" y1="-1523.89" y2="-1513.77" data-name="Dégradé sans nom 11" gradientTransform="rotate(108.86 2133.167 -2245.528)"/><linearGradient xlink:href="#Dégradé_sans_nom_11" id="Dégradé_sans_nom_11-45" x1="4861.68" x2="4871.8" y1="-1323.28" y2="-1313.17" data-name="Dégradé sans nom 11" gradientTransform="rotate(108.86 2133.167 -2245.528)"/><linearGradient xlink:href="#Dégradé_sans_nom_11" id="Dégradé_sans_nom_11-46" x1="4983.28" x2="4993.39" y1="-2531.03" y2="-2520.92" data-name="Dégradé sans nom 11" gradientTransform="rotate(164.84 2573.337 -1493.412)"/><linearGradient xlink:href="#Dégradé_sans_nom_11" id="Dégradé_sans_nom_11-47" x1="4860.68" x2="4870.79" y1="-2548.65" y2="-2538.54" data-name="Dégradé sans nom 11" gradientTransform="rotate(164.84 2573.337 -1493.412)"/><linearGradient xlink:href="#Dégradé_sans_nom_11" id="Dégradé_sans_nom_11-48" x1="-259.56" x2="-247.92" y1="1027.11" y2="1038.75" data-name="Dégradé sans nom 11" gradientTransform="scale(1 -1) rotate(-15.53 -3969.114 -2041.327)"/><radialGradient id="Dégradé_sans_nom_17" cx="372.37" cy="546.83" r="116.96" data-name="Dégradé sans nom 17" fx="372.37" fy="546.83" gradientTransform="matrix(1.39 .00024 -.00002 .11 -144.25 484.53)" gradientUnits="userSpaceOnUse"><stop offset=".4" stop-color="#353544" stop-opacity=".5"/><stop offset="1" stop-color="#353544" stop-opacity="0"/></radialGradient><style>.cls-3{fill:#353544}</style></defs><ellipse cx="372.37" cy="546.83" rx="164.86" ry="14.44" style="fill:url(#Dégradé_sans_nom_17)"/><path d="M501.72 289.93s9.87 17.65-29.14 40.25-80.4 31-83.94 22.71c-2.67-6.25 28.6-27.52 61.27-50.1 33.56-23.19 46.58-22.49 51.81-12.86Z" style="fill:url(#Dégradé_sans_nom_26)"/><path d="M474.35 333.21c-13.76 7.97-28.72 14.73-43.26 19.54-13.18 4.36-24.95 6.77-33.13 6.77-2.55 0-10.29 0-12.54-5.26-3.23-7.57 9.58-17.81 58.62-51.68l3.88-2.68c4.41-3.05 8.53-5.72 12.4-8.06-32.67-14.25-78.16 3.06-78.25 39 .14-56.14-110.74-67.39-110.95 16.7-.19 73.9 110.59 125.38 110.59 125.38S492.75 422 492.94 348.1c.02-9.47-1.37-17.73-3.85-24.87-3.98 3.22-8.82 6.56-14.73 9.98Z" style="fill:#c31924"/><path d="M314.03 284.59c-7.65-5.97-14.26-12.82-19.68-20.26l-45.16-25.85c-1.48-5.69-8.48-13.11-18.33-18.74-13.07-7.48-20.24-5.65-23.41-.1-3.18 5.55-1.13 12.66 11.94 20.14 9.85 5.64 19.7 7.93 25.33 6.38l67.77 38.79c.51-.12 1.01-.25 1.53-.36Z" style="fill:url(#Dégradé_sans_nom_11)"/><path d="M299.59 289.64c8.56-4.28 18.38-6.57 28.75-6.57 17.15 0 33.77 6.39 44.45 17.09 4.06 4.07 7.18 8.64 9.33 13.6 3.03-6.9 7.94-13.04 14.51-18 10.44-7.9 24.67-12.42 39.05-12.42 2.42 0 4.8.13 7.15.38 3.83-4.51 7.31-9.44 10.36-14.76 26.78-46.79 10.56-106.41-36.16-133.15-13.66-7.82-28.45-11.99-43.18-12.79-35.66-1.88-71.04 15.88-90 49.01-18.96 33.13-16.36 72.63 3.33 102.43a97.062 97.062 0 0 0 12.44 15.18Zm16.84-69.83c10.38-18.13 36.44-22.67 58.3-10.15 21.81 12.48 31.09 37.25 20.71 55.38-10.35 18.08-36.44 22.67-58.24 10.19-21.87-12.51-31.12-37.33-20.77-55.41Z" style="fill:url(#Dégradé_sans_nom_11-2)"/><path d="M398.53 278.24s8.82 3.65 12.62-1.45c6.07-8.15-2.75-15.79-2.75-15.79" style="fill:none;stroke:#5b5a72;stroke-linecap:round;stroke-linejoin:round;stroke-width:3.45px"/><path d="m325.81 99.51 84.35 48.28c-13.66-7.82-28.45-11.99-43.18-12.79l-46.25-26.47c-6.15 2.13-16.67.08-26.91-5.78-13.6-7.78-15.61-15.93-11.94-22.34 3.7-6.47 11.72-8.8 25.32-1.02 10.24 5.86 17.31 13.8 18.62 20.12Z" style="fill:url(#Dégradé_sans_nom_11-3)"/><path d="M317.57 196.72s2.12-17.64 31.76-22.8c0 0-25.94-.69-32.09 7.02-5.73 7.19.32 15.78.32 15.78ZM296.74 236.8s-11.11 7.06-.08 29.14c0 0-13.25-17.67-10.96-24.35 2.14-6.24 11.04-4.79 11.04-4.79ZM377.31 225.84c1.25 1.61-.65 3.8-2.41 2.77-9.08-5.34-18.53-13.93-13.09-24.96 5.61-11.38 19.06-9.1 29.13-5.32 1.96.74 1.4 3.61-.7 3.64-5.72.08-11.85 1.91-15.05 8.4-2.98 6.05-1.07 11.36 2.12 15.47Z" class="cls-3"/><path d="M331.68 310.88c0-7.74-7.05-13.51-14.65-12.07-5.17.98-11.19 3.3-17.16 8.23-15.73 13-20.18 38.99-10.26 60.87 0 0-3.53-39.43 31.62-44.89 6-.93 10.45-6.07 10.45-12.15Z" style="fill:#fff;opacity:.5"/><path d="m538.57 417.89-8.71-182.84c-.35-7.71-9.79-11.15-15.05-5.52l-58.54 57.04c2.66.87 5.25 1.89 7.72 3.1 11.27-6.42 20.11-9.58 26.77-9.58 6.38 0 11.1 2.74 14.02 8.11.39.69 7.62 14.39-12.87 32.61 3.01 8.11 4.55 17.28 4.52 27.29-.04 16.88-5.67 33.89-16.7 50.59l40.57 29.86c8.15 6.03 18.8-.19 18.27-10.67Z" style="fill:url(#Dégradé_sans_nom_11-4)"/><path d="M336.17 283.54c-1.49-3.28-1.84-6.91.47-10.45 3.17-4.86 8.67-5.41 13.71-4.57 1.85.31 2.51-1.97.82-2.89-8.66-4.71-20.37-8.71-25.93-.2-4.01 6.13-.7 12.44 4.41 17.67 2.19.04 4.37.19 6.53.43Z" class="cls-3"/><path d="m569.21 231.64-1.87-6.16-5.92-1.89a.906.906 0 0 1-.24-1.61l5.1-3.55-.03-6.22c0-.75.86-1.19 1.46-.73l4.96 3.75 5.9-1.95c.72-.24 1.39.45 1.15 1.16l-2.04 5.87 3.68 5.01c.45.61 0 1.46-.75 1.45l-6.22-.12-3.75 5.23c-.39.54-1.23.4-1.42-.24Z" style="fill:url(#Dégradé_sans_nom_11-5)"/><path d="m404.73 102.35-5.38-3.54-5.76 2.34c-.7.28-1.42-.36-1.22-1.08l1.65-5.99-4.01-4.75a.904.904 0 0 1 .65-1.49l6.21-.29 3.28-5.28c.4-.64 1.36-.55 1.62.16l2.19 5.82 6.04 1.49c.73.18.94 1.12.35 1.59l-4.86 3.88.46 6.42c.05.66-.69 1.09-1.24.73Z" style="fill:url(#Dégradé_sans_nom_11-6)"/><path d="m545.93 482.81-1.87-6.16-5.92-1.89a.906.906 0 0 1-.24-1.61l5.1-3.55-.03-6.22c0-.75.86-1.19 1.46-.73l4.96 3.75 5.9-1.95c.72-.24 1.39.45 1.15 1.16l-2.04 5.87 3.68 5.01c.45.61 0 1.46-.75 1.45l-6.22-.12-3.75 5.23c-.39.54-1.23.4-1.42-.24Z" style="fill:url(#Dégradé_sans_nom_11-7)"/><path d="m606.8 324.56-2.88-2.15-3.29 1.12c-.4.14-.78-.25-.64-.64l1.11-3.29-2.08-2.78c-.25-.34 0-.82.41-.81l3.47.04 2-2.83a.51.51 0 0 1 .9.14l1.03 3.31 3.31 1.03c.4.12.49.66.14.9l-2.83 2 .05 3.59c0 .37-.42.59-.72.36Z" style="fill:url(#Dégradé_sans_nom_11-8)"/><path d="m614.75 243.26-.31-4.33-3.61-2.12a.615.615 0 0 1 .08-1.1l3.88-1.58.9-4.09c.11-.5.74-.65 1.07-.26l2.7 3.2 4.17-.41c.51-.05.85.5.58.93l-2.21 3.56 1.68 3.84c.2.47-.22.96-.71.84l-4.07-1.01-3.25 2.88c-.33.3-.87.08-.9-.37Z" style="fill:url(#Dégradé_sans_nom_11-9)"/><path d="m662.65 191.05 1.65-4.01-2.29-3.51c-.28-.43.05-.99.56-.95l4.18.31 2.63-3.27a.61.61 0 0 1 1.07.24l.99 4.07 3.92 1.49c.48.18.54.83.1 1.09l-3.57 2.2-.21 4.19c-.03.51-.62.77-1.01.44l-3.2-2.71-4.19 1.14a.54.54 0 0 1-.64-.73Z" style="fill:url(#Dégradé_sans_nom_11-10)"/><path d="m643.04 437.52-.31-4.33-3.61-2.12a.615.615 0 0 1 .08-1.1l3.88-1.58.9-4.09c.11-.5.74-.65 1.07-.26l2.7 3.2 4.17-.41c.51-.05.85.5.58.93l-2.21 3.56 1.68 3.84c.2.47-.22.96-.71.84l-4.07-1.01-3.25 2.88c-.33.3-.87.08-.9-.37Z" style="fill:url(#Dégradé_sans_nom_11-11)"/><path d="m458.24 458.91-.4-4.82-4.12-2.4a.676.676 0 0 1 .08-1.22l4.39-1.72.98-4.55c.12-.55.83-.72 1.21-.28l3.09 3.6 4.73-.41c.57-.05.97.57.67 1.05l-2.48 3.94 1.94 4.3c.24.52-.24 1.07-.8.93l-4.62-1.16-3.65 3.18a.62.62 0 0 1-1.02-.42Z" style="fill:url(#Dégradé_sans_nom_11-12)"/><path d="m548.11 71.06-2.78-4.12-4.8-.04c-.58 0-.9-.68-.55-1.13l2.95-3.78-1.44-4.58a.703.703 0 0 1 .91-.87l4.51 1.64 3.91-2.78a.702.702 0 0 1 1.11.6l-.17 4.79 3.86 2.85c.47.35.34 1.08-.22 1.24l-4.61 1.32-1.58 4.71c-.16.49-.81.57-1.1.15Z" style="fill:url(#Dégradé_sans_nom_11-13)"/><path d="m582.08 399.25-1.14-4.83-4.47-1.74a.699.699 0 0 1-.11-1.25l4.1-2.49.27-4.79c.03-.58.72-.87 1.16-.49l3.63 3.13 4.64-1.22c.56-.15 1.05.41.83.95l-1.85 4.42 2.59 4.04c.31.49-.07 1.13-.65 1.08l-4.78-.4-3.14 3.84c-.32.4-.96.25-1.08-.25Z" style="fill:url(#Dégradé_sans_nom_11-14)"/><path d="m405.86 511.92 3.22-3.78-1.24-4.63a.705.705 0 0 1 .95-.83l4.43 1.83 4.02-2.61a.697.697 0 0 1 1.08.64l-.37 4.78 3.73 3.02c.45.37.29 1.09-.28 1.23l-4.66 1.12-1.72 4.48c-.21.54-.95.61-1.25.12l-2.51-4.09-4.96-.26a.621.621 0 0 1-.44-1.02Z" style="fill:url(#Dégradé_sans_nom_11-15)"/><path d="m304.24 461.7 3.22-3.78-1.24-4.63a.705.705 0 0 1 .95-.83l4.43 1.83 4.02-2.61a.697.697 0 0 1 1.08.64l-.37 4.78 3.73 3.02c.45.37.29 1.09-.28 1.23l-4.66 1.12-1.72 4.48c-.21.54-.95.61-1.25.12l-2.51-4.09-4.96-.26a.621.621 0 0 1-.44-1.02Z" style="fill:url(#Dégradé_sans_nom_11-16)"/><path d="m549.42 291.24-2.14-1.6-2.44.83c-.3.1-.58-.18-.48-.48l.83-2.44-1.54-2.07c-.19-.25 0-.61.31-.6l2.58.03 1.49-2.11c.18-.26.58-.19.67.11l.77 2.46 2.46.77c.3.09.36.49.11.67l-2.11 1.49.03 2.67c0 .28-.31.44-.53.27Z" style="fill:url(#Dégradé_sans_nom_11-17)"/><path d="m690.99 307.18-2.14-1.6-2.44.83c-.3.1-.58-.18-.48-.48l.83-2.44-1.54-2.07c-.19-.25 0-.61.31-.6l2.58.03 1.49-2.11c.18-.26.58-.19.67.11l.77 2.46 2.46.77c.3.09.36.49.11.67l-2.11 1.49.03 2.67c0 .28-.31.44-.53.27Z" style="fill:url(#Dégradé_sans_nom_11-18)"/><path d="m462.16 152.05-2.14-1.6-2.44.83c-.3.1-.58-.18-.48-.48l.83-2.44-1.54-2.07c-.19-.25 0-.61.31-.6l2.58.03 1.49-2.11c.18-.26.58-.19.67.11l.77 2.46 2.46.77c.3.09.36.49.11.67l-2.11 1.49.03 2.67c0 .28-.31.44-.53.27Z" style="fill:url(#Dégradé_sans_nom_11-19)"/><path d="m470.52 36.42-2.14-1.6-2.44.83c-.3.1-.58-.18-.48-.48l.83-2.44-1.54-2.07c-.19-.25 0-.61.31-.6l2.58.03 1.49-2.11c.18-.26.58-.19.67.11l.77 2.46 2.46.77c.3.09.36.49.11.67l-2.11 1.49.03 2.67c0 .28-.31.44-.53.27Z" style="fill:url(#Dégradé_sans_nom_11-20)"/><path d="m283.7 64.77-2.14-1.6-2.44.83c-.3.1-.58-.18-.48-.48l.83-2.44-1.54-2.07c-.19-.25 0-.61.31-.6l2.58.03 1.49-2.11c.18-.26.58-.19.67.11l.77 2.46 2.46.77c.3.09.36.49.11.67l-2.11 1.49.03 2.67c0 .28-.31.44-.53.27Z" style="fill:url(#Dégradé_sans_nom_11-21)"/><path d="m285.42 522.31-1.39-2.28-2.58-.14c-.31-.02-.47-.39-.27-.62l1.68-1.96-.66-2.49c-.08-.3.22-.57.51-.44l2.38.99 2.17-1.4c.26-.17.61.04.58.35l-.21 2.57 2 1.63c.24.2.15.59-.15.66l-2.51.6-.97 2.49c-.1.26-.45.29-.59.05Z" style="fill:url(#Dégradé_sans_nom_11-22)"/><path d="m488.57 439.33-1.39-2.28-2.58-.14c-.31-.02-.47-.39-.27-.62l1.68-1.96-.66-2.49c-.08-.3.22-.57.51-.44l2.38.99 2.17-1.4c.26-.17.61.04.58.35l-.21 2.57 2 1.63c.24.2.15.59-.15.66l-2.51.6-.97 2.49c-.1.26-.45.29-.59.05Z" style="fill:url(#Dégradé_sans_nom_11-23)"/><path d="m598.33 149.38-.95-2.5-2.51-.61a.38.38 0 0 1-.15-.66l2.01-1.62-.2-2.57c-.02-.31.32-.52.58-.34l2.16 1.41 2.39-.98c.29-.12.59.15.51.45l-.67 2.49 1.67 1.97c.2.24.04.61-.27.62l-2.58.13-1.4 2.27c-.14.23-.5.2-.59-.06Z" style="fill:url(#Dégradé_sans_nom_11-24)"/><path d="m337.2 36.23-.95-2.5-2.51-.61a.38.38 0 0 1-.15-.66l2.01-1.62-.2-2.57c-.02-.31.32-.52.58-.34l2.16 1.41 2.39-.98c.29-.12.59.15.51.45l-.67 2.49 1.67 1.97c.2.24.04.61-.27.62l-2.58.13-1.4 2.27c-.14.23-.5.2-.59-.06Z" style="fill:url(#Dégradé_sans_nom_11-25)"/><path d="M556.75 420.21v-2.67l-2.13-1.46c-.26-.18-.2-.57.1-.67l2.45-.8.73-2.48c.09-.3.48-.37.67-.12l1.52 2.08 2.58-.07c.31 0 .5.35.32.6l-1.51 2.09.87 2.43c.1.29-.17.58-.47.49l-2.46-.79-2.12 1.63c-.22.17-.53.01-.54-.26Z" style="fill:url(#Dégradé_sans_nom_11-26)"/><path d="m561.99 530.84-.95-2.5-2.51-.61a.38.38 0 0 1-.15-.66l2.01-1.62-.2-2.57c-.02-.31.32-.52.58-.34l2.16 1.41 2.39-.98c.29-.12.59.15.51.45l-.67 2.49 1.67 1.97c.2.24.04.61-.27.62l-2.58.13-1.4 2.27c-.14.23-.5.2-.59-.06Z" style="fill:url(#Dégradé_sans_nom_11-27)"/><path d="m221.83 172.46 1.87-6.16 5.92-1.89c.72-.23.86-1.18.24-1.61l-5.1-3.55.03-6.22c0-.75-.86-1.19-1.46-.73l-4.96 3.75-5.9-1.95c-.72-.24-1.39.45-1.15 1.16l2.04 5.87-3.68 5.01c-.45.61 0 1.46.75 1.45l6.22-.12 3.75 5.23c.39.54 1.23.4 1.42-.24Z" style="fill:url(#Dégradé_sans_nom_11-28)"/><path d="m237.77 511.67 1.87-6.16 5.92-1.89c.72-.23.86-1.18.24-1.61l-5.1-3.55.03-6.22c0-.75-.86-1.19-1.46-.73l-4.96 3.75-5.9-1.95c-.72-.24-1.39.45-1.15 1.16l2.04 5.87-3.68 5.01c-.45.61 0 1.46.75 1.45l6.22-.12 3.75 5.23c.39.54 1.23.4 1.42-.24Z" style="fill:url(#Dégradé_sans_nom_11-29)"/><path d="m132.39 277.73 2.88-2.15 3.29 1.12c.4.14.78-.25.64-.64l-1.11-3.29 2.08-2.78c.25-.34 0-.82-.41-.81l-3.47.04-2-2.83a.51.51 0 0 0-.9.14l-1.03 3.31-3.31 1.03c-.4.12-.49.66-.14.9l2.83 2-.05 3.59c0 .37.42.59.72.36Z" style="fill:url(#Dégradé_sans_nom_11-30)"/><path d="m201.91 293.57.31-4.33 3.61-2.12c.44-.26.39-.91-.08-1.1l-3.88-1.58-.9-4.09a.613.613 0 0 0-1.07-.26l-2.7 3.2-4.17-.41c-.51-.05-.85.5-.58.93l2.21 3.56-1.68 3.84c-.2.47.22.96.71.84l4.07-1.01 3.25 2.88c.33.3.87.08.9-.37Z" style="fill:url(#Dégradé_sans_nom_11-31)"/><path d="m132.75 190.32-1.65-4.01 2.29-3.51a.613.613 0 0 0-.56-.95l-4.18.31-2.63-3.27a.61.61 0 0 0-1.07.24l-.99 4.07-3.92 1.49c-.48.18-.54.83-.1 1.09l3.57 2.2.21 4.19c.03.51.62.77 1.01.44l3.2-2.71 4.19 1.14c.43.12.81-.31.64-.73Z" style="fill:url(#Dégradé_sans_nom_11-32)"/><path d="m251.16 63.11 2.89-3.23 4.16.53c.5.06.86-.48.61-.92l-2.11-3.62 1.79-3.79a.61.61 0 0 0-.68-.86l-4.1.89-3.05-2.87a.613.613 0 0 0-1.03.38l-.42 4.17-3.67 2.02c-.45.24-.42.89.05 1.1l3.83 1.69.81 4.26c.08.44.64.59.93.26Z" style="fill:url(#Dégradé_sans_nom_11-33)"/><path d="m151.72 437.52.31-4.33 3.61-2.12c.44-.26.39-.91-.08-1.1l-3.88-1.58-.9-4.09a.613.613 0 0 0-1.07-.26l-2.7 3.2-4.17-.41c-.51-.05-.85.5-.58.93l2.21 3.56-1.68 3.84c-.2.47.22.96.71.84l4.07-1.01 3.25 2.88c.33.3.87.08.9-.37Z" style="fill:url(#Dégradé_sans_nom_11-34)"/><path d="m215.64 369.24 2.78-4.12 4.8-.04c.58 0 .9-.68.55-1.13l-2.95-3.78 1.44-4.58a.703.703 0 0 0-.91-.87l-4.51 1.64-3.91-2.78a.702.702 0 0 0-1.11.6l.17 4.79-3.86 2.85a.701.701 0 0 0 .22 1.24l4.61 1.32 1.58 4.71c.16.49.81.57 1.1.15Z" style="fill:url(#Dégradé_sans_nom_11-35)"/><path d="m238.58 265.27 2.14-1.6 2.44.83c.3.1.58-.18.48-.48l-.83-2.44 1.54-2.07c.19-.25 0-.61-.31-.6l-2.58.03-1.49-2.11a.377.377 0 0 0-.67.11l-.77 2.46-2.46.77a.38.38 0 0 0-.11.67l2.11 1.49-.03 2.67c0 .28.31.44.53.27Z" style="fill:url(#Dégradé_sans_nom_11-36)"/><path d="m282.8 147.72 2.14-1.6 2.44.83c.3.1.58-.18.48-.48l-.83-2.44 1.54-2.07c.19-.25 0-.61-.31-.6l-2.58.03-1.49-2.11a.377.377 0 0 0-.67.11l-.77 2.46-2.46.77a.38.38 0 0 0-.11.67l2.11 1.49-.03 2.67c0 .28.31.44.53.27Z" style="fill:url(#Dégradé_sans_nom_11-37)"/><path d="m105.82 307.18 2.14-1.6 2.44.83c.3.1.58-.18.48-.48l-.83-2.44 1.54-2.07c.19-.25 0-.61-.31-.6l-2.58.03-1.49-2.11a.377.377 0 0 0-.67.11l-.77 2.46-2.46.77a.38.38 0 0 0-.11.67l2.11 1.49-.03 2.67c0 .28.31.44.53.27Z" style="fill:url(#Dégradé_sans_nom_11-38)"/><path d="m180.5 123.86.95-2.5 2.51-.61c.3-.07.39-.46.15-.66l-2.01-1.62.2-2.57c.02-.31-.32-.52-.58-.34l-2.16 1.41-2.39-.98a.38.38 0 0 0-.51.45l.67 2.49-1.67 1.97c-.2.24-.04.61.27.62l2.58.13 1.4 2.27c.14.23.5.2.59-.06Z" style="fill:url(#Dégradé_sans_nom_11-39)"/><path d="m212.16 405.86.95-2.5 2.51-.61c.3-.07.39-.46.15-.66l-2.01-1.62.2-2.57c.02-.31-.32-.52-.58-.34l-2.16 1.41-2.39-.98a.38.38 0 0 0-.51.45l.67 2.49-1.67 1.97c-.2.24-.04.61.27.62l2.58.13 1.4 2.27c.14.23.5.2.59-.06Z" style="fill:url(#Dégradé_sans_nom_11-40)"/><path d="m260.67 398.44.95-2.5 2.51-.61c.3-.07.39-.46.15-.66l-2.01-1.62.2-2.57c.02-.31-.32-.52-.58-.34l-2.16 1.41-2.39-.98a.38.38 0 0 0-.51.45l.67 2.49-1.67 1.97c-.2.24-.04.61.27.62l2.58.13 1.4 2.27c.14.23.5.2.59-.06Z" style="fill:url(#Dégradé_sans_nom_11-41)"/><path d="m472.72 517.98-.95-2.5-2.51-.61a.38.38 0 0 1-.15-.66l2.01-1.62-.2-2.57c-.02-.31.32-.52.58-.34l2.16 1.41 2.39-.98c.29-.12.59.15.51.45l-.67 2.49 1.67 1.97c.2.24.04.61-.27.62l-2.58.13-1.4 2.27c-.14.23-.5.2-.59-.06Z" style="fill:url(#Dégradé_sans_nom_11-42)"/><path d="m351.55 487.46-.95-2.5-2.51-.61a.38.38 0 0 1-.15-.66l2.01-1.62-.2-2.57c-.02-.31.32-.52.58-.34l2.16 1.41 2.39-.98c.29-.12.59.15.51.45l-.67 2.49 1.67 1.97c.2.24.04.61-.27.62l-2.58.13-1.4 2.27c-.14.23-.5.2-.59-.06Z" style="fill:url(#Dégradé_sans_nom_11-43)"/><path d="m534.37 207.48-3.74.49-1.66 3.24a.54.54 0 0 1-.96-.01l-1.56-3.29-3.6-.58a.53.53 0 0 1-.28-.91l2.65-2.5-.56-3.6a.53.53 0 0 1 .78-.55l3.2 1.74 3.25-1.65c.39-.2.85.14.76.57l-.67 3.58 2.66 2.67c.27.28.11.75-.27.8Z" style="fill:url(#Dégradé_sans_nom_11-44)"/><path d="m378.14 44.23-3.74.49-1.66 3.24a.54.54 0 0 1-.96-.01l-1.56-3.29-3.6-.58a.53.53 0 0 1-.28-.91l2.65-2.5-.56-3.6a.53.53 0 0 1 .78-.55l3.2 1.74 3.25-1.65c.39-.2.85.14.76.57l-.67 3.58 2.66 2.67c.27.28.11.75-.27.8Z" style="fill:url(#Dégradé_sans_nom_11-45)"/><path d="m513.21 140.86-2.49-2.83-3.62.44a.53.53 0 0 1-.52-.8l1.85-3.14-1.53-3.3a.53.53 0 0 1 .6-.74l3.55.79 2.67-2.48c.32-.3.85-.1.89.34l.34 3.63 3.18 1.77c.39.21.36.78-.05.95l-3.34 1.45-.73 3.7c-.08.38-.56.51-.81.22Z" style="fill:url(#Dégradé_sans_nom_11-46)"/><path d="m636.15 125.81-2.49-2.83-3.62.44a.53.53 0 0 1-.52-.8l1.85-3.14-1.53-3.3a.53.53 0 0 1 .6-.74l3.55.79 2.67-2.48c.32-.3.85-.1.89.34l.34 3.63 3.18 1.77c.39.21.36.78-.05.95l-3.34 1.45-.73 3.7c-.08.38-.56.51-.81.22Z" style="fill:url(#Dégradé_sans_nom_11-47)"/><path d="m432.37 81.41 2.89-3.23 4.16.53c.5.06.86-.48.61-.92l-2.11-3.62 1.79-3.79a.61.61 0 0 0-.68-.86l-4.1.89-3.05-2.87a.613.613 0 0 0-1.03.38l-.42 4.17-3.67 2.02c-.45.24-.42.89.05 1.1l3.83 1.69.81 4.26c.08.44.64.59.93.26Z" style="fill:url(#Dégradé_sans_nom_11-48)"/></svg>