<svg xmlns="http://www.w3.org/2000/svg" xmlns:xlink="http://www.w3.org/1999/xlink" id="Calque_1" data-name="Calque 1" viewBox="0 0 841.89 595.28"><defs><linearGradient id="Dégradé_sans_nom_5" x1="291.85" x2="291.85" y1="370.32" y2="220.46" data-name="Dégradé sans nom 5" gradientUnits="userSpaceOnUse"><stop offset="0" stop-color="#5b5a72"/><stop offset="1" stop-color="#b0b0bf"/></linearGradient><linearGradient id="Dégradé_sans_nom_3" x1="505.06" x2="604.12" y1="349.55" y2="448.61" data-name="Dégradé sans nom 3" gradientUnits="userSpaceOnUse"><stop offset="0" stop-color="#b0b0bf"/><stop offset="1" stop-color="#f4f4f6"/></linearGradient><linearGradient id="Dégradé_sans_nom_2" x1="341.8" x2="506.55" y1="268.32" y2="433.07" data-name="Dégradé sans nom 2" gradientUnits="userSpaceOnUse"><stop offset=".1" stop-color="#5b5a72"/><stop offset=".5" stop-color="#b0b0bf"/><stop offset=".96" stop-color="#f4f4f6"/></linearGradient><linearGradient xlink:href="#Dégradé_sans_nom_2" id="Dégradé_sans_nom_2-2" x1="314.13" x2="529.6" y1="29.15" y2="244.63" data-name="Dégradé sans nom 2"/><radialGradient id="Dégradé_sans_nom_17" cx="420.94" cy="545.6" r="128.87" data-name="Dégradé sans nom 17" fx="420.94" fy="545.6" gradientTransform="matrix(1 .00035 -.00004 .11 .02 483.42)" gradientUnits="userSpaceOnUse"><stop offset=".4" stop-color="#353544" stop-opacity=".5"/><stop offset="1" stop-color="#353544" stop-opacity="0"/></radialGradient><style>.cls-2{fill:#353544}.cls-8{fill:#fff;opacity:.5}</style></defs><ellipse cx="420.94" cy="545.6" rx="130.92" ry="15.9" style="fill:url(#Dégradé_sans_nom_17)"/><path d="m315.65 343.16-31.68-141.03c-.9-3.88-6.47-3.85-7.2.07-5.19 27.47-13.72 82.28-5.65 113.27 6.28 24.21 20.87 34.3 32.27 38.55 6.88 2.54 13.89-3.66 12.25-10.86Z" style="fill:url(#Dégradé_sans_nom_5)"/><path d="M531.63 331.8c11.97 2.19 28.1 9.57 38.51 32.32 13.36 29.1 14.54 84.56 14.23 112.51-.03 3.99-5.51 4.99-7.07 1.33l-55.83-133.33c-2.87-6.8 2.95-14.13 10.16-12.83Z" style="fill:url(#Dégradé_sans_nom_3)"/><path d="M515.7 295.39c8.14-2.43 15.21 6.08 11.26 13.61l-93.31 178.8c-5.32 10.27-20.08 10.27-25.4 0L314.94 309c-3.88-7.53 3.19-16.05 11.33-13.61l84.19 25.55 6.08 73.54c.46 5.4 8.37 5.4 8.82 0l6.08-73.54 84.26-25.55Z" style="fill:url(#Dégradé_sans_nom_2)"/><path d="M522.7 33.77c-8.14 0-14.83 6.39-14.83 23.65 0 13 3.8 24.18 9.2 28.9v58.71c-17.72-35.14-54.07-59.24-96.13-59.24s-78.41 24.11-96.13 59.24V86.32c5.4-4.72 9.2-15.89 9.2-28.9 0-17.26-6.62-23.65-14.83-23.65s-14.83 6.39-14.83 23.65c0 13 3.73 24.11 9.05 28.82v107.08c0 59.32 48.14 107.46 107.54 107.46s107.54-48.14 107.54-107.46V86.24c5.32-4.72 9.05-15.82 9.05-28.82 0-17.26-6.62-23.65-14.83-23.65ZM420.94 243.44c-27.68 0-50.19-22.44-50.19-50.12s22.51-50.19 50.19-50.19 50.19 22.44 50.19 50.19-22.44 50.12-50.19 50.12Z" style="fill:url(#Dégradé_sans_nom_2-2)"/><ellipse cx="470.5" cy="193.29" class="cls-2" rx="19.59" ry="33.22"/><ellipse cx="465.82" cy="184.51" class="cls-8" rx="4.55" ry="3.13"/><ellipse cx="472.78" cy="174.9" class="cls-8" rx="6.96" ry="6.11"/><ellipse cx="371.39" cy="193.29" class="cls-2" rx="19.59" ry="33.22"/><ellipse cx="366.69" cy="184.51" class="cls-8" rx="4.55" ry="3.13"/><ellipse cx="373.65" cy="174.9" class="cls-8" rx="6.96" ry="6.11"/><path d="M399.38 253.53h43.13s-2.26 23.48-21.56 23.39c-19.68 0-21.56-23.39-21.56-23.39Z" style="fill:#5b5a72"/><path d="M450.91 125.24s18.03-7.62 39.19 17.89c0 0-13.54-25.18-24.28-26.84-10.02-1.55-14.91 8.95-14.91 8.95ZM390.98 125.24s-18.03-7.62-39.19 17.89c0 0 13.54-25.18 24.28-26.84 10.02-1.55 14.91 8.95 14.91 8.95Z" class="cls-2"/><path d="M535.29 158.55s.02-80.18-114.34-80.18-114.34 80.18-114.34 80.18c-10.07 3.93-16.97 13.96-16.41 25.35l.96 19.7c.69 14.27 12.83 25.27 27.1 24.58l-3.47-71.37c9.89-75.05 106.18-71.02 106.18-71.02s96.29-4.03 106.18 71.02l-3.47 71.37s-5.54 13.2-15.77 20.73c-6.47 4.76-20.93 8.21-30.69 10.1-1.88-4.05-7.6-6.33-13.78-5.19-6.98 1.28-11.89 6.42-10.96 11.48.93 5.06 7.34 8.13 14.32 6.85 5.52-1.01 9.73-4.44 10.8-8.33 8.38-1.61 20.54-4.6 30.83-9.68 13.55-6.69 21.31-26.37 21.31-26.38 11.49-2.16 20.44-11.97 21.04-24.16l.96-19.7c.55-11.39-6.35-21.42-16.41-25.36Z" class="cls-2"/></svg>