<svg xmlns="http://www.w3.org/2000/svg" xmlns:xlink="http://www.w3.org/1999/xlink" id="Calque_1" data-name="Calque 1" viewBox="0 0 841.89 595.28"><defs><linearGradient id="Dégradé_sans_nom_12" x1="321.27" x2="321.27" y1="284.49" y2="366.81" data-name="Dégradé sans nom 12" gradientUnits="userSpaceOnUse"><stop offset="0" stop-color="#b0b0bf"/><stop offset="1" stop-color="#5b5a72"/></linearGradient><linearGradient id="Dégradé_sans_nom_14" x1="548.28" x2="548.28" y1="314.42" y2="368.65" data-name="Dégradé sans nom 14" gradientUnits="userSpaceOnUse"><stop offset="0" stop-color="#b0b0bf"/><stop offset="1" stop-color="#f4f4f6"/></linearGradient><linearGradient id="Dégradé_sans_nom_11" x1="330.01" x2="528.74" y1="273.49" y2="472.22" data-name="Dégradé sans nom 11" gradientUnits="userSpaceOnUse"><stop offset=".1" stop-color="#5b5a72"/><stop offset=".5" stop-color="#b0b0bf"/><stop offset=".96" stop-color="#f4f4f6"/></linearGradient><linearGradient xlink:href="#Dégradé_sans_nom_11" id="Dégradé_sans_nom_11-2" x1="422.87" x2="619.98" y1="157.05" y2="354.16" data-name="Dégradé sans nom 11"/><linearGradient xlink:href="#Dégradé_sans_nom_11" id="Dégradé_sans_nom_11-3" x1="360.33" x2="503.57" y1="264.6" y2="407.85" data-name="Dégradé sans nom 11"/><style>.cls-1{fill:#353544}.cls-7{fill:#fff;opacity:.5}</style></defs><path d="M321.27 383.57h-13.79c-7.07 0-11.54-7.72-7.9-13.78 3.69-6.15 10.22-12.03 21.69-12.03s18 5.88 21.69 12.03c3.64 6.07-.83 13.78-7.9 13.78h-13.79Z" style="fill:url(#Dégradé_sans_nom_12)"/><path d="M548.28 383.57h-13.79c-7.07 0-11.54-7.72-7.9-13.78 3.69-6.15 10.22-12.03 21.69-12.03s18 5.88 21.69 12.03c3.64 6.07-.83 13.78-7.9 13.78h-13.79Z" style="fill:url(#Dégradé_sans_nom_14)"/><path d="M337.89 248.34v58.71c-7.3 14.53-11.41 30.95-11.41 48.29V248.26c-5.32-4.72-9.05-15.82-9.05-28.82 0-17.26 6.62-23.65 14.83-23.65s14.83 6.39 14.83 23.65c0 13-3.8 24.18-9.2 28.9Z" style="fill:url(#Dégradé_sans_nom_11)"/><path d="M541.56 248.26v107.08c0-17.34-4.11-33.77-11.41-48.29v-58.71c-5.4-4.72-9.2-15.89-9.2-28.9 0-17.26 6.69-23.65 14.83-23.65s14.83 6.39 14.83 23.65c0 13-3.73 24.11-9.05 28.82Z" style="fill:url(#Dégradé_sans_nom_11-2)"/><path d="M346.22 367.83c2.41 4.01 2.46 8.85.15 12.93a12.82 12.82 0 0 1-2.12 2.8h48.31a49.837 49.837 0 0 1-8.73-28.23c0-27.76 22.51-50.19 50.19-50.19s50.19 22.44 50.19 50.19c0 10.47-3.21 20.19-8.71 28.23h49.8a13.75 13.75 0 0 1-2.12-2.8c-2.32-4.09-2.26-8.92.15-12.94 4.27-7.11 10.49-11.58 18.21-13.19-.11-17.08-4.2-33.26-11.4-47.59-17.72-35.14-54.07-59.24-96.13-59.24s-78.41 24.11-96.13 59.24c-7.16 14.25-11.24 30.33-11.39 47.31 8.42 1.32 15.18 5.9 19.72 13.47Z" style="fill:url(#Dégradé_sans_nom_11-3)"/><path d="M494.72 383.57c5.11-5.3 8.46-14.8 8.46-28.26 0-21.79-8.77-33.22-19.59-33.22S464 333.52 464 355.31c0 13.46 3.35 22.96 8.46 28.26h22.27ZM395.6 383.57c5.11-5.3 8.46-14.8 8.46-28.26 0-21.79-8.77-33.22-19.59-33.22s-19.59 11.43-19.59 33.22c0 13.46 3.35 22.96 8.46 28.26h22.27Z" class="cls-1"/><ellipse cx="478.9" cy="346.53" class="cls-7" rx="4.55" ry="3.13"/><ellipse cx="485.86" cy="336.92" class="cls-7" rx="6.96" ry="6.11"/><ellipse cx="379.77" cy="346.53" class="cls-7" rx="4.55" ry="3.13"/><ellipse cx="386.73" cy="336.92" class="cls-7" rx="6.96" ry="6.11"/><path d="M463.99 287.25s18.03-7.62 39.19 17.89c0 0-13.54-25.18-24.28-26.84-10.02-1.55-14.91 8.95-14.91 8.95ZM404.06 287.25s-18.03-7.62-39.19 17.89c0 0 13.54-25.18 24.28-26.84 10.02-1.55 14.91 8.95 14.91 8.95Z" class="cls-1"/></svg>