<svg xmlns="http://www.w3.org/2000/svg" xmlns:xlink="http://www.w3.org/1999/xlink" id="Calque_1" data-name="Calque 1" viewBox="0 0 841.89 595.28"><defs><linearGradient id="Dégradé_sans_nom_26" x1="437.14" x2="437.14" y1="189.13" y2="249.07" data-name="Dégradé sans nom 26" gradientUnits="userSpaceOnUse"><stop offset="0" stop-color="#b0b0bf"/><stop offset="1" stop-color="#f4f4f6"/></linearGradient><linearGradient xlink:href="#Dégradé_sans_nom_26" id="Dégradé_sans_nom_26-2" x1="528.44" x2="528.44" y1="91.52" data-name="Dégradé sans nom 26"/><linearGradient xlink:href="#Dégradé_sans_nom_26" id="Dégradé_sans_nom_26-3" x1="457.09" x2="457.09" y1="91.52" y2="127.32" data-name="Dégradé sans nom 26"/><linearGradient xlink:href="#Dégradé_sans_nom_26" id="Dégradé_sans_nom_26-4" x1="444.69" x2="442.74" y1="234.7" y2="234.24" data-name="Dégradé sans nom 26"/><linearGradient xlink:href="#Dégradé_sans_nom_26" id="Dégradé_sans_nom_26-5" x1="446.86" x2="387.99" y1="205.17" y2="191.16" data-name="Dégradé sans nom 26"/><linearGradient xlink:href="#Dégradé_sans_nom_26" id="Dégradé_sans_nom_26-6" x1="354.83" x2="285.51" y1="239.57" y2="223.08" data-name="Dégradé sans nom 26"/><linearGradient xlink:href="#Dégradé_sans_nom_26" id="Dégradé_sans_nom_26-7" x1="331.44" x2="329.62" y1="168.81" y2="163.92" data-name="Dégradé sans nom 26"/><linearGradient xlink:href="#Dégradé_sans_nom_26" id="Dégradé_sans_nom_26-8" x1="305.46" x2="250.6" y1="238.22" y2="90.53" data-name="Dégradé sans nom 26"/><linearGradient id="Dégradé_sans_nom_11" x1="307.72" x2="511.95" y1="69.16" y2="273.39" data-name="Dégradé sans nom 11" gradientUnits="userSpaceOnUse"><stop offset=".1" stop-color="#5b5a72"/><stop offset=".5" stop-color="#b0b0bf"/><stop offset=".96" stop-color="#f4f4f6"/></linearGradient><linearGradient xlink:href="#Dégradé_sans_nom_26" id="Dégradé_sans_nom_26-9" x1="203.16" x2="203.16" y1="381.88" y2="537.42" data-name="Dégradé sans nom 26" gradientTransform="rotate(-90 174.515 427.855)"/><linearGradient xlink:href="#Dégradé_sans_nom_26" id="Dégradé_sans_nom_26-10" x1="210.54" x2="210.54" y1="-78.7" y2="76.85" data-name="Dégradé sans nom 26" gradientTransform="rotate(-90 506.36 -64.6)"/><linearGradient xlink:href="#Dégradé_sans_nom_26" id="Dégradé_sans_nom_26-11" x1="126.23" x2="311.4" y1="262.27" y2="262.27" data-name="Dégradé sans nom 26" gradientTransform="rotate(-45.3 218.822 262.273)"/><linearGradient xlink:href="#Dégradé_sans_nom_26" id="Dégradé_sans_nom_26-12" x1="535.6" x2="723.53" y1="322.2" y2="322.2" data-name="Dégradé sans nom 26" gradientTransform="rotate(-146.8 629.58 322.19)"/><linearGradient xlink:href="#Dégradé_sans_nom_26" id="Dégradé_sans_nom_26-13" x1="390.08" x2="577.35" y1="426.38" y2="426.38" data-name="Dégradé sans nom 26" gradientTransform="rotate(149.97 483.723 426.367)"/><linearGradient xlink:href="#Dégradé_sans_nom_26" id="Dégradé_sans_nom_26-14" x1="321.69" x2="321.69" y1="172.36" y2="327.9" data-name="Dégradé sans nom 26" gradientTransform="rotate(-23.14 343.421 294.492)"/><linearGradient xlink:href="#Dégradé_sans_nom_26" id="Dégradé_sans_nom_26-15" x1="261.43" x2="261.43" y1="216" y2="371.55" data-name="Dégradé sans nom 26" gradientTransform="rotate(-61.17 268.162 330.745)"/><linearGradient xlink:href="#Dégradé_sans_nom_26" id="Dégradé_sans_nom_26-16" x1="413.81" x2="413.81" y1="342.33" y2="523.14" data-name="Dégradé sans nom 26"/><linearGradient xlink:href="#Dégradé_sans_nom_26" id="Dégradé_sans_nom_26-17" x1="434.84" x2="434.84" y1="261.63" y2="432.98" data-name="Dégradé sans nom 26" gradientTransform="rotate(45.09 458.433 292.07)"/><linearGradient xlink:href="#Dégradé_sans_nom_26" id="Dégradé_sans_nom_26-18" x1="538.82" x2="538.82" y1="285.51" y2="441.06" data-name="Dégradé sans nom 26" gradientTransform="rotate(23.28 645.177 297.61)"/><linearGradient xlink:href="#Dégradé_sans_nom_26" id="Dégradé_sans_nom_26-19" x1="698.66" x2="698.66" y1="253.8" y2="409.34" data-name="Dégradé sans nom 26" gradientTransform="rotate(-47.95 700.837 447.87)"/><linearGradient xlink:href="#Dégradé_sans_nom_26" id="Dégradé_sans_nom_26-20" x1="230.67" x2="390.08" y1="432.73" y2="432.73" data-name="Dégradé sans nom 26"/><linearGradient xlink:href="#Dégradé_sans_nom_26" id="Dégradé_sans_nom_26-21" x1="251.43" x2="251.43" y1="385.06" y2="519.94" data-name="Dégradé sans nom 26" gradientTransform="rotate(-33.13 251.447 452.514)"/><linearGradient xlink:href="#Dégradé_sans_nom_26" id="Dégradé_sans_nom_26-22" x1="352.99" x2="352.99" y1="282.83" y2="380.28" data-name="Dégradé sans nom 26" gradientTransform="rotate(-27.6 352.429 352.658)"/><linearGradient xlink:href="#Dégradé_sans_nom_26" id="Dégradé_sans_nom_26-23" x1="580.79" x2="580.79" y1="352.9" y2="478.3" data-name="Dégradé sans nom 26" gradientTransform="rotate(-57.14 580.751 415.599)"/><radialGradient id="Dégradé_sans_nom_17" cx="2825.24" cy="510.19" r="116.02" data-name="Dégradé sans nom 17" fx="2825.24" fy="510.19" gradientTransform="matrix(-2.84 .0005 .00002 .11 8440.49 451.17)" gradientUnits="userSpaceOnUse"><stop offset=".4" stop-color="#353544" stop-opacity=".5"/><stop offset="1" stop-color="#353544" stop-opacity="0"/></radialGradient><style>.cls-13,.cls-2{fill:#fff}.cls-15{fill:#353544}.cls-21{fill:url(#Dégradé_sans_nom_11)}.cls-13{opacity:.5}</style></defs><path d="M425.58 247.07c3.99-20.46 6.14-39.62 7.09-57-.65-.33-1.31-.64-1.98-.94-.92 17.32-3.03 36.74-7.08 57.55a2.001 2.001 0 0 0 1.96 2.38h23.99c.4-.65.78-1.32 1.14-2h-25.13Z" style="fill:url(#Dégradé_sans_nom_26)"/><path d="M534.14 93.52h-11.57c.65 2.87 1.04 6.26 1.04 10.31 0 11.77-3.12 22.18-8.23 27.79v95.78c0 6.73-.67 13.3-1.92 19.67h20.68c17.36-89.09 0-153.55 0-153.55ZM432.67 190.07a419.93 419.93 0 0 1-7.09 57h25.13a41.458 41.458 0 0 0 4.94-19.67c0-16.29-9.36-30.42-22.98-37.33ZM467.83 141.36a102.142 102.142 0 0 1 29.58 28.32V131.7c-5.2-5.62-8.37-16.06-8.37-27.87 0-4.04.38-7.44 1.04-10.31h-64.51s3.33 12.38 5.62 33.79c12.98 2.24 25.42 6.98 36.63 14.04Z" class="cls-2"/><path d="M413.81 269.17c8.12 0 15.71-2.33 22.13-6.35l13.6-57.17a42.27 42.27 0 0 0-2.07-3.07c-7.51-.06-29.67-.85-60.46-7.29-9.18 7.68-15.04 19.22-15.04 32.1 0 23.03 18.77 41.77 41.84 41.77ZM312.23 227.4v-55.42c-3.74-1.57-7.52-3.21-11.34-4.94l-25.13 105.62a418.114 418.114 0 0 0 62.55 22.59c-16.21-17.99-26.09-41.79-26.09-67.84Z" class="cls-2"/><ellipse cx="413.81" cy="510.19" rx="334.87" ry="14.32" style="fill:url(#Dégradé_sans_nom_17)"/><path d="M542.65 136.73c-2.16-27.12-6.39-43.06-6.57-43.73a2.01 2.01 0 0 0-1.93-1.48h-12.09c.19.63.36 1.31.52 2h11.57s17.36 64.46 0 153.55h-20.68c-.13.67-.27 1.34-.42 2h21.1c.96 0 1.78-.68 1.96-1.62 9.01-46.24 8.53-85.74 6.54-110.72Z" style="fill:url(#Dégradé_sans_nom_26-2)"/><path d="M429.15 126.99c.68.1 1.37.21 2.05.33-2.28-21.41-5.62-33.79-5.62-33.79h64.51c.16-.69.33-1.37.52-2h-65.02c-.62 0-1.21.29-1.59.78-.38.49-.51 1.14-.34 1.74.04.14 3.26 12.3 5.5 32.95Z" style="fill:url(#Dégradé_sans_nom_26-3)"/><path d="M450.98 208.24c-.45-.88-.93-1.74-1.44-2.58l-13.6 57.17c.84-.52 1.65-1.07 2.45-1.65l12.59-52.93Z" style="fill:url(#Dégradé_sans_nom_26-4)"/><path d="M447.47 202.59c-.51-.69-1.04-1.36-1.59-2.02-8.66-.16-29.11-1.2-56.83-6.87-.7.51-1.38 1.05-2.04 1.6 30.78 6.44 52.95 7.23 60.46 7.29Z" style="fill:url(#Dégradé_sans_nom_26-5)"/><path d="M338.32 295.24a417.092 417.092 0 0 1-62.56-22.59l25.13-105.62c3.82 1.73 7.59 3.37 11.34 4.94v-2.17c-3.47-1.46-6.98-2.99-10.51-4.6-.26-.12-.54-.18-.83-.18a1.992 1.992 0 0 0-1.95 1.53l-25.13 105.62c-.22.93.25 1.89 1.12 2.28 23.69 10.75 46.07 18.28 65.98 23.54-.88-.91-1.75-1.83-2.6-2.77Z" style="fill:url(#Dégradé_sans_nom_26-6)"/><path d="M330.2 163.7v4.62c.13.27.27.54.4.8.43-.62.88-1.22 1.33-1.82-.58-1.17-1.16-2.37-1.73-3.6Z" style="fill:url(#Dégradé_sans_nom_26-7)"/><path d="m312.42 233.5-51.18 19.01s-57.01-51.8-53.46-143.94l101.77-37.8c-.17 4.49-.2 8.87-.1 13.17.63-.75 1.3-1.41 1.97-1.97-.05-3.61-.03-7.27.12-11.02v-.18c0-1.1-.89-2-1.99-2h-.08c-.23 0-.46.06-.66.14L207.08 106.7c-.76.28-1.27.99-1.3 1.8-.82 21.22 1.51 42.07 6.93 61.96a199.274 199.274 0 0 0 18.73 45.62c13.81 24.47 27.87 37.38 28.46 37.91a2.003 2.003 0 0 0 2.05.39l50.62-18.8c-.06-.69-.1-1.39-.14-2.08Z" style="fill:url(#Dégradé_sans_nom_26-8)"/><path d="M506.33 82.32c-7.4 0-13.48 5.81-13.48 21.5 0 11.82 3.46 21.99 8.37 26.28v53.38c-16.11-31.95-49.16-53.87-87.4-53.87s-71.29 21.92-87.4 53.87V130.1c4.91-4.29 8.37-14.45 8.37-26.28 0-15.7-6.02-21.5-13.48-21.5s-13.48 5.81-13.48 21.5c0 11.82 3.39 21.92 8.23 26.21v97.36c0 53.94 43.77 97.71 97.78 97.71s97.78-43.77 97.78-97.71v-97.36c4.84-4.29 8.23-14.38 8.23-26.21 0-15.7-6.02-21.5-13.48-21.5Zm-92.52 190.64c-25.17 0-45.64-20.4-45.64-45.57s20.47-45.64 45.64-45.64 45.64 20.4 45.64 45.64-20.4 45.57-45.64 45.57Z" class="cls-21"/><path d="M506.33 82.32c-7.4 0-13.48 5.81-13.48 21.5 0 11.82 3.46 21.99 8.37 26.28v53.38c-16.11-31.95-49.16-53.87-87.4-53.87s-71.29 21.92-87.4 53.87V130.1c4.91-4.29 8.37-14.45 8.37-26.28 0-15.7-6.02-21.5-13.48-21.5s-13.48 5.81-13.48 21.5c0 11.82 3.39 21.92 8.23 26.21v97.36c0 53.94 43.77 97.71 97.78 97.71s97.78-43.77 97.78-97.71v-97.36c4.84-4.29 8.23-14.38 8.23-26.21 0-15.7-6.02-21.5-13.48-21.5Zm-92.52 190.64c-25.17 0-45.64-20.4-45.64-45.57s20.47-45.64 45.64-45.64 45.64 20.4 45.64 45.64-20.4 45.57-45.64 45.57Z" class="cls-21"/><path d="M312.23 227.4v-95.78c-5.11-5.61-8.23-16.01-8.23-27.79 0-10.11 2.37-16.22 5.46-19.9-.1-4.29-.08-8.68.1-13.17l-101.77 37.8c-3.55 92.14 53.46 143.94 53.46 143.94l51.18-19.01c-.12-2.02-.19-4.05-.19-6.1Z" class="cls-2"/><ellipse cx="458.87" cy="227.36" class="cls-15" rx="17.82" ry="30.2"/><ellipse cx="454.61" cy="219.39" class="cls-13" rx="4.14" ry="2.85"/><ellipse cx="460.94" cy="210.65" class="cls-13" rx="6.33" ry="5.56"/><ellipse cx="368.75" cy="227.36" class="cls-15" rx="17.82" ry="30.2"/><ellipse cx="364.48" cy="219.39" class="cls-13" rx="4.14" ry="2.85"/><ellipse cx="370.81" cy="210.65" class="cls-13" rx="6.33" ry="5.56"/><path d="M441.05 156.82s16.39-6.93 35.63 16.27c0 0-12.31-22.9-22.07-24.4-9.11-1.41-13.56 8.13-13.56 8.13ZM386.56 156.82s-16.39-6.93-35.63 16.27c0 0 12.31-22.9 22.07-24.4 9.11-1.41 13.56 8.13 13.56 8.13Z" class="cls-15"/><ellipse cx="413.81" cy="299.03" rx="9.83" ry="9.53" style="fill:#5b5a72"/><path d="M129.54 344.92h153.55v108.57H129.54z" style="stroke-linecap:round;stroke-linejoin:round;stroke-width:2px;fill:#fff;stroke:url(#Dégradé_sans_nom_26-9)" transform="rotate(165.44 206.292 399.216)"/><path d="M493.26 176.93h153.55V285.5H493.26z" style="stroke:url(#Dégradé_sans_nom_26-10);stroke-linecap:round;stroke-linejoin:round;stroke-width:2px;fill:#fff" transform="rotate(166.14 570.028 231.231)"/><path d="M142.04 207.99h153.55v108.57H142.04z" style="fill:url(#Dégradé_sans_nom_26-11)" transform="rotate(45.3 218.815 262.28)"/><path d="M552.8 267.92h153.55v108.57H552.8z" style="fill:url(#Dégradé_sans_nom_26-12)" transform="rotate(146.8 629.567 322.217)"/><path d="M406.95 372.1H560.5v108.57H406.95z" style="fill:url(#Dégradé_sans_nom_26-13)" transform="rotate(-149.97 483.709 426.386)"/><path d="m222.37 214.52 99.84-42.66s41.29 52.45 60.33 141.2l-99.84 42.66c-19.04-88.75-60.33-141.2-60.33-141.2Z" style="stroke:url(#Dégradé_sans_nom_26-14);stroke-linecap:round;stroke-linejoin:round;stroke-width:2px;fill:#fff"/><path d="m137.23 332.73 52.35-95.11s64.84 15.87 134.51 74.04l-52.35 95.11c-69.67-58.17-134.51-74.04-134.51-74.04Z" style="stroke:url(#Dégradé_sans_nom_26-15);stroke-linecap:round;stroke-linejoin:round;stroke-width:2px;fill:#fff"/><path d="m384.7 343.33 103.7 32.15s-2.51 66.71-45.47 146.66l-103.7-32.15c42.97-79.95 45.47-146.66 45.47-146.66Z" style="stroke:url(#Dégradé_sans_nom_26-16);stroke-linecap:round;stroke-linejoin:round;stroke-width:2px;fill:#fff"/><path d="m294.25 325.58 84.53 84.81c94.07-38.63 119.94-119.55 119.94-119.55l-84.53-84.81s-25.87 80.92-119.94 119.55Z" style="stroke:url(#Dégradé_sans_nom_26-17);stroke-linecap:round;stroke-linejoin:round;stroke-width:2px;fill:#fff"/><path d="m434.11 361.85 99.73 42.9c66.17-64.21 60.68-141.05 60.68-141.05l-99.73-42.9s5.49 76.83-60.68 141.05Z" style="stroke:url(#Dégradé_sans_nom_26-18);stroke-linecap:round;stroke-linejoin:round;stroke-width:2px;fill:#fff"/><path d="m628.39 469.13 72.71-80.62c-39.51-83.31-114.02-102.84-114.02-102.84l-72.71 80.62s74.51 19.52 114.02 102.84Z" style="stroke:url(#Dégradé_sans_nom_26-19);stroke-linecap:round;stroke-linejoin:round;stroke-width:2px;fill:#fff"/><path d="m289.93 524.51 100.15-41.9c-.2-92.21-59.26-141.65-59.26-141.65l-100.15 41.9s59.07 49.44 59.26 141.65Z" style="fill:url(#Dégradé_sans_nom_26-20)"/><path d="M213.05 398.21h76.77v108.57h-76.77z" style="stroke:url(#Dégradé_sans_nom_26-21);stroke-linecap:round;stroke-linejoin:round;stroke-width:2px;fill:#fff" transform="rotate(33.13 251.447 452.525)"/><path d="m304.89 380.01-48.21-54.95 124.71-37.64 48.2 54.95-124.7 37.64z" style="stroke:url(#Dégradé_sans_nom_26-22);stroke-linecap:round;stroke-linejoin:round;stroke-width:2px;fill:#fff"/><path d="M542.41 361.32h76.77v108.57h-76.77z" style="stroke:url(#Dégradé_sans_nom_26-23);stroke-linecap:round;stroke-linejoin:round;stroke-width:2px;fill:#fff" transform="rotate(57.14 580.775 415.556)"/></svg>