<svg xmlns="http://www.w3.org/2000/svg" xmlns:xlink="http://www.w3.org/1999/xlink" id="Calque_1" data-name="Calque 1" viewBox="0 0 841.89 595.28"><defs><linearGradient id="Dégradé_sans_nom_11" x1="235.32" x2="402.44" y1="53.08" y2="220.2" data-name="Dégradé sans nom 11" gradientUnits="userSpaceOnUse"><stop offset=".1" stop-color="#5b5a72"/><stop offset=".5" stop-color="#b0b0bf"/><stop offset=".96" stop-color="#f4f4f6"/></linearGradient><linearGradient id="Dégradé_sans_nom_26" x1="387.04" x2="484.08" y1="366.82" y2="269.78" data-name="Dégradé sans nom 26" gradientUnits="userSpaceOnUse"><stop offset="0" stop-color="#b0b0bf"/><stop offset="1" stop-color="#f4f4f6"/></linearGradient><linearGradient id="Dégradé_sans_nom_46" x1="712.84" x2="811.99" y1="452.71" y2="551.86" data-name="Dégradé sans nom 46" gradientTransform="scale(1 -1) rotate(-26.77 -1097.875 851.517)" gradientUnits="userSpaceOnUse"><stop offset="0" stop-color="#5b5a72"/><stop offset="1" stop-color="#b0b0bf"/></linearGradient><linearGradient xlink:href="#Dégradé_sans_nom_11" id="Dégradé_sans_nom_11-2" x1="259.5" x2="439.54" y1="268.72" y2="448.76" data-name="Dégradé sans nom 11"/><linearGradient xlink:href="#Dégradé_sans_nom_46" id="Dégradé_sans_nom_46-2" x1="405.96" x2="414.79" y1="212.65" y2="221.49" data-name="Dégradé sans nom 46"/><linearGradient xlink:href="#Dégradé_sans_nom_46" id="Dégradé_sans_nom_46-3" x1="413.24" x2="466.33" y1="204.78" y2="257.86" data-name="Dégradé sans nom 46"/><linearGradient xlink:href="#Dégradé_sans_nom_46" id="Dégradé_sans_nom_46-4" x1="459.49" x2="526.82" y1="221.2" y2="288.53" data-name="Dégradé sans nom 46"/><linearGradient xlink:href="#Dégradé_sans_nom_46" id="Dégradé_sans_nom_46-5" x1="510.59" x2="609.64" y1="237.55" y2="336.6" data-name="Dégradé sans nom 46"/><linearGradient xlink:href="#Dégradé_sans_nom_46" id="Dégradé_sans_nom_46-6" x1="573.51" x2="626.32" y1="280.54" y2="333.35" data-name="Dégradé sans nom 46"/><linearGradient xlink:href="#Dégradé_sans_nom_11" id="Dégradé_sans_nom_11-3" x1="-2959.98" x2="-2935.04" y1="5510.43" y2="5535.37" data-name="Dégradé sans nom 11" gradientTransform="rotate(-35.72 -9533.097 -2499.96)"/><linearGradient xlink:href="#Dégradé_sans_nom_11" id="Dégradé_sans_nom_11-4" x1="70.28" x2="95.23" y1="5369.69" y2="5394.63" data-name="Dégradé sans nom 11" gradientTransform="rotate(2.85 104282.06 11332.88)"/><linearGradient xlink:href="#Dégradé_sans_nom_11" id="Dégradé_sans_nom_11-5" x1="88.71" x2="113.66" y1="5392.62" y2="5417.57" data-name="Dégradé sans nom 11" gradientTransform="scale(1 -1) rotate(74.72 3918.097 2865.532)"/><radialGradient id="Dégradé_sans_nom_17" cx="432.27" cy="540.68" r="128.75" data-name="Dégradé sans nom 17" fx="432.27" fy="540.68" gradientTransform="rotate(179.99 509.39 239.574) scale(1.45 -.11)" gradientUnits="userSpaceOnUse"><stop offset=".4" stop-color="#353544" stop-opacity=".5"/><stop offset="1" stop-color="#353544" stop-opacity="0"/></radialGradient><style>.cls-4{fill:#353544}.cls-18{fill:#fff;opacity:.5}</style></defs><path d="M610.17 274.3c-.69-.32-1.46-.48-2.29-.48-6.81 0-16.65 10.15-22.9 23.61-3.65 7.86-5.71 15.86-5.8 22.52-.08 6.06 1.52 10.3 4.41 11.63.69.32 1.46.48 2.29.48 6.81 0 16.65-10.15 22.89-23.6 7.95-17.14 7.14-31.5 1.4-34.17Z" style="fill:#b0b0bf"/><path d="M410.55 226.38c-1.46 1.35-2.73 1.79-3.75 1.79-.59 0-1.09-.14-1.51-.34-.33-.15-.66-.38-.97-.69-7.24 19.59-24.26 32.67-42.7 30.93-22.9-2.16-39.29-26.22-36.69-53.76 2.61-27.61 23.22-48.18 46.11-46.02 22.37 2.11 38.61 25.25 36.81 52.15 2.5-3.86 5.09-5.37 7.49-4.26 1.15.53 2.41 1.85 2.27 4.96l27.34 9.93c.26-1.78.47-3.57.64-5.37 1.63-17.25-.91-33.97-6.81-49.11-.97-2.47-2.03-4.89-3.17-7.28l4.61-48.84c4.97-4.08 9.15-14.4 10.32-26.83C452.1 67.13 447 60.78 440 60.12c-7.01-.66-13.2 4.62-14.76 21.13-1.17 12.44 1.06 23.43 5.24 28.38l-3.31 35.11c-17.41-25.29-45.45-42.99-78.44-46.1-32.12-3.03-62.22 8.4-83.94 28.94l3.4-36.01c5.81-4.18 10.65-14.95 11.87-27.88 1.62-17.17-4.44-24.15-12.53-24.92-8.17-.77-15.35 4.96-16.97 22.13-1.22 12.94 1.44 24.33 6.3 29.52l-4.87 51.64c-1.55 2.1-3.03 4.26-4.42 6.48-8.63 13.76-14.25 29.72-15.88 46.96-5.57 59 37.79 111.41 96.87 116.98 9.38.89 18.6.53 27.49-.92 6.39-6.85 15.89-14.46 28.76-23.12 4.23-2.84 8.51-5.74 12.78-8.63 13.99-9.47 25.98-17.51 35.97-23.85 2.23-4.18 4.18-8.54 5.85-13.04l-28.82-16.56Z" style="fill:url(#Dégradé_sans_nom_11)"/><path d="M410.55 226.38c-1.46 1.35-2.73 1.79-3.75 1.79-.59 0-1.09-.14-1.51-.34-1.17-.54-2.49-1.94-2.09-5.49.25-2.21 1.11-4.96 2.51-7.97 3.12-6.71 6.54-9.62 9.63-8.19 1.15.53 2.41 1.85 2.27 4.96l3.43 1.24c.3-3.66.35-7.03.15-10.06-11.14-8.49-29.07-2.8-29.07-2.8-.84 3.21-1.47 6.85-1.86 10.92-.78 8.25.01 15.31 1.69 20.62 0 0 12.92-4.37 23.89 1.88.45-.86.87-1.8 1.28-2.78l-6.58-3.78Z" class="cls-4"/><ellipse cx="389.96" cy="540.68" rx="190.3" ry="15.89" style="fill:url(#Dégradé_sans_nom_17)"/><path d="M481.51 252.35c-1.78-1.35-5.23-.65-9.81 1.83-4.31 12.02-18.04 30.73-35.19 48.66-.07 1.12-.27 2.24-.59 3.33l-16.91 55.72c8.49-6.04 19.75-19.67 34.54-41.52 24.73-36.54 32.14-64.86 27.96-68.03Z" style="fill:url(#Dégradé_sans_nom_26)"/><ellipse cx="414.46" cy="216.09" class="cls-18" rx="2.86" ry="3.58" transform="rotate(-84.61 414.448 216.093)"/><path d="M349.53 144.67s-17.22-9.27-40.66 14.12c0 0 15.83-23.78 26.67-24.42 10.11-.6 13.99 10.3 13.99 10.3ZM398.8 151.35s13.4-5.52 26.27 18.41c0 0-7.49-23.13-14.96-25.31-6.97-2.03-11.31 6.9-11.31 6.9Z" class="cls-4"/><path d="M584.77 314.05c-.36-10.25 5.89-24.57 13.96-31.98 4.52-4.15 8.64-5.25 11.46-3.61 3.25 1.88.83 11.49-3.99 15.91l-.47.43c-1.83 1.68-3.51 1.93-4.61.95-1.16-1.04-3.5-1.22-8.19 3.09-5.55 5.1-8.16 15.21-8.16 15.21Z" style="fill:#f4f4f6"/><path d="M352.87 339.53s14.11 17.22 52.96-13.66 69.54-74.53 62.48-81.49c-5.33-5.26-45.13 22.85-81.41 47.23-37.27 25.05-41.79 38.67-34.03 47.91Z" style="fill:url(#Dégradé_sans_nom_46)"/><path d="M302.23 187.8s29.74-5.4 43.29 19.58c2.27 4.18-.98 9.15-5.7 8.5-6.43-.88-15.29-1.16-24.36 1.44 0 0 5.32-9.3 13.58-11.94 0 0-2.83-13.93-26.81-17.58Z" class="cls-4"/><path d="m347.51 264.67 29.41 1.28s-2.61 20.74-12.71 20.77c-15.58.04-16.7-22.04-16.7-22.04Z" style="fill:#5b5a72"/><path d="M408.2 328.84c-13.53 10.75-25.67 17.03-36.19 18.76l2.24 50.02c.23 5.4-4.58 5.95-5.64.64l-10.11-51.22c-5.53-1.64-8.18-4.64-8.53-5.07-3.27-3.9-4.59-8.27-3.93-13 .18-1.3.52-2.63 1.02-3.99l-97.57-12.83c-8.35-1.5-14.41 7.75-9.64 14.78L352.64 493.9c6.44 9.59 19.93 8.06 23.14-2.63l55.58-183.18c-7.38 7.35-15.24 14.45-23.16 20.74Z" style="fill:url(#Dégradé_sans_nom_11-2)"/><path d="M407.1 211.67c2.7-4.73 5.56-6.67 8.18-5.5-.28-2.57-2.29-4.67-4.92-4.91-3.01-.28-5.69 1.98-5.98 5.05-.21 2.25.91 4.31 2.71 5.36Z" class="cls-18"/><path d="M407.22 224.47a.916.916 0 0 1-.45-.94c1.52-9.56 6.16-13.39 6.35-13.54.25-.2.59-.25.89-.15l1.64.6c-.04-1.06-.31-2.07-1.15-2.47-1.85-.86-4.55 1.91-7.02 7.23-1.29 2.77-2.12 5.38-2.34 7.36-.15 1.32-.1 3 .96 3.49.84.39 1.79-.05 2.63-.71l-1.51-.87Z" style="fill:url(#Dégradé_sans_nom_46-2)"/><path d="m459.9 228.46-45.98-16.7c-1.03 1.05-4 4.57-5.23 11.44l40.59 23.33c.88-.49 1.73-.94 2.56-1.37 1.87-7.3 5.14-12.87 8.06-16.7Z" style="fill:url(#Dégradé_sans_nom_46-3)"/><path d="m466.94 264.06 32.68 17.18c2.42-18.28 11.01-31.02 17.24-38.08l-45.74-18.54a6.156 6.156 0 0 0-6.81 1.48c-2.97 3.11-7.65 9.11-10.25 17.93 5.36-2.66 9.46-4.09 12.25-4.09 2.41 0 3.87.94 4.67 1.73 1.07 1.06 2.31 3.02 2.13 6.4-.21 4-2.46 9.54-6.17 15.99Z" style="fill:url(#Dégradé_sans_nom_46-4)"/><path d="M566.66 322.88c-.37-9.28 2.12-20.18 7.01-30.71 6.04-13.01 14.78-23.26 23.44-28.21l-67.29-23.72c-3.26-1.39-7.03-.65-9.44 1.82-6.27 6.43-17.11 20.41-19.23 41.76-.35 3.47 1.52 6.85 4.65 8.41l61.46 36.02c-.31-1.68-.51-3.47-.58-5.38Z" style="fill:url(#Dégradé_sans_nom_46-5)"/><path d="M612.89 263.64c-10.89-5.05-27.71 8.07-37.57 29.3s-9.01 42.54 1.88 47.6c10.9 5.06 27.71-8.06 37.56-29.29 9.85-21.23 9.02-42.55-1.88-47.6Zm2.61 30.39c-.09.48-.2.96-.31 1.45-.55 2.43-1.28 4.95-2.2 7.52-.73 2.06-1.59 4.14-2.56 6.23-.23.49-.46.98-.7 1.46-.08.16-.16.31-.24.47-.16.32-.32.64-.49.96-.09.18-.19.36-.29.54-.15.29-.31.58-.46.86-.1.18-.2.37-.3.55-.15.28-.31.55-.47.83-.1.18-.21.36-.31.54-.16.28-.33.55-.49.82-.1.16-.2.33-.3.49-.18.3-.37.59-.55.88-.08.13-.17.26-.25.39-.27.42-.54.83-.82 1.23l-.08.11c-.25.37-.5.73-.76 1.08-.09.13-.18.25-.27.38l-.57.78c-.11.14-.22.28-.32.42-.18.23-.35.46-.53.68-.11.15-.23.29-.34.43-.18.22-.35.43-.53.64-.11.14-.23.28-.34.41-.18.22-.37.43-.55.64-.11.12-.21.25-.32.37l-.63.69c-.08.09-.16.18-.24.26-.29.31-.59.61-.88.91-.04.04-.08.07-.11.11-.26.25-.51.5-.77.74l-.3.27c-.2.18-.39.36-.59.53-.11.1-.23.2-.34.29-.18.16-.37.31-.55.46-.12.1-.23.19-.35.28l-.54.42c-.11.09-.23.17-.34.26-.19.14-.37.27-.56.4-.11.07-.21.15-.32.22-.21.14-.43.28-.64.41-.08.05-.16.1-.23.15-.29.18-.58.35-.86.5-.06.03-.11.06-.17.09-.23.12-.46.24-.69.35-.1.05-.2.09-.3.14-.18.08-.37.17-.55.24-.11.05-.22.09-.33.13-.17.07-.34.13-.51.19-.11.04-.22.08-.33.11l-.5.15c-.11.03-.22.06-.32.09-.17.04-.34.08-.51.11-.1.02-.2.04-.29.06-.2.03-.39.06-.58.08-.07 0-.13.02-.2.02-.25.02-.5.03-.74.03h-.02c-.15 0-.3-.01-.45-.02-.11 0-.23 0-.34-.02-.16-.02-.31-.05-.47-.07-.1-.02-.21-.03-.31-.05a9.67 9.67 0 0 1-.51-.14 5.696 5.696 0 0 1-.96-.36c-.23-.11-.46-.23-.68-.36-.66-.4-1.25-.91-1.77-1.52-1.04-1.22-1.82-2.84-2.32-4.77-.58-2.25-.81-4.92-.66-7.89.02-.48.06-.97.1-1.46.07-.84.17-1.69.29-2.57.07-.46.14-.92.22-1.39.14-.84.31-1.69.5-2.56l.15-.66c.99-4.27 2.55-8.82 4.68-13.41.23-.49.46-.98.7-1.46.08-.16.16-.31.24-.47.16-.32.32-.64.49-.96.09-.18.19-.36.28-.54.15-.29.31-.58.46-.87.1-.18.2-.37.3-.55.15-.28.31-.55.47-.83.1-.18.21-.36.31-.54.16-.28.33-.55.49-.82.1-.16.2-.33.3-.49.19-.3.37-.6.56-.89.08-.13.16-.25.24-.38.27-.42.54-.83.82-1.24.02-.02.03-.05.05-.07.26-.38.52-.75.78-1.12.09-.13.19-.26.29-.39.19-.26.37-.51.56-.76.11-.15.22-.29.33-.43.18-.23.35-.46.53-.68.11-.15.23-.29.34-.43.18-.22.35-.43.53-.64.11-.14.23-.28.34-.41.18-.21.36-.42.55-.63.11-.13.22-.25.33-.37.21-.23.41-.45.62-.67.09-.09.17-.19.26-.28.29-.31.59-.61.88-.9l.12-.12c.25-.25.51-.49.76-.73.1-.09.2-.19.3-.28.19-.18.39-.35.58-.52.11-.1.23-.2.34-.3.18-.16.36-.31.54-.46.12-.1.24-.19.35-.29l.54-.42c.12-.09.23-.18.35-.26.18-.14.37-.26.55-.39.11-.08.22-.15.33-.23.21-.14.42-.27.63-.41.08-.05.16-.11.24-.16.29-.18.58-.34.86-.5.06-.03.11-.06.17-.09.23-.12.46-.24.69-.35.1-.05.2-.09.3-.14.18-.09.37-.17.55-.24.11-.05.22-.09.33-.13.17-.07.34-.13.51-.19.11-.04.22-.08.33-.11l.5-.15c.11-.03.22-.06.32-.09.17-.04.34-.08.51-.11.1-.02.2-.04.29-.06.19-.03.39-.06.58-.08.07 0 .14-.02.2-.02.25-.02.5-.03.74-.03h.02c.15 0 .31.01.46.02.11 0 .23 0 .34.02.16.02.32.05.47.07.1.02.2.03.3.05.18.04.35.09.52.14.08.02.16.04.23.06.25.08.49.18.72.29 5.15 2.39 6.65 10.88 4.56 21.4Z" style="fill:url(#Dégradé_sans_nom_46-6)"/><path d="m479.17 181.84 36.15-25.99" style="stroke:url(#Dégradé_sans_nom_11-3);fill:none;stroke-linecap:round;stroke-linejoin:round;stroke-width:3.8px"/><path d="m484.99 207.47 44.46 2.21" style="fill:none;stroke-linecap:round;stroke-linejoin:round;stroke-width:3.8px;stroke:url(#Dégradé_sans_nom_11-4)"/><path d="m456.63 168.34 11.74-42.94" style="stroke:url(#Dégradé_sans_nom_11-5);fill:none;stroke-linecap:round;stroke-linejoin:round;stroke-width:3.8px"/></svg>