<svg xmlns="http://www.w3.org/2000/svg" xmlns:xlink="http://www.w3.org/1999/xlink" id="Calque_1" data-name="Calque 1" viewBox="0 0 841.89 595.28"><defs><linearGradient id="Dégradé_sans_nom_11" x1="353.34" x2="503.85" y1="86.28" y2="236.79" data-name="Dégradé sans nom 11" gradientTransform="rotate(-34.64 443.335 276.883)" gradientUnits="userSpaceOnUse"><stop offset=".1" stop-color="#5b5a72"/><stop offset=".5" stop-color="#b0b0bf"/><stop offset=".96" stop-color="#f4f4f6"/></linearGradient><linearGradient xlink:href="#Dégradé_sans_nom_11" id="Dégradé_sans_nom_11-2" x1="350.68" x2="501.19" y1="88.94" y2="239.45" data-name="Dégradé sans nom 11"/><linearGradient xlink:href="#Dégradé_sans_nom_11" id="Dégradé_sans_nom_11-3" x1="417.69" x2="568.21" y1="21.92" y2="172.44" data-name="Dégradé sans nom 11"/><linearGradient xlink:href="#Dégradé_sans_nom_11" id="Dégradé_sans_nom_11-4" x1="239.77" x2="701.82" y1="357.83" y2="357.83" data-name="Dégradé sans nom 11"/><linearGradient xlink:href="#Dégradé_sans_nom_11" id="Dégradé_sans_nom_11-5" x1="239.77" x2="701.82" y1="361.44" y2="361.44" data-name="Dégradé sans nom 11"/><linearGradient xlink:href="#Dégradé_sans_nom_11" id="Dégradé_sans_nom_11-6" x1="239.77" x2="701.82" y1="343.25" y2="343.25" data-name="Dégradé sans nom 11"/><linearGradient id="Dégradé_sans_nom_26" x1="97.32" x2="256.29" y1="368.46" y2="485.54" data-name="Dégradé sans nom 26" gradientUnits="userSpaceOnUse"><stop offset="0" stop-color="#b0b0bf"/><stop offset="1" stop-color="#f4f4f6"/></linearGradient><linearGradient xlink:href="#Dégradé_sans_nom_11" id="Dégradé_sans_nom_11-7" x1="490.93" x2="518.49" y1="365.79" y2="393.35" data-name="Dégradé sans nom 11"/><linearGradient xlink:href="#Dégradé_sans_nom_11" id="Dégradé_sans_nom_11-8" x1="239.77" x2="701.82" y1="310.29" y2="310.29" data-name="Dégradé sans nom 11"/><linearGradient xlink:href="#Dégradé_sans_nom_11" id="Dégradé_sans_nom_11-9" x1="239.77" x2="701.82" y1="322.76" y2="322.76" data-name="Dégradé sans nom 11"/><linearGradient xlink:href="#Dégradé_sans_nom_11" id="Dégradé_sans_nom_11-10" x1="239.77" x2="701.82" y1="292.44" y2="292.44" data-name="Dégradé sans nom 11"/><linearGradient xlink:href="#Dégradé_sans_nom_26" id="Dégradé_sans_nom_26-2" x1="80.54" x2="246.93" y1="382.76" y2="505.3" data-name="Dégradé sans nom 26"/><linearGradient id="Dégradé_sans_nom_46" x1="258.8" x2="327.36" y1="322.48" y2="391.04" data-name="Dégradé sans nom 46" gradientTransform="rotate(72.47 368.147 391.775)" gradientUnits="userSpaceOnUse"><stop offset="0" stop-color="#5b5a72"/><stop offset="1" stop-color="#b0b0bf"/></linearGradient><linearGradient xlink:href="#Dégradé_sans_nom_11" id="Dégradé_sans_nom_11-11" x1="422.83" x2="528.75" y1="239.54" y2="345.47" data-name="Dégradé sans nom 11"/><linearGradient xlink:href="#Dégradé_sans_nom_11" id="Dégradé_sans_nom_11-12" x1="422.83" x2="528.75" y1="239.54" y2="345.47" data-name="Dégradé sans nom 11"/><linearGradient xlink:href="#Dégradé_sans_nom_26" id="Dégradé_sans_nom_26-3" x1="496.25" x2="549.45" y1="236.59" y2="183.4" data-name="Dégradé sans nom 26"/><linearGradient xlink:href="#Dégradé_sans_nom_26" id="Dégradé_sans_nom_26-4" x1="108.63" x2="394.41" y1="223.91" y2="434.38" data-name="Dégradé sans nom 26"/><linearGradient xlink:href="#Dégradé_sans_nom_11" id="Dégradé_sans_nom_11-13" x1="-720.68" x2="-702" y1="1631.57" y2="1650.26" data-name="Dégradé sans nom 11" gradientTransform="rotate(113.17 188.712 1233.706)"/><linearGradient xlink:href="#Dégradé_sans_nom_11" id="Dégradé_sans_nom_11-14" x1="916.88" x2="927.31" y1="-677.35" y2="-666.92" data-name="Dégradé sans nom 11" gradientTransform="rotate(76.75 25.744 -602.83)"/><linearGradient xlink:href="#Dégradé_sans_nom_11" id="Dégradé_sans_nom_11-15" x1="-1053.38" x2="-1040.79" y1="2532.89" y2="2545.48" data-name="Dégradé sans nom 11" gradientTransform="rotate(125.9 191.77 1696.866)"/><linearGradient xlink:href="#Dégradé_sans_nom_11" id="Dégradé_sans_nom_11-16" x1="-841.61" x2="-829.02" y1="2520.49" y2="2533.09" data-name="Dégradé sans nom 11" gradientTransform="rotate(125.9 191.77 1696.866)"/><linearGradient xlink:href="#Dégradé_sans_nom_11" id="Dégradé_sans_nom_11-17" x1="1185.2" x2="1199.61" y1="-637.14" y2="-622.72" data-name="Dégradé sans nom 11" gradientTransform="rotate(96 221.645 -671.915)"/><linearGradient xlink:href="#Dégradé_sans_nom_11" id="Dégradé_sans_nom_11-18" x1="904.62" x2="912.37" y1="-588.58" y2="-580.83" data-name="Dégradé sans nom 11" gradientTransform="rotate(76.75 25.744 -602.83)"/><linearGradient xlink:href="#Dégradé_sans_nom_11" id="Dégradé_sans_nom_11-19" x1="927.69" x2="935.44" y1="-428.55" y2="-420.79" data-name="Dégradé sans nom 11" gradientTransform="rotate(98.69 175.009 -431.878)"/><linearGradient xlink:href="#Dégradé_sans_nom_11" id="Dégradé_sans_nom_11-20" x1="-763.6" x2="-755.85" y1="1420.38" y2="1428.13" data-name="Dégradé sans nom 11" gradientTransform="rotate(109.14 111.704 1119.116)"/><linearGradient xlink:href="#Dégradé_sans_nom_11" id="Dégradé_sans_nom_11-21" x1="4206.96" x2="4224.62" y1="-1341.79" y2="-1324.13" data-name="Dégradé sans nom 11" gradientTransform="rotate(32.61 -564.324 -7275.894)"/><linearGradient xlink:href="#Dégradé_sans_nom_11" id="Dégradé_sans_nom_11-22" x1="4142.9" x2="4153.85" y1="-1267.49" y2="-1256.55" data-name="Dégradé sans nom 11" gradientTransform="rotate(32.61 -564.324 -7275.894)"/><style>.cls-1{fill:#5b5a72}.cls-2{fill:#353544}</style></defs><path d="M442.47 166.53c-11.98-17.34-33.33-23.3-47.67-13.4-14.38 9.94-16.32 31.98-4.34 49.33 11.95 17.3 33.26 23.28 47.64 13.35 14.34-9.91 16.32-31.98 4.37-49.28Zm-89.82-37.21c26.28-18.15 59.4-18.78 85.63-4.48 10.83 5.92 20.49 14.42 27.97 25.25 25.6 37.06 16.3 87.92-20.81 113.56s-87.97 16.34-113.57-20.73c-7.48-10.83-12.01-22.87-13.72-35.1-4.09-29.6 8.21-60.36 34.49-78.51Z" style="fill:url(#Dégradé_sans_nom_11)"/><path d="M384.83 216.3c.37 1.71-1.9 2.7-2.88 1.25-5.05-7.47-9.19-17.6-.92-24.12 8.53-6.73 18.09-.01 24.48 6.62 1.25 1.29-.25 3.31-1.88 2.55-4.45-2.05-9.86-2.89-14.73.95-4.53 3.58-5.01 8.39-4.06 12.74ZM437.47 176.35c.31 1.45-1.57 2.16-2.38.89-4.17-6.55-7.58-15.28-.77-20.3 7.03-5.18 14.91.98 20.19 6.9 1.03 1.15-.21 2.76-1.55 2.04-3.67-1.96-8.13-2.97-12.14-.01-3.74 2.75-4.13 6.77-3.35 10.47Z" class="cls-2"/><path d="m295.16 169.46 46.22 66.91c-7.48-10.83-12.01-22.87-13.72-35.1l-25.34-36.68c1.34-5.28-1.11-13.9-6.72-22.03-7.45-10.79-14.39-11.89-19.47-8.38-5.13 3.55-6.51 10.39.94 21.18 5.61 8.13 12.73 13.45 18.1 14.1Z" style="fill:url(#Dégradé_sans_nom_11-2)"/><path d="M363.85 146.3s-14.55 3.02-16.76 28.09c0 0-2.41-21.58 3.58-27.25 5.59-5.29 13.18-.85 13.18-.85ZM395.79 126.1s5.1-9.77 24.29-2.13c0 0-15.67-9.8-21.08-7.42-5.05 2.22-3.21 9.54-3.21 9.54Z" class="cls-2"/><path d="m405.61 95.75 24.74 35.82c9.94 6.02 18.96 14.37 26.15 24.79l-44.81-64.87c.9-4.8-1.71-12.85-7.11-20.66-7.16-10.37-13.23-11.57-17.63-8.53-4.4 3.04-5.42 9.14 1.74 19.51 5.4 7.81 12.07 13.12 16.92 13.95Z" style="fill:url(#Dégradé_sans_nom_11-3)"/><path d="m432.06 227.91 18.83-14.71s10.71 14.49 3.59 20.04c-9.91 7.74-22.43-5.33-22.43-5.33Z" class="cls-1"/><path d="M825.64 292.99 308.19 415.9l-27.85 6.61c-4.74 1.13-7.99-4.65-4.57-8.12l24.48-24.82 324.34-62.03 201.05-34.55Z" style="fill:url(#Dégradé_sans_nom_11-4)"/><path d="m311.04 378.49 136.49-22.82-14.29-11.28-93.66 11.96c-4.53.58-8.82 2.67-12.07 5.88l-16.46 16.26Z" style="fill:url(#Dégradé_sans_nom_11-5)"/><path d="m431.95 343.38-.32-.26.32.26z" style="fill:url(#Dégradé_sans_nom_11-6)"/><path d="m440.23 359.86-131.74 22.03-4.27 3.99 136.01-26.02z" class="cls-1"/><path d="m306.14 419.36-25.13 5.97c-.62.15-1.24.22-1.86.22-3.08 0-5.86-1.88-7.08-4.79-1.22-2.91-.59-6.13 1.64-8.39l24.48-24.82c.41-.42.94-.7 1.51-.81l1.67-.32c-.18-.96.12-1.97.86-2.66l3.04-2.83c-.07-.45.08-.93.42-1.26l9.52-9.4L22.29 471.88 307 422.2l-.82-2.65c-.02-.06-.02-.13-.04-.19Z" style="fill:url(#Dégradé_sans_nom_26)"/><path d="m480.44 377.96 20.72 16.35c6.88 5.46 16.29 1.24 16.15-7.25l-.25-17.81-36.62 8.7Z" style="fill:url(#Dégradé_sans_nom_11-7)"/><path d="m624.59 327.54-.28.06 1.1-.19 200.07-34.38.16-.04-201.05 34.55z" style="fill:url(#Dégradé_sans_nom_11-8)"/><path d="M624.05 324.71h.05l138.84-23.86-138.66 17.69-104.85 13.39.18 12.77 104.44-19.98Z" style="fill:url(#Dégradé_sans_nom_11-9)"/><path d="M828.48 292.48v.04l.88-.15-.88.11Z" style="fill:url(#Dégradé_sans_nom_11-10)"/><path d="m309.05 418.67 13.16 42.67L795 303.24 309.05 418.67z" class="cls-1"/><path d="M308.6 427.39 80.26 505.88l235.31-55.87-6.97-22.62z" style="fill:url(#Dégradé_sans_nom_26-2)"/><path d="M431.55 317.27s1.88-16.81-35.55-21.56c-37.42-4.75-72.07 2.23-72.1 9.77-.03 5.69 31 11.92 63.52 18.71 33.41 6.98 43.22 2.21 44.13-6.92Z" style="fill:url(#Dégradé_sans_nom_46)"/><path d="M515.24 239.18c-.12-6.21-6.82-10.3-10.73-6.52l-29.3 34.41 19.37 52.52c1.42 3.86-1.94 5.37-3.94 1.77l-27.04-49.08-79.11 14.22c-3.04.4-5.13 2.44-5.95 4.9 5.98.22 11.95.69 17.82 1.43 39.79 5.05 38.14 23.95 38.05 24.71-.7 7.05-5.66 11.22-14.75 12.46l34.46 27.19 62.59-11.97-1.49-106.05Z" style="fill:url(#Dégradé_sans_nom_11-11)"/><path d="M515.24 239.18c-.12-6.21-6.82-10.3-10.73-6.52l-29.3 34.41 19.37 52.52c1.42 3.86-1.94 5.37-3.94 1.77l-27.04-49.08-79.11 14.22c-3.04.4-5.13 2.44-5.95 4.9 5.98.22 11.95.69 17.82 1.43 39.79 5.05 38.14 23.95 38.05 24.71-.7 7.05-5.66 11.22-14.75 12.46l34.46 27.19 62.59-11.97-1.49-106.05Z" style="fill:url(#Dégradé_sans_nom_11-12)"/><path d="M538.19 166.24c-6.1-2.7-25.59 22.31-38.3 58.24-1.89 5.35-3.18 9.92-4.02 13.86l6.44-7.56c.06-.07.12-.14.19-.2 1.54-1.48 3.46-2.27 5.55-2.27 5.36 0 9.98 4.95 10.09 10.83l.11 7.83c3.37-6.43 7.04-14.9 11.09-25.54 11.93-31.34 12.48-53.59 8.85-55.2Z" style="fill:url(#Dégradé_sans_nom_26-3)"/><path d="M416.09 330.34c-.87.04-1.76.07-2.69.07-6.94 0-15.63-1.11-26.57-3.4l-3.87-.81c-8.93-1.86-16.72-3.51-23.49-5.01l-195.8 63.26 252.91-53.65" style="fill:url(#Dégradé_sans_nom_26-4)"/><path d="m178.83 251.9-6.95.38-3.51 5.74c-.43.7-1.46.6-1.76-.16l-2.42-6.28-6.54-1.56c-.79-.19-1.03-1.21-.39-1.72l5.22-4.24-.54-6.71c-.06-.81.83-1.35 1.52-.9l5.65 3.65 6.21-2.58c.75-.31 1.54.37 1.33 1.16l-1.73 6.5 4.53 5.29c.47.55.11 1.39-.61 1.43Z" style="fill:url(#Dégradé_sans_nom_11-13)"/><path d="m305.3 252.86-3 2.47.33 3.74c.04.45-.46.76-.84.51l-3.17-2.02-3.46 1.47a.55.55 0 0 1-.75-.64l.94-3.64-2.46-2.84c-.3-.34-.07-.88.38-.91l3.75-.23 1.94-3.22c.23-.39.82-.34.98.08l1.38 3.49 3.79.88c.39.09.51.59.2.85Z" style="fill:url(#Dégradé_sans_nom_11-14)"/><path d="m242.07 204.68-4.63-.79-3.16 3.25a.663.663 0 0 1-1.13-.37l-.66-4.49-4.07-2a.665.665 0 0 1 0-1.19l4.06-2.01.64-4.49c.08-.54.75-.76 1.13-.37l3.17 3.24 4.47-.77c.54-.09.96.47.7.96l-2.1 4.02 2.19 4.15c.23.43-.14.93-.61.85Z" style="fill:url(#Dégradé_sans_nom_11-15)"/><path d="m127.92 383.48-4.63-.79-3.16 3.25a.663.663 0 0 1-1.13-.37l-.66-4.49-4.07-2a.665.665 0 0 1 0-1.19l4.06-2.01.64-4.49c.08-.54.75-.76 1.13-.37l3.17 3.24 4.47-.77c.54-.09.96.47.7.96l-2.1 4.02 2.19 4.15c.23.43-.14.93-.61.85Z" style="fill:url(#Dégradé_sans_nom_11-16)"/><path d="m87.43 291.02-5.04 1.86-1.28 5.03c-.16.61-.94.78-1.33.28l-3.21-4.08-5.18.34a.76.76 0 0 1-.68-1.18l2.88-4.32-1.92-4.82a.76.76 0 0 1 .91-1.01l5 1.41 3.99-3.32c.48-.4 1.22-.07 1.24.55l.21 5.19 4.54 2.87c.47.3.39 1-.13 1.19Z" style="fill:url(#Dégradé_sans_nom_11-17)"/><path d="m215.38 259.88-2.23 1.84.24 2.78a.41.41 0 0 1-.63.38l-2.36-1.5-2.57 1.09a.414.414 0 0 1-.56-.48l.7-2.7-1.83-2.11a.414.414 0 0 1 .28-.68l2.79-.17 1.44-2.39c.17-.29.61-.25.73.06l1.02 2.6 2.82.65c.29.07.38.44.15.63Z" style="fill:url(#Dégradé_sans_nom_11-18)"/><path d="m58.41 316.13-2.76.87-.81 2.67c-.1.32-.53.39-.72.12l-1.62-2.27-2.79.05c-.34 0-.54-.38-.34-.65l1.66-2.25-.91-2.64c-.11-.32.19-.63.52-.52l2.65.88 2.23-1.68c.27-.2.66 0 .65.33l-.02 2.79 2.37 1.66c.24.17.19.55-.1.64Z" style="fill:url(#Dégradé_sans_nom_11-19)"/><path d="m113.58 197.96-2.87.36-1.28 2.48c-.16.3-.59.29-.73-.01l-1.19-2.53-2.75-.46c-.33-.06-.46-.47-.21-.7l2.04-1.91-.42-2.76a.41.41 0 0 1 .6-.42l2.44 1.35 2.5-1.25c.3-.15.65.11.58.44l-.53 2.74 2.03 2.06c.21.21.08.57-.21.61Z" style="fill:url(#Dégradé_sans_nom_11-20)"/><path d="m266.47 297.56-.73 6.54 4.81 4.16c.58.5.33 1.46-.42 1.61l-6.23 1.28-2.47 5.86c-.3.71-1.28.77-1.67.1l-3.15-5.53-6.34-.54c-.77-.07-1.13-.98-.61-1.55l4.28-4.7-1.44-6.19c-.18-.75.59-1.38 1.29-1.06l5.79 2.62 5.64-3.4c.58-.35 1.31.12 1.24.79Z" style="fill:url(#Dégradé_sans_nom_11-21)"/><path d="m168.78 324.35-.45 4.05 2.98 2.58c.36.31.21.9-.26 1l-3.86.8-1.53 3.63c-.19.44-.8.48-1.03.06l-1.95-3.42-3.93-.34a.575.575 0 0 1-.38-.96l2.65-2.91-.89-3.84c-.11-.47.36-.85.8-.66l3.59 1.62 3.49-2.11c.36-.22.81.07.77.49Z" style="fill:url(#Dégradé_sans_nom_11-22)"/></svg>