<svg xmlns="http://www.w3.org/2000/svg" xmlns:xlink="http://www.w3.org/1999/xlink" id="Calque_1" data-name="Calque 1" viewBox="0 0 841.89 595.28"><defs><linearGradient id="Dégradé_sans_nom_46" x1="432.9" x2="308.8" y1="372.47" y2="372.47" data-name="Dégradé sans nom 46" gradientUnits="userSpaceOnUse"><stop offset="0" stop-color="#5b5a72"/><stop offset="1" stop-color="#b0b0bf"/></linearGradient><linearGradient id="Dégradé_sans_nom_11" x1="351.26" x2="573.35" y1="35.78" y2="257.87" data-name="Dégradé sans nom 11" gradientUnits="userSpaceOnUse"><stop offset=".1" stop-color="#5b5a72"/><stop offset=".5" stop-color="#b0b0bf"/><stop offset=".96" stop-color="#f4f4f6"/></linearGradient><linearGradient xlink:href="#Dégradé_sans_nom_11" id="Dégradé_sans_nom_11-2" x1="402.85" x2="548.67" y1="283.09" y2="428.91" data-name="Dégradé sans nom 11"/><linearGradient id="Dégradé_sans_nom_26" x1="503.18" x2="396.69" y1="380.23" y2="273.73" data-name="Dégradé sans nom 26" gradientUnits="userSpaceOnUse"><stop offset="0" stop-color="#b0b0bf"/><stop offset="1" stop-color="#f4f4f6"/></linearGradient><linearGradient xlink:href="#Dégradé_sans_nom_46" id="Dégradé_sans_nom_46-2" x1="432.9" x2="308.8" y1="351.93" y2="351.93" data-name="Dégradé sans nom 46"/><radialGradient id="Dégradé_sans_nom_17" cx="26.05" cy="542.7" r="128.75" data-name="Dégradé sans nom 17" fx="26.05" fy="542.7" gradientTransform="matrix(1.36 .00047 -.00004 .11 381.39 481)" gradientUnits="userSpaceOnUse"><stop offset=".4" stop-color="#353544" stop-opacity=".5"/><stop offset="1" stop-color="#353544" stop-opacity="0"/></radialGradient><style>.cls-2,.cls-3{fill:#fff}.cls-5{fill:#fbabab}.cls-7{fill:#353544}.cls-3{opacity:.5}</style></defs><path d="M318.15 369.61c-4.39.3-8.91.34-13.35.34h-4.01c-4.88.02-9.9-.01-14.71-.35-.12.45-.27.88-.43 1.29 2.6 3.05 15.68 5.37 35.97 4.12-1.65-1.25-2.84-3.12-3.47-5.4Z" style="fill:url(#Dégradé_sans_nom_46)"/><path d="M328.75 330.2c-4.25 0-7.21 1.94-7.21 3.68s2.96 3.68 7.21 3.68 7.21-1.94 7.21-3.68-2.96-3.68-7.21-3.68ZM359.41 228.11l7.39-1.18c4.71-.74 6.72-6.4 3.55-9.95l-19.56-21.91c-3.18-3.55-9.02-2.19-10.3 2.4l-1.57 5.63-5.73 20.57c-1.17 4.23 2.42 8.25 6.75 7.56l19.46-3.1Z" class="cls-5"/><path d="M572.82 175.71c-2.99-17.06-9.87-32.52-19.56-45.56-1.57-2.1-3.21-4.14-4.92-6.11l-8.95-51.09c4.43-5.56 6.18-17.13 3.93-29.93-2.98-16.99-10.59-22.13-18.67-20.72-8.01 1.4-13.49 8.84-10.51 25.83 2.24 12.8 7.91 23.14 14.04 26.85l6.24 35.62c-23.28-18.75-54.19-27.76-85.97-22.19-32.63 5.72-59.18 25.59-74.54 52.18l-6.09-34.74c3.78-5.26 5.13-16.4 2.97-28.7-2.86-16.33-9.46-21.11-16.39-19.89-6.93 1.22-11.51 7.95-8.65 24.28 2.16 12.3 7.14 22.26 12.42 25.93l8.47 48.32c-.95 2.46-1.82 4.97-2.58 7.5-3.56 11.82-5.1 24.41-4.33 37.25l12.86 14.4a9.014 9.014 0 0 1 1.76 9.04c-1.13 3.15-3.78 5.35-7.08 5.87l-1.56.25c17.15 48.54 67.36 79.07 119.81 69.87 58.45-10.25 97.52-65.92 87.29-124.3Zm-124.58 72.67c-22.59 3.96-44.83-14.9-49.6-42.14-4.79-27.32 9.71-52.62 32.3-56.57 22.65-3.97 44.83 14.9 49.62 42.22 4.78 27.24-9.66 52.53-32.31 56.5Z" style="fill:url(#Dégradé_sans_nom_11)"/><ellipse cx="416.89" cy="542.7" rx="178.42" ry="15.89" style="fill:url(#Dégradé_sans_nom_17)"/><path d="M496.7 218.13c4.37-6.05 6.19-16.17 3.8-29.79-3.76-21.44-14.36-31.18-25.01-29.31-10.65 1.87-17.31 14.63-13.55 36.07 2.35 13.4 7.37 22.23 13.41 26.51 0 0 10.1-6.26 21.35-3.48Z" class="cls-7"/><ellipse cx="475.1" cy="183.9" class="cls-3" rx="4.55" ry="3.13" transform="rotate(-9.94 475.207 183.953)"/><ellipse cx="480.29" cy="173.24" class="cls-3" rx="6.95" ry="6.11" transform="rotate(-9.94 480.364 173.278)"/><path d="M413.54 230.23c3-5.5 4.46-15.13 2.37-27.06-3.44-19.63-12.05-28.74-20.43-27.27-8.39 1.47-13.38 12.96-9.94 32.59 2.18 12.46 6.44 20.68 11.41 24.64 0 0 7.58-5.41 16.59-2.91Z" class="cls-7"/><ellipse cx="395.7" cy="198.57" class="cls-3" rx="3.58" ry="2.86" transform="rotate(-9.94 395.784 198.596)"/><ellipse cx="399.57" cy="188.96" class="cls-3" rx="5.48" ry="5.59" transform="rotate(-9.94 399.633 188.967)"/><path d="M439.23 260.27s3.11 10.04 10.1 9.66c11.17-.6 11.43-13.44 11.43-13.44" style="fill:none;stroke:#5b5a72;stroke-linecap:round;stroke-linejoin:round;stroke-width:3.8px"/><path d="M451.29 134.38s16.43-10.61 41.65 10.85c0 0-17.67-22.45-28.52-22.22-10.13.21-13.13 11.38-13.13 11.38ZM402.7 144.94s-13.8-4.44-24.72 20.43c0 0 5.63-23.65 12.91-26.41 6.78-2.58 11.82 5.98 11.82 5.98Z" class="cls-7"/><path d="M279.87 273.36c0 8.43 9.96 9.62 22.25 9.62s22.25-1.19 22.25-9.62-9.96-15.26-22.25-15.26-22.25 6.83-22.25 15.26Z" class="cls-5"/><path d="m360.45 230.98-.57.09-19.46 3.1c-.48.08-.96.11-1.44.11-2.82 0-5.43-1.3-7.16-3.57a8.948 8.948 0 0 1-1.51-7.87l5.73-20.57.25-.89c-9.73-5.94-21.49-9.43-34.17-9.43s-24.44 3.48-34.18 9.43l.25.89 5.73 20.56a8.94 8.94 0 0 1-1.49 7.87c-1.72 2.27-4.34 3.58-7.17 3.58-.48 0-.96-.04-1.44-.11l-19.45-3.1-.56-.09a49.062 49.062 0 0 0-2.51 15.5c0 30.11 27.24 54.53 60.84 54.53 11.48 0 22.22-2.85 31.39-7.81 17.65-9.55 29.46-26.9 29.46-46.72 0-5.39-.89-10.59-2.51-15.51Zm-68.24 21.59c9.24-4.31 19.32-.2 19.75-.03.76.32 1.13 1.2.81 1.96-.24.58-.8.92-1.39.92-.19 0-.39-.04-.57-.11-.09-.04-9.31-3.77-17.33-.03a1.495 1.495 0 1 1-1.26-2.71Zm9.9 33.41c-8.83 0-25.25 0-25.25-12.62 0-10.24 11.09-18.26 25.25-18.26s25.25 8.02 25.25 18.26c0 12.62-16.43 12.62-25.25 12.62Z" class="cls-5"/><ellipse cx="326.46" cy="242.4" class="cls-7" rx="7.04" ry="12.33"/><ellipse cx="277.77" cy="242.4" class="cls-7" rx="7.04" ry="12.33"/><path d="M275.48 330.2c-4.25 0-7.21 1.94-7.21 3.68s2.96 3.68 7.21 3.68 7.21-1.94 7.21-3.68-2.96-3.68-7.21-3.68Z" class="cls-5"/><path d="m558.35 292.71-88.03 21.9c25.46 9.41 39.25 18.34 43.23 27.98 1.83 4.41 1.64 8.98-.54 13.53-1.93 4.15-9.1 11.17-23.8 11.17-9.95 0-22.02-3.13-35.89-9.32-.27-.12-.54-.25-.81-.37l-2.8 34.12c-.46 5.39-5.3 5.39-5.68 0l-2.7-39.47c-25.5-12.95-46.35-28.69-57.14-40.97-1.3.27-2.64.42-4 .42-.67 0-1.33-.04-1.99-.1l74.87 173.36c4.4 10.26 17.97 10.26 23.29 0l93.23-178.63c3.95-7.52-3.12-16.03-11.25-13.6Z" style="fill:url(#Dégradé_sans_nom_11-2)"/><path d="m244.83 228.11 19.45 3.1c4.34.69 7.93-3.33 6.75-7.56l-5.73-20.57-1.57-5.63c-1.28-4.58-7.12-5.95-10.28-2.4l-19.56 21.91c-3.17 3.55-1.16 9.21 3.54 9.95l7.41 1.18ZM272.56 349.39a7.81 7.81 0 0 0-2.28-.35c-1.01 0-1.94.22-2.77.67-2.52 1.35-3.81 4.59-3.44 8.66.21 2.36.97 4.81 2.19 7.07 2.13 3.97 5.41 6.95 8.77 7.96 1.87.56 3.62.45 5.05-.32 2.01-1.07 3.24-3.32 3.47-6.34.22-2.99-.57-6.33-2.22-9.4-2.13-3.97-5.41-6.94-8.77-7.96ZM336.72 349.71c-.83-.45-1.77-.68-2.77-.68-.72 0-1.48.12-2.26.35-3.37 1.01-6.66 3.98-8.8 7.96-1.65 3.08-2.44 6.42-2.22 9.42.24 3 1.48 5.24 3.48 6.32 1.43.77 3.16.88 5.03.32 3.37-1.01 6.65-3.98 8.8-7.96 1.24-2.29 2-4.74 2.19-7.07.36-4.07-.93-7.31-3.45-8.66Z" class="cls-5"/><path d="M335.9 295.28c-.32.18-.64.38-.96.56-9.88 5.34-21.23 8.17-32.81 8.17-12.4 0-23.97-3.21-33.77-8.74-5.18 4.97-16.83 18.97-14.39 42.49.9 8.62 3.4 14.73 7.06 19.07.06-4.47 1.89-8.05 5.07-9.76 2.15-1.16 4.68-1.35 7.34-.55 4.11 1.24 8.05 4.75 10.55 9.41 1.92 3.57 2.83 7.49 2.57 11.03 5.05.36 10.31.34 15.57.34s10.51.01 15.56-.33c-.26-3.56.65-7.48 2.57-11.05 2.51-4.66 6.46-8.18 10.58-9.41 2.65-.79 5.18-.6 7.31.56 3.19 1.71 5.02 5.29 5.08 9.76 3.66-4.33 6.16-10.44 7.06-19.07 2.43-23.5-9.2-37.5-14.39-42.48Zm-48.84 27.31-1.38 11.46v.01c-.15 3.65-4.57 6.49-10.2 6.49s-10.09-2.86-10.2-6.54v-.02l-1.69-21.29c-.07-.83.55-1.55 1.38-1.61.83-.05 1.55.55 1.61 1.38l1.34 16.89c1.85-1.33 4.53-2.16 7.56-2.16s5.87.88 7.73 2.28l.87-7.24c.1-.82.85-1.42 1.67-1.31.82.1 1.41.85 1.31 1.67Zm51.9 11.4v.02c-.11 3.68-4.55 6.54-10.2 6.54s-10.05-2.84-10.2-6.49v-.01l-1.38-11.46c-.1-.82.49-1.57 1.31-1.67.82-.1 1.57.49 1.67 1.31l.87 7.24c1.86-1.4 4.61-2.28 7.73-2.28s5.71.83 7.56 2.16l1.34-16.89c.07-.83.79-1.43 1.61-1.38.83.07 1.44.79 1.38 1.61l-1.69 21.29Z" class="cls-5"/><path d="M376.71 299.66c-.89-2.84-.73-5.3.48-7.33 2.06-3.43 6.62-3.43 8.12-3.43 2.59 0 5.93.46 9.87 1.28-.18-6.44-3.87-12.55-10.08-15.51-8.84-4.21-19.41-.46-23.62 8.38-4.21 8.84-.46 19.41 8.38 23.62 3.75 1.79 7.82 2.13 11.58 1.26-2.36-3.08-3.98-5.89-4.73-8.27Z" style="fill:#fdd46a"/><path d="M509.56 354.52s-9.37 20.19-54.7-.02c-45.33-20.21-79.52-51.71-74.42-60.22 3.85-6.42 43 7.75 84.21 22.32 42.34 14.97 50.11 27.03 44.9 37.91Z" style="fill:url(#Dégradé_sans_nom_26)"/><path d="m396.81 290.53 1.07.24c-.16-2.39-.82-4.72-1.9-6.85.77 2.13 1.18 4.4 1.19 6.69-.13-.03-.24-.05-.37-.08Z" style="fill:#ffdc23"/><path d="M382.06 330.08c-3.99.41-8.44 1.06-13.39 1.99-5.2.98-10.25 2.09-15.14 3.29-.06.9-.13 1.82-.22 2.75-1.03 9.9-4.08 17.2-9.34 22.33-.08.07-.51.43-1.24.95-.43 1.86-1.14 3.71-2.1 5.49-1.51 2.8-3.55 5.18-5.82 6.91 7.36-.89 15.38-2.2 23.96-4.03 15.11-3.22 27.15-6.37 36.3-9.56l-13.01-30.11Z" style="fill:url(#Dégradé_sans_nom_46-2)"/><path d="m376.7 293.34-.59 1.24c-.27.56-.47.93-.6 1.11-.14.18-.32.31-.54.38-.22.07-.45.04-.69-.07-.2-.09-.35-.24-.46-.43-.11-.19-.14-.41-.08-.65s.25-.69.57-1.36l.72-1.51-3.67-1.75-.3.62c-.7 1.47-1.08 2.63-1.14 3.47-.06.84.18 1.64.72 2.42s1.33 1.42 2.39 1.92c.85.4 1.68.62 2.49.64.39.01.75-.02 1.09-.09-.63-2.23-.6-4.22.09-5.93ZM377.82 286.18c.34-.67.57-1.08.68-1.24.11-.16.24-.26.4-.3.16-.04.36 0 .61.12.29.14.49.31.59.53.11.22.12.44.05.68s-.25.64-.52 1.22l-.68 1.44-1.12-.53-.81 1.69 1.12.53-.37.79-1.12-.53-.81 1.69 1.11.53c.08-.16.15-.31.24-.46 1.47-2.45 4.2-3.15 6.2-3.35.22-.51.39-.96.5-1.34.2-.65.22-1.32.07-2.03s-.5-1.37-1.05-1.99c-.54-.62-1.25-1.14-2.1-1.55-.85-.41-1.7-.62-2.54-.64-.84-.02-1.61.22-2.33.72s-1.43 1.52-2.17 3.05l-.25.52 3.67 1.75.61-1.29Z" class="cls-2"/><path d="M378.44 303.46c-2.16.16-4.39-.2-6.48-1.2-6.39-3.05-9.11-10.72-6.07-17.12 3.05-6.39 10.73-9.11 17.12-6.07a12.78 12.78 0 0 1 7.24 10.22c.66.09 1.33.19 2.04.32-.1-1.32-.36-2.63-.81-3.91-1.32-3.74-4.03-6.73-7.6-8.44-7.39-3.52-16.26-.37-19.78 7.01-3.52 7.39-.37 16.26 7.02 19.78 2.05.98 4.22 1.44 6.36 1.44.72 0 1.43-.05 2.13-.16-.43-.65-.81-1.28-1.15-1.89Z" class="cls-2"/><path d="M306.64 353.32h-9.05v-38.87h9.05z" class="cls-7"/><ellipse cx="310.34" cy="273.46" class="cls-7" rx="3.69" ry="5.54"/><ellipse cx="293.9" cy="273.46" class="cls-7" rx="3.69" ry="5.54"/></svg>