<svg xmlns="http://www.w3.org/2000/svg" xmlns:xlink="http://www.w3.org/1999/xlink" id="Calque_1" data-name="Calque 1" viewBox="0 0 841.89 595.28"><defs><linearGradient id="Dégradé_sans_nom_14" x1="560.82" x2="560.82" y1="331.36" y2="442.9" data-name="Dégradé sans nom 14" gradientUnits="userSpaceOnUse"><stop offset="0" stop-color="#b0b0bf"/><stop offset="1" stop-color="#f4f4f6"/></linearGradient><linearGradient xlink:href="#Dégradé_sans_nom_14" id="Dégradé_sans_nom_14-2" x1="538.59" x2="663.28" y1="351.05" y2="351.05" data-name="Dégradé sans nom 14"/><linearGradient id="Dégradé_sans_nom_12" x1="219.42" x2="320.23" y1="456.99" y2="356.18" data-name="Dégradé sans nom 12" gradientUnits="userSpaceOnUse"><stop offset="0" stop-color="#b0b0bf"/><stop offset="1" stop-color="#5b5a72"/></linearGradient><linearGradient xlink:href="#Dégradé_sans_nom_12" id="Dégradé_sans_nom_12-2" x1="168.61" x2="299.03" y1="351.05" y2="351.05" data-name="Dégradé sans nom 12"/><linearGradient id="Dégradé_sans_nom_13" x1="341.8" x2="506.55" y1="268.32" y2="433.07" data-name="Dégradé sans nom 13" gradientUnits="userSpaceOnUse"><stop offset=".1" stop-color="#5b5a72"/><stop offset=".5" stop-color="#b0b0bf"/><stop offset=".96" stop-color="#f4f4f6"/></linearGradient><linearGradient xlink:href="#Dégradé_sans_nom_13" id="Dégradé_sans_nom_13-2" x1="316.93" x2="515.66" y1="111.47" y2="310.2" data-name="Dégradé sans nom 13"/><linearGradient xlink:href="#Dégradé_sans_nom_13" id="Dégradé_sans_nom_13-3" x1="409.79" x2="606.9" y1="-4.96" y2="192.15" data-name="Dégradé sans nom 13"/><linearGradient xlink:href="#Dégradé_sans_nom_13" id="Dégradé_sans_nom_13-4" x1="338.01" x2="498.4" y1="110.35" y2="270.74" data-name="Dégradé sans nom 13"/><linearGradient xlink:href="#Dégradé_sans_nom_12" id="Dégradé_sans_nom_12-3" x1="203.62" x2="300.37" y1="234.92" y2="331.67" data-name="Dégradé sans nom 12"/><linearGradient xlink:href="#Dégradé_sans_nom_14" id="Dégradé_sans_nom_14-3" x1="540.11" x2="619.6" y1="333.08" y2="253.59" data-name="Dégradé sans nom 14"/><linearGradient id="Dégradé_sans_nom_46" x1="623.39" x2="683.96" y1="271.12" y2="331.7" data-name="Dégradé sans nom 46" gradientUnits="userSpaceOnUse"><stop offset="0" stop-color="#5b5a72"/><stop offset="1" stop-color="#b0b0bf"/></linearGradient><linearGradient xlink:href="#Dégradé_sans_nom_46" id="Dégradé_sans_nom_46-2" x1="652.22" x2="700.23" y1="300.34" y2="348.34" data-name="Dégradé sans nom 46"/><radialGradient id="Dégradé_sans_nom_17" cx="420.94" cy="545.6" r="128.87" data-name="Dégradé sans nom 17" fx="420.94" fy="545.6" gradientTransform="matrix(1 .00035 -.00004 .11 .02 483.42)" gradientUnits="userSpaceOnUse"><stop offset=".4" stop-color="#353544" stop-opacity=".5"/><stop offset="1" stop-color="#353544" stop-opacity="0"/></radialGradient><style>.cls-1{fill:#f4f4f6}.cls-2,.cls-3{fill:#fff}.cls-5{fill:#fdd46a}.cls-6{fill:#b0b0bf}.cls-7{fill:#5b5a72}.cls-8{fill:#353544}.cls-9{stroke:#b0b0bf;stroke-width:1.26px;fill:none;stroke-linecap:round;stroke-linejoin:round}.cls-3{opacity:.5}</style></defs><ellipse cx="420.94" cy="545.6" rx="130.92" ry="15.9" style="fill:url(#Dégradé_sans_nom_17)"/><path d="M522.03 335c-5.95 10.61-10.56 27.74.31 50.27 13.88 28.86 55.83 65.15 77.55 82.75 3.09 2.53 7.36-1.06 5.54-4.6L538.4 335.35c-3.4-6.55-12.76-6.75-16.36-.36Z" style="fill:url(#Dégradé_sans_nom_14)"/><path d="m676.73 342.14-136.79-11.19c.7.79 1.32 1.67 1.82 2.64l18.92 36.15c1.79.34 3.65.63 5.59.86 31.81 3.69 84.9-12.37 111.39-21.32 3.79-1.26 3.04-6.78-.93-7.14Z" style="fill:url(#Dégradé_sans_nom_14-2)"/><path d="M319.86 335c5.95 10.61 10.56 27.74-.31 50.27-13.88 28.86-55.83 65.15-77.55 82.75-3.09 2.53-7.36-1.06-5.54-4.6l67.03-128.07c3.4-6.55 12.76-6.75 16.36-.36Z" style="fill:url(#Dégradé_sans_nom_12)"/><path d="M275.62 370.6c1.94-.22 3.8-.52 5.59-.86l18.91-36.14c.5-.97 1.12-1.86 1.83-2.65l-136.79 11.19c-3.96.35-4.71 5.87-.93 7.14 26.48 8.95 79.57 25.01 111.39 21.32Z" style="fill:url(#Dégradé_sans_nom_12-2)"/><path d="M515.7 295.39c8.14-2.43 15.21 6.08 11.26 13.61l-93.31 178.8c-5.32 10.27-20.08 10.27-25.4 0L314.94 309c-3.88-7.53 3.19-16.05 11.33-13.61l84.19 25.55 6.08 73.54c.46 5.4 8.37 5.4 8.82 0l6.08-73.54 84.26-25.55Z" style="fill:url(#Dégradé_sans_nom_13)"/><path d="M324.82 86.32v58.71c-7.3 14.53-11.41 30.95-11.41 48.29V86.24c-5.32-4.72-9.05-15.82-9.05-28.82 0-17.26 6.62-23.65 14.83-23.65s14.83 6.39 14.83 23.65c0 13-3.8 24.18-9.2 28.9Z" style="fill:url(#Dégradé_sans_nom_13-2)"/><path d="M528.48 86.24v107.08c0-17.34-4.11-33.77-11.41-48.29V86.32c-5.4-4.72-9.2-15.89-9.2-28.9 0-17.26 6.69-23.65 14.83-23.65s14.83 6.39 14.83 23.65c0 13-3.73 24.11-9.05 28.82Z" style="fill:url(#Dégradé_sans_nom_13-3)"/><path d="M420.94 243.44c27.76 0 50.19-22.44 50.19-50.12s-22.44-50.19-50.19-50.19-50.19 22.44-50.19 50.19 22.51 50.12 50.19 50.12Zm96.13-98.41c7.3 14.53 11.41 30.95 11.41 48.29 0 59.32-48.14 107.46-107.54 107.46S313.4 252.64 313.4 193.32c0-17.34 4.11-33.77 11.41-48.29 17.72-35.14 54.07-59.24 96.13-59.24s78.41 24.11 96.13 59.24Z" style="fill:url(#Dégradé_sans_nom_13-4)"/><path d="M450.91 125.24s18.03-7.62 39.19 17.89c0 0-13.54-25.18-24.28-26.84-10.02-1.55-14.91 8.95-14.91 8.95ZM390.98 125.24s-18.03-7.62-39.19 17.89c0 0 13.54-25.18 24.28-26.84 10.02-1.55 14.91 8.95 14.91 8.95ZM382.2 221.74c5.33-5.18 8.86-14.81 8.86-28.59 0-21.7-8.74-33.08-19.51-33.08s-19.51 11.38-19.51 33.08c0 13.56 3.41 23.1 8.6 28.34 0 0 11-4.41 21.56.25Z" class="cls-8"/><ellipse cx="366.88" cy="184.41" class="cls-3" rx="4.54" ry="3.12"/><ellipse cx="373.81" cy="174.84" class="cls-3" rx="6.93" ry="6.09"/><path d="M435.71 254.24s0 16.47-14.74 16.47c-14.79 0-14.79-16.47-14.79-16.47" style="stroke:#5b5a72;stroke-width:4px;stroke-linecap:round;stroke-linejoin:round;fill:none"/><path d="M493.15 176.39s-29.74-5.4-43.29 19.58c-2.27 4.18.98 9.15 5.7 8.5 6.43-.88 15.29-1.16 24.36 1.44 0 0-5.32-9.3-13.58-11.94 0 0 2.83-13.93 26.81-17.58Z" class="cls-8"/><path d="m264.77 330.19 44.14-3.61c.35-.03.7-.04 1.05-.05L225.9 223.12c-2.53-3.07-7.51-.57-6.41 3.27 7.57 26.86 24.3 79.59 45.28 103.8Z" style="fill:url(#Dégradé_sans_nom_12-3)"/><path d="m532.97 326.57 44.15 3.61c20.98-24.21 37.71-76.94 45.28-103.8 1.1-3.84-3.88-6.34-6.41-3.27l-84.06 103.41c.35 0 .7.02 1.04.04Z" style="fill:url(#Dégradé_sans_nom_14-3)"/><circle cx="222.22" cy="172.03" r="33.88" class="cls-5"/><circle cx="222.22" cy="172.03" r="26.46" style="stroke:#fff;stroke-width:2px;stroke-linecap:round;stroke-linejoin:round;fill:none"/><path d="M221.38 167.31h2.37v3.58h-2.37v1.67h2.37v3.58h-2.37v3.79c0 1.18.04 1.98.12 2.42s.29.79.62 1.09.75.45 1.25.45c.42 0 .8-.12 1.16-.36s.58-.6.67-1.06.14-1.41.14-2.82v-3.21h7.77v1.31c0 3.12-.29 5.43-.87 6.92-.58 1.49-1.66 2.69-3.23 3.59-1.57.9-3.47 1.35-5.7 1.35-1.79 0-3.4-.32-4.83-.95-1.43-.63-2.53-1.47-3.29-2.53s-1.26-2.21-1.48-3.46c-.22-1.25-.33-3.13-.33-5.64v-.9h-2.02v-3.58h2.02v-1.67h-2.02v-3.58h2.02v-.6c0-2.17.09-3.89.28-5.16.19-1.28.7-2.46 1.55-3.56s2-1.96 3.45-2.58c1.45-.62 3.08-.94 4.9-.94s3.44.33 4.9.98c1.46.65 2.61 1.7 3.43 3.15.82 1.45 1.23 3.8 1.23 7.05v1.1h-7.77v-2.73c-.04-1.43-.09-2.33-.15-2.7s-.2-.65-.45-.84-.63-.29-1.16-.29c-.61 0-1.1.14-1.46.43s-.58.66-.65 1.12-.1 1.31-.1 2.53v3.04Z" class="cls-2"/><path d="M630.29 172.05c10.88-4.59 18.51-15.35 18.51-27.9 0-17.36-14.62-31.31-32.21-30.21-14.99.94-27.22 13.09-28.25 28.07-.92 13.45 6.95 25.18 18.44 30.03v5.52c0 1.08.87 1.95 1.95 1.95h19.62c1.08 0 1.95-.88 1.95-1.96v-5.51Z" class="cls-1"/><rect width="23.72" height="3.87" x="606.78" y="181.8" class="cls-8" rx="1.66" ry="1.66"/><rect width="23.72" height="3.87" x="606.78" y="187.81" class="cls-8" rx="1.66" ry="1.66"/><rect width="23.72" height="3.87" x="606.78" y="193.68" class="cls-8" rx="1.66" ry="1.66"/><path d="M611.69 199.62h13.8c1.11 0 1.83 1.2 1.28 2.17-1.09 1.93-3.45 4.46-8.28 4.46s-7.11-2.56-8.11-4.5c-.5-.97.21-2.12 1.31-2.12Z" class="cls-8"/><path d="M623.78 179.52v-25.8s-1.15-8.21 5.26-8.21 5.91 8.21-3.78 8.21h-13.24c-9.69 0-10.18-8.21-3.78-8.21s5.26 8.21 5.26 8.21v25.8" style="stroke-miterlimit:10;stroke:#fff;stroke-width:2px;fill:none"/><path d="M163.18 315.85h-19.35c1.11 3.23 1.95 9.9-6.15 16.25h31.66c-8.1-6.35-7.26-13.01-6.15-16.25Z" class="cls-7"/><path d="M200.81 305.59c.05-.25.08-.51.08-.78v-43.8c0-.35-.06-.68-.15-1-.08-.28-.18-.55-.32-.8-.16-.3-.35-.58-.58-.83-.03-.03-.05-.07-.08-.1-.7-.7-1.66-1.13-2.73-1.13h-87.07c-1.28 0-2.41.63-3.11 1.6-.46.64-.74 1.41-.74 2.25v43.8c0 .94.35 1.8.92 2.47.71.84 1.75 1.39 2.94 1.39h87.07c.45 0 .87-.09 1.28-.23.2-.07.39-.16.58-.26.32-.18.62-.38.87-.63.52-.52.9-1.2 1.05-1.95Z" class="cls-6"/><path d="M111.12 285.93v-21.1a2.57 2.57 0 0 1 2.57-2.57h7.26c1.26 0 1.55 1.76.36 2.16l-3.82 1.32a2.563 2.563 0 0 0-1.73 2.43v17.76c0 1.28-1.04 2.32-2.32 2.32-1.28 0-2.32-1.04-2.32-2.32Z" class="cls-1"/><rect width="8.59" height="4.85" x="109.26" y="292.36" class="cls-1" rx="2.43" ry="2.43" transform="rotate(90 113.55 294.78)"/><path d="M688.12 328.28v2.77l45.82-11.09a3.004 3.004 0 0 0 2.29-2.91v-54.42c0-1.94-1.81-3.36-3.7-2.91l-3.55.86-40.87 67.7Z" class="cls-7"/><path d="M688.12 328.28v2.77h-4.4c0-2.63 2.61-4.92 4.4-2.77ZM679.31 328.27v2.78l-45.82-11.09a3.004 3.004 0 0 1-2.29-2.91v-54.42c0-1.94 1.82-3.36 3.7-2.91l3.55.86 40.86 67.7ZM683.72 331.05h-4.4v-2.78c1.23-1.1 4.4 0 4.4 2.78Z" class="cls-7"/><path d="M683.94 331.63h-.01c-.02 0-.04.01-.06.01l.08-.02Z" style="fill:url(#Dégradé_sans_nom_46)"/><path d="M683.57 331.65s-.04 0-.06-.01h-.01l.08.02Z" style="fill:url(#Dégradé_sans_nom_46-2)"/><path d="M678.91 326.64c.06.04.12.09.18.15-14.95-8.42-30.38-9.47-37.15-9.47-1.29 0-2.26.04-2.86.07v-60.62c2.14-.71 4.34-1.21 6.58-1.47v59.97c0 .35.28.62.62.63.2 0 19.83.45 32.64 10.75ZM728.35 256.77v60.62c-3.75-.2-22.23-.61-40.01 9.41.06-.05.11-.1.17-.15 12.8-10.3 32.44-10.75 32.64-10.75.34 0 .62-.28.62-.63V255.3c2.23.27 4.44.76 6.58 1.47Z" class="cls-2"/><path d="M720.51 254.6v60.06c-3.5.17-20.95 1.48-32.78 11.01-.54.43-1.05.88-1.56 1.34l-.4.36c-.44.42-.87.84-1.29 1.27-.04.05-.09.09-.13.14v-58.74c1.22-1.77 13.39-18.42 36.16-17.42v1.99Z" class="cls-2"/><path d="M729.19 255.73c-2.4-.85-4.9-1.4-7.42-1.68v-2.03c0-.33-.26-.61-.59-.63-22.17-1.27-34.8 13.81-37.46 17.37-2.66-3.56-15.27-18.64-37.47-17.37-.33.02-.59.3-.59.63v2.03c-2.52.28-5.01.84-7.42 1.68-.25.09-.42.33-.42.59v61.74c0 .18.08.35.21.47s.31.18.48.16c.21-.03 20.86-1.8 40.49 9.5 1.5.86 2.97 1.79 4.36 2.75.03.02.04.03.06.03h.01c.01 0 .03.02.05.03.03 0 .05.01.08.02.05.02.1.03.15.03s.1 0 .15-.03c.03 0 .05-.01.08-.02s.04-.03.06-.04h.01c.02 0 .04 0 .05-.02 1.43-.98 2.9-1.9 4.36-2.75 19.63-11.3 40.29-9.53 40.5-9.5.17.01.35-.04.48-.16s.21-.29.21-.47v-61.74c0-.27-.17-.5-.42-.59Zm-87.25 61.59c-1.29 0-2.26.04-2.86.07v-60.62c2.14-.71 4.34-1.21 6.58-1.47v59.97c0 .35.28.62.62.63.2 0 19.83.45 32.64 10.75.06.04.12.09.18.15-14.95-8.42-30.38-9.47-37.15-9.47Zm39.97 10.27-.8-.74c-.1-.09-.2-.18-.31-.27-.35-.32-.72-.62-1.09-.92-11.85-9.52-29.3-10.83-32.79-11v-62.05c22.74-1 34.94 15.65 36.17 17.42v58.73c-.3-.31-.6-.62-.92-.92-.08-.09-.17-.17-.26-.25Zm4.25-.59c-.13.12-.27.24-.4.36-.44.42-.87.84-1.29 1.27-.04.05-.09.09-.13.14v-58.74c1.22-1.77 13.39-18.42 36.16-17.42v62.05c-3.5.17-20.95 1.48-32.78 11.01-.54.43-1.05.88-1.56 1.34Zm42.19-9.62c-3.75-.2-22.23-.61-40.01 9.41.06-.05.11-.1.17-.15 12.8-10.3 32.44-10.75 32.64-10.75.34 0 .62-.28.62-.63v-59.97c2.23.27 4.44.76 6.58 1.47v60.62Z" class="cls-7"/><path d="M683.09 270.03v58.73c-.3-.31-.6-.62-.92-.92-.08-.09-.17-.17-.26-.25l-.8-.74c-.1-.09-.2-.18-.31-.27-.35-.32-.72-.62-1.09-.92-11.85-9.52-29.3-10.83-32.79-11v-62.05c22.74-1 34.94 15.65 36.17 17.42Z" class="cls-2"/><path d="M688.63 274.79s9.15-11.39 25.75-12.29M688.5 281.2s9.15-11.39 25.75-12.29M688.36 287.61s9.15-11.39 25.75-12.29M688.23 294.03s9.15-11.39 25.75-12.29M688.07 301.26s9.34-11.24 25.95-11.86M687.94 307.67s9.65-10.97 26.27-11.13M687.78 314.91s10-10.65 26.62-10.26M678.57 274.79s-9.15-11.39-25.75-12.29M678.71 281.2s-9.15-11.39-25.75-12.29M678.85 287.61s-9.15-11.39-25.75-12.29M678.98 294.03s-9.15-11.39-25.75-12.29M679.13 301.26s-9.34-11.24-25.95-11.86M679.27 307.67s-9.65-10.97-26.27-11.13M679.42 314.91s-10-10.65-26.62-10.26" class="cls-9"/><path d="M201.85 405.1c3.33 2.05 10.51 7.3 14.74 16.47.41.89 1.6 1.07 2.24.32 2.33-2.7 5.95-8.9-.86-16.48-6.34-7.06-13.01-4.48-16.11-2.6-.86.52-.86 1.76 0 2.29ZM173.55 405.1c-3.33 2.05-10.51 7.3-14.74 16.47-.41.89-1.6 1.07-2.24.32-2.33-2.7-5.95-8.9.86-16.48 6.34-7.06 13.01-4.48 16.11-2.6.86.52.86 1.76 0 2.29Z" class="cls-5"/><path d="M187.69 403.73c-15.61 0-28.27 12.66-28.27 28.27s12.66 28.27 28.27 28.27 28.27-12.66 28.27-28.27-12.66-28.27-28.27-28.27Zm13.81 48.72-2.34-3.79a.985.985 0 0 0-1.35-.32c-.46.28-.6.89-.32 1.35l2.34 3.79a24.541 24.541 0 0 1-11.16 3.17v-4.45c0-.54-.44-.98-.98-.98s-.98.44-.98.98v4.45c-3.93-.15-7.63-1.23-10.88-3.01l2.29-3.82a.968.968 0 0 0-.34-1.34.968.968 0 0 0-1.34.34l-2.29 3.81a24.981 24.981 0 0 1-7.31-7.42l3.85-2.23a.98.98 0 1 0-.98-1.7l-3.85 2.23a24.533 24.533 0 0 1-2.83-10.54h4.45c.54 0 .98-.44.98-.98s-.44-.98-.98-.98h-4.45c.14-3.68 1.09-7.15 2.68-10.25l3.88 2.18c.15.09.32.13.48.13.34 0 .67-.18.85-.5a.97.97 0 0 0-.37-1.33l-3.88-2.18c1.84-2.99 4.3-5.55 7.21-7.51l2.34 3.78c.19.3.51.46.83.46a.985.985 0 0 0 .83-1.5l-2.34-3.78c3.32-1.88 7.11-3.01 11.16-3.17v4.45c0 .54.44.98.98.98s.98-.44.98-.98v-4.45c3.93.15 7.62 1.23 10.87 3.01l-2.29 3.82a.968.968 0 0 0 .34 1.34c.16.09.33.14.5.14.33 0 .66-.17.84-.48l2.29-3.81c2.93 1.93 5.42 4.46 7.31 7.42l-3.85 2.23a.98.98 0 1 0 .98 1.7l3.85-2.23c1.68 3.17 2.68 6.74 2.83 10.54h-4.45c-.54 0-.98.44-.98.98s.44.98.98.98h4.45c-.14 3.68-1.09 7.16-2.68 10.25l-3.88-2.18a.97.97 0 0 0-1.33.37.97.97 0 0 0 .37 1.33l3.88 2.18c-1.84 2.99-4.3 5.55-7.2 7.51Z" style="fill:#e76767"/><path d="M206.61 455.61c-1.74 1.4-3.63 2.61-5.65 3.6l7.98 5.49c.73.51 1.67-.28 1.3-1.09l-3.63-8Z" class="cls-7"/><path d="m199.44 432.67-11.31 1.76a2.441 2.441 0 0 0 1.93-2.38v-.23l-.16-1.93 9.56 1.53c.72.11.71 1.14 0 1.26Z" class="cls-8"/><path d="M190.06 432.05c0 1.16-.82 2.15-1.93 2.38h-.01l-.27.04c-.08 0-.15.01-.22.01-1.44 0-2.56-1.23-2.43-2.67l1.82-18.12c.08-.76 1.19-.76 1.27 0l1.61 16.18.16 1.93v.23" class="cls-7"/><rect width="9.01" height="2.38" x="183.19" y="399.05" class="cls-6" rx="1.19" ry="1.19"/><path d="M674.16 401.75c-3.1-2.82-7.1-4.37-11.29-4.37-4.71 0-9.23 1.99-12.4 5.47-3.02 3.31-4.56 7.6-4.36 12.07.21 4.47 2.14 8.6 5.45 11.62 3.1 2.83 7.12 4.38 11.31 4.38 4.71 0 9.22-1.99 12.39-5.47 6.23-6.83 5.73-17.46-1.11-23.7Z" class="cls-6"/><path d="M653.55 426.11c-6.23-5.64-6.71-15.27-1.07-21.5 3.16-3.49 7.56-5.18 11.93-5 5.02.21 7.51 6.21 4.14 9.93l-.33.36c-1.28 1.41-3.19 1.99-5.08 1.73-2-.28-4.95.22-8.24 3.85-3.88 4.29-1.35 10.62-1.35 10.62Z" class="cls-1"/><path d="M680.15 395.18c-10.47-9.54-26.69-8.8-36.25 1.68-8.43 9.25-8.81 23.01-1.56 32.67l.56.51-19.88 21.81a4.048 4.048 0 1 0 5.98 5.46l19.88-21.81.56.51c10.29 6.33 23.94 4.67 32.37-4.58 9.55-10.48 8.8-26.69-1.68-36.25Zm-3.4 31.62c-.45.49-.92.96-1.41 1.39-.16.15-.34.27-.51.41-.33.28-.66.55-1.01.8-.21.15-.43.28-.64.42-.32.21-.64.42-.97.61-.24.14-.48.25-.72.37-.32.17-.64.33-.97.48-.25.11-.51.21-.77.31-.33.13-.65.26-.98.36-.27.09-.54.16-.81.24-.33.09-.66.18-.99.26-.28.06-.55.11-.83.16-.33.06-.67.11-1 .15-.28.03-.56.06-.85.08-.33.03-.67.04-1.01.05-.14 0-.27.02-.41.02-.17 0-.33-.02-.5-.02-.26 0-.53-.02-.79-.04-.32-.02-.64-.06-.96-.09-.26-.03-.52-.06-.78-.11-.32-.05-.64-.12-.96-.19-.26-.06-.51-.11-.76-.18-.32-.08-.64-.18-.96-.29-.25-.08-.49-.15-.74-.24-.32-.12-.64-.25-.95-.39-.23-.1-.47-.19-.7-.3-.33-.16-.64-.33-.96-.51-.21-.12-.42-.22-.63-.35-.34-.21-.68-.44-1.01-.67-.17-.12-.35-.22-.51-.35-.49-.36-.96-.75-1.42-1.17l-.02-.02a18.911 18.911 0 0 1-3.56-4.38 18.802 18.802 0 0 1-2.55-8.62c-.03-.65-.02-1.31.02-1.96.07-1.15.23-2.29.51-3.41.29-1.18.69-2.33 1.22-3.44.78-1.67 1.83-3.26 3.14-4.69l.01-.01c.45-.49.92-.95 1.4-1.38.16-.15.34-.27.51-.41.33-.28.66-.55 1.01-.8.21-.15.43-.28.64-.42.32-.21.64-.43.97-.61.23-.13.48-.25.72-.37.32-.17.64-.33.97-.48.25-.11.51-.21.77-.31.33-.13.65-.26.99-.37.26-.09.53-.16.8-.24.33-.09.66-.18 1-.26.27-.06.55-.11.82-.16.34-.06.67-.11 1.01-.15.28-.03.56-.06.84-.08.34-.03.67-.04 1.01-.05.14 0 .28-.02.41-.02.17 0 .33.02.49.02.26 0 .53.02.79.04.32.02.64.05.96.09.26.03.52.06.78.11.32.05.64.12.96.19.26.06.51.11.77.18.32.08.64.18.95.28.25.08.49.15.74.24.32.12.64.25.95.39.23.1.46.19.69.3.33.16.64.33.96.51.21.12.42.22.63.34.35.21.68.45 1.02.68.17.12.34.22.5.34a18.227 18.227 0 0 1 3.7 3.68c1.92 2.51 3.13 5.4 3.62 8.39.11.71.2 1.42.24 2.13.22 4.8-1.38 9.68-4.87 13.51Z" class="cls-8"/><path d="M201.93 251.97h-96.86c-2.04 0-3.7 1.66-3.7 3.7v54.48c0 2.04 1.66 3.7 3.7 3.7h96.86c2.04 0 3.7-1.65 3.7-3.7v-54.48c0-2.04-1.65-3.7-3.7-3.7Zm.96 52.84c0 3.23-2.63 5.85-5.85 5.85h-87.07c-3.23 0-5.85-2.63-5.85-5.85v-43.8c0-3.23 2.63-5.85 5.85-5.85h87.07c3.23 0 5.85 2.63 5.85 5.85v43.8ZM168.79 455.62l-3.62 7.99c-.37.81.57 1.59 1.3 1.09l7.97-5.49c-2.02-.99-3.91-2.2-5.65-3.59Z" class="cls-7"/></svg>