<svg xmlns="http://www.w3.org/2000/svg" xmlns:xlink="http://www.w3.org/1999/xlink" id="Calque_1" data-name="Calque 1" viewBox="0 0 841.89 595.28"><defs><linearGradient id="Dégradé_sans_nom_11" x1="364.41" x2="525.88" y1="111.24" y2="272.71" data-name="Dégradé sans nom 11" gradientUnits="userSpaceOnUse"><stop offset=".1" stop-color="#5b5a72"/><stop offset=".5" stop-color="#b0b0bf"/><stop offset=".96" stop-color="#f4f4f6"/></linearGradient><linearGradient xlink:href="#Dégradé_sans_nom_11" id="Dégradé_sans_nom_11-2" x1="356.43" x2="436.94" y1="153.59" y2="234.1" data-name="Dégradé sans nom 11"/><linearGradient id="Dégradé_sans_nom_26" x1="578.28" x2="578.28" y1="333.05" y2="471.39" data-name="Dégradé sans nom 26" gradientUnits="userSpaceOnUse"><stop offset="0" stop-color="#b0b0bf"/><stop offset="1" stop-color="#f4f4f6"/></linearGradient><linearGradient xlink:href="#Dégradé_sans_nom_11" id="Dégradé_sans_nom_11-3" x1="368.09" x2="534.03" y1="270.33" y2="436.27" data-name="Dégradé sans nom 11"/><linearGradient xlink:href="#Dégradé_sans_nom_11" id="Dégradé_sans_nom_11-4" x1="436.58" x2="635.11" y1="-4.92" y2="193.61" data-name="Dégradé sans nom 11"/><linearGradient id="Dégradé_sans_nom_46" x1="355.61" x2="295.74" y1="369.12" y2="309.25" data-name="Dégradé sans nom 46" gradientUnits="userSpaceOnUse"><stop offset="0" stop-color="#5b5a72"/><stop offset="1" stop-color="#b0b0bf"/></linearGradient><linearGradient xlink:href="#Dégradé_sans_nom_46" id="Dégradé_sans_nom_46-2" x1="366.4" x2="306.53" y1="358.33" y2="298.46" data-name="Dégradé sans nom 46"/><linearGradient xlink:href="#Dégradé_sans_nom_11" id="Dégradé_sans_nom_11-5" x1="343.27" x2="472.75" y1="83.37" y2="212.85" data-name="Dégradé sans nom 11"/><linearGradient xlink:href="#Dégradé_sans_nom_11" id="Dégradé_sans_nom_11-6" x1="658.09" x2="658.09" y1="88.05" y2="189.94" data-name="Dégradé sans nom 11" gradientTransform="rotate(25.57 657.979 155.015)"/><linearGradient xlink:href="#Dégradé_sans_nom_11" id="Dégradé_sans_nom_11-7" x1="658.09" x2="658.09" y1="88.05" y2="189.94" data-name="Dégradé sans nom 11" gradientTransform="rotate(-19.43 458.132 1428.06)"/><linearGradient xlink:href="#Dégradé_sans_nom_11" id="Dégradé_sans_nom_11-8" x1="2889.74" x2="2899.6" y1="3416.55" y2="3426.41" data-name="Dégradé sans nom 11" gradientTransform="rotate(-168.39 1661.48 1834.123)"/><linearGradient xlink:href="#Dégradé_sans_nom_11" id="Dégradé_sans_nom_11-9" x1="3030.26" x2="3046.68" y1="3227.26" y2="3243.68" data-name="Dégradé sans nom 11" gradientTransform="rotate(-142.87 1300 2117.418)"/><linearGradient xlink:href="#Dégradé_sans_nom_11" id="Dégradé_sans_nom_11-10" x1="3170.15" x2="3183.28" y1="3275.24" y2="3288.37" data-name="Dégradé sans nom 11" gradientTransform="rotate(-19.81 -7391.598 9311.146)"/><linearGradient xlink:href="#Dégradé_sans_nom_11" id="Dégradé_sans_nom_11-11" x1="2832.56" x2="2843.56" y1="3330.27" y2="3341.27" data-name="Dégradé sans nom 11" gradientTransform="rotate(159.29 2114.097 1546.622)"/><linearGradient xlink:href="#Dégradé_sans_nom_11" id="Dégradé_sans_nom_11-12" x1="2239.05" x2="2250.22" y1="-7.06" y2="4.1" data-name="Dégradé sans nom 11" gradientTransform="rotate(3.91 -1941.359 -22615.551)"/><linearGradient xlink:href="#Dégradé_sans_nom_11" id="Dégradé_sans_nom_11-13" x1="1310.93" x2="1326.94" y1="136.66" y2="152.67" data-name="Dégradé sans nom 11" gradientTransform="rotate(-16.34 721.02 2623.627)"/><linearGradient xlink:href="#Dégradé_sans_nom_11" id="Dégradé_sans_nom_11-14" x1="1448.93" x2="1459.7" y1="177.49" y2="188.26" data-name="Dégradé sans nom 11" gradientTransform="rotate(-16.34 721.02 2623.627)"/><linearGradient xlink:href="#Dégradé_sans_nom_11" id="Dégradé_sans_nom_11-15" x1="1413.98" x2="1430.48" y1="350.05" y2="366.54" data-name="Dégradé sans nom 11" gradientTransform="rotate(-41.14 995.835 1218.933)"/><linearGradient xlink:href="#Dégradé_sans_nom_11" id="Dégradé_sans_nom_11-16" x1="-2098.07" x2="-2067.93" y1="4515.36" y2="4545.5" data-name="Dégradé sans nom 11" gradientTransform="rotate(53.72 3477.773 5065.872)"/><linearGradient xlink:href="#Dégradé_sans_nom_11" id="Dégradé_sans_nom_11-17" x1="-2044.72" x2="-2019.12" y1="4359.7" y2="4385.3" data-name="Dégradé sans nom 11" gradientTransform="rotate(37.71 5501.493 6366.099)"/><linearGradient xlink:href="#Dégradé_sans_nom_11" id="Dégradé_sans_nom_11-18" x1="-2162.98" x2="-2144.33" y1="4355.5" y2="4374.16" data-name="Dégradé sans nom 11" gradientTransform="rotate(-27.95 -9449.077 -3449.235)"/><linearGradient xlink:href="#Dégradé_sans_nom_11" id="Dégradé_sans_nom_11-19" x1="2875.22" x2="2885.08" y1="3419.54" y2="3429.39" data-name="Dégradé sans nom 11" gradientTransform="scale(1 -1) rotate(11.61 18488.75 -11937.99)"/><linearGradient xlink:href="#Dégradé_sans_nom_11" id="Dégradé_sans_nom_11-20" x1="3018.44" x2="3034.86" y1="3236.21" y2="3252.63" data-name="Dégradé sans nom 11" gradientTransform="scale(1 -1) rotate(37.13 6752.327 -2537.356)"/><linearGradient xlink:href="#Dégradé_sans_nom_11" id="Dégradé_sans_nom_11-21" x1="2818.69" x2="2829.69" y1="3325.03" y2="3336.03" data-name="Dégradé sans nom 11" gradientTransform="scale(1 -1) rotate(-20.71 -8016.507 9119.215)"/><linearGradient xlink:href="#Dégradé_sans_nom_11" id="Dégradé_sans_nom_11-22" x1="2253.85" x2="2265.01" y1="-8.07" y2="3.09" data-name="Dégradé sans nom 11" gradientTransform="scale(-1 1) rotate(3.91 -2389.169 -35734.561)"/><linearGradient xlink:href="#Dégradé_sans_nom_11" id="Dégradé_sans_nom_11-23" x1="1325.16" x2="1341.17" y1="140.83" y2="156.84" data-name="Dégradé sans nom 11" gradientTransform="scale(-1 1) rotate(-16.34 273.21 5742.781)"/><linearGradient xlink:href="#Dégradé_sans_nom_11" id="Dégradé_sans_nom_11-24" x1="1463.15" x2="1473.93" y1="181.66" y2="192.44" data-name="Dégradé sans nom 11" gradientTransform="scale(-1 1) rotate(-16.34 273.21 5742.781)"/><linearGradient xlink:href="#Dégradé_sans_nom_11" id="Dégradé_sans_nom_11-25" x1="1425.15" x2="1441.64" y1="359.81" y2="376.3" data-name="Dégradé sans nom 11" gradientTransform="scale(-1 1) rotate(-41.14 548.025 2412.209)"/><linearGradient xlink:href="#Dégradé_sans_nom_11" id="Dégradé_sans_nom_11-26" x1="-2089.3" x2="-2059.16" y1="4503.41" y2="4533.55" data-name="Dégradé sans nom 11" gradientTransform="scale(-1 1) rotate(53.72 3029.963 4181.66)"/><linearGradient xlink:href="#Dégradé_sans_nom_11" id="Dégradé_sans_nom_11-27" x1="-2032.99" x2="-2007.39" y1="4350.63" y2="4376.23" data-name="Dégradé sans nom 11" gradientTransform="scale(-1 1) rotate(37.71 5053.683 5054.793)"/><linearGradient xlink:href="#Dégradé_sans_nom_11" id="Dégradé_sans_nom_11-28" x1="-2149.89" x2="-2131.23" y1="4362.45" y2="4381.11" data-name="Dégradé sans nom 11" gradientTransform="scale(-1 1) rotate(-27.95 -9896.887 -1649.822)"/><linearGradient xlink:href="#Dégradé_sans_nom_11" id="Dégradé_sans_nom_11-29" x1="-2380.12" x2="-2351.64" y1="4246.01" y2="4274.48" data-name="Dégradé sans nom 11" gradientTransform="rotate(-27.95 -9449.077 -3449.235)"/><radialGradient id="Dégradé_sans_nom_17" cx="447.83" cy="545.24" r="129.79" data-name="Dégradé sans nom 17" fx="447.83" fy="545.24" gradientTransform="matrix(1 .00035 -.00004 .11 .02 483.1)" gradientUnits="userSpaceOnUse"><stop offset=".4" stop-color="#353544" stop-opacity=".5"/><stop offset="1" stop-color="#353544" stop-opacity="0"/></radialGradient><style>.cls-1{fill:#353544}.cls-36{opacity:.5;fill:#fff}</style></defs><path d="M544.63 146.15c-17.85-35.39-54.46-59.67-96.82-59.67-28.38 0-54.18 10.91-73.49 28.76a83.439 83.439 0 0 1 24.76-3.77c20.89 0 40.9 7.75 56.34 21.83a84.36 84.36 0 0 1 13.32 15.46c17.48 7.95 29.62 25.54 29.62 46.03s-11.83 37.57-28.96 45.66c-2.51 3.87-5.33 7.58-8.5 11.05-15.8 17.34-38.33 27.28-61.8 27.28-8.03 0-15.95-1.16-23.56-3.39 19.17 17.18 44.5 27.63 72.27 27.63 59.82 0 108.31-48.49 108.31-108.23 0-17.46-4.14-34.01-11.49-48.64Z" style="fill:url(#Dégradé_sans_nom_11)"/><path d="M427.49 148.5c-8.5-5.19-18.3-7.98-28.41-7.98-15.34 0-30.06 6.5-40.39 17.83-9.83 10.78-14.87 24.75-14.19 39.32.68 14.57 6.99 28.01 17.77 37.84 10.11 9.21 23.19 14.28 36.83 14.28 10.39 0 20.5-2.99 29.15-8.44-18.2-7.64-31-25.6-31-46.55s12.45-38.47 30.24-46.29Z" style="fill:url(#Dégradé_sans_nom_11-2)"/><ellipse cx="447.83" cy="545.24" rx="131.87" ry="16.02" style="fill:url(#Dégradé_sans_nom_17)"/><path d="M572.9 337.8c10.49 6.34 23.05 19.05 24.74 44.18 2.2 32.18-16.48 84.83-26.75 111.05-1.45 3.75-6.97 2.73-7.14-1.27l-5-145.5c-.28-7.43 7.82-12.26 14.15-8.46Z" style="fill:url(#Dégradé_sans_nom_26)"/><path d="M543.25 297.59c8.2-2.45 15.32 6.13 11.34 13.71L460.6 491.38c-5.36 10.34-20.22 10.34-25.58 0L341.03 311.3c-3.91-7.58 3.22-16.16 11.41-13.71l84.8 25.74 6.13 74.07c.46 5.44 8.43 5.44 8.89 0l6.13-74.07 84.87-25.74Z" style="fill:url(#Dégradé_sans_nom_11-3)"/><path d="M556.12 86.94v107.85c0-17.46-4.14-34.01-11.49-48.64V87.01c-5.44-4.75-9.27-16.01-9.27-29.11 0-17.39 6.74-23.82 14.94-23.82s14.94 6.43 14.94 23.82c0 13.1-3.75 24.28-9.12 29.03Z" style="fill:url(#Dégradé_sans_nom_11-4)"/><ellipse cx="397.9" cy="194.76" class="cls-1" rx="31.73" ry="53.79"/><ellipse cx="390.29" cy="180.55" class="cls-36" rx="7.38" ry="5.07"/><ellipse cx="401.57" cy="164.98" class="cls-36" rx="11.27" ry="9.9"/><path d="M432.39 280.88s15.44-9.41 30.85 1" style="fill:none;stroke:#5b5a72;stroke-linecap:round;stroke-linejoin:round;stroke-width:3.83px"/><path d="m322.12 303.94-22.47 24.65c1.84 9.68 4.65 18.44 8.9 24.47 9.42 13.43 24.31 14.37 35.4 12.72 6.68-1.01 12.16-7.81 9.57-11.89l-31.4-49.95Z" style="fill:url(#Dégradé_sans_nom_46)"/><path d="M442.28 234.53c-21.73 23.84-58.68 25.56-82.57 3.79-23.84-21.73-25.56-58.68-3.82-82.53 21.73-23.84 58.68-25.56 82.53-3.82 23.88 21.77 25.6 58.72 3.86 82.57Z" style="opacity:.3;fill:#fff"/><path d="M290.29 295.18s10.07 8.97 14.82 3.63c4.75-5.34-1.4-20.93-6.65-18.64-5.25 2.29-12.13 10.97-8.16 15.01Z" style="fill:url(#Dégradé_sans_nom_46-2)"/><path d="M452.87 136.11c-32.58-29.69-83.1-27.39-112.83 5.23-26.25 28.8-27.42 71.62-4.84 101.69l1.75 1.6-31.45 34.51c1.13 1.24 2.16 2.83 3.02 4.75 2.5 5.56 3.29 13.12-.56 17.45-1.73 1.94-4.07 2.97-6.76 2.97-5.69 0-11.66-4.78-13.13-6.04l-13 14.27c-4.69 5.14-4.32 13.11.82 17.8 5.14 4.69 13.11 4.32 17.8-.82l61.9-67.91 1.76 1.6c32.04 19.7 74.53 14.53 100.77-14.26 29.73-32.62 27.39-83.1-5.23-112.83Zm-10.59 98.42c-21.73 23.84-58.68 25.56-82.57 3.79-23.84-21.73-25.56-58.68-3.82-82.53 21.73-23.84 58.68-25.56 82.53-3.82 23.88 21.77 25.6 58.72 3.86 82.57Z" class="cls-1"/><path d="M365.22 227.18c-19.4-17.56-20.9-47.52-3.34-66.93 9.83-10.86 23.55-16.11 37.12-15.55 15.63.65 23.37 19.32 12.87 30.92l-1.02 1.13c-3.98 4.4-9.92 6.2-15.8 5.38-6.21-.87-15.41.7-25.64 11.99-12.09 13.36-4.19 33.06-4.19 33.06Z" class="cls-36"/><path d="M477.99 120.78s18.16-7.68 39.47 18.02c0 0-13.64-25.36-24.45-27.03-10.09-1.56-15.02 9.01-15.02 9.01Z" class="cls-1"/><path d="M339.5 86.94v49.45c3.55-3.6 7.4-6.84 11.49-9.71V87.01c5.44-4.75 9.27-16.01 9.27-29.11 0-17.39-6.66-23.82-14.94-23.82s-14.94 6.43-14.94 23.82c0 13.1 3.75 24.28 9.12 29.03Z" style="fill:url(#Dégradé_sans_nom_11-5)"/><path d="M497.73 161.3c-7.3 0-13.67 5.17-17.09 15.19a84.26 84.26 0 0 1 2.02 14.79c.35 7.52-.32 14.93-1.91 22.09 3.44 9.8 9.75 14.85 16.97 14.85 10.9 0 19.74-11.51 19.74-33.46s-8.84-33.46-19.74-33.46Z" class="cls-1"/><ellipse cx="493.01" cy="185.92" class="cls-36" rx="4.59" ry="3.15"/><ellipse cx="500.02" cy="176.24" class="cls-36" rx="7.01" ry="6.16"/><path d="M660.98 173.8c-.21.22-.42.47-.63.73-3.1 3.86-8.42 5.14-12.89 3-5.84-2.79-7.86-10.15-4.21-15.49 1.46-2.13 2.78-3.74 3.96-4.83 2.67-2.44 7.48-4.42 14.43-5.94l7.06-1.55c2.29-.46 4.32-1.19 6.07-2.2 3.11-1.68 5.41-4.07 6.89-7.17 1.71-3.57 2.21-7.31 1.53-11.24-.69-3.93-3.8-7.22-9.33-9.87s-10.16-2.64-14.17-.12c-1.78 1.12-3.35 2.38-4.7 3.77-3.16 3.24-8.12 3.93-12.21 1.98l-1.06-.51c-6.4-3.06-8.11-11.49-3.28-16.68 5.6-6.01 12.17-9.48 19.72-10.39 7.24-.92 14.89.55 22.96 4.41 10.6 5.07 18.2 11.82 22.79 20.24 4.59 8.42 4.51 17.6-.25 27.55-2.92 6.1-6.9 10.51-11.95 13.22-3 1.68-7.97 3.28-14.92 4.8l-6.85 1.48c-3.73.81-6.72 2.41-8.95 4.8Zm-27.31 33.98-1.85-.89c-5.28-2.53-7.51-8.85-4.99-14.13l.58-1.22c2.53-5.28 8.85-7.51 14.13-4.99l1.85.89c5.28 2.53 7.51 8.85 4.99 14.13l-.58 1.22c-2.53 5.28-8.85 7.51-14.13 4.99Z" style="fill:url(#Dégradé_sans_nom_11-6)"/><path d="M238.5 172.2c.01.3.03.62.07.97.53 4.92-2.32 9.59-6.99 11.24-6.1 2.15-12.73-1.61-13.93-7.97-.48-2.54-.68-4.61-.61-6.21.16-3.61 2.16-8.41 6-14.4l3.89-6.09c1.3-1.95 2.21-3.89 2.74-5.84 1.01-3.39.94-6.7-.2-9.94-1.31-3.73-3.6-6.74-6.87-9.03-3.26-2.3-7.79-2.42-13.58-.38s-9.06 5.32-10.1 9.93c-.46 2.05-.68 4.05-.66 5.99.06 4.52-2.97 8.52-7.23 10.03l-1.11.39c-6.69 2.36-13.86-2.39-14.11-9.47-.29-8.21 1.9-15.31 6.6-21.3 4.47-5.77 10.92-10.14 19.36-13.12 11.08-3.91 21.22-4.51 30.42-1.8 9.2 2.71 15.63 9.26 19.3 19.66 2.25 6.38 2.55 12.31.9 17.8-.93 3.31-3.31 7.95-7.16 13.94l-3.79 5.89c-2.07 3.21-3.05 6.45-2.94 9.72Zm4.72 43.33-1.94.68c-5.52 1.95-11.57-.95-13.52-6.47l-.45-1.28c-1.95-5.52.95-11.57 6.47-13.52l1.94-.68c5.52-1.95 11.57.95 13.52 6.47l.45 1.28c1.95 5.52-.95 11.57-6.47 13.52Z" style="fill:url(#Dégradé_sans_nom_11-7)"/><path d="m768.01 26.5 11.05 2.27c.53.11.97.49 1.14 1.01.17.52.05 1.08-.31 1.49l-7.49 8.44c-.36.41-.91.59-1.44.48s-.97-.49-1.14-1.01l-3.56-10.71c-.17-.52-.05-1.08.31-1.49.36-.41.91-.59 1.44-.48Zm7.86 4.72-5.9-1.21 1.9 5.71 4-4.5Z" style="fill:url(#Dégradé_sans_nom_11-8)"/><path d="m584.67 166.25 14.99 11.35c.72.55 1.1 1.43.98 2.33-.11.9-.69 1.67-1.53 2.02l-17.32 7.31c-.83.35-1.79.23-2.51-.31-.72-.55-1.1-1.43-.98-2.33l2.33-18.65c.11-.9.69-1.67 1.53-2.02.83-.35 1.79-.23 2.51.31Zm8.44 12.74-8-6.05-1.24 9.95 9.24-3.9Z" style="fill:url(#Dégradé_sans_nom_11-9)"/><path d="m516.72 58.76-14.14 5.09a2 2 0 0 1-1.99-.36c-.55-.47-.81-1.19-.69-1.9l2.66-14.79c.13-.71.63-1.3 1.31-1.55a2 2 0 0 1 1.99.36l11.48 9.7c.55.47.81 1.19.69 1.9-.13.71-.63 1.3-1.31 1.55Zm-12.21.1 7.54-2.72-6.12-5.17-1.42 7.89Z" style="fill:url(#Dégradé_sans_nom_11-10)"/><path d="m796.92 127.55 11.78-4.45a1.69 1.69 0 0 1 2.27 1.86l-2.03 12.43c-.1.6-.51 1.1-1.07 1.31s-1.2.11-1.67-.27l-9.75-7.97c-.47-.38-.7-.99-.6-1.59.1-.6.51-1.1 1.07-1.31Zm10.23-.24-6.28 2.38 5.2 4.25 1.08-6.63Z" style="fill:url(#Dégradé_sans_nom_11-11)"/><path d="m684.93 232.16 7.09-10.62c.34-.51.93-.8 1.54-.76.61.04 1.16.4 1.43.96l5.65 11.46c.27.55.23 1.21-.11 1.72s-.93.8-1.54.76l-12.75-.83c-.61-.04-1.16-.4-1.43-.96-.27-.55-.23-1.21.11-1.72Zm8.3-6.24-3.78 5.67 6.8.44-3.02-6.11Z" style="fill:url(#Dégradé_sans_nom_11-12)"/><path d="M595.1 67.62c5.1-1.5 10.45 1.43 11.95 6.53 1.5 5.1-1.43 10.46-6.53 11.95-5.1 1.5-10.45-1.43-11.94-6.53-1.5-5.1 1.43-10.45 6.53-11.94Zm6.96 7.99c-.69-2.35-3.15-3.69-5.5-3.01s-3.69 3.15-3.01 5.5 3.15 3.69 5.5 3.01 3.69-3.15 3.01-5.5Z" style="fill:url(#Dégradé_sans_nom_11-13)"/><path d="M736.51 69.15c3.43-1.01 7.03.96 8.04 4.39s-.96 7.04-4.4 8.04c-3.43 1.01-7.03-.97-8.04-4.4-1.01-3.43.96-7.03 4.39-8.04Zm4.68 5.38c-.46-1.58-2.12-2.49-3.7-2.02s-2.49 2.12-2.02 3.7 2.12 2.49 3.7 2.02 2.49-2.12 2.02-3.7Z" style="fill:url(#Dégradé_sans_nom_11-14)"/><path d="M744.7 282.75c4.12-3.6 10.39-3.18 13.99.94 3.6 4.12 3.18 10.4-.94 14-4.12 3.6-10.39 3.17-13.99-.95s-3.18-10.39.94-13.99Zm9.96 4.46c-1.66-1.9-4.54-2.09-6.44-.43s-2.09 4.54-.43 6.44 4.54 2.09 6.44.43 2.09-4.54.43-6.44Z" style="fill:url(#Dégradé_sans_nom_11-15)"/><path d="M613.15 285.87 598.56 266c-1.27-1.73-.9-4.16.83-5.43l19.87-14.59c1.73-1.27 4.16-.9 5.43.83l14.59 19.87c1.27 1.73.9 4.16-.83 5.43l-19.87 14.59c-1.73 1.27-4.16.9-5.43-.83Zm-6.03-21.34 9.99 13.61 13.61-9.99-9.99-13.61-13.61 9.99Z" style="fill:url(#Dégradé_sans_nom_11-16)"/><path d="m761 198.36-16.56-12.8a3.297 3.297 0 0 1-.59-4.63l12.8-16.56a3.297 3.297 0 0 1 4.63-.59l16.56 12.8a3.297 3.297 0 0 1 .59 4.63l-12.8 16.56a3.297 3.297 0 0 1-4.63.59Zm-9.92-16 11.34 8.77 8.77-11.34-11.34-8.77-8.77 11.34Z" style="fill:url(#Dégradé_sans_nom_11-17)"/><path d="m668.94 39.3-13.48 7.15a2.4 2.4 0 0 1-3.25-1l-7.15-13.48a2.4 2.4 0 0 1 1-3.25l13.48-7.15a2.4 2.4 0 0 1 3.25 1l7.15 13.48a2.4 2.4 0 0 1-1 3.25Zm-13.61 1.78 9.23-4.9-4.9-9.23-9.23 4.9 4.9 9.23Z" style="fill:url(#Dégradé_sans_nom_11-18)"/><path d="M114.23 26.98c.36.41.48.97.31 1.49l-3.56 10.71c-.17.52-.6.9-1.14 1.01s-1.08-.07-1.44-.48l-7.49-8.44c-.36-.41-.48-.97-.31-1.49.17-.52.6-.9 1.14-1.01l11.05-2.27c.53-.11 1.08.07 1.44.48Zm-5.31 8.74 1.9-5.71-5.9 1.21 4 4.5Z" style="fill:url(#Dégradé_sans_nom_11-19)"/><path d="M298.64 165.93c.83.35 1.42 1.12 1.53 2.02l2.33 18.65c.11.9-.26 1.79-.98 2.33-.72.55-1.68.67-2.51.31l-17.32-7.31a2.532 2.532 0 0 1-1.53-2.02c-.11-.9.26-1.79.98-2.33l14.99-11.35c.72-.55 1.68-.67 2.51-.31Zm-1.71 16.95-1.24-9.95-8 6.05 9.24 3.9Z" style="fill:url(#Dégradé_sans_nom_11-20)"/><path d="M84.95 128.86c.1.6-.13 1.2-.6 1.59l-9.75 7.97c-.47.38-1.11.49-1.67.27s-.98-.71-1.07-1.31l-2.03-12.43c-.1-.6.13-1.2.6-1.59.47-.38 1.11-.49 1.67-.27l11.78 4.45c.57.21.98.71 1.07 1.31Zm-10.22 5.08 5.2-4.25-6.28-2.38 1.08 6.63Z" style="fill:url(#Dégradé_sans_nom_11-21)"/><path d="M195.98 233.87c-.27.55-.82.92-1.43.96l-12.75.83c-.61.04-1.2-.25-1.54-.76s-.38-1.17-.11-1.72l5.65-11.46c.27-.55.82-.92 1.43-.96.61-.04 1.2.25 1.54.76l7.09 10.62c.34.51.38 1.17.11 1.72Zm-11.43-1.84 6.8-.44-3.78-5.67-3.02 6.11Z" style="fill:url(#Dégradé_sans_nom_11-22)"/><path d="M292.22 79.56c-1.5 5.1-6.84 8.03-11.94 6.53-5.1-1.5-8.03-6.85-6.53-11.95 1.5-5.1 6.85-8.02 11.95-6.53s8.02 6.84 6.53 11.94Zm-10.48 1.54c2.35.69 4.81-.66 5.5-3.01.69-2.35-.66-4.81-3.01-5.5s-4.81.66-5.5 3.01c-.69 2.35.66 4.81 3.01 5.5Z" style="fill:url(#Dégradé_sans_nom_11-23)"/><path d="M148.68 77.18a6.493 6.493 0 0 1-8.04 4.4c-3.43-1.01-5.4-4.61-4.4-8.04s4.61-5.4 8.04-4.39c3.43 1.01 5.4 4.6 4.39 8.04Zm-7.05 1.04a2.982 2.982 0 0 0 1.68-5.72 2.982 2.982 0 0 0-1.68 5.72Z" style="fill:url(#Dégradé_sans_nom_11-24)"/><path d="M137.04 296.74c-3.6 4.12-9.87 4.55-13.99.95-4.12-3.6-4.55-9.87-.94-14 3.6-4.12 9.87-4.54 13.99-.94s4.54 9.87.94 13.99Zm-10.47-3.09c1.9 1.66 4.78 1.46 6.44-.43s1.46-4.78-.43-6.44a4.57 4.57 0 0 0-6.44.43 4.57 4.57 0 0 0 .43 6.44Z" style="fill:url(#Dégradé_sans_nom_11-25)"/><path d="m262.21 286.7-19.87-14.59a3.883 3.883 0 0 1-.83-5.43l14.59-19.87c1.27-1.73 3.7-2.1 5.43-.83l19.87 14.59c1.73 1.27 2.1 3.7.83 5.43l-14.59 19.87a3.883 3.883 0 0 1-5.43.83Zm-2.15-32.16-9.99 13.61 13.61 9.99 9.99-13.61-13.61-9.99Z" style="fill:url(#Dégradé_sans_nom_11-26)"/><path d="m115.16 197.77-12.8-16.56a3.307 3.307 0 0 1 .59-4.63l16.56-12.8a3.307 3.307 0 0 1 4.63.59l12.8 16.56c1.11 1.44.85 3.51-.59 4.63l-16.56 12.8a3.307 3.307 0 0 1-4.63-.59Zm5.77-26.75-11.34 8.77 8.77 11.34 11.34-8.77-8.77-11.34Z" style="fill:url(#Dégradé_sans_nom_11-27)"/><path d="m210.86 36.05 7.15-13.48a2.41 2.41 0 0 1 3.25-1l13.48 7.15a2.41 2.41 0 0 1 1 3.25l-7.15 13.48a2.41 2.41 0 0 1-3.25 1l-13.48-7.15a2.41 2.41 0 0 1-1-3.25Zm19.5-4.2-9.23-4.9-4.9 9.23 9.23 4.9 4.9-9.23Z" style="fill:url(#Dégradé_sans_nom_11-28)"/><path d="m438.46 49.15-20.57 10.91c-1.79.95-4.01.27-4.96-1.52l-10.91-20.57a3.668 3.668 0 0 1 1.52-4.96l20.57-10.91c1.79-.95 4.01-.27 4.96 1.52l10.91 20.57c.95 1.79.27 4.01-1.52 4.96Zm-20.77 2.71 14.09-7.47-7.47-14.09-14.09 7.47 7.47 14.09Z" style="fill:url(#Dégradé_sans_nom_11-29)"/></svg>