<svg xmlns="http://www.w3.org/2000/svg" xmlns:xlink="http://www.w3.org/1999/xlink" id="Calque_1" data-name="Calque 1" viewBox="0 0 841.89 595.28"><defs><linearGradient id="Dégradé_sans_nom_11" x1="330.77" x2="511.17" y1="257.3" y2="437.7" data-name="Dégradé sans nom 11" gradientUnits="userSpaceOnUse"><stop offset=".1" stop-color="#5b5a72"/><stop offset=".5" stop-color="#b0b0bf"/><stop offset=".96" stop-color="#f4f4f6"/></linearGradient><linearGradient xlink:href="#Dégradé_sans_nom_11" id="Dégradé_sans_nom_11-2" x1="337.46" x2="498.91" y1="109.1" y2="270.54" data-name="Dégradé sans nom 11"/><linearGradient id="Dégradé_sans_nom_46" x1="311.32" x2="374.09" y1="312.33" y2="375.11" data-name="Dégradé sans nom 46" gradientUnits="userSpaceOnUse"><stop offset="0" stop-color="#5b5a72"/><stop offset="1" stop-color="#b0b0bf"/></linearGradient><linearGradient xlink:href="#Dégradé_sans_nom_11" id="Dégradé_sans_nom_11-3" x1="316.05" x2="454.03" y1="134.88" y2="272.86" data-name="Dégradé sans nom 11"/><linearGradient xlink:href="#Dégradé_sans_nom_11" id="Dégradé_sans_nom_11-4" x1="443.44" x2="584.45" y1="51.6" y2="192.61" data-name="Dégradé sans nom 11"/><linearGradient xlink:href="#Dégradé_sans_nom_11" id="Dégradé_sans_nom_11-5" x1="307.18" x2="487.58" y1="280.89" y2="461.29" data-name="Dégradé sans nom 11"/><linearGradient xlink:href="#Dégradé_sans_nom_46" id="Dégradé_sans_nom_46-2" x1="-155.52" x2="-148.03" y1="332.22" y2="339.71" data-name="Dégradé sans nom 46" gradientTransform="scale(-1 1) rotate(-63.23 -240.79 571.686)"/><linearGradient id="Dégradé_sans_nom_26" x1="390.61" x2="482.12" y1="392.02" y2="392.02" data-name="Dégradé sans nom 26" gradientTransform="rotate(76.51 493.913 378.436)" gradientUnits="userSpaceOnUse"><stop offset="0" stop-color="#b0b0bf"/><stop offset="1" stop-color="#f4f4f6"/></linearGradient><linearGradient xlink:href="#Dégradé_sans_nom_26" id="Dégradé_sans_nom_26-2" x1="516.34" x2="516.34" y1="303.32" y2="372.49" data-name="Dégradé sans nom 26"/><radialGradient id="Dégradé_sans_nom_17" cx="420.94" cy="545.6" r="128.87" data-name="Dégradé sans nom 17" fx="420.94" fy="545.6" gradientTransform="matrix(1 .00035 -.00004 .11 .02 483.42)" gradientUnits="userSpaceOnUse"><stop offset=".4" stop-color="#353544" stop-opacity=".5"/><stop offset="1" stop-color="#353544" stop-opacity="0"/></radialGradient><style>.cls-1,.cls-3{fill:#fff}.cls-5{fill:#5b5a72}.cls-6{fill:#353544}.cls-3{opacity:.5}</style></defs><path d="M487.35 384.26c-.17.04-.35.06-.52.06a2.42 2.42 0 0 1-2.28-1.61l-2.38-25.77c-.34-.96-.03-2.03.76-2.67l36.4-29.52 7.63-15.74c3.95-7.53-3.12-16.05-11.26-13.61l-84.26 25.55-6.08 73.54c-.46 5.4-8.37 5.4-8.82 0l-6.08-73.54-17.85-5.42 19.43 39.77c.54 1.1.5 2.4-.11 3.46a3.702 3.702 0 0 1-2.92 1.86c-.08 0-6.57.6-12.49 4.63-.16 1.07-.49 2.08-.89 2.92-1.25 2.61-3.39 4.17-5.7 4.17-.3 0-.6-.03-.9-.08-17.67-1.87-32.63-4.32-44.89-7.33l64.12 122.86c5.32 10.27 20.08 10.27 25.4 0l54.08-103.62c-.12.03-.25.05-.37.08Z" style="fill:url(#Dégradé_sans_nom_11)"/><path d="M517.71 144.01c-17.84-35.37-54.43-59.63-96.76-59.63s-78.92 24.27-96.76 59.63c-7.35 14.62-11.48 31.16-11.48 48.61 0 33.02 14.82 62.59 38.18 82.44l14.26-7.19c.52-.26 1.1-.4 1.67-.4.4 0 .8.06 1.18.19.94.32 1.72 1 2.15 1.89l11.7 23.96c12.13 4.7 25.31 7.28 39.1 7.28 59.79 0 108.24-48.46 108.24-108.17 0-17.45-4.13-33.99-11.48-48.61Zm-96.76 113.95c-27.86 0-50.52-18.02-50.52-40.25s22.66-40.31 50.52-40.31 50.52 18.02 50.52 40.31-22.58 40.25-50.52 40.25Z" style="fill:url(#Dégradé_sans_nom_11-2)"/><path d="M389.57 368.59c2.24.55 4.38-4.52 2.75-6.56-11.38-14.37-34.79-41.38-53.01-44.95-14.23-2.81-24.79 6.88-31.28 15.74 0 0-17.16 25.36 81.54 35.77Z" style="fill:url(#Dégradé_sans_nom_46)"/><ellipse cx="420.94" cy="545.6" rx="130.92" ry="15.9" style="fill:url(#Dégradé_sans_nom_17)"/><path d="M324.18 135.44V144c-7.35 14.62-11.48 31.16-11.48 48.61v-57.24c-5.36-4.37-9.11-17.43-9.11-29.48 0-16 6.66-24.94 14.93-24.94s14.93 8.94 14.93 24.94c0 12.05-3.83 25.19-9.26 29.56Z" style="fill:url(#Dégradé_sans_nom_11-3)"/><path d="M529.19 135.37v57.24c0-17.45-4.13-33.99-11.48-48.61v-8.56c-5.44-4.37-9.26-17.5-9.26-29.56 0-16 6.74-24.94 14.93-24.94s14.93 8.94 14.93 24.94c0 12.05-3.75 25.12-9.11 29.48Z" style="fill:url(#Dégradé_sans_nom_11-4)"/><path d="M434.33 271.18s-10.42 10.25-26.76 4.08" style="fill:none;stroke-width:3.81px;stroke:#5b5a72;stroke-linecap:round;stroke-linejoin:round"/><path d="M450.91 140.2s18.03-7.62 39.19 17.89c0 0-13.54-25.18-24.28-26.84-10.02-1.55-14.91 8.95-14.91 8.95ZM390.98 140.2s-18.03-7.62-39.19 17.89c0 0 13.54-25.18 24.28-26.84 10.02-1.55 14.91 8.95 14.91 8.95Z" class="cls-6"/><ellipse cx="470.5" cy="217.68" class="cls-6" rx="19.59" ry="33.22"/><ellipse cx="465.82" cy="208.9" class="cls-3" rx="4.55" ry="3.13"/><ellipse cx="472.78" cy="199.29" class="cls-3" rx="6.96" ry="6.11"/><ellipse cx="371.39" cy="217.68" class="cls-6" rx="19.59" ry="33.22"/><ellipse cx="366.69" cy="208.9" class="cls-3" rx="4.55" ry="3.13"/><ellipse cx="373.65" cy="199.29" class="cls-3" rx="6.96" ry="6.11"/><path d="m366.81 271.18-19.37 9.77 41.88 85.75c7.58-8.8 19.37-9.77 19.37-9.77l-41.88-85.75Z" class="cls-5"/><path d="m354.55 303.97-28.29-8.59c-8.14-2.43-15.21 6.08-11.33 13.61l4.29 8.21c4.83-2.86 9.91-4.33 15.13-4.33 1.88 0 3.79.19 5.68.56 8.45 1.66 17.72 7.66 26.74 15.53l-12.21-25Z" style="fill:url(#Dégradé_sans_nom_11-5)"/><path d="m412.93 382.35-4.24-25.42s-11.88.53-19.37 9.77l17.93 18.51 5.68-2.87Z" style="fill:#b0b0bf"/><path d="m408.69 356.93 4.24 25.42-5.68 2.87-17.93-18.51c7.49-9.25 19.37-9.77 19.37-9.77m0-3.71h-.17c-.55.02-13.65.72-22.09 11.15a3.711 3.711 0 0 0 .22 4.92l17.93 18.51c.72.74 1.69 1.13 2.67 1.13.57 0 1.14-.13 1.67-.4l5.68-2.87a3.71 3.71 0 0 0 1.99-3.93l-4.24-25.42c-.3-1.8-1.85-3.1-3.66-3.1Z" class="cls-1"/><path d="M407.25 385.22c2.07-3.12 5.68-2.87 5.68-2.87l1.24 7.48c.16.93-.99 1.51-1.65.83l-5.28-5.45Z" style="fill:url(#Dégradé_sans_nom_46-2)"/><path d="M412.73 382.34h.2l1.24 7.48c.11.65-.41 1.13-.96 1.13-.24 0-.48-.09-.68-.3l-5.28-5.45c1.78-2.68 4.69-2.87 5.48-2.87m0-3.71c-1.31 0-5.79.33-8.58 4.54-.96 1.45-.78 3.38.43 4.63l5.28 5.45a4.63 4.63 0 0 0 3.35 1.43c1.38 0 2.69-.61 3.59-1.66.89-1.04 1.26-2.42 1.04-3.79l-1.24-7.48c-.28-1.67-1.71-2.95-3.4-3.09 0 0-.17-.01-.46-.01Z" class="cls-1"/><path d="M458.8 400.77h-74.59c-3.88 0-7.52-1.3-8.15-2.94l-26.59-69.52c-1.64-4.28 2.3-7.9 8.87-7.9h126.33c6.57 0 10.51 3.62 8.87 7.9l-26.59 69.52c-.63 1.64-4.27 2.94-8.15 2.94Z" style="stroke:#5b5a72;stroke-linecap:round;stroke-linejoin:round;stroke-width:2.66px;fill:#fff"/><path d="M457.18 337.95h-71.37c-2.58 0-4.97-1.33-5.35-2.99l-3.33-14.74c-.45-1.98 1.52-3.62 4.41-3.62h79.89c2.89 0 4.86 1.64 4.41 3.62l-3.33 14.74c-.38 1.67-2.77 2.99-5.35 2.99Z" class="cls-5"/><path d="M485.73 362.12s-15.73-6.78-19.32 1.56 10.07 24.67 15.49 19.8c5.41-4.87 10.23-18.09 3.83-21.37Z" style="fill:url(#Dégradé_sans_nom_26)"/><path d="M542.62 330.57c-2.26-6.25-9.9-10.4-13.36-7.23l-42.11 34.15c.24.1.41.17.49.2.1.04.19.09.29.14 3.09 1.58 5.06 4.55 5.56 8.35.62 4.77-1.17 10.54-3.85 15.14 17.42-3.56 38.49-5.64 47.43-14.65 11.22-11.26 9.28-25.72 5.55-36.09Z" style="fill:url(#Dégradé_sans_nom_26-2)"/></svg>