<svg xmlns="http://www.w3.org/2000/svg" xmlns:xlink="http://www.w3.org/1999/xlink" id="Calque_1" data-name="Calque 1" viewBox="0 0 841.89 595.28"><defs><linearGradient id="Dégradé_sans_nom_46" x1="280.54" x2="387.53" y1="342.11" y2="449.11" data-name="Dégradé sans nom 46" gradientUnits="userSpaceOnUse"><stop offset="0" stop-color="#5b5a72"/><stop offset="1" stop-color="#b0b0bf"/></linearGradient><linearGradient id="Dégradé_sans_nom_10" x1="459.54" x2="539.38" y1="356.73" y2="436.57" data-name="Dégradé sans nom 10" gradientUnits="userSpaceOnUse"><stop offset="0" stop-color="#b0b0bf"/><stop offset="1" stop-color="#f4f4f6"/></linearGradient><linearGradient id="Dégradé_sans_nom_6" x1="316.93" x2="515.66" y1="111.47" y2="310.2" data-name="Dégradé sans nom 6" gradientUnits="userSpaceOnUse"><stop offset=".1" stop-color="#5b5a72"/><stop offset=".5" stop-color="#b0b0bf"/><stop offset=".96" stop-color="#f4f4f6"/></linearGradient><linearGradient xlink:href="#Dégradé_sans_nom_6" id="Dégradé_sans_nom_6-2" x1="409.79" x2="606.9" y1="-4.96" y2="192.15" data-name="Dégradé sans nom 6"/><linearGradient xlink:href="#Dégradé_sans_nom_6" id="Dégradé_sans_nom_6-3" x1="338.01" x2="498.4" y1="110.35" y2="270.74" data-name="Dégradé sans nom 6"/><linearGradient xlink:href="#Dégradé_sans_nom_10" id="Dégradé_sans_nom_10-2" x1="417.1" x2="462.88" y1="299.7" y2="345.49" data-name="Dégradé sans nom 10"/><linearGradient xlink:href="#Dégradé_sans_nom_6" id="Dégradé_sans_nom_6-4" x1="476.95" x2="522.37" y1="304.51" y2="349.93" data-name="Dégradé sans nom 6"/><linearGradient xlink:href="#Dégradé_sans_nom_6" id="Dégradé_sans_nom_6-5" x1="307.31" x2="472.06" y1="302.82" y2="467.56" data-name="Dégradé sans nom 6"/><linearGradient xlink:href="#Dégradé_sans_nom_6" id="Dégradé_sans_nom_6-6" x1="425.23" x2="430.12" y1="365.25" y2="370.14" data-name="Dégradé sans nom 6"/><linearGradient id="Dégradé_sans_nom_11" x1="1004.1" x2="1022.78" y1="872.9" y2="891.58" data-name="Dégradé sans nom 11" gradientTransform="rotate(56.77 1385.942 143.25)" gradientUnits="userSpaceOnUse"><stop offset=".1" stop-color="#5b5a72"/><stop offset=".5" stop-color="#b0b0bf"/><stop offset=".96" stop-color="#f4f4f6"/></linearGradient><linearGradient xlink:href="#Dégradé_sans_nom_11" id="Dégradé_sans_nom_11-2" x1="390.8" x2="401.23" y1="-417.52" y2="-407.09" data-name="Dégradé sans nom 11" gradientTransform="rotate(20.35 -998.127 545.665)"/><linearGradient xlink:href="#Dégradé_sans_nom_11" id="Dégradé_sans_nom_11-3" x1="1247.68" x2="1260.28" y1="1113.02" y2="1125.62" data-name="Dégradé sans nom 11" gradientTransform="rotate(69.51 1603.422 138.253)"/><linearGradient xlink:href="#Dégradé_sans_nom_11" id="Dégradé_sans_nom_11-4" x1="378.53" x2="386.29" y1="-328.76" y2="-321" data-name="Dégradé sans nom 11" gradientTransform="rotate(20.35 -998.127 545.665)"/><linearGradient xlink:href="#Dégradé_sans_nom_11" id="Dégradé_sans_nom_11-5" x1="824.63" x2="842.29" y1="-1897.22" y2="-1879.56" data-name="Dégradé sans nom 11" gradientTransform="rotate(-23.78 5694.383 -445.853)"/><linearGradient xlink:href="#Dégradé_sans_nom_11" id="Dégradé_sans_nom_11-6" x1="760.57" x2="771.51" y1="-1822.93" y2="-1811.98" data-name="Dégradé sans nom 11" gradientTransform="rotate(-23.78 5694.383 -445.853)"/><linearGradient xlink:href="#Dégradé_sans_nom_11" id="Dégradé_sans_nom_11-7" x1="1004.1" x2="1022.78" y1="872.9" y2="891.58" data-name="Dégradé sans nom 11" gradientTransform="scale(-1 1) rotate(56.77 964.997 -635.758)"/><linearGradient xlink:href="#Dégradé_sans_nom_11" id="Dégradé_sans_nom_11-8" x1="390.8" x2="401.23" y1="-417.52" y2="-407.09" data-name="Dégradé sans nom 11" gradientTransform="scale(-1 1) rotate(20.35 -1419.072 -1799.72)"/><linearGradient xlink:href="#Dégradé_sans_nom_11" id="Dégradé_sans_nom_11-9" x1="1247.68" x2="1260.28" y1="1113.02" y2="1125.62" data-name="Dégradé sans nom 11" gradientTransform="scale(-1 1) rotate(69.51 1182.477 -468.424)"/><linearGradient xlink:href="#Dégradé_sans_nom_11" id="Dégradé_sans_nom_11-10" x1="378.53" x2="386.29" y1="-328.76" y2="-321" data-name="Dégradé sans nom 11" gradientTransform="scale(-1 1) rotate(20.35 -1419.072 -1799.72)"/><linearGradient xlink:href="#Dégradé_sans_nom_11" id="Dégradé_sans_nom_11-11" x1="824.63" x2="842.29" y1="-1897.22" y2="-1879.56" data-name="Dégradé sans nom 11" gradientTransform="scale(-1 1) rotate(-23.78 5273.438 1553.403)"/><linearGradient xlink:href="#Dégradé_sans_nom_11" id="Dégradé_sans_nom_11-12" x1="760.57" x2="771.51" y1="-1822.93" y2="-1811.98" data-name="Dégradé sans nom 11" gradientTransform="scale(-1 1) rotate(-23.78 5273.438 1553.403)"/><radialGradient id="Dégradé_sans_nom_17" cx="420.94" cy="545.6" r="128.87" data-name="Dégradé sans nom 17" fx="420.94" fy="545.6" gradientTransform="matrix(1 .00035 -.00004 .11 .02 483.42)" gradientUnits="userSpaceOnUse"><stop offset=".4" stop-color="#353544" stop-opacity=".5"/><stop offset="1" stop-color="#353544" stop-opacity="0"/></radialGradient><style>.cls-1{fill:#fff}.cls-2{fill:#5b5a72}.cls-3{fill:#353544}</style></defs><ellipse cx="420.94" cy="545.6" rx="130.92" ry="15.9" style="fill:url(#Dégradé_sans_nom_17)"/><path d="m313.1 336 64.49 129.36c1.75 3.57-2.59 7.07-5.63 4.49-21.37-18.02-62.59-55.14-75.9-84.26-10.42-22.74-5.48-39.77.68-50.27 3.73-6.31 13.08-5.93 16.35.68Z" style="fill:url(#Dégradé_sans_nom_46)"/><path d="M545.14 335.31c6.16 10.5 11.1 27.53.68 50.27-13.31 29.13-54.53 66.24-75.9 84.26-3.04 2.59-7.38-.91-5.63-4.49l64.49-129.36c3.27-6.62 12.62-7 16.35-.68Z" style="fill:url(#Dégradé_sans_nom_10)"/><path d="M324.82 86.32v58.71c-7.3 14.53-11.41 30.95-11.41 48.29V86.24c-5.32-4.72-9.05-15.82-9.05-28.82 0-17.26 6.62-23.65 14.83-23.65s14.83 6.39 14.83 23.65c0 13-3.8 24.18-9.2 28.9Z" style="fill:url(#Dégradé_sans_nom_6)"/><path d="M528.48 86.24v107.08c0-17.34-4.11-33.77-11.41-48.29V86.32c-5.4-4.72-9.2-15.89-9.2-28.9 0-17.26 6.69-23.65 14.83-23.65s14.83 6.39 14.83 23.65c0 13-3.73 24.11-9.05 28.82Z" style="fill:url(#Dégradé_sans_nom_6-2)"/><path d="M420.94 243.44c27.76 0 50.19-22.44 50.19-50.12s-22.44-50.19-50.19-50.19-50.19 22.44-50.19 50.19 22.51 50.12 50.19 50.12Zm96.13-98.41c7.3 14.53 11.41 30.95 11.41 48.29 0 59.32-48.14 107.46-107.54 107.46S313.4 252.64 313.4 193.32c0-17.34 4.11-33.77 11.41-48.29 17.72-35.14 54.07-59.24 96.13-59.24s78.41 24.11 96.13 59.24Z" style="fill:url(#Dégradé_sans_nom_6-3)"/><path d="M399.38 253.53h43.13s-2.26 17.99-21.56 17.89c-19.68 0-21.56-17.89-21.56-17.89Z" class="cls-2"/><path d="M450.91 125.24s18.03-7.62 39.19 17.89c0 0-13.54-25.18-24.28-26.84-10.02-1.55-14.91 8.95-14.91 8.95ZM390.98 125.24s-18.03-7.62-39.19 17.89c0 0 13.54-25.18 24.28-26.84 10.02-1.55 14.91 8.95 14.91 8.95ZM356.5 199.53c-.98 2.02-4.07 1.21-3.91-1.03.85-11.56 4.74-25.07 18.28-25.07s18.26 14.39 19.43 26.18c.23 2.3-2.89 3.14-3.93 1.08-2.86-5.61-7.65-10.77-15.62-10.77-7.42 0-11.74 4.47-14.25 9.62ZM455.49 199.53c-.98 2.02-4.07 1.21-3.91-1.03.85-11.56 4.74-25.07 18.28-25.07s18.26 14.39 19.43 26.18c.23 2.3-2.89 3.14-3.93 1.08-2.86-5.61-7.65-10.77-15.62-10.77-7.42 0-11.74 4.47-14.25 9.62Z" class="cls-3"/><circle cx="459.31" cy="341.91" r="33.76" style="fill:url(#Dégradé_sans_nom_10-2)"/><path d="m515.7 295.39-40.8 12.37c12.94 5.94 21.96 19.01 21.96 34.15 0 8.84-3.08 16.98-8.21 23.4l3.82 9.76 34.49-66.08c3.95-7.53-3.12-16.05-11.26-13.61Z" style="fill:url(#Dégradé_sans_nom_6-4)"/><path d="M459.31 314.56c15.11 0 27.35 12.25 27.35 27.35s-12.25 27.35-27.35 27.35-27.35-12.25-27.35-27.35 12.25-27.35 27.35-27.35m0-2c-16.19 0-29.35 13.17-29.35 29.35s13.17 29.35 29.35 29.35 29.35-13.17 29.35-29.35-13.17-29.35-29.35-29.35Z" class="cls-1"/><path d="M462.71 323.18v24.23h-6.05v-12.99c0-1.88-.04-3-.13-3.38s-.34-.67-.74-.86-1.3-.29-2.7-.29h-.6v-2.83c2.92-.63 5.14-1.92 6.66-3.88h3.56ZM459.33 351.78l2.09 4.24 4.68.68-3.38 3.29.8 4.66-4.19-2.2-4.18 2.2.8-4.66-3.38-3.29 4.67-.68 2.09-4.24zM472.06 350.74l1.35 2.73 3.01.44-2.18 2.13.52 3.01-2.7-1.42-2.7 1.42.51-3.01-2.18-2.13 3.02-.44 1.35-2.73zM446.61 350.74l-1.35 2.73-3.02.44 2.19 2.13-.52 3.01 2.7-1.42 2.7 1.42-.52-3.01 2.19-2.13-3.02-.44-1.35-2.73z" class="cls-1"/><path d="m480.33 395.43-6.94 15.87a3.795 3.795 0 0 1-3.48 2.28h-.07c-1.54-.03-2.9-.98-3.46-2.41l-7.04-17.98-7.04 17.98a3.799 3.799 0 0 1-3.46 2.41h-.07c-1.51 0-2.88-.89-3.48-2.28l-6.94-15.87-15.87 6.94c-.49.21-1.01.32-1.52.32a3.79 3.79 0 0 1-3.53-5.18l.18-.45c-.56-.65-.96-1.5-1.05-2.57l-6.08-73.54-84.19-25.55c-8.14-2.43-15.21 6.08-11.33 13.61l93.32 178.8c5.32 10.27 20.08 10.27 25.4 0l47.92-91.82-1.24-.54Z" style="fill:url(#Dégradé_sans_nom_6-5)"/><path d="M430 365.35a38.33 38.33 0 0 1-2.01-2.73l-.82 9.97 2.83-7.23Z" style="fill:url(#Dégradé_sans_nom_6-6)"/><path d="m574.29 231.12-3.53 6 2.84 6.1a.99.99 0 0 1-1.11 1.38l-6.57-1.46-4.92 4.58c-.6.56-1.57.19-1.65-.63l-.64-6.7-5.88-3.27c-.71-.4-.66-1.44.09-1.76l6.17-2.68 1.29-6.6a.982.982 0 0 1 1.7-.46l4.46 5.04 6.91-.84c.71-.09 1.22.68.85 1.3Z" style="fill:url(#Dégradé_sans_nom_11)"/><path d="m645.07 126.31.4 3.87 3.3 1.8c.4.22.38.8-.04.98l-3.43 1.52-.69 3.69c-.08.45-.64.6-.95.27l-2.51-2.79-3.72.48c-.45.06-.77-.43-.55-.82l1.88-3.25-1.61-3.39c-.2-.41.17-.87.61-.77l3.67.79 2.83-2.67c.29-.28.77-.1.81.3Z" style="fill:url(#Dégradé_sans_nom_11-2)"/><path d="m569.95 152.31-3.22 3.42.96 4.43a.66.66 0 0 1-.93.74l-4.1-1.93-3.92 2.28a.66.66 0 0 1-.99-.66l.57-4.5-3.38-3.02a.667.667 0 0 1 .32-1.15l4.46-.85 1.83-4.15c.22-.5.92-.53 1.19-.05l2.18 3.98 4.67.47c.48.05.7.63.37.98Z" style="fill:url(#Dégradé_sans_nom_11-3)"/><path d="m601.16 205.09.3 2.87 2.45 1.34c.3.16.28.59-.03.73l-2.55 1.13-.51 2.74c-.06.33-.48.45-.71.2l-1.87-2.08-2.77.36c-.34.04-.58-.32-.41-.61l1.4-2.42-1.2-2.52a.4.4 0 0 1 .45-.57l2.73.58 2.1-1.99c.22-.2.57-.07.61.22Z" style="fill:url(#Dégradé_sans_nom_11-4)"/><path d="m660.82 183.4 5.05 4.23 6.13-1.7c.74-.21 1.4.53 1.11 1.24l-2.38 5.9 3.51 5.3c.43.64-.07 1.5-.84 1.44l-6.34-.44-3.96 4.98a.93.93 0 0 1-1.63-.35l-1.54-6.17-5.96-2.23a.932.932 0 0 1-.17-1.66l5.39-3.37.29-6.58a.82.82 0 0 1 1.35-.59Z" style="fill:url(#Dégradé_sans_nom_11-5)"/><path d="m629.06 279.58 3.13 2.62 3.8-1.05c.46-.13.87.33.69.77l-1.47 3.66 2.18 3.29c.26.4-.04.93-.52.89l-3.93-.27-2.45 3.08c-.3.37-.89.24-1.01-.22l-.96-3.82-3.69-1.38a.575.575 0 0 1-.1-1.03l3.34-2.09.18-4.08c.02-.42.51-.64.83-.37Z" style="fill:url(#Dégradé_sans_nom_11-6)"/><path d="m267.6 231.12 3.53 6-2.84 6.1a.99.99 0 0 0 1.11 1.38l6.57-1.46 4.92 4.58c.6.56 1.57.19 1.65-.63l.64-6.7 5.88-3.27c.71-.4.66-1.44-.09-1.76l-6.17-2.68-1.29-6.6a.982.982 0 0 0-1.7-.46l-4.46 5.04-6.91-.84a.865.865 0 0 0-.85 1.3Z" style="fill:url(#Dégradé_sans_nom_11-7)"/><path d="m196.82 126.31-.4 3.87-3.3 1.8c-.4.22-.38.8.04.98l3.43 1.52.69 3.69c.08.45.64.6.95.27l2.51-2.79 3.72.48c.45.06.77-.43.55-.82l-1.88-3.25 1.61-3.39c.2-.41-.17-.87-.61-.77l-3.67.79-2.83-2.67a.48.48 0 0 0-.81.3Z" style="fill:url(#Dégradé_sans_nom_11-8)"/><path d="m271.94 152.31 3.22 3.42-.96 4.43c-.12.54.43.98.93.74l4.1-1.93 3.92 2.28a.66.66 0 0 0 .99-.66l-.57-4.5 3.38-3.02a.667.667 0 0 0-.32-1.15l-4.46-.85-1.83-4.15c-.22-.5-.92-.53-1.19-.05l-2.18 3.98-4.67.47c-.48.05-.7.63-.37.98Z" style="fill:url(#Dégradé_sans_nom_11-9)"/><path d="m240.73 205.09-.3 2.87-2.45 1.34c-.3.16-.28.59.03.73l2.55 1.13.51 2.74c.06.33.48.45.71.2l1.87-2.08 2.77.36c.34.04.58-.32.41-.61l-1.4-2.42 1.2-2.52a.4.4 0 0 0-.45-.57l-2.73.58-2.1-1.99a.366.366 0 0 0-.61.22Z" style="fill:url(#Dégradé_sans_nom_11-10)"/><path d="m181.07 183.4-5.05 4.23-6.13-1.7a.927.927 0 0 0-1.11 1.24l2.38 5.9-3.51 5.3c-.43.64.07 1.5.84 1.44l6.34-.44 3.96 4.98c.48.6 1.44.4 1.63-.35l1.54-6.17 5.96-2.23c.72-.27.82-1.25.17-1.66l-5.39-3.37-.29-6.58a.82.82 0 0 0-1.35-.59Z" style="fill:url(#Dégradé_sans_nom_11-11)"/><path d="m212.83 279.58-3.13 2.62-3.8-1.05a.576.576 0 0 0-.69.77l1.47 3.66-2.18 3.29c-.26.4.04.93.52.89l3.93-.27 2.45 3.08c.3.37.89.24 1.01-.22l.96-3.82 3.69-1.38c.45-.17.51-.78.1-1.03l-3.34-2.09-.18-4.08a.507.507 0 0 0-.83-.37Z" style="fill:url(#Dégradé_sans_nom_11-12)"/><path d="M485.82 368.49c-6.8 6.78-16.17 10.98-26.51 10.98-.43 0-.85-.02-1.28-.03l11.88 30.34 8.46-19.35 19.35 8.46-11.91-30.4Z" class="cls-2"/><path d="M459.31 379.47c-10.32 0-19.68-4.18-26.47-10.94l-11.89 30.36 19.35-8.46 8.46 19.35 11.89-30.34c-.44.02-.89.03-1.33.03Z" class="cls-2"/></svg>