<svg xmlns="http://www.w3.org/2000/svg" xmlns:xlink="http://www.w3.org/1999/xlink" id="Calque_1" data-name="Calque 1" viewBox="0 0 841.89 595.28"><defs><linearGradient id="Dégradé_sans_nom_11" x1="324.47" x2="511.04" y1="207.58" y2="394.15" data-name="Dégradé sans nom 11" gradientUnits="userSpaceOnUse"><stop offset=".1" stop-color="#5b5a72"/><stop offset=".5" stop-color="#b0b0bf"/><stop offset=".96" stop-color="#f4f4f6"/></linearGradient><linearGradient xlink:href="#Dégradé_sans_nom_11" id="Dégradé_sans_nom_11-2" x1="299.96" x2="531.12" y1="208.89" y2="440.04" data-name="Dégradé sans nom 11"/><linearGradient xlink:href="#Dégradé_sans_nom_11" id="Dégradé_sans_nom_11-3" x1="407.97" x2="637.25" y1="73.45" y2="302.73" data-name="Dégradé sans nom 11"/><linearGradient xlink:href="#Dégradé_sans_nom_11" id="Dégradé_sans_nom_11-4" x1="605.17" x2="758.45" y1="239.1" y2="392.38" data-name="Dégradé sans nom 11"/><linearGradient xlink:href="#Dégradé_sans_nom_11" id="Dégradé_sans_nom_11-5" x1="126.44" x2="279.72" y1="239.1" y2="392.38" data-name="Dégradé sans nom 11"/><radialGradient id="Dégradé_sans_nom_17" cx="1006.46" cy="465.88" r="88.27" data-name="Dégradé sans nom 17" fx="1006.46" fy="465.88" gradientTransform="matrix(1.45 .00025 -.00002 .11 -1034.5 412.55)" gradientUnits="userSpaceOnUse"><stop offset=".4" stop-color="#353544" stop-opacity=".5"/><stop offset="1" stop-color="#353544" stop-opacity="0"/></radialGradient><radialGradient xlink:href="#Dégradé_sans_nom_17" id="Dégradé_sans_nom_17-2" cx="1069.94" r="88.27" data-name="Dégradé sans nom 17" fx="1069.94" gradientTransform="matrix(1.26 .00044 -.00004 .11 -683.71 412.53)"/><radialGradient xlink:href="#Dégradé_sans_nom_17" id="Dégradé_sans_nom_17-3" cx="688.84" r="88.27" data-name="Dégradé sans nom 17" fx="688.84" gradientTransform="matrix(1.26 .00044 -.00004 .11 -683.71 412.67)"/><style>.cls-2{fill:#353544}</style></defs><path d="M420.94 362.39c32.29 0 58.38-26.1 58.38-58.3s-26.1-58.38-58.38-58.38-58.38 26.1-58.38 58.38 26.18 58.3 58.38 58.3Zm111.81-114.47c8.49 16.9 13.27 36 13.27 56.17 0 69-56 125-125.08 125s-125.08-56-125.08-125c0-20.17 4.78-39.28 13.27-56.17 20.61-40.87 62.9-68.91 111.81-68.91s91.2 28.04 111.81 68.91Z" style="fill:url(#Dégradé_sans_nom_11)"/><path d="M345.82 317.97c-1.15 2.35-4.75 1.41-4.55-1.2.99-13.48 5.53-29.23 21.31-29.23s21.29 16.78 22.65 30.52c.27 2.68-3.36 3.66-4.59 1.26-3.33-6.54-8.92-12.56-18.21-12.56-8.65 0-13.68 5.22-16.61 11.22ZM461.21 317.97c-1.15 2.35-4.75 1.41-4.55-1.2.99-13.48 5.53-29.23 21.31-29.23s21.29 16.78 22.65 30.52c.27 2.68-3.36 3.66-4.59 1.26-3.33-6.54-8.92-12.56-18.21-12.56-8.65 0-13.68 5.22-16.61 11.22Z" class="cls-2"/><path d="M395.86 374.1h50.17s-2.63 20.92-25.08 20.81c-22.89 0-25.08-20.81-25.08-20.81Z" style="fill:#5b5a72"/><path d="M309.13 179.63v68.29c-8.49 16.9-13.27 36-13.27 56.17V179.54c-6.19-5.48-10.53-18.4-10.53-33.53 0-20.08 7.7-27.51 17.25-27.51s17.25 7.43 17.25 27.51c0 15.13-4.42 28.13-10.7 33.62Z" style="fill:url(#Dégradé_sans_nom_11-2)"/><path d="M546.03 179.54v124.55c0-20.17-4.78-39.28-13.27-56.17v-68.29c-6.28-5.48-10.7-18.49-10.7-33.62 0-20.08 7.78-27.51 17.25-27.51s17.25 7.43 17.25 27.51c0 15.13-4.33 28.04-10.53 33.53Z" style="fill:url(#Dégradé_sans_nom_11-3)"/><path d="M322.94 247.92s-16.99 59.95 1.56 61.05c18.54 1.1-1.56-61.05-1.56-61.05Z" style="fill:#fff;opacity:.5"/><path d="M458.39 217.89s-9.38 14.72 5.21 18.94c15.97 4.62 37.4 11.09 37.4 11.09s-42.3-17.45-42.62-30.03ZM382.75 217.89s9.38 14.72-5.21 18.94c-15.97 4.62-37.4 11.09-37.4 11.09s42.3-17.45 42.62-30.03Z" class="cls-2"/><path d="M672.73 429.09v-50.2H570.64v-41.86l108.22-158.41h40.16v158.24h30.97v42.03h-30.97v50.2h-46.28Zm0-92.22v-85.25l-57.34 85.25h57.34Z" style="fill:url(#Dégradé_sans_nom_11-4)"/><path d="M194 429.09v-50.2H91.91v-41.86l108.22-158.41h40.16v158.24h30.97v42.03h-30.97v50.2h-46.28Zm0-92.22v-85.25l-57.34 85.25H194Z" style="fill:url(#Dégradé_sans_nom_11-5)"/><ellipse cx="420.94" cy="465.88" rx="129.68" ry="10.89" style="fill:url(#Dégradé_sans_nom_17)"/><ellipse cx="660.31" cy="465.88" rx="112.65" ry="10.89" style="fill:url(#Dégradé_sans_nom_17-2)"/><ellipse cx="181.58" cy="465.88" rx="112.65" ry="10.89" style="fill:url(#Dégradé_sans_nom_17-3)"/></svg>