<svg xmlns="http://www.w3.org/2000/svg" xmlns:xlink="http://www.w3.org/1999/xlink" id="Calque_1" data-name="Calque 1" viewBox="0 0 841.89 595.28"><defs><linearGradient id="Dégradé_sans_nom_11" x1="383.34" x2="545.31" y1="220.54" y2="382.51" data-name="Dégradé sans nom 11" gradientUnits="userSpaceOnUse"><stop offset=".1" stop-color="#5b5a72"/><stop offset=".5" stop-color="#b0b0bf"/><stop offset=".96" stop-color="#f4f4f6"/></linearGradient><linearGradient xlink:href="#Dégradé_sans_nom_11" id="Dégradé_sans_nom_11-2" x1="343.66" x2="505.63" y1="260.23" y2="422.19" data-name="Dégradé sans nom 11"/><linearGradient id="Dégradé_sans_nom_4" x1="316.92" x2="453.76" y1="136.35" y2="273.18" data-name="Dégradé sans nom 4" gradientUnits="userSpaceOnUse"><stop offset=".1" stop-color="#5b5a72"/><stop offset=".5" stop-color="#b0b0bf"/><stop offset=".96" stop-color="#f4f4f6"/></linearGradient><linearGradient xlink:href="#Dégradé_sans_nom_4" id="Dégradé_sans_nom_4-2" x1="443.25" x2="583.09" y1="53.76" y2="193.6" data-name="Dégradé sans nom 4"/><linearGradient xlink:href="#Dégradé_sans_nom_4" id="Dégradé_sans_nom_4-3" x1="338.15" x2="498.26" y1="110.78" y2="270.88" data-name="Dégradé sans nom 4"/><linearGradient id="Dégradé_sans_nom_26" x1="548.55" x2="490.71" y1="295.95" y2="353.79" data-name="Dégradé sans nom 26" gradientUnits="userSpaceOnUse"><stop offset="0" stop-color="#b0b0bf"/><stop offset="1" stop-color="#f4f4f6"/></linearGradient><linearGradient id="Dégradé_sans_nom_46" x1="295.5" x2="348.05" y1="297.37" y2="349.91" data-name="Dégradé sans nom 46" gradientUnits="userSpaceOnUse"><stop offset="0" stop-color="#5b5a72"/><stop offset="1" stop-color="#b0b0bf"/></linearGradient><linearGradient xlink:href="#Dégradé_sans_nom_26" id="Dégradé_sans_nom_26-2" x1="557.64" x2="499.8" y1="305.04" y2="362.88" data-name="Dégradé sans nom 26"/><linearGradient xlink:href="#Dégradé_sans_nom_46" id="Dégradé_sans_nom_46-2" x1="286.34" x2="338.88" y1="306.54" y2="359.08" data-name="Dégradé sans nom 46"/><linearGradient xlink:href="#Dégradé_sans_nom_11" id="Dégradé_sans_nom_11-3" x1="308.19" x2="470.16" y1="295.7" y2="457.66" data-name="Dégradé sans nom 11"/><radialGradient id="Dégradé_sans_nom_17" cx="422.78" cy="553.67" r="128.87" data-name="Dégradé sans nom 17" fx="422.78" fy="553.67" gradientTransform="matrix(1 .00035 -.00004 .11 .02 490.57)" gradientUnits="userSpaceOnUse"><stop offset=".4" stop-color="#353544" stop-opacity=".5"/><stop offset="1" stop-color="#353544" stop-opacity="0"/></radialGradient><radialGradient xlink:href="#Dégradé_sans_nom_17" id="Dégradé_sans_nom_17-2" cx="617.17" cy="553.67" r="95.93" data-name="Dégradé sans nom 17" fx="617.17" fy="553.67" gradientTransform="matrix(1 .00035 -.00004 .11 .02 490.5)"/><radialGradient xlink:href="#Dégradé_sans_nom_17" id="Dégradé_sans_nom_17-3" cx="228.39" cy="553.67" r="95.93" data-name="Dégradé sans nom 17" fx="228.39" fy="553.67" gradientTransform="matrix(1 .00035 -.00004 .11 .02 490.64)"/><style>.cls-2{fill:#b0b0bf}.cls-3{fill:#5b5a72}.cls-4{fill:#353544}.cls-19{fill:#fff;opacity:.5}</style></defs><path d="m515.7 295.39-84.26 25.55-.95 11.43a8.225 8.225 0 0 1 4.39-1.28c.93 0 1.86.16 2.75.47l9.42 3.3a9.085 9.085 0 0 1 8.27-5.34c1.02 0 2.03.17 3 .51l11.34 3.97c4.32 1.51 8.32 3.75 11.85 6.58.52-.3 1.05-.54 1.6-.73 6.84-5.05 16.02-10.7 25.99-15.92 3.04-1.59 8.12-4.16 13.45-6.46l4.41-8.45c3.95-7.53-3.12-16.05-11.26-13.61Z" style="fill:url(#Dégradé_sans_nom_11)"/><path d="m439.43 356.51 1.04-2.98 1.05-2.99-9.38-3.28a8.27 8.27 0 0 1-2.74-1.6l-.6 7.25c.42.08.84.18 1.25.33l9.39 3.28Z" style="fill:url(#Dégradé_sans_nom_11-2)"/><path d="M324.99 136.9v8.49c-7.29 14.5-11.39 30.9-11.39 48.21v-56.77c-5.31-4.33-9.03-17.29-9.03-29.24 0-15.87 6.6-24.73 14.8-24.73s14.8 8.86 14.8 24.73c0 11.95-3.8 24.98-9.19 29.31Z" style="fill:url(#Dégradé_sans_nom_4)"/><path d="M528.29 136.83v56.77c0-17.31-4.1-33.71-11.39-48.21v-8.49c-5.39-4.33-9.19-17.36-9.19-29.31 0-15.87 6.68-24.73 14.8-24.73s14.8 8.86 14.8 24.73c0 11.95-3.72 24.91-9.03 29.24Z" style="fill:url(#Dégradé_sans_nom_4-2)"/><path d="M420.94 258.4c27.71 0 50.1-17.87 50.1-39.92s-22.4-39.98-50.1-39.98-50.1 17.87-50.1 39.98 22.47 39.92 50.1 39.92Zm95.96-113.01c7.29 14.5 11.39 30.9 11.39 48.21 0 59.21-48.06 107.27-107.35 107.27S313.59 252.81 313.59 193.6c0-17.31 4.1-33.71 11.39-48.21 17.69-35.07 53.98-59.14 95.96-59.14s78.27 24.07 95.96 59.14Z" style="fill:url(#Dégradé_sans_nom_4-3)"/><path d="M481.6 246.6c5.06-5.31 8.37-14.77 8.37-28.14 0-21.75-8.76-33.16-19.56-33.16s-19.56 11.41-19.56 33.16c0 13.63 3.44 23.2 8.66 28.45l22.08-.3Z" class="cls-4"/><ellipse cx="465.74" cy="209.7" class="cls-19" rx="4.55" ry="3.12"/><ellipse cx="472.69" cy="200.1" class="cls-19" rx="6.95" ry="6.1"/><path d="M382.66 246.6c5.06-5.31 8.37-14.77 8.37-28.14 0-21.75-8.76-33.16-19.56-33.16s-19.56 11.41-19.56 33.16c0 13.63 3.44 23.2 8.66 28.45l22.08-.3Z" class="cls-4"/><ellipse cx="366.8" cy="209.7" class="cls-19" rx="4.55" ry="3.12"/><ellipse cx="373.75" cy="200.1" class="cls-19" rx="6.95" ry="6.1"/><ellipse cx="422.78" cy="553.67" rx="130.92" ry="15.9" style="fill:url(#Dégradé_sans_nom_17)"/><ellipse cx="617.17" cy="553.67" rx="97.46" ry="11.84" style="fill:url(#Dégradé_sans_nom_17-2)"/><ellipse cx="228.39" cy="553.67" rx="97.46" ry="11.84" style="fill:url(#Dégradé_sans_nom_17-3)"/><path d="M403.12 269.86s22.18-6.97 35.65 4.03" style="fill:none;stroke:#5b5a72;stroke-linecap:round;stroke-linejoin:round;stroke-width:4px"/><path d="M405.17 269.26s-1.38 7.64 4.48 8.91c5.86 1.27 5.58-10.36 5.58-10.36s-5.04.3-10.06 1.45Z" style="fill:#cf4d3b"/><path d="M483.31 343.9s-14.99 10.63-9.35 18.57c5.64 7.94 28.23 4.54 26.8-3.14-1.44-7.68-10.86-19.48-17.44-15.44Z" style="fill:url(#Dégradé_sans_nom_26)"/><path d="M361.19 346.61s16.05 8.96 11.3 17.46-27.58 7.55-26.98-.24c.6-7.79 8.71-20.53 15.68-17.22Z" style="fill:url(#Dégradé_sans_nom_46)"/><path d="M447.66 161.88s2.42 14.82 14.2 9.16c12.89-6.19 30.34-14.32 30.34-14.32s-37.13 13.05-44.54 5.16ZM394.23 161.88s-2.42 14.82-14.2 9.16c-12.89-6.19-30.34-14.32-30.34-14.32s37.13 13.05 44.54 5.16Z" class="cls-4"/><path d="M540.38 316.3c-6.75-1.15-33.32 11.72-50.76 23.58 7.21 2.45 13.61 12.02 14.87 18.76.42 2.26-.2 4.53-1.76 6.41-.63.76-1.39 1.43-2.24 2.02 11.42-1.38 21.48-3.71 31.05-7.26 15.89-5.9 18.26-16.44 18.22-27.58 0 0-.52-14.41-9.37-15.92Z" style="fill:url(#Dégradé_sans_nom_26-2)"/><path d="M488.85 371.93s-5.19.3-9.49-1.94c-3.75-.98-6.72-2.8-8.51-5.31-1.95-2.75-4.18-8.59 2.74-16.9 1.6-1.92 3.37-3.58 4.79-4.81a36.716 36.716 0 0 0-9.99-5.4l-11.34-3.97c-2.75-.96-5.77.49-6.73 3.24l-6.27 17.93-6.27 17.93c-.96 2.75.49 5.77 3.24 6.73l11.34 3.97c6.4 2.24 13.3 2.64 19.91 1.17l20.12-7.15 2.07-5.93c-1.84.16-3.71.3-5.63.42Z" class="cls-3"/><path d="m445.76 338.43-9.38-3.28c-2.36-.82-4.93.42-5.76 2.77-.82 2.35.42 4.93 2.77 5.76l9.38 3.28 2.98-8.53ZM438.17 360.1l-9.38-3.28c-2.36-.82-4.93.42-5.76 2.77-.82 2.36.42 4.93 2.77 5.76l9.38 3.28 2.98-8.53Z" class="cls-2"/><path d="M692.66 492.01c-74.56 31.27-156.48-5.34-149.94-62.33 4.58-39.89-20.15-54.54-35.4-59.75-2.99.48-6.07.88-9.26 1.22l.58-.06-2.55 7.3c8.74 2.55 30.3 10.57 33.84 28.56 3.12 15.84-11.17 49.21 27.44 84.14 36.63 33.15 101.35 31.82 137.65 14.7L692.65 492ZM409.6 370.49l-8.28-17.1-8.28-17.1c-1.27-2.63-4.43-3.72-7.06-2.45l-10.81 5.23a36.29 36.29 0 0 0-9.01 6.22c1.51 1.05 3.36 2.46 5.09 4.13 7.78 7.51 6.18 13.57 4.54 16.5-3.27 5.86-11.51 7.94-18.13 7.94-1.29 0-3.41-.09-5.69-.53l3.91 8.07 20.81 4.81c6.74.71 13.55-.48 19.65-3.43l10.81-5.23c2.63-1.27 3.72-4.43 2.45-7.06Z" class="cls-3"/><path d="M341.72 363.54c.58-7.52 6.82-18.71 14.5-20.89-17.08-12.51-47.42-27.59-54.71-26.35-8.85 1.51-9.37 15.92-9.37 15.92-.04 11.13 2.32 21.68 18.22 27.58 9.83 3.65 20.18 6.01 31.99 7.37a7.357 7.357 0 0 1-.63-3.63Z" style="fill:url(#Dégradé_sans_nom_46-2)"/><path d="M473.55 388.16c-.15.05-.29.09-.44.13-2.86.64-5.81.96-8.74.96-4.52 0-8.98-.76-13.25-2.25l-11.34-3.97c-4.73-1.65-7.23-6.84-5.57-11.57-.09.25-.16.51-.23.77l-6.59-2.3-2.03 24.56c-.46 5.4-8.37 5.4-8.82 0l-6.08-73.54-84.19-25.55c-8.14-2.43-15.21 6.08-11.33 13.61l4.41 8.45c5.33 2.3 10.42 4.87 13.46 6.46 12.18 6.38 23.19 13.4 30.17 19.18 3.08-3.02 6.63-5.54 10.56-7.44l10.81-5.23a9.07 9.07 0 0 1 3.95-.91c3.46 0 6.67 2.01 8.18 5.13l8.28 17.1 8.28 17.1c1.06 2.18 1.2 4.65.4 6.94a9.022 9.022 0 0 1-4.62 5.19l-10.81 5.23a40.435 40.435 0 0 1-17.49 4.01c-1.4 0-2.82-.07-4.22-.22-.15-.02-.31-.04-.46-.08l-20.81-4.81c-.16-.04-.31-.11-.46-.16l53.68 102.85c5.32 10.27 20.08 10.27 25.4 0l54.75-104.91-14.85 5.27Z" style="fill:url(#Dégradé_sans_nom_11-3)"/><path d="m352.33 382.8-4.59-9.49c-.09-.19-.15-.39-.21-.59-11.66 3.78-46.68 19.23-36.11 66.1 12.63 55.96-64.89 101.15-142.37 78.07l-.87 13.96c35.72 12.26 103.51 6.38 136.37-30.51 34.63-38.87 15.74-69.41 17.14-85.5 1.6-18.32 22.26-28.61 30.64-32.06Z" class="cls-3"/></svg>