<svg xmlns="http://www.w3.org/2000/svg" xmlns:xlink="http://www.w3.org/1999/xlink" id="Calque_1" data-name="Calque 1" viewBox="0 0 841.89 595.28"><defs><linearGradient id="Dégradé_sans_nom_11" x1="173.33" x2="374.52" y1="47.4" y2="248.59" data-name="Dégradé sans nom 11" gradientUnits="userSpaceOnUse"><stop offset=".1" stop-color="#5b5a72"/><stop offset=".5" stop-color="#b0b0bf"/><stop offset=".96" stop-color="#f4f4f6"/></linearGradient><linearGradient id="Dégradé_sans_nom_18" x1="243.02" x2="135.82" y1="341.39" y2="448.59" data-name="Dégradé sans nom 18" gradientUnits="userSpaceOnUse"><stop offset="0" stop-color="#5b5a72"/><stop offset="1" stop-color="#b0b0bf"/></linearGradient><linearGradient xlink:href="#Dégradé_sans_nom_11" id="Dégradé_sans_nom_11-2" x1="201.52" x2="365.26" y1="276.44" y2="440.18" data-name="Dégradé sans nom 11"/><linearGradient id="Dégradé_sans_nom_26" x1="341.32" x2="443.84" y1="373.05" y2="270.52" data-name="Dégradé sans nom 26" gradientUnits="userSpaceOnUse"><stop offset="0" stop-color="#b0b0bf"/><stop offset="1" stop-color="#f4f4f6"/></linearGradient><linearGradient id="Dégradé_sans_nom_46" x1="418.89" x2="507.07" y1="255.94" y2="344.12" data-name="Dégradé sans nom 46" gradientUnits="userSpaceOnUse"><stop offset="0" stop-color="#5b5a72"/><stop offset="1" stop-color="#b0b0bf"/></linearGradient><linearGradient xlink:href="#Dégradé_sans_nom_46" id="Dégradé_sans_nom_46-2" x1="432.39" x2="432.68" y1="336.4" y2="336.69" data-name="Dégradé sans nom 46"/><radialGradient id="Dégradé_sans_nom_17" cx="808.71" cy="549" r="128.75" data-name="Dégradé sans nom 17" fx="808.71" fy="549" gradientTransform="matrix(-1.68 .0003 .00002 .11 1692.31 486.3)" gradientUnits="userSpaceOnUse"><stop offset=".4" stop-color="#353544" stop-opacity=".5"/><stop offset="1" stop-color="#353544" stop-opacity="0"/></radialGradient><style>.cls-2,.cls-3{fill:#fff}.cls-4{fill:#b0b0bf}.cls-5{fill:#5b5a72}.cls-6{fill:#353544}.cls-3{opacity:.5}</style></defs><path d="M371.95 148.79c-1.19-2.37-2.48-4.68-3.84-6.95V92.78c4.56-4.53 7.76-15.19 7.76-27.69 0-16.58-5.67-22.42-12.71-22.42s-12.71 5.84-12.71 22.42c0 12.49 3.26 23.23 7.89 27.76v35.27c-19.71-23.54-49.29-38.53-82.43-38.53s-61.16 14.21-80.85 36.7V90.12c5.39-4.71 9.19-15.88 9.19-28.87 0-17.25-6.69-23.63-14.82-23.63S174.61 44 174.61 61.25c0 12.99 3.72 24.09 9.04 28.8v51.87c-1.34 2.24-2.61 4.53-3.79 6.87-7.29 14.51-11.4 30.92-11.4 48.25 0 59.27 48.1 107.36 107.44 107.36s107.44-48.1 107.44-107.36c0-17.32-4.1-33.74-11.4-48.25Zm-68.22 98.32c-23 0-41.58-22.41-41.58-50.07s18.59-50.15 41.58-50.15 41.58 22.41 41.58 50.15-18.65 50.07-41.58 50.07Z" style="fill:url(#Dégradé_sans_nom_11)"/><path d="M600.88 124.62c-50.73 9.55-69.42 51.86-76.29 80.61.17-.01.34-.03.51-.03.97 0 1.92.17 2.81.5h.01c2.78 1.03 4.77 3.48 5.48 6.71l.3 1.39c1.65-6.96 4.77-17.44 10.36-28.44 12.73-25.09 32.26-40.55 56.48-44.71 17.81-3.06 33.28.11 46 9.4 25.72 18.81 31.1 55.71 31.32 57.27.15 1.1-.61 2.11-1.71 2.27-1.1.15-2.11-.61-2.27-1.71-.05-.37-5.39-36.8-29.73-54.59-11.8-8.62-26.24-11.54-42.93-8.67-23.2 3.99-41.21 18.27-53.52 42.46-9.27 18.21-11.63 35.5-11.66 35.67-.03.26-.12.5-.23.71l10.2 46.83c.48 2.19.35 4.57-.37 6.87-1.06 3.39-3.26 6.22-6.05 7.76l-5.35 2.97v215.06a2.01 2.01 0 0 1-4.02 0V290.13l-9.63 5.35v224.68l174.44 32.85V215.84s-2.43-108.49-94.15-91.22Zm76.99 402.66a2.01 2.01 0 0 1-4.02 0V272.74a2.01 2.01 0 0 1 4.02 0v254.54Z" class="cls-4"/><path d="M772.91 212.57c-.94-49.42-42.05-88.63-91.48-88.28l-32.5.13c17.31 7.43 30.77 22.05 39.62 43.33 9.85 23.7 10.48 47.01 10.5 47.99V551.47l73.89-27.99V215.84c0-1.1-.01-2.19-.03-3.27Z" class="cls-5"/><path d="m656.16 249.61-105.48 7.4v-23.22l105.48-9.76v25.58z" class="cls-6"/><path d="M613.93 181.42c0-9.2-6.12-15.75-13.57-14.63-7.35 1.1-13.24 9.26-13.24 18.24s5.89 15.56 13.24 14.68c7.45-.89 13.57-9.08 13.57-18.29Z" class="cls-2"/><path d="m656.16 509.15-105.48-16.5V292.31l105.48-3.82v220.66z" class="cls-4"/><path d="M656.16 511.16c-.1 0-.21 0-.31-.02l-105.48-16.5c-.98-.15-1.7-1-1.7-1.99V292.31c0-1.08.86-1.97 1.94-2.01l105.48-3.82c.56-.02 1.08.18 1.47.56.39.38.61.9.61 1.45v220.66c0 .59-.26 1.15-.7 1.53-.37.31-.83.48-1.31.48Zm-103.47-20.23 101.46 15.87V290.58l-101.46 3.67v196.68Z" class="cls-2"/><ellipse cx="335.92" cy="549" rx="219.39" ry="15.89" style="fill:url(#Dégradé_sans_nom_17)"/><path d="M250.77 225.69c-5.35-5.2-8.89-14.85-8.89-28.68 0-21.77 8.76-33.19 19.58-33.19 10.81 0 19.58 11.42 19.58 33.19 0 13.61-3.42 23.17-8.63 28.43 0 0-11.03-4.42-21.63.25Z" class="cls-6"/><ellipse cx="266.14" cy="188.24" class="cls-3" rx="4.55" ry="3.13"/><ellipse cx="259.18" cy="178.64" class="cls-3" rx="6.95" ry="6.11"/><path d="M334.77 223.25c-3.91-4.89-7.01-14.14-7.01-26.24 0-19.93 6.9-30.39 15.42-30.39s15.42 10.45 15.42 30.39c0 12.65-2.78 21.48-6.98 26.24 0 0-8.4-4.02-16.85 0Z" class="cls-6"/><ellipse cx="346.88" cy="188.98" class="cls-3" rx="3.58" ry="2.86"/><ellipse cx="341.4" cy="180.19" class="cls-3" rx="5.48" ry="5.59"/><path d="M218.79 335.13s-20.35-9.02-41.14 36.05c-20.79 45.07-25.75 91.3-16.31 94.33 7.13 2.29 27.24-34.16 48.64-72.27 21.99-39.15 19.89-53.35 8.8-58.11Z" style="fill:url(#Dégradé_sans_nom_18)"/><path d="m363.48 299.01-53.7 25.53-5.03 73.47c-.38 5.39-5.22 5.39-5.68 0l-6.02-73.47-102.62-25.53c-8.13-2.43-15.2 6.08-11.25 13.6l14.43 27.65c.94-.89 1.89-1.73 2.84-2.5 7.33-5.92 13.73-7.17 17.81-7.17 3.49 0 5.66.89 6.02 1.04 4.68 2.01 7.82 5.32 9.36 9.84 3.14 9.26-.63 23.76-11.8 45.21l54.57 104.56c5.32 10.26 18.89 10.26 23.29 0l77.15-178.63c3.21-7.52-2.64-16.03-9.37-13.6Z" style="fill:url(#Dégradé_sans_nom_11-2)"/><path d="M314.65 257.27s-1.33 10.42-8.28 11.26c-11.1 1.34-13.58-11.26-13.58-11.26" style="fill:none;stroke:#5b5a72;stroke-linecap:round;stroke-linejoin:round;stroke-width:3.8px"/><path d="M281.03 135.35s-18.01-7.61-39.15 17.88c0 0 13.53-25.16 24.26-26.82 10.01-1.54 14.9 8.94 14.9 8.94ZM330.72 137.37s12.83-6.75 27.88 15.86c0 0-9.63-22.32-17.27-23.79-7.13-1.37-10.61 7.93-10.61 7.93Z" class="cls-6"/><path d="M417.27 292.19c-11.54 3.31-25.25 8.54-39.76 15.73.04 2.1-.33 4.22-1.17 6.2l-17.83 41.28c9.32-3.5 21.09-9.15 35.56-17.02 11.45-6.23 21.22-12.51 29.25-18.4l-6.05-27.78Z" style="fill:url(#Dégradé_sans_nom_26)"/><path d="M474.76 289.58c.3.11.61.2.92.27l.27.06c.24.05.49.09.73.12.08 0 .16.02.24.03.31.03.63.05.95.04h.25c.25 0 .5-.02.75-.05.11-.01.23-.03.34-.05.22-.03.44-.07.66-.12.12-.03.24-.05.36-.08.23-.06.46-.12.69-.19a13.17 13.17 0 0 0 1.29-.48h.04c.31-.14.62-.3.93-.46.03-.01.05-.03.08-.05.08-.04.15-.09.23-.13.22-.13.43-.26.64-.39a23.251 23.251 0 0 0 .95-.67c.11-.08.21-.16.31-.24.23-.19.45-.38.68-.58l.21-.18c.29-.27.57-.55.84-.84l.03-.03c.06-.06.11-.13.17-.2.21-.23.41-.46.61-.7.09-.11.18-.23.27-.34.17-.22.34-.44.5-.67.09-.12.18-.25.26-.38.17-.24.33-.49.48-.75.02-.03.04-.07.06-.1a21.536 21.536 0 0 0 .79-1.41l8.41-16.62 27.91-55.09c-.21-.08-.43-.13-.65-.18-.05 0-.1-.02-.15-.03-.22-.04-.45-.06-.68-.06h-.1c-.05 0-.1 0-.16.01-.11 0-.22 0-.33.02-.06 0-.13.02-.2.03-.14.02-.27.05-.41.08l-.21.06c-.03 0-.06.02-.09.03-.11.03-.22.07-.33.11-.06.02-.13.05-.19.07-.11.05-.22.1-.33.16-.09.05-.19.08-.28.14l-33.57 18.64-67.13 37.28c-.27.15-.51.33-.76.52-.37.27-.72.58-1.04.92 0 0-.02.01-.02.02-.33.34-.63.72-.9 1.12-.24.36-.46.74-.66 1.13l43.29 15.55 13.06 4.69ZM529.37 212.18l-25.19 49.73 37.66 10.3.39.02c.08 0 .16.03.24.04-.03-.4-.08-.79-.17-1.18l-12.61-57.88c-.08-.37-.19-.71-.32-1.03Z" class="cls-5"/><path d="m461.7 284.88-43.29-15.55 43.29 15.55z" style="fill:url(#Dégradé_sans_nom_46)"/><path d="M456.19 286.94 417.38 273c-.07.85-.03 1.69.15 2.51l12.59 57.8 26.07-46.36Z" class="cls-5"/><path d="m432.04 336.79.83-.64-.83.64z" style="fill:url(#Dégradé_sans_nom_46-2)"/><path d="m542.02 276.03-.79-.04-38.8-10.62-.35.69-8.41 16.62c-3.45 6.82-9.68 11.22-15.86 11.22-1.49 0-2.95-.25-4.33-.75l-13.06-4.69-.6-.22-26.94 47.91-.83.64c.2.17.41.32.63.45.07.04.15.07.22.11.15.08.31.16.46.22.09.04.19.06.28.09.15.05.3.09.45.12.1.02.21.03.31.05.15.02.3.04.46.04h.39c.1 0 .2 0 .3-.02.15-.02.29-.04.44-.07.1-.02.19-.03.29-.06.16-.04.33-.1.49-.16.08-.03.17-.05.25-.09.25-.1.5-.22.75-.35l99.96-55.51c2-1.11 3.53-3.22 4.27-5.58Z" class="cls-5"/></svg>