<svg xmlns="http://www.w3.org/2000/svg" xmlns:xlink="http://www.w3.org/1999/xlink" id="Calque_1" data-name="Calque 1" viewBox="0 0 841.89 595.28"><defs><linearGradient id="Dégradé_sans_nom_11" x1="278.88" x2="550.31" y1="302.68" y2="574.12" data-name="Dégradé sans nom 11" gradientUnits="userSpaceOnUse"><stop offset=".1" stop-color="#5b5a72"/><stop offset=".5" stop-color="#b0b0bf"/><stop offset=".96" stop-color="#f4f4f6"/></linearGradient><linearGradient xlink:href="#Dégradé_sans_nom_11" id="Dégradé_sans_nom_11-2" x1="405.71" x2="674.94" y1="143.65" y2="412.87" data-name="Dégradé sans nom 11"/><linearGradient xlink:href="#Dégradé_sans_nom_11" id="Dégradé_sans_nom_11-3" x1="307.66" x2="526.74" y1="301.15" y2="520.23" data-name="Dégradé sans nom 11"/><linearGradient xlink:href="#Dégradé_sans_nom_11" id="Dégradé_sans_nom_11-4" x1="423.93" x2="423.93" y1="23.03" y2="148" data-name="Dégradé sans nom 11"/><linearGradient xlink:href="#Dégradé_sans_nom_11" id="Dégradé_sans_nom_11-5" x1="522.67" x2="522.67" y1="99.83" y2="189.08" data-name="Dégradé sans nom 11"/><linearGradient xlink:href="#Dégradé_sans_nom_11" id="Dégradé_sans_nom_11-6" x1="325.27" x2="325.27" y1="100.71" y2="188.74" data-name="Dégradé sans nom 11"/><style>.cls-2{fill:#353544}.cls-9{fill:#fff;opacity:.5}</style></defs><path d="M289.65 268.33v80.19c-9.97 19.84-15.58 42.28-15.58 65.96V268.22c-7.27-6.44-12.36-21.61-12.36-39.37 0-23.58 9.04-32.3 20.26-32.3s20.26 8.72 20.26 32.3c0 17.76-5.19 33.03-12.57 39.47Z" style="fill:url(#Dégradé_sans_nom_11)"/><path d="M567.83 268.22v146.26c0-23.68-5.61-46.12-15.58-65.96v-80.19c-7.38-6.44-12.57-21.71-12.57-39.47 0-23.58 9.14-32.3 20.26-32.3s20.26 8.72 20.26 32.3c0 17.76-5.09 32.93-12.36 39.37Z" style="fill:url(#Dégradé_sans_nom_11-2)"/><path d="M420.94 482.94c37.91 0 68.56-30.64 68.56-68.45s-30.64-68.56-68.56-68.56-68.56 30.64-68.56 68.56 30.75 68.45 68.56 68.45Zm131.3-134.42c9.97 19.84 15.58 42.28 15.58 65.96 0 81.02-65.75 146.78-146.88 146.78s-146.88-65.75-146.88-146.78c0-23.68 5.61-46.12 15.58-65.96 24.2-47.99 73.86-80.92 131.3-80.92s107.1 32.93 131.3 80.92Z" style="fill:url(#Dégradé_sans_nom_11-3)"/><ellipse cx="488.64" cy="414.43" class="cls-2" rx="26.76" ry="45.37"/><ellipse cx="482.24" cy="402.45" class="cls-9" rx="6.22" ry="4.28"/><ellipse cx="491.75" cy="389.32" class="cls-9" rx="9.51" ry="8.35"/><ellipse cx="353.25" cy="414.43" class="cls-2" rx="26.76" ry="45.37"/><ellipse cx="346.84" cy="402.45" class="cls-9" rx="6.22" ry="4.28"/><ellipse cx="356.35" cy="389.32" class="cls-9" rx="9.51" ry="8.35"/><path d="M461.87 308.46s24.62-10.41 53.53 24.44c0 0-18.49-34.4-33.16-36.66-13.68-2.11-20.37 12.22-20.37 12.22ZM380.02 308.46s-24.62-10.41-53.53 24.44c0 0 18.49-34.4 33.16-36.66 13.68-2.11 20.37 12.22 20.37 12.22Z" class="cls-2"/><ellipse cx="420.94" cy="522.08" rx="14.77" ry="14.31" style="fill:#5b5a72"/><path d="M437.02 124.43c-.11.35-.22.74-.31 1.15-1.39 5.91-6.6 10.15-12.67 10.15-7.93 0-14.07-7.06-12.86-14.9.48-3.13 1.09-5.61 1.83-7.44 1.66-4.11 5.93-8.85 12.82-14.21l6.98-5.45c2.3-1.72 4.15-3.6 5.55-5.64 2.55-3.51 3.83-7.37 3.83-11.58 0-4.85-1.42-9.26-4.26-13.25s-8.02-5.98-15.55-5.98-12.65 2.46-15.74 7.37c-1.37 2.18-2.44 4.4-3.21 6.66-1.78 5.26-6.91 8.65-12.46 8.65h-1.44c-8.7 0-15.06-8.42-12.46-16.71 3.01-9.62 8.45-16.93 16.32-21.94 7.52-4.85 16.77-7.27 27.75-7.27 14.41 0 26.39 3.44 35.93 10.33 9.53 6.89 14.3 17.09 14.3 30.61 0 8.29-2.07 15.28-6.22 20.95-2.42 3.44-7.08 7.84-13.97 13.2l-6.79 5.26c-3.7 2.87-6.16 6.22-7.37 10.05Zm-12.23 52.05h-2.52c-7.18 0-13-5.82-13-13v-1.66c0-7.18 5.82-13 13-13h2.52c7.18 0 13 5.82 13 13v1.66c0 7.18-5.82 13-13 13Z" style="fill:url(#Dégradé_sans_nom_11-4)"/><path d="M517.47 174.52c-.18.15-.38.33-.57.52-2.84 2.74-7.16 3.21-10.47 1.08-4.33-2.79-5.19-8.79-1.78-12.64 1.36-1.54 2.57-2.68 3.61-3.41 2.35-1.66 6.34-2.74 11.98-3.24l5.72-.52c1.86-.13 3.52-.51 5.01-1.13 2.62-1.02 4.67-2.67 6.15-4.97 1.7-2.64 2.48-5.55 2.33-8.72-.15-3.17-2.27-6.08-6.38-8.72-4.03-2.6-7.76-3.1-11.17-1.51-1.52.71-2.88 1.54-4.09 2.51-2.82 2.24-6.8 2.29-9.83.34l-.79-.51c-4.74-3.05-5.25-9.88-.92-13.49 5.02-4.19 10.55-6.26 16.6-6.23 5.8 0 11.7 1.93 17.68 5.78 7.86 5.06 13.18 11.14 15.96 18.25 2.78 7.1 1.8 14.34-2.95 21.71-2.91 4.52-6.5 7.6-10.75 9.24-2.53 1.03-6.61 1.79-12.25 2.29l-5.55.48c-3.03.27-5.54 1.23-7.54 2.89Zm-24.94 24.08-1.37-.88c-3.91-2.52-5.04-7.74-2.52-11.65l.58-.9c2.52-3.91 7.74-5.04 11.65-2.52l1.37.88c3.91 2.52 5.04 7.74 2.52 11.65l-.58.9c-2.52 3.91-7.74 5.04-11.65 2.52Z" style="fill:url(#Dégradé_sans_nom_11-5)"/><path d="M345.06 164.74c.07.23.15.47.25.73 1.43 3.67.2 7.85-3.05 10.08-4.24 2.91-10.11 1.39-12.34-3.25-.89-1.85-1.48-3.4-1.75-4.65-.62-2.81-.08-6.91 1.64-12.3l1.73-5.48c.59-1.76.89-3.45.89-5.05.08-2.81-.66-5.34-2.2-7.59-1.78-2.59-4.16-4.43-7.14-5.52-2.98-1.09-6.48-.25-10.51 2.51-3.96 2.72-5.86 5.96-5.71 9.72.07 1.67.31 3.25.73 4.74.98 3.46-.52 7.16-3.49 9.2l-.77.53c-4.65 3.19-11.14 1.03-12.8-4.36-1.92-6.25-1.7-12.15.67-17.72 2.24-5.35 6.3-10.04 12.16-14.07 7.71-5.29 15.37-7.85 23-7.67 7.62.18 13.92 3.89 18.89 11.11 3.04 4.43 4.5 8.93 4.37 13.48-.03 2.73-.9 6.79-2.62 12.19l-1.7 5.31c-.92 2.89-1.01 5.58-.25 8.07Zm12.57 32.31-1.35.92a8.433 8.433 0 0 1-11.72-2.18l-.61-.89a8.433 8.433 0 0 1 2.18-11.72l1.35-.92a8.433 8.433 0 0 1 11.72 2.18l.61.89a8.433 8.433 0 0 1-2.18 11.72Z" style="fill:url(#Dégradé_sans_nom_11-6)"/></svg>