<svg xmlns="http://www.w3.org/2000/svg" xmlns:xlink="http://www.w3.org/1999/xlink" id="Calque_1" data-name="Calque 1" viewBox="0 0 841.89 595.28"><defs><linearGradient id="Dégradé_sans_nom_11" x1="365.83" x2="472.42" y1="202.41" y2="309.01" data-name="Dégradé sans nom 11" gradientUnits="userSpaceOnUse"><stop offset=".1" stop-color="#5b5a72"/><stop offset=".5" stop-color="#b0b0bf"/><stop offset=".96" stop-color="#f4f4f6"/></linearGradient><linearGradient xlink:href="#Dégradé_sans_nom_11" id="Dégradé_sans_nom_11-2" x1="339.97" x2="494.68" y1="211.16" y2="365.87" data-name="Dégradé sans nom 11"/><linearGradient xlink:href="#Dégradé_sans_nom_11" id="Dégradé_sans_nom_11-3" x1="412.26" x2="565.71" y1="120.52" y2="273.96" data-name="Dégradé sans nom 11"/><linearGradient id="Dégradé_sans_nom_46" x1="298.46" x2="320.46" y1="345.89" y2="367.89" data-name="Dégradé sans nom 46" gradientUnits="userSpaceOnUse"><stop offset="0" stop-color="#5b5a72"/><stop offset="1" stop-color="#b0b0bf"/></linearGradient><linearGradient xlink:href="#Dégradé_sans_nom_11" id="Dégradé_sans_nom_11-4" x1="324.6" x2="502.83" y1="262.3" y2="440.53" data-name="Dégradé sans nom 11"/><linearGradient id="Dégradé_sans_nom_26" x1="551.79" x2="532.26" y1="337.54" y2="357.08" data-name="Dégradé sans nom 26" gradientUnits="userSpaceOnUse"><stop offset="0" stop-color="#b0b0bf"/><stop offset="1" stop-color="#f4f4f6"/></linearGradient><linearGradient xlink:href="#Dégradé_sans_nom_11" id="Dégradé_sans_nom_11-5" x1="311.33" x2="462.95" y1="346.73" y2="498.35" data-name="Dégradé sans nom 11"/><linearGradient xlink:href="#Dégradé_sans_nom_11" id="Dégradé_sans_nom_11-6" x1="452.59" x2="490.61" y1="283.95" y2="321.97" data-name="Dégradé sans nom 11"/><linearGradient xlink:href="#Dégradé_sans_nom_11" id="Dégradé_sans_nom_11-7" x1="338.06" x2="402.55" y1="270.71" y2="335.21" data-name="Dégradé sans nom 11"/><linearGradient xlink:href="#Dégradé_sans_nom_11" id="Dégradé_sans_nom_11-8" x1="1877.32" x2="1901.41" y1="4.84" y2="28.92" data-name="Dégradé sans nom 11" gradientTransform="rotate(3.91 -32.03 -24078.01)"/><linearGradient xlink:href="#Dégradé_sans_nom_11" id="Dégradé_sans_nom_11-9" x1="2296.48" x2="2314.65" y1="31.91" y2="50.08" data-name="Dégradé sans nom 11" gradientTransform="rotate(69.89 1406.283 -1092.803)"/><linearGradient xlink:href="#Dégradé_sans_nom_11" id="Dégradé_sans_nom_11-10" x1="829.38" x2="856.64" y1="-1418.15" y2="-1390.89" data-name="Dégradé sans nom 11" gradientTransform="rotate(-41.14 2906.904 -244.942)"/><linearGradient xlink:href="#Dégradé_sans_nom_11" id="Dégradé_sans_nom_11-11" x1="902.74" x2="920.56" y1="-1601.44" y2="-1583.61" data-name="Dégradé sans nom 11" gradientTransform="rotate(-41.14 2906.904 -244.942)"/><linearGradient xlink:href="#Dégradé_sans_nom_11" id="Dégradé_sans_nom_11-12" x1="550.73" x2="567.64" y1="-1606.35" y2="-1589.44" data-name="Dégradé sans nom 11" gradientTransform="rotate(-41.14 2906.904 -244.942)"/><linearGradient xlink:href="#Dégradé_sans_nom_11" id="Dégradé_sans_nom_11-13" x1="-1019.55" x2="-993.96" y1="5364.75" y2="5390.35" data-name="Dégradé sans nom 11" gradientTransform="rotate(37.71 7412.407 4902.409)"/><linearGradient xlink:href="#Dégradé_sans_nom_11" id="Dégradé_sans_nom_11-14" x1="-1192.83" x2="-1174.12" y1="5597.59" y2="5616.3" data-name="Dégradé sans nom 11" gradientTransform="rotate(37.71 7412.407 4902.409)"/><radialGradient id="Dégradé_sans_nom_17" cx="420.94" cy="549.12" r="100.32" data-name="Dégradé sans nom 17" fx="420.94" fy="549.12" gradientTransform="matrix(1 .00035 -.00004 .11 .02 486.55)" gradientUnits="userSpaceOnUse"><stop offset=".4" stop-color="#353544" stop-opacity=".5"/><stop offset="1" stop-color="#353544" stop-opacity="0"/></radialGradient><style>.cls-1{fill:#f4f4f6}.cls-2,.cls-3{fill:#fff}.cls-5{fill:#5b5a72}.cls-6{fill:#353544}.cls-3{opacity:.5}</style></defs><path d="M341.35 272.77c1.68-.1 3.37-.15 5.03-.15 12.52 0 24.54 2.74 35.93 8.14-.29-1.92-.44-3.88-.44-5.88 0-21.61 17.52-39.08 39.08-39.08s39.08 17.47 39.08 39.08c0 2.01-.15 3.98-.44 5.9 11.4-5.41 23.43-8.16 35.95-8.16 1.66 0 3.34.05 5.01.14 1.67.09 3.13.9 4.12 2.1 0-13.49-3.2-26.28-8.88-37.58-13.8-27.35-42.1-46.12-74.84-46.12s-61.04 18.77-74.84 46.12c-5.68 11.3-8.88 24.09-8.88 37.58.99-1.2 2.45-2 4.12-2.1Z" style="fill:url(#Dégradé_sans_nom_11)"/><path d="m429.87 317.17 87.51-23.67s.05-.01.08-.02l.7-.17v-5.64c0-.56-.36-1.07-.9-1.26a71.344 71.344 0 0 0-15.72-3.57v-4.3c0-.71-.55-1.3-1.26-1.34-42.44-2.43-68.38 28.44-77.13 39.97h6.71ZM324.44 293.47s.05.01.08.02l87.57 23.67h6.65c-8.74-11.52-34.64-42.41-77.14-39.97-.71.04-1.26.63-1.26 1.34v4.3a71.43 71.43 0 0 0-15.7 3.57c-.53.19-.9.69-.9 1.26v5.64l.69.17Z" class="cls-2"/><ellipse cx="420.94" cy="549.12" rx="101.92" ry="12.38" style="fill:url(#Dégradé_sans_nom_17)"/><path d="M346.11 191.58v45.71c-5.68 11.31-8.88 24.1-8.88 37.6v-83.36c-4.14-3.67-7.05-12.31-7.05-22.44 0-13.44 5.15-18.41 11.55-18.41s11.55 4.97 11.55 18.41c0 10.12-2.96 18.83-7.16 22.5Z" style="fill:url(#Dégradé_sans_nom_11-2)"/><path d="M504.66 191.52v83.36c0-13.5-3.2-26.29-8.88-37.6v-45.71c-4.2-3.67-7.16-12.37-7.16-22.5 0-13.44 5.21-18.41 11.55-18.41s11.55 4.97 11.55 18.41c0 10.12-2.9 18.77-7.05 22.44Z" style="fill:url(#Dégradé_sans_nom_11-3)"/><path d="M444.27 211.37s14.04-5.93 30.51 13.93c0 0-10.54-19.6-18.9-20.89-7.8-1.2-11.61 6.96-11.61 6.96ZM397.62 211.37s-14.04-5.93-30.51 13.93c0 0 10.54-19.6 18.9-20.89 7.8-1.2 11.61 6.96 11.61 6.96Z" class="cls-6"/><ellipse cx="420.94" cy="337.78" class="cls-5" rx="7.6" ry="7.15"/><path d="M308.72 346.28s10.16 2.05 9.41 9.92c-.74 7.87-12.81 13.91-14.07 7.82-1.27-6.1.36-18.18 4.66-17.73Z" style="fill:url(#Dégradé_sans_nom_46)"/><path d="M525.94 365.69c-2.99-2.61-4.8-5.88-5.12-9.21-.76-8.06 6.85-11.95 11.34-13v-42.46c0-4.1-3.84-7.12-7.83-6.16l-6.17 1.49-87.89 23.77H411.7l-87.95-23.77-6.19-1.49c-3.98-.96-7.83 2.06-7.83 6.16v42.46c4.49 1.04 12.12 4.94 11.35 13-.32 3.33-2.13 6.6-5.12 9.21-1.93 1.69-4.14 2.88-6.24 3.43v47.16c0 2.93 2 5.47 4.85 6.16l97.05 23.48h18.64l97.05-23.48a6.34 6.34 0 0 0 4.85-6.16v-47.16c-2.09-.55-4.29-1.74-6.22-3.43Z" style="fill:url(#Dégradé_sans_nom_11-4)"/><path d="M533.18 346.28s-10.16 2.05-9.41 9.92c.74 7.87 12.81 13.91 14.07 7.82 1.27-6.1-.36-18.18-4.66-17.73Z" style="fill:url(#Dégradé_sans_nom_26)"/><path d="m430.27 445.92 1.48-.36V320.12c0-.13-.02-.26-.06-.38l-1.42.38h-1.48v125.8h1.48ZM411.62 445.92h1.56v-125.8h-1.48l-1.42-.38c-.03.12-.06.25-.06.38v125.46l1.4.34Z" class="cls-2"/><path d="M430.96 448.8c-.23.06-.46.08-.7.08h-18.64c-.23 0-.47-.03-.7-.08l-32.9-7.96 33.03 63.29c4.14 7.99 15.63 7.99 19.77 0l33.03-63.29-32.9 7.96Z" style="fill:url(#Dégradé_sans_nom_11-5)"/><path d="M425.06 317.17c15.18-19.35 39.93-40.44 75.01-38.5v4.17c0 .75.57 1.39 1.31 1.47 5.29.59 10.43 1.76 15.3 3.46v5.92l.71-.19s.05-.01.08-.02l2.17-.53v-5.28c0-1.19-.76-2.26-1.88-2.65a72.86 72.86 0 0 0-14.73-3.48v-2.99c0-1.49-1.16-2.73-2.65-2.81-19.69-1.13-38.18 4.61-54.97 17.05-12.15 9-20.3 19.34-24.09 24.4h3.75Z" style="fill:url(#Dégradé_sans_nom_11-6)"/><path d="M324.44 293.47s.05.01.08.02l.71.19v-5.92c4.86-1.7 10.01-2.87 15.29-3.46.75-.08 1.31-.72 1.31-1.47v-4.17c35.1-1.94 59.86 19.14 75.02 38.5h3.75c-3.79-5.05-11.95-15.42-24.11-24.43-16.78-12.42-35.27-18.15-54.97-17.02a2.809 2.809 0 0 0-2.65 2.81v2.99c-5.08.66-10.02 1.83-14.71 3.48a2.81 2.81 0 0 0-1.89 2.65v5.29l2.17.52Z" style="fill:url(#Dégradé_sans_nom_11-7)"/><path d="M474.77 275.25v-.4c0-16.96-6.83-25.86-15.25-25.86s-15.25 8.9-15.25 25.86c0 5.4.7 9.99 1.91 13.72 9.08-6.31 18.63-10.76 28.59-13.33ZM395.71 288.55c1.21-3.74 1.9-8.31 1.9-13.7 0-16.96-6.83-25.86-15.25-25.86s-15.25 8.9-15.25 25.86v.38c9.96 2.56 19.52 7.01 28.6 13.32Z" class="cls-6"/><ellipse cx="455.88" cy="268.02" class="cls-3" rx="3.55" ry="2.44"/><ellipse cx="461.3" cy="260.54" class="cls-3" rx="5.42" ry="4.76"/><ellipse cx="378.71" cy="268.02" class="cls-3" rx="3.55" ry="2.44"/><ellipse cx="384.13" cy="260.54" class="cls-3" rx="5.42" ry="4.76"/><path d="M572.97 150.37c-.18.22-.37.45-.56.71-2.72 3.74-7.62 5.17-11.88 3.38-5.56-2.34-7.78-9.11-4.62-14.25 1.26-2.05 2.42-3.61 3.48-4.68 2.38-2.4 6.77-4.46 13.18-6.18l6.51-1.77c2.12-.53 3.97-1.3 5.56-2.32 2.82-1.71 4.86-4.04 6.1-6.99 1.43-3.4 1.74-6.92.92-10.55-.82-3.63-3.86-6.56-9.14-8.78-5.19-2.18-9.59-2.01-13.21.52a24.256 24.256 0 0 0-4.22 3.73c-2.8 3.16-7.4 4.03-11.29 2.39l-1.01-.43c-6.1-2.57-8.08-10.35-3.81-15.4 4.95-5.86 10.92-9.38 17.92-10.57 6.71-1.18 13.91-.15 21.61 3.09 10.11 4.25 17.49 10.2 22.15 17.85 4.65 7.64 4.99 16.21 1 25.69-2.45 5.82-5.96 10.1-10.54 12.86-2.72 1.7-7.28 3.41-13.69 5.14l-6.32 1.69c-3.44.92-6.15 2.55-8.13 4.87Zm-23.93 32.9-1.77-.74c-5.03-2.12-7.4-7.91-5.28-12.95l.49-1.16c2.12-5.03 7.91-7.4 12.95-5.28l1.77.74c5.03 2.12 7.4 7.91 5.28 12.95l-.49 1.16c-2.12 5.03-7.91 7.4-12.95 5.28Z" class="cls-5"/><path d="M388.19 102.26c7.43-9.17 9.09-22.26 3.18-33.33-8.18-15.31-27.64-20.72-42.65-11.46-12.78 7.89-17.84 24.37-11.68 38.07 5.53 12.29 18 18.93 30.41 17.8l2.6 4.87a1.95 1.95 0 0 0 2.64.8l17.31-9.25a1.95 1.95 0 0 0 .8-2.64l-2.61-4.86Z" class="cls-1"/><rect width="23.72" height="3.87" x="371.56" y="116.13" class="cls-6" rx="1.66" ry="1.66" transform="rotate(-28.12 383.36 118.053)"/><rect width="23.72" height="3.87" x="374.39" y="121.43" class="cls-6" rx="1.66" ry="1.66" transform="rotate(-28.12 386.188 123.366)"/><rect width="23.72" height="3.87" x="377.15" y="126.6" class="cls-6" rx="1.66" ry="1.66" transform="rotate(-28.12 388.967 128.538)"/><path d="m384.78 135.34 12.17-6.5c.98-.52 2.18.19 2.15 1.31-.05 2.22-.94 5.56-5.2 7.83-4.29 2.29-7.48 1.09-9.27-.15-.9-.62-.81-1.97.15-2.49Z" class="cls-6"/><path d="M385.96 111.92 373.8 89.17s-4.88-6.7.77-9.72c5.65-3.02 9.09 4.46.54 9.02-8.55 4.57-5.84 3.12-5.84 3.12s2.71-1.45-5.84 3.12-12.85-2.44-7.2-5.46c5.65-3.02 8.51 4.77 8.51 4.77l12.16 22.75" style="fill:none;stroke:#fff;stroke-miterlimit:10;stroke-width:2px"/><path d="M271.65 172.89c-3.1-2.82-7.1-4.37-11.29-4.37-4.71 0-9.23 1.99-12.4 5.47-3.02 3.31-4.56 7.6-4.36 12.07.21 4.47 2.14 8.6 5.45 11.62 3.1 2.83 7.12 4.38 11.31 4.38 4.71 0 9.22-1.99 12.39-5.47 6.23-6.83 5.73-17.46-1.11-23.7Z" style="fill:#b0b0bf"/><path d="M251.04 197.25c-6.23-5.64-6.71-15.27-1.07-21.5 3.16-3.49 7.56-5.18 11.93-5 5.02.21 7.51 6.21 4.14 9.93l-.33.36c-1.28 1.41-3.19 1.99-5.08 1.73-2-.28-4.95.22-8.24 3.85-3.88 4.29-1.35 10.62-1.35 10.62Z" class="cls-1"/><path d="M277.64 166.32c-10.47-9.54-26.69-8.8-36.25 1.68-8.43 9.25-8.81 23.01-1.56 32.67l.56.51-19.88 21.81a4.048 4.048 0 1 0 5.98 5.46l19.88-21.81.56.51c10.29 6.33 23.94 4.67 32.37-4.58 9.55-10.48 8.8-26.69-1.68-36.25Zm-3.4 31.62c-.45.49-.92.96-1.41 1.39-.16.15-.34.27-.51.41-.33.28-.66.55-1.01.8-.21.15-.43.28-.64.42-.32.21-.64.42-.97.61-.24.14-.48.25-.72.37-.32.17-.64.33-.97.48-.25.11-.51.21-.77.31-.33.13-.65.26-.98.36-.27.09-.54.16-.81.24-.33.09-.66.18-.99.26-.28.06-.55.11-.83.16-.33.06-.67.11-1 .15-.28.03-.56.06-.85.08-.33.03-.67.04-1.01.05-.14 0-.27.02-.41.02-.17 0-.33-.02-.5-.02-.26 0-.53-.02-.79-.04-.32-.02-.64-.06-.96-.09-.26-.03-.52-.06-.78-.11-.32-.05-.64-.12-.96-.19-.26-.06-.51-.11-.76-.18-.32-.08-.64-.18-.96-.29-.25-.08-.49-.15-.74-.24-.32-.12-.64-.25-.95-.39-.23-.1-.47-.19-.7-.3-.33-.16-.64-.33-.96-.51-.21-.12-.42-.22-.63-.35-.34-.21-.68-.44-1.01-.67-.17-.12-.35-.22-.51-.35-.49-.36-.96-.75-1.42-1.17l-.02-.02a18.911 18.911 0 0 1-3.56-4.38 18.802 18.802 0 0 1-2.55-8.62c-.03-.65-.02-1.31.02-1.96.07-1.15.23-2.29.51-3.41.29-1.18.69-2.33 1.22-3.44.78-1.67 1.83-3.26 3.14-4.69l.01-.01c.45-.49.92-.95 1.4-1.38.16-.15.34-.27.51-.41.33-.28.66-.55 1.01-.8.21-.15.43-.28.64-.42.32-.21.64-.43.97-.61.23-.13.48-.25.72-.37.32-.17.64-.33.97-.48.25-.11.51-.21.77-.31.33-.13.65-.26.99-.37.26-.09.53-.16.8-.24.33-.09.66-.18 1-.26.27-.06.55-.11.82-.16.34-.06.67-.11 1.01-.15.28-.03.56-.06.84-.08.34-.03.67-.04 1.01-.05.14 0 .28-.02.41-.02.17 0 .33.02.49.02.26 0 .53.02.79.04.32.02.64.05.96.09.26.03.52.06.78.11.32.05.64.12.96.19.26.06.51.11.77.18.32.08.64.18.95.28.25.08.49.15.74.24.32.12.64.25.95.39.23.1.46.19.69.3.33.16.64.33.96.51.21.12.42.22.63.34.35.21.68.45 1.02.68.17.12.34.22.5.34a18.227 18.227 0 0 1 3.7 3.68c1.92 2.51 3.13 5.4 3.62 8.39.11.71.2 1.42.24 2.13.22 4.8-1.38 9.68-4.87 13.51Z" class="cls-6"/><path d="m224.76 93.78 15.3-22.92c.74-1.1 2-1.73 3.33-1.64 1.32.09 2.5.87 3.09 2.06l12.2 24.71c.59 1.19.49 2.6-.24 3.7s-2 1.73-3.33 1.64l-27.5-1.79a3.73 3.73 0 0 1-3.09-2.06c-.59-1.19-.49-2.6.24-3.7Zm17.91-13.45-8.17 12.23 14.67.96-6.51-13.18Z" style="fill:url(#Dégradé_sans_nom_11-8)"/><path d="m644.23 130.29 20.49 3.51c.99.17 1.81.85 2.15 1.79.35.94.17 1.99-.47 2.76l-13.28 15.99c-.64.77-1.64 1.14-2.63.97s-1.81-.85-2.15-1.79l-7.21-19.5a2.8 2.8 0 0 1 3.1-3.73Zm14.76 8.21-10.93-1.87 3.84 10.4 7.09-8.53Z" style="fill:url(#Dégradé_sans_nom_11-9)"/><path d="M579.68 227.34c6.81-5.95 17.18-5.26 23.13 1.55 5.95 6.81 5.25 17.18-1.56 23.14-6.81 5.95-17.18 5.25-23.13-1.57s-5.26-17.17 1.56-23.12Zm16.46 7.38c-2.74-3.14-7.51-3.46-10.65-.72-3.14 2.74-3.46 7.51-.72 10.65 2.74 3.14 7.51 3.46 10.65.72 3.14-2.74 3.46-7.51.72-10.65Z" style="fill:url(#Dégradé_sans_nom_11-10)"/><path d="M511.11 44.86c4.45-3.89 11.23-3.44 15.12 1.01s3.44 11.23-1.02 15.12c-4.45 3.89-11.23 3.43-15.12-1.02s-3.44-11.22 1.02-15.11Zm10.76 4.82a4.936 4.936 0 0 0-6.96-.47c-2.05 1.79-2.26 4.91-.47 6.96s4.91 2.26 6.96.47a4.936 4.936 0 0 0 .47-6.96Z" style="fill:url(#Dégradé_sans_nom_11-11)"/><path d="M242.48 273.12c4.23-3.69 10.66-3.27 14.35.96 3.69 4.23 3.26 10.66-.97 14.35s-10.66 3.26-14.35-.97c-3.69-4.23-3.26-10.65.97-14.34Zm10.21 4.58c-1.7-1.95-4.66-2.15-6.6-.45s-2.15 4.66-.45 6.6 4.66 2.15 6.6.45c1.95-1.7 2.15-4.66.45-6.6Z" style="fill:url(#Dégradé_sans_nom_11-12)"/><path d="m461.16 145.96-16.56-12.8a3.297 3.297 0 0 1-.59-4.63l12.8-16.56a3.297 3.297 0 0 1 4.63-.59l16.56 12.8a3.297 3.297 0 0 1 .59 4.63l-12.8 16.56a3.297 3.297 0 0 1-4.63.59Zm-9.92-16 11.34 8.77 8.77-11.34-11.34-8.77-8.77 11.34Z" style="fill:url(#Dégradé_sans_nom_11-13)"/><path d="m181.08 214.7-12.1-9.36a2.406 2.406 0 0 1-.43-3.38l9.36-12.1a2.406 2.406 0 0 1 3.38-.43l12.1 9.36c1.05.81 1.25 2.33.43 3.38l-9.36 12.1a2.406 2.406 0 0 1-3.38.43Zm-7.25-11.7 8.29 6.41 6.41-8.29-8.29-6.41-6.41 8.29Z" style="fill:url(#Dégradé_sans_nom_11-14)"/></svg>