<svg xmlns="http://www.w3.org/2000/svg" xmlns:xlink="http://www.w3.org/1999/xlink" id="Calque_1" data-name="Calque 1" viewBox="0 0 841.89 595.28"><defs><linearGradient id="Dégradé_sans_nom_11" x1="176.42" x2="638.46" y1="401.22" y2="401.22" data-name="Dégradé sans nom 11" gradientTransform="rotate(18.54 424.42 281.927)" gradientUnits="userSpaceOnUse"><stop offset=".1" stop-color="#5b5a72"/><stop offset=".5" stop-color="#b0b0bf"/><stop offset=".96" stop-color="#f4f4f6"/></linearGradient><linearGradient xlink:href="#Dégradé_sans_nom_11" id="Dégradé_sans_nom_11-2" x1="176.42" x2="638.46" y1="368.26" y2="368.26" data-name="Dégradé sans nom 11"/><linearGradient xlink:href="#Dégradé_sans_nom_11" id="Dégradé_sans_nom_11-3" x1="176.42" x2="638.46" y1="350.4" y2="350.4" data-name="Dégradé sans nom 11"/><linearGradient xlink:href="#Dégradé_sans_nom_11" id="Dégradé_sans_nom_11-4" x1="132.07" x2="622.47" y1="377.62" y2="377.62" data-name="Dégradé sans nom 11"/><linearGradient xlink:href="#Dégradé_sans_nom_11" id="Dégradé_sans_nom_11-5" x1="359.24" x2="527.89" y1="111.38" y2="280.04" data-name="Dégradé sans nom 11"/><linearGradient id="Dégradé_sans_nom_46" x1="353.63" x2="423.75" y1="327.06" y2="397.18" data-name="Dégradé sans nom 46" gradientUnits="userSpaceOnUse"><stop offset="0" stop-color="#5b5a72"/><stop offset="1" stop-color="#b0b0bf"/></linearGradient><linearGradient xlink:href="#Dégradé_sans_nom_11" id="Dégradé_sans_nom_11-6" x1="325.3" x2="438.34" y1="298.53" y2="411.57" data-name="Dégradé sans nom 11"/><linearGradient xlink:href="#Dégradé_sans_nom_11" id="Dégradé_sans_nom_11-7" x1="351.42" x2="464.46" y1="272.42" y2="385.46" data-name="Dégradé sans nom 11"/><linearGradient id="Dégradé_sans_nom_10" x1="448.62" x2="507.91" y1="349.9" y2="409.2" data-name="Dégradé sans nom 10" gradientUnits="userSpaceOnUse"><stop offset="0" stop-color="#b0b0bf"/><stop offset="1" stop-color="#f4f4f6"/></linearGradient><linearGradient xlink:href="#Dégradé_sans_nom_11" id="Dégradé_sans_nom_11-8" x1="144.41" x2="600.51" y1="419.49" y2="419.49" data-name="Dégradé sans nom 11"/><linearGradient xlink:href="#Dégradé_sans_nom_11" id="Dégradé_sans_nom_11-9" x1="124.9" x2="596.42" y1="417.07" y2="417.07" data-name="Dégradé sans nom 11"/><radialGradient id="Dégradé_sans_nom_17" cx="416.46" cy="454.78" r="128.87" data-name="Dégradé sans nom 17" fx="416.46" fy="454.78" gradientTransform="matrix(2.25 0 0 .11 -520.09 402.93)" gradientUnits="userSpaceOnUse"><stop offset=".4" stop-color="#353544" stop-opacity=".5"/><stop offset="1" stop-color="#353544" stop-opacity="0"/></radialGradient><style>.cls-2{fill:#5b5a72}.cls-3{fill:#353544}.cls-17{fill:#fff;opacity:.5}</style></defs><ellipse cx="416.46" cy="454.78" rx="294.44" ry="15.9" style="fill:url(#Dégradé_sans_nom_17)"/><path d="m333.51 377.4-.22-.34.22.34z" style="fill:url(#Dégradé_sans_nom_11)"/><path d="m336.12 395.66-131.91-21.01-5.32 2.42 137.23 18.59z" class="cls-2"/><path d="m521.19 423.64-.29-.03 1.1.17 200.63 31.03.16.01-201.6-31.18z" style="fill:url(#Dégradé_sans_nom_11-2)"/><path d="M725.64 455.23v.04l.88.14-.87-.17Z" style="fill:url(#Dégradé_sans_nom_11-3)"/><path d="m351.74 382.23-109.94-21.9c-4.48-.89-9.21-.28-13.32 1.73l-20.78 10.18 144.87 23.07-.84-13.09Z" style="fill:url(#Dégradé_sans_nom_11-4)"/><path d="M526.34 137.7c.82-12.6-3.2-17.33-8.55-17.68-5.35-.35-9.95 3.81-10.77 16.41-.62 9.49 1.32 17.82 4.62 21.49l-1.75 26.81c-13.82-18.87-35.56-31.73-60.74-33.37-24.52-1.6-47.19 7.77-63.28 23.88l1.79-27.49c4.33-3.31 7.78-11.61 8.42-21.49.86-13.11-3.91-18.29-10.09-18.7-6.24-.41-11.58 4.12-12.43 17.23-.64 9.88 1.64 18.49 5.44 22.34l-2.57 39.42a82.482 82.482 0 0 0-3.22 5.03c-6.26 10.67-10.2 22.94-11.06 36.11-2.94 45.05 31.24 83.99 76.34 86.94 45.11 2.94 84.05-31.23 86.99-76.28.86-13.17-1.45-25.85-6.27-37.24-.79-1.86-1.65-3.68-2.57-5.47l2.43-37.29c3.69-3.22 6.65-11.16 7.27-20.66Zm-29.77 98.77c-1.37 21.02-16.66 37.14-34.09 36-17.48-1.14-30.5-19.1-29.12-40.12 1.38-21.08 16.61-37.2 34.09-36.06 17.43 1.14 30.5 19.1 29.12 40.18Z" style="fill:url(#Dégradé_sans_nom_11-5)"/><path d="M500.36 255.93c3.33-3.45 5.79-9.84 6.42-19.09 1.03-15.04-3.75-23.31-10.31-23.78-6.56-.47-12.42 7.03-13.45 22.06-.65 9.42.99 16.19 3.92 20.04l13.43.76Z" class="cls-3"/><ellipse cx="492.47" cy="229.72" class="cls-17" rx="2.17" ry="2.77" transform="rotate(-85.52 492.467 229.722)"/><ellipse cx="497.14" cy="223.4" class="cls-17" rx="4.22" ry="4.24" transform="rotate(-47.48 497.172 223.393)"/><path d="M441.73 254.21c3.88-4.07 6.41-11.32 6.41-21.56 0-16.67-6.71-25.41-14.99-25.41s-14.99 8.74-14.99 25.41c0 10.44 2.63 17.78 6.64 21.79l16.92-.23Z" class="cls-3"/><ellipse cx="429.57" cy="225.93" class="cls-17" rx="3.48" ry="2.39"/><ellipse cx="434.9" cy="218.58" class="cls-17" rx="5.32" ry="4.68"/><path d="M483.75 195.88s.77 10.35 8.19 6.96c8.13-3.71 19.11-8.57 19.11-8.57s-23.18 7.39-27.31 1.61ZM450.59 189.3s-1.85 11.35-10.88 7.02c-9.88-4.74-23.25-10.97-23.25-10.97s28.45 10 34.13 3.96Z" class="cls-3"/><path d="M368.82 313.92s-15.76 6.26-2.32 41.6 35.94 62.68 42.63 59.17c5.05-2.66-4.06-33.03-13.39-65-9.58-32.84-18.42-39.27-26.92-35.77Z" style="fill:url(#Dégradé_sans_nom_46)"/><path d="M386.57 399.43c-8.79-12.14-16.88-27.37-22.77-42.88-14.29-37.57 3.2-45.02 3.92-45.3 1.72-.71 3.44-1.07 5.11-1.07 9.96 0 17.89 11.94 25.69 38.7l1.11 3.8c2.85 9.76 5.27 18.15 7.25 25.36l17.18-49.29-63.58-49.46c-4.91-4.2-12.46-.46-12.03 6l7.16 112.09 32.73 4.43c-.58-.76-1.17-1.55-1.77-2.39Z" style="fill:url(#Dégradé_sans_nom_11-6)"/><path d="m480.99 332.71-45.28 1.2-26.18 49.61c-.26.49-.55.88-.85 1.2 2.31 8.8 3.79 15.47 4.41 20.45l4.52.61 65.7-60.71c4.55-4.25 3.11-11.98-2.33-12.36Z" style="fill:url(#Dégradé_sans_nom_11-7)"/><path d="m474.7 356.98-19.4 17.92c2.24 2.5 4.67 5.13 7.32 7.92 23.14 24.38 42.99 34.53 46.03 31.94 4.96-4.22-8.34-31.34-33.95-57.78Z" style="fill:url(#Dégradé_sans_nom_10)"/><path d="m523.76 415-11.27-2.24c-.18 1.81-.82 3.23-1.97 4.21-.84.72-1.95 1.08-3.3 1.08-5.09 0-13.62-5.29-18.26-8.45-.93-.63-1.94-1.34-3.02-2.13l-54.22-10.8-11.28 10.42 101.11 13.7h.05l139.22 21.53L523.73 415Z" style="fill:url(#Dégradé_sans_nom_11-8)"/><path d="m193.02 410.62-1.07 43.72 488.33.44-487.26-44.16z" class="cls-2"/><path d="m521.19 423.64-107.77-14.6c.14 4.54-.82 7.08-2.94 8.2-.8.42-1.7.64-2.67.64-2.47 0-7.58-1.7-16.04-11.77l-34.19-4.63-163.62-22.16-24.94 12.64-6.15 3.12c-.1.05-.19.12-.29.18-.38.22-.72.48-1.01.76-.02.02-.05.04-.07.07-1.12 1.17-1.48 2.76-1.2 4.23.14.73.44 1.44.89 2.04.75 1.01 1.92 1.74 3.43 1.88l28.51 2.59 529.67 48.01-201.6-31.18Z" style="fill:url(#Dégradé_sans_nom_11-9)"/><path d="M472.7 280.73s-1.98 7.86-8.86 8.15c-10.99.47-12.61-9.23-12.61-9.23" style="fill:none;stroke:#5b5a72;stroke-linecap:round;stroke-linejoin:round;stroke-width:3.29px"/><path d="M458.38 288.13s-4.11 4.87-6.45 2.61c-3.18-3.08.44-7.95.44-7.95s1.68 3.82 6.01 5.35Z" style="fill:#cf4d3b"/></svg>