<svg xmlns="http://www.w3.org/2000/svg" xmlns:xlink="http://www.w3.org/1999/xlink" id="Calque_1" data-name="Calque 1" viewBox="0 0 841.89 595.28"><defs><linearGradient id="Dégradé_sans_nom_11" x1="497.86" x2="583.91" y1="196" y2="282.04" data-name="Dégradé sans nom 11" gradientUnits="userSpaceOnUse"><stop offset=".1" stop-color="#5b5a72"/><stop offset=".5" stop-color="#b0b0bf"/><stop offset=".96" stop-color="#f4f4f6"/></linearGradient><linearGradient id="Dégradé_sans_nom_16" x1="520.79" x2="440.88" y1="273.69" y2="193.78" data-name="Dégradé sans nom 16" gradientUnits="userSpaceOnUse"><stop offset="0" stop-color="#5b5a72"/><stop offset="1" stop-color="#b0b0bf"/></linearGradient><linearGradient id="Dégradé_sans_nom_26" x1="579.05" x2="619.24" y1="239.2" y2="199.01" data-name="Dégradé sans nom 26" gradientUnits="userSpaceOnUse"><stop offset="0" stop-color="#b0b0bf"/><stop offset="1" stop-color="#f4f4f6"/></linearGradient><linearGradient id="Dégradé_sans_nom_46" x1="406.57" x2="497.13" y1="425.74" y2="516.31" data-name="Dégradé sans nom 46" gradientUnits="userSpaceOnUse"><stop offset="0" stop-color="#5b5a72"/><stop offset="1" stop-color="#b0b0bf"/></linearGradient><linearGradient xlink:href="#Dégradé_sans_nom_26" id="Dégradé_sans_nom_26-2" x1="196.34" x2="278.22" y1="381.57" y2="463.45" data-name="Dégradé sans nom 26"/><linearGradient xlink:href="#Dégradé_sans_nom_11" id="Dégradé_sans_nom_11-2" x1="469.91" x2="612.24" y1="50.97" y2="193.29" data-name="Dégradé sans nom 11"/><linearGradient xlink:href="#Dégradé_sans_nom_46" id="Dégradé_sans_nom_46-2" x1="593.83" x2="753.44" y1="24.83" y2="184.44" data-name="Dégradé sans nom 46"/><linearGradient xlink:href="#Dégradé_sans_nom_46" id="Dégradé_sans_nom_46-3" x1="564.26" x2="597.56" y1="59.93" y2="93.23" data-name="Dégradé sans nom 46"/><linearGradient xlink:href="#Dégradé_sans_nom_46" id="Dégradé_sans_nom_46-4" x1="229.81" x2="318.52" y1="219.57" y2="308.28" data-name="Dégradé sans nom 46"/><linearGradient xlink:href="#Dégradé_sans_nom_46" id="Dégradé_sans_nom_46-5" x1="418.94" x2="583.85" y1="177.92" y2="342.83" data-name="Dégradé sans nom 46"/><linearGradient xlink:href="#Dégradé_sans_nom_46" id="Dégradé_sans_nom_46-6" x1="549.62" x2="557.09" y1="70.13" y2="77.61" data-name="Dégradé sans nom 46"/><style>.cls-1,.cls-2{fill:#fff}.cls-3{fill:#b0b0bf}.cls-5{fill:#353544}.cls-8{fill:url(#Dégradé_sans_nom_11)}.cls-2{opacity:.5}</style></defs><path d="m593.96 214.65-34.63 16.46-3.24 47.38c-.24 3.48-3.37 3.48-3.66 0l-3.88-47.38-66.18-16.46c-.24-.07-.48-.11-.71-.16 3.78 3.07 7.45 6.32 10.91 9.66 24.42 23.63 13.72 35.6 13.28 36.07-2.18 2.38-4.82 3.59-7.84 3.59-.61 0-1.25-.07-1.89-.17l12.69 24.32c36.64 15.61 65.71-5.5 65.71-5.5l25.5-59.04c2.07-4.85-1.7-10.34-6.04-8.77Z" class="cls-8"/><path d="M504.05 258.6s9.83-10.46-13.18-32.72c-23-22.26-50.08-35.13-53.94-30.03-2.91 3.85 14.99 23.86 33.62 45.01 19.14 21.73 28.23 23.48 33.49 17.74Z" style="fill:url(#Dégradé_sans_nom_16)"/><path d="M621.85 182.96c-4.07-2.86-20.29 10.41-35.36 32.57l6.43-3.06c.07-.03.14-.06.22-.09.76-.28 1.55-.42 2.33-.42 2.36 0 4.54 1.25 5.98 3.43 1.72 2.6 2.01 6.03.75 8.97l-9.1 21.07c3.6-4.62 7.67-10.6 12.3-17.99 15.09-24.12 19.21-42.55 16.45-44.49Z" style="fill:url(#Dégradé_sans_nom_26)"/><path d="m593.96 214.65-34.63 16.46-3.24 47.38c-.24 3.48-3.37 3.48-3.66 0l-3.88-47.38-66.18-16.46c-.24-.07-.48-.11-.71-.16 3.78 3.07 7.45 6.32 10.91 9.66 24.42 23.63 13.72 35.6 13.28 36.07-2.18 2.38-4.82 3.59-7.84 3.59-.61 0-1.25-.07-1.89-.17l12.69 24.32c36.64 15.61 65.71-5.5 65.71-5.5l25.5-59.04c2.07-4.85-1.7-10.34-6.04-8.77Z" class="cls-8"/><path d="M555.42 118.95c-13.46 0-24.41 13.43-24.41 29.94s10.95 29.89 24.41 29.89 24.41-13.41 24.41-29.89-10.95-29.94-24.41-29.94Z" class="cls-1"/><path d="M555.42 178.77c8.7 0 16.35-5.61 20.68-14.03-13.32-9.06-29.21-13.14-44.88-11.99 1.56 14.66 11.81 26.02 24.2 26.02Z" class="cls-3"/><path d="M441.11 413.72c4.49 12.63 5.35 26.07 5.35 26.07-21.12 69.25-106.92 112.53-106.92 112.53 95.36-8.89 154.3-48.49 181.13-71.51 11.31-9.7 19.09-23.04 20.99-37.82 4.28-33.28.02-62.9-3.35-79.11-29.7 17.51-62.25 34.2-97.2 49.83Z" style="fill:url(#Dégradé_sans_nom_46)"/><path d="M160.13 538.04c19.98-102.54 96.48-161.56 96.48-161.56-19.36 7.28-44.37 37.13-44.37 37.13 31.57-75.36 113.68-95.14 113.68-95.14s1.82 31.14 25.52 59.45c23.7 28.32 54.03 35.59 54.03 35.59s-33.93 77.34-113.68 95.14c0 0 33.8-19.36 44.37-37.13 0 0-71.57 64.9-176.03 66.52" style="fill:url(#Dégradé_sans_nom_26-2)"/><path d="M599.41 117.77c-.77-1.53-1.6-3.02-2.48-4.48V81.65c2.94-2.92 5-9.8 5-17.85 0-10.69-3.66-14.46-8.2-14.46s-8.2 3.77-8.2 14.46c0 8.06 2.1 14.98 5.09 17.9v22.75c-12.71-15.18-31.79-24.85-53.16-24.85s-39.44 9.16-52.14 23.67V79.95c3.48-3.04 5.93-10.24 5.93-18.62 0-11.12-4.31-15.24-9.56-15.24s-9.56 4.12-9.56 15.24c0 8.38 2.4 15.53 5.83 18.57v33.45c-.87 1.44-1.68 2.92-2.45 4.43-4.7 9.36-7.35 19.94-7.35 31.12 0 38.22 31.02 69.24 69.29 69.24s69.29-31.02 69.29-69.24c0-11.17-2.65-21.76-7.35-31.12Zm-44 63.41c-14.83 0-26.82-14.46-26.82-32.29s11.99-32.34 26.82-32.34 26.82 14.46 26.82 32.34-12.03 32.29-26.82 32.29Z" style="fill:url(#Dégradé_sans_nom_11-2)"/><path d="M734.59 57.23s-53.22-20.99-131.32-2.15c.67 2.25 1.07 5.11 1.07 8.72 0 7.98-1.9 15.02-5 18.78v30.05c.8 1.36 1.55 2.72 2.22 4.06 4.2 8.35 6.72 17.58 7.41 26.96 2.83 3.59 5.85 7.3 9.06 11.14 49.22 58.81 77.44 67.01 77.44 67.01 54.16-89.98 39.12-164.57 39.12-164.57Z" style="fill:url(#Dégradé_sans_nom_46-2)"/><path d="M588.23 98.25V82.63c-3.16-3.77-5.09-10.84-5.09-18.84 0-1.13.04-2.17.12-3.15-5.74 1.81-11.6 3.84-17.55 6.12 0 0 .69 6.47 6.54 19.44 5.81 3.23 11.2 7.26 15.98 12.05Z" style="fill:url(#Dégradé_sans_nom_46-3)"/><path d="M398.17 196.45c-15.36-6.17-43.77-15.58-77.28-17.23-14.88-.73-29.38 4.58-40.92 14-27.39 22.35-76.75 73.39-102.29 165.7 0 0 57.72-76.84 129.6-85.43 0 0 13.08 3.21 24.72 9.86 21.54-31.65 43.7-60.75 66.17-86.9Z" style="fill:url(#Dégradé_sans_nom_46-4)"/><path d="M540.79 109.1s-11.62-4.91-25.25 11.53c0 0 8.72-16.23 15.64-17.29 6.45-1 9.61 5.76 9.61 5.76ZM572.83 110.4s8.27-4.36 17.98 10.23c0 0-6.21-14.39-11.14-15.34-4.6-.88-6.84 5.11-6.84 5.11Z" class="cls-5"/><ellipse cx="563.61" cy="195.45" rx="4.22" ry="7.72" style="fill:#5b5a72"/><path d="M521.27 167.36c-3.45-3.35-5.73-9.58-5.73-18.5 0-14.04 5.65-21.4 12.62-21.4 6.97 0 12.62 7.36 12.62 21.4 0 8.78-2.21 14.94-5.57 18.33 0 0-7.11-2.85-13.95.16Z" class="cls-5"/><ellipse cx="531.18" cy="143.21" class="cls-2" rx="2.93" ry="2.02"/><ellipse cx="526.69" cy="137.02" class="cls-2" rx="4.48" ry="3.94"/><path d="M575.44 165.79c-2.52-3.16-4.52-9.12-4.52-16.92 0-12.86 4.45-19.6 9.94-19.6 5.49 0 9.94 6.74 9.94 19.6 0 8.16-1.79 13.85-4.5 16.92 0 0-5.42-2.59-10.86 0Z" class="cls-5"/><ellipse cx="583.25" cy="143.69" class="cls-2" rx="2.31" ry="1.85"/><ellipse cx="579.72" cy="138.02" class="cls-2" rx="3.53" ry="3.61"/><path d="M615.12 157.23c-2.08-2.49-4.05-4.9-5.97-7.28-.57 39.02-32.49 70.58-71.67 70.58s-71.69-32.14-71.69-71.64c0-6.23.82-12.45 2.41-18.46-39.3 34.5-87.65 86.7-139.69 164.9l50.1 59.86 50.1 59.86c192.11-83.54 253.75-171.8 264.82-189.89-5.28-1.89-33.16-13.86-78.41-67.92Zm7.49 40.41c-3.02 9.25-8.41 20.29-15.17 31.09-7.59 12.14-13.24 19.64-17.59 24.25l-13.15 30.44c-.17.4-.44.74-.79.99-.66.48-16.39 11.71-39.53 11.71-9.68 0-19.28-2-28.54-5.94-.51-.22-.93-.61-1.19-1.1l-12.69-24.32a2.37 2.37 0 0 1-.19-1.65c-6.48-2.09-14.57-8.79-25.02-20.65l-2.21-2.51c-26.3-29.84-35.18-40.71-31.52-45.54 1.04-1.37 2.73-2.07 5.04-2.07 4.84 0 13.04 3.2 22.5 8.79 5.72 3.38 11.57 7.44 17.22 11.91.46-.58 1.15-.93 1.89-.93.14 0 .29.01.43.04.24.04.54.1.88.19l66.13 16.45c1 .25 1.73 1.11 1.81 2.13l3.27 39.91 2.73-39.88c.06-.87.58-1.63 1.36-2l23.98-11.4c13.53-20.82 30.2-37.37 38.19-37.37 1.07 0 2 .28 2.78.82.97.68 3.91 2.75-.63 16.64Z" class="cls-1"/><path d="M689.98 223.67c-5.01 8.07-19.5 29.05-49.7 56.84-22.93 21.1-50.21 41.84-81.08 61.64-37.97 24.34-81.49 47.31-129.4 68.28l-48.27-57.68-48.27-57.68c28.98-43.32 59.15-82 89.69-115.01 14.58-15.76 29.26-30.24 43.9-43.33.36-2.12.82-4.22 1.37-6.29-39.3 34.5-87.65 86.7-139.69 164.9l50.1 59.86 50.1 59.86c192.11-83.54 253.75-171.8 264.82-189.89-.74-.27-1.93-.73-3.55-1.49Z" style="fill:url(#Dégradé_sans_nom_46-5)"/><path d="M562.89 71.8c-.45-1.71-.7-2.95-.83-3.72-3.81 1.49-10.52 4.37-19.7 9.3 2.25.15 4.49.41 6.7.77 0 0 10.68.43 18.28 5.5 0 0-1.71-3.26-4.45-11.84Z" class="cls-1"/><path d="M549.07 78.15c5.64-2.88 10.31-4.97 13.83-6.35-.45-1.71-.7-2.95-.83-3.72-3.81 1.49-10.52 4.37-19.7 9.3 2.25.15 4.49.41 6.7.77Z" style="fill:url(#Dégradé_sans_nom_46-6)"/><path d="M492.93 262.78c-6.34-2.38-14.18-8.98-24.18-20.34l-.17-.19c2.62 9.29 7.19 18.2 13.78 26.08a70.2 70.2 0 0 0 22.84 17.96l-12.27-23.51ZM600.65 193.91a70.92 70.92 0 0 0-3.08-6.01c-12.8 19.63-34.95 32.64-60.09 32.64s-48.54-13.75-61.16-34.3c-3.57 5.82-6.21 12.07-7.95 18.54 3.97 2.61 7.94 5.5 11.81 8.57-.49-.38-.97-.77-1.46-1.15.59-.13 1.19-.22 1.8-.22.82 0 1.65.12 2.46.36l66.13 16.45c1 .25 1.73 1.11 1.82 2.14l3.27 39.85 2.73-39.82c.06-.87.58-1.63 1.37-2.01l23.99-11.4c5.86-9.01 12.3-17.21 18.37-23.62ZM589.86 252.96l-11.62 26.9c1.18-.87 2.34-1.76 3.48-2.71 14.73-12.33 23.13-29.39 24.89-47.1-7.16 11.34-12.56 18.47-16.75 22.91Z" class="cls-3"/></svg>