<svg xmlns="http://www.w3.org/2000/svg" xmlns:xlink="http://www.w3.org/1999/xlink" id="Calque_1" data-name="Calque 1" viewBox="0 0 841.89 595.28"><defs><linearGradient id="Dégradé_sans_nom_11" x1="245.47" x2="416.49" y1="94.13" y2="265.16" data-name="Dégradé sans nom 11" gradientUnits="userSpaceOnUse"><stop offset=".1" stop-color="#5b5a72"/><stop offset=".5" stop-color="#b0b0bf"/><stop offset=".96" stop-color="#f4f4f6"/></linearGradient><linearGradient xlink:href="#Dégradé_sans_nom_11" id="Dégradé_sans_nom_11-2" x1="313.27" x2="484.3" y1="26.33" y2="197.35" data-name="Dégradé sans nom 11"/><linearGradient xlink:href="#Dégradé_sans_nom_11" id="Dégradé_sans_nom_11-3" x1="256.15" x2="427.17" y1="83.45" y2="254.47" data-name="Dégradé sans nom 11"/><linearGradient id="Dégradé_sans_nom_10" x1="94.24" x2="179.3" y1="287.98" y2="373.04" data-name="Dégradé sans nom 10" gradientUnits="userSpaceOnUse"><stop offset="0" stop-color="#b0b0bf"/><stop offset="1" stop-color="#f4f4f6"/></linearGradient><linearGradient xlink:href="#Dégradé_sans_nom_10" id="Dégradé_sans_nom_10-2" x1="26.55" x2="208.27" y1="147.8" y2="329.53" data-name="Dégradé sans nom 10"/><linearGradient xlink:href="#Dégradé_sans_nom_10" id="Dégradé_sans_nom_10-3" x1="62.29" x2="181.21" y1="232.79" y2="351.71" data-name="Dégradé sans nom 10"/><linearGradient id="Dégradé_sans_nom_26" x1="310.53" x2="389.77" y1="304.24" y2="304.24" data-name="Dégradé sans nom 26" gradientUnits="userSpaceOnUse"><stop offset="0" stop-color="#b0b0bf"/><stop offset="1" stop-color="#f4f4f6"/></linearGradient><linearGradient id="Dégradé_secondaire1" x1="260.9" x2="340.7" y1="295.26" y2="375.06" data-name="Dégradé secondaire1" gradientUnits="userSpaceOnUse"><stop offset="0" stop-color="#5b5a72"/><stop offset="1" stop-color="#b0b0bf"/></linearGradient><linearGradient xlink:href="#Dégradé_sans_nom_11" id="Dégradé_sans_nom_11-4" x1="265.92" x2="265.92" y1="226.61" y2="424.04" data-name="Dégradé sans nom 11"/><linearGradient id="Dégradé_sans_nom_46" x1="478.07" x2="661.03" y1="191.34" y2="374.29" data-name="Dégradé sans nom 46" gradientUnits="userSpaceOnUse"><stop offset="0" stop-color="#5b5a72"/><stop offset="1" stop-color="#b0b0bf"/></linearGradient><linearGradient xlink:href="#Dégradé_sans_nom_46" id="Dégradé_sans_nom_46-2" x1="355.97" x2="538.93" y1="313.43" y2="496.39" data-name="Dégradé sans nom 46"/><linearGradient xlink:href="#Dégradé_sans_nom_46" id="Dégradé_sans_nom_46-3" x1="337.58" x2="510.4" y1="332.32" y2="505.14" data-name="Dégradé sans nom 46"/><linearGradient xlink:href="#Dégradé_sans_nom_46" id="Dégradé_sans_nom_46-4" x1="515.43" x2="688.23" y1="175.18" y2="347.98" data-name="Dégradé sans nom 46"/><style>.cls-2{fill:#5b5a72}.cls-3{fill:#353544}.cls-16{fill:#fff;opacity:.5}</style></defs><path d="M436.13 174.82c-8.66-31.62-34.35-57.32-68.69-64.27-34.34-6.96-68.01 6.72-88.29 32.47-8.36 10.65-14.43 23.39-17.3 37.54-5.41 26.73 1.71 53.11 17.33 73.03l4.14 4.91c12.39 13.67 29.09 23.65 48.56 27.59 48.5 9.82 95.77-21.52 105.58-69.96 2.87-14.16 2.23-28.25-1.33-41.32Zm-29.76 35.02c-4.58 22.6-23.53 37.83-42.27 34.04-18.79-3.81-30.27-25.2-25.69-47.8 4.59-22.67 23.49-37.91 42.28-34.1 18.74 3.8 30.27 25.2 25.68 47.87Z" style="fill:url(#Dégradé_sans_nom_11)"/><path d="m434.26 126.86-9.48 46.81c2.8 12.44 3.07 25.92.31 39.53l17.17-84.78c4.48-2.95 8.85-11.13 10.92-21.34 2.74-13.55-.92-19.26-6.67-20.43-5.75-1.17-11.35 2.67-14.1 16.22-2.07 10.21-1.18 19.52 1.85 23.99Z" style="fill:url(#Dégradé_sans_nom_11-2)"/><path d="M324.37 217.6c-3.51-5.14-4.81-13.61-2.52-24.91 3.6-17.79 12.66-25.67 21.49-23.88 8.84 1.79 14.11 12.57 10.5 30.36-2.25 11.12-6.63 18.37-11.76 21.8 0 0-8.28-5.44-17.72-3.37Z" class="cls-3"/><ellipse cx="343.12" cy="189.54" class="cls-16" rx="2.61" ry="3.79" transform="rotate(-78.55 343.124 189.541)"/><ellipse cx="339.03" cy="180.54" class="cls-16" rx="5.09" ry="5.8" transform="rotate(-78.55 339.027 180.54)"/><path d="M393.42 229.52c-2.38-4.65-3.39-12.71-1.38-22.61 3.3-16.29 10.67-23.69 17.63-22.28 6.96 1.41 10.87 11.1 7.57 27.39-2.09 10.34-5.83 17.09-10.05 20.29 0 0-6.2-4.68-13.77-2.79Z" class="cls-3"/><ellipse cx="408.99" cy="203.51" class="cls-16" rx="2.39" ry="2.99" transform="rotate(-78.55 408.984 203.516)"/><ellipse cx="405.97" cy="195.42" class="cls-16" rx="4.66" ry="4.57" transform="rotate(-78.55 405.961 195.422)"/><path d="m291.97 95.65-17.71 87.43c2.87-14.16 8.94-26.89 17.3-37.54l9.71-47.94c5.19-2.96 10.14-11.46 12.29-22.07 2.86-14.1-1.55-20.42-8.2-21.76s-13.17 2.76-16.02 16.86c-2.15 10.62-.94 20.3 2.62 25.03Z" style="fill:url(#Dégradé_sans_nom_11-3)"/><path d="M364.05 148.79s-13.46-9.2-34.96 8.13c0 0 15.22-18.32 24.26-17.9 8.44.39 10.7 9.77 10.7 9.77ZM404.33 158.66s11.6-3.4 20.16 17.58c0 0-4.18-19.84-10.18-22.3-5.6-2.3-9.98 4.72-9.98 4.72Z" class="cls-3"/><path d="m350.87 249.23 23.11 4.17s-6.39 19.36-15.76 17.67c-12.93-2.33-7.36-21.84-7.36-21.84ZM677.46 483.37s-1.2 18.69 16.77 18.69 21.82-13.15 21.82-13.15.64 11.76 21.18 11.42c20.54-.35 20.54-12.11 20.54-12.11 3.85 6.92 24.05 11.61 31.11 1.58 7.06-10.03-4.16-20.26-4.16-20.26s13.98-19.02-12.01-28.29c-27.34-9.75-36.12 8.71-36.12 8.71s1.29-19.93-28.24-19.95c-25.81-.01-27.84 22.2-27.84 22.2s-27.43-10.16-27.43 15.58c0 23.37 24.38 15.58 24.38 15.58ZM532 165.54s-15.48-7.45-9.4-16.09 29.29-5.96 32.61 0c0 0 0-10.13 17.69-10.43s18.24 9.83 18.24 9.83 3.32-11.32 18.79-11.32 18.24 8.94 18.24 8.94 7.19-8.64 24.32-8.94 21 8.94 21 8.94 6.63-8.95 22.66-8.95 22.11 9.84 22.11 9.84 8.29-8.94 25.42-8.04 17.13 10.73 17.13 10.73 18.24-10.73 35.37-5.96 8.29 13.41 8.29 13.41 20.45-1.49 23.77 6.55c3.32 8.04-11.61 18.05-23.77 17.75 0 0 6.63 8.34-6.63 12.51s-26.53-4.77-26.53-4.77-4.42 9.83-22.66 9.83-22.11-11.92-22.11-11.92-2.76 10.13-23.77 11.92c-21 1.79-24.32-13.41-24.32-13.41s-2.21 12.51-22.11 13.55-25.42-13.85-25.42-13.85-7.74 14.4-33.16 13.9c-25.42-.5-24.32-17.18-24.32-17.18s-13.26 13.71-37.03 5.96c-23.77-7.75-4.42-22.82-4.42-22.82ZM286.92 541.22s-2.44 8.95-20.99 10.53c-18.55 1.58-21.48-11.84-21.48-11.84s-1.95 11.05-19.53 11.97c-17.57.92-22.46-12.23-22.46-12.23s-1.98 16.32-24.43 15.88c-22.46-.44-26.34-18.77-26.34-18.77s-9.2 22.48-28.63 9.74c-18.07-11.85-6.78-20.16-6.78-20.16s-16.88-9.38-4.14-22.33c6.77-6.88 20.5-1.61 23.43 3.65 0 0 0-8.95 15.62-9.21 15.62-.26 16.11 8.68 16.11 8.68s2.93-10 16.6-10 16.11 7.89 16.11 7.89 6.35-7.63 21.48-7.89c15.13-.26 18.55 7.89 18.55 7.89s5.86-7.91 20.01-7.9c14.16 0 19.53 8.69 19.53 8.69s8.75-13.72 23.15-5.81c14.4 7.91 16.64 51.12-15.82 41.23ZM103.48 97.01s1.78 12.86 20.33 11.28c18.55-1.58 17.2-10.66 17.2-10.66 32.46 9.89 30.22-33.32 15.82-41.23s-23.15 5.81-23.15 5.81-5.37-8.68-19.53-8.69c-14.16 0-18.21 17.14-18.21 17.14s-18.45-.38-14.31 16.94c4.96 20.72 21.84 9.41 21.84 9.41Z" class="cls-2"/><path d="M205.13 357.15 90.38 353.8l120.47-18.9-5.72 22.25z" style="fill:url(#Dégradé_sans_nom_10)"/><path d="M226.1 275.25 48.77 264.7l182.35-7-5.02 17.55z" style="fill:url(#Dégradé_sans_nom_10-2)"/><path d="M215.04 317.63 24.05 303.37l199.8-17.83-8.81 32.09z" style="fill:url(#Dégradé_sans_nom_10-3)"/><path d="M319.51 289.51c-3.58 0-6.83.1-9.78.3l24.53 29.08c36.27.79 59.13-6.66 59.47-10.97.58-7.29-32.4-18.35-74.22-18.42Z" style="fill:url(#Dégradé_sans_nom_26)"/><path d="M254.79 310.52s-8.29 16.61 28.46 35.64 75.07 24.92 77.96 17.17c2.18-5.85-27.42-23.99-58.35-43.27-31.78-19.8-43.68-18.6-48.07-9.54Z" style="fill:url(#Dégradé_secondaire1)"/><path d="M281.51 349.53c-39.62-20.51-30.52-39.89-30.14-40.66 2.67-5.51 7.52-8.43 14.04-8.43 8.84 0 21.75 5.36 39.45 16.4l3.68 2.29c6.73 4.19 12.76 7.96 18.15 11.39l6.07-7.5-76.13-90.26c-3.46-5.53-12.3-3.14-14.1 3.85l-43 165.62c-2.49 9.49 5.14 16.24 13.74 11.12l77.39-38.33 12.69-15.68a220.03 220.03 0 0 1-21.86-9.81Z" style="fill:url(#Dégradé_sans_nom_11-4)"/><path d="M735.16 263.95H426.48c-4.37 0-9.47 1.43-14.34 3.75 0 0-.02.02-.03.02l45.99 81.81 13.86 24.68c5.77 10.28 25.93 10.28 47.56 0l51.95-24.68 172.26-81.82c-1.27-2.33-4.2-3.77-8.58-3.77Z" style="fill:url(#Dégradé_sans_nom_46)"/><path d="m573.75 352.66-.65.31-51.95 24.68c-10.96 5.21-22.1 8.08-31.36 8.08-10.14 0-17.65-3.43-21.15-9.65l-13.86-24.68-.18-.32-162.1 71.32-2.93.36c-.01 4.39 3.45 7.27 9.9 7.27h306.42c6.13 0 13.58-2.6 20.1-6.63l-1.37-1-50.89-69.73Z" style="fill:url(#Dégradé_sans_nom_46-2)"/><path d="m291.49 418.69 161.25-70.95-43.56-77.49-.75.63a95.139 95.139 0 0 1-10.4 7.28c-.37.43-.74.85-1.08 1.29l-12.69 16.45c4.51 1.82 8.61 4.02 10.98 6.59 2.09 2.26 2.39 4.37 2.29 5.74-.22 2.72-2.28 6.76-17.67 10.45-4.55 1.09-9.69 1.98-15.21 2.65l-17.48 22.66c14.61 10.21 19.42 15.8 17.6 20.67-2.16 5.79-10.95 5.79-13.84 5.79-5.87 0-13.43-1.06-21.84-3.04l-35.58 46.12c-1.43 1.85-2.45 3.63-3.09 5.29l1.07-.13Z" style="fill:url(#Dégradé_sans_nom_46-3)"/><path d="m577.24 351 50.12 68.68.89.65c.36.26.66.59.91.95 3.18-2.31 6.01-4.95 8.17-7.75l103.44-134.07c2.21-2.86 3.39-5.55 3.63-7.85l-167.16 79.4Z" style="fill:url(#Dégradé_sans_nom_46-4)"/></svg>