<svg xmlns="http://www.w3.org/2000/svg" xmlns:xlink="http://www.w3.org/1999/xlink" id="Calque_1" data-name="Calque 1" viewBox="0 0 841.89 595.28"><defs><linearGradient id="Dégradé_sans_nom_26" x1="206.44" x2="603.81" y1="98.15" y2="495.52" data-name="Dégradé sans nom 26" gradientUnits="userSpaceOnUse"><stop offset="0" stop-color="#b0b0bf"/><stop offset="1" stop-color="#f4f4f6"/></linearGradient><linearGradient id="Dégradé_sans_nom_46" x1="457.5" x2="688.69" y1="271.28" y2="271.28" data-name="Dégradé sans nom 46" gradientUnits="userSpaceOnUse"><stop offset="0" stop-color="#5b5a72"/><stop offset="1" stop-color="#b0b0bf"/></linearGradient><linearGradient xlink:href="#Dégradé_sans_nom_46" id="Dégradé_sans_nom_46-2" x1="493.07" x2="561.95" y1="128.23" y2="128.23" data-name="Dégradé sans nom 46"/><linearGradient xlink:href="#Dégradé_sans_nom_46" id="Dégradé_sans_nom_46-3" x1="428.85" x2="800.34" y1="381.65" y2="381.65" data-name="Dégradé sans nom 46"/><linearGradient xlink:href="#Dégradé_sans_nom_46" id="Dégradé_sans_nom_46-4" x1="326.04" x2="515.85" y1="218.63" y2="218.63" data-name="Dégradé sans nom 46"/><linearGradient xlink:href="#Dégradé_sans_nom_46" id="Dégradé_sans_nom_46-5" x1="153.2" x2="384.39" y1="271.28" y2="271.28" data-name="Dégradé sans nom 46"/><linearGradient xlink:href="#Dégradé_sans_nom_46" id="Dégradé_sans_nom_46-6" x1="279.94" x2="348.82" y1="128.23" y2="128.23" data-name="Dégradé sans nom 46"/><linearGradient xlink:href="#Dégradé_sans_nom_46" id="Dégradé_sans_nom_46-7" x1="41.55" x2="413.04" y1="381.65" y2="381.65" data-name="Dégradé sans nom 46"/><linearGradient xlink:href="#Dégradé_sans_nom_26" id="Dégradé_sans_nom_26-2" x1="512.28" x2="586.52" y1="354.75" y2="429" data-name="Dégradé sans nom 26"/><linearGradient xlink:href="#Dégradé_sans_nom_46" id="Dégradé_sans_nom_46-8" x1="338.71" x2="237" y1="392.71" y2="392.71" data-name="Dégradé sans nom 46"/><linearGradient id="Dégradé_sans_nom_11" x1="358.6" x2="487.66" y1="314.43" y2="443.5" data-name="Dégradé sans nom 11" gradientUnits="userSpaceOnUse"><stop offset=".1" stop-color="#5b5a72"/><stop offset=".5" stop-color="#b0b0bf"/><stop offset=".96" stop-color="#f4f4f6"/></linearGradient><linearGradient xlink:href="#Dégradé_sans_nom_11" id="Dégradé_sans_nom_11-2" x1="339.12" x2="494.8" y1="191.55" y2="347.24" data-name="Dégradé sans nom 11"/><linearGradient xlink:href="#Dégradé_sans_nom_11" id="Dégradé_sans_nom_11-3" x1="411.86" x2="566.28" y1="100.34" y2="254.75" data-name="Dégradé sans nom 11"/><linearGradient xlink:href="#Dégradé_sans_nom_11" id="Dégradé_sans_nom_11-4" x1="355.63" x2="481.28" y1="190.67" y2="316.33" data-name="Dégradé sans nom 11"/><radialGradient id="Dégradé_sans_nom_17" cx="420.6" cy="531.65" r="100.96" data-name="Dégradé sans nom 17" fx="420.6" fy="531.65" gradientTransform="matrix(1.49 .00026 -.00002 .11 -205.71 471.06)" gradientUnits="userSpaceOnUse"><stop offset=".4" stop-color="#353544" stop-opacity=".5"/><stop offset="1" stop-color="#353544" stop-opacity="0"/></radialGradient><style>.cls-3{fill:#353544}.cls-7{fill:url(#Dégradé_sans_nom_26)}</style></defs><g style="fill:none;opacity:.4"><path d="M515.85 199.69s52.97-40.18 172.84-61.26c0 0-43.47 54.01-62.24 127.12-18.77 73.11-66.2 143.26-168.95 138.32 0 0 71.14 0 106.7-59.28 35.57-59.28 34.58-114.61 74.1-171.91 0 0-63.25-2.06-122.46 27.01ZM493.07 183.88s48.74-59.94 63.23-111.31c0 0 8.56 34.91 4.61 87.6 0 0-3.29-27.66-10.54-45.45 0 0-11.86 32.27-57.3 69.16Z" class="cls-7"/><path d="M428.85 409.8s32.6 50.39 111.64 50.39 182.78-96.82 259.84-84.97c0 0-65.21-48.41-168.95-72.12 0 0 79.04 27.66 101.76 59.28 0 0-73.98 17.52-141.28 57.3s-127.45 25.69-163.02-9.88ZM420.94 120.32c0 46.44-34.58 72.12-68.17 145.24-33.59 73.11 25.69 120.54 25.69 120.54-85.96-56.32-49.4-160.06-8.89-213.41 40.51-53.35 51.38-121.52 51.38-121.52s10.87 68.17 51.38 121.52c40.51 53.35 77.06 157.09-8.89 213.41 0 0 59.28-47.42 25.69-120.54-33.59-73.11-68.17-98.8-68.17-145.24Z" class="cls-7"/><path d="M326.04 199.69s-52.97-40.18-172.84-61.26c0 0 43.47 54.01 62.24 127.12 18.77 73.11 66.2 143.26 168.95 138.32 0 0-71.14 0-106.7-59.28-35.57-59.28-34.58-114.61-74.1-171.91 0 0 75.5.27 122.46 27.01ZM348.82 183.88s-48.74-59.94-63.23-111.31c0 0-8.56 34.91-4.61 87.6 0 0 3.29-27.66 10.54-45.45 0 0 11.86 32.27 57.3 69.16Z" class="cls-7"/><path d="M413.04 409.8s-32.6 50.39-111.64 50.39c-79.04 0-182.78-96.82-259.84-84.97 0 0 65.21-48.41 168.95-72.12 0 0-79.04 27.66-101.76 59.28 0 0 73.98 17.52 141.28 57.3s127.45 25.69 163.02-9.88Z" class="cls-7"/><path d="M515.85 199.69s52.97-40.18 172.84-61.26c0 0-43.47 54.01-62.24 127.12-18.77 73.11-66.2 143.26-168.95 138.32 0 0 71.14 0 106.7-59.28 35.57-59.28 34.58-114.61 74.1-171.91 0 0-63.25-2.06-122.46 27.01Z" style="fill:url(#Dégradé_sans_nom_46)"/><path d="M493.07 183.88s48.74-59.94 63.23-111.31c0 0 8.56 34.91 4.61 87.6 0 0-3.29-27.66-10.54-45.45 0 0-11.86 32.27-57.3 69.16Z" style="fill:url(#Dégradé_sans_nom_46-2)"/><path d="M428.85 409.8s32.6 50.39 111.64 50.39 182.78-96.82 259.84-84.97c0 0-65.21-48.41-168.95-72.12 0 0 79.04 27.66 101.76 59.28 0 0-73.98 17.52-141.28 57.3s-127.45 25.69-163.02-9.88Z" style="fill:url(#Dégradé_sans_nom_46-3)"/><path d="M420.94 120.32c0 46.44-34.58 72.12-68.17 145.24-33.59 73.11 25.69 120.54 25.69 120.54-85.96-56.32-49.4-160.06-8.89-213.41 40.51-53.35 51.38-121.52 51.38-121.52s10.87 68.17 51.38 121.52c40.51 53.35 77.06 157.09-8.89 213.41 0 0 59.28-47.42 25.69-120.54-33.59-73.11-68.17-98.8-68.17-145.24Z" style="fill:url(#Dégradé_sans_nom_46-4)"/><path d="M326.04 199.69s-52.97-40.18-172.84-61.26c0 0 43.47 54.01 62.24 127.12 18.77 73.11 66.2 143.26 168.95 138.32 0 0-71.14 0-106.7-59.28-35.57-59.28-34.58-114.61-74.1-171.91 0 0 75.5.27 122.46 27.01Z" style="fill:url(#Dégradé_sans_nom_46-5)"/><path d="M348.82 183.88s-48.74-59.94-63.23-111.31c0 0-8.56 34.91-4.61 87.6 0 0 3.29-27.66 10.54-45.45 0 0 11.86 32.27 57.3 69.16Z" style="fill:url(#Dégradé_sans_nom_46-6)"/><path d="M413.04 409.8s-32.6 50.39-111.64 50.39c-79.04 0-182.78-96.82-259.84-84.97 0 0 65.21-48.41 168.95-72.12 0 0-79.04 27.66-101.76 59.28 0 0 73.98 17.52 141.28 57.3s127.45 25.69 163.02-9.88Z" style="fill:url(#Dégradé_sans_nom_46-7)"/></g><ellipse cx="420.6" cy="531.65" rx="152.74" ry="12.46" style="fill:url(#Dégradé_sans_nom_17)"/><path d="M501.79 371.69c.98 9.48 5.77 22.53 22.9 32.05 21.92 12.21 65.16 16.51 87.01 17.97 3.12.22 4.23-4 1.47-5.44l-100.74-51.73c-5.13-2.66-11.22 1.44-10.64 7.16Z" style="fill:url(#Dégradé_sans_nom_26-2)"/><path d="M340.1 371.69c-.98 9.48-5.77 22.53-22.9 32.05-21.92 12.21-65.16 16.51-87.01 17.97-3.12.22-4.23-4-1.47-5.44l100.74-51.73c5.13-2.66 11.22 1.44 10.64 7.16Z" style="fill:url(#Dégradé_sans_nom_46-8)"/><path d="M494.84 335.63c6.38-1.91 11.92 4.77 8.82 10.66l-73.1 140.07c-4.17 8.04-15.73 8.04-19.9 0l-73.1-140.07c-3.04-5.9 2.5-12.57 8.88-10.66l65.95 20.02 4.77 57.61c.36 4.23 6.55 4.23 6.91 0l4.77-57.61 66.01-20.02Z" style="fill:url(#Dégradé_sans_nom_11)"/><path d="M345.29 171.85v46c-5.72 11.38-8.94 24.25-8.94 37.83v-83.89c-4.17-3.69-7.09-12.39-7.09-22.58 0-13.52 5.18-18.53 11.62-18.53s11.62 5 11.62 18.53c0 10.19-2.98 18.95-7.21 22.64Z" style="fill:url(#Dégradé_sans_nom_11-2)"/><path d="M504.85 171.79v83.89c0-13.58-3.22-26.45-8.94-37.83v-46c-4.23-3.69-7.21-12.45-7.21-22.64 0-13.52 5.24-18.53 11.62-18.53s11.62 5 11.62 18.53c0 10.19-2.92 18.89-7.09 22.58Z" style="fill:url(#Dégradé_sans_nom_11-3)"/><path d="M420.6 294.94c21.75 0 39.32-17.58 39.32-39.26s-17.58-39.32-39.32-39.32-39.32 17.58-39.32 39.32 17.64 39.26 39.32 39.26Zm75.31-77.1c5.72 11.38 8.94 24.25 8.94 37.83 0 46.47-37.71 84.19-84.25 84.19s-84.25-37.71-84.25-84.19c0-13.58 3.22-26.45 8.94-37.83 13.88-27.53 42.36-46.41 75.31-46.41s61.43 18.89 75.31 46.41Z" style="fill:url(#Dégradé_sans_nom_11-4)"/><path d="M444.07 202.34s14.12-5.97 30.7 14.02c0 0-10.61-19.73-19.02-21.03-7.85-1.21-11.68 7.01-11.68 7.01ZM397.13 202.34s-14.12-5.97-30.7 14.02c0 0 10.61-19.73 19.02-21.03 7.85-1.21 11.68 7.01 11.68 7.01ZM393.63 253.15c.77-1.57 3.18-.94 3.05.8-.67 9.03-3.7 19.58-14.27 19.58s-14.26-11.24-15.17-20.44c-.18-1.79 2.25-2.45 3.07-.84 2.23 4.38 5.97 8.41 12.2 8.41 5.79 0 9.16-3.49 11.12-7.51ZM470.92 253.15c.77-1.57 3.18-.94 3.05.8-.67 9.03-3.7 19.58-14.27 19.58s-14.26-11.24-15.17-20.44c-.18-1.79 2.25-2.45 3.07-.84 2.23 4.38 5.97 8.41 12.2 8.41 5.79 0 9.16-3.49 11.12-7.51Z" class="cls-3"/><path d="M409.03 305.71s2.82 4.72 11.52 4.72 11.24-4.72 11.24-4.72" style="stroke:#5b5a72;stroke-linecap:round;stroke-linejoin:round;stroke-width:2.32px;fill:none"/></svg>