<svg xmlns="http://www.w3.org/2000/svg" xmlns:xlink="http://www.w3.org/1999/xlink" id="Calque_1" data-name="Calque 1" viewBox="0 0 841.89 595.28"><defs><linearGradient id="Dégradé_sans_nom_11" x1="339.67" x2="499.76" y1="86.19" y2="246.28" data-name="Dégradé sans nom 11" gradientUnits="userSpaceOnUse"><stop offset=".1" stop-color="#5b5a72"/><stop offset=".5" stop-color="#b0b0bf"/><stop offset=".96" stop-color="#f4f4f6"/></linearGradient><linearGradient xlink:href="#Dégradé_sans_nom_11" id="Dégradé_sans_nom_11-2" x1="318.44" x2="455.27" y1="111.76" y2="248.59" data-name="Dégradé sans nom 11"/><linearGradient xlink:href="#Dégradé_sans_nom_11" id="Dégradé_sans_nom_11-3" x1="444.77" x2="584.61" y1="29.17" y2="169.01" data-name="Dégradé sans nom 11"/><linearGradient xlink:href="#Dégradé_sans_nom_11" id="Dégradé_sans_nom_11-4" x1="376.2" x2="530.02" y1="235.42" y2="389.23" data-name="Dégradé sans nom 11"/><linearGradient xlink:href="#Dégradé_sans_nom_11" id="Dégradé_sans_nom_11-5" x1="422.64" x2="576.45" y1="188.98" y2="342.79" data-name="Dégradé sans nom 11"/><linearGradient xlink:href="#Dégradé_sans_nom_11" id="Dégradé_sans_nom_11-6" x1="400.42" x2="554.24" y1="211.2" y2="365.01" data-name="Dégradé sans nom 11"/><linearGradient id="Dégradé_sans_nom_46" x1="307.64" x2="414.64" y1="311.52" y2="418.51" data-name="Dégradé sans nom 46" gradientTransform="rotate(-32.04 306.993 346.613)" gradientUnits="userSpaceOnUse"><stop offset="0" stop-color="#5b5a72"/><stop offset="1" stop-color="#b0b0bf"/></linearGradient><linearGradient xlink:href="#Dégradé_sans_nom_11" id="Dégradé_sans_nom_11-7" x1="322.14" x2="475.95" y1="289.48" y2="443.29" data-name="Dégradé sans nom 11"/><linearGradient id="Dégradé_sans_nom_10" x1="407.4" x2="427.43" y1="367.91" y2="387.94" data-name="Dégradé sans nom 10" gradientUnits="userSpaceOnUse"><stop offset="0" stop-color="#b0b0bf"/><stop offset="1" stop-color="#f4f4f6"/></linearGradient><linearGradient xlink:href="#Dégradé_sans_nom_10" id="Dégradé_sans_nom_10-2" x1="452.73" x2="527.47" y1="295.65" y2="370.39" data-name="Dégradé sans nom 10"/><radialGradient id="Dégradé_sans_nom_17" cx="422.69" cy="521.1" r="128.87" data-name="Dégradé sans nom 17" fx="422.69" fy="521.1" gradientTransform="matrix(1 .00035 -.00004 .11 .02 461.7)" gradientUnits="userSpaceOnUse"><stop offset=".4" stop-color="#353544" stop-opacity=".5"/><stop offset="1" stop-color="#353544" stop-opacity="0"/></radialGradient><clipPath id="clippath"><path d="m623.51 285.24-.21.21c-.09.09-.21.18-.35.29h-.01c-.14.11-.29.22-.47.33 0 0-.02.01-.02.02-.17.11-.37.22-.58.33-.01 0-.02.01-.03.02-.21.1-.44.2-.69.28-.01 0-.03 0-.04.01-.25.08-.51.15-.79.2h-.05c-.28.05-.58.07-.88.08h-.11c-.09 0-.18 0-.28-.01h-.14c-.11 0-.21-.02-.32-.04-.03 0-.06 0-.09-.01-.14-.02-.28-.05-.43-.08-.04 0-.08-.02-.12-.03l-.33-.09c-.05-.02-.11-.03-.16-.05-.1-.04-.21-.07-.31-.12-.05-.02-.1-.04-.16-.06-.14-.06-.28-.12-.42-.19-.02 0-.04-.02-.06-.03-.16-.08-.32-.17-.48-.26-.05-.03-.11-.06-.16-.1-.11-.07-.23-.14-.34-.22-.06-.04-.12-.08-.18-.13-.12-.08-.24-.17-.35-.26-.06-.04-.11-.08-.17-.13-.17-.13-.34-.28-.52-.43-.03-.03-.07-.06-.1-.09-.14-.13-.29-.26-.44-.41l-.19-.19c-.12-.12-.24-.25-.37-.38-.07-.07-.13-.14-.2-.21-.13-.15-.27-.3-.4-.46-.05-.06-.11-.12-.16-.18-.18-.22-.37-.45-.56-.69-.05-.07-.11-.14-.16-.21-.14-.18-.28-.37-.42-.57l-.21-.3c-.13-.19-.26-.38-.39-.58-.07-.1-.14-.21-.21-.31-.16-.25-.32-.5-.48-.77a1.74 1.74 0 0 1-.11-.18c-.2-.32-.39-.66-.59-1.01-.06-.11-.13-.23-.19-.35-.14-.25-.28-.51-.42-.78-.07-.14-.15-.28-.22-.42-.14-.27-.28-.55-.42-.84-.07-.13-.13-.26-.2-.4-.2-.42-.41-.85-.62-1.29-.03-.06-.05-.11-.08-.17-.18-.4-.37-.81-.55-1.24-.07-.16-.14-.32-.21-.49-.14-.34-.29-.68-.44-1.04-.07-.18-.15-.36-.22-.54-.16-.39-.31-.78-.47-1.19l-.18-.45c-.21-.56-.43-1.13-.64-1.71-.05-.13-.09-.26-.14-.39-.17-.47-.34-.96-.51-1.45-.07-.21-.14-.42-.22-.64-.15-.44-.3-.89-.45-1.35-.07-.22-.14-.44-.22-.67-.18-.56-.36-1.13-.54-1.71-.04-.12-.08-.24-.11-.37-.22-.71-.44-1.44-.65-2.19-.06-.2-.12-.42-.18-.62-.16-.56-.32-1.13-.48-1.71-.07-.27-.15-.54-.22-.82-.15-.57-.31-1.14-.46-1.73-.07-.26-.14-.51-.2-.77-.22-.84-.44-1.7-.66-2.58-1.49-5.98-3.15-11.27-4.92-15.94-.71-1.87-1.43-3.64-2.17-5.31-.74-1.68-1.49-3.26-2.25-4.75-.76-1.49-1.53-2.9-2.31-4.22-8.14-13.89-16.84-18.62-21.28-20.2l-38.23 71c4.93 1.67 14.82 7.22 23.45 25.55 2.52 5.34 4.93 11.78 7.07 19.52.31 1.11.61 2.24.9 3.4.21.84.43 1.65.64 2.44.07.24.13.48.2.72.15.56.31 1.11.46 1.64.07.26.15.51.22.76.16.55.32 1.09.49 1.63l.18.58c.22.71.44 1.4.66 2.07.04.13.08.25.13.37.18.55.37 1.08.55 1.6.07.21.15.41.22.61.16.44.32.88.48 1.31.07.19.14.39.22.58a108.606 108.606 0 0 0 .69 1.73c.23.56.46 1.11.69 1.64.06.14.12.27.18.4.17.39.34.78.52 1.15.07.16.15.32.22.48.17.35.33.7.5 1.03.07.14.13.27.2.41.46.92.92 1.78 1.38 2.58.07.12.13.23.2.34.17.29.33.57.5.84.07.12.14.23.22.35.18.28.35.55.53.82.05.08.11.17.16.25.23.34.46.67.69.98.04.05.07.1.11.15.19.26.38.51.57.75.07.09.14.17.21.26.16.2.33.4.49.59.07.08.14.16.2.24.19.22.38.43.57.64.03.03.06.07.09.1.22.24.45.46.67.68.05.05.11.1.16.15.17.16.33.31.5.46l.21.18c.16.14.32.27.47.39l.18.15c.43.33.85.63 1.27.89.06.04.12.07.18.11.15.09.3.18.45.26.07.04.13.07.2.11.15.08.31.16.46.23.05.02.1.05.15.07.2.09.4.17.59.25.04.01.08.03.11.04.16.06.31.11.47.17.06.02.12.04.19.06.13.04.27.08.4.11.06.02.12.03.18.05.15.04.3.07.45.1.03 0 .06.01.1.02.18.03.36.06.53.08.05 0 .1.01.15.02.13.01.25.03.37.03.06 0 .12 0 .18.01.12 0 .23 0 .35.01h.13c.39 0 .76-.03 1.11-.07h.07c.35-.05.68-.11.99-.19.02 0 .04-.01.06-.02.31-.08.59-.17.86-.26.02 0 .04-.01.06-.02.26-.1.51-.2.73-.3.02 0 .03-.02.05-.02.22-.1.41-.2.58-.3.01 0 .02-.01.04-.02.17-.09.31-.18.43-.26 0 0 .02-.01.02-.02.11-.07.21-.14.27-.18l.02-.01c.05-.04.08-.06.08-.06l24.1-44.75 12.05-22.37s-.03.03-.07.08Z" style="fill:none"/></clipPath><style>.cls-2{fill:none}.cls-4{fill:#f4f4f6}.cls-5,.cls-6{fill:#fff}.cls-9{fill:#b0b0bf}.cls-10{fill:#5b5a72}.cls-11{fill:#353544}.cls-12{fill:#79b6fb}.cls-2{stroke:#f4f4f6;stroke-linecap:round;stroke-linejoin:round;stroke-width:1.84px}.cls-6{opacity:.5}</style></defs><path d="m444.88 378.99-.9 3.78c-.47 1.98.7 3.98 2.66 4.53 1.96.56 4.01-.53 4.64-2.46l2.74-8.29c-3.09.85-6.14 1.67-9.14 2.44Z" class="cls-12"/><path d="M518.42 120.81c-17.69-35.07-53.98-59.14-95.96-59.14s-78.27 24.07-95.96 59.14c-7.29 14.5-11.39 30.9-11.39 48.21 0 29.56 11.98 56.34 31.35 75.75l14.41-9.14c3.44-2.18 7.4-3.34 11.43-3.34 1.58 0 3.16.18 4.71.52 1.95.44 3.82 1.14 5.58 2.11l10.14-2.75c1.1-.37 2.25-.55 3.41-.55 3.74 0 7.16 1.88 9.17 5.04l15.96 25.16c2.69 4.23 2.14 9.69-1.31 13.3l-.95 1.1c.53.02 1.06.02 1.59.03 1.21-2.77 2.77-5.13 4.01-6.77a4.95 4.95 0 0 1 3.98-1.99c1.34 0 2.65.55 3.59 1.5.94.96 1.45 2.23 1.43 3.59l-.04 3.14c4.27-.44 8.47-1.13 12.57-2.06v-.68a5.043 5.043 0 0 1 5.03-4.98c1.63 0 3.17.81 4.1 2.16.18.26.36.54.55.83 3.01-.98 5.95-2.11 8.83-3.34 1.61-5.23 4.85-7.18 7.29-8.63 1.95-1.16 3.13-1.87 3.92-4.15 1.12-3.24-.35-4.64-.91-5.03-1.74-.92-2.4-2.97-1.63-4.79.6-1.43 2.05-2.28 3.55-2.28.42 0 .84.07 1.26.2.41.14 7.67 2.65 12.52 8.83 23.89-19.68 39.13-49.46 39.13-82.79 0-17.31-4.1-33.71-11.39-48.21Zm-95.96 113.01c-27.63 0-50.1-17.87-50.1-39.92s22.47-39.98 50.1-39.98 50.1 17.87 50.1 39.98-22.4 39.92-50.1 39.92Z" style="fill:url(#Dégradé_sans_nom_11)"/><path d="M326.5 112.31v8.49c-7.29 14.5-11.39 30.9-11.39 48.21v-56.77c-5.31-4.33-9.03-17.29-9.03-29.24 0-15.87 6.6-24.73 14.8-24.73s14.8 8.86 14.8 24.73c0 11.95-3.8 24.98-9.19 29.31Z" style="fill:url(#Dégradé_sans_nom_11-2)"/><path d="M529.8 112.24v56.77c0-17.31-4.1-33.71-11.39-48.21v-8.49c-5.39-4.33-9.19-17.36-9.19-29.31 0-15.87 6.68-24.73 14.8-24.73s14.8 8.86 14.8 24.73c0 11.95-3.72 24.91-9.03 29.24Z" style="fill:url(#Dégradé_sans_nom_11-3)"/><ellipse cx="422.69" cy="521.1" rx="130.92" ry="15.9" style="fill:url(#Dégradé_sans_nom_17)"/><ellipse cx="472.25" cy="194.01" class="cls-11" rx="19.59" ry="33.22"/><ellipse cx="467.57" cy="185.23" class="cls-6" rx="4.55" ry="3.13"/><ellipse cx="474.53" cy="175.62" class="cls-6" rx="6.96" ry="6.11"/><ellipse cx="373.13" cy="194.01" class="cls-11" rx="19.59" ry="33.22"/><ellipse cx="368.44" cy="185.23" class="cls-6" rx="4.55" ry="3.13"/><ellipse cx="375.4" cy="175.62" class="cls-6" rx="6.96" ry="6.11"/><path d="M452.66 126.71s18.03-7.62 39.19 17.89c0 0-13.54-25.18-24.28-26.84-10.02-1.55-14.91 8.95-14.91 8.95ZM392.73 126.71s-18.03-7.62-39.19 17.89c0 0 13.54-25.18 24.28-26.84 10.02-1.55 14.91 8.95 14.91 8.95Z" class="cls-11"/><path d="m476.05 282.82-.51-.14c-5.36-1.52-8.71-6.9-7.62-12.36l.06-.27c1.95-9.09 8.84-6.25 11.5-13.93 2.32-6.68-2.54-9.53-2.54-9.53s11.58 3.89 13.85 14c1.74 7.75.59 15.27-4.41 19.89-2.76 2.55-6.71 3.38-10.33 2.35Z" style="fill:#fdd46a"/><path d="M419.35 258.78c1.05.12 2.16.19 3.34.19 19.3.09 21.56-17.89 21.56-17.89h-36.13l11.23 17.7Z" class="cls-10"/><path d="m462.77 287.46-2.55.77c-.06.32-.12.63-.2.95-2.05 7.9-6.81 11.95-9.75 13.77l-.77 40.27 13.28-55.77Z" style="fill:url(#Dégradé_sans_nom_11-4)"/><path d="m458.43 375.31-3.54 10.72a7.578 7.578 0 0 1-7.21 5.21c-.1 0-.2-.02-.29-.02-.11 2.11.97 4.2 2.96 5.27a5.65 5.65 0 0 0 7.65-2.29l12.1-22.39c-3.89 1.23-7.79 2.4-11.66 3.5ZM563.66 186.82a5.65 5.65 0 0 0-7.65 2.29l-70.24 129.94 20.65-14.46 59.53-110.13a5.65 5.65 0 0 0-2.29-7.65Z" class="cls-10"/><path d="m525 291.59 3.7-7.09c2.03-3.87 1.15-7.99-1.29-10.76l-14.05 26 11.64-8.15Z" style="fill:url(#Dégradé_sans_nom_11-5)"/><path d="m486.49 290.49-12.08 36.52 4.41-3.09 26.72-49.43-12.83 3.89c-.99 1.83-2.23 3.47-3.75 4.87-.82.76-1.73 1.4-2.69 1.94.69 1.65.81 3.53.22 5.3Z" style="fill:url(#Dégradé_sans_nom_11-6)"/><path d="m469.2 330.65 13.68-41.36c.31-.93.23-1.88-.13-2.71-1.17.29-2.38.46-3.62.46-1.39 0-2.78-.19-4.12-.57l-.51-.14a14.49 14.49 0 0 1-6.01-3.43c-.58.5-1.01 1.17-1.2 1.97l-13.47 56.55 15.38-10.76Z" class="cls-12"/><path d="M432.15 300.37h.27l-1.09 56.8 14.29-10 .89-46.52s7.3-2.63 9.83-12.41c1.6-6.17-1.75-12.43-4.16-15.92-.67-.97-2.2-.5-2.21.69l-.06 8.19-10.2 5.63-9.98-6.02.12-8.28c.02-1.17-1.47-1.69-2.18-.75-2.58 3.42-6.31 9.66-4.86 15.82 2.31 9.83 9.35 12.78 9.35 12.78ZM423.15 384.14c.74 1.46 1.56 2.75 2.28 3.79.67.96 2.18.5 2.21-.67l.1-4.14c-1.57.35-3.09.69-4.59 1.02Z" class="cls-11"/><path d="m365.86 366.15 4.99 7.88c4.94 7.79 15.26 10.1 23.04 5.16l7.29-4.62c-11.47-2.26-23.65-5.04-35.33-8.41ZM319.86 293.61l105.81 64.74c.67-.52 1.31-.96 1.86-1.3l.88-46.12-41.97-66.18c-4.94-7.79-15.26-10.1-23.04-5.16l-41.38 26.24c-7.79 4.94-10.1 15.26-5.16 23.04l3 4.72Z" class="cls-5"/><path d="m404.46 297.9-18.38-28.98M397.46 302.34l-9.5-14.98" class="cls-2"/><path d="m424.56 345.35 3.24-2.05.22-11.38-15.41-24.3a6.127 6.127 0 0 0-8.45-1.89l-3.37 2.14a6.127 6.127 0 0 0-1.89 8.45l17.22 27.15a6.127 6.127 0 0 0 8.45 1.89Z" class="cls-4"/><path d="m318.08 292.53 3.55 2.17-4-6.3c-2.26-3.56-2.99-7.78-2.07-11.9.92-4.11 3.39-7.62 6.95-9.88l41.38-26.24c2.98-1.89 6.43-2.72 9.89-2.39.67.06 1.34.17 2 .32 4.11.92 7.62 3.39 9.88 6.95l42.72 67.35.06-3.33-18.2-28.7 6.92-8.02a7.055 7.055 0 0 0 .91-8.71l-15.96-25.16a7.06 7.06 0 0 0-8.27-2.89l-11.82 3.2a17.46 17.46 0 0 0-5.84-2.49c-4.59-1.03-9.31-.21-13.28 2.31l-41.38 26.24c-8.2 5.2-10.64 16.11-5.44 24.31l2 3.15ZM399.88 374.3l-6.47 4.11c-7.35 4.66-17.12 2.47-21.78-4.87l-4.45-7.01c-.89-.25-1.78-.51-2.66-.77l5.56 8.76c3.03 4.78 8.01 7.61 13.25 8.1 3.75.35 7.64-.49 11.06-2.66l8.11-5.14c-.87-.17-1.74-.34-2.62-.51Z" class="cls-9"/><path d="m313.29 294.04 123.3 75.44c3.38 2.1 1.56 7.37-2.39 6.79-27.68-3.94-82.31-13.53-109.04-31.16-20.9-13.75-25.74-30.81-26.09-42.98-.19-7.33 7.94-11.97 14.22-8.09Z" style="fill:url(#Dégradé_sans_nom_46)"/><path d="m475.32 370.11-13.99 25.88a9.45 9.45 0 0 1-8.32 4.97 9.447 9.447 0 0 1-9.04-6.73 9.384 9.384 0 0 1-.28-4.14 7.556 7.556 0 0 1-3.4-8.21l.44-1.85c-3.14.78-6.2 1.52-9.16 2.2l-.12 5.1a4.998 4.998 0 0 1-5.02 4.9c-1.63 0-3.16-.8-4.1-2.15-.92-1.32-2.02-3.09-2.98-5.14-1.33.28-2.63.56-3.88.81-.53.11-1.07.17-1.6.17-3.19 0-6.01-2.09-7-5.2a7.486 7.486 0 0 1-.13-4.11l-10.3 6.53a21.304 21.304 0 0 1-11.44 3.33c-.67 0-1.34-.03-2.01-.09-6.66-.62-12.53-4.21-16.1-9.85l-7.92-12.49c-.3-.09-.6-.19-.9-.28l51.94 99.52c5.32 10.27 20.08 10.27 25.4 0l50.58-96.91c-3.5 1.3-7.06 2.54-10.65 3.73Z" style="fill:url(#Dégradé_sans_nom_11-7)"/><path d="M425.67 358.35c.67-.52 1.31-.96 1.86-1.3v-.3l-2.19 1.39.33.2Z" class="cls-9"/><path d="M410.92 376.39c-1.73 2.52.33 6.39 3.76 5.67 3.91-.81 8.38-1.76 13.21-2.86-5.19-.79-10.92-1.72-16.97-2.8Z" style="fill:url(#Dégradé_sans_nom_10)"/><path d="M544.98 299.73c-.26-7.33-8.66-11.46-14.7-7.2l-98.97 69.28 7.27 4.45c2.89 1.8 4.2 5.19 3.27 8.45-.12.44-.29.85-.48 1.24 27.57-6.94 61.48-17.64 80.21-31.72 20.01-15.01 23.8-32.34 23.39-44.5Z" style="fill:url(#Dégradé_sans_nom_10-2)"/><g style="clip-path:url(#clippath);fill:none"><path d="m623.51 285.24-.21.21c-.09.09-.21.18-.35.29h-.01c-.14.11-.29.22-.47.33 0 0-.02.01-.02.02-.17.11-.37.22-.58.33-.01 0-.02.01-.03.02-.21.1-.44.2-.69.28-.01 0-.03 0-.04.01-.25.08-.51.15-.79.2h-.05c-.28.05-.58.07-.88.08h-.11c-.09 0-.18 0-.28-.01h-.14c-.11 0-.21-.02-.32-.04-.03 0-.06 0-.09-.01-.14-.02-.28-.05-.43-.08-.04 0-.08-.02-.12-.03l-.33-.09c-.05-.02-.11-.03-.16-.05-.1-.04-.21-.07-.31-.12-.05-.02-.1-.04-.16-.06-.14-.06-.28-.12-.42-.19-.02 0-.04-.02-.06-.03-.16-.08-.32-.17-.48-.26-.05-.03-.11-.06-.16-.1-.11-.07-.23-.14-.34-.22-.06-.04-.12-.08-.18-.13-.12-.08-.24-.17-.35-.26-.06-.04-.11-.08-.17-.13-.17-.13-.34-.28-.52-.43-.03-.03-.07-.06-.1-.09-.14-.13-.29-.26-.44-.41l-.19-.19c-.12-.12-.24-.25-.37-.38-.07-.07-.13-.14-.2-.21-.13-.15-.27-.3-.4-.46-.05-.06-.11-.12-.16-.18-.18-.22-.37-.45-.56-.69-.05-.07-.11-.14-.16-.21-.14-.18-.28-.37-.42-.57l-.21-.3c-.13-.19-.26-.38-.39-.58-.07-.1-.14-.21-.21-.31-.16-.25-.32-.5-.48-.77a1.74 1.74 0 0 1-.11-.18c-.2-.32-.39-.66-.59-1.01-.06-.11-.13-.23-.19-.35-.14-.25-.28-.51-.42-.78-.07-.14-.15-.28-.22-.42-.14-.27-.28-.55-.42-.84-.07-.13-.13-.26-.2-.4-.2-.42-.41-.85-.62-1.29-.03-.06-.05-.11-.08-.17-.18-.4-.37-.81-.55-1.24-.07-.16-.14-.32-.21-.49-.14-.34-.29-.68-.44-1.04-.07-.18-.15-.36-.22-.54-.16-.39-.31-.78-.47-1.19l-.18-.45c-.21-.56-.43-1.13-.64-1.71-.05-.13-.09-.26-.14-.39-.17-.47-.34-.96-.51-1.45-.07-.21-.14-.42-.22-.64-.15-.44-.3-.89-.45-1.35-.07-.22-.14-.44-.22-.67-.18-.56-.36-1.13-.54-1.71-.04-.12-.08-.24-.11-.37-.22-.71-.44-1.44-.65-2.19-.06-.2-.12-.42-.18-.62-.16-.56-.32-1.13-.48-1.71-.07-.27-.15-.54-.22-.82-.15-.57-.31-1.14-.46-1.73-.07-.26-.14-.51-.2-.77-.22-.84-.44-1.7-.66-2.58-1.49-5.98-3.15-11.27-4.92-15.94-.71-1.87-1.43-3.64-2.17-5.31-.74-1.68-1.49-3.26-2.25-4.75-.76-1.49-1.53-2.9-2.31-4.22-8.14-13.89-16.84-18.62-21.28-20.2l-38.23 71c4.93 1.67 14.82 7.22 23.45 25.55 2.52 5.34 4.93 11.78 7.07 19.52.31 1.11.61 2.24.9 3.4.21.84.43 1.65.64 2.44.07.24.13.48.2.72.15.56.31 1.11.46 1.64.07.26.15.51.22.76.16.55.32 1.09.49 1.63l.18.58c.22.71.44 1.4.66 2.07.04.13.08.25.13.37.18.55.37 1.08.55 1.6.07.21.15.41.22.61.16.44.32.88.48 1.31.07.19.14.39.22.58a108.606 108.606 0 0 0 .69 1.73c.23.56.46 1.11.69 1.64.06.14.12.27.18.4.17.39.34.78.52 1.15.07.16.15.32.22.48.17.35.33.7.5 1.03.07.14.13.27.2.41.46.92.92 1.78 1.38 2.58.07.12.13.23.2.34.17.29.33.57.5.84.07.12.14.23.22.35.18.28.35.55.53.82.05.08.11.17.16.25.23.34.46.67.69.98.04.05.07.1.11.15.19.26.38.51.57.75.07.09.14.17.21.26.16.2.33.4.49.59.07.08.14.16.2.24.19.22.38.43.57.64.03.03.06.07.09.1.22.24.45.46.67.68.05.05.11.1.16.15.17.16.33.31.5.46l.21.18c.16.14.32.27.47.39l.18.15c.43.33.85.63 1.27.89.06.04.12.07.18.11.15.09.3.18.45.26.07.04.13.07.2.11.15.08.31.16.46.23.05.02.1.05.15.07.2.09.4.17.59.25.04.01.08.03.11.04.16.06.31.11.47.17.06.02.12.04.19.06.13.04.27.08.4.11.06.02.12.03.18.05.15.04.3.07.45.1.03 0 .06.01.1.02.18.03.36.06.53.08.05 0 .1.01.15.02.13.01.25.03.37.03.06 0 .12 0 .18.01.12 0 .23 0 .35.01h.13c.39 0 .76-.03 1.11-.07h.07c.35-.05.68-.11.99-.19.02 0 .04-.01.06-.02.31-.08.59-.17.86-.26.02 0 .04-.01.06-.02.26-.1.51-.2.73-.3.02 0 .03-.02.05-.02.22-.1.41-.2.58-.3.01 0 .02-.01.04-.02.17-.09.31-.18.43-.26 0 0 .02-.01.02-.02.11-.07.21-.14.27-.18l.02-.01c.05-.04.08-.06.08-.06l24.1-44.75 12.05-22.37s-.03.03-.07.08Z" class="cls-4"/><path d="M578.65 268.74h49.69v97.98h-49.69z" style="fill:#e76767" transform="rotate(31.36 603.491 317.725)"/><path d="m556.114 191.834 42.29 26.088-51.442 83.39-42.29-26.089z" class="cls-12"/></g></svg>