<svg xmlns="http://www.w3.org/2000/svg" xmlns:xlink="http://www.w3.org/1999/xlink" id="Calque_1" data-name="Calque 1" viewBox="0 0 841.89 595.28"><defs><linearGradient id="Dégradé_sans_nom_11" x1="332.82" x2="448.74" y1="201.39" y2="317.32" data-name="Dégradé sans nom 11" gradientUnits="userSpaceOnUse"><stop offset=".1" stop-color="#5b5a72"/><stop offset=".5" stop-color="#b0b0bf"/><stop offset=".96" stop-color="#f4f4f6"/></linearGradient><linearGradient xlink:href="#Dégradé_sans_nom_11" id="Dégradé_sans_nom_11-2" x1="439.85" x2="558.32" y1="131.42" y2="249.89" data-name="Dégradé sans nom 11"/><linearGradient xlink:href="#Dégradé_sans_nom_11" id="Dégradé_sans_nom_11-3" x1="350.81" x2="486.44" y1="179.73" y2="315.37" data-name="Dégradé sans nom 11"/><linearGradient id="Dégradé_sans_nom_26" x1="567.3" x2="440.82" y1="379.84" y2="379.84" data-name="Dégradé sans nom 26" gradientUnits="userSpaceOnUse"><stop offset="0" stop-color="#b0b0bf"/><stop offset="1" stop-color="#f4f4f6"/></linearGradient><linearGradient xlink:href="#Dégradé_sans_nom_11" id="Dégradé_sans_nom_11-4" x1="383.97" x2="526.17" y1="267.35" y2="409.55" data-name="Dégradé sans nom 11"/><linearGradient id="Dégradé_sans_nom_46" x1="304.15" x2="404.19" y1="379.84" y2="379.84" data-name="Dégradé sans nom 46" gradientUnits="userSpaceOnUse"><stop offset="0" stop-color="#5b5a72"/><stop offset="1" stop-color="#b0b0bf"/></linearGradient><linearGradient xlink:href="#Dégradé_sans_nom_11" id="Dégradé_sans_nom_11-5" x1="333.51" x2="475.71" y1="317.81" y2="460.01" data-name="Dégradé sans nom 11"/><linearGradient xlink:href="#Dégradé_sans_nom_11" id="Dégradé_sans_nom_11-6" x1="324.67" x2="466.87" y1="326.65" y2="468.85" data-name="Dégradé sans nom 11"/><linearGradient xlink:href="#Dégradé_sans_nom_46" id="Dégradé_sans_nom_46-2" x1="205.49" x2="325.47" y1="41.62" y2="161.6" data-name="Dégradé sans nom 46"/><linearGradient id="Dégradé_secondaire1" x1="203.98" x2="314.58" y1="40.11" y2="150.7" data-name="Dégradé secondaire1" gradientUnits="userSpaceOnUse"><stop offset="0" stop-color="#5b5a72"/><stop offset="1" stop-color="#b0b0bf"/></linearGradient><linearGradient xlink:href="#Dégradé_secondaire1" id="Dégradé_secondaire1-2" x1="246.31" x2="289.43" y1="75.95" y2="119.07" data-name="Dégradé secondaire1"/><linearGradient xlink:href="#Dégradé_secondaire1" id="Dégradé_secondaire1-3" x1="223.18" x2="254.12" y1="89.18" y2="120.12" data-name="Dégradé secondaire1"/><linearGradient xlink:href="#Dégradé_sans_nom_46" id="Dégradé_sans_nom_46-3" x1="478.52" x2="661.31" y1="4.76" y2="187.55" data-name="Dégradé sans nom 46"/><linearGradient xlink:href="#Dégradé_secondaire1" id="Dégradé_secondaire1-4" x1="481.02" x2="648.65" y1="7.26" y2="174.89" data-name="Dégradé secondaire1"/><linearGradient xlink:href="#Dégradé_sans_nom_46" id="Dégradé_sans_nom_46-4" x1="444.53" x2="475.39" y1="77.98" y2="108.84" data-name="Dégradé sans nom 46"/><linearGradient xlink:href="#Dégradé_sans_nom_46" id="Dégradé_sans_nom_46-5" x1="496.72" x2="527.57" y1="77.98" y2="108.84" data-name="Dégradé sans nom 46"/><linearGradient xlink:href="#Dégradé_sans_nom_46" id="Dégradé_sans_nom_46-6" x1="548.9" x2="579.76" y1="77.98" y2="108.84" data-name="Dégradé sans nom 46"/><linearGradient xlink:href="#Dégradé_sans_nom_46" id="Dégradé_sans_nom_46-7" x1="601.09" x2="631.94" y1="77.98" y2="108.84" data-name="Dégradé sans nom 46"/><linearGradient xlink:href="#Dégradé_secondaire1" id="Dégradé_secondaire1-5" x1="653.81" x2="683.01" y1="78.52" y2="107.72" data-name="Dégradé secondaire1"/><linearGradient xlink:href="#Dégradé_sans_nom_46" id="Dégradé_sans_nom_46-8" x1="545.62" x2="717.41" y1="173.48" y2="345.27" data-name="Dégradé sans nom 46"/><linearGradient xlink:href="#Dégradé_secondaire1" id="Dégradé_secondaire1-6" x1="552.58" x2="680.98" y1="180.59" y2="308.99" data-name="Dégradé secondaire1"/><linearGradient xlink:href="#Dégradé_sans_nom_46" id="Dégradé_sans_nom_46-9" x1="125.11" x2="280.69" y1="201.73" y2="357.31" data-name="Dégradé sans nom 46"/><linearGradient xlink:href="#Dégradé_secondaire1" id="Dégradé_secondaire1-7" x1="125.8" x2="268.97" y1="202.42" y2="345.59" data-name="Dégradé secondaire1"/><linearGradient xlink:href="#Dégradé_sans_nom_46" id="Dégradé_sans_nom_46-10" x1="590.19" x2="644.34" y1="208.68" y2="262.84" data-name="Dégradé sans nom 46"/><linearGradient xlink:href="#Dégradé_secondaire1" id="Dégradé_secondaire1-8" x1="164.11" x2="230.66" y1="198.24" y2="264.8" data-name="Dégradé secondaire1"/><linearGradient xlink:href="#Dégradé_secondaire1" id="Dégradé_secondaire1-9" x1="144" x2="170.34" y1="235.35" y2="261.69" data-name="Dégradé secondaire1"/><linearGradient xlink:href="#Dégradé_secondaire1" id="Dégradé_secondaire1-10" x1="164.11" x2="230.66" y1="232.23" y2="298.79" data-name="Dégradé secondaire1"/><linearGradient xlink:href="#Dégradé_secondaire1" id="Dégradé_secondaire1-11" x1="164.11" x2="230.66" y1="249.23" y2="315.78" data-name="Dégradé secondaire1"/><linearGradient xlink:href="#Dégradé_secondaire1" id="Dégradé_secondaire1-12" x1="164.11" x2="230.66" y1="266.22" y2="332.78" data-name="Dégradé secondaire1"/><linearGradient xlink:href="#Dégradé_secondaire1" id="Dégradé_secondaire1-13" x1="144" x2="170.34" y1="303.32" y2="329.67" data-name="Dégradé secondaire1"/><radialGradient id="Dégradé_sans_nom_17" cx="420.94" cy="547.81" r="108.98" data-name="Dégradé sans nom 17" fx="420.94" fy="547.81" gradientTransform="matrix(1 .00035 -.00004 .11 .02 485.38)" gradientUnits="userSpaceOnUse"><stop offset=".4" stop-color="#353544" stop-opacity=".5"/><stop offset="1" stop-color="#353544" stop-opacity="0"/></radialGradient><style>.cls-13,.cls-14{fill:#fff}.cls-16{fill:#353544}.cls-14{opacity:.5}</style></defs><ellipse cx="420.94" cy="547.81" rx="110.72" ry="13.45" style="fill:url(#Dégradé_sans_nom_17)"/><path d="M339.65 201.86v7.2c-6.17 12.28-9.65 26.18-9.65 40.84v-48.09c-4.5-3.67-7.65-14.65-7.65-24.77 0-13.44 5.6-20.95 12.54-20.95s12.54 7.51 12.54 20.95c0 10.13-3.22 21.16-7.78 24.83Z" style="fill:url(#Dégradé_sans_nom_11)"/><path d="M511.89 201.8v48.09c0-14.66-3.47-28.56-9.65-40.84v-7.2c-4.57-3.67-7.78-14.71-7.78-24.83 0-13.44 5.66-20.95 12.54-20.95s12.54 7.51 12.54 20.95c0 10.13-3.15 21.1-7.65 24.77Z" style="fill:url(#Dégradé_sans_nom_11-2)"/><path d="M420.94 304.8c23.47 0 42.45-15.14 42.45-33.82s-18.97-33.87-42.45-33.87-42.45 15.14-42.45 33.87 19.04 33.82 42.45 33.82Zm81.29-95.74c6.17 12.28 9.65 26.18 9.65 40.84 0 50.17-40.71 90.88-90.94 90.88S330 300.07 330 249.9c0-14.66 3.47-28.56 9.65-40.84 14.99-29.71 45.73-50.1 81.29-50.1s66.31 20.39 81.29 50.1Z" style="fill:url(#Dégradé_sans_nom_11-3)"/><ellipse cx="462.86" cy="270.95" class="cls-16" rx="16.57" ry="28.09"/><ellipse cx="458.89" cy="263.53" class="cls-14" rx="3.85" ry="2.65"/><ellipse cx="464.78" cy="255.4" class="cls-14" rx="5.89" ry="5.17"/><ellipse cx="379.03" cy="270.95" class="cls-16" rx="16.57" ry="28.09"/><ellipse cx="375.06" cy="263.53" class="cls-14" rx="3.85" ry="2.65"/><ellipse cx="380.95" cy="255.4" class="cls-14" rx="5.89" ry="5.17"/><ellipse cx="420.96" cy="320.17" rx="8.07" ry="12.47" style="fill:#5b5a72"/><path d="M429.92 378.4c-4.26-2.98-4.13-9.22 2.59-9.27 12.79-.09 35.93-2.24 60.74-6.21 10.92-1.75 22.04 6.86 21.28 20.19.48 8.47-8.38 14.88-18.95 13.76-18.59-1.97-46.41-4.98-65.67-18.47Z" style="fill:url(#Dégradé_sans_nom_26)"/><path d="M432.49 366.21c13.83-.1 37.5-2.52 60.3-6.17 1.08-.17 2.19-.26 3.29-.26 2.57 0 5.11.48 7.5 1.39l7.02-13.44c3.34-6.37-2.64-13.57-9.52-11.51l-71.26 21.61-.74 8.96c1.02-.35 2.16-.55 3.41-.56Z" style="fill:url(#Dégradé_sans_nom_11-4)"/><path d="M446.28 205.06s15.25-6.44 33.14 15.13c0 0-11.45-21.3-20.53-22.7-8.47-1.31-12.61 7.57-12.61 7.57ZM395.6 205.06s-15.25-6.44-33.14 15.13c0 0 11.45-21.3 20.53-22.7 8.47-1.31 12.61 7.57 12.61 7.57Z" class="cls-16"/><path d="M412 378.4c4.26-2.98 4.13-9.22-2.59-9.27-12.79-.09-35.93-2.24-60.74-6.21-10.92-1.75-22.04 6.86-21.28 20.19-.48 8.47 8.38 14.88 18.95 13.76 18.59-1.97 46.41-4.98 65.67-18.47Z" style="fill:url(#Dégradé_sans_nom_46)"/><path d="M338.31 361.17c2.39-.91 4.94-1.4 7.52-1.4 1.1 0 2.21.09 3.29.26 22.8 3.65 46.47 6.08 60.3 6.17 1.24 0 2.37.21 3.38.55l-.74-8.94-71.2-21.61c-6.88-2.06-12.86 5.15-9.58 11.51l7.02 13.45Z" style="fill:url(#Dégradé_sans_nom_11-5)"/><path d="M428.25 380.79c-.11-.08-.21-.16-.31-.24l-3.26 39.46c-.39 4.57-7.07 4.57-7.46 0l-3.26-39.43c-.09.07-.19.15-.28.21-16.32 11.43-38.2 15.52-55.87 17.72l52.41 100.41c4.5 8.68 16.98 8.68 21.48 0l52.41-100.42c-17.67-2.2-39.53-6.3-55.84-17.72Z" style="fill:url(#Dégradé_sans_nom_11-6)"/><path d="M432.49 366.21c2.05-.01 4.33-.08 6.78-.19v-29.47c0-.38-.31-.7-.7-.7h-35.23c-.39 0-.7.31-.7.7v29.47c2.45.11 4.72.18 6.78.19 4.06.03 7.07 1.93 8.06 5.09 1.03 3.3-.54 7.2-3.82 9.49-3.45 2.42-7.16 4.5-11.02 6.31v11.61c0 .38.31.7.7.7h35.23c.38 0 .7-.31.7-.7V387.1c-3.86-1.81-7.57-3.9-11.02-6.31-3.27-2.29-4.84-6.19-3.82-9.49.98-3.16 4-5.06 8.06-5.09Z" class="cls-16"/><path d="M240.02 160.83h-16.59c-10.71 0-19.4-8.69-19.4-19.4V59.55c0-10.71 8.69-19.4 19.4-19.4h81.88c10.71 0 19.4 8.69 19.4 19.4v81.88c0 10.71-8.69 19.4-19.4 19.4h-18.43v17.04c0 4.11-4.43 6.71-8.02 4.7l-38.84-21.74Z" style="fill:url(#Dégradé_sans_nom_46-2)"/><path d="M266.6 155.75h33.62c10.71 0 19.4-8.69 19.4-19.4V54.47c0-10.71-8.69-19.4-19.4-19.4h-81.88c-10.71 0-19.4 8.69-19.4 19.4v81.88c0 10.71 8.69 19.4 19.4 19.4h48.26Z" style="stroke:url(#Dégradé_secondaire1);stroke-width:1.81px;fill:#fff;stroke-linecap:round;stroke-linejoin:round"/><path d="M249.33 89.86s13.56-2.78 12.22-26.42c-.12-2.05 1.8-3.68 3.79-3.17 4.37 1.13 10.47 5.33 8.8 20.22h12.31s6.93-.04 7.63 4.47c.58 3.77-3.4 4.51-3.19 6.66.21 2.15 3.88 3.18 3.88 7.53 0 4.07-3.95 3.01-4.23 5.65-.28 2.64 2.52 2.17 1.45 5.73-.76 2.55-4.34 1.74-4.76 3.89-.42 2.15 3.28 5.82-3.97 7.47-9.1 2.07-29.77 1.66-33.95-3.02" style="stroke-width:1.81px;stroke:url(#Dégradé_secondaire1-2);fill:none;stroke-linecap:round;stroke-linejoin:round"/><path d="M232.93 84.27h10.87c3.56 0 6.45 2.89 6.45 6.45v27.29c0 3.56-2.89 6.45-6.45 6.45h-10.87c-3.56 0-6.45-2.89-6.45-6.45V90.72c0-3.56 2.89-6.45 6.45-6.45Z" style="fill:url(#Dégradé_secondaire1-3)"/><path d="M243.79 85.17a5.54 5.54 0 0 1 5.54 5.54V118a5.54 5.54 0 0 1-5.54 5.54h-10.87a5.54 5.54 0 0 1-5.54-5.54V90.71a5.54 5.54 0 0 1 5.54-5.54h10.87m0-1.81h-10.87c-4.05 0-7.35 3.3-7.35 7.35V118c0 4.05 3.3 7.35 7.35 7.35h10.87c4.05 0 7.35-3.3 7.35-7.35V90.71c0-4.05-3.3-7.35-7.35-7.35Z" class="cls-13"/><path d="M587.35 129.02h105.98c9.12 0 16.51-7.39 16.51-16.51V76.37c0-9.12-7.39-16.51-16.51-16.51H443.08c-9.12 0-16.51 7.39-16.51 16.51v36.14c0 9.12 7.39 16.51 16.51 16.51h104.4v18.93c0 3.45 3.86 5.5 6.72 3.56l33.16-22.5Z" style="fill:url(#Dégradé_sans_nom_46-3)"/><path d="M544.1 125.65h145.86c9.12 0 16.51-7.39 16.51-16.51V73c0-9.12-7.39-16.51-16.51-16.51H439.71c-9.12 0-16.51 7.39-16.51 16.51v36.14c0 9.12 7.39 16.51 16.51 16.51h104.4Z" style="stroke:url(#Dégradé_secondaire1-4);stroke-width:1.54px;fill:#fff;stroke-linecap:round;stroke-linejoin:round"/><path d="m461.24 71.72 5.27 10.68 11.78 1.71c1.43.21 2 1.96.97 2.97l-8.53 8.31 2.01 11.73c.24 1.42-1.25 2.51-2.53 1.84l-10.54-5.54-10.54 5.54c-1.28.67-2.77-.41-2.53-1.84l2.01-11.73-8.53-8.31c-1.03-1.01-.46-2.76.97-2.97l11.78-1.71 5.27-10.68c.64-1.29 2.49-1.29 3.12 0Z" style="fill:url(#Dégradé_sans_nom_46-4)"/><path d="m513.42 71.72 5.27 10.68 11.78 1.71c1.43.21 2 1.96.97 2.97l-8.53 8.31 2.01 11.73c.24 1.42-1.25 2.51-2.53 1.84l-10.54-5.54-10.54 5.54c-1.28.67-2.77-.41-2.53-1.84l2.01-11.73-8.53-8.31c-1.03-1.01-.46-2.76.97-2.97l11.78-1.71 5.27-10.68c.64-1.29 2.49-1.29 3.12 0Z" style="fill:url(#Dégradé_sans_nom_46-5)"/><path d="m565.6 71.72 5.27 10.68 11.78 1.71c1.43.21 2 1.96.97 2.97l-8.53 8.31 2.01 11.73c.24 1.42-1.25 2.51-2.53 1.84l-10.54-5.54-10.54 5.54c-1.28.67-2.77-.41-2.53-1.84l2.01-11.73-8.53-8.31c-1.03-1.01-.46-2.76.97-2.97l11.78-1.71 5.27-10.68c.64-1.29 2.49-1.29 3.12 0Z" style="fill:url(#Dégradé_sans_nom_46-6)"/><path d="m617.79 71.72 5.27 10.68 11.78 1.71c1.43.21 2 1.96.97 2.97l-8.53 8.31 2.01 11.73c.24 1.42-1.25 2.51-2.53 1.84l-10.54-5.54-10.54 5.54c-1.28.67-2.77-.41-2.53-1.84l2.01-11.73-8.53-8.31c-1.03-1.01-.46-2.76.97-2.97l11.78-1.71 5.27-10.68c.64-1.29 2.49-1.29 3.12 0Z" style="fill:url(#Dégradé_sans_nom_46-7)"/><path d="m669.79 71.35 5.45 11.05 11.78 1.71c1.43.21 2 1.96.97 2.97l-8.53 8.31 2.01 11.73c.24 1.42-1.25 2.51-2.53 1.84l-10.54-5.54-10.54 5.54c-1.28.67-2.77-.41-2.53-1.84l2.01-11.73-8.53-8.31c-1.03-1.01-.46-2.76.97-2.97l11.78-1.71 5.45-11.05c.56-1.14 2.19-1.14 2.75 0Z" style="stroke-width:1.54px;fill:none;stroke:url(#Dégradé_secondaire1-5);stroke-linecap:round;stroke-linejoin:round"/><path d="M650.88 320.42h19.22c12.41 0 22.47-10.06 22.47-22.47v-94.83c0-12.41-10.06-22.47-22.47-22.47h-94.83c-12.41 0-22.47 10.06-22.47 22.47v94.83c0 12.41 10.06 22.47 22.47 22.47h21.34v19.74c0 4.77 5.13 7.77 9.29 5.44l44.99-25.18Z" style="fill:url(#Dégradé_sans_nom_46-8)"/><path d="M625.28 314.84h39.03c12.44 0 22.52-10.08 22.52-22.52v-95.06c0-12.44-10.08-22.52-22.52-22.52h-95.06c-12.44 0-22.52 10.08-22.52 22.52v95.06c0 12.44 10.08 22.52 22.52 22.52h56.03Z" style="stroke:url(#Dégradé_secondaire1-6);stroke-width:2.1px;fill:#fff;stroke-linecap:round;stroke-linejoin:round"/><path d="m174.06 345.15 44.48 27.5c4.49 2.77 10.28-.45 10.28-5.73v-21.77h38.31c11.97 0 21.67-9.7 21.67-21.67v-90.83c0-11.97-9.7-21.67-21.67-21.67H135.76c-11.97 0-21.67 9.7-21.67 21.67v90.83c0 11.97 9.7 21.67 21.67 21.67h38.31Z" style="fill:url(#Dégradé_sans_nom_46-9)"/><path d="M119.58 337.39c3.46 2.34 7.63 3.7 12.12 3.7h131.37c11.97 0 21.67-9.7 21.67-21.67v-90.83c0-11.97-9.7-21.67-21.67-21.67H131.7c-11.97 0-21.67 9.7-21.67 21.67v90.83c0 7.48 3.79 14.08 9.56 17.97" style="fill:#fff;stroke-linecap:round;stroke-linejoin:round;stroke:url(#Dégradé_secondaire1-7);stroke-width:2.01px"/><path d="M616.67 276.76s38.1-17.47 38.16-42.83c.07-28.85-37.99-25.18-38.04-5.92.05-19.26-37.99-23.12-38.07 5.73-.06 25.36 37.94 43.02 37.94 43.02Z" style="fill:url(#Dégradé_sans_nom_46-10)"/><path d="M600.44 222.6c-1.55-2.98-5.41-3.79-8.05-1.72-1.79 1.41-3.64 3.51-4.96 6.6-3.46 8.15.03 19.03 8.22 25.47 0 0-9.24-14.47 3.19-23.59 2.12-1.56 2.81-4.43 1.59-6.76Z" class="cls-13"/><path d="M132.95 231.52h128.87" style="stroke:url(#Dégradé_secondaire1-8);stroke-width:3px;fill:none;stroke-linecap:round;stroke-linejoin:round"/><path d="M132.95 248.52h48.44" style="stroke:url(#Dégradé_secondaire1-9);stroke-width:3px;fill:none;stroke-linecap:round;stroke-linejoin:round"/><path d="M132.95 265.51h128.87" style="stroke:url(#Dégradé_secondaire1-10);stroke-width:3px;fill:none;stroke-linecap:round;stroke-linejoin:round"/><path d="M132.95 282.51h128.87" style="stroke:url(#Dégradé_secondaire1-11);stroke-width:3px;fill:none;stroke-linecap:round;stroke-linejoin:round"/><path d="M132.95 299.5h128.87" style="stroke:url(#Dégradé_secondaire1-12);stroke-width:3px;fill:none;stroke-linecap:round;stroke-linejoin:round"/><path d="M132.95 316.49h48.44" style="stroke-width:3px;stroke:url(#Dégradé_secondaire1-13);fill:none;stroke-linecap:round;stroke-linejoin:round"/></svg>