<svg xmlns="http://www.w3.org/2000/svg" xmlns:xlink="http://www.w3.org/1999/xlink" id="Calque_1" data-name="Calque 1" viewBox="0 0 841.89 595.28"><defs><linearGradient id="Dégradé_sans_nom_11" x1="380.3" x2="566.29" y1="168.53" y2="354.51" data-name="Dégradé sans nom 11" gradientUnits="userSpaceOnUse"><stop offset=".1" stop-color="#5b5a72"/><stop offset=".5" stop-color="#b0b0bf"/><stop offset=".96" stop-color="#f4f4f6"/></linearGradient><linearGradient xlink:href="#Dégradé_sans_nom_11" id="Dégradé_sans_nom_11-2" x1="329.59" x2="506.29" y1="64.81" y2="241.51" data-name="Dégradé sans nom 11"/><linearGradient xlink:href="#Dégradé_sans_nom_11" id="Dégradé_sans_nom_11-3" x1="306.16" x2="457.18" y1="93.04" y2="244.06" data-name="Dégradé sans nom 11"/><linearGradient xlink:href="#Dégradé_sans_nom_11" id="Dégradé_sans_nom_11-4" x1="445.59" x2="599.92" y1="1.89" y2="156.22" data-name="Dégradé sans nom 11"/><linearGradient id="Dégradé_sans_nom_26" x1="-642.48" x2="-427.92" y1="-5314.42" y2="-5099.85" data-name="Dégradé sans nom 26" gradientTransform="rotate(160.66 -510.22 -2357.533)" gradientUnits="userSpaceOnUse"><stop offset="0" stop-color="#b0b0bf"/><stop offset="1" stop-color="#f4f4f6"/></linearGradient><linearGradient xlink:href="#Dégradé_sans_nom_11" id="Dégradé_sans_nom_11-5" x1="283.48" x2="469.46" y1="265.35" y2="451.34" data-name="Dégradé sans nom 11"/><linearGradient xlink:href="#Dégradé_sans_nom_11" id="Dégradé_sans_nom_11-6" x1="318.02" x2="504" y1="230.81" y2="416.8" data-name="Dégradé sans nom 11"/><linearGradient xlink:href="#Dégradé_sans_nom_11" id="Dégradé_sans_nom_11-7" x1="303.48" x2="489.47" y1="245.34" y2="431.33" data-name="Dégradé sans nom 11"/><linearGradient id="Dégradé_sans_nom_46" x1="327.26" x2="439.93" y1="286.79" y2="399.46" data-name="Dégradé sans nom 46" gradientUnits="userSpaceOnUse"><stop offset="0" stop-color="#5b5a72"/><stop offset="1" stop-color="#b0b0bf"/></linearGradient><linearGradient xlink:href="#Dégradé_sans_nom_11" id="Dégradé_sans_nom_11-8" x1="-3281.14" x2="-3223.11" y1="-1707.92" y2="-1649.9" data-name="Dégradé sans nom 11" gradientTransform="rotate(-107.88 -616.24 -2126.444)"/><linearGradient xlink:href="#Dégradé_sans_nom_11" id="Dégradé_sans_nom_11-9" x1="1535.88" x2="1593.91" y1="-4423.76" y2="-4365.73" data-name="Dégradé sans nom 11" gradientTransform="rotate(107.06 -808.674 -2662.08)"/><linearGradient xlink:href="#Dégradé_sans_nom_11" id="Dégradé_sans_nom_11-10" x1="-3242.24" x2="-3184.22" y1="-1648.07" y2="-1590.05" data-name="Dégradé sans nom 11" gradientTransform="rotate(-107.88 -616.24 -2126.444)"/><linearGradient xlink:href="#Dégradé_sans_nom_11" id="Dégradé_sans_nom_11-11" x1="-3327.4" x2="-3276.67" y1="-2147.89" y2="-2097.16" data-name="Dégradé sans nom 11" gradientTransform="rotate(-88.95 -337.03 -2705.098)"/><linearGradient xlink:href="#Dégradé_sans_nom_11" id="Dégradé_sans_nom_11-12" x1="994.04" x2="1022.39" y1="-5049.73" y2="-5021.38" data-name="Dégradé sans nom 11" gradientTransform="rotate(123.14 -802.5 -2663.793)"/><linearGradient xlink:href="#Dégradé_sans_nom_11" id="Dégradé_sans_nom_11-13" x1="714.97" x2="751.1" y1="135.64" y2="171.78" data-name="Dégradé sans nom 11" gradientTransform="rotate(-18.93 676.277 286.721)"/><linearGradient xlink:href="#Dégradé_sans_nom_11" id="Dégradé_sans_nom_11-14" x1="605.09" x2="636.65" y1="191.11" y2="222.67" data-name="Dégradé sans nom 11" gradientTransform="rotate(-21.47 508.624 -47.174)"/><linearGradient xlink:href="#Dégradé_sans_nom_11" id="Dégradé_sans_nom_11-15" x1="666.32" x2="676.81" y1="253.41" y2="263.9" data-name="Dégradé sans nom 11" gradientTransform="rotate(-18.93 676.277 286.721)"/><linearGradient xlink:href="#Dégradé_sans_nom_11" id="Dégradé_sans_nom_11-16" x1="662.41" x2="673.36" y1="273" y2="283.95" data-name="Dégradé sans nom 11" gradientTransform="rotate(-18.93 676.277 286.721)"/><linearGradient xlink:href="#Dégradé_sans_nom_11" id="Dégradé_sans_nom_11-17" x1="202.1" x2="212.67" y1="165.22" y2="175.79" data-name="Dégradé sans nom 11"/><linearGradient xlink:href="#Dégradé_sans_nom_11" id="Dégradé_sans_nom_11-18" x1="219.8" x2="231.97" y1="157.19" y2="169.36" data-name="Dégradé sans nom 11"/><linearGradient xlink:href="#Dégradé_sans_nom_11" id="Dégradé_sans_nom_11-19" x1="132.09" x2="163.82" y1="61.23" y2="92.96" data-name="Dégradé sans nom 11"/><linearGradient xlink:href="#Dégradé_sans_nom_11" id="Dégradé_sans_nom_11-20" x1="169.67" x2="197.33" y1="62.71" y2="90.37" data-name="Dégradé sans nom 11"/><linearGradient xlink:href="#Dégradé_sans_nom_11" id="Dégradé_sans_nom_11-21" x1="195.61" x2="216.02" y1="292.12" y2="312.53" data-name="Dégradé sans nom 11"/><linearGradient xlink:href="#Dégradé_sans_nom_11" id="Dégradé_sans_nom_11-22" x1="231.93" x2="244.47" y1="287.67" y2="300.21" data-name="Dégradé sans nom 11"/><radialGradient id="Dégradé_sans_nom_17" cx="420.94" cy="543.77" r="141.68" data-name="Dégradé sans nom 17" fx="420.94" fy="543.77" gradientTransform="matrix(1 .00035 -.00004 .11 .02 481.81)" gradientUnits="userSpaceOnUse"><stop offset=".4" stop-color="#353544" stop-opacity=".5"/><stop offset="1" stop-color="#353544" stop-opacity="0"/></radialGradient><style>.cls-1{fill:#353544}.cls-28{fill:#fff;opacity:.5}</style></defs><path d="m525.13 268.68-73.85 22.4c5.21 4.53 10.8 9.43 16.83 14.74l4.37 3.84c16.45 14.47 27.14 26.3 32.58 36.16l32.45-62.17c4.35-8.28-3.43-17.64-12.37-14.97Z" style="fill:url(#Dégradé_sans_nom_11)"/><path d="M386.41 258.47c.24-3.18 1.38-5.56 3.37-7.07 1.15-.87 2.56-1.31 4.18-1.31 6.45 0 17.98 7.82 37.5 24.06 60.52-5.31 107.97-56.1 107.97-117.92 0-19.1-4.52-37.2-12.57-53.2-19.52-38.71-59.57-65.27-105.91-65.27s-86.38 26.56-105.91 65.27c-8.04 16-12.57 34.1-12.57 53.2 0 54 36.21 99.58 85.7 113.8-1.39-4.62-2.01-8.54-1.78-11.55Zm-20.75-74.78c0-24.4 24.8-44.12 55.3-44.12s55.3 19.72 55.3 44.12-24.72 44.06-55.3 44.06-55.3-19.72-55.3-44.06Z" style="fill:url(#Dégradé_sans_nom_11-2)"/><ellipse cx="420.94" cy="543.77" rx="143.94" ry="17.49" style="fill:url(#Dégradé_sans_nom_17)"/><path d="M315.06 93.65v9.37c-8.04 16-12.57 34.1-12.57 53.2V93.57c-5.87-4.78-9.97-19.08-9.97-32.27 0-17.51 7.29-27.29 16.34-27.29s16.34 9.78 16.34 27.29c0 13.19-4.19 27.57-10.14 32.35Z" style="fill:url(#Dégradé_sans_nom_11-3)"/><path d="M539.44 93.57v62.65c0-19.1-4.52-37.2-12.57-53.2v-9.37c-5.95-4.78-10.14-19.16-10.14-32.35 0-17.51 7.37-27.29 16.34-27.29s16.34 9.78 16.34 27.29c0 13.19-4.11 27.49-9.97 32.27Z" style="fill:url(#Dégradé_sans_nom_11-4)"/><path d="M487.91 214.72c5.59-5.86 9.24-16.3 9.24-31.06 0-24.01-9.66-36.6-21.59-36.6s-21.59 12.59-21.59 36.6c0 15.04 3.8 25.6 9.56 31.39l24.37-.33Z" class="cls-1"/><ellipse cx="470.4" cy="173.99" class="cls-28" rx="5.02" ry="3.45"/><ellipse cx="478.07" cy="163.4" class="cls-28" rx="7.67" ry="6.74"/><path d="M378.72 214.72c5.59-5.86 9.24-16.3 9.24-31.06 0-24.01-9.66-36.6-21.59-36.6s-21.59 12.59-21.59 36.6c0 15.04 3.8 25.6 9.56 31.39l24.37-.33Z" class="cls-1"/><ellipse cx="361.21" cy="173.99" class="cls-28" rx="5.02" ry="3.45"/><ellipse cx="368.87" cy="163.4" class="cls-28" rx="7.67" ry="6.74"/><path d="M454.07 128.68s14.09-16.33 47.44-1.46c0 0-25.66-18.26-37.08-14.66-10.65 3.36-10.36 16.11-10.36 16.11ZM387.86 128.68s-14.09-16.33-47.44-1.46c0 0 25.66-18.26 37.08-14.66 10.65 3.36 10.36 16.11 10.36 16.11Z" class="cls-1"/><path d="M500.7 370.41s-18.08 17.01-56.6-22.74-60.83-86.56-52.01-93.24c6.65-5.04 41.28 25.89 77.89 58.09 37.6 33.08 40.64 48.79 30.73 57.89Z" style="fill:url(#Dégradé_sans_nom_26)"/><path d="M475.31 375.09c.94.36 1.87.7 2.79.99-1.12 3.04-3.91 5.01-7.31 5.01-12.34-.03-28.46-.4-45.49-1.63-1.79 3.71-7.75 3.47-8.99-.73-25.72-2.32-52.31-6.78-70.23-15.21l60.9 116.69c5.85 11.29 22.07 11.29 27.93 0l53.45-102.42c-4.16-.07-8.52-.99-13.05-2.71Z" style="fill:url(#Dégradé_sans_nom_11-5)"/><path d="M444.15 353.11c-.92-.91-1.85-1.84-2.78-2.8a295.62 295.62 0 0 1-12.2-13.43l-.78 9.37 15.76 6.86Z" style="fill:url(#Dégradé_sans_nom_11-6)"/><path d="M322.52 301.44c1.94 0 3.84.4 5.65 1.2l84.78 36.89-2.2-26.61c-3.58-5.2-6.91-10.42-9.91-15.57-.76-1.3-1.47-2.57-2.18-3.84l-81.81-24.83c-8.95-2.68-16.72 6.69-12.46 14.97l10.48 20.09a14.04 14.04 0 0 1 7.65-2.29Z" style="fill:url(#Dégradé_sans_nom_11-7)"/><path d="M434.21 242.21s-11.4 11.22-29.29 4.47" style="fill:none;stroke-linecap:round;stroke-linejoin:round;stroke:#5b5a72;stroke-width:4.17px"/><path d="m452.76 361-126.11-54.88c-7.43-3.26-15.58 3.02-14.26 10.97 2.22 13.19 10.1 31.04 34.94 42.83 31.79 15.14 92.73 17.28 123.47 17.37 1.89.01 3.18-1.1 3.72-2.5-6.86-2.74-14.13-7.35-21.76-13.79Z" style="fill:url(#Dégradé_sans_nom_46)"/><path d="m607.72 206.48 4.04-1.3c1.1-.35 2.27.25 2.62 1.34l1.95 6.04c3.95-.42 7.88-.08 11.58.95l2.9-5.66a2.097 2.097 0 0 1 2.81-.91l3.78 1.93 3.77 1.94c1.02.53 1.43 1.78.9 2.81l-2.9 5.65c3 2.41 5.58 5.39 7.54 8.85l6.04-1.95c1.1-.35 2.27.25 2.62 1.34l1.3 4.03 1.3 4.04c.35 1.1-.25 2.27-1.34 2.62l-6.04 1.95c.43 3.95.08 7.87-.95 11.58l5.66 2.9c1.02.52 1.43 1.78.91 2.8l-1.93 3.78-1.93 3.78a2.097 2.097 0 0 1-2.81.91l-5.66-2.9a30.997 30.997 0 0 1-8.85 7.53l1.95 6.04c.35 1.1-.25 2.27-1.34 2.62l-4.04 1.3-4.03 1.3c-1.1.35-2.27-.25-2.62-1.34l-1.95-6.04c-3.95.43-7.87.08-11.59-.94l-2.9 5.66a2.079 2.079 0 0 1-2.81.9l-3.77-1.93-3.78-1.93a2.097 2.097 0 0 1-.91-2.81l2.9-5.66c-3-2.41-5.58-5.38-7.54-8.84l-6.04 1.95c-1.1.35-2.27-.25-2.62-1.34l-1.3-4.04-1.3-4.03c-.35-1.1.25-2.27 1.34-2.62l6.04-1.95c-.43-3.95-.08-7.87.94-11.59l-5.66-2.89a2.088 2.088 0 0 1-.91-2.81l1.93-3.78 1.93-3.77a2.088 2.088 0 0 1 2.81-.91l5.66 2.9c2.41-3 5.39-5.57 8.85-7.54l-1.95-6.04c-.35-1.1.25-2.27 1.34-2.62l4.03-1.3Zm8.16 25.31c-6.46 2.09-10.01 9.02-7.93 15.48 2.09 6.47 9.02 10.02 15.48 7.94 6.47-2.09 10.02-9.02 7.93-15.49s-9.02-10.01-15.49-7.93Z" style="fill:url(#Dégradé_sans_nom_11-8)"/><path d="m138.71 153.26-4.09-1.25a2.053 2.053 0 0 1-1.36-2.56l1.87-6.09c-3.48-1.91-6.5-4.45-8.95-7.41l-5.64 2.99c-1 .53-2.24.15-2.78-.85l-2-3.78-2-3.78c-.53-1-.15-2.24.85-2.77l5.64-2.99a30.74 30.74 0 0 1-1.11-11.57l-6.1-1.87a2.053 2.053 0 0 1-1.36-2.56l1.25-4.08 1.25-4.09a2.053 2.053 0 0 1 2.56-1.36l6.1 1.87a30.69 30.69 0 0 1 7.41-8.95l-2.99-5.65c-.53-1-.15-2.24.85-2.77l3.77-2 3.78-2c1-.53 2.24-.15 2.78.85l2.99 5.64a31.1 31.1 0 0 1 11.56-1.11l1.87-6.1a2.053 2.053 0 0 1 2.56-1.36l4.09 1.25 4.08 1.25c1.08.33 1.69 1.48 1.36 2.56l-1.87 6.1c3.49 1.91 6.5 4.44 8.96 7.4l5.64-2.99c1-.53 2.25-.15 2.78.85l2 3.77 2 3.78c.53 1 .15 2.24-.85 2.78l-5.64 2.99a30.72 30.72 0 0 1 1.11 11.57l6.1 1.87c1.08.33 1.69 1.48 1.36 2.56l-1.25 4.09-1.25 4.08a2.053 2.053 0 0 1-2.56 1.36l-6.1-1.87c-1.91 3.49-4.44 6.5-7.41 8.96l2.99 5.64c.53 1 .15 2.24-.85 2.78l-3.78 2-3.77 2c-1 .53-2.25.15-2.78-.85l-2.99-5.64c-3.7 1.07-7.61 1.48-11.57 1.11l-1.87 6.09a2.053 2.053 0 0 1-2.56 1.36l-4.08-1.25Zm7.8-25.42c6.49 1.99 13.37-1.66 15.37-8.15 1.99-6.5-1.66-13.38-8.15-15.37-6.5-1.99-13.38 1.66-15.37 8.15s1.66 13.37 8.16 15.37Z" style="fill:url(#Dégradé_sans_nom_11-9)"/><path d="m652.74 151.09 4.02-1.3c1.11-.36 2.3.25 2.66 1.36l1.94 6.01c3.95-.42 7.88-.08 11.58.95l2.89-5.64a2.11 2.11 0 0 1 2.84-.92l3.76 1.92 3.75 1.92c1.04.53 1.45 1.8.91 2.84l-2.89 5.63c3 2.41 5.58 5.39 7.54 8.85l6.02-1.94c1.11-.36 2.3.25 2.66 1.36l1.29 4.01 1.3 4.02c.36 1.11-.25 2.3-1.36 2.66l-6.02 1.94c.43 3.95.08 7.87-.95 11.58l5.64 2.89c1.04.53 1.45 1.8.92 2.84l-1.92 3.75-1.92 3.76a2.11 2.11 0 0 1-2.84.92l-5.64-2.89a30.997 30.997 0 0 1-8.85 7.53l1.94 6.02c.36 1.11-.25 2.3-1.36 2.66l-4.02 1.3-4.01 1.29c-1.11.36-2.3-.25-2.66-1.36l-1.94-6.02c-3.95.43-7.87.08-11.59-.94l-2.89 5.63a2.11 2.11 0 0 1-2.84.92l-3.75-1.92-3.76-1.92a2.11 2.11 0 0 1-.92-2.84l2.89-5.64c-3-2.41-5.58-5.38-7.54-8.84l-6.02 1.94c-1.11.36-2.3-.25-2.66-1.36l-1.3-4.02-1.29-4.01c-.36-1.11.25-2.3 1.36-2.66l6.02-1.94c-.43-3.95-.08-7.87.94-11.59l-5.63-2.88a2.11 2.11 0 0 1-.92-2.84l1.92-3.75 1.92-3.75a2.11 2.11 0 0 1 2.84-.92l5.63 2.89c2.41-3 5.39-5.57 8.85-7.54l-1.94-6.01c-.36-1.11.25-2.3 1.36-2.66l4.01-1.29Zm5.49 17.02c-11.04 3.56-17.1 15.4-13.54 26.44s15.4 17.11 26.44 13.55c11.05-3.56 17.11-15.4 13.55-26.45-3.56-11.04-15.4-17.1-26.45-13.54Z" style="fill:url(#Dégradé_sans_nom_11-10)"/><path d="m192.8 235.36 3.69.07c1.02.02 1.83.86 1.81 1.88l-.1 5.52c3.39.77 6.54 2.17 9.31 4.07l3.99-3.84c.73-.71 1.9-.69 2.61.05l2.56 2.66 2.56 2.66c.71.73.68 1.9-.05 2.61l-3.99 3.84c1.8 2.85 3.08 6.04 3.72 9.46l5.53.1c1.02.02 1.83.86 1.81 1.88l-.07 3.68-.07 3.69a1.844 1.844 0 0 1-1.88 1.81l-5.53-.1c-.76 3.39-2.17 6.54-4.07 9.31l3.84 3.99c.71.73.69 1.9-.05 2.61l-2.65 2.56-2.66 2.56c-.73.71-1.9.69-2.61-.05l-3.84-3.99a27.122 27.122 0 0 1-9.45 3.72l-.1 5.53a1.844 1.844 0 0 1-1.88 1.81l-3.69-.07-3.68-.07a1.844 1.844 0 0 1-1.81-1.88l.1-5.53a27.16 27.16 0 0 1-9.32-4.06l-3.98 3.84c-.73.71-1.9.69-2.61-.05l-2.56-2.65-2.56-2.66c-.71-.73-.69-1.9.05-2.61l3.99-3.84c-1.8-2.84-3.08-6.03-3.72-9.45l-5.53-.1a1.844 1.844 0 0 1-1.81-1.88l.07-3.69.07-3.68c.02-1.02.86-1.83 1.88-1.81l5.53.1a26.99 26.99 0 0 1 4.07-9.32l-3.84-3.98c-.71-.73-.69-1.9.05-2.61l2.66-2.56 2.65-2.56c.73-.71 1.9-.69 2.61.05l3.84 3.98c2.85-1.79 6.04-3.08 9.46-3.72l.1-5.52c.02-1.02.86-1.83 1.88-1.81l3.68.07Zm-.29 15.64c-10.14-.19-18.51 7.89-18.7 18.03-.19 10.15 7.89 18.52 18.02 18.71 10.15.19 18.52-7.89 18.71-18.03.19-10.14-7.89-18.51-18.03-18.7Z" style="fill:url(#Dégradé_sans_nom_11-11)"/><path d="m181.38 166.92-3.91-2.55c-.72-.47-.93-1.44-.45-2.16l2.92-4.47a15.983 15.983 0 0 1-2.45-11.69l-4.47-2.92c-.72-.47-.93-1.44-.45-2.16l2.55-3.91 2.55-3.91c.47-.72 1.44-.93 2.16-.45l4.47 2.92c3.42-2.29 7.63-3.17 11.68-2.45l2.92-4.47c.47-.72 1.44-.93 2.16-.45l3.91 2.55 3.9 2.55c.72.47.93 1.44.45 2.16l-2.92 4.47c2.3 3.43 3.18 7.62 2.46 11.68l4.47 2.92c.72.47.93 1.44.45 2.16l-2.55 3.91-2.55 3.91c-.47.72-1.44.93-2.16.45l-4.47-2.92a15.973 15.973 0 0 1-11.69 2.45l-2.92 4.47c-.47.72-1.44.93-2.16.45l-3.9-2.55Zm9.38-14.37c2.04 1.33 4.77.75 6.1-1.29s.76-4.76-1.28-6.09-4.77-.76-6.1 1.27-.76 4.77 1.28 6.1Z" style="fill:url(#Dégradé_sans_nom_11-12)"/><path d="M664.31 134.93c12.97-1.1 29.58 2.25 42.09 21.14" style="stroke:url(#Dégradé_sans_nom_11-13);stroke-width:4px;fill:none;stroke-linecap:round;stroke-linejoin:round"/><path d="M691.89 129.81s23.84 9.7 28.37 36.63" style="stroke:url(#Dégradé_sans_nom_11-14);stroke-width:4px;fill:none;stroke-linecap:round;stroke-linejoin:round"/><path d="M665.63 243.44s8.79 18.67-7.43 35.78" style="stroke:url(#Dégradé_sans_nom_11-15);stroke-width:4px;fill:none;stroke-linecap:round;stroke-linejoin:round"/><path d="M678.25 264.6s-.21 19.36-26.93 33.3" style="stroke-width:4px;stroke:url(#Dégradé_sans_nom_11-16);fill:none;stroke-linecap:round;stroke-linejoin:round"/><path d="M193.17 176.97s19.88 3.15 27.15-14.23" style="stroke:url(#Dégradé_sans_nom_11-17);stroke-width:4px;fill:none;stroke-linecap:round;stroke-linejoin:round"/><path d="M220.31 177.2s12.34-5.06 10.65-28.34" style="stroke:url(#Dégradé_sans_nom_11-18);stroke-width:4px;fill:none;stroke-linecap:round;stroke-linejoin:round"/><path d="M177.32 76.63s-27.19-25.59-58.73.92" style="stroke:url(#Dégradé_sans_nom_11-19);stroke-width:4px;fill:none;stroke-linecap:round;stroke-linejoin:round"/><path d="M172.3 62.9s18.07 7.34 20.86 28.8" style="stroke:url(#Dégradé_sans_nom_11-20);stroke-width:4px;fill:none;stroke-linecap:round;stroke-linejoin:round"/><path d="M178.99 311.57s35.71 9.32 52.65-19.48" style="stroke:url(#Dégradé_sans_nom_11-21);stroke-width:4px;fill:none;stroke-linecap:round;stroke-linejoin:round"/><path d="M226.25 313s22.04-9.66 22.61-39.43" style="stroke:url(#Dégradé_sans_nom_11-22);stroke-width:4px;fill:none;stroke-linecap:round;stroke-linejoin:round"/></svg>