<svg xmlns="http://www.w3.org/2000/svg" xmlns:xlink="http://www.w3.org/1999/xlink" id="Calque_1" data-name="Calque 1" viewBox="0 0 841.89 595.28"><defs><linearGradient id="Dégradé_sans_nom_46" x1="420.99" x2="467.02" y1="317.27" y2="363.3" data-name="Dégradé sans nom 46" gradientUnits="userSpaceOnUse"><stop offset="0" stop-color="#5b5a72"/><stop offset="1" stop-color="#b0b0bf"/></linearGradient><linearGradient xlink:href="#Dégradé_sans_nom_46" id="Dégradé_sans_nom_46-2" x1="451.51" x2="415.64" y1="286.72" y2="322.59" data-name="Dégradé sans nom 46"/><linearGradient xlink:href="#Dégradé_sans_nom_46" id="Dégradé_sans_nom_46-3" x1="232.59" x2="463" y1="118.59" y2="349.01" data-name="Dégradé sans nom 46"/><linearGradient xlink:href="#Dégradé_sans_nom_46" id="Dégradé_sans_nom_46-4" x1="188.92" x2="419.34" y1="162.26" y2="392.67" data-name="Dégradé sans nom 46"/><linearGradient xlink:href="#Dégradé_sans_nom_46" id="Dégradé_sans_nom_46-5" x1="148.74" x2="379.15" y1="202.44" y2="432.86" data-name="Dégradé sans nom 46"/><linearGradient id="Dégradé_sans_nom_11" x1="461.79" x2="653.14" y1="119.55" y2="310.9" data-name="Dégradé sans nom 11" gradientUnits="userSpaceOnUse"><stop offset=".1" stop-color="#5b5a72"/><stop offset=".5" stop-color="#b0b0bf"/><stop offset=".96" stop-color="#f4f4f6"/></linearGradient><linearGradient xlink:href="#Dégradé_sans_nom_11" id="Dégradé_sans_nom_11-2" x1="468.04" x2="628.28" y1="115.68" y2="275.92" data-name="Dégradé sans nom 11"/><linearGradient xlink:href="#Dégradé_sans_nom_11" id="Dégradé_sans_nom_11-3" x1="524.57" x2="721.5" y1=".47" y2="197.4" data-name="Dégradé sans nom 11"/><linearGradient id="Dégradé_sans_nom_26" x1="621.51" x2="448.13" y1="347.58" y2="347.58" data-name="Dégradé sans nom 26" gradientUnits="userSpaceOnUse"><stop offset="0" stop-color="#b0b0bf"/><stop offset="1" stop-color="#f4f4f6"/></linearGradient><linearGradient xlink:href="#Dégradé_sans_nom_46" id="Dégradé_sans_nom_46-6" x1="231.31" x2="461.72" y1="119.87" y2="350.29" data-name="Dégradé sans nom 46"/><linearGradient xlink:href="#Dégradé_sans_nom_11" id="Dégradé_sans_nom_11-4" x1="477.11" x2="622.24" y1="287.15" y2="432.28" data-name="Dégradé sans nom 11"/><linearGradient xlink:href="#Dégradé_sans_nom_11" id="Dégradé_sans_nom_11-5" x1="467.32" x2="612.45" y1="296.94" y2="442.07" data-name="Dégradé sans nom 11"/><radialGradient id="Dégradé_sans_nom_17" cx="526.24" cy="550.53" r="128.75" data-name="Dégradé sans nom 17" fx="526.24" fy="550.53" gradientTransform="matrix(1.32 .00046 -.00004 .11 -175.43 487.76)" gradientUnits="userSpaceOnUse"><stop offset=".4" stop-color="#353544" stop-opacity=".5"/><stop offset="1" stop-color="#353544" stop-opacity="0"/></radialGradient><style>.cls-2{fill:#353544}.cls-16{fill:#fff;opacity:.5}</style></defs><path d="M471.46 349.83c0-.58.14-1.14.38-1.65-9.38-4.66-16.15-9.33-18.77-13.41-1.75-2.73-1.64-5-1.24-6.42.71-2.52 2.98-4.15 6.66-5.19-12.31-3.1-23.72-5.07-33.48-6.03 4.48 4.22 4.17 8.44 3.44 10.81-1.02 3.32-3.82 6.14-8.1 8.15-2.98 1.41-6.45 2.28-9.69 2.48 10.79 6.36 26.03 13.47 45.19 19.72 5.59 1.82 10.79 3.43 15.61 4.82v-13.28Z" style="fill:url(#Dégradé_sans_nom_46)"/><path d="M412.52 314.49s14.7 4.52 12.3 12.32c-2.4 7.79-21.26 11-22.13 4.52-.87-6.48 3.54-18.33 9.83-16.84Z" style="fill:url(#Dégradé_sans_nom_46-2)"/><path d="M276.56 168.69v22.87c-.04.2-.08.4-.12.59-.01.06-.03.11-.04.17-.03.14-.06.28-.1.41-.01.05-.03.11-.04.16-.04.17-.09.33-.14.49v.03c-.05.16-.1.32-.16.47-.02.04-.03.09-.05.13-.04.11-.08.22-.13.32-.02.04-.04.09-.06.13-.06.12-.12.25-.18.36 0 .01-.01.02-.02.04-.07.12-.15.24-.23.35a.7.7 0 0 1-.08.1c-.06.08-.13.16-.19.23l-.09.09a2.16 2.16 0 0 1-.31.28c-.11.09-.22.16-.34.24-.04.02-.07.04-.11.06-.09.05-.19.1-.29.15-.04.02-.09.04-.13.06-.12.05-.25.1-.39.14-.02 0-.04.01-.06.02-.16.05-.33.09-.5.13l-.15.03c-.14.03-.28.05-.42.07-.06 0-.12.02-.18.02-.17.02-.35.04-.54.05h-.09c-.22.01-.46.02-.7.02h-.2c-.19 0-.39 0-.6-.01-.08 0-.16 0-.24-.01-.25-.01-.5-.03-.77-.05h-.1c-.3-.02-.62-.06-.95-.09-.09 0-.19-.02-.28-.03-.26-.03-.52-.06-.79-.1-.11-.01-.21-.03-.33-.04-.33-.05-.68-.09-1.04-.15-.04 0-.07-.01-.11-.02-.39-.06-.81-.13-1.23-.2-.13-.02-.26-.04-.4-.07-.32-.05-.65-.11-.98-.17-.14-.03-.28-.05-.43-.08-.45-.08-.91-.17-1.39-.26h-.05c-.36-.07-.72-.11-1.06-.14-.1 0-.2-.01-.3-.01h-.66c-.17 0-.33.02-.5.03-.19.02-.37.04-.55.08-.16.03-.32.06-.47.09-.18.04-.35.09-.52.15-.15.05-.3.09-.44.15-.17.06-.33.14-.48.21-.14.07-.28.13-.41.2-.15.08-.3.18-.45.27-.13.08-.26.16-.38.25-.14.1-.28.22-.42.33-.12.1-.24.19-.36.3-.13.12-.26.25-.39.38-.11.11-.22.22-.33.34-.12.14-.24.29-.35.43-.1.13-.2.25-.3.38-.11.15-.22.32-.32.48-.09.14-.19.27-.27.41-.1.17-.2.35-.3.53-.08.14-.16.28-.24.43-.17.32-.32.66-.47 1-.08.18-.15.37-.22.55-.07.17-.14.34-.2.52-.07.19-.13.39-.19.59-.06.18-.12.35-.17.53-.06.2-.11.41-.17.61-.05.18-.1.36-.14.54-.05.21-.09.41-.14.62l-.12.56c-.04.21-.07.42-.11.63l-.09.57c-.03.21-.06.42-.08.64-.02.19-.05.38-.07.58-.02.21-.04.42-.05.63-.01.19-.03.39-.04.58l-.03.63c0 .2-.01.39-.01.59v.62c0 .2 0 .39.01.59 0 .2.02.4.03.6.01.2.02.39.04.58.01.19.03.39.05.58.02.19.04.38.07.57.02.19.05.37.08.56l.09.56c.03.18.06.36.1.53l.12.54.12.5c.05.18.1.35.15.52.05.16.09.31.14.46.06.17.12.33.18.5.05.14.1.29.16.42.07.16.14.32.21.47.06.13.12.26.18.38.08.15.16.29.25.44.06.11.12.22.19.33.09.14.19.27.29.41.07.09.13.18.2.27.11.14.23.26.36.39.06.06.11.13.18.19a6.28 6.28 0 0 0 1.18.85c.06.04.12.07.18.1.13.08.27.15.4.22.08.04.15.07.23.11.12.05.23.11.35.16l.24.09c.11.04.22.08.32.12.08.03.16.05.24.07.1.03.21.06.31.08.08.02.16.03.25.05.1.02.2.04.3.05l.24.03.29.03h.48c.24 0 .47-.02.71-.04.03 0 .06 0 .08-.01.21-.03.42-.07.63-.11.05-.01.1-.02.16-.04.23-.06.45-.12.68-.19.04-.01.07-.03.11-.04a14.741 14.741 0 0 0 .74-.29c.22-.09.44-.2.66-.3l.12-.06c.19-.1.39-.2.58-.3.04-.02.09-.05.13-.07.22-.12.44-.25.66-.38.05-.03.1-.06.14-.08.19-.12.39-.23.58-.35.04-.02.08-.05.11-.07.25-.15.5-.31.76-.46.19-.12.38-.23.58-.35.05-.03.09-.06.14-.08l.66-.39c.05-.03.11-.06.16-.09.2-.11.41-.23.62-.34.03-.02.06-.03.1-.05.23-.12.46-.23.69-.34.06-.03.11-.05.17-.08.22-.1.45-.2.67-.28.02 0 .04-.02.06-.02.24-.09.48-.17.73-.25.06-.02.12-.04.18-.05.25-.07.5-.14.76-.19.35-.07.67-.1.99-.12H270.91c.17 0 .32.03.48.04.12.01.24.01.35.03.21.03.4.09.59.14.08.02.17.04.24.06.26.09.5.2.73.34.06.03.1.07.16.11.17.11.33.21.48.34.08.06.15.14.22.21.11.1.23.21.33.32.08.08.14.17.21.26.09.11.18.22.26.33.07.09.13.19.19.28.07.11.15.23.21.34.06.1.11.2.16.3.06.12.12.23.17.35.05.1.09.2.13.3.05.12.1.23.14.34.04.1.07.19.11.29.04.11.08.22.11.33.03.09.06.18.08.26.03.11.06.2.08.3l.06.23c.02.1.04.18.06.27.01.06.03.13.04.18.02.08.03.15.04.22 0 .04.02.09.02.13.01.07.02.12.03.16v27.35h26.92s1.52-.18 3.14-.95c.69-.33 1.41-.76 2.03-1.33 1.03-.95 1.81-2.29 1.81-4.16 0-.37-.03-.77-.1-1.19-.73-4.59-4.41-8.1-5.02-12.3a8.18 8.18 0 0 1 0-2.37c.06-.41.16-.83.3-1.26.07-.21.15-.43.23-.65.26-.66.62-1.34 1.09-2.05.14-.22.31-.43.49-.63.05-.06.11-.12.17-.18.13-.14.27-.28.42-.41.07-.06.14-.13.22-.19.17-.14.34-.27.52-.4.06-.04.12-.09.19-.14.25-.17.52-.33.79-.49.05-.03.1-.05.15-.08.24-.13.48-.25.73-.36.1-.04.19-.09.29-.13.22-.1.45-.19.68-.28.1-.04.2-.08.3-.11.28-.1.56-.19.86-.28.06-.02.11-.04.17-.05.35-.1.72-.2 1.09-.28l.27-.06c.29-.06.57-.12.87-.18l.36-.06c.28-.05.57-.09.85-.13.11-.01.22-.03.33-.04.79-.09 1.6-.15 2.42-.18h1.54c.39 0 .79.03 1.18.05.08 0 .15.01.23.02a24.331 24.331 0 0 1 2.39.28c.08.01.16.03.24.04.38.07.75.14 1.12.22.07.02.15.03.22.05.36.08.71.17 1.06.27.03 0 .07.02.1.03.36.1.72.22 1.07.34.08.03.16.05.23.08.34.12.68.26 1 .4.06.03.12.06.18.08.3.14.6.28.89.43.04.02.09.04.13.07.31.17.6.34.89.53.07.04.13.08.19.13.28.19.56.38.82.59.04.03.08.07.12.1.24.19.47.4.68.61.04.04.08.07.12.11.23.23.44.47.65.72.05.06.09.11.13.17.2.25.39.52.55.79.02.03.04.07.06.1.15.26.29.53.42.81.02.05.05.1.07.16.13.3.23.6.33.92.02.07.04.14.06.2.09.33.16.66.21 1.01v.07c.04.34.06.68.07 1.04v.21c0 .37-.03.74-.07 1.13 0 .08-.02.16-.03.23-.05.41-.13.82-.23 1.25-1.36 5.66-2.06 9.4-2.08 11.92v.61c.01.39.05.74.1 1.07.03.16.06.32.09.47.14.6.36 1.08.64 1.49.14.2.31.39.49.55s.38.31.6.45c.55.34 1.21.59 1.99.8l.48.12c.33.08.68.16 1.05.23h25.66v-91.76l-88.26 7.87Z" style="fill:url(#Dégradé_sans_nom_46-3)"/><path d="M221.32 252.58c4.64 1.09 5.53 2.33 2.65 15.73-.08.37-.13.73-.17 1.09 0 .08-.02.16-.03.24-.03.34-.05.68-.05 1.01v.12c0 .3.03.59.06.88a6.516 6.516 0 0 0 .2 1.1c.01.05.03.1.05.16.07.26.16.51.25.76l.06.15c.11.27.24.54.38.79.03.05.06.11.09.16.13.23.28.46.43.68.02.03.04.05.05.08.17.24.36.47.55.69.04.05.09.1.13.14.4.44.85.86 1.34 1.23.05.04.1.08.16.12.25.18.5.36.76.53.03.02.05.03.08.05.25.16.5.3.76.44.06.03.11.06.17.09a11.42 11.42 0 0 0 1 .48c.27.12.54.23.81.33l.15.06c.3.11.61.22.93.31.06.02.13.04.19.06.29.09.59.17.88.24.04 0 .07.02.11.03.32.08.65.15.98.21.07.01.14.03.22.04.66.12 1.33.21 2 .27.07 0 .15.01.22.02.33.03.66.04.99.06h.83c.47 0 .93-.02 1.39-.05h.02c.45-.03.89-.09 1.32-.15l.36-.06c.37-.06.72-.14 1.07-.22.07-.02.15-.03.22-.05.41-.1.8-.23 1.17-.36.09-.03.18-.07.27-.1.3-.12.59-.24.86-.38.08-.04.17-.08.25-.12.33-.17.64-.36.93-.56.05-.04.1-.08.15-.11.24-.18.46-.36.66-.56.07-.06.13-.13.19-.19.23-.24.44-.5.62-.77 1.1-1.73 1.53-3.3 1.53-4.78 0-2.04-.8-3.9-1.74-5.78-.17-.34-.34-.68-.52-1.02-.44-.86-.88-1.72-1.26-2.61-.46-1.07-.82-2.17-1-3.35 0-.05 0-.09-.01-.14-.04-.34-.07-.66-.07-.97 0-.14.02-.27.03-.41.01-.2.02-.4.05-.58.02-.14.07-.26.1-.39.04-.16.07-.33.12-.48.03-.08.07-.15.1-.23.07-.18.15-.37.24-.54.05-.08.1-.15.15-.23.09-.15.18-.3.29-.44.08-.1.16-.18.24-.27.09-.1.18-.21.27-.31.11-.11.23-.2.35-.3.07-.06.14-.13.22-.19.12-.09.24-.17.36-.25.08-.05.16-.11.24-.16.12-.07.24-.13.35-.2.09-.05.17-.1.26-.14.15-.08.3-.14.45-.21.05-.02.1-.05.15-.07.16-.07.32-.12.47-.18.03-.01.06-.03.1-.04.13-.04.25-.08.37-.12.05-.01.1-.03.14-.04.13-.04.25-.07.37-.09.02 0 .05-.01.07-.02.09-.02.17-.04.25-.05.03 0 .07-.02.1-.02.07-.01.12-.02.17-.03h.05c.05 0 .08-.01.08-.01h21.66v-26.9c-.13-.64-.69-3.1-1.93-3.1-.16 0-.34.02-.54.06-1.47.3-2.99 1.23-4.6 2.23-2.43 1.49-5.18 3.18-8.61 3.18-2.21 0-4.4-.73-6.5-2.16-5.56-3.81-6.62-15.01-4.12-23.09 2.19-7.07 6.79-11.13 12.62-11.13.8 0 1.62.08 2.44.23 4.48.84 7.3 1.22 9.14 1.22 1 0 1.44-.12 1.59-.17.1-.17.27-.62.52-1.77v-22.14l-70.52 6.29v77.27h19.07Z" style="fill:url(#Dégradé_sans_nom_46-4)"/><path d="M305.92 296.1c0-.39 0-.78-.03-1.17 0-.13-.02-.25-.02-.37-.02-.29-.03-.57-.06-.86-.01-.15-.03-.3-.05-.45l-.09-.75c-.02-.16-.05-.32-.08-.48l-.12-.7c-.03-.16-.07-.32-.1-.47-.05-.22-.1-.44-.15-.65l-.12-.47c-.06-.21-.12-.41-.18-.61l-.15-.45-.21-.57c-.06-.14-.11-.28-.17-.42-.08-.18-.16-.36-.24-.53-.06-.13-.13-.26-.19-.39-.09-.17-.18-.33-.28-.49-.07-.12-.14-.23-.21-.34-.1-.16-.21-.31-.32-.45-.07-.1-.14-.2-.22-.29-.13-.15-.26-.29-.39-.43-.07-.07-.13-.15-.2-.21-.21-.2-.42-.38-.64-.53-.23-.17-.46-.32-.69-.46-.08-.05-.15-.09-.23-.13-.15-.09-.3-.18-.45-.26-.09-.05-.17-.08-.26-.13-.13-.07-.27-.13-.4-.19-.09-.04-.18-.07-.27-.11-.13-.05-.25-.1-.38-.15l-.27-.09a4.94 4.94 0 0 0-.36-.11l-.27-.06c-.12-.03-.23-.05-.35-.07-.09-.02-.18-.03-.27-.04a3.52 3.52 0 0 0-.34-.04c-.09 0-.18-.01-.27-.02-.11 0-.22-.01-.33-.01h-.21c-.22 0-.44.01-.65.04h-.1c-.24.03-.48.07-.72.11-.06.01-.12.03-.18.04-.2.04-.4.09-.59.15-.04.01-.09.02-.13.04-.23.07-.46.15-.69.23-.06.02-.12.05-.18.07-.19.07-.37.15-.56.23l-.15.06-.66.3c-.06.03-.13.06-.19.09-.17.08-.35.17-.52.26-.06.03-.13.06-.19.1l-.63.33c-.23.12-.45.24-.68.36-.05.03-.11.06-.16.09-.24.13-.48.25-.72.37-.03.02-.07.03-.1.05-.2.1-.4.2-.61.3-.06.03-.11.06-.17.08-.23.11-.47.22-.71.32-.03.01-.06.02-.09.04-.21.09-.42.17-.63.26-.06.02-.12.05-.18.07-.24.09-.49.17-.73.25-.02 0-.04 0-.06.02-.23.07-.46.13-.7.18-.06.01-.13.03-.19.04-.26.05-.51.1-.77.14-.31.04-.6.06-.88.06h-.11c-.16 0-.3-.02-.45-.04-.18-.02-.36-.03-.53-.07-.14-.03-.27-.07-.41-.1-.16-.04-.32-.09-.47-.15-.13-.05-.24-.11-.36-.16-.14-.07-.28-.14-.41-.21-.11-.07-.21-.14-.32-.21l-.36-.27c-.1-.08-.19-.16-.28-.25-.11-.1-.21-.21-.31-.32-.08-.09-.16-.18-.24-.28-.09-.12-.18-.23-.27-.35l-.2-.29c-.08-.12-.15-.25-.23-.37-.06-.1-.11-.2-.16-.3-.07-.13-.13-.26-.19-.38-.05-.1-.09-.19-.13-.29-.06-.13-.11-.26-.15-.38-.04-.09-.07-.18-.1-.27-.05-.13-.08-.25-.12-.37-.03-.08-.05-.17-.08-.25-.04-.12-.06-.23-.09-.34l-.06-.22c-.03-.11-.05-.2-.07-.3-.01-.06-.03-.12-.04-.17-.02-.09-.03-.17-.05-.24 0-.04-.02-.09-.02-.12-.01-.07-.02-.11-.02-.16 0-.03 0-.06-.01-.08V256.4h-25.13c-.42.09-1.2.31-1.83.73-.65.43-.97.88-.8 2.03.23 1.56 1.05 3.16 1.91 4.86 1.92 3.77 4.56 8.94.51 15.29-2.18 3.42-6.98 5.46-12.85 5.46-5.09 0-11.9-1.69-15.72-6.43-2.44-3.02-3.27-6.76-2.4-10.81 1.29-5.99 1.8-9.63 1.52-10.85-.15-.06-.43-.15-.91-.28h-18.61v73.47l3.17.28 71.14 6.34v-22.87c.04-.18.07-.35.11-.52.01-.05.03-.11.04-.16.03-.11.05-.23.08-.34.02-.06.03-.12.05-.18.03-.1.05-.2.08-.29.02-.06.03-.12.05-.17.03-.09.06-.19.09-.27.02-.05.04-.11.05-.16.03-.09.07-.18.1-.27.02-.04.03-.09.05-.13.05-.11.1-.22.15-.32 0-.02.01-.03.02-.05.06-.12.13-.23.19-.33.02-.03.04-.05.05-.07.05-.08.11-.15.16-.22.03-.03.05-.06.08-.09.05-.06.1-.12.16-.17.03-.03.06-.06.1-.09l.18-.15.11-.08c.07-.05.13-.09.2-.13.04-.02.07-.04.11-.06.08-.04.17-.08.26-.12.03-.01.06-.03.09-.04.12-.05.25-.09.39-.12.02 0 .05-.01.07-.02.11-.03.23-.05.36-.07.05 0 .11-.01.16-.02.1-.01.21-.03.32-.04.06 0 .13 0 .19-.01.11 0 .22 0 .34-.01h.19c.26 0 .52.01.81.04.04 0 .09 0 .13.01.29.03.59.06.92.1.03 0 .05 0 .08.01.34.05.7.11 1.07.18.07.01.14.03.21.04.38.07.77.16 1.19.25.07.02.14.03.21.05.43.1.87.2 1.34.32.02 0 .04 0 .06.02.49.12 1 .26 1.54.41.1.03.19.05.29.08.53.15 1.08.3 1.65.47.1.03.21.06.32.09.61.18 1.23.36 1.89.56.4.12.8.21 1.18.29.07.01.14.03.21.04.37.06.72.11 1.07.13h.2c.25.01.5 0 .74 0 .16 0 .32-.01.48-.03.21-.02.41-.06.61-.09.15-.03.29-.05.44-.09.2-.05.4-.11.59-.18.13-.04.26-.08.39-.13.21-.08.4-.18.6-.28.1-.05.21-.1.31-.15.24-.14.48-.29.71-.46.05-.03.09-.06.14-.09.27-.2.54-.42.79-.66.06-.06.11-.12.17-.18.19-.19.37-.37.55-.58.08-.09.16-.2.23-.29.14-.18.29-.36.42-.55.08-.11.16-.24.23-.36.12-.19.25-.38.36-.57.08-.13.15-.27.22-.4.11-.2.21-.4.31-.6.07-.14.14-.29.2-.43l.27-.63c.06-.15.12-.3.18-.46.08-.22.16-.44.24-.67.05-.16.1-.31.15-.47.07-.23.14-.47.2-.7.04-.16.09-.32.12-.48.06-.24.11-.49.17-.74.03-.16.07-.32.1-.48.05-.26.09-.52.13-.78.02-.15.05-.3.07-.45.04-.28.07-.57.1-.86.01-.13.03-.27.04-.4.03-.34.05-.69.07-1.03 0-.08.01-.15.02-.23.02-.43.03-.86.03-1.28v-.08Z" style="fill:url(#Dégradé_sans_nom_46-5)"/><ellipse cx="516.63" cy="550.53" rx="172.02" ry="15.89" style="fill:url(#Dégradé_sans_nom_17)"/><path d="M468.47 94.39v57.27c-6.26 13.95-9.78 29.73-9.78 46.39V94.32c-4.56-4.53-7.76-15.19-7.76-27.69 0-16.58 5.67-22.42 12.71-22.42s12.71 5.84 12.71 22.42c0 12.49-3.26 23.23-7.89 27.76Z" style="fill:url(#Dégradé_sans_nom_11)"/><path d="M523.08 248.65c23 0 41.58-22.41 41.58-50.07s-18.59-50.15-41.58-50.15-41.58 22.41-41.58 50.15 18.65 50.07 41.58 50.07Zm123.86-98.32c7.29 14.51 11.4 30.92 11.4 48.25 0 59.27-48.1 107.36-107.44 107.36s-107.44-48.1-107.44-107.36c0-17.32 4.1-33.74 11.4-48.25 17.7-35.1 54.02-59.19 96.04-59.19s78.34 24.09 96.04 59.19Z" style="fill:url(#Dégradé_sans_nom_11-2)"/><path d="M576.03 227.22c5.35-5.2 8.89-14.85 8.89-28.68 0-21.77-8.76-33.19-19.58-33.19s-19.58 11.42-19.58 33.19c0 13.61 3.42 23.17 8.63 28.43 0 0 11.03-4.42 21.63.25Z" class="cls-2"/><ellipse cx="560.67" cy="189.77" class="cls-16" rx="4.55" ry="3.13"/><ellipse cx="567.62" cy="180.17" class="cls-16" rx="6.95" ry="6.11"/><path d="M492.03 224.78c3.91-4.89 7.01-14.14 7.01-26.24 0-19.93-6.9-30.39-15.42-30.39s-15.42 10.45-15.42 30.39c0 12.65 2.78 21.48 6.98 26.24 0 0 8.4-4.02 16.85 0Z" class="cls-2"/><ellipse cx="479.93" cy="190.51" class="cls-16" rx="3.58" ry="2.86"/><ellipse cx="485.4" cy="181.72" class="cls-16" rx="5.48" ry="5.59"/><path d="M512.16 258.8s1.33 10.42 8.28 11.26c11.1 1.34 13.58-11.26 13.58-11.26" style="fill:none;stroke:#5b5a72;stroke-linecap:round;stroke-linejoin:round;stroke-width:3.8px"/><path d="M643.15 91.59v106.98c0-17.32-4.1-33.74-11.4-48.25V91.66c-5.39-4.71-9.19-15.88-9.19-28.87 0-17.25 6.69-23.63 14.82-23.63s14.82 6.38 14.82 23.63c0 12.99-3.72 24.09-9.04 28.8Z" style="fill:url(#Dégradé_sans_nom_11-3)"/><path d="M545.77 136.88s18.01-7.61 39.15 17.88c0 0-13.53-25.16-24.26-26.82-10.01-1.54-14.9 8.94-14.9 8.94ZM496.08 138.9s-12.83-6.75-27.88 15.86c0 0 9.63-22.32 17.27-23.79 7.13-1.37 10.61 7.93 10.61 7.93Z" class="cls-2"/><path d="M604.14 354.01s-3.76 21.94-52.8 14.29c-49.04-7.65-98.55-29.37-95.85-38.92 2.04-7.2 51.8-3.5 95.39-.22 44.78 3.37 55.44 12.98 53.26 24.85Z" style="fill:url(#Dégradé_sans_nom_26)"/><path d="M453.07 334.76c-1.75-2.73-1.64-5-1.24-6.42 1.34-4.74 8.18-6.35 19.63-6.78v-43.42l-24.88 1.36c-5.56-.88-6.61-2.17-3.19-17.1 3.46-15.13-22.03-13.94-26.55-6.28-4.44 7.52 2.11 11.25 3.07 17.56.97 6.33-6.19 7.63-6.19 7.63l-23.55 1.29v25.29s.75 7.21 6.15 6.32c5.23-.86 8.95-7.02 14.81-3.65.1 0 .21-.01.31-.01.65 0 1.31.08 1.95.23.08.02.16.04.24.07.17.05 4.19 1.3 7.94 3.64 8.03 5.01 7.75 10.56 6.87 13.42-1.02 3.32-3.82 6.14-8.1 8.15-3.4 1.6-7.42 2.52-11.04 2.52s-6.02-.9-7.57-2.06c-9.7-2.92-10.7-1.81-11.58 2.8v21.26l81.29 9.31v-21.93c-9.18-4.6-15.8-9.2-18.39-13.23Z" style="fill:url(#Dégradé_sans_nom_46-6)"/><path d="m636.37 300.54-96.43 23.99c3.79.28 7.54.56 11.22.84 29.91 2.25 46.97 7.36 53.7 16.08 2.92 3.78 3.93 8.24 3.02 13.2-.13.78-3.66 19.07-37.56 19.07-5.9 0-12.49-.56-19.57-1.67-6.74-1.05-13.61-2.4-20.44-3.97l-2.58 31.47c-.46 5.39-5.3 5.39-5.68 0l-2.33-34.09c-16.6-4.41-32.33-9.97-44.46-15.63v13.66l55.84 129.3c4.4 10.26 17.97 10.26 23.29 0l93.23-178.63c3.95-7.52-3.12-16.03-11.25-13.6Z" style="fill:url(#Dégradé_sans_nom_11-4)"/><path d="M479.66 321.44c8.59 0 18.88.42 29.81 1.04l-34.21-16.26v15.26c1.41-.02 2.87-.04 4.4-.04Z" style="fill:url(#Dégradé_sans_nom_11-5)"/></svg>