<svg xmlns="http://www.w3.org/2000/svg" xmlns:xlink="http://www.w3.org/1999/xlink" id="Calque_1" data-name="Calque 1" viewBox="0 0 841.89 595.28"><defs><linearGradient id="Dégradé_sans_nom_11" x1="331.83" x2="523.18" y1="114.39" y2="305.74" data-name="Dégradé sans nom 11" gradientUnits="userSpaceOnUse"><stop offset=".1" stop-color="#5b5a72"/><stop offset=".5" stop-color="#b0b0bf"/><stop offset=".96" stop-color="#f4f4f6"/></linearGradient><linearGradient xlink:href="#Dégradé_sans_nom_11" id="Dégradé_sans_nom_11-2" x1="338.08" x2="498.33" y1="110.53" y2="270.77" data-name="Dégradé sans nom 11"/><linearGradient xlink:href="#Dégradé_sans_nom_11" id="Dégradé_sans_nom_11-3" x1="394.61" x2="591.54" y1="-4.68" y2="192.25" data-name="Dégradé sans nom 11"/><linearGradient id="Dégradé_sans_nom_26" x1="486.19" x2="486.19" y1="309.62" y2="465.62" data-name="Dégradé sans nom 26" gradientUnits="userSpaceOnUse"><stop offset="0" stop-color="#b0b0bf"/><stop offset="1" stop-color="#f4f4f6"/></linearGradient><linearGradient xlink:href="#Dégradé_sans_nom_11" id="Dégradé_sans_nom_11-4" x1="342.12" x2="497.23" y1="277.05" y2="432.16" data-name="Dégradé sans nom 11"/><linearGradient xlink:href="#Dégradé_sans_nom_11" id="Dégradé_sans_nom_11-5" x1="284.69" x2="291.84" y1="45.72" y2="52.87" data-name="Dégradé sans nom 11" gradientTransform="rotate(-153.44 249.02 150.018)"/><linearGradient xlink:href="#Dégradé_sans_nom_11" id="Dégradé_sans_nom_11-6" x1="229.32" x2="237.22" y1="-1491.29" y2="-1483.4" data-name="Dégradé sans nom 11" gradientTransform="scale(-1 1) rotate(-87.39 850.256 -401.76)"/><linearGradient xlink:href="#Dégradé_sans_nom_11" id="Dégradé_sans_nom_11-7" x1="291.64" x2="318.63" y1="81.11" y2="108.1" data-name="Dégradé sans nom 11" gradientTransform="rotate(-150.04 251.31 152.819)"/><linearGradient xlink:href="#Dégradé_sans_nom_11" id="Dégradé_sans_nom_11-8" x1="279.06" x2="300.86" y1="133.29" y2="155.09" data-name="Dégradé sans nom 11" gradientTransform="rotate(-97.72 259.385 180.808)"/><linearGradient xlink:href="#Dégradé_sans_nom_11" id="Dégradé_sans_nom_11-9" x1="9916.66" x2="9974.69" y1="-5931.71" y2="-5873.68" data-name="Dégradé sans nom 11" gradientTransform="scale(1 -1) rotate(-72.94 9190.827 3270.024)"/><linearGradient xlink:href="#Dégradé_sans_nom_11" id="Dégradé_sans_nom_11-10" x1="9796.45" x2="9824.81" y1="-7897.05" y2="-7868.69" data-name="Dégradé sans nom 11" gradientTransform="scale(1 -1) rotate(-56.86 12324.023 4475.55)"/><linearGradient xlink:href="#Dégradé_sans_nom_11" id="Dégradé_sans_nom_11-11" x1="654.1" x2="664.67" y1="192.47" y2="203.04" data-name="Dégradé sans nom 11" gradientTransform="matrix(-1 0 0 1 1246.72 0)"/><linearGradient xlink:href="#Dégradé_sans_nom_11" id="Dégradé_sans_nom_11-12" x1="671.81" x2="683.97" y1="184.45" y2="196.62" data-name="Dégradé sans nom 11" gradientTransform="matrix(-1 0 0 1 1246.72 0)"/><linearGradient xlink:href="#Dégradé_sans_nom_11" id="Dégradé_sans_nom_11-13" x1="584.09" x2="615.82" y1="88.48" y2="120.22" data-name="Dégradé sans nom 11" gradientTransform="matrix(-1 0 0 1 1246.72 0)"/><linearGradient xlink:href="#Dégradé_sans_nom_11" id="Dégradé_sans_nom_11-14" x1="621.67" x2="649.33" y1="89.96" y2="117.62" data-name="Dégradé sans nom 11" gradientTransform="matrix(-1 0 0 1 1246.72 0)"/><linearGradient id="Dégradé_sans_nom_46" x1="225.87" x2="243.23" y1="216.83" y2="234.19" data-name="Dégradé sans nom 46" gradientTransform="rotate(89.08 234.397 225.345)" gradientUnits="userSpaceOnUse"><stop offset="0" stop-color="#5b5a72"/><stop offset="1" stop-color="#b0b0bf"/></linearGradient><linearGradient xlink:href="#Dégradé_sans_nom_46" id="Dégradé_sans_nom_46-2" x1="241.46" x2="258.82" y1="201.74" y2="219.1" data-name="Dégradé sans nom 46" gradientTransform="rotate(89.08 249.979 210.242)"/><linearGradient xlink:href="#Dégradé_sans_nom_46" id="Dégradé_sans_nom_46-3" x1="225.62" x2="242.99" y1="232.18" y2="249.54" data-name="Dégradé sans nom 46" gradientTransform="rotate(89.08 234.148 240.682)"/><linearGradient xlink:href="#Dégradé_sans_nom_46" id="Dégradé_sans_nom_46-4" x1="240.97" x2="258.33" y1="232.42" y2="249.79" data-name="Dégradé sans nom 46" gradientTransform="rotate(89.08 249.49 240.927)"/><linearGradient xlink:href="#Dégradé_sans_nom_46" id="Dégradé_sans_nom_46-5" x1="241.21" x2="258.58" y1="217.08" y2="234.44" data-name="Dégradé sans nom 46" gradientTransform="rotate(89.08 249.735 225.584)"/><linearGradient xlink:href="#Dégradé_sans_nom_46" id="Dégradé_sans_nom_46-6" x1="210.28" x2="227.64" y1="231.93" y2="249.29" data-name="Dégradé sans nom 46" gradientTransform="rotate(89.08 218.806 240.438)"/><linearGradient xlink:href="#Dégradé_sans_nom_46" id="Dégradé_sans_nom_46-7" x1="226.12" x2="243.48" y1="201.49" y2="218.85" data-name="Dégradé sans nom 46" gradientTransform="rotate(89.08 234.642 209.993)"/><linearGradient xlink:href="#Dégradé_sans_nom_46" id="Dégradé_sans_nom_46-8" x1="210.78" x2="228.14" y1="201.24" y2="218.61" data-name="Dégradé sans nom 46" gradientTransform="rotate(89.08 219.3 209.749)"/><linearGradient xlink:href="#Dégradé_sans_nom_46" id="Dégradé_sans_nom_46-9" x1="210.53" x2="227.89" y1="216.59" y2="233.95" data-name="Dégradé sans nom 46" gradientTransform="rotate(89.08 219.05 225.096)"/><linearGradient xlink:href="#Dégradé_sans_nom_46" id="Dégradé_sans_nom_46-10" x1="242.96" x2="250.74" y1="187.81" y2="195.58" data-name="Dégradé sans nom 46"/><linearGradient xlink:href="#Dégradé_sans_nom_46" id="Dégradé_sans_nom_46-11" x1="241.21" x2="258.58" y1="217.08" y2="234.44" data-name="Dégradé sans nom 46" gradientTransform="rotate(89.08 249.735 225.584)"/><linearGradient xlink:href="#Dégradé_sans_nom_46" id="Dégradé_sans_nom_46-12" x1="223.87" x2="231.69" y1="191.49" y2="199.31" data-name="Dégradé sans nom 46"/><linearGradient xlink:href="#Dégradé_sans_nom_46" id="Dégradé_sans_nom_46-13" x1="233.48" x2="241.78" y1="195.75" y2="204.05" data-name="Dégradé sans nom 46"/><linearGradient xlink:href="#Dégradé_sans_nom_46" id="Dégradé_sans_nom_46-14" x1="226.12" x2="243.48" y1="201.49" y2="218.85" data-name="Dégradé sans nom 46" gradientTransform="rotate(89.08 234.642 209.993)"/><linearGradient xlink:href="#Dégradé_sans_nom_46" id="Dégradé_sans_nom_46-15" x1="238.65" x2="246.65" y1="191.43" y2="199.43" data-name="Dégradé sans nom 46"/><linearGradient xlink:href="#Dégradé_sans_nom_46" id="Dégradé_sans_nom_46-16" x1="228.54" x2="235.96" y1="188.06" y2="195.48" data-name="Dégradé sans nom 46"/><linearGradient xlink:href="#Dégradé_sans_nom_46" id="Dégradé_sans_nom_46-17" x1="261.3" x2="269.05" y1="213.74" y2="221.5" data-name="Dégradé sans nom 46"/><linearGradient xlink:href="#Dégradé_sans_nom_46" id="Dégradé_sans_nom_46-18" x1="261.09" x2="269.29" y1="228.55" y2="236.75" data-name="Dégradé sans nom 46"/><linearGradient xlink:href="#Dégradé_sans_nom_46" id="Dégradé_sans_nom_46-19" x1="261.27" x2="269.06" y1="198.98" y2="206.78" data-name="Dégradé sans nom 46"/><linearGradient xlink:href="#Dégradé_sans_nom_46" id="Dégradé_sans_nom_46-20" x1="218.27" x2="226.58" y1="195.59" y2="203.9" data-name="Dégradé sans nom 46"/><linearGradient xlink:href="#Dégradé_sans_nom_46" id="Dégradé_sans_nom_46-21" x1="214.06" x2="231.42" y1="197.96" y2="215.32" data-name="Dégradé sans nom 46"/><linearGradient xlink:href="#Dégradé_sans_nom_46" id="Dégradé_sans_nom_46-22" x1="264.66" x2="272.92" y1="224.69" y2="232.94" data-name="Dégradé sans nom 46"/><linearGradient xlink:href="#Dégradé_sans_nom_46" id="Dégradé_sans_nom_46-23" x1="265.18" x2="272.87" y1="195.09" y2="202.78" data-name="Dégradé sans nom 46"/><linearGradient xlink:href="#Dégradé_sans_nom_46" id="Dégradé_sans_nom_46-24" x1="265.1" x2="272.71" y1="209.84" y2="217.45" data-name="Dégradé sans nom 46"/><linearGradient xlink:href="#Dégradé_sans_nom_46" id="Dégradé_sans_nom_46-25" x1="229.15" x2="246.52" y1="213.55" y2="230.91" data-name="Dégradé sans nom 46"/><linearGradient xlink:href="#Dégradé_sans_nom_46" id="Dégradé_sans_nom_46-26" x1="257.8" x2="265.53" y1="187.75" y2="195.48" data-name="Dégradé sans nom 46"/><linearGradient xlink:href="#Dégradé_sans_nom_46" id="Dégradé_sans_nom_46-27" x1="244.25" x2="261.61" y1="229.14" y2="246.5" data-name="Dégradé sans nom 46"/><linearGradient xlink:href="#Dégradé_sans_nom_46" id="Dégradé_sans_nom_46-28" x1="256.07" x2="264.22" y1="233.94" y2="242.09" data-name="Dégradé sans nom 46"/><linearGradient xlink:href="#Dégradé_sans_nom_46" id="Dégradé_sans_nom_46-29" x1="253.68" x2="261.63" y1="191.49" y2="199.44" data-name="Dégradé sans nom 46"/><linearGradient xlink:href="#Dégradé_sans_nom_46" id="Dégradé_sans_nom_46-30" x1="256.4" x2="264.34" y1="203.81" y2="211.75" data-name="Dégradé sans nom 46"/><linearGradient xlink:href="#Dégradé_sans_nom_46" id="Dégradé_sans_nom_46-31" x1="248.75" x2="256.97" y1="195.95" y2="204.17" data-name="Dégradé sans nom 46"/><linearGradient xlink:href="#Dégradé_sans_nom_46" id="Dégradé_sans_nom_46-32" x1="241.46" x2="258.82" y1="201.74" y2="219.1" data-name="Dégradé sans nom 46" gradientTransform="rotate(89.08 249.979 210.242)"/><linearGradient xlink:href="#Dégradé_sans_nom_46" id="Dégradé_sans_nom_46-33" x1="256.27" x2="264.25" y1="218.88" y2="226.86" data-name="Dégradé sans nom 46"/><linearGradient xlink:href="#Dégradé_sans_nom_46" id="Dégradé_sans_nom_46-34" x1="341.89" x2="233.7" y1="356.87" y2="248.68" data-name="Dégradé sans nom 46"/><linearGradient xlink:href="#Dégradé_sans_nom_11" id="Dégradé_sans_nom_11-15" x1="-3001.92" x2="-2951.19" y1="-9572.08" y2="-9521.35" data-name="Dégradé sans nom 11" gradientTransform="rotate(74.05 -7750.68 -2609.349)"/><linearGradient xlink:href="#Dégradé_sans_nom_11" id="Dégradé_sans_nom_11-16" x1="227.29" x2="247.7" y1="75.92" y2="96.33" data-name="Dégradé sans nom 11" gradientTransform="rotate(163.01 225.81 65.143)"/><linearGradient xlink:href="#Dégradé_sans_nom_11" id="Dégradé_sans_nom_11-17" x1="263.61" x2="276.16" y1="71.47" y2="84.01" data-name="Dégradé sans nom 11" gradientTransform="rotate(163.01 225.81 65.143)"/><radialGradient id="Dégradé_sans_nom_17" cx="407.27" cy="545.6" r="128.87" data-name="Dégradé sans nom 17" fx="407.27" fy="545.6" gradientTransform="matrix(1.35 .00047 -.00004 .11 -146.32 483.43)" gradientUnits="userSpaceOnUse"><stop offset=".4" stop-color="#353544" stop-opacity=".5"/><stop offset="1" stop-color="#353544" stop-opacity="0"/></radialGradient><style>.cls-13{fill:#353544}.cls-57{fill:#fff;opacity:.5}</style></defs><ellipse cx="402.52" cy="545.6" rx="176.44" ry="15.9" style="fill:url(#Dégradé_sans_nom_17)"/><path d="M338.52 89.24v57.27c-6.26 13.95-9.78 29.73-9.78 46.39V89.17c-4.56-4.53-7.76-15.19-7.76-27.69 0-16.58 5.67-22.42 12.71-22.42s12.71 5.84 12.71 22.42c0 12.49-3.26 23.23-7.89 27.76Z" style="fill:url(#Dégradé_sans_nom_11)"/><path d="M393.13 243.5c23 0 41.58-22.41 41.58-50.07s-18.59-50.15-41.58-50.15-41.58 22.41-41.58 50.15 18.65 50.07 41.58 50.07Zm123.86-98.32c7.29 14.51 11.4 30.92 11.4 48.25 0 59.27-48.1 107.36-107.44 107.36s-107.44-48.1-107.44-107.36c0-17.32 4.1-33.74 11.4-48.25 17.7-35.1 54.02-59.19 96.04-59.19s78.34 24.09 96.04 59.19Z" style="fill:url(#Dégradé_sans_nom_11-2)"/><path d="M447.75 166.55c4.4 5.5 7.21 14.5 7.21 26.83 0 10.37-1.99 18.4-7.64 29.03l-24.03-.27c-5.56-10.62-7.48-18.55-7.48-28.76 0-9.25 1.7-18.87 6.22-25.65 0 0 4.61-7.15 12.68-7.58 7.79-.41 13.04 6.39 13.04 6.39Z" class="cls-13"/><ellipse cx="432.99" cy="187.42" class="cls-57" rx="4.55" ry="3.13"/><ellipse cx="439.94" cy="177.81" class="cls-57" rx="6.95" ry="6.11"/><path d="M346.95 167.16c-6.19 5.52-8.7 15.14-8.7 26.22 0 9.48 1.56 16.82 5.92 25.95l18.51.54c4.5-9.3 5.82-17.04 6.4-26.49.38-6.21-.42-19.85-3.95-24.29l-18.19-1.93Z" class="cls-13"/><ellipse cx="351.76" cy="187.92" class="cls-57" rx="3.58" ry="2.86"/><ellipse cx="357.24" cy="179.13" class="cls-57" rx="5.48" ry="5.59"/><path d="M513.19 86.44v106.98c0-17.32-4.1-33.74-11.4-48.25V86.51c-5.39-4.71-9.19-15.88-9.19-28.87 0-17.25 6.69-23.63 14.82-23.63s14.82 6.38 14.82 23.63c0 12.99-3.72 24.09-9.04 28.8Z" style="fill:url(#Dégradé_sans_nom_11-3)"/><path d="m257.78 202.71-46.03-.74" style="fill:none"/><path d="M419.84 123.5s17.62-5.65 35.39 20.17c0 0-10.61-24.86-20.59-27.33-9.3-2.31-14.8 7.16-14.8 7.16Z" class="cls-13"/><path d="M379.92 265.43s21.59-5.26 30 0" style="stroke-width:4px;stroke-linecap:round;stroke-linejoin:round;stroke:#5b5a72;fill:none"/><path d="M371.55 144.74s-1.94 14.4-11.37 8.9c-10.33-6.01-24.3-13.92-24.3-13.92s29.74 12.68 35.68 5.02Z" class="cls-13"/><path d="M484.41 327.9s22.25.71 21.41 50.33c-.84 49.62-16.44 93.42-26.26 92.06-7.42-1.03-9.71-42.6-12.44-86.23-2.81-44.82 5.24-56.7 17.3-56.17Z" style="fill:url(#Dégradé_sans_nom_26)"/><path d="M483.65 324.08c.31 0 .61 0 .87.02.67.03 10.76.59 17.94 14.1l15.2-29.13c3.95-7.52-3.12-16.03-11.25-13.6L403.79 321l-6.02 73.47c-.46 5.39-5.3 5.39-5.68 0L387.06 321l-53.7-25.53c-6.73-2.43-12.57 6.08-9.37 13.6l77.15 178.63c4.4 10.26 17.97 10.26 23.29 0l40.52-77.64c-.45-6.64-.88-13.54-1.32-20.57l-.32-5.19c-1.86-29.61.77-47.12 8.28-55.11 3.18-3.39 7.24-5.11 12.05-5.11Z" style="fill:url(#Dégradé_sans_nom_11-4)"/><path d="m187.79 220-37.81 5.11" style="stroke:url(#Dégradé_sans_nom_11-5);stroke-width:3px;stroke-linecap:round;stroke-linejoin:round;fill:none"/><path d="m254.63 179.68 15.36-28.94" style="stroke:url(#Dégradé_sans_nom_11-6);stroke-width:3px;stroke-linecap:round;stroke-linejoin:round;fill:none"/><path d="m194.78 189.43-38.38-26.1" style="stroke:url(#Dégradé_sans_nom_11-7);stroke-width:3px;stroke-linecap:round;stroke-linejoin:round;fill:none"/><path d="m221.63 174.93-5.28-39" style="stroke-width:3px;stroke:url(#Dégradé_sans_nom_11-8);stroke-linecap:round;stroke-linejoin:round;fill:none"/><path d="M651.92 181.77c-1.08.33-2.23-.28-2.56-1.36l-1.87-6.09c-3.96.37-7.88-.04-11.57-1.11l-2.99 5.64c-.53 1-1.77 1.38-2.78.85l-3.77-2-3.78-2c-1-.53-1.38-1.77-.85-2.78l2.99-5.64c-2.97-2.46-5.5-5.47-7.41-8.96l-6.1 1.87c-1.08.33-2.23-.28-2.56-1.36l-1.25-4.08-1.25-4.09c-.33-1.08.28-2.23 1.36-2.56l6.1-1.87c-.38-3.96.03-7.88 1.11-11.57l-5.64-2.99c-1-.53-1.38-1.77-.85-2.78l2-3.78 2-3.77c.53-1 1.77-1.38 2.78-.85l5.64 2.99c2.46-2.96 5.47-5.49 8.96-7.4l-1.87-6.1c-.33-1.08.28-2.23 1.36-2.56l4.08-1.25 4.09-1.25c1.08-.33 2.23.28 2.56 1.36l1.87 6.1c3.95-.37 7.88.03 11.56 1.11l2.99-5.64c.53-1 1.77-1.38 2.78-.85l3.78 2 3.77 2c1 .53 1.38 1.77.85 2.77l-2.99 5.65a30.69 30.69 0 0 1 7.41 8.95l6.1-1.87c1.08-.33 2.23.28 2.56 1.36l1.25 4.09 1.25 4.08c.33 1.08-.28 2.23-1.36 2.56l-6.1 1.87c.38 3.96-.03 7.88-1.11 11.57l5.64 2.99c1 .53 1.38 1.77.85 2.77l-2 3.78-2 3.78c-.53 1-1.77 1.38-2.78.85l-5.64-2.99a31.14 31.14 0 0 1-8.95 7.41l1.87 6.09c.33 1.08-.28 2.23-1.36 2.56l-4.09 1.25-4.08 1.25Zm4.44-42.04c-1.99-6.5-8.88-10.15-15.37-8.15-6.49 1.99-10.14 8.87-8.15 15.37 1.99 6.49 8.87 10.14 15.37 8.15 6.5-1.99 10.15-8.88 8.16-15.37Z" style="fill:url(#Dégradé_sans_nom_11-9)"/><path d="M609.44 196.73c-.72.47-1.69.27-2.16-.45l-2.92-4.47c-4.06.73-8.26-.16-11.69-2.45l-4.47 2.92c-.72.47-1.69.27-2.16-.45l-2.55-3.91-2.55-3.91c-.47-.72-.27-1.69.45-2.16l4.47-2.92c-.72-4.05.16-8.25 2.46-11.68l-2.92-4.47c-.47-.72-.27-1.69.45-2.16l3.9-2.55 3.91-2.55c.72-.47 1.69-.27 2.16.45l2.92 4.47c4.05-.72 8.26.15 11.68 2.45l4.47-2.92c.72-.47 1.69-.27 2.16.45l2.55 3.91 2.55 3.91c.47.72.27 1.69-.45 2.16l-4.47 2.92c.72 4.05-.16 8.26-2.45 11.69l2.92 4.47c.47.72.27 1.69-.45 2.16l-3.91 2.55-3.9 2.55Zm-4.2-23.02a4.394 4.394 0 0 0-6.1-1.27 4.396 4.396 0 0 0-1.28 6.09 4.408 4.408 0 0 0 6.1 1.29 4.408 4.408 0 0 0 1.28-6.1Z" style="fill:url(#Dégradé_sans_nom_11-10)"/><path d="M601.55 204.23s-19.88 3.15-27.15-14.23" style="stroke:url(#Dégradé_sans_nom_11-11);stroke-width:4px;stroke-linecap:round;stroke-linejoin:round;fill:none"/><path d="M574.41 204.46s-12.34-5.06-10.65-28.34" style="stroke:url(#Dégradé_sans_nom_11-12);stroke-width:4px;stroke-linecap:round;stroke-linejoin:round;fill:none"/><path d="M617.4 103.89s27.19-25.59 58.73.92" style="stroke:url(#Dégradé_sans_nom_11-13);stroke-width:4px;stroke-linecap:round;stroke-linejoin:round;fill:none"/><path d="M622.42 90.16s-18.07 7.34-20.86 28.8" style="stroke:url(#Dégradé_sans_nom_11-14);stroke-width:4px;stroke-linecap:round;stroke-linejoin:round;fill:none"/><path d="M227.72 218.68h13.34v13.34h-13.34z" style="fill:url(#Dégradé_sans_nom_46)" transform="rotate(-89.08 234.386 225.352)"/><path d="M243.31 203.59h13.34v13.34h-13.34z" style="fill:url(#Dégradé_sans_nom_46-2)" transform="rotate(-89.08 249.967 210.26)"/><path d="M227.47 234.03h13.34v13.34h-13.34z" style="fill:url(#Dégradé_sans_nom_46-3)" transform="rotate(-89.08 234.127 240.698)"/><path d="M242.82 234.27h13.34v13.34h-13.34z" style="fill:url(#Dégradé_sans_nom_46-4)" transform="rotate(-89.08 249.473 240.948)"/><path d="M243.06 218.93h13.34v13.34h-13.34z" style="fill:url(#Dégradé_sans_nom_46-5)" transform="rotate(-89.08 249.723 225.602)"/><path d="M212.13 233.78h13.34v13.34h-13.34z" style="fill:url(#Dégradé_sans_nom_46-6)" transform="rotate(-89.08 218.79 240.448)"/><path d="M227.97 203.34h13.34v13.34h-13.34z" style="fill:url(#Dégradé_sans_nom_46-7)" transform="rotate(-89.08 234.626 210.016)"/><path d="M212.63 203.09h13.34v13.34h-13.34z" style="fill:url(#Dégradé_sans_nom_46-8)" transform="rotate(-89.08 219.28 209.766)"/><path d="M212.38 218.44h13.34v13.34h-13.34z" style="fill:url(#Dégradé_sans_nom_46-9)" transform="rotate(-89.08 219.035 225.107)"/><path d="m253.5 190.88-11.85.12-1.59 1.37h11.82l1.62-1.49z" style="fill:url(#Dégradé_sans_nom_46-10)"/><path d="M243.06 218.93h13.34v13.34h-13.34z" style="fill:url(#Dégradé_sans_nom_46-11)" transform="rotate(-89.08 249.723 225.602)"/><path d="m220.74 196.29 11.65.05 2.29-1.97h-11.46l-2.48 1.92z" style="fill:url(#Dégradé_sans_nom_46-12)"/><path d="m245.36 198.4-12.23-.06-3.39 2.92 12.31.2 3.31-3.06z" style="fill:url(#Dégradé_sans_nom_46-13)"/><path d="M227.97 203.34h13.34v13.34h-13.34z" style="fill:url(#Dégradé_sans_nom_46-14)" transform="rotate(-89.08 234.626 210.016)"/><path d="m235.44 196.35 12.08.05 2.2-2.03h-11.98l-2.3 1.98z" style="fill:url(#Dégradé_sans_nom_46-15)"/><path d="M225.81 192.37H237l1.55-1.34-11.16.11-1.58 1.23z" style="fill:url(#Dégradé_sans_nom_46-16)"/><path d="m266.15 210.55-2.11 2.18.02 11.83 2.09-2.28v-11.73z" style="fill:url(#Dégradé_sans_nom_46-17)"/><path d="M266.15 237.75v-12.52l-2.09 2.28.02 12.41 2.07-2.17z" style="fill:url(#Dégradé_sans_nom_46-18)"/><path d="m266.15 195.76-2.13 2.13.02 11.97 2.11-2.2v-11.9z" style="fill:url(#Dégradé_sans_nom_46-19)"/><path d="m218.16 198.28-3.54 2.74 12.11.19 3.35-2.88-11.92-.05z" style="fill:url(#Dégradé_sans_nom_46-20)"/><path d="m212.74 202.99 13.12 13.55.22-13.34-13.34-.21z" style="fill:url(#Dégradé_sans_nom_46-21)"/><path d="m269.28 221.83-1.13 1.23v12.59l.93-.97.2-12.85z" style="fill:url(#Dégradé_sans_nom_46-22)"/><path d="m269.76 192.15-1.61 1.61v11.83l1.42-1.48.19-11.96z" style="fill:url(#Dégradé_sans_nom_46-23)"/><path d="m269.52 207.04-1.37 1.43v11.64l1.18-1.29.19-11.78z" style="fill:url(#Dégradé_sans_nom_46-24)"/><path d="m227.83 218.58 13.13 13.55.21-13.34-13.34-.21z" style="fill:url(#Dégradé_sans_nom_46-25)"/><path d="m268.36 190.72-11.88.12-1.65 1.53h11.89l1.64-1.65z" style="fill:url(#Dégradé_sans_nom_46-26)"/><path d="m242.93 234.17 13.12 13.55.22-13.34-13.34-.21z" style="fill:url(#Dégradé_sans_nom_46-27)"/><path d="m262.06 229.68-3.78 4.11-.2 12.41 4-4.19-.02-12.33z" style="fill:url(#Dégradé_sans_nom_46-28)"/><path d="M264.71 194.37h-12.04l-2.22 2.05 12.16.05 2.1-2.1z" style="fill:url(#Dégradé_sans_nom_46-29)"/><path d="m258.77 203.13-.2 12.4 3.47-3.6-.01-12.05-3.26 3.25z" style="fill:url(#Dégradé_sans_nom_46-30)"/><path d="m260.62 198.46-12.32-.05-3.35 3.1 12.42.2 3.25-3.25z" style="fill:url(#Dégradé_sans_nom_46-31)"/><path d="M243.31 203.59h13.34v13.34h-13.34z" style="fill:url(#Dégradé_sans_nom_46-32)" transform="rotate(-89.08 249.967 210.26)"/><path d="m258.33 230.79 3.73-4.06-.02-11.92-3.51 3.65-.2 12.33z" style="fill:url(#Dégradé_sans_nom_46-33)"/><path d="M298.83 289.69c-17.66-28.41-28.39-39.91-37.26-44.25l-3.81 3.99h-.01c-.09.09-.19.16-.3.21 0 0-.01.01-.02.01-.12.05-.25.08-.39.08h-.02l-15.33-.25h-.02l-23.26-.38c.17.47.44.93.84 1.33 6.88 6.98 30.87 10.3 30.87 10.3 9.41 26.84 20.62 47.01 34.05 67.97 18.09 28.24 34.52 34 41.34 33.49 0 0 19.78 2.21-26.68-72.52Z" style="fill:url(#Dégradé_sans_nom_46-34)"/><path d="m240.52 108.74-3.55 1.01c-.98.28-2-.29-2.28-1.27l-1.52-5.31c-3.46.25-6.89-.17-10.09-1.17l-2.69 4.84c-.49.89-1.62 1.21-2.51.72l-3.22-1.79-3.22-1.79c-.89-.5-1.21-1.62-.72-2.51l2.69-4.84c-2.55-2.2-4.72-4.87-6.33-7.96l-5.32 1.52c-.98.28-2-.29-2.28-1.27l-1.01-3.54-1.01-3.55c-.28-.98.29-2 1.27-2.28l5.32-1.52c-.26-3.47.16-6.88 1.17-10.09l-4.84-2.69a1.851 1.851 0 0 1-.72-2.51l1.79-3.22 1.79-3.22c.49-.89 1.62-1.21 2.51-.72l4.84 2.69a26.9 26.9 0 0 1 7.95-6.32l-1.52-5.32c-.28-.98.29-2 1.27-2.28l3.55-1.01 3.54-1.01c.98-.28 2 .29 2.28 1.27l1.52 5.32c3.47-.26 6.88.16 10.1 1.16l2.69-4.84c.5-.89 1.62-1.21 2.51-.72l3.22 1.79 3.22 1.79c.89.49 1.21 1.62.72 2.51l-2.69 4.84a26.9 26.9 0 0 1 6.32 7.95l5.32-1.52c.98-.28 2 .29 2.28 1.27l1.01 3.55 1.01 3.54c.28.98-.29 2-1.27 2.28l-5.32 1.52c.26 3.47-.16 6.88-1.17 10.1l4.84 2.68c.89.49 1.21 1.62.72 2.51l-1.79 3.22-1.79 3.22c-.49.89-1.62 1.21-2.51.72l-4.84-2.69c-2.2 2.55-4.87 4.71-7.96 6.33l1.52 5.31c.28.98-.29 2-1.27 2.28l-3.54 1.01Zm-4.29-15.04c9.75-2.79 15.4-12.95 12.61-22.7-2.79-9.76-12.96-15.41-22.7-12.62s-15.41 12.96-12.62 22.71c2.79 9.75 12.95 15.4 22.71 12.61Z" style="fill:url(#Dégradé_sans_nom_11-15)"/><path d="M231.46 31.83s-36.88 1.53-44.66 34.02" style="stroke:url(#Dégradé_sans_nom_11-16);stroke-width:4px;stroke-linecap:round;stroke-linejoin:round;fill:none"/><path d="M185.84 44.27s-18.25 15.68-10.1 44.32" style="stroke:url(#Dégradé_sans_nom_11-17);stroke-width:4px;stroke-linecap:round;stroke-linejoin:round;fill:none"/></svg>