<svg xmlns="http://www.w3.org/2000/svg" xmlns:xlink="http://www.w3.org/1999/xlink" id="Calque_1" data-name="Calque 1" viewBox="0 0 841.89 595.28"><defs><linearGradient id="Dégradé_sans_nom_11" x1="326.04" x2="517.38" y1="114.41" y2="305.75" data-name="Dégradé sans nom 11" gradientUnits="userSpaceOnUse"><stop offset=".1" stop-color="#5b5a72"/><stop offset=".5" stop-color="#b0b0bf"/><stop offset=".96" stop-color="#f4f4f6"/></linearGradient><linearGradient xlink:href="#Dégradé_sans_nom_11" id="Dégradé_sans_nom_11-2" x1="332.29" x2="492.52" y1="110.54" y2="270.78" data-name="Dégradé sans nom 11"/><linearGradient id="Dégradé_sans_nom_26" x1="1561.77" x2="1754.15" y1="-4733.25" y2="-4540.87" data-name="Dégradé sans nom 26" gradientTransform="rotate(116.83 -479.613 -2524.825)" gradientUnits="userSpaceOnUse"><stop offset="0" stop-color="#b0b0bf"/><stop offset="1" stop-color="#f4f4f6"/></linearGradient><linearGradient id="Dégradé_sans_nom_46" x1="366.83" x2="236.38" y1="342.4" y2="342.4" data-name="Dégradé sans nom 46" gradientUnits="userSpaceOnUse"><stop offset="0" stop-color="#5b5a72"/><stop offset="1" stop-color="#b0b0bf"/></linearGradient><linearGradient xlink:href="#Dégradé_sans_nom_11" id="Dégradé_sans_nom_11-3" x1="388.81" x2="585.73" y1="-4.66" y2="192.25" data-name="Dégradé sans nom 11"/><linearGradient xlink:href="#Dégradé_sans_nom_11" id="Dégradé_sans_nom_11-4" x1="315.23" x2="470.33" y1="298.07" y2="453.16" data-name="Dégradé sans nom 11"/><linearGradient xlink:href="#Dégradé_sans_nom_11" id="Dégradé_sans_nom_11-5" x1="435.53" x2="493.14" y1="286.75" y2="344.36" data-name="Dégradé sans nom 11"/><linearGradient id="Dégradé_secondaire1" x1="5721.39" x2="5785.87" y1="-1290.32" y2="-1225.84" data-name="Dégradé secondaire1" gradientTransform="rotate(-23.38 6676.67 11752.058)" gradientUnits="userSpaceOnUse"><stop offset="0" stop-color="#5b5a72"/><stop offset="1" stop-color="#b0b0bf"/></linearGradient><linearGradient xlink:href="#Dégradé_secondaire1" id="Dégradé_secondaire1-2" x1="5669.35" x2="5707.24" y1="-1277.27" y2="-1239.38" data-name="Dégradé secondaire1"/><linearGradient xlink:href="#Dégradé_secondaire1" id="Dégradé_secondaire1-3" x1="5673.91" x2="5734.22" y1="-1288.28" y2="-1227.96" data-name="Dégradé secondaire1"/><linearGradient xlink:href="#Dégradé_secondaire1" id="Dégradé_secondaire1-4" x1="5799.54" x2="5837.43" y1="-1277.27" y2="-1239.38" data-name="Dégradé secondaire1"/><linearGradient xlink:href="#Dégradé_secondaire1" id="Dégradé_secondaire1-5" x1="5772.96" x2="5833.28" y1="-1288.28" y2="-1227.96" data-name="Dégradé secondaire1"/><linearGradient xlink:href="#Dégradé_sans_nom_11" id="Dégradé_sans_nom_11-6" x1="2748.58" x2="2771.52" y1="4743.46" y2="4766.4" data-name="Dégradé sans nom 11" gradientTransform="rotate(172.1 1910.496 2340.36)"/><linearGradient xlink:href="#Dégradé_sans_nom_11" id="Dégradé_sans_nom_11-7" x1="2800.78" x2="2814.41" y1="4594.14" y2="4607.77" data-name="Dégradé sans nom 11" gradientTransform="rotate(172.1 1910.496 2340.36)"/><linearGradient xlink:href="#Dégradé_sans_nom_11" id="Dégradé_sans_nom_11-8" x1="2905.66" x2="2918.06" y1="4737.37" y2="4749.77" data-name="Dégradé sans nom 11" gradientTransform="rotate(165.07 2044.068 2264.448)"/><linearGradient xlink:href="#Dégradé_sans_nom_11" id="Dégradé_sans_nom_11-9" x1="1544.27" x2="1558.27" y1="196.74" y2="210.75" data-name="Dégradé sans nom 11" gradientTransform="rotate(16.97 1284.342 -2901.499)"/><linearGradient xlink:href="#Dégradé_sans_nom_11" id="Dégradé_sans_nom_11-10" x1="1335.65" x2="1352.38" y1="157.96" y2="174.69" data-name="Dégradé sans nom 11" gradientTransform="rotate(98.17 954.213 -277.847)"/><linearGradient xlink:href="#Dégradé_sans_nom_11" id="Dégradé_sans_nom_11-11" x1="1486.97" x2="1519.25" y1="365.12" y2="397.4" data-name="Dégradé sans nom 11" gradientTransform="rotate(-8.61 423.54 6052.74)"/><linearGradient xlink:href="#Dégradé_sans_nom_11" id="Dégradé_sans_nom_11-12" x1="1655" x2="1671.01" y1="278.59" y2="294.6" data-name="Dégradé sans nom 11" gradientTransform="rotate(-16.34 721.022 3321.546)"/><linearGradient xlink:href="#Dégradé_sans_nom_11" id="Dégradé_sans_nom_11-13" x1="1597.64" x2="1607.89" y1="458.94" y2="469.19" data-name="Dégradé sans nom 11" gradientTransform="rotate(43.3 1402.715 -662.14)"/><linearGradient xlink:href="#Dégradé_sans_nom_11" id="Dégradé_sans_nom_11-14" x1="-2276.03" x2="-2260.47" y1="4699.49" y2="4715.05" data-name="Dégradé sans nom 11" gradientTransform="rotate(129.19 207.165 3141.738)"/><linearGradient xlink:href="#Dégradé_sans_nom_11" id="Dégradé_sans_nom_11-15" x1="-2458.57" x2="-2435.64" y1="4746.33" y2="4769.27" data-name="Dégradé sans nom 11" gradientTransform="rotate(121.47 394.422 3265.616)"/><linearGradient xlink:href="#Dégradé_sans_nom_11" id="Dégradé_sans_nom_11-16" x1="-2340.46" x2="-2326.51" y1="4936.46" y2="4950.41" data-name="Dégradé sans nom 11" gradientTransform="rotate(121.47 394.422 3265.616)"/><linearGradient xlink:href="#Dégradé_sans_nom_11" id="Dégradé_sans_nom_11-17" x1="-2446.57" x2="-2416.43" y1="4509.15" y2="4539.29" data-name="Dégradé sans nom 11" gradientTransform="rotate(37.71 5501.511 7064.056)"/><linearGradient xlink:href="#Dégradé_secondaire1" id="Dégradé_secondaire1-6" x1="5721.28" x2="5785.76" y1="-1290.37" y2="-1225.89" data-name="Dégradé secondaire1" gradientTransform="scale(-1 1) rotate(-23.38 6261.524 13758.481)"/><linearGradient xlink:href="#Dégradé_secondaire1" id="Dégradé_secondaire1-7" x1="5669.23" x2="5707.13" y1="-1277.32" y2="-1239.43" data-name="Dégradé secondaire1" gradientTransform="scale(-1 1) rotate(-23.38 6261.524 13758.481)"/><linearGradient xlink:href="#Dégradé_secondaire1" id="Dégradé_secondaire1-8" x1="5673.79" x2="5734.11" y1="-1288.33" y2="-1228.01" data-name="Dégradé secondaire1" gradientTransform="scale(-1 1) rotate(-23.38 6261.524 13758.481)"/><linearGradient xlink:href="#Dégradé_secondaire1" id="Dégradé_secondaire1-9" x1="5799.43" x2="5837.32" y1="-1277.32" y2="-1239.43" data-name="Dégradé secondaire1" gradientTransform="scale(-1 1) rotate(-23.38 6261.524 13758.481)"/><linearGradient xlink:href="#Dégradé_secondaire1" id="Dégradé_secondaire1-10" x1="5772.85" x2="5833.17" y1="-1288.33" y2="-1228.01" data-name="Dégradé secondaire1" gradientTransform="scale(-1 1) rotate(-23.38 6261.524 13758.481)"/><linearGradient xlink:href="#Dégradé_sans_nom_11" id="Dégradé_sans_nom_11-18" x1="2748.7" x2="2771.64" y1="4743.48" y2="4766.41" data-name="Dégradé sans nom 11" gradientTransform="scale(1 -1) rotate(-7.9 -33478.582 21656.154)"/><linearGradient xlink:href="#Dégradé_sans_nom_11" id="Dégradé_sans_nom_11-19" x1="2800.9" x2="2814.53" y1="4594.16" y2="4607.79" data-name="Dégradé sans nom 11" gradientTransform="scale(1 -1) rotate(-7.9 -33478.582 21656.154)"/><linearGradient xlink:href="#Dégradé_sans_nom_11" id="Dégradé_sans_nom_11-20" x1="2919.37" x2="2931.77" y1="4741.02" y2="4753.42" data-name="Dégradé sans nom 11" gradientTransform="scale(1 -1) rotate(-14.93 -16866.615 12431.574)"/><linearGradient xlink:href="#Dégradé_sans_nom_11" id="Dégradé_sans_nom_11-21" x1="1544.15" x2="1558.15" y1="196.78" y2="210.78" data-name="Dégradé sans nom 11" gradientTransform="scale(-1 1) rotate(16.97 869.197 -5684.282)"/><linearGradient xlink:href="#Dégradé_sans_nom_11" id="Dégradé_sans_nom_11-22" x1="1486.85" x2="1519.13" y1="365.1" y2="397.39" data-name="Dégradé sans nom 11" gradientTransform="scale(-1 1) rotate(-8.61 8.395 11567.556)"/><linearGradient xlink:href="#Dégradé_sans_nom_11" id="Dégradé_sans_nom_11-23" x1="1654.88" x2="1670.89" y1="278.56" y2="294.57" data-name="Dégradé sans nom 11" gradientTransform="scale(-1 1) rotate(-16.34 305.877 6213.176)"/><linearGradient xlink:href="#Dégradé_sans_nom_11" id="Dégradé_sans_nom_11-24" x1="1615.69" x2="1625.94" y1="441.93" y2="452.18" data-name="Dégradé sans nom 11" gradientTransform="scale(-1 1) rotate(43.3 987.57 -1708.008)"/><linearGradient xlink:href="#Dégradé_sans_nom_11" id="Dégradé_sans_nom_11-25" x1="-2279.5" x2="-2263.94" y1="4695.24" y2="4710.8" data-name="Dégradé sans nom 11" gradientTransform="scale(1 -1) rotate(-50.81 -6199.85 -437.907)"/><linearGradient xlink:href="#Dégradé_sans_nom_11" id="Dégradé_sans_nom_11-26" x1="-2458.51" x2="-2435.57" y1="4746.43" y2="4769.37" data-name="Dégradé sans nom 11" gradientTransform="scale(1 -1) rotate(-58.53 -5412.453 -36.98)"/><linearGradient xlink:href="#Dégradé_sans_nom_11" id="Dégradé_sans_nom_11-27" x1="-2446.67" x2="-2416.52" y1="4509.22" y2="4539.37" data-name="Dégradé sans nom 11" gradientTransform="scale(-1 1) rotate(37.71 5086.366 5848.402)"/><radialGradient id="Dégradé_sans_nom_17" cx="421" cy="545.37" r="128.74" data-name="Dégradé sans nom 17" fx="421" fy="545.37" gradientTransform="matrix(1 .00035 -.00004 .11 .02 483.22)" gradientUnits="userSpaceOnUse"><stop offset=".4" stop-color="#353544" stop-opacity=".5"/><stop offset="1" stop-color="#353544" stop-opacity="0"/></radialGradient><style>.cls-2,.cls-3{fill:#fff}.cls-7{fill:#353544}.cls-3{opacity:.5}</style></defs><ellipse cx="421" cy="545.37" rx="130.8" ry="15.89" style="fill:url(#Dégradé_sans_nom_17)"/><path d="M332.72 89.25v57.27c-6.26 13.95-9.77 29.73-9.77 46.38V89.17c-4.56-4.53-7.75-15.19-7.75-27.68 0-16.58 5.67-22.42 12.71-22.42s12.71 5.84 12.71 22.42c0 12.49-3.26 23.23-7.89 27.76Z" style="fill:url(#Dégradé_sans_nom_11)"/><path d="M387.33 243.5c23 0 41.58-22.41 41.58-50.07s-18.59-50.15-41.58-50.15-41.58 22.41-41.58 50.15 18.65 50.07 41.58 50.07Zm123.85-98.32c7.29 14.51 11.4 30.92 11.4 48.25 0 59.26-48.09 107.36-107.43 107.36S307.72 252.7 307.72 193.43c0-17.32 4.1-33.73 11.4-48.25 17.7-35.1 54.02-59.19 96.04-59.19s78.33 24.09 96.04 59.19Z" style="fill:url(#Dégradé_sans_nom_11-2)"/><path d="M498.11 339.7s-1.14 22.23-50.73 20.44c-49.6-1.79-93.09-18.22-91.53-28.02 1.17-7.39 42.78-8.89 86.44-10.79 44.86-1.95 56.58 6.32 55.82 18.37Z" style="fill:url(#Dégradé_sans_nom_26)"/><path d="M321.18 325.46c-47.88-4.58-86.36 3.91-86.64 12.43-.17 5.23 26.49 17.32 70.44 21.15 12.32 1.07 22.75 1.61 31.39 1.59l-15.19-35.17Z" style="fill:url(#Dégradé_sans_nom_46)"/><path d="M443.62 168.89c3.44 5.58 5.56 13.79 5.56 24.5 0 11.58-2.48 20.23-6.42 25.8h-26.34c-.64-.9-1.24-1.88-1.8-2.95-2.88-5.5-4.62-13.15-4.62-22.85 0-7.34 1.63-13.85 3.72-19l29.9-5.5Z" class="cls-7"/><ellipse cx="427.45" cy="190.33" class="cls-3" rx="4.55" ry="3.13"/><ellipse cx="434.41" cy="180.71" class="cls-3" rx="6.96" ry="6.11"/><path d="M360.48 174.56c1.76 4.84 2.8 11.15 2.8 18.89 0 10.65-1.96 18.61-5.09 23.74h-20.86c-.51-.83-.98-1.73-1.42-2.71-2.28-5.06-3.66-12.1-3.66-21.02 0-9.45 2.53-17.43 5.06-22.54l23.18 3.65Z" class="cls-7"/><ellipse cx="346.06" cy="190.62" class="cls-3" rx="3.61" ry="2.88"/><ellipse cx="351.57" cy="181.78" class="cls-3" rx="5.51" ry="5.62"/><ellipse cx="378.12" cy="263.57" rx="7.75" ry="11.97" style="fill:#5b5a72"/><path d="M402.57 152.47s1.82 14.9 13.82 9.72c13.13-5.67 30.89-13.09 30.89-13.09s-37.62 11.54-44.71 3.37ZM370.37 153.29s-2.46 12.83-11.17 8.72c-9.53-4.49-22.44-10.37-22.44-10.37s27.65 8.85 33.61 1.64Z" class="cls-7"/><path d="M509.39 141.79h-188.5c-6.78 0 2.05-12.32 7-18.15 4.95-5.84 10.21-5.1 10.21-5.1h154.07s8.62-.41 12.86 6.98c6.41 11.18 9.27 16.27 4.35 16.27Z" style="fill:#c83232"/><rect width="164.81" height="3.05" x="332.75" y="129.08" rx="1.48" ry="1.48" style="opacity:.3;fill:#fff"/><path d="M507.39 86.45v106.98c0-17.32-4.1-33.73-11.4-48.25V86.52c-5.39-4.71-9.19-15.88-9.19-28.87 0-17.25 6.69-23.63 14.82-23.63s14.82 6.38 14.82 23.63c0 12.99-3.72 24.09-9.04 28.8Z" style="fill:url(#Dégradé_sans_nom_11-3)"/><path d="M466.02 154.51s-4.09 20.2 2.06 20.09c6.14-.11-2.06-20.09-2.06-20.09ZM490.98 172.23s.84 20.59 6.78 19.02c5.94-1.57-6.78-19.02-6.78-19.02ZM326.92 150.45s-10.45 17.76-4.6 19.66c5.84 1.9 4.6-19.66 4.6-19.66ZM488.18 144.45s-.13 15.28 4.33 14.34c4.46-.94-4.33-14.34-4.33-14.34ZM311.96 188.16s-4.84 14.5-.31 14.98c4.53.48.31-14.98.31-14.98ZM481.02 199.12s-8.18 28.88.75 29.41c8.93.53-.75-29.41-.75-29.41Z" class="cls-3"/><path d="M452.93 364.04c-1.84 0-3.75-.04-5.69-.11-18.95-.68-37-3.43-52.17-7.19l-3.09 37.65c-.46 5.39-5.3 5.39-5.68 0l-2.8-40.89c-14.45-4.55-24.98-9.97-29.12-15-1.89-2.3-2.66-4.64-2.29-6.98.89-5.64 8.42-8.37 28.77-10.45.14-.01.28-.03.42-.04v-.11l-53.71-25.53c-6.73-2.43-12.57 6.08-9.37 13.6l77.14 178.63c4.4 10.26 17.97 10.26 23.29 0l67.55-129.43c-7.24 3.37-17.82 5.85-33.26 5.85Z" style="fill:url(#Dégradé_sans_nom_11-4)"/><path d="m500.62 295.4-96.11 23.91c10.09-.57 21.09-1.05 32.43-1.54l5.19-.22c4.4-.19 8.6-.29 12.48-.29v3.8-3.8c22.82 0 36.49 3.23 43.01 10.17 1.09 1.17 1.97 2.44 2.65 3.8l11.6-22.23c3.95-7.52-3.12-16.03-11.24-13.6Z" style="fill:url(#Dégradé_sans_nom_11-5)"/><path d="M633.66 201c-.12 0-.23-.02-.34-.06a.942.942 0 0 1-.51-.49l-7.27-16.82c-.2-.47.01-1.01.48-1.22l71.73-31.01a.946.946 0 0 1 .71-.02c.23.09.41.27.51.49l7.27 16.82c.2.47-.01 1.01-.48 1.22l-71.73 31.01c-.12.05-.24.08-.37.08Z" style="fill:url(#Dégradé_secondaire1)"/><path d="m698.12 152.24 7.27 16.82-71.74 31.01-7.27-16.82 71.74-31.01m0-1.85c-.25 0-.5.05-.73.15l-71.74 31.01c-.94.41-1.37 1.5-.97 2.43l7.27 16.82c.19.45.56.81 1.02.99a1.835 1.835 0 0 0 1.41-.02l71.74-31.01c.94-.41 1.37-1.5.97-2.43l-7.27-16.82c-.19-.45-.56-.81-1.02-.99-.22-.09-.45-.13-.68-.13Z" class="cls-2"/><path d="M610.38 225.42c-2.1 0-3.99-1.25-4.83-3.17l-14.57-33.71a5.191 5.191 0 0 1-.06-4.02 5.223 5.223 0 0 1 2.8-2.89l7.75-3.35a.923.923 0 0 1 1.22.48l18.01 41.66c.2.47-.01 1.01-.48 1.22l-7.75 3.35c-.66.29-1.37.43-2.08.43Z" style="fill:url(#Dégradé_secondaire1-2)"/><path d="m601.83 179.13 18.01 41.66-7.75 3.35c-.56.24-1.14.36-1.72.36a4.34 4.34 0 0 1-3.98-2.61l-14.57-33.71c-.95-2.2.06-4.74 2.26-5.69l7.75-3.35m0-1.85c-.25 0-.49.05-.73.15l-7.75 3.35a6.1 6.1 0 0 0-3.29 3.4c-.61 1.54-.58 3.22.07 4.73l14.57 33.71a6.178 6.178 0 0 0 8.13 3.22l7.75-3.35c.94-.41 1.37-1.5.97-2.43l-18.01-41.66c-.3-.7-.98-1.12-1.7-1.12Z" class="cls-2"/><path d="M627.83 233.6c-2.1 0-3.99-1.25-4.83-3.17l-26.03-60.22a5.191 5.191 0 0 1-.06-4.02 5.223 5.223 0 0 1 2.8-2.89l11.23-4.86a5.26 5.26 0 0 1 6.91 2.74l26.03 60.21a5.263 5.263 0 0 1-2.74 6.91l-11.23 4.86c-.66.29-1.37.43-2.08.43Z" style="fill:url(#Dégradé_secondaire1-3)"/><path d="M613.03 158.94c1.68 0 3.27.98 3.98 2.61l26.03 60.22c.95 2.2-.06 4.74-2.26 5.69l-11.24 4.86c-.56.24-1.14.36-1.72.36a4.34 4.34 0 0 1-3.98-2.61l-26.03-60.22c-.95-2.2.06-4.74 2.26-5.69l11.24-4.86a4.35 4.35 0 0 1 1.72-.36m0-1.85c-.85 0-1.67.17-2.45.51l-11.23 4.86a6.1 6.1 0 0 0-3.29 3.4c-.61 1.54-.58 3.22.07 4.73l26.03 60.22a6.178 6.178 0 0 0 8.13 3.22l11.23-4.86c3.13-1.35 4.57-5 3.22-8.13l-26.03-60.22a6.178 6.178 0 0 0-5.68-3.73Z" class="cls-2"/><path d="M729.95 174.11c-.12 0-.23-.02-.34-.06a.942.942 0 0 1-.51-.49l-18.01-41.66a.92.92 0 0 1-.01-.71c.09-.23.27-.41.49-.51l7.75-3.35a5.26 5.26 0 0 1 6.91 2.74l14.57 33.71a5.263 5.263 0 0 1-2.74 6.91l-7.75 3.35c-.12.05-.24.08-.37.08Z" style="fill:url(#Dégradé_secondaire1-4)"/><path d="M721.4 127.82c1.68 0 3.27.98 3.98 2.61l14.57 33.71c.95 2.2-.06 4.74-2.26 5.69l-7.75 3.35-18.01-41.66 7.75-3.35a4.35 4.35 0 0 1 1.72-.36m0-1.85c-.85 0-1.67.17-2.45.51l-7.75 3.35c-.45.19-.81.56-.99 1.02-.18.46-.17.97.02 1.42l18.01 41.66c.19.45.56.81 1.02.99a1.835 1.835 0 0 0 1.41-.02l7.75-3.35c3.13-1.35 4.57-5 3.22-8.13l-14.57-33.71a6.178 6.178 0 0 0-5.68-3.73Z" class="cls-2"/><path d="M718.75 194.3c-2.1 0-3.99-1.25-4.83-3.17l-26.03-60.21a5.191 5.191 0 0 1-.06-4.02 5.223 5.223 0 0 1 2.8-2.89l11.23-4.86a5.26 5.26 0 0 1 6.91 2.74l26.03 60.21c.56 1.29.58 2.72.06 4.02a5.223 5.223 0 0 1-2.8 2.89l-11.24 4.86c-.66.29-1.37.43-2.08.43Z" style="fill:url(#Dégradé_secondaire1-5)"/><path d="M703.95 119.63c1.68 0 3.27.98 3.98 2.61l26.03 60.22c.95 2.2-.06 4.74-2.26 5.69l-11.23 4.86c-.56.24-1.14.36-1.72.36a4.34 4.34 0 0 1-3.98-2.61l-26.03-60.22c-.95-2.2.06-4.74 2.26-5.69l11.23-4.86a4.35 4.35 0 0 1 1.72-.36m0-1.85c-.85 0-1.67.17-2.45.51l-11.23 4.86a6.1 6.1 0 0 0-3.29 3.4c-.61 1.54-.58 3.22.07 4.73l26.03 60.22a6.178 6.178 0 0 0 8.13 3.22l11.23-4.86c3.13-1.35 4.57-5 3.22-8.13l-26.03-60.22a6.178 6.178 0 0 0-5.68-3.73Z" class="cls-2"/><path d="m723.13 58.91 26.01-3.61a3.537 3.537 0 0 1 3.77 4.83l-9.88 24.33c-.48 1.17-1.54 2-2.79 2.17-1.25.17-2.5-.33-3.28-1.33l-16.13-20.72c-.78-1-.96-2.33-.49-3.5.48-1.17 1.54-2 2.79-2.17Zm20.91 4.24-13.87 1.92 8.6 11.05 5.27-12.98Z" style="fill:url(#Dégradé_sans_nom_11-6)"/><path d="m702.93 220.58 15.46-2.14c.74-.1 1.49.2 1.95.79.46.59.57 1.39.29 2.08l-5.87 14.46c-.28.7-.91 1.19-1.66 1.29-.74.1-1.49-.2-1.95-.79l-9.59-12.31c-.46-.59-.57-1.39-.29-2.08.28-.7.91-1.19 1.66-1.29Zm12.43 2.52-8.25 1.14 5.11 6.57 3.13-7.71Z" style="fill:url(#Dégradé_sans_nom_11-7)"/><path d="m559.07 89.81 13.72-3.66a1.9 1.9 0 0 1 1.85.5c.48.48.67 1.19.49 1.85l-3.69 13.71c-.18.66-.69 1.17-1.35 1.35a1.9 1.9 0 0 1-1.85-.5l-10.03-10.05a1.917 1.917 0 0 1 .86-3.2Zm11.51.89-7.32 1.95 5.35 5.36 1.97-7.32Z" style="fill:url(#Dégradé_sans_nom_11-8)"/><path d="M635.94 138.88a8.426 8.426 0 0 1 5.6 10.51c-1.36 4.45-6.07 6.95-10.51 5.6s-6.95-6.07-5.59-10.51a8.412 8.412 0 0 1 10.51-5.59Zm1.25 9.18c.62-2.05-.53-4.21-2.57-4.84s-4.21.53-4.84 2.57c-.62 2.05.53 4.21 2.57 4.84s4.21-.53 4.84-2.57Z" style="fill:url(#Dégradé_sans_nom_11-9)"/><path d="M468.7 46.63c-.79 5.5-5.89 9.32-11.38 8.53s-9.32-5.89-8.53-11.39c.79-5.5 5.89-9.31 11.39-8.52s9.31 5.89 8.52 11.38Zm-10.61 3.15c2.53.36 4.88-1.4 5.24-3.92.36-2.53-1.4-4.88-3.92-5.24-2.53-.36-4.88 1.4-5.24 3.92-.36 2.53 1.4 4.88 3.92 5.24Z" style="fill:url(#Dégradé_sans_nom_11-10)"/><path d="M639.81 264.88c10.6-1.61 20.5 5.68 22.11 16.28 1.61 10.6-5.7 20.5-16.29 22.11-10.6 1.61-20.49-5.7-22.1-16.29-1.61-10.6 5.68-20.49 16.28-22.09Zm11.74 17.85c-.74-4.88-5.3-8.23-10.17-7.5s-8.23 5.3-7.5 10.17 5.3 8.23 10.17 7.5 8.23-5.3 7.5-10.17Z" style="fill:url(#Dégradé_sans_nom_11-11)"/><path d="M768.85 135.22c5.1-1.5 10.45 1.43 11.95 6.53 1.5 5.1-1.43 10.46-6.53 11.95-5.1 1.5-10.45-1.43-11.94-6.53-1.5-5.1 1.43-10.45 6.53-11.94Zm6.96 7.99c-.69-2.35-3.15-3.69-5.5-3.01s-3.69 3.15-3.01 5.5 3.15 3.69 5.5 3.01 3.69-3.15 3.01-5.5Z" style="fill:url(#Dégradé_sans_nom_11-12)"/><path d="M780.22 290.49c2.48 2.33 2.6 6.24.26 8.71-2.33 2.48-6.24 2.59-8.72.26s-2.59-6.24-.26-8.71c2.33-2.48 6.23-2.59 8.71-.26Zm-2.16 6.43c1.07-1.14 1.02-2.94-.12-4.01s-2.94-1.02-4.01.12-1.02 2.94.12 4.01 2.94 1.02 4.01-.12Z" style="fill:url(#Dégradé_sans_nom_11-13)"/><path d="m547.7 233.44 8.04-9.86c.7-.86 1.96-.99 2.82-.29l9.86 8.04c.86.7.99 1.96.29 2.82l-8.04 9.86c-.7.86-1.96.99-2.82.29l-9.86-8.04c-.86-.7-.99-1.96-.29-2.82Zm9.88-5.77-5.51 6.75 6.75 5.51 5.51-6.75-6.75-5.51Z" style="fill:url(#Dégradé_sans_nom_11-14)"/><path d="m589.56 64.71 9.79-16a2.956 2.956 0 0 1 4.06-.98l16 9.79c1.39.85 1.83 2.67.98 4.06l-9.79 16a2.956 2.956 0 0 1-4.06.98l-16-9.79a2.956 2.956 0 0 1-.98-4.06Zm13.29-10.39-6.71 10.96 10.96 6.71 6.71-10.96-10.96-6.71Z" style="fill:url(#Dégradé_sans_nom_11-15)"/><path d="m377.95 64.1 5.96-9.73c.52-.85 1.63-1.11 2.47-.6l9.73 5.96c.85.52 1.11 1.63.6 2.47l-5.96 9.73c-.52.85-1.63 1.11-2.47.6l-9.73-5.96a1.803 1.803 0 0 1-.6-2.47Zm8.09-6.32-4.08 6.67 6.67 4.08 4.08-6.67-6.67-4.08Z" style="fill:url(#Dégradé_sans_nom_11-16)"/><path d="m778.98 222.85-19.5-15.08a3.885 3.885 0 0 1-.7-5.45l15.08-19.5a3.885 3.885 0 0 1 5.45-.7l19.5 15.08c1.7 1.31 2.01 3.75.7 5.45l-15.08 19.5a3.885 3.885 0 0 1-5.45.7ZM767.3 204l13.36 10.33 10.33-13.36-13.36-10.33L767.3 204Z" style="fill:url(#Dégradé_sans_nom_11-17)"/><path d="M196.75 201c-.12 0-.25-.02-.37-.08l-71.74-31.01c-.23-.1-.4-.28-.49-.51a.92.92 0 0 1 .01-.71l7.27-16.82a.923.923 0 0 1 1.22-.48l71.74 31.01c.23.1.4.28.49.51.09.23.09.48-.01.71l-7.27 16.82c-.15.35-.49.56-.85.56Z" style="fill:url(#Dégradé_secondaire1-6)"/><path d="m132.29 152.24 71.74 31.01-7.27 16.82-71.74-31.01 7.27-16.82m0-1.85c-.23 0-.46.04-.68.13-.46.18-.82.54-1.02.99l-7.27 16.82c-.41.94.03 2.03.97 2.43l71.74 31.01a1.835 1.835 0 0 0 1.41.02c.46-.18.82-.54 1.02-.99l7.27-16.82c.41-.94-.03-2.03-.97-2.43l-71.74-31.01c-.23-.1-.48-.15-.73-.15Z" class="cls-2"/><path d="M220.03 225.42c-.72 0-1.42-.15-2.08-.43l-7.75-3.35c-.23-.1-.4-.28-.49-.51a.92.92 0 0 1 .01-.71l18.01-41.66a.923.923 0 0 1 1.22-.48l7.75 3.35c1.29.56 2.28 1.58 2.8 2.89s.5 2.73-.06 4.02l-14.57 33.71a5.249 5.249 0 0 1-4.83 3.17Z" style="fill:url(#Dégradé_secondaire1-7)"/><path d="m228.58 179.13 7.75 3.35c2.2.95 3.21 3.5 2.26 5.69l-14.57 33.71a4.323 4.323 0 0 1-3.98 2.61c-.57 0-1.16-.11-1.72-.36l-7.75-3.35 18.01-41.66m0-1.85c-.72 0-1.4.42-1.7 1.12l-18.01 41.66c-.41.94.03 2.03.97 2.43l7.75 3.35a6.178 6.178 0 0 0 8.13-3.22l14.57-33.71c.66-1.52.68-3.2.07-4.73a6.164 6.164 0 0 0-3.29-3.4l-7.75-3.35c-.24-.1-.49-.15-.73-.15Z" class="cls-2"/><path d="M202.58 233.6c-.72 0-1.42-.15-2.08-.43l-11.23-4.86a5.263 5.263 0 0 1-2.74-6.91l26.03-60.22a5.249 5.249 0 0 1 4.83-3.17c.72 0 1.42.15 2.08.43l11.24 4.86c1.29.56 2.28 1.58 2.8 2.89s.5 2.73-.06 4.02l-26.03 60.22a5.249 5.249 0 0 1-4.83 3.17Z" style="fill:url(#Dégradé_secondaire1-8)"/><path d="M217.38 158.94c.57 0 1.16.11 1.72.36l11.24 4.86c2.2.95 3.21 3.5 2.26 5.69l-26.03 60.22a4.323 4.323 0 0 1-3.98 2.61c-.57 0-1.16-.11-1.72-.36l-11.24-4.86c-2.2-.95-3.21-3.5-2.26-5.69l26.03-60.22c.71-1.64 2.3-2.61 3.98-2.61m0-1.85c-2.47 0-4.7 1.46-5.68 3.73l-26.03 60.22c-1.35 3.13.09 6.78 3.22 8.13l11.24 4.86a6.178 6.178 0 0 0 8.13-3.22l26.03-60.22c.66-1.52.68-3.2.07-4.73a6.164 6.164 0 0 0-3.29-3.4l-11.24-4.86c-.78-.34-1.61-.51-2.45-.51Z" class="cls-2"/><path d="M100.46 174.11c-.12 0-.25-.02-.37-.08l-7.75-3.35a5.263 5.263 0 0 1-2.74-6.91l14.57-33.71a5.249 5.249 0 0 1 4.83-3.17c.72 0 1.42.15 2.08.43l7.75 3.35c.47.2.69.75.48 1.22l-18.01 41.66c-.15.35-.49.56-.85.56Z" style="fill:url(#Dégradé_secondaire1-9)"/><path d="M109.01 127.82c.57 0 1.16.11 1.72.36l7.75 3.35-18.01 41.66-7.75-3.35c-2.2-.95-3.21-3.5-2.26-5.69l14.57-33.71c.71-1.64 2.3-2.61 3.98-2.61m0-1.85c-2.47 0-4.7 1.46-5.68 3.73l-14.57 33.71c-.66 1.52-.68 3.2-.07 4.73a6.164 6.164 0 0 0 3.29 3.4l7.75 3.35a1.835 1.835 0 0 0 1.41.02c.46-.18.82-.54 1.02-.99l18.01-41.66c.19-.45.2-.96.02-1.42-.18-.46-.54-.82-.99-1.02l-7.75-3.35c-.78-.34-1.61-.51-2.45-.51Z" class="cls-2"/><path d="M111.66 194.3c-.72 0-1.42-.15-2.08-.43l-11.23-4.86a5.263 5.263 0 0 1-2.74-6.91l26.03-60.22a5.249 5.249 0 0 1 4.83-3.17c.72 0 1.42.15 2.08.43l11.24 4.86a5.263 5.263 0 0 1 2.74 6.91l-26.03 60.22a5.249 5.249 0 0 1-4.83 3.17Z" style="fill:url(#Dégradé_secondaire1-10)"/><path d="M126.46 119.63c.57 0 1.16.11 1.72.36l11.23 4.86c2.2.95 3.21 3.5 2.26 5.69l-26.03 60.22a4.323 4.323 0 0 1-3.98 2.61c-.57 0-1.16-.11-1.72-.36l-11.23-4.86c-2.2-.95-3.21-3.5-2.26-5.69l26.03-60.22c.71-1.64 2.3-2.61 3.98-2.61m0-1.85c-2.47 0-4.7 1.46-5.68 3.73l-26.03 60.22c-1.35 3.13.09 6.78 3.22 8.13l11.24 4.86a6.178 6.178 0 0 0 8.13-3.22l26.03-60.22c1.35-3.13-.09-6.78-3.22-8.13l-11.24-4.86c-.78-.34-1.61-.51-2.45-.51Z" class="cls-2"/><path d="M110.07 61.08a3.51 3.51 0 0 1-.49 3.5L93.45 85.3a3.54 3.54 0 0 1-6.07-.84L77.5 60.13a3.51 3.51 0 0 1 .49-3.5c.78-1 2.02-1.5 3.28-1.33l26.01 3.61c1.25.17 2.31 1 2.79 2.17ZM91.64 76.12l8.6-11.05-13.87-1.92 5.27 12.98Z" style="fill:url(#Dégradé_sans_nom_11-18)"/><path d="M129.14 221.87c.28.7.17 1.49-.29 2.08l-9.59 12.31c-.46.59-1.2.89-1.95.79s-1.38-.6-1.66-1.29l-5.87-14.46c-.28-.7-.17-1.49.29-2.08.46-.59 1.2-.89 1.95-.79l15.46 2.14c.74.1 1.38.6 1.66 1.29Zm-10.96 8.94 5.11-6.57-8.25-1.14 3.13 7.71Z" style="fill:url(#Dégradé_sans_nom_11-19)"/><path d="M286.76 91.16c.18.66-.01 1.36-.49 1.85l-10.03 10.05c-.48.48-1.19.67-1.85.5s-1.18-.69-1.35-1.35l-3.69-13.71c-.18-.66.01-1.36.49-1.85.48-.48 1.19-.67 1.85-.5l13.72 3.66a1.9 1.9 0 0 1 1.35 1.35Zm-10.89 6.86 5.35-5.36-7.32-1.95 1.97 7.32Z" style="fill:url(#Dégradé_sans_nom_11-20)"/><path d="M204.98 144.47c1.36 4.45-1.15 9.16-5.59 10.51s-9.16-1.15-10.51-5.6c-1.36-4.45 1.15-9.15 5.6-10.51s9.15 1.15 10.51 5.59Zm-6.92 6.16c2.05-.62 3.2-2.79 2.57-4.84s-2.79-3.2-4.84-2.57-3.2 2.79-2.57 4.84 2.79 3.2 4.84 2.57Z" style="fill:url(#Dégradé_sans_nom_11-21)"/><path d="M206.88 286.97c-1.61 10.6-11.5 17.9-22.1 16.29-10.6-1.61-17.9-11.51-16.29-22.11 1.61-10.6 11.51-17.88 22.11-16.28 10.6 1.61 17.89 11.5 16.28 22.09Zm-20.52 5.93c4.88.74 9.43-2.62 10.17-7.5s-2.62-9.43-7.5-10.17-9.43 2.62-10.17 7.5 2.62 9.43 7.5 10.17Z" style="fill:url(#Dégradé_sans_nom_11-22)"/><path d="M68.08 147.16c-1.5 5.1-6.84 8.03-11.94 6.53-5.1-1.5-8.03-6.85-6.53-11.95 1.5-5.1 6.85-8.02 11.95-6.53 5.1 1.5 8.02 6.84 6.53 11.94ZM57.6 148.7c2.35.69 4.81-.66 5.5-3.01s-.66-4.81-3.01-5.5-4.81.66-5.5 3.01.66 4.81 3.01 5.5Z" style="fill:url(#Dégradé_sans_nom_11-23)"/><path d="M33.97 290.75c2.33 2.48 2.22 6.38-.26 8.71s-6.38 2.22-8.72-.26a6.17 6.17 0 0 1 .26-8.71c2.48-2.33 6.38-2.22 8.71.26Zm-2.54 6.29a2.84 2.84 0 0 0 .12-4.01c-1.07-1.14-2.87-1.19-4.01-.12s-1.19 2.87-.12 4.01 2.87 1.19 4.01.12Z" style="fill:url(#Dégradé_sans_nom_11-24)"/><path d="m276.82 236.26-9.86 8.04c-.86.7-2.12.57-2.82-.29l-8.04-9.86c-.7-.86-.57-2.12.29-2.82l9.86-8.04c.86-.7 2.12-.57 2.82.29l8.04 9.86c.7.86.57 2.12-.29 2.82Zm-16.35-3.09 5.51 6.75 6.75-5.51-5.51-6.75-6.75 5.51Z" style="fill:url(#Dégradé_sans_nom_11-25)"/><path d="m239.87 68.77-16 9.79c-1.39.85-3.21.41-4.06-.98l-9.79-16c-.85-1.39-.41-3.21.98-4.06l16-9.79c1.39-.85 3.21-.41 4.06.98l9.79 16c.85 1.39.41 3.21-.98 4.06Zm-23.27-7.75 6.71 10.96 10.96-6.71-6.71-10.96-10.96 6.71Z" style="fill:url(#Dégradé_sans_nom_11-26)"/><path d="m45.99 222.16-15.08-19.5c-1.31-1.7-1-4.14.7-5.45l19.5-15.08c1.7-1.31 4.14-1 5.45.7l15.08 19.5c1.31 1.7 1 4.14-.7 5.45l-19.5 15.08c-1.7 1.31-4.14 1-5.45-.7Zm6.8-31.51-13.36 10.33 10.33 13.36 13.36-10.33-10.33-13.36Z" style="fill:url(#Dégradé_sans_nom_11-27)"/></svg>