<?xml version="1.0" encoding="utf-8"?>
<!-- Generator: Adobe Illustrator 28.1.0, SVG Export Plug-In . SVG Version: 6.00 Build 0)  -->
<svg version="1.1" id="Calque_1" xmlns="http://www.w3.org/2000/svg" xmlns:xlink="http://www.w3.org/1999/xlink" x="0px" y="0px"
	 viewBox="0 0 253 182" style="enable-background:new 0 0 253 182;" xml:space="preserve">
<style type="text/css">
	.st0{clip-path:url(#SVGID_00000083783155972445396330000009601411841334278066_);}
	.st1{fill:url(#SVGID_00000018954181816971046560000008892869183918422939_);}
	.st2{fill:#FFFFFF;}
	.st3{opacity:0.5;fill:#FFFFFF;enable-background:new    ;}
	.st4{opacity:0.4;}
	.st5{fill:none;stroke:#FFFFFF;stroke-width:1.63;stroke-linecap:round;stroke-linejoin:round;}
	.st6{fill:none;stroke:#FFFFFF;stroke-width:3;stroke-linecap:round;stroke-linejoin:round;}
</style>
<g>
	<defs>
		<rect id="SVGID_1_" x="50" width="154" height="182"/>
	</defs>
	<clipPath id="SVGID_00000134927997443344189710000017949328054804558748_">
		<use xlink:href="#SVGID_1_"  style="overflow:visible;"/>
	</clipPath>
	<g style="clip-path:url(#SVGID_00000134927997443344189710000017949328054804558748_);">
		
			<radialGradient id="SVGID_00000125585347209826536360000000526488984675312571_" cx="-494.2777" cy="17.5381" r="1" gradientTransform="matrix(43.16 1.506568e-02 -1.668535e-03 4.78 21482.7656 99.8917)" gradientUnits="userSpaceOnUse">
			<stop  offset="0.4" style="stop-color:#FFFFFF;stop-opacity:0.5"/>
			<stop  offset="1" style="stop-color:#FFFFFF;stop-opacity:0"/>
		</radialGradient>
		<path style="fill:url(#SVGID_00000125585347209826536360000000526488984675312571_);" d="M150.7,182c24.2,0,43.8-2.4,43.8-5.4
			s-19.6-5.4-43.8-5.4s-43.8,2.4-43.8,5.4S126.5,182,150.7,182z"/>
		<path class="st2" d="M114.5,28.9l3.5,19c-1.2,5-1.4,10.5-0.4,16l-6.4-34.4c-1.8-1.2-3.5-4.6-4.3-8.7c-1-5.5,0.5-7.8,2.8-8.2
			s4.6,1.1,5.6,6.6C116.2,23.3,115.7,27.1,114.5,28.9L114.5,28.9z"/>
		<path class="st2" d="M171.2,106.6c0,0,5.5-5.1,16.9,7.1s17.9,26.4,15.3,28.4c-2,1.5-12.3-8-23.2-17.9
			C169,114.1,168.2,109.3,171.2,106.6L171.2,106.6L171.2,106.6z"/>
		<path class="st2" d="M121.8,100.6c-0.6,0.1-1.3,0.2-2,0.3c-16.6,2.8-28.9,9.5-28.2,12.4c0.4,1.7,10.1,3.2,24.7,0.3
			c4-0.8,7.3-1.6,10.1-2.4L121.8,100.6L121.8,100.6L121.8,100.6z"/>
		<path class="st2" d="M171.9,17.1l6.6,35.5c-1.1-5.8-3.4-10.9-6.7-15.3l-3.6-19.5c-2.1-1.2-4-4.7-4.8-9c-1.1-5.7,0.8-8.2,3.4-8.8
			c2.7-0.5,5.3,1.2,6.3,6.9C173.9,11.3,173.3,15.2,171.9,17.1L171.9,17.1z"/>
		<path class="st3" d="M150.9,55.8c0.8-0.2,1.4-0.7,1.3-1.3c-0.1-0.6-0.9-0.9-1.7-0.8c-0.8,0.2-1.4,0.7-1.3,1.3
			C149.3,55.6,150.1,55.9,150.9,55.8z"/>
		<path class="st3" d="M152.8,53.2c1.3-0.2,2.1-1.3,1.9-2.5c-0.2-1.1-1.4-1.8-2.7-1.6s-2.1,1.3-1.9,2.5
			C150.3,52.7,151.5,53.4,152.8,53.2z"/>
		<path class="st3" d="M124.3,61c0.7-0.1,1.1-0.7,1-1.2c-0.1-0.5-0.7-0.8-1.4-0.7c-0.7,0.1-1.1,0.7-1,1.2S123.7,61.2,124.3,61z"/>
		<path class="st3" d="M125.9,58.6c1-0.3,1.5-1.3,1.2-2.3c-0.3-1-1.3-1.5-2.3-1.2c-1,0.3-1.5,1.3-1.2,2.3
			C123.9,58.4,124.9,58.9,125.9,58.6z"/>
		<path class="st2" d="M174.7,104.2c2.1,0,4.4,0.7,6.9,2.2l5-9.6c1.3-2.5-1-5.4-3.8-4.6l-34.4,8.6l-2,24.8c-0.1,1.8-1.8,1.8-1.9,0
			l-1.7-24.8l-18-8.6c-2.3-0.8-4.2,2.1-3.1,4.6l25.9,60.3c1.5,3.5,6,3.5,7.8,0l19.1-36.8c-4-4.3-5.9-7.7-5.9-10.5
			c0-1.6,0.6-3,1.9-4.2C170.5,105.5,171.9,104.2,174.7,104.2L174.7,104.2L174.7,104.2z"/>
		<g class="st4">
			<path class="st2" d="M125.9,150.9L77,151.4c-1.1,0-2.6-1.8-3.4-4l-14.4-39.6c-0.8-2.2-0.8-4.5,0-5.2l37.6-31.5
				c2.3-1.9,5.4-0.5,6.8,3.4l25.3,69.5C130.4,147.8,129,150.9,125.9,150.9L125.9,150.9L125.9,150.9z"/>
		</g>
		<path class="st2" d="M70.6,110.3c-1.3-3.7-3.7-5.8-5.2-4.7c-1.4,1-1.5,4.6-0.3,8c1.2,3.4,3.4,5.6,5,4.9
			C71.7,117.6,71.9,114,70.6,110.3L70.6,110.3L70.6,110.3z"/>
		<path class="st2" d="M95,123.6c-0.6-1.6-1.8-2.7-2.8-2.4c-0.9,0.3-1.2,1.8-0.6,3.4c0.6,1.6,1.8,2.6,2.7,2.4
			C95.3,126.8,95.6,125.2,95,123.6L95,123.6L95,123.6z"/>
		<path class="st2" d="M98.5,133.4c-0.6-1.6-1.9-2.8-2.8-2.5c-1,0.2-1.2,1.6-0.7,3.2c0.6,1.6,1.8,2.7,2.8,2.6
			C98.8,136.4,99.1,135,98.5,133.4L98.5,133.4L98.5,133.4z"/>
		<path class="st2" d="M102.1,143.1c-0.6-1.6-1.9-2.8-2.9-2.7c-1,0.1-1.3,1.5-0.8,3c0.6,1.6,1.8,2.8,2.8,2.7
			C102.3,146,102.7,144.7,102.1,143.1L102.1,143.1L102.1,143.1z"/>
		<path class="st5" d="M96.4,121.3l8.8-2.8"/>
		<path class="st5" d="M97.6,124.7l14-3.9"/>
		<path class="st5" d="M100,131.3l9.1-1.9"/>
		<path class="st5" d="M101.2,134.6l14.5-2.5"/>
		<path class="st5" d="M103.6,141.2l9.4-1"/>
		<path class="st5" d="M104.8,144.6l15-1.1"/>
		<path class="st5" d="M70.8,105.4l28.4-18.7"/>
		<path class="st5" d="M72.2,109.3l28.9-17.2"/>
		<path class="st5" d="M73.6,113.2l9.4-5"/>
		<path class="st5" d="M69.7,126.4l14.1-5.2"/>
		<path class="st5" d="M70.9,129.5l14.3-4.6"/>
		<path class="st5" d="M72,132.6l14.5-3.9"/>
		<path class="st5" d="M73.1,135.7l14.8-3.3"/>
		<path class="st5" d="M74.2,138.8l15-2.7"/>
		<path class="st5" d="M75.4,141.9l15.2-2.1"/>
		<path class="st5" d="M76.5,144.9l6.5-0.6"/>
		<path class="st6" d="M65.6,88.8L52,85"/>
		<path class="st6" d="M69.9,80.8L59,68"/>
		<path class="st6" d="M78.3,78l3.4-16.5"/>
		<path class="st2" d="M183.5,51.7c-1.1-5.8-3.4-10.9-6.7-15.3l0,0c-8-10.5-21.4-16.3-35.3-13.7s-24.3,12.9-28,25.6
			c-1.5,5.3-1.8,11-0.8,16.7c3.7,19.7,22.5,32.7,42,29S187.1,71.4,183.5,51.7L183.5,51.7z M146.9,34.3c3.6-0.1,9.6,7.4,9.6,7.4
			c-8.5-7.2-14-3.5-14-3.5S143.5,34.4,146.9,34.3z M122.3,40c2.3-0.9,4,2,4,2l0,0c0,0-4.6-1.5-8.2,7C118.1,48.9,119.9,40.9,122.3,40
			L122.3,40z M127.9,72.7c-0.2,0-0.4,0.1-0.7,0.1c-1.4,0-2.9-0.9-4-2.4c-1.3-1.7-2.4-4.1-3-6.8c-0.6-2.8-0.5-5.4,0.1-7.5
			c0.6-2,1.7-3.6,3.4-4c0.2,0,0.4-0.1,0.7-0.1c1.4,0,2.9,1,4,2.4c1.3,1.7,2.4,4.1,3,6.8s0.5,5.4-0.1,7.5
			C130.8,70.8,129.6,72.4,127.9,72.7z M143.3,85.8c-5,0.9-6.5-5-6.5-5l10.9-1.9C147.7,78.9,148.2,84.9,143.3,85.8L143.3,85.8z
			 M151.2,69.2c-1.9,3.9-5.1,6.7-9.2,7.5c-4.3,0.8-8.5-0.8-11.7-4.1c0,0,0,0,0,0c0.9-0.8,1.6-2,2.1-3.6c0.7-2.3,0.7-5.1,0.1-7.9
			c-0.6-2.8-1.7-5.4-3.2-7.3c-0.9-1.2-2-2-3.1-2.4c0.1,0,0.2,0,0.2,0c1.8-4.2,5.2-7.2,9.5-8c4.1-0.8,8.1,0.7,11.2,3.6c0,0,0,0,0,0
			c-0.6,0.8-1.2,1.7-1.6,2.9c-0.9,2.5-1.1,5.7-0.6,8.9c0.6,3.2,1.9,6.1,3.6,8.2C149.3,68,150.2,68.7,151.2,69.2L151.2,69.2
			L151.2,69.2z M159.2,64.5c-0.8,2.3-2.3,4-4.4,4.4c-0.3,0.1-0.5,0.1-0.8,0.1c-1.8,0-3.4-1-4.8-2.6c-1.6-1.9-2.8-4.6-3.4-7.7
			s-0.3-6.1,0.5-8.4c0.8-2.3,2.3-4,4.4-4.4c0.3,0,0.5-0.1,0.8-0.1c1.8,0,3.4,1,4.8,2.6c1.6,1.9,2.8,4.6,3.4,7.7
			C160.3,59.2,160.1,62.2,159.2,64.5L159.2,64.5z"/>
	</g>
</g>
</svg>
