<svg xmlns="http://www.w3.org/2000/svg" xmlns:xlink="http://www.w3.org/1999/xlink" id="Calque_1" data-name="Calque 1" viewBox="0 0 841.89 595.28"><defs><linearGradient id="Dégradé_sans_nom_11" x1="547.4" x2="707.82" y1="84.15" y2="244.57" data-name="Dégradé sans nom 11" gradientUnits="userSpaceOnUse"><stop offset=".1" stop-color="#5b5a72"/><stop offset=".5" stop-color="#b0b0bf"/><stop offset=".96" stop-color="#f4f4f6"/></linearGradient><linearGradient id="Dégradé_sans_nom_10" x1="701.93" x2="701.93" y1="285.9" y2="411.27" data-name="Dégradé sans nom 10" gradientUnits="userSpaceOnUse"><stop offset="0" stop-color="#b0b0bf"/><stop offset="1" stop-color="#f4f4f6"/></linearGradient><linearGradient xlink:href="#Dégradé_sans_nom_11" id="Dégradé_sans_nom_11-2" x1="566.93" x2="684.04" y1="268.77" y2="385.88" data-name="Dégradé sans nom 11"/><linearGradient id="Dégradé_secondaire1" x1="122.59" x2="199.03" y1="315.84" y2="392.29" data-name="Dégradé secondaire1" gradientUnits="userSpaceOnUse"><stop offset="0" stop-color="#5b5a72"/><stop offset="1" stop-color="#b0b0bf"/></linearGradient><linearGradient xlink:href="#Dégradé_sans_nom_11" id="Dégradé_sans_nom_11-3" x1="145.38" x2="324.15" y1="60.11" y2="238.88" data-name="Dégradé sans nom 11"/><linearGradient xlink:href="#Dégradé_sans_nom_10" id="Dégradé_sans_nom_10-2" x1="545.89" x2="458.74" y1="343.83" y2="430.98" data-name="Dégradé sans nom 10"/><linearGradient xlink:href="#Dégradé_secondaire1" id="Dégradé_secondaire1-2" x1="549.14" x2="549.14" y1="285.05" y2="403.05" data-name="Dégradé secondaire1"/><linearGradient xlink:href="#Dégradé_sans_nom_11" id="Dégradé_sans_nom_11-4" x1="358.94" x2="498.44" y1="276.01" y2="415.5" data-name="Dégradé sans nom 11"/><linearGradient xlink:href="#Dégradé_sans_nom_11" id="Dégradé_sans_nom_11-5" x1="336.33" x2="530.07" y1="72.45" y2="266.19" data-name="Dégradé sans nom 11"/><linearGradient xlink:href="#Dégradé_secondaire1" id="Dégradé_secondaire1-3" x1="344.74" x2="267.71" y1="346.11" y2="269.08" data-name="Dégradé secondaire1"/><linearGradient xlink:href="#Dégradé_sans_nom_11" id="Dégradé_sans_nom_11-6" x1="155.8" x2="296.31" y1="260.04" y2="400.54" data-name="Dégradé sans nom 11"/><linearGradient xlink:href="#Dégradé_sans_nom_11" id="Dégradé_sans_nom_11-7" x1="225.1" x2="365.61" y1="190.74" y2="331.24" data-name="Dégradé sans nom 11"/><linearGradient xlink:href="#Dégradé_sans_nom_10" id="Dégradé_sans_nom_10-3" x1="299.35" x2="299.35" y1="337.99" y2="403.68" data-name="Dégradé sans nom 10"/><linearGradient xlink:href="#Dégradé_sans_nom_10" id="Dégradé_sans_nom_10-4" x1="329.94" x2="329.94" y1="298.91" y2="319.19" data-name="Dégradé sans nom 10"/><radialGradient id="Dégradé_sans_nom_17" cx="625.61" cy="469.85" r="101.9" data-name="Dégradé sans nom 17" fx="625.61" fy="469.85" gradientTransform="matrix(1 .00035 -.00004 .11 .02 416.21)" gradientUnits="userSpaceOnUse"><stop offset=".4" stop-color="#353544" stop-opacity=".5"/><stop offset="1" stop-color="#353544" stop-opacity="0"/></radialGradient><radialGradient xlink:href="#Dégradé_sans_nom_17" id="Dégradé_sans_nom_17-2" cx="233.82" cy="469.85" r="101.9" data-name="Dégradé sans nom 17" fx="233.82" fy="469.85" gradientTransform="matrix(1 .00035 -.00004 .11 .02 416.36)"/><radialGradient xlink:href="#Dégradé_sans_nom_17" id="Dégradé_sans_nom_17-3" cx="428.56" cy="515.13" r="110.25" data-name="Dégradé sans nom 17" fx="428.56" fy="515.13" gradientTransform="matrix(1 .00035 -.00004 .11 .02 456.41)"/><style>.cls-2{fill:#fbabab}.cls-3{fill:#5b5a72}.cls-4{fill:#353544}.cls-22{fill:#fff;opacity:.5}</style></defs><path d="m710.59 185.09-3.24-89.18c-.09-2.58-3.07-3.99-5.12-2.41l-32.38 24.77s.06.05.09.07c-12.93-7.91-28.13-12.47-44.41-12.47s-31.48 4.57-44.41 12.47c.03-.02.06-.05.09-.07L548.83 93.5c-2.05-1.57-5.03-.17-5.12 2.41l-3.24 89.18c-.14 2-.22 4.01-.22 6.05 0 47.04 38.17 85.21 85.28 85.21s85.28-38.17 85.28-85.21c0-2.03-.08-4.05-.22-6.05Zm-85.06 45.79c-21.95 0-39.8-17.79-39.8-39.74s17.85-39.8 39.8-39.8 39.8 17.79 39.8 39.8-17.79 39.74-39.8 39.74Z" style="fill:url(#Dégradé_sans_nom_11)"/><path d="M608.56 238.9h34.1s-1.79 14.22-17.05 14.15c-15.56 0-17.05-14.15-17.05-14.15Z" class="cls-3"/><path d="M649.31 137.46s14.26-6.03 30.99 14.15c0 0-10.71-19.91-19.2-21.22-7.92-1.22-11.79 7.07-11.79 7.07ZM601.92 137.46s-14.26-6.03-30.99 14.15c0 0 10.71-19.91 19.2-21.22 7.92-1.22 11.79 7.07 11.79 7.07Z" class="cls-4"/><ellipse cx="683.84" cy="224.21" class="cls-2" rx="12.25" ry="4.18"/><ellipse cx="569.17" cy="224.21" class="cls-2" rx="12.25" ry="4.18"/><path d="M601.86 200.75c-.47-9.51-3.39-20.68-14.51-20.95-4.51-.11-7.83 1.64-10.27 4.38-1.75.25-7.15-.21-10.73-4.17 0 0-.2 8.97 6.6 11.56 0 0-8.65 3.17-15.57-2.3 0 0 3.11 10.08 13.49 11.64-.23 1.88 2.31 2.63 3.21.96 2.46-4.55 6.5-8.69 13.04-8.53 6.09.15 9.55 3.91 11.5 8.18.77 1.67 3.32 1.07 3.23-.77ZM649.36 200.75c.47-9.51 3.39-20.68 14.51-20.95 4.51-.11 7.83 1.64 10.27 4.38 1.75.25 7.15-.21 10.73-4.17 0 0 .2 8.97-6.6 11.56 0 0 8.65 3.17 15.57-2.3 0 0-3.11 10.08-13.49 11.64.23 1.88-2.31 2.63-3.21.96-2.46-4.55-6.5-8.69-13.04-8.53-6.09.15-9.55 3.91-11.5 8.18-.77 1.67-3.32 1.07-3.23-.77Z" class="cls-4"/><path d="M707.47 290.4c4.6 5.1 9.28 15.39 9.07 31.81-.36 27.14-15.06 76.73-24.44 96.78-1.33 2.87-5.01 1.1-4.76-2.26l9.7-121.69c.48-6.22 6.45-8.86 10.43-4.64Z" style="fill:url(#Dégradé_sans_nom_10)"/><path d="M625.54 435.3c-4.58 0-9.33-2.31-11.76-6.93l-31.08-66.51c-1.16-2.48.91-5.21 3.96-5.21h22.07l-20.97-10.17c-10.52-5.1-18-14.09-20.04-24.53-.49-2.49-.89-4.99-1.2-7.51l-4.31-34.65c-.51-4.13 4.06-7.31 8.49-5.9l16.03 5.09c20.9 9.19 30.06 18.9 31.53 36.49l3.08 28.87c.21 2.47 2.17 3.68 4.11 3.65 1.94.04 3.9-1.18 4.11-3.65l3.08-28.87c1.47-17.59 10.64-27.29 31.53-36.49l16.03-5.09c4.43-1.41 9.01 1.77 8.49 5.9l-4.31 34.65c-.31 2.51-.71 5.02-1.2 7.51-2.04 10.44-9.52 19.43-20.04 24.53l-20.97 10.17h22.07c3.05 0 5.12 2.73 3.96 5.21l-31.08 66.51c-2.43 4.62-7.01 6.93-11.59 6.93Z" style="fill:url(#Dégradé_sans_nom_11-2)"/><ellipse cx="625.61" cy="469.85" rx="103.53" ry="12.58" style="fill:url(#Dégradé_sans_nom_17)"/><path d="M146.08 359.29c-4.56-5.97-8.38-11.88-10.92-17.42-8.24-17.98-4.33-31.45.54-39.75 2.95-4.99 10.34-4.69 12.93.54l50.99 102.29c1.38 2.83-2.04 5.59-4.45 3.55l-25.62-13.08c-1.56-.79-1.98-2.82-.88-4.18l3.08-3.8-33.59-16.43c-1.78-.87-2.08-3.28-.57-4.56l8.47-7.16Z" style="fill:url(#Dégradé_secondaire1)"/><path d="M305.89 127.16V59.42c0-4.11-5.32-5.75-7.63-2.35l-36.69 53.83c-8.7-2.99-18.03-4.63-27.76-4.63s-19.06 1.64-27.76 4.64-36.69-53.84-36.69-53.84c-2.32-3.4-7.63-1.76-7.63 2.35v67.74l-12.97-12.97v77.1c0 46.91 38.07 84.97 85.03 84.97 13.36 0 25.99-3.09 37.23-8.57-1.19-6.73-1.31-12.14-.28-15.56.91-2.98 2.58-4.28 3.82-4.85.67-.31 1.39-.46 2.16-.46 3.07 0 6.99 2.77 12.56 8.81 18.08-15.59 29.54-38.63 29.54-64.35v-77.1l-12.97 12.97Zm-72.07 103.77c-21.89 0-39.69-17.74-39.69-39.63s17.8-39.69 39.69-39.69 39.69 17.74 39.69 39.69-17.74 39.63-39.69 39.63Z" style="fill:url(#Dégradé_sans_nom_11-3)"/><ellipse cx="233.82" cy="469.85" rx="103.53" ry="12.58" style="fill:url(#Dégradé_sans_nom_17-2)"/><path d="M257.52 137.46s14.26-6.03 30.99 14.15c0 0-10.71-19.91-19.2-21.22-7.92-1.22-11.79 7.07-11.79 7.07ZM210.13 137.46s-14.26-6.03-30.99 14.15c0 0 10.71-19.91 19.2-21.22 7.92-1.22 11.79 7.07 11.79 7.07Z" class="cls-4"/><path d="M243.79 240.47s0 11.01-9.85 11.01c-9.89 0-9.89-11.01-9.89-11.01" style="fill:none;stroke:#5b5a72;stroke-linecap:round;stroke-linejoin:round;stroke-width:2.67px"/><path d="M281.62 213.58c4.25-4.13 7.05-11.78 7.05-22.76 0-17.27-6.95-26.33-15.53-26.33s-15.53 9.06-15.53 26.33c0 10.8 2.72 18.38 6.85 22.56 0 0 8.75-3.51 17.16.2Z" class="cls-4"/><ellipse cx="269.43" cy="183.86" class="cls-22" rx="3.61" ry="2.48"/><ellipse cx="274.95" cy="176.24" class="cls-22" rx="5.52" ry="4.85"/><path d="M202.98 213.58c4.25-4.13 7.05-11.78 7.05-22.76 0-17.27-6.95-26.33-15.53-26.33s-15.53 9.06-15.53 26.33c0 10.8 2.72 18.38 6.85 22.56 0 0 8.75-3.51 17.16.2Z" class="cls-4"/><ellipse cx="190.79" cy="183.86" class="cls-22" rx="3.61" ry="2.48"/><ellipse cx="196.31" cy="176.24" class="cls-22" rx="5.52" ry="4.85"/><ellipse cx="428.56" cy="515.13" rx="112.01" ry="13.61" style="fill:url(#Dégradé_sans_nom_17-3)"/><path d="M534.8 335.22c5.27 8.98 9.5 23.55.59 43.01-11.39 24.92-46.65 56.67-64.93 72.09-2.6 2.21-6.31-.78-4.81-3.84l55.17-110.67c2.8-5.66 10.8-5.99 13.99-.59Z" style="fill:url(#Dégradé_sans_nom_10-2)"/><path d="m563.74 416.73-9.7-121.69c-.48-6.22-6.45-8.86-10.43-4.64-4.6 5.1-9.28 15.39-9.07 31.81.04 2.71.22 5.64.52 8.74.91.77 1.71 1.68 2.34 2.75 4.51 7.68 8.4 19.4 4.68 34.56 5.09 20.07 11.78 39.79 16.9 50.72 1.33 2.87 5.01 1.1 4.76-2.26Z" style="fill:url(#Dégradé_secondaire1-2)"/><path d="M509.63 301.06c6.96-2.08 13.01 5.21 9.63 11.65l-79.83 152.96c-4.55 8.78-17.18 8.78-21.73 0l-79.83-152.96c-3.32-6.44 2.73-13.73 9.69-11.65l72.03 21.86 5.21 62.92c.39 4.62 7.16 4.62 7.55 0l5.21-62.92 72.09-21.86Z" style="fill:url(#Dégradé_sans_nom_11-4)"/><path d="M515.61 77.25c-6.96 0-12.69 5.46-12.69 20.23 0 11.13 3.25 20.69 7.87 24.72v50.23c-15.16-30.06-46.26-50.68-82.24-50.68s-67.08 20.62-82.24 50.68V122.2c4.62-4.03 7.87-13.6 7.87-24.72 0-14.77-5.66-20.23-12.69-20.23s-12.69 5.46-12.69 20.23c0 11.13 3.19 20.63 7.74 24.66v91.61c0 50.75 41.19 91.93 92 91.93s92-41.19 92-91.93v-91.61c4.55-4.03 7.74-13.53 7.74-24.66 0-14.77-5.66-20.23-12.69-20.23Zm-87.05 179.38c-23.68 0-42.94-19.19-42.94-42.88s19.26-42.94 42.94-42.94S471.5 190 471.5 213.75s-19.19 42.88-42.94 42.88Z" style="fill:url(#Dégradé_sans_nom_11-5)"/><ellipse cx="470.95" cy="213.72" class="cls-4" rx="16.76" ry="28.42"/><ellipse cx="466.95" cy="206.21" class="cls-22" rx="3.9" ry="2.68"/><ellipse cx="472.9" cy="197.99" class="cls-22" rx="5.95" ry="5.23"/><path d="M410.11 265.26h36.9s-1.93 15.39-18.45 15.31c-16.84 0-18.45-15.31-18.45-15.31Z" class="cls-3"/><path d="M454.19 155.5s15.42-6.52 33.53 15.31c0 0-11.58-21.54-20.77-22.96-8.57-1.32-12.76 7.65-12.76 7.65ZM402.92 155.5s-15.42-6.52-33.53 15.31c0 0 11.58-21.54 20.77-22.96 8.57-1.32 12.76 7.65 12.76 7.65Z" class="cls-4"/><path d="M336.38 352.51s-15.96 9.48-37.62-25.79c-21.66-35.26-30.34-73.05-22.82-76.49 5.68-2.6 25.93 25.6 47.41 55.04 22.07 30.25 21.74 42.21 13.03 47.24Z" style="fill:url(#Dégradé_secondaire1-3)"/><path d="m274.93 282.27-32.81 9.95-.37 4.52 29.76-9.05-10.84 20.85c-1.91 3.67-6.47 5.03-10.07 3l-9.63-5.41-3.66 16.38c-.36 4.27-6.61 4.27-6.98 0l-3.66-16.41-8.42 5.66c-3.58 2.41-8.46 1.2-10.51-2.59l-11.6-21.49 29.77 9.09-.38-4.56L158.96 272c-6.43-1.92-12.03 4.81-8.96 10.76l73.78 141.38c4.21 8.12 15.88 8.12 20.08 0l51.1-97.91c-9.14-15.26-15.92-30.8-20.04-43.97Z" style="fill:url(#Dégradé_sans_nom_11-6)"/><path d="m314.72 288.39 2.93-5.61c3.13-5.95-2.47-12.69-8.9-10.76l-5.1 1.55c3.31 4.35 6.99 9.29 11.07 14.83Z" style="fill:url(#Dégradé_sans_nom_11-7)"/><path d="M366.53 200.77s26.52-4.82 38.6 17.46c2.02 3.73-.88 8.16-5.08 7.58-5.74-.78-13.64-1.03-21.73 1.28 0 0 4.74-8.3 12.11-10.65 0 0-2.53-12.43-23.91-15.68Z" class="cls-4"/><path d="M321.56 359.29c.96-1.24 1.87-2.49 2.76-3.74-6.17-2.01-13.82-7.19-22.35-18.71l-33.95 68.11c-1.38 2.83 2.04 5.59 4.45 3.55l25.62-13.08c1.56-.79 1.98-2.82.88-4.18l-3.08-3.8 33.59-16.43c1.78-.87 2.08-3.28.57-4.56l-8.47-7.16Z" style="fill:url(#Dégradé_sans_nom_10-3)"/><path d="m323.21 299.99 2.56 3.51c4.71 6.46 8.52 12.23 11.47 17.4-.15-7.81-2.58-14.11-5.31-18.77-2.01-3.4-6.09-4.34-9.3-2.94.2.27.39.53.58.8Z" style="fill:url(#Dégradé_sans_nom_10-4)"/></svg>