<svg xmlns="http://www.w3.org/2000/svg" xmlns:xlink="http://www.w3.org/1999/xlink" id="Calque_1" data-name="Calque 1" viewBox="0 0 841.89 595.28"><defs><linearGradient id="Dégradé_sans_nom_11" x1="459.39" x2="589.61" y1="64.31" y2="194.53" data-name="Dégradé sans nom 11" gradientUnits="userSpaceOnUse"><stop offset=".1" stop-color="#5b5a72"/><stop offset=".5" stop-color="#b0b0bf"/><stop offset=".96" stop-color="#f4f4f6"/></linearGradient><linearGradient xlink:href="#Dégradé_sans_nom_11" id="Dégradé_sans_nom_11-2" x1="631.94" x2="766.67" y1="44.79" y2="179.52" data-name="Dégradé sans nom 11"/><linearGradient id="Dégradé_sans_nom_10" x1="563.68" x2="617.16" y1="265.24" y2="211.76" data-name="Dégradé sans nom 10" gradientUnits="userSpaceOnUse"><stop offset="0" stop-color="#b0b0bf"/><stop offset="1" stop-color="#f4f4f6"/></linearGradient><linearGradient id="Dégradé_secondaire1" x1="492.79" x2="567.89" y1="234.58" y2="309.69" data-name="Dégradé secondaire1" gradientUnits="userSpaceOnUse"><stop offset="0" stop-color="#5b5a72"/><stop offset="1" stop-color="#b0b0bf"/></linearGradient><linearGradient xlink:href="#Dégradé_sans_nom_11" id="Dégradé_sans_nom_11-3" x1="501.17" x2="604.54" y1="184.03" y2="287.4" data-name="Dégradé sans nom 11"/><linearGradient xlink:href="#Dégradé_sans_nom_11" id="Dégradé_sans_nom_11-4" x1="452.84" x2="556.21" y1="232.36" y2="335.73" data-name="Dégradé sans nom 11"/><linearGradient xlink:href="#Dégradé_sans_nom_11" id="Dégradé_sans_nom_11-5" x1="471.4" x2="574.77" y1="213.8" y2="317.17" data-name="Dégradé sans nom 11"/><linearGradient xlink:href="#Dégradé_sans_nom_11" id="Dégradé_sans_nom_11-6" x1="332.41" x2="495.14" y1="155.53" y2="318.26" data-name="Dégradé sans nom 11"/><linearGradient xlink:href="#Dégradé_sans_nom_11" id="Dégradé_sans_nom_11-7" x1="112.7" x2="268.73" y1="163.66" y2="319.69" data-name="Dégradé sans nom 11"/><linearGradient xlink:href="#Dégradé_secondaire1" id="Dégradé_secondaire1-2" x1="666.47" x2="611.2" y1="241.92" y2="297.19" data-name="Dégradé secondaire1"/><linearGradient xlink:href="#Dégradé_secondaire1" id="Dégradé_secondaire1-3" x1="358.11" x2="292.97" y1="415.94" y2="350.8" data-name="Dégradé secondaire1"/><linearGradient id="Dégradé_sans_nom_26" x1="438.92" x2="512.13" y1="383.69" y2="456.91" data-name="Dégradé sans nom 26" gradientUnits="userSpaceOnUse"><stop offset="0" stop-color="#b0b0bf"/><stop offset="1" stop-color="#f4f4f6"/></linearGradient><linearGradient xlink:href="#Dégradé_sans_nom_11" id="Dégradé_sans_nom_11-8" x1="349.68" x2="478.11" y1="332.88" y2="461.31" data-name="Dégradé sans nom 11"/><linearGradient xlink:href="#Dégradé_sans_nom_26" id="Dégradé_sans_nom_26-2" x1="733.79" x2="796.79" y1="232.07" y2="295.08" data-name="Dégradé sans nom 26"/><linearGradient xlink:href="#Dégradé_sans_nom_11" id="Dégradé_sans_nom_11-9" x1="649.03" x2="751.57" y1="198.24" y2="300.78" data-name="Dégradé sans nom 11"/><linearGradient xlink:href="#Dégradé_sans_nom_26" id="Dégradé_sans_nom_26-3" x1="216.49" x2="269.87" y1="400.8" y2="454.17" data-name="Dégradé sans nom 26"/><linearGradient xlink:href="#Dégradé_secondaire1" id="Dégradé_secondaire1-4" x1="184.33" x2="104.51" y1="379.82" y2="459.65" data-name="Dégradé secondaire1"/><linearGradient xlink:href="#Dégradé_sans_nom_11" id="Dégradé_sans_nom_11-10" x1="119.47" x2="254.96" y1="398.58" y2="534.08" data-name="Dégradé sans nom 11"/><radialGradient id="Dégradé_sans_nom_17" cx="353.96" cy="369.61" r="81.38" data-name="Dégradé sans nom 17" fx="353.96" fy="369.61" gradientTransform="matrix(-1.03 .00036 .00004 .11 883.38 327.46)" gradientUnits="userSpaceOnUse"><stop offset=".4" stop-color="#353544" stop-opacity=".5"/><stop offset="1" stop-color="#353544" stop-opacity="0"/></radialGradient><radialGradient xlink:href="#Dégradé_sans_nom_17" id="Dégradé_sans_nom_17-2" cx="690.95" cy="368.49" r="81.38" data-name="Dégradé sans nom 17" fx="690.95" fy="368.49" gradientTransform="matrix(1.03 .00036 -.00004 .11 -7.33 326.35)"/><radialGradient xlink:href="#Dégradé_sans_nom_17" id="Dégradé_sans_nom_17-3" cx="-232.84" cy="533.64" r="97.18" data-name="Dégradé sans nom 17" fx="-232.84" fy="533.64" gradientTransform="matrix(1 .00035 -.00004 .11 644.62 473.06)"/><radialGradient xlink:href="#Dégradé_sans_nom_17" id="Dégradé_sans_nom_17-4" cx="935.53" cy="535.11" r="97.18" data-name="Dégradé sans nom 17" fx="935.53" fy="535.11" gradientTransform="matrix(-1.12 .0004 .00004 .11 1237.48 473.94)"/><style>.cls-2{fill:#fbabab}.cls-3{fill:#5b5a72}.cls-4{fill:#353544}.cls-27{fill:#fff;opacity:.5}</style></defs><path d="M584.73 116.65c-.4-.77-.82-1.53-1.24-2.28l-1.94-43.53c-.13-2.92-4.09-3.72-5.34-1.08L565 93.44c-11.85-8.9-26.72-14.21-42.88-14.21-11.58 0-22.49 2.73-32.11 7.55l-21.48-20.19c-2.25-2.11-5.94-.62-6.09 2.45l-2.33 46.48c-.2.37-.41.74-.6 1.11a66.03 66.03 0 0 0-7.43 30.5c0 14.07 4.42 27.13 11.99 37.97-2.89-4.75-4.64-11.91-4.64-19.63 0-17.9 9.22-19.84 13.18-19.84s7.27 1.69 9.54 4.87c2.42 3.38 3.64 8.42 3.64 14.96 0 9.73-2.6 18.25-6.82 22.59v12.5c11.89 9.03 26.87 14.43 43.15 14.43 38.69 0 70.05-30.4 70.05-67.86 0-10.95-2.68-21.32-7.43-30.5Zm-44.48 62.15c-14.99 0-27.11-14.17-27.11-31.65s12.12-31.7 27.11-31.7 27.11 14.17 27.11 31.7-12.16 31.65-27.11 31.65Z" style="fill:url(#Dégradé_sans_nom_11)"/><path d="M766.05 119.54V84.18l-10.69 10.37V40.4c0-3.29-4.38-4.6-6.29-1.88l-29.45 41.89a72.258 72.258 0 0 0-18.09-2.29c-12.99 0-25.15 3.43-35.57 9.4S643.33 43.5 643.33 43.5c-1.33-2.59-4.39-1.34-4.39 1.79v51.64l-7.46-9.89v58.99c0 37.46 31.36 67.86 70.05 67.86s70.05-30.4 70.05-67.86c0-9.38-1.97-18.34-5.52-26.48Zm-82.66 58.13c-14.95 0-27.11-14.17-27.11-31.65s12.16-31.7 27.11-31.7 27.11 14.17 27.11 31.7-12.12 31.65-27.11 31.65Z" style="fill:url(#Dégradé_sans_nom_11-2)"/><path d="M525.46 108.15s-11.74-4.81-25.53 11.3c0 0 8.82-15.9 15.81-16.95 6.53-.98 9.71 5.65 9.71 5.65ZM557.86 109.43s8.36-4.27 18.18 10.02c0 0-6.28-14.11-11.26-15.04-4.65-.87-6.92 5.01-6.92 5.01Z" class="cls-4"/><ellipse cx="499.94" cy="173.24" class="cls-2" rx="10.1" ry="3.34"/><ellipse cx="576.68" cy="173.24" class="cls-2" rx="6.87" ry="2.6"/><path d="M519.83 165.1c3.4-3.33 5.63-9.38 5.63-17.98 0-13.77-5.72-21-12.78-21-3.41 0-6.5 1.69-8.79 4.99-1.41.24-5.12.51-8.1-2.54 0 0-.29 6.65 5.28 8.55 0 0-6.65 3.06-12.36-1.11 0 0 2.81 8 11.25 9.03-.03.68-.05 1.37-.05 2.08 0 8.74 2.3 14.84 5.78 18.13 0 0 6.13-2.93 14.14-.15Z" class="cls-4"/><ellipse cx="515.74" cy="141.58" class="cls-27" rx="2.97" ry="1.98"/><ellipse cx="511.2" cy="135.5" class="cls-27" rx="4.54" ry="3.86"/><path d="M560.39 163.62c-2.69-3.05-4.46-8.59-4.46-16.48 0-12.62 4.53-19.25 10.12-19.25 2.7 0 5.15 1.55 6.96 4.57 1.12.22 4.06.46 6.42-2.33 0 0 .23 6.09-4.18 7.84 0 0 5.26 2.8 9.79-1.01 0 0-2.22 7.33-8.91 8.27.02.62.04 1.25.04 1.9 0 8.01-1.82 13.6-4.58 16.62 0 0-4.85-2.69-11.2-.14Z" class="cls-4"/><ellipse cx="568.41" cy="142.06" class="cls-27" rx="2.35" ry="1.81"/><ellipse cx="564.82" cy="136.49" class="cls-27" rx="3.59" ry="3.54"/><path d="m530.96 184.31 18.45.06s-.42 13.9-7.39 13.88c-9.7-.03-11.06-13.94-11.06-13.94Z" class="cls-3"/><path d="M624.24 222.28c-1.79-3.83-24.61 1.5-51.99 14.93l-1.08 8.7c-.25 2.04-.58 4.11-.98 6.13-.57 2.9-1.31 5.95-2.48 8.92 3.73-1.79 8.16-4.03 13.47-6.81 28.85-15.12 44.29-29.26 43.07-31.87Z" style="fill:url(#Dégradé_sans_nom_10)"/><path d="M479.88 242.8s-5.89 11.35 27.62 28.54c33.52 17.19 67.35 24.96 69.24 19.57 1.43-4.06-25.79-19.96-54.26-36.81-29.25-17.31-39.52-17.51-42.61-11.31Z" style="fill:url(#Dégradé_secondaire1)"/><path d="m556.53 272.2 1.43-1.21c6.04-4.54 8.64-10.98 10.27-19.32.39-1.99.71-3.99.96-6l3.44-27.68c.41-3.3-3.24-5.84-6.79-4.71l-12.91 7.16c-9.46 6.97-11.41 15.1-12.59 29.15l-1.41 11.94c6.34 3.78 12.31 7.37 17.6 10.68Z" style="fill:url(#Dégradé_sans_nom_11-3)"/><path d="M519.71 279.39h-28.63c-2.43 0-4.09 2.18-3.16 4.16l28.7 53.14c1.94 3.69 5.6 5.54 9.26 5.54s7.46-1.85 9.4-5.54l17.85-45.25c-9.54-2.54-21.16-6.6-33.42-12.05Z" style="fill:url(#Dégradé_sans_nom_11-4)"/><path d="M512.91 276.24c-2.1-1-4.2-2.04-6.31-3.13-11.29-5.79-25.39-14.74-28.51-24.51-1.28-4.02-.11-6.47.01-6.71 1.6-3.2 4.55-4.82 8.77-4.82 7.27 0 19.26 5 36.65 15.3l3.38 2 3.09 1.83-1.52-14.22c-1.18-14.05-5.3-16.31-21.39-20.61l-28.74-8.12c-3.54-1.13-7.2 1.41-6.79 4.71l3.44 27.68c.25 2.01.57 4.01.96 6 1.63 8.34 9.45 14.33 16.35 16.88l20.6 7.71Z" style="fill:url(#Dégradé_sans_nom_11-5)"/><ellipse cx="518.3" cy="369.61" rx="85.28" ry="10.04" style="fill:url(#Dégradé_sans_nom_17)"/><path d="M479.83 231.56c-.89-1.77-1.85-3.49-2.86-5.19v-39.15c4.01-3.56 6.82-11.93 6.82-21.74 0-13.02-4.99-17.84-11.18-17.84s-11.18 4.82-11.18 17.84c0 9.81 2.87 18.24 6.94 21.79v27.3c-14.87-16.97-36.67-27.7-61.03-27.7s-47.34 11.31-62.22 29.08v-26.62c3.49-3.42 5.95-11.52 5.95-20.95 0-12.52-4.28-16.93-9.59-16.93s-9.59 4.41-9.59 16.93c0 9.43 2.41 17.48 5.85 20.9v37.03c-1.03 1.71-2 3.46-2.9 5.24-5.51 10.95-8.6 23.34-8.6 36.42 0 44.73 36.3 81.04 81.1 81.04s81.1-36.3 81.1-81.04c0-13.08-3.1-25.46-8.6-36.42Zm-93.49 74.21c-17.31 0-31.39-16.92-31.39-37.79s14.08-37.85 31.39-37.85 31.39 16.92 31.39 37.85-14.03 37.79-31.39 37.79Z" style="fill:url(#Dégradé_sans_nom_11-6)"/><path d="M264.69 241.56c2.14-19.26.89-49.87-16.89-87.13-1.4-2.93-5.08-1.18-4.47 2.12 2.84 15.35 5.42 37.4 1.47 54.52-14.58-14.06-34.41-22.71-56.28-22.71-20.6 0-39.39 7.68-53.69 20.32-3.77-17.76-.58-39.39 2.88-54.76.8-3.56-4.03-5.43-5.86-2.28-24.51 42.12-25.05 76.34-21.67 96.78a81.2 81.2 0 0 0-2.76 21.04c0 44.73 36.3 81.04 81.1 81.04s81.1-36.3 81.1-81.04c0-9.79-1.74-19.19-4.92-27.89Zm-55.18 65.69c-17.36 0-31.39-16.92-31.39-37.8s14.03-37.85 31.39-37.85 31.39 16.92 31.39 37.85-14.08 37.8-31.39 37.8Z" style="fill:url(#Dégradé_sans_nom_11-7)"/><ellipse cx="705.35" cy="368.49" rx="85.28" ry="10.04" style="fill:url(#Dégradé_sans_nom_17-2)"/><path d="M717.91 164.13c3.49-3.29 5.79-9.39 5.79-18.13 0-13.76-5.71-20.98-12.76-20.98s-12.76 7.22-12.76 20.98c0 8.6 2.23 14.65 5.63 17.97 0 0 7.05.16 14.1.16Z" class="cls-4"/><ellipse cx="707.89" cy="140.46" class="cls-27" rx="2.97" ry="1.98"/><ellipse cx="712.43" cy="134.39" class="cls-27" rx="4.53" ry="3.86"/><path d="M663.15 162.59c2.55-3.09 4.57-8.94 4.57-16.59 0-12.6-4.5-19.21-10.05-19.21s-10.05 6.61-10.05 19.21c0 7.99 1.81 13.58 4.55 16.59h10.98Z" class="cls-4"/><ellipse cx="655.25" cy="140.93" class="cls-27" rx="2.34" ry="1.81"/><ellipse cx="658.82" cy="135.37" class="cls-27" rx="3.57" ry="3.54"/><path d="M698.18 107.03s11.74-4.81 25.53 11.3c0 0-8.82-15.9-15.81-16.95-6.53-.98-9.71 5.65-9.71 5.65ZM665.79 108.3s-8.36-4.27-18.18 10.02c0 0 6.28-14.11 11.26-15.04 4.65-.87 6.92 5.01 6.92 5.01Z" class="cls-4"/><path d="M644.1 241.39c-2.51 2.87-5.28 6.67-8.31 11.68-16.42 27.17-21.96 52.96-16.83 55.48 3.06 1.5 17.27-10.58 31.12-34.82 1.71-3 3.27-5.81 4.66-8.44l-10.65-23.9Z" style="fill:url(#Dégradé_secondaire1-2)"/><ellipse cx="682.4" cy="193.29" class="cls-3" rx="6.22" ry="9.35"/><ellipse cx="411.76" cy="533.64" rx="98.73" ry="11.99" style="fill:url(#Dégradé_sans_nom_17-3)"/><path d="M340.9 378.06c-25.99-14.77-48.41-20.16-51.19-15.25-1.95 3.44 11.65 20.86 39.71 38.8 11.88 7.6 21.29 12.85 28.51 15.87l-17.02-39.42Z" style="fill:url(#Dégradé_secondaire1-3)"/><path d="M426.31 289.6c4.04-3.93 6.71-11.21 6.71-21.65 0-16.43-6.62-25.05-14.78-25.05s-14.78 8.62-14.78 25.05c0 10.27 2.58 17.49 6.51 21.46 0 0 8.33-3.34 16.33.19Z" class="cls-4"/><ellipse cx="414.71" cy="261.33" class="cls-27" rx="3.43" ry="2.36"/><ellipse cx="419.96" cy="254.08" class="cls-27" rx="5.25" ry="4.61"/><path d="M362.9 287.76c2.95-3.69 5.29-10.67 5.29-19.81 0-15.05-5.21-22.94-11.64-22.94-6.43 0-11.64 7.89-11.64 22.94 0 9.55 2.1 16.21 5.27 19.81 0 0 6.34-3.04 12.72 0Z" class="cls-4"/><ellipse cx="353.77" cy="261.89" class="cls-27" rx="2.71" ry="2.16"/><ellipse cx="357.9" cy="255.25" class="cls-27" rx="4.13" ry="4.22"/><path d="M450.45 372.21s15.36-6.81 31.05 27.21c15.69 34.02 19.44 68.91 12.31 71.2-5.38 1.73-20.56-25.79-36.72-54.55-16.6-29.55-15.02-40.27-6.64-43.86Z" style="fill:url(#Dégradé_sans_nom_26)"/><path d="M442.26 377c1.16-3.41 3.53-5.91 7.03-7.41.3-.13 1.94-.8 4.58-.8 5.86 0 11.09 3.01 15.58 7.32l10.9-20.89c2.98-5.68-2.35-12.1-8.49-10.27l-77.46 19.27-4.55 55.46c-.34 4.07-4 4.07-4.28 0l-3.8-55.46-40.54-19.27c-5.08-1.84-9.49 4.59-7.07 10.27l58.23 134.84c3.32 7.74 13.56 7.74 17.58 0l41.19-78.92c-8.43-16.19-11.28-27.13-8.91-34.13Z" style="fill:url(#Dégradé_sans_nom_11-8)"/><path d="M403.46 221.41s13.6-5.75 29.55 13.49c0 0-10.21-18.99-18.31-20.24-7.55-1.17-11.24 6.75-11.24 6.75ZM365.96 222.93s-9.68-5.1-21.04 11.97c0 0 7.27-16.85 13.04-17.96 5.38-1.03 8.01 5.99 8.01 5.99Z" class="cls-4"/><path d="m396.53 312.07-20.38.07s.46 15.36 8.16 15.33c10.72-.04 12.22-15.4 12.22-15.4Z" class="cls-3"/><ellipse cx="188.51" cy="535.11" rx="110.71" ry="11.99" style="fill:url(#Dégradé_sans_nom_17-4)"/><path d="M217.75 314.91s-1.01 7.87-6.25 8.5c-8.38 1.01-10.25-8.5-10.25-8.5" style="fill:none;stroke:#5b5a72;stroke-linecap:round;stroke-linejoin:round;stroke-width:2.87px"/><path d="M192.38 222.88s-13.6-5.75-29.55 13.49c0 0 10.21-18.99 18.31-20.24 7.55-1.17 11.24 6.75 11.24 6.75ZM229.89 224.41s9.68-5.1 21.04 11.97c0 0-7.27-16.85-13.04-17.96-5.38-1.03-8.01 5.99-8.01 5.99Z" class="cls-4"/><ellipse cx="250.93" cy="300.62" class="cls-2" rx="5.02" ry="3.19"/><ellipse cx="159.21" cy="300.62" class="cls-2" rx="7.54" ry="3.99"/><path d="M185.88 290.82c3.93-3.97 6.52-11.2 6.52-21.47 0-16.45-6.62-25.07-14.79-25.07-3.95 0-7.53 2.02-10.18 5.95-1.64.29-5.93.61-9.38-3.03 0 0-.34 7.94 6.11 10.22 0 0-7.69 3.65-14.31-1.32 0 0 3.25 9.56 13.03 10.78-.03.81-.06 1.63-.06 2.48 0 10.43 2.66 17.72 6.7 21.65 0 0 7.53 7.05 16.37-.18Z" class="cls-4"/><ellipse cx="181.14" cy="262.72" class="cls-27" rx="3.44" ry="2.36"/><ellipse cx="175.89" cy="255.47" class="cls-27" rx="5.25" ry="4.61"/><path d="M245.79 289.21c3.19-3.61 5.3-10.28 5.3-19.85 0-.78-.02-1.53-.04-2.27 7.74-1.12 10.32-9.88 10.32-9.88-5.24 4.56-11.33 1.21-11.33 1.21 5.1-2.08 4.84-9.36 4.84-9.36-2.73 3.33-6.13 3.04-7.43 2.78-2.1-3.61-4.94-5.46-8.06-5.46-6.47 0-11.71 7.91-11.71 22.98 0 9.42 2.05 16.04 5.16 19.68 0 0 6.09 7.94 12.96.17Z" class="cls-4"/><ellipse cx="242.12" cy="263.29" class="cls-27" rx="2.72" ry="2.17"/><ellipse cx="237.96" cy="256.64" class="cls-27" rx="4.16" ry="4.23"/><path d="M772.51 256.89c-21.03-34.6-35.86-25.2-35.86-25.2-6.27 4.33-5.79 13.39 12.73 34.89 18.03 20.93 35.05 40.98 39.18 38.67 1.05-.59 1.57-2.1 1.6-4.33l-2.56-24.55c-.15-1.47-1.82-2.25-3.04-1.42l-3.45 2.34-1.97-21.48c-.14-1.5-1.84-2.29-3.07-1.42l-3.54 2.49Z" style="fill:url(#Dégradé_sans_nom_26-2)"/><path d="M731.12 237.03c.37-2.88 1.85-5.23 4.4-6.99.02-.02.04-.03.07-.04.24-.15 2.44-1.48 6.21-1.48 3.37 0 7.68 1.04 12.7 4.44l6.84-13.11c2.5-4.75-1.97-10.13-7.11-8.59l-64.85 16.13-.35 4.22 23.72-7.22-8.67 16.67a5.843 5.843 0 0 1-8.05 2.4l-7.63-4.29-2.84 11.4c-.29 3.41-3.35 3.41-3.59 0l-2.38-11.56-5.13 4.64c-2.11 1.92-4.98.96-6.19-2.07l-6.83-17.17 17.65 7.32-.3-4.33-33.94-16.13c-4.25-1.54-7.95 3.84-5.92 8.59l48.75 112.88c2.78 6.48 11.36 6.48 14.72 0l38.39-73.56c-7.26-9.68-10.38-16.84-9.7-22.14Z" style="fill:url(#Dégradé_sans_nom_11-9)"/><path d="M244.18 449c10.51 12.78 18.58 19 20.49 17.98 4.66-2.5-4.8-30.94-25.2-61.42-4.5-6.73-8.38-11.55-11.68-14.98L244.17 449Z" style="fill:url(#Dégradé_sans_nom_26-3)"/><path d="M175.53 371.94s-10.56-6.68-30.57 26.8c-20.01 33.48-30.81 67.81-25.71 70.06 3.85 1.7 21.99-25.39 41.18-53.7 19.72-29.09 20.88-39.63 15.1-43.15Z" style="fill:url(#Dégradé_secondaire1-4)"/><path d="M276.12 514.99c-20.04-21.45-31.65-57.56-31.65-57.56l-21.6-77.03s-4.38-20.43-10.9-20.33c-8.11.13-6.59 14.34-6.59 14.34l1.99 21.46c.06 2.99-4.28 3.44-4.84.51l-4.16-22.62c-.84-10.17-9.15-16.93-19.35-16.99-6.19 0-11.63 4.12-13.31 10.09l-1.6 5.69c3.59-2.38 6.54-3.16 8.86-3.16 2.16 0 3.4.71 3.59.84 1.98 1.21 3.24 3 3.75 5.33 1.54 7.11-4.25 20.03-18.23 40.66l-2.27 3.35c-5.27 7.78-10.37 15.3-15.07 22.08l-4.43 15.79S128.7 493.56 108.66 515c-2.74 2.93.13 7.6 3.98 6.48l69.11-14.19c13.39-4.06 19.22-13.48 24.09-29.83l3.33-11.8c.2-2.33 2-3.49 3.8-3.49s3.6 1.16 3.8 3.49l3.33 11.8c4.71 16.34 10.7 25.76 24.09 29.83l27.95 14.19c3.85 1.13 6.72-3.54 3.98-6.48Z" style="fill:url(#Dégradé_sans_nom_11-10)"/></svg>