<svg xmlns="http://www.w3.org/2000/svg" xmlns:xlink="http://www.w3.org/1999/xlink" id="Calque_1" data-name="Calque 1" viewBox="0 0 841.89 595.28"><defs><linearGradient id="Dégradé_sans_nom_26" x1="83.63" x2="293.08" y1="293.29" y2="502.73" data-name="Dégradé sans nom 26" gradientUnits="userSpaceOnUse"><stop offset="0" stop-color="#b0b0bf"/><stop offset="1" stop-color="#f4f4f6"/></linearGradient><linearGradient xlink:href="#Dégradé_sans_nom_26" id="Dégradé_sans_nom_26-2" x1="479.83" x2="543.72" y1="395.31" y2="395.31" data-name="Dégradé sans nom 26"/><linearGradient id="Dégradé_sans_nom_11" x1="405.85" x2="545.83" y1="143.82" y2="283.81" data-name="Dégradé sans nom 11" gradientUnits="userSpaceOnUse"><stop offset=".1" stop-color="#5b5a72"/><stop offset=".5" stop-color="#b0b0bf"/><stop offset=".96" stop-color="#f4f4f6"/></linearGradient><linearGradient xlink:href="#Dégradé_sans_nom_11" id="Dégradé_sans_nom_11-2" x1="346.91" x2="486.89" y1="202.77" y2="342.75" data-name="Dégradé sans nom 11"/><linearGradient xlink:href="#Dégradé_sans_nom_11" id="Dégradé_sans_nom_11-3" x1="351.81" x2="491.79" y1="197.87" y2="337.85" data-name="Dégradé sans nom 11"/><linearGradient xlink:href="#Dégradé_sans_nom_26" id="Dégradé_sans_nom_26-3" x1="519.53" x2="585.65" y1="335.55" y2="401.67" data-name="Dégradé sans nom 26" gradientTransform="rotate(14.06 472.165 406.79)"/><linearGradient id="Dégradé_secondaire1" x1="396.69" x2="324.78" y1="390.01" y2="461.92" data-name="Dégradé secondaire1" gradientUnits="userSpaceOnUse"><stop offset="0" stop-color="#5b5a72"/><stop offset="1" stop-color="#b0b0bf"/></linearGradient><linearGradient xlink:href="#Dégradé_sans_nom_11" id="Dégradé_sans_nom_11-4" x1="371.06" x2="483.15" y1="341.81" y2="453.9" data-name="Dégradé sans nom 11"/><linearGradient xlink:href="#Dégradé_sans_nom_26" id="Dégradé_sans_nom_26-4" x1="357.54" x2="483.66" y1="36.52" y2="162.64" data-name="Dégradé sans nom 26"/><linearGradient xlink:href="#Dégradé_sans_nom_26" id="Dégradé_sans_nom_26-5" x1="104.9" x2="178" y1="175.35" y2="248.45" data-name="Dégradé sans nom 26"/><linearGradient xlink:href="#Dégradé_sans_nom_26" id="Dégradé_sans_nom_26-6" x1="199.51" x2="272.61" y1="175.35" y2="248.45" data-name="Dégradé sans nom 26"/><linearGradient xlink:href="#Dégradé_sans_nom_26" id="Dégradé_sans_nom_26-7" x1="239.15" x2="305.27" y1="66.7" y2="132.82" data-name="Dégradé sans nom 26"/><linearGradient xlink:href="#Dégradé_sans_nom_26" id="Dégradé_sans_nom_26-8" x1="661.43" x2="727.55" y1="439.72" y2="505.84" data-name="Dégradé sans nom 26"/><linearGradient xlink:href="#Dégradé_sans_nom_26" id="Dégradé_sans_nom_26-9" x1="547.99" x2="590.82" y1="78.41" y2="121.24" data-name="Dégradé sans nom 26" gradientTransform="rotate(45 569.539 99.95)"/><linearGradient xlink:href="#Dégradé_sans_nom_26" id="Dégradé_sans_nom_26-10" x1="566.02" x2="738.9" y1="166.16" y2="339.04" data-name="Dégradé sans nom 26"/><radialGradient id="Dégradé_sans_nom_17" cx="477.42" cy="536.76" r="91.54" data-name="Dégradé sans nom 17" fx="477.42" fy="536.76" gradientTransform="matrix(-1.23 .00043 .00004 .11 1010.22 475.57)" gradientUnits="userSpaceOnUse"><stop offset=".4" stop-color="#353544" stop-opacity=".5"/><stop offset="1" stop-color="#353544" stop-opacity="0"/></radialGradient><style>.cls-2{opacity:.4;fill:none}.cls-3,.cls-4{fill:none;stroke-width:3px;stroke-linecap:round;stroke-linejoin:round;stroke:#b0b0bf}.cls-4{stroke-width:3.8px}.cls-9{fill:#b0b0bf}.cls-10{fill:#353544}.cls-26{fill:#fff;opacity:.5}</style></defs><rect width="166.87" height="232.13" x="105.54" y="282.57" class="cls-2" rx="21.55" ry="21.55" style="fill:url(#Dégradé_sans_nom_26)"/><path d="M236.28 318.94v-64.89M141.66 254.05v64.89h94.62M141.66 170.4V99.95h89.03M314.13 99.95h24.14M504.41 99.95h26.91M652.97 169.68V99.95h-45.22M611.25 336.55v18.4M694.69 336.55v94.71" class="cls-3"/><ellipse cx="420.94" cy="536.76" rx="114.79" ry="11.3" style="fill:url(#Dégradé_sans_nom_17)"/><path d="m490.65 383.34-10.72 24.81c6.3.1 13.98-.22 23.14-.96 31.27-2.5 50.29-10.96 50.19-14.69-.16-6.12-28.05-12.42-62.62-9.17Z" style="fill:url(#Dégradé_sans_nom_26-2)"/><path d="m501.63 223.95-5.17 40.39c3.15 10.4 4.21 21.85 2.71 33.59l9.36-73.16c3.63-2.78 6.84-10.02 7.97-18.83 1.5-11.69-1.98-16.33-6.94-16.96s-9.49 2.97-10.99 14.67c-1.13 8.81.2 16.68 3.06 20.29Z" style="fill:url(#Dégradé_sans_nom_11)"/><path d="M483.05 296.25c2.5-19.56-8.63-37.05-24.8-39.12-16.22-2.07-31.35 12.06-33.85 31.61-2.5 19.51 8.59 36.99 24.81 39.06 16.17 2.07 31.35-12.06 33.84-31.56Zm-39.25-82.03c29.63 3.79 53.07 24.05 62.39 50.41 3.83 10.89 5.25 22.84 3.68 35.06-5.35 41.8-43.61 71.38-85.46 66.02-41.85-5.35-71.43-43.61-66.08-85.41 1.56-12.22 5.94-23.42 12.39-33 15.65-23.16 43.44-36.87 73.07-33.08Z" style="fill:url(#Dégradé_sans_nom_11-2)"/><path d="M413.79 307.93c-3.3-4.15-4.93-11.28-3.68-21.03 1.96-15.35 9.18-22.62 16.8-21.64 7.62.98 12.78 9.82 10.81 25.17-1.23 9.6-4.51 16.03-8.65 19.27 0 0-8.13-1.07-15.28-1.77Z" class="cls-10"/><ellipse cx="428.01" cy="282.9" class="cls-26" rx="2.22" ry="3.24" transform="rotate(-82.71 428.006 282.902)"/><ellipse cx="423.97" cy="275.5" class="cls-26" rx="4.34" ry="4.94" transform="rotate(-82.71 423.963 275.503)"/><path d="M488.35 276.52c3.55 3.23 5.42 10.37 4.07 20.91-1.14 8.92-3.9 14.9-7.29 17.88 0 0-5.22-.6-11.88-1.52-2.31-3.8-3.67-10.6-2.57-19.14.72-5.6 2.07-10.04 3.82-13.31" class="cls-10"/><ellipse cx="484.88" cy="292.88" class="cls-26" rx="2.04" ry="2.55" transform="rotate(-82.71 484.876 292.877)"/><ellipse cx="481.81" cy="286.18" class="cls-26" rx="3.98" ry="3.89" transform="rotate(-82.71 481.806 286.182)"/><path d="m378.7 206.22-9.65 75.45c1.56-12.22 5.94-23.42 12.39-33l5.29-41.37c4.23-2.84 7.92-10.37 9.09-19.53 1.56-12.16-2.58-17.27-8.32-18-5.79-.74-11.03 3.16-12.58 15.33-1.17 9.16.45 17.32 3.78 21.12Z" style="fill:url(#Dégradé_sans_nom_11-3)"/><circle cx="559.56" cy="389.56" r="41.72" class="cls-2" style="fill:url(#Dégradé_sans_nom_26-3)"/><path d="m576.17 377.72-21.4 12.83-6.41-10.7-8.13 4.87 6.42 10.7 4.87 8.12 8.12-4.87 21.4-12.82-4.87-8.13z" class="cls-9"/><path d="M394.93 393.19s-11.63-10.73-35.94 14.85c-24.31 25.58-38.24 55.56-32.58 59.76 4.27 3.17 26.16-16.76 49.29-37.51 23.77-21.32 25.6-31.36 19.23-37.1Z" style="fill:url(#Dégradé_secondaire1)"/><path d="m487.38 359.02-38.18 18.15-3.58 52.24c-.27 3.84-3.71 3.84-4.04 0l-4.28-52.24-72.96-18.15c-5.78-1.73-10.8 4.32-8 9.67l13.64 26.13c6.3-4.35 12.19-6.56 17.59-6.56 5.83 0 8.87 2.65 9.17 2.93 2.69 2.42 4.05 5.37 4.05 8.77 0 6.36-4.89 14.33-15.22 24.73l37.06 71.02c3.78 7.29 13.43 7.29 16.56 0l54.85-127.01c2.28-5.35-1.88-11.4-6.66-9.67Z" style="fill:url(#Dégradé_sans_nom_11-4)"/><path d="M460.88 340.14s-12.13 5.33-19.5-3.08" style="stroke:#5b5a72;stroke-width:2.59px;stroke-linecap:round;stroke-linejoin:round;fill:none"/><path d="M443.9 339.28s-2.88 2.86-.97 5.61c1.91 2.75 6.14-3.42 6.14-3.42s-2.32-.28-5.17-2.19Z" style="fill:#cf4d3b"/><path d="M471.36 261.08s1.31 9.72 7.67 6.01c6.97-4.06 16.4-9.39 16.4-9.39s-20.07 8.56-24.07 3.38ZM441.24 238.02s-13.19-4.23-26.47 15.09c0 0 7.94-18.6 15.4-20.45 6.96-1.72 11.07 5.36 11.07 5.36Z" class="cls-10"/><rect width="166.87" height="83.44" x="337.54" y="58.24" class="cls-2" rx="21.55" ry="21.55" style="fill:url(#Dégradé_sans_nom_26-4)"/><rect width="72.26" height="83.44" x="105.54" y="170.4" class="cls-2" rx="21.55" ry="21.55" style="fill:url(#Dégradé_sans_nom_26-5)"/><rect width="72.26" height="83.44" x="200.15" y="170.4" class="cls-2" rx="21.55" ry="21.55" style="fill:url(#Dégradé_sans_nom_26-6)"/><circle cx="272.41" cy="99.95" r="41.72" class="cls-2" style="fill:url(#Dégradé_sans_nom_26-7)"/><circle cx="694.69" cy="472.98" r="41.72" class="cls-2" style="fill:url(#Dégradé_sans_nom_26-8)"/><path d="M542.51 72.93h54.04v54.04h-54.04z" class="cls-2" style="fill:url(#Dégradé_sans_nom_26-9)" transform="rotate(-45 569.535 99.96)"/><rect width="166.87" height="166.87" x="569.53" y="169.68" class="cls-2" rx="21.55" ry="21.55" style="fill:url(#Dégradé_sans_nom_26-10)"/><path d="M126.88 350.52h126.87v87.52H126.88z" class="cls-4"/><rect width="84.01" height="30.49" x="148.31" y="462.37" rx="15.25" ry="15.25" style="stroke-width:3.09px;fill:#b0b0bf;stroke:#b0b0bf;stroke-linecap:round;stroke-linejoin:round"/><path d="M190.31 462.37v-24.34" class="cls-4"/><path d="M135.59 360.85h51.55v28.99h-51.55zM194.27 360.85h51.55v28.99h-51.55zM135.59 398.71h51.55v28.99h-51.55zM194.27 398.71h51.55v28.99h-51.55z" class="cls-9"/><path d="M190.31 350.52v-31.58" class="cls-4"/><path d="m256.22 198.88-6.7-6.7-13.24 13.24-13.25-13.24-6.69 6.7 13.24 13.24-13.24 13.25 6.69 6.69 13.25-13.24 13.24 13.24 6.7-6.69-13.24-13.25 13.24-13.24zM714.63 459.73l-6.7-6.7-13.24 13.25-13.25-13.25-6.7 6.7 13.25 13.25-13.25 13.24 6.7 6.7 13.25-13.24 13.24 13.24 6.7-6.7-13.24-13.24 13.24-13.25zM154.89 196.6l-17.63 17.64-8.82-8.82-6.7 6.7 8.82 8.82 6.7 6.7 6.7-6.7 17.63-17.64-6.7-6.7zM259.19 99.95V80.62l16.75 9.67 16.75 9.66-16.75 9.67-16.75 9.67V99.95z" class="cls-9"/><rect width="95.81" height="15.81" x="373.06" y="72.23" class="cls-9" rx="7.91" ry="7.91"/><path d="M363.96 102.36h44.05M363.96 115.02h44.05M363.96 127.68h44.05M433.93 102.36h44.05M433.93 115.02h44.05M433.93 127.68h44.05" class="cls-4"/><circle cx="553.42" cy="99.95" r="5.4" class="cls-9"/><circle cx="585.65" cy="99.95" r="5.4" class="cls-9"/><circle cx="569.53" cy="99.95" r="5.4" class="cls-9"/><path d="M588.44 192.16h129.05v31.34H588.44z" style="stroke-width:3.09px;stroke:#b0b0bf;stroke-linecap:round;stroke-linejoin:round;fill:none"/><path d="M588.44 235.64h64.53v36.42h-64.53zM588.44 284.87h64.53v35.76h-64.53zM663.61 235.64h53.89v84.99h-53.89z" class="cls-4"/></svg>