<?xml version="1.0" encoding="utf-8"?>
<!-- Generator: Adobe Illustrator 26.3.1, SVG Export Plug-In . SVG Version: 6.00 Build 0)  -->
<svg version="1.1" id="Calque_1" xmlns="http://www.w3.org/2000/svg" xmlns:xlink="http://www.w3.org/1999/xlink" x="0px"
     y="0px"
     viewBox="0 0 200 200" style="enable-background:new 0 0 200 200;" xml:space="preserve">
<style type="text/css">
	.st0{fill-rule:evenodd;clip-rule:evenodd;fill:#20835F;}
	.st1{fill-rule:evenodd;clip-rule:evenodd;fill:#191919;}
	.st2{fill:#191919;}
</style>
    <path class="st0" d="M151.3,105c0-0.2-0.3-0.4-0.5-0.3c-0.2,0-0.3,0.2-0.3,0.3c-0.2,3.2-0.1,11.9,0,16.3c0,0.6,0.9,0.5,1,0
	C151.7,117.2,151.5,108.2,151.3,105z M65.7,166.6c0,0.5-0.8,0.5-0.8,0c-0.5-30.7-0.6-64-0.6-94c0-11.3,3.8-20.2,15.3-23.8
	c19.4-6,39-11.7,58.6-16.9c9.3-2.5,13.6,2.9,14.3,11.7c0.3,6.2,0.2,12.4-0.2,18.6c0,0.5-0.8,0.5-0.8,0c-0.3-6.1,0.4-12.1-0.1-18.6
	c-0.6-7.8-4.2-12.8-12.4-10.8C122.8,37,95.2,45.1,80,49.8c-10.3,3.2-14.8,11.8-14.7,22C65.4,71.9,65.9,139.4,65.7,166.6z"/>
    <path class="st1" d="M192.1,118.3c-0.9-3.4-3-6.7-6.1-8.5c-0.4-0.2-0.8,0.4-0.4,0.6c6,4.6,7,11.6,5.6,18.6c-1.5,7.3-5.2,13.9-7,22.3
	c-1,4.3-1.3,8.7-1,13.1c0,0.2,0.2,0.4,0.4,0.3c0.2,0,0.3-0.2,0.3-0.3c0-4.1,0.4-8.1,1.1-12.1C187.1,141.3,195.1,129.2,192.1,118.3z
	 M151.9,68.5c-0.7-1.8-3.5-1.8-5.9-1c-3.3,1.1-3.9,2.3-3.8,3.4c1.9,14,10.8,36,21.3,45.2c0.3,0.3,0.8-0.2,0.5-0.5
	c-9.9-10.6-18.6-29.1-20.9-45.3c-0.1-0.7,5.8-3.8,7.9-1.7c3.2,8.6,7.1,16.9,11.6,24.9c0.3,0.5,1.1,0.1,0.8-0.4
	C159.1,85.1,155.2,76.9,151.9,68.5L151.9,68.5z M179.1,118.5c-2.7,3.4-11.2,4.1-12.9-1.3c-0.2-0.5-0.8-0.7-1.3-0.4
	c-17,5.5-29.8,20.1-35.3,22.3c-3.1,1.3-21.2-8.2-24.9-9.9c-1.8-0.8-7.1,3.4-5.5,9.4c0.1,0.5,0.4,0.9,0.8,1.1
	c4.4,3.5,17.9,10.9,22.7,13.1c3.9,1.8,8.3,2.2,12.4,1c4.8-1.4,9.5-3.3,13.9-5.8c0.3,4.8,1.4,12.8,3.3,17.1c0.1,0.2,0.3,0.3,0.5,0.2
	c0.1-0.1,0.2-0.2,0.2-0.4c-1.1-6.1-2.6-11-3.1-17.4c3.2-1.7,6.3-3.7,9.2-6c0.2-0.2,0.2-0.5,0.1-0.7c-0.2-0.2-0.5-0.2-0.7-0.1
	c-8.1,5-18.6,12.5-28.3,12.6c-4.5,0.1-8.1-1.9-12-4c-6-3.3-14.2-7.7-18.2-10.7c-0.6-2.2-0.1-7.4,4.2-8.7c4.7,2.5,15.2,7.5,20,9.3
	c6.2,2.4,7.6,0,12.4-3.7c9.1-7.1,17.5-13.9,28.6-17.7c1.9,6.2,12.3,5.3,14.6,1.2c0.1-0.3,0-0.6-0.2-0.7
	C179.5,118.2,179.2,118.2,179.1,118.5L179.1,118.5z"/>
    <path class="st1" d="M141.7,67.2c-0.7-0.8-1.5-1.5-2.5-2c-1.7-0.9-3.3-1.8-5-2.6c-0.5-0.2-0.9,0.5-0.4,0.8c1.3,0.7,5.3,2.9,6.2,3.6
	c0.5,0.4,0.9,0.9,1.3,1.4C141.7,68.9,142.4,68.3,141.7,67.2z M150,61.3c0.1-1.5-0.3-2.9-1.2-4.2c-0.2-0.2-0.4-0.2-0.6,0
	c-0.1,0.1-0.1,0.3-0.1,0.4c1.6,3,0.2,6.5,1.2,7.9c0.2,0.3,0.7,0.1,0.7-0.1C149.9,63.7,150,61.9,150,61.3L150,61.3z M146.9,57.7
	c0-1-0.5-2-1.2-2.7c-0.4-0.3-0.9,0.2-0.6,0.6c0.6,0.7,0.8,1.6,0.8,2.5C146,58.8,146.9,59,146.9,57.7L146.9,57.7z M143.9,57.7
	c-0.3-1.6-1-3.1-2-4.4c-0.1-0.2-0.4-0.3-0.6-0.1c-0.2,0.1-0.3,0.4-0.1,0.6c2.5,4.2,1.4,4.7,2.1,5.8
	C143.3,59.8,144.4,60.4,143.9,57.7L143.9,57.7z M137.8,50.1c2.2,2.8,3.6,8,3.5,13.4c0,0.5-0.7,0.5-0.9,0c-0.7-2.2,0.1-8.1-3.3-12.9
	C136.8,50.2,137.5,49.6,137.8,50.1z"/>
    <path class="st2" d="M90,130.6c0.1-0.2,0.1-0.5-0.1-0.6c0,0-0.1,0-0.1,0c-0.3-0.1-4.4,0.5-4.4,2.8c0,0.3,0.2,0.5,0.4,0.5
	c0.3,0,0.5-0.2,0.5-0.4c0,0,0,0,0,0C86.4,131.1,89.4,131.4,90,130.6z"/>
    <path class="st2" d="M91.6,128.8c0.3-0.1,0.5-0.6,0.2-0.7h0c-3.2-0.8-6.7-0.2-8.5,1.5c-0.4,0.4,0.1,1,0.6,0.7
	C86.6,127.8,90.6,129.1,91.6,128.8z"/>
    <path class="st2" d="M98.1,135.3c-0.4-0.3-2.7-0.5-4.3-1.1c-2.6-1-2.7-2.4-3.6-2.1s-3.2,0.9-3.2,2.3c-0.1,1.7,2,1.8,1.1,0.5
	c-0.7-0.9,1.5-1.9,2.4-1.8c1.1,1.6,5.7,3.6,7.5,3.1c0.2-0.1,0.4-0.3,0.3-0.6C98.2,135.5,98.2,135.4,98.1,135.3z"/>
    <path class="st2" d="M100,128.6c-2.5-2.5-12.6-4.2-16.8-4.1c-0.5,0-0.5,0.8,0,0.8c10.2,0.6,14.8,3.6,16.3,4
	C100.3,129.5,100.3,128.9,100,128.6z"/>
    <path class="st2" d="M101.5,127.4c-0.2-0.1-2.1-1.4-1.6-3.4c0.1-0.3-0.1-0.5-0.4-0.6c-0.2,0-0.5,0.1-0.5,0.3c-0.7,3,2.3,5.3,2.7,4.2
	C101.8,127.8,101.7,127.5,101.5,127.4z"/>
    <path class="st0" d="M143.4,40.7c-4,1.2-8.1,2.6-12,3.9c-0.3,0.1-0.4,0.4-0.3,0.7c0.1,0.2,0.3,0.3,0.5,0.3c2-0.2,10.6-2.7,12.1-3.9
	C144.1,41.4,143.9,40.5,143.4,40.7z M143.7,48.6c-0.3-0.8-1.3-0.1-2.4,0.3c-0.6,0.2-2.1,0.7-1.9,1.3s1.6,0.1,2.2-0.1
	C142.6,49.8,144,49.4,143.7,48.6L143.7,48.6z M135.5,50.9c-0.5-0.3-2.5,0.8-3,1c-0.7,0.3-0.3,1.3,0.3,1.1c0.8-0.3,1.7-0.6,2.5-0.9
	c0.4-0.1,0.6-0.5,0.5-0.8C135.7,51.2,135.6,51,135.5,50.9L135.5,50.9z M143.2,44.4c0.5-0.2,0.8,0.6,0.4,1c-1,1-10.2,4-11.5,4.2
	c-0.5,0.1-0.8-0.8-0.3-1C134.1,47.4,140.3,45.3,143.2,44.4L143.2,44.4z"/>
    <path class="st0" d="M123.6,60.2c-7.3-4.4-16.3-0.3-21.4,5.5c-11.3,12.8-5.4,39.5,14.5,33.9C134.1,94.6,136.7,68.1,123.6,60.2z
	 M119.1,97.5c-18.5,8.8-27.5-14.9-17.9-29c4.1-6,12.1-11,19.6-8.6C134.3,64.5,134.5,90.2,119.1,97.5L119.1,97.5z"/>
    <path class="st0" d="M76,149.8c6.5-2.1,15.9-3.6,20.8-5.4c0.4-0.2,0.3-1-0.1-0.9c-7.9,2-17.3,3.9-21.3,5.5c-0.4,0.2-0.5,1.1-0.4,3.4
	c0.2,5.3,0.1,10.6,0.3,15.9c0,0.2,0.2,0.4,0.5,0.4c0.2,0,0.3-0.2,0.4-0.4C76.5,162,75.9,155.9,76,149.8L76,149.8z M135.4,132
	c-4.4,1.3-9,2.4-13.5,3.5c-0.5,0.1-0.5,1,0.1,0.9c4.6-0.9,9.2-2,13.7-3.4C136.3,132.7,136,131.8,135.4,132L135.4,132z M144.1,152.1
	c0-0.2-0.2-0.4-0.5-0.4c-0.2,0-0.4,0.2-0.4,0.4c0,1.4-0.3,11.9-0.1,13c0.1,0.5,0.9,0.5,0.9,0C144.3,160.6,144.1,155.7,144.1,152.1
	L144.1,152.1z"/>
    <path class="st0" d="M129.3,100.5c-9.4,3-19.3,5.1-28.7,7.8c-2.1,0.6-1.9,3.3,0.5,2.7c9.6-2.4,19.2-4.7,28.7-7.8
	C131.9,102.5,131.3,99.9,129.3,100.5z"/>
    <path class="st1" d="M164.1,81.3c4.6-10.2,19.4-4.1,22.7-1c2.7,2.6-3.5-1.1-7.5-0.1c7.1,3.3,11.1,11.5,11.4,15.1
	c0.2,2.4-0.8-1.8-5.9-3.1c-0.1,7.4,7.2,14.1,9.4,14.8c3.7,1.2-4.8,2.1-9.5-2c-2.3,8.5,3.4,14.7,4.5,15.2c4.8,2.2-15.7-0.1-16.4-15.8
	c-1.3,0.7-1.7-0.6-1-0.8c2.9-0.9,3.6-5.9,1.8-6.8c-0.6-0.3-1.4,0-1.7,0.6c0,0.1-0.1,0.2-0.1,0.3C171.4,99.1,160.5,89.1,164.1,81.3z
	 M168.4,110.3c-0.3,2.2-0.6,4.3-1.1,6.5c-0.2,0.5,0.7,0.9,0.9,0.3c0.6-2.3,1-4.6,1.2-6.9c1.7-0.3,0.8-1,0.6-1c-2.2,0-5.8,1-6.6-1.4
	c-0.5-1.7,0.1-5.9,0.4-7.8c0-0.3-1.1-0.4-1.9-1.4c1.4-1.5,2.6-3.2,3.6-5.1c0.1-0.2,0-0.5-0.2-0.6c-0.2-0.1-0.4,0-0.5,0.1
	c-1.1,1.9-2.4,3.6-3.9,5.1c-0.7,0.7,1.5,2.3,2,2.2c-0.5,1.9-1,6.3-0.2,8.2C163.5,110.6,166.3,110.5,168.4,110.3L168.4,110.3z"/>
    <path class="st0" d="M113.7,66.6c8.2-1.8,10.4,12,1.6,14.4S106.7,68.1,113.7,66.6z"/>
    <path class="st0" d="M104.1,92.8c2.4-9.3,16.5-12.8,21-5.2C123.6,93.8,111.6,99.7,104.1,92.8z"/>
    <path class="st0" d="M129.3,111c-1,0.3-1,0.1-1,1.5c-0.1,3.9,0.1,8.2,0.1,12.2c0,0.4,0.2,0.8,0.6,0.8c0,0,0.1,0,0.1,0
	c4.2-0.9,8.2-1.7,12.2-2.8c0.7-0.2,0.6-0.5,0.7-1.1c0.1-4.3,0.5-9.2,0.7-13.4c0-0.8-0.4-0.9-0.8-0.8
	C140.2,107.8,131.3,110.5,129.3,111z M92,136.7c-2.6,0.3-11.9,2.8-16.5,3.2c0.2-0.3,0.1-13.8,0.1-15.6c8.8-1.9,17.8-4.2,26.5-5.9
	c0.2,2.4,0.1,6,0.3,7.8c0.1,0.6,1,0.5,1-0.1c0-1.4,0-5.9-0.1-7.3c0-0.7-0.1-1.6-1.2-1.5c-3,0.3-23.3,4.7-27.3,6.1
	c-0.3,0.1-0.3,0.4-0.3,0.6c0.1,4.7-0.2,12.6,0.1,15.6c0.1,1,1.1,1.2,2.2,1.1c1.4-0.1,13.7-2.5,15.4-3.4
	C92.7,137.2,92.4,136.6,92,136.7L92,136.7z M111.4,129.8c-0.2,0.1-0.3,0.3-0.2,0.6c0.1,0.2,0.3,0.3,0.5,0.3
	c3.6-1.1,7.4-1.6,10.8-2.6c1-0.3,0.9-0.8,0.9-1.5c0-2.1,0.4-9.4,0.1-13.3c0-0.3-0.2-0.6-0.5-0.6c-3.8,0.4-9.5,2.4-13.2,3.6
	c-0.2,0.1-0.4,0.3-0.4,0.5c0.2,4.1,0.1,8.1,0.3,12.2c0,0.2,0.2,0.4,0.4,0.4c0.2,0,0.4-0.2,0.4-0.4c0.2-4,0.2-7.9,0-11.9
	c4-1.4,8.1-2.6,12.2-3.4c0.2,4,0,9.3-0.2,13.2C122.3,127.4,114.3,128.7,111.4,129.8L111.4,129.8z M129.5,124.5
	c0,0-0.2-11.3-0.2-12.5c4.2-1.3,8.1-2.4,12.5-3.4c-0.2,2.8-0.6,10.9-0.8,13.3C138,122.6,131.9,123.8,129.5,124.5L129.5,124.5z"/>
</svg>
