<?xml version="1.0" encoding="UTF-8"?>
<svg id="décors" xmlns="http://www.w3.org/2000/svg" viewBox="0 0 269.29 269.29">
  <defs>
    <style>
      .cls-1 {
        opacity: .5;
      }

      .cls-1, .cls-2, .cls-3 {
        stroke-width: 0px;
      }

      .cls-1, .cls-3 {
        fill: #fff;
      }

      .cls-2 {
        fill: #353544;
      }
    </style>
  </defs>
  <path class="cls-2" d="m228.91,10.96c-7.54,0-13.74,5.92-13.74,21.91,0,12.05,3.52,22.4,8.53,26.77v54.39c-16.42-32.55-50.09-54.88-89.05-54.88s-72.64,22.33-89.05,54.88v-54.39c5-4.37,8.53-14.73,8.53-26.77,0-15.99-6.13-21.91-13.74-21.91s-13.74,5.92-13.74,21.91c0,12.05,3.45,22.33,8.38,26.7v99.2c0,54.95,44.6,99.55,99.62,99.55s99.62-44.6,99.62-99.55V59.58c4.93-4.37,8.38-14.65,8.38-26.7,0-15.99-6.13-21.91-13.74-21.91Zm-94.27,194.24c-25.65,0-46.5-20.78-46.5-46.43s20.85-46.5,46.5-46.5,46.5,20.78,46.5,46.5-20.78,46.43-46.5,46.43Z"/>
  <g>
    <ellipse class="cls-2" cx="180.56" cy="158.74" rx="20.65" ry="33.28"/>
    <path class="cls-3" d="m180.56,127.97c10.03,0,18.15,10.59,18.15,30.78s-8.13,30.78-18.15,30.78-18.15-10.59-18.15-30.78,8.13-30.78,18.15-30.78m0-5c-6.85,0-12.9,3.6-17.06,10.14-3.99,6.28-6.1,15.14-6.1,25.64s2.11,19.36,6.1,25.64c4.15,6.54,10.21,10.14,17.06,10.14s12.9-3.6,17.06-10.14c3.99-6.28,6.1-15.14,6.1-25.64s-2.11-19.36-6.1-25.64c-4.15-6.54-10.21-10.14-17.06-10.14h0Z"/>
  </g>
  <ellipse class="cls-1" cx="176.22" cy="150.61" rx="4.22" ry="2.9"/>
  <ellipse class="cls-1" cx="182.67" cy="141.71" rx="6.45" ry="5.66"/>
  <g>
    <ellipse class="cls-2" cx="88.73" cy="158.74" rx="20.65" ry="33.28"/>
    <path class="cls-3" d="m88.73,127.97c10.03,0,18.15,10.59,18.15,30.78s-8.13,30.78-18.15,30.78-18.15-10.59-18.15-30.78,8.13-30.78,18.15-30.78m0-5c-10.68,0-23.15,9.37-23.15,35.78s12.47,35.78,23.15,35.78,23.15-9.37,23.15-35.78-12.47-35.78-23.15-35.78h0Z"/>
  </g>
  <ellipse class="cls-1" cx="84.39" cy="150.61" rx="4.22" ry="2.9"/>
  <ellipse class="cls-1" cx="90.83" cy="141.71" rx="6.45" ry="5.66"/>
  <path class="cls-3" d="m114.67,214.55h39.95s-2.09,21.75-19.98,21.67c-18.23,0-19.98-21.67-19.98-21.67Z"/>
  <path class="cls-2" d="m162.4,95.7s16.7-7.06,36.3,16.58c0,0-12.54-23.33-22.49-24.86-9.28-1.43-13.81,8.29-13.81,8.29Z"/>
  <path class="cls-2" d="m106.89,95.7s-16.7-7.06-36.3,16.58c0,0,12.54-23.33,22.49-24.86,9.28-1.43,13.81,8.29,13.81,8.29Z"/>
  <g>
    <path class="cls-2" d="m174.17,234.57c-6.6,0-11.87-3.56-12.8-8.67-.56-3.03.53-6.24,2.98-8.81,2.28-2.39,5.54-4.07,9.18-4.74,1.12-.21,2.25-.31,3.37-.31,4.67,0,8.78,1.83,11.06,4.79,12.53-2.53,21.64-5.56,25.74-8.58,7.88-5.8,12.68-15.72,13.62-17.78l3.18-65.43c-8.13-60.37-79.3-63.44-93.5-63.44-1.44,0-2.25.03-2.26.03-.04,0-.17,0-.21,0-.01,0-.81-.03-2.26-.03-14.2,0-85.37,3.06-93.5,63.44l3.21,65.89c.07,1.38-1,2.55-2.38,2.62-.44.02-.87.03-1.31.03-14.12,0-25.73-11.06-26.41-25.18l-.89-18.25c-.53-10.82,5.55-20.78,15.27-25.29.32-5.12,2.25-20.94,13.63-36.91,22.5-31.57,63.93-38.19,94.73-38.19s72.23,6.63,94.73,38.19c11.38,15.97,13.31,31.79,13.63,36.91,9.72,4.51,15.8,14.47,15.27,25.29l-.89,18.25c-.58,11.83-8.8,21.69-20.19,24.43-1.94,4.38-9.07,18.9-20.43,24.5-9.22,4.55-19.97,7.33-27.81,8.91-1.79,3.96-6.09,7.02-11.41,8-1.12.21-2.26.31-3.37.31h0Z"/>
    <path class="cls-3" d="m134.65,52.28c105.95,0,105.93,74.28,105.93,74.28h0c9.33,3.64,15.72,12.93,15.21,23.48l-.89,18.25c-.55,11.3-8.84,20.38-19.49,22.38,0,0-7.19,18.24-19.75,24.43-9.53,4.7-20.8,7.47-28.56,8.97-.99,3.61-4.89,6.78-10,7.72-.99.18-1.97.27-2.92.27-5.25,0-9.61-2.65-10.34-6.62-.86-4.69,3.69-9.45,10.15-10.63.99-.18,1.97-.27,2.92-.27,4.53,0,8.41,1.98,9.85,5.08,9.04-1.75,22.44-4.95,28.43-9.36,9.47-6.98,14.61-19.21,14.61-19.21l3.22-66.12c-8.28-62.79-81.82-65.83-96-65.83-1.52,0-2.36.04-2.36.04,0,0-.84-.04-2.36-.04-14.19,0-87.73,3.05-96,65.83l3.22,66.12c-.4.02-.79.03-1.18.03-12.7,0-23.29-9.98-23.92-22.8l-.89-18.25c-.51-10.55,5.88-19.84,15.21-23.49h0s-.02-74.28,105.93-74.28m0-5c-24.9,0-46.22,4.06-63.37,12.08-13.97,6.53-25.21,15.67-33.4,27.16-10.79,15.14-13.36,30.24-13.97,36.75-9.86,5.2-15.94,15.68-15.39,27.02l.89,18.25c.75,15.45,13.45,27.56,28.91,27.56.47,0,.95-.01,1.43-.03,2.76-.13,4.89-2.48,4.75-5.24l-3.2-65.66c3.36-24.4,17.71-41.91,42.65-52.04,20.56-8.35,42.2-9,48.34-9,1.38,0,2.15.03,2.16.03.07,0,.14,0,.21,0s.14,0,.21,0c0,0,.78-.03,2.16-.03,6.14,0,27.77.65,48.33,9,24.95,10.13,39.29,27.64,42.65,52.04l-3.15,64.71c-1.22,2.57-5.67,11.25-12.63,16.37-3.61,2.66-12.02,5.48-23.32,7.85-2.82-2.87-7.11-4.55-11.99-4.55-1.27,0-2.55.12-3.82.35-9.32,1.71-15.55,8.93-14.17,16.45,1.16,6.31,7.43,10.71,15.26,10.71,1.27,0,2.55-.12,3.82-.35,5.6-1.03,10.25-4.13,12.63-8.25,7.87-1.65,18.24-4.43,27.24-8.87,11.29-5.57,18.52-19.06,21.11-24.63,11.84-3.39,20.29-13.9,20.9-26.42l.89-18.25c.55-11.34-5.53-21.82-15.39-27.02-.61-6.51-3.18-21.6-13.97-36.75-8.19-11.49-19.43-20.63-33.4-27.16-17.14-8.01-38.46-12.08-63.37-12.08h0Z"/>
  </g>
</svg>