<?xml version="1.0" encoding="UTF-8"?>
<svg id="décors" xmlns="http://www.w3.org/2000/svg" viewBox="0 0 269.29 269.29">
  <defs>
    <style>
      .cls-1 {
        opacity: .5;
      }

      .cls-1, .cls-2, .cls-3, .cls-4 {
        stroke-width: 0px;
      }

      .cls-1, .cls-4 {
        fill: #fff;
      }

      .cls-2 {
        fill: #353544;
      }

      .cls-3 {
        fill: #5b5a72;
      }
    </style>
  </defs>
  <path class="cls-2" d="m65.3,112.41c1.46-.08,2.94-.13,4.39-.13,10.9,0,21.38,2.38,31.3,7.09-.25-1.67-.39-3.38-.39-5.12,0-18.83,15.27-34.04,34.04-34.04s34.04,15.22,34.04,34.04c0,1.75-.13,3.46-.39,5.14,9.93-4.72,20.41-7.1,31.32-7.11,1.44,0,2.91.04,4.36.13,1.45.08,2.73.78,3.59,1.83,0-11.76-2.79-22.89-7.74-32.74-12.02-23.83-36.67-40.18-65.19-40.18s-53.18,16.35-65.19,40.18c-4.95,9.85-7.73,20.99-7.74,32.74.86-1.05,2.14-1.75,3.59-1.83Z"/>
  <g>
    <path class="cls-2" d="m156.63,128.68c-.27,0-.54-.04-.8-.13-.75-.25-1.34-.84-1.58-1.6-1.19-3.65-1.79-7.93-1.79-12.73,0-18.47,8.51-25.03,15.79-25.03s15.79,6.56,15.79,25.03v.37c-.01,1.13-.78,2.12-1.88,2.4-8.36,2.16-16.47,5.94-24.11,11.24-.42.29-.92.45-1.43.45Z"/>
    <path class="cls-4" d="m168.25,91.69c7.34,0,13.29,7.75,13.29,22.53,0,.12,0,.23,0,.34-8.67,2.24-17,6.12-24.91,11.61-1.06-3.26-1.67-7.25-1.67-11.96,0-14.78,5.95-22.53,13.29-22.53m0-5c-8.44,0-18.29,7.21-18.29,27.53,0,5.06.64,9.61,1.91,13.5.49,1.5,1.66,2.69,3.16,3.19.52.17,1.06.26,1.59.26,1.01,0,2.01-.3,2.85-.89,7.39-5.13,15.23-8.79,23.3-10.88,2.2-.57,3.74-2.54,3.75-4.81v-.1c0-.09,0-.19,0-.28,0-20.32-9.85-27.53-18.29-27.53h0Z"/>
  </g>
  <g>
    <path class="cls-2" d="m112.66,128.66c-.5,0-1-.15-1.43-.45-7.63-5.3-15.74-9.08-24.11-11.23-1.1-.28-1.87-1.27-1.88-2.4v-.36c0-18.47,8.5-25.03,15.79-25.03s15.79,6.56,15.79,25.03c0,4.79-.6,9.07-1.78,12.71-.24.75-.83,1.34-1.58,1.6-.26.09-.53.13-.8.13Z"/>
    <path class="cls-4" d="m101.03,91.69c7.34,0,13.29,7.75,13.29,22.53,0,4.7-.6,8.68-1.66,11.94-7.91-5.49-16.23-9.37-24.91-11.6,0-.11,0-.22,0-.34,0-14.78,5.95-22.53,13.29-22.53m0-5c-8.44,0-18.29,7.21-18.29,27.53,0,.1,0,.19,0,.29v.09c.02,2.27,1.56,4.23,3.76,4.8,8.08,2.08,15.92,5.73,23.31,10.87.85.59,1.85.89,2.85.89.54,0,1.08-.09,1.6-.26,1.5-.51,2.67-1.69,3.16-3.2,1.26-3.89,1.9-8.43,1.9-13.48,0-20.32-9.85-27.53-18.29-27.53h0Z"/>
  </g>
  <path class="cls-4" d="m142.42,151.09l76.24-20.62s.04-.01.07-.02l.61-.15v-4.92c0-.49-.31-.93-.78-1.09-4.44-1.56-9.04-2.58-13.69-3.11v-3.75c0-.62-.48-1.13-1.09-1.16-36.97-2.12-59.57,24.78-67.19,34.82h5.85Z"/>
  <path class="cls-4" d="m50.57,130.45s.04.01.07.02l76.29,20.62h5.8c-7.61-10.04-30.18-36.94-67.21-34.82-.62.03-1.09.55-1.09,1.16v3.75c-4.65.52-9.24,1.55-13.68,3.11-.47.16-.78.61-.78,1.09v4.92l.61.15Z"/>
  <path class="cls-2" d="m69.44,41.68v39.82c-4.95,9.85-7.74,20.99-7.74,32.75V41.62c-3.61-3.2-6.14-10.73-6.14-19.55,0-11.71,4.49-16.04,10.06-16.04s10.06,4.33,10.06,16.04c0,8.82-2.58,16.4-6.24,19.6Z"/>
  <path class="cls-2" d="m207.57,41.62v72.62c0-11.76-2.79-22.9-7.74-32.75v-39.82c-3.66-3.2-6.24-10.78-6.24-19.6,0-11.71,4.54-16.04,10.06-16.04s10.06,4.33,10.06,16.04c0,8.82-2.53,16.35-6.14,19.55Z"/>
  <path class="cls-2" d="m154.96,58.92s12.23-5.17,26.58,12.14c0,0-9.18-17.08-16.47-18.2-6.79-1.05-10.11,6.07-10.11,6.07Z"/>
  <path class="cls-2" d="m114.32,58.92s-12.23-5.17-26.58,12.14c0,0,9.18-17.08,16.47-18.2,6.79-1.05,10.11,6.07,10.11,6.07Z"/>
  <g>
    <path class="cls-2" d="m233.68,196.57c-4.9,0-11.37-5.19-11.95-11.25-.68-7.2,6.37-10.55,10.2-11.33.08-.02.16-.03.24-.04.16-.02.31-.02.46-.02.99,0,2.45.34,3.75,1.94,2.96,3.63,3.48,12.08,2.56,16.53-.53,2.57-2.54,4.16-5.25,4.16h0Z"/>
    <path class="cls-4" d="m232.62,176.44c3.59,0,4.94,10.24,3.86,15.46-.32,1.52-1.4,2.17-2.8,2.17-3.5,0-9-4.08-9.46-8.98-.65-6.86,8.2-8.64,8.2-8.64.07,0,.13-.01.2-.01m0-5c-.24,0-.48.01-.72.04-.16.02-.31.04-.47.07-4.59.92-13.04,5.04-12.19,14.01.71,7.48,8.48,13.51,14.44,13.51,3.9,0,6.92-2.42,7.7-6.15.55-2.64.62-6.07.2-9.43-.35-2.79-1.2-6.66-3.26-9.19-1.5-1.84-3.52-2.86-5.69-2.86h0Z"/>
  </g>
  <ellipse class="cls-1" cx="165.07" cy="108.27" rx="3.09" ry="2.12"/>
  <ellipse class="cls-1" cx="169.79" cy="101.75" rx="4.72" ry="4.15"/>
  <ellipse class="cls-1" cx="97.85" cy="108.27" rx="3.09" ry="2.12"/>
  <ellipse class="cls-1" cx="102.57" cy="101.75" rx="4.72" ry="4.15"/>
  <g>
    <path class="cls-2" d="m35.62,196.57c-2.7,0-4.71-1.6-5.25-4.16-.93-4.45-.4-12.9,2.56-16.53,1.3-1.6,2.76-1.94,3.75-1.94.15,0,.3,0,.46.02.08,0,.16.02.24.04,3.82.77,10.88,4.13,10.2,11.33-.57,6.06-7.05,11.25-11.95,11.25Z"/>
    <path class="cls-4" d="m36.67,176.44c.07,0,.13,0,.2.01,0,0,8.85,1.78,8.2,8.64-.46,4.9-5.96,8.98-9.46,8.98-1.4,0-2.49-.65-2.8-2.17-1.08-5.21.27-15.46,3.86-15.46m0-5h0c-2.17,0-4.19,1.02-5.69,2.86-2.06,2.53-2.91,6.39-3.26,9.19-.42,3.35-.35,6.79.2,9.43.78,3.74,3.8,6.15,7.7,6.15,5.96,0,13.73-6.03,14.44-13.51.85-8.97-7.6-13.09-12.19-14.01-.16-.03-.31-.06-.47-.07-.24-.02-.48-.04-.72-.04h0Z"/>
  </g>
  <g>
    <g>
      <path class="cls-2" d="m134.96,153.59c-.95,0-1.81-.54-2.24-1.38-.42-.85-.33-1.86.24-2.62,6.53-8.71,13.76-16.03,21.5-21.76,13.85-10.26,29.05-15.46,45.16-15.46,1.44,0,2.91.04,4.36.13,2.62.15,4.67,2.32,4.67,4.95v.45c3.84.63,7.58,1.58,11.16,2.84,1.98.69,3.31,2.57,3.31,4.67v4.6c0,1.15-.79,2.16-1.91,2.43l-1.89.46-.62.17c-.21.06-.43.09-.65.09-.54,0-1.08-.18-1.52-.52-.62-.47-.98-1.21-.98-1.98v-3.35c-3.56-1.12-7.29-1.91-11.11-2.33-1.92-.22-3.37-1.84-3.37-3.76v-1.23c-.47,0-.94-.01-1.4-.01-15.44,0-38.29,5.67-59.47,32.69-.47.6-1.2.96-1.97.96h-3.26Z"/>
      <path class="cls-4" d="m199.61,114.86c1.4,0,2.81.04,4.22.12,1.29.07,2.31,1.15,2.31,2.45v2.61c4.43.58,8.74,1.6,12.83,3.03.98.34,1.64,1.27,1.64,2.31v4.6l-1.89.46s-.04.01-.07.02l-.62.17v-5.15c-4.24-1.48-8.72-2.5-13.33-3.02-.65-.07-1.14-.62-1.14-1.28v-3.63c-1.32-.07-2.62-.11-3.9-.11-28.5,0-48.79,17.51-61.44,33.65h-3.26c3.3-4.41,10.4-13.41,20.99-21.25,13.42-9.94,28.09-14.97,43.67-14.97m0-5v5-5c-16.66,0-32.36,5.37-46.65,15.96-7.93,5.88-15.34,13.37-22.01,22.27-1.14,1.52-1.32,3.54-.47,5.24.85,1.69,2.58,2.76,4.47,2.76h3.26c1.54,0,2.99-.71,3.93-1.91,11.22-14.3,30.08-31.32,56.54-31.73.54,2.62,2.7,4.67,5.46,4.98,3.04.34,6.01.92,8.89,1.72v1.48c0,1.56.72,3.02,1.96,3.97.88.68,1.95,1.03,3.04,1.03.44,0,.88-.06,1.31-.17l.58-.16,1.86-.45c2.24-.54,3.82-2.55,3.82-4.86v-4.6c0-3.16-2.01-5.99-4.99-7.03-3.12-1.1-6.36-1.97-9.67-2.6-.73-3.16-3.47-5.57-6.83-5.76-1.5-.09-3.01-.13-4.5-.13h0Z"/>
    </g>
    <g>
      <path class="cls-2" d="m131.07,153.59c-.77,0-1.49-.35-1.97-.96-11.69-14.91-31.49-32.69-59.48-32.69-.47,0-.94,0-1.42.02v1.23c0,1.93-1.44,3.55-3.36,3.76-3.81.43-7.54,1.21-11.1,2.33v3.35c0,.78-.36,1.51-.98,1.99-.44.34-.98.51-1.52.51-.22,0-.44-.03-.65-.09l-.62-.17-1.89-.46c-1.12-.27-1.91-1.28-1.91-2.43v-4.6c0-2.1,1.33-3.98,3.32-4.67,3.57-1.26,7.31-2.21,11.14-2.83v-.45c0-2.63,2.05-4.8,4.67-4.95,1.46-.08,2.93-.13,4.38-.13,16.12,0,31.31,5.19,45.14,15.44,7.85,5.81,14.88,12.94,21.51,21.79.57.76.66,1.77.23,2.62-.42.85-1.29,1.38-2.24,1.38h-3.26Z"/>
      <path class="cls-4" d="m69.68,114.86c15.58,0,30.25,5.02,43.65,14.95,10.59,7.84,17.7,16.88,21,21.28h-3.26c-12.64-16.13-32.93-33.65-61.45-33.65-1.29,0-2.59.04-3.91.11v3.63c0,.66-.49,1.21-1.14,1.28-4.6.52-9.08,1.53-13.32,3.02v5.15l-.62-.17s-.04-.01-.07-.02l-1.89-.46v-4.6c0-1.04.66-1.97,1.64-2.31,4.09-1.44,8.4-2.46,12.82-3.03v-2.61c0-1.3,1.01-2.38,2.31-2.45,1.42-.08,2.83-.12,4.24-.12m0-5c-1.49,0-3.02.04-4.52.13-3.36.19-6.1,2.6-6.83,5.76-3.31.64-6.55,1.51-9.67,2.6-2.98,1.04-4.98,3.87-4.98,7.03v4.6c0,2.31,1.58,4.32,3.83,4.86l1.86.45.58.16c.43.12.87.17,1.3.17,1.09,0,2.16-.35,3.04-1.03,1.24-.95,1.96-2.41,1.96-3.97v-1.48c2.87-.8,5.85-1.37,8.88-1.72,2.75-.31,4.92-2.36,5.46-4.98,26.48.4,45.34,17.42,56.55,31.72.95,1.21,2.4,1.92,3.94,1.92h3.26c1.89,0,3.62-1.07,4.47-2.76.85-1.69.67-3.72-.47-5.23-6.68-8.92-14.1-16.43-22.03-22.3-14.27-10.57-29.96-15.93-46.63-15.93h0Z"/>
    </g>
  </g>
  <path class="cls-2" d="m226.11,193.36c-2.6-2.27-4.18-5.12-4.46-8.02-.66-7.02,5.97-10.41,9.88-11.33v-36.99c0-3.57-3.34-6.21-6.82-5.37l-5.38,1.3-76.57,20.71h-16.18l-76.62-20.71-5.39-1.3c-3.47-.84-6.82,1.79-6.82,5.37v36.99c3.91.91,10.56,4.3,9.89,11.33-.27,2.9-1.86,5.75-4.46,8.02-1.68,1.47-3.6,2.51-5.43,2.99v41.09c0,2.55,1.75,4.76,4.23,5.37l84.54,20.46h16.24l84.54-20.46c2.48-.61,4.23-2.82,4.23-5.37v-41.09c-1.82-.48-3.74-1.52-5.42-2.98Z"/>
  <g>
    <g>
      <path class="cls-2" d="m133.96,151.59l.6-.8c6.41-8.55,13.51-15.74,21.09-21.36,13.5-10,28.29-15.07,43.97-15.07,1.4,0,2.83.04,4.25.12,1.56.09,2.78,1.38,2.78,2.95v2.17c4.31.59,8.51,1.6,12.5,3,1.18.41,1.97,1.53,1.97,2.78v5l-2.28.55-1.3.35v-5.45c-4.11-1.41-8.44-2.38-12.88-2.87-.91-.1-1.59-.87-1.59-1.78v-3.16c-1.14-.05-2.28-.08-3.4-.08-28.77,0-49.08,18.19-61.05,33.46l-.15.19h-4.51Z"/>
      <path class="cls-4" d="m199.61,114.86c1.4,0,2.81.04,4.22.12,1.29.07,2.31,1.15,2.31,2.45v2.61c4.43.58,8.74,1.6,12.83,3.03.98.34,1.64,1.27,1.64,2.31v4.6l-1.89.46s-.04.01-.07.02l-.62.17v-5.15c-4.24-1.48-8.72-2.5-13.33-3.02-.65-.07-1.14-.62-1.14-1.28v-3.63c-1.32-.07-2.62-.11-3.9-.11-28.5,0-48.79,17.51-61.44,33.65h-3.26c3.3-4.41,10.4-13.41,20.99-21.25,13.42-9.94,28.09-14.97,43.67-14.97m0-1c-15.79,0-30.68,5.1-44.27,15.17-7.62,5.65-14.75,12.86-21.19,21.46l-1.2,1.6h5.75l.3-.38c11.9-15.17,32.08-33.26,60.66-33.26.96,0,1.93.02,2.9.06v2.68c0,1.17.87,2.14,2.03,2.27,4.29.48,8.47,1.4,12.44,2.74v5.75l1.26-.34.62-.17,1.93-.47.76-.19v-5.39c0-1.46-.93-2.77-2.31-3.25-3.88-1.37-7.97-2.36-12.16-2.96v-1.74c0-1.83-1.43-3.35-3.25-3.45-1.42-.08-2.86-.12-4.28-.12h0Z"/>
    </g>
    <g>
      <path class="cls-2" d="m130.83,151.59l-.15-.19c-11.96-15.26-32.26-33.46-61.05-33.46-1.13,0-2.27.03-3.42.08v3.16c0,.91-.68,1.67-1.59,1.78-4.44.5-8.77,1.47-12.87,2.87v5.45l-1.25-.34-2.33-.56v-5c0-1.25.79-2.37,1.98-2.78,3.98-1.4,8.18-2.41,12.48-3v-2.17c0-1.57,1.22-2.86,2.78-2.95,1.42-.08,2.86-.12,4.27-.12,15.68,0,30.47,5.06,43.95,15.05,7.69,5.69,14.59,12.69,21.1,21.38l.6.8h-4.51Z"/>
      <path class="cls-4" d="m69.68,114.86c15.58,0,30.25,5.02,43.65,14.95,10.59,7.84,17.7,16.88,21,21.28h-3.26c-12.64-16.13-32.93-33.65-61.45-33.65-1.29,0-2.59.04-3.91.11v3.63c0,.66-.49,1.21-1.14,1.28-4.6.52-9.08,1.53-13.32,3.02v5.15l-.62-.17s-.04-.01-.07-.02l-1.89-.46v-4.6c0-1.04.66-1.97,1.64-2.31,4.09-1.44,8.4-2.46,12.82-3.03v-2.61c0-1.3,1.01-2.38,2.31-2.45,1.42-.08,2.83-.12,4.24-.12m0-1c-1.42,0-2.86.04-4.29.12-1.82.1-3.25,1.62-3.25,3.45v1.74c-4.18.6-8.27,1.6-12.15,2.96-1.38.48-2.31,1.79-2.31,3.25v5.39l.77.18,1.89.46.66.18,1.26.34v-5.75c3.97-1.33,8.15-2.25,12.43-2.74,1.16-.13,2.03-1.11,2.03-2.27v-2.68c.98-.04,1.95-.06,2.91-.06,28.59,0,48.77,18.09,60.66,33.26l.3.38h5.75l-1.2-1.6c-6.54-8.74-13.48-15.76-21.21-21.48-13.57-10.05-28.46-15.14-44.25-15.14h0Z"/>
    </g>
  </g>
  <ellipse class="cls-3" cx="134.64" cy="169.05" rx="6.62" ry="6.23"/>
  <path class="cls-4" d="m142.76,263.26l1.29-.31v-109.28c0-.12-.02-.23-.05-.34l-1.24.34h-1.29v109.59h1.29Z"/>
  <path class="cls-4" d="m126.52,263.26h1.35v-109.59h-1.29l-1.24-.33c-.03.11-.05.22-.05.33v109.3l1.22.3Z"/>
</svg>