<?xml version="1.0" encoding="utf-8"?>
<!-- Generator: Adobe Illustrator 23.0.2, SVG Export Plug-In . SVG Version: 6.00 Build 0)  -->
<svg version="1.1" id="Calque_1" xmlns="http://www.w3.org/2000/svg" xmlns:xlink="http://www.w3.org/1999/xlink" x="0px" y="0px"
	 viewBox="0 0 100 100" style="enable-background:new 0 0 100 100;" xml:space="preserve">
<style type="text/css">
	.st0{fill-rule:evenodd;clip-rule:evenodd;fill:#DE6339;enable-background:new    ;}
</style>
<path class="st0" d="M32.9,15.5l30.4,0c0.5,0,0.9,0.4,0.9,0.9c0,0.2,0,0.3-0.1,0.4l0,0L53,36.8l14,0c0.5,0,0.9,0.4,0.9,0.9
	c0,0.2,0,0.3-0.1,0.4h0L42.3,84c-0.2,0.4-0.8,0.6-1.2,0.3c-0.3-0.2-0.5-0.5-0.5-0.8l0-31.2l-7.7,0c-0.5,0-0.9-0.4-0.9-0.9l0-35
	C32.1,15.9,32.5,15.5,32.9,15.5L32.9,15.5z M61.9,17.3l-28,0l0,33.2l7.7,0c0.5,0,0.9,0.4,0.9,0.9l0,28.7l23.2-41.5l-14,0
	c-0.2,0-0.3,0-0.5-0.1c-0.4-0.2-0.6-0.8-0.3-1.2L61.9,17.3z"/>
</svg>
