<?xml version="1.0" encoding="utf-8"?>
<!-- Generator: Adobe Illustrator 23.0.2, SVG Export Plug-In . SVG Version: 6.00 Build 0)  -->
<svg version="1.1" id="Calque_1" xmlns="http://www.w3.org/2000/svg" xmlns:xlink="http://www.w3.org/1999/xlink" x="0px" y="0px"
	 viewBox="0 0 100 100" style="enable-background:new 0 0 100 100;" xml:space="preserve">
<style type="text/css">
	.st0{fill:#FFFFFF;}
</style>
<path class="st0" d="M64,74.2L25.8,36c-2.8-2.8-2.8-7.3,0-10.1l0,0c2.8-2.8,7.3-2.8,10.1,0L74.2,64c2.8,2.8,2.8,7.3,0,10.1l0,0
	C71.4,76.9,66.8,76.9,64,74.2z"/>
<path class="st0" d="M74.2,36L36,74.2c-2.8,2.8-7.3,2.8-10.1,0l0,0c-2.8-2.8-2.8-7.3,0-10.1L64,25.8c2.8-2.8,7.3-2.8,10.1,0l0,0
	C76.9,28.6,76.9,33.2,74.2,36z"/>
</svg>
