<?xml version="1.0" encoding="utf-8"?>
<!-- Generator: Adobe Illustrator 23.0.2, SVG Export Plug-In . SVG Version: 6.00 Build 0)  -->
<svg version="1.1" id="Calque_1" xmlns="http://www.w3.org/2000/svg" xmlns:xlink="http://www.w3.org/1999/xlink" x="0px" y="0px"
	 viewBox="0 0 100 100" style="enable-background:new 0 0 100 100;" xml:space="preserve">
<style type="text/css">
	.st0{fill-rule:evenodd;clip-rule:evenodd;fill:#DE6339;enable-background:new    ;}
</style>
<path class="st0" d="M73.1,25.4h-4.5v6c0,0.4-0.3,0.8-0.8,0.8c-0.4,0-0.8-0.3-0.8-0.8v-6H33v6c0,0.4-0.3,0.8-0.8,0.8
	c-0.4,0-0.8-0.3-0.8-0.8v-6h-4.5c-0.9,0-1.6,0.3-2.2,0.9v0c-0.6,0.6-0.9,1.3-0.9,2.2v49.9c0,0.9,0.3,1.6,0.9,2.2
	c0.6,0.6,1.3,0.9,2.2,0.9h46.1c0.9,0,1.6-0.3,2.2-0.9l0,0c0.6-0.6,0.9-1.3,0.9-2.2V28.5c0-0.9-0.3-1.6-0.9-2.2
	C74.7,25.7,73.9,25.4,73.1,25.4L73.1,25.4z M53.1,56.2v-6.1c0-0.3,0.1-0.6,0.3-0.8c0.2-0.2,0.5-0.3,0.8-0.3H63
	c0.3,0,0.6,0.1,0.8,0.3v0c0.2,0.2,0.3,0.5,0.3,0.8v6.1H53.1L53.1,56.2z M64.2,57.7v6.1c0,0.3-0.1,0.6-0.3,0.8
	C63.6,64.9,63.3,65,63,65h-8.8c-0.3,0-0.6-0.1-0.8-0.3l0,0c-0.2-0.2-0.3-0.5-0.3-0.8v-6.1H64.2L64.2,57.7z M47.7,65
	c0.4,0,0.8,0.3,0.8,0.8c0,0.4-0.3,0.8-0.8,0.8H37c-0.7,0-1.4-0.3-1.9-0.8c0,0,0,0,0-0.1c-0.5-0.5-0.8-1.2-0.8-1.9v-5
	c0-0.7,0.3-1.4,0.8-1.9l0,0c0.5-0.5,1.2-0.8,1.9-0.8h8.8c0.3,0,0.6-0.1,0.8-0.3c0.2-0.2,0.3-0.5,0.3-0.8v-5c0-0.3-0.1-0.6-0.3-0.8
	c-0.2-0.2-0.5-0.3-0.8-0.3h-10c-0.4,0-0.8-0.3-0.8-0.8c0-0.4,0.3-0.8,0.8-0.8h10c0.7,0,1.4,0.3,1.9,0.8v0c0.5,0.5,0.8,1.2,0.8,1.9v5
	c0,0.8-0.3,1.4-0.8,1.9c-0.5,0.5-1.2,0.8-1.9,0.8H37c-0.3,0-0.6,0.1-0.8,0.3c-0.2,0.2-0.3,0.5-0.3,0.8v5c0,0.3,0.1,0.6,0.3,0.8l0,0
	c0.2,0.2,0.5,0.3,0.8,0.3H47.7L47.7,65z M63,66.6h-8.8c-0.8,0-1.4-0.3-1.9-0.8c0,0,0,0,0-0.1c-0.5-0.5-0.8-1.2-0.8-1.9V57v-6.9
	c0-0.7,0.3-1.4,0.8-1.9l0,0c0.5-0.5,1.2-0.8,1.9-0.8H63c0.7,0,1.4,0.3,1.9,0.8l0,0v0c0.5,0.5,0.8,1.2,0.8,1.9V57v6.9
	c0,0.7-0.3,1.4-0.8,1.9C64.5,66.3,63.8,66.6,63,66.6L63,66.6z M67,23.8v-6c0-0.4,0.3-0.8,0.8-0.8c0.4,0,0.8,0.3,0.8,0.8v6h4.5
	c1.3,0,2.5,0.5,3.3,1.4c0.8,0.8,1.4,2,1.4,3.3v49.9c0,1.3-0.5,2.4-1.4,3.3l0,0c-0.8,0.8-2,1.4-3.3,1.4H26.9c-1.3,0-2.5-0.5-3.3-1.4
	c-0.8-0.8-1.4-2-1.4-3.3V28.5c0-1.3,0.5-2.4,1.4-3.3l0,0v0h0c0.8-0.8,2-1.4,3.3-1.4h4.5v-6c0-0.4,0.3-0.8,0.8-0.8
	c0.4,0,0.8,0.3,0.8,0.8v6H67L67,23.8z M71.3,38.3v37.4H28.7V38.3H71.3L71.3,38.3z M28,36.7H72c0.4,0,0.8,0.3,0.8,0.8v38.9
	c0,0.4-0.4,0.8-0.8,0.8H28c-0.4,0-0.8-0.3-0.8-0.8V37.5C27.2,37.1,27.5,36.7,28,36.7z"/>
</svg>
