<?xml version="1.0" encoding="utf-8"?>
<!-- Generator: Adobe Illustrator 23.0.2, SVG Export Plug-In . SVG Version: 6.00 Build 0)  -->
<svg version="1.1" id="Calque_1" xmlns="http://www.w3.org/2000/svg" xmlns:xlink="http://www.w3.org/1999/xlink" x="0px" y="0px"
	 viewBox="0 0 100 100" style="enable-background:new 0 0 100 100;" xml:space="preserve">
<style type="text/css">
	.st0{opacity:0.8;fill-rule:evenodd;clip-rule:evenodd;fill:#CECECE;}
</style>
<path class="st0" d="M92.8,73.8L66.7,54.1L50.6,66.3c-0.3,0.3-0.9,0.3-1.2,0L33.3,54.1L7.2,73.8c0.1,0.9,0.5,1.6,1.1,2.2h0
	c0.7,0.7,1.7,1.2,2.8,1.2h77.6c1.1,0,2.1-0.5,2.8-1.2C92.3,75.5,92.7,74.7,92.8,73.8L92.8,73.8z M66.1,52L50,64.2L33.9,52l0,0
	L7.2,31.8v-5c0-1.1,0.5-2.1,1.2-2.9c0.7-0.7,1.7-1.2,2.8-1.2h77.6c1.1,0,2.1,0.5,2.8,1.2l0,0c0.7,0.7,1.2,1.7,1.2,2.9v5L66.1,52
	L66.1,52L66.1,52z M68.4,52.8l24.5-18.5v37L68.4,52.8L68.4,52.8z M7.2,34.3l24.5,18.5L7.2,71.3V34.3L7.2,34.3z M11.2,20.7h77.6
	c1.7,0,3.2,0.7,4.3,1.8l0,0c1.1,1.1,1.8,2.6,1.8,4.3v46.4c0,1.7-0.7,3.2-1.8,4.3c-1.1,1.1-2.6,1.8-4.3,1.8H11.2
	c-1.7,0-3.2-0.7-4.3-1.8l0,0h0l0,0c-1.1-1.1-1.8-2.6-1.8-4.3V26.8c0-1.7,0.7-3.2,1.8-4.3C8,21.4,9.5,20.7,11.2,20.7z"/>
</svg>
