<?xml version="1.0" encoding="utf-8"?>
<!-- Generator: Adobe Illustrator 23.0.2, SVG Export Plug-In . SVG Version: 6.00 Build 0)  -->
<svg version="1.1" id="Calque_1" xmlns="http://www.w3.org/2000/svg" xmlns:xlink="http://www.w3.org/1999/xlink" x="0px" y="0px"
	 viewBox="0 0 100 100" style="enable-background:new 0 0 100 100;" xml:space="preserve">
<style type="text/css">
	.st0{opacity:0.8;fill-rule:evenodd;clip-rule:evenodd;fill:#CECECE;}
</style>
<path class="st0" d="M54.9,28.1c2.6,0.8,4.9,2.2,6.7,4.1c3,3,4.8,7.1,4.8,11.7c0,0.5-0.4,1-1,1H34.5c-0.6,0-1-0.4-1-1
	c0-4.6,1.8-8.7,4.8-11.7c1.9-1.9,4.2-3.3,6.7-4.1c-0.9-0.5-1.8-1.1-2.5-1.9c-1.9-1.9-3.1-4.5-3.1-7.5s1.2-5.5,3.1-7.4
	c1.9-1.9,4.5-3.1,7.4-3.1c2.9,0,5.5,1.2,7.5,3.1c1.9,1.9,3.1,4.5,3.1,7.4s-1.2,5.5-3.1,7.4l0,0v0C56.7,27,55.9,27.6,54.9,28.1
	L54.9,28.1z M49,47.8c0-0.6,0.4-1,1-1c0.6,0,1,0.4,1,1v6.7c2,0.2,3.7,1.1,5,2.4l0,0c1.5,1.5,2.5,3.7,2.5,6c0,1.8-0.6,3.4-1.5,4.8
	l5.4,5.4c0.4,0.4,0.4,1,0,1.4c-0.4,0.4-1,0.4-1.4,0l-5.3-5.3c-1.5,1.4-3.5,2.2-5.7,2.2c-2.1,0-4.1-0.8-5.6-2.1l-5.2,5.2
	c-0.4,0.4-1,0.4-1.4,0c-0.4-0.4-0.4-1,0-1.4l5.2-5.2c-1-1.4-1.6-3.1-1.6-5c0-2.4,1-4.5,2.5-6c1.3-1.3,3.1-2.2,5-2.4V47.8L49,47.8z
	 M45.1,67.3L45.1,67.3C45.2,67.4,45.2,67.4,45.1,67.3c0.1,0.1,0.2,0.2,0.2,0.3l0,0c1.2,1.2,2.8,1.9,4.6,1.9c1.8,0,3.4-0.7,4.6-1.9
	c1.2-1.2,1.9-2.8,1.9-4.6c0-1.8-0.7-3.4-1.9-4.6c-1.2-1.2-2.8-1.9-4.6-1.9h0c-1.8,0-3.4,0.7-4.6,1.9c-1.2,1.2-1.9,2.8-1.9,4.6
	C43.5,64.6,44.1,66.2,45.1,67.3L45.1,67.3z M21.6,55.2c-2.9,0-5.5,1.2-7.5,3.1c-1.9,1.9-3.1,4.5-3.1,7.5s1.2,5.5,3.1,7.4
	c0.7,0.7,1.6,1.4,2.5,1.9c-2.6,0.8-4.9,2.2-6.7,4.1c-3,3-4.8,7.1-4.8,11.7c0,0.5,0.4,1,1,1h31.1c0.6,0,1-0.4,1-1
	c0-4.6-1.9-8.7-4.8-11.7c-1.9-1.9-4.2-3.3-6.7-4.1c0.9-0.5,1.8-1.1,2.5-1.9v0l0,0c1.9-1.9,3.1-4.5,3.1-7.4c0-2.9-1.2-5.5-3.1-7.5
	C27.2,56.3,24.5,55.2,21.6,55.2L21.6,55.2z M27.7,59.6c1.5,1.5,2.5,3.7,2.5,6c0,2.4-1,4.5-2.5,6h0c-1.5,1.5-3.7,2.5-6,2.5h0
	c-2.4,0-4.5-1-6-2.5c-1.5-1.5-2.5-3.7-2.5-6c0-2.4,1-4.5,2.5-6c1.5-1.5,3.7-2.5,6-2.5C24,57.1,26.1,58.1,27.7,59.6L27.7,59.6z
	 M31.9,80.5c2.4,2.4,4,5.7,4.2,9.3h-29c0.2-3.6,1.8-6.9,4.2-9.3c2.6-2.6,6.3-4.3,10.3-4.3h0C25.6,76.2,29.3,77.9,31.9,80.5
	L31.9,80.5z M78.4,55.2c-2.9,0-5.5,1.2-7.5,3.1c-1.9,1.9-3.1,4.5-3.1,7.5s1.2,5.5,3.1,7.4c0.7,0.7,1.6,1.4,2.5,1.9
	c-2.6,0.8-4.9,2.2-6.7,4.1c-3,3-4.8,7.1-4.8,11.7c0,0.5,0.4,1,1,1h31.1c0.5,0,1-0.4,1-1c0-4.6-1.8-8.7-4.8-11.7
	c-1.9-1.9-4.2-3.3-6.7-4.1c0.9-0.5,1.8-1.1,2.5-1.9l0,0h0c1.9-1.9,3.1-4.5,3.1-7.4c0-2.9-1.2-5.5-3.1-7.5
	C83.9,56.3,81.3,55.2,78.4,55.2L78.4,55.2z M84.4,59.6c1.5,1.5,2.5,3.7,2.5,6c0,2.4-1,4.5-2.5,6h0c-1.5,1.5-3.7,2.5-6,2.5h0
	c-2.4,0-4.5-1-6-2.5c-1.5-1.5-2.5-3.7-2.5-6c0-2.4,1-4.5,2.5-6c1.5-1.5,3.7-2.5,6-2.5C80.7,57.1,82.9,58.1,84.4,59.6L84.4,59.6z
	 M88.6,80.5c2.4,2.4,4,5.7,4.2,9.3h-29c0.2-3.6,1.8-6.9,4.2-9.3c2.6-2.6,6.3-4.3,10.3-4.3h0C82.4,76.2,86,77.9,88.6,80.5L88.6,80.5z
	 M50,27.3L50,27.3c2.4,0,4.5-1,6-2.5v0c1.5-1.5,2.5-3.7,2.5-6c0-2.4-1-4.5-2.5-6c-1.5-1.5-3.7-2.5-6-2.5c-2.4,0-4.5,1-6,2.5
	c-1.5,1.5-2.5,3.7-2.5,6s1,4.5,2.5,6C45.5,26.4,47.6,27.3,50,27.3L50,27.3z M60.3,33.6C57.6,31,54,29.3,50,29.3h0
	c-4,0-7.6,1.6-10.3,4.3c-2.4,2.4-4,5.7-4.2,9.3h29C64.2,39.2,62.7,36,60.3,33.6z"/>
</svg>
