<?xml version="1.0" encoding="utf-8"?>
<!-- Generator: Adobe Illustrator 23.0.2, SVG Export Plug-In . SVG Version: 6.00 Build 0)  -->
<svg version="1.1" id="Calque_1" xmlns="http://www.w3.org/2000/svg" xmlns:xlink="http://www.w3.org/1999/xlink" x="0px" y="0px"
	 viewBox="0 0 100 100" style="enable-background:new 0 0 100 100;" xml:space="preserve">
<style type="text/css">
	.st0{opacity:0.8;fill-rule:evenodd;clip-rule:evenodd;fill:#CECECE;}
</style>
<path class="st0" d="M61.5,50.5c0,0.5,0.1,1.1,0.1,1.8c0.2,2.2,0.4,5.2,0.6,6.4l2.9,1.8c5.6,1.2,10.6,3.1,14,5.7
	c3.2,2.4,5.2,5.5,5.2,9.2l0,0l0,11.5c0,1.4-0.6,2.7-1.5,3.6l0,0c-0.9,0.9-2.2,1.5-3.6,1.5H51h0H49H20.7c-1.4,0-2.7-0.6-3.6-1.5h0
	l0,0l0,0c-0.9-0.9-1.5-2.2-1.5-3.6V75.4c0-3.7,1.9-6.7,5.2-9.2c3.5-2.6,8.4-4.5,14-5.7l2.9-1.9c0.3-1.2,0.4-4.2,0.6-6.4
	c0-0.7,0.1-1.3,0.1-1.8c-0.5-0.5-0.9-1-1.3-1.6c-1.7-2.2-3.2-4.8-4.2-7.5c-1-2.6-1.5-5.3-1.5-8v-0.1c0-0.1,0-0.1,0-0.2
	c0-0.4,0-0.7,0-1c0-1.4,0-2.6,0-3.7C31.2,16.8,31,8,50,8c19,0,18.8,8.8,18.6,20.4c0,1.1,0,2.2,0,3.7c0,0.1,0,0.3,0,0.6l0,0.4
	c0,0.1,0,0.1,0,0.2h0v0.1c0,0.6,0,1.2-0.1,1.8l0,0l0,0c-0.2,2.1-0.7,4.2-1.4,6.2c-1,2.7-2.4,5.3-4.2,7.5C62.5,49.5,62,50,61.5,50.5
	L61.5,50.5z M39.9,49.5L39.9,49.5L39.9,49.5L39.9,49.5c1.3,1.4,2.7,2.5,4.2,3.4C46,54,48,54.6,50,54.6s4-0.6,5.9-1.7
	c2.1-1.2,4-3,5.6-5.1c1.6-2.1,3-4.5,3.9-7c0.7-1.8,1.1-3.8,1.3-5.7l-1-4.3c-0.2-0.8-0.4-1.7-0.4-2.4c-0.1-0.7-0.1-1.5-0.1-2.2
	c0-0.9,0-1.7-0.2-2.5c-0.1-0.7-0.4-1.4-0.8-1.9l0,0c-0.7-0.8-1.6-1.1-2.6-1.1c-1.2,0-2.6,0.4-4.2,0.8h0c-2.3,0.6-4.7,1.2-7.4,1.2
	c-2.7,0-5.1-0.6-7.4-1.2c0,0-0.1,0-0.1,0c-1.5-0.4-3-0.8-4.2-0.8c-1.1,0-2,0.3-2.6,1.2c-0.4,0.6-0.7,1.2-0.8,1.9
	c-0.1,0.8-0.2,1.6-0.2,2.5c0,0.7,0,1.5-0.1,2.2c-0.1,0.8-0.2,1.6-0.4,2.4l-1,4.3c0.2,1.9,0.6,3.8,1.3,5.7c0.9,2.6,2.3,5,3.9,7
	C38.9,48.4,39.4,49,39.9,49.5L39.9,49.5z M40,52l0,0.3c-0.1,2.1-0.3,4.9-0.5,6.5l10.6,6.1l10.5-6c-0.3-1.5-0.5-4.3-0.6-6.4l0-0.3
	c-1,0.9-2,1.7-3.1,2.3c-2.2,1.3-4.5,2-6.8,2s-4.6-0.7-6.8-2C42.1,53.7,41,52.9,40,52L40,52z M67,25.9C67,16.5,65.9,9.7,50,9.7
	c-15.9,0-17,6.8-17,16.2c0-0.8,0.1-1.7,0.2-2.5c0.2-1,0.5-1.9,1.1-2.7c1.1-1.4,2.4-1.8,4-1.8c1.4,0,2.9,0.4,4.6,0.8l0.1,0
	c2.1,0.6,4.5,1.2,7,1.2c2.5,0,4.8-0.6,7-1.2h0c1.7-0.4,3.2-0.8,4.6-0.9c1.5,0,2.9,0.4,3.9,1.8l0,0c0.6,0.8,1,1.7,1.1,2.7
	C66.9,24.2,67,25,67,25.9L67,25.9z M48.8,70l0.5,1.3c0.1,0.2,0.2,0.4,0.3,0.6c0.1,0.3,0.1,0.5,0.1,0.8l0,0C49.2,76,48.8,79,48.4,82
	c-0.2,1.7-0.5,3.4-0.7,5.1l1.8,3.2h0.9l2-3.5c-0.2-1.6-0.4-3.2-0.6-4.8c-0.4-3-0.8-6-1.2-9.2c0-0.3,0-0.6,0.1-0.8
	c0.1-0.2,0.1-0.4,0.3-0.6l0.5-1.3l-1.3-2.4L48.8,70L48.8,70z M52.5,71.9L52.5,71.9L52.5,71.9c-0.1,0.1-0.1,0.2-0.1,0.2
	c-0.1,0.1-0.1,0.2-0.1,0.3c0,0.1,0,0.1,0,0.2c0.4,3.4,0.8,6.3,1.2,9.2l0.3,2.6c0.4-0.7,0.8-1.3,1.1-2l0,0c3.4-6,5.8-10.2,8.2-18.1
	l-8.9,8.6c-0.3,0.3-0.9,0.3-1.2,0c-0.1-0.1-0.1-0.1-0.1-0.2l0,0L52.5,71.9L52.5,71.9z M46.4,84.6l0.4-2.8c0.4-2.9,0.8-5.8,1.2-9.2v0
	c0-0.1,0-0.1,0-0.2c0-0.1-0.1-0.2-0.1-0.2c0,0-0.1-0.1-0.1-0.1l0-0.1l-0.4,0.7l0,0c0,0.1-0.1,0.1-0.1,0.2c-0.3,0.3-0.9,0.4-1.2,0
	l-9.1-8.7c2.4,8,4.8,12.2,8.2,18.2l0,0C45.5,83.1,45.9,83.8,46.4,84.6L46.4,84.6z M38.5,60.2l-2,1.3l9.8,9.4l0.7-1.3l0,0l0,0l0,0
	l1.9-3.4L38.5,60.2L38.5,60.2z M63.5,61.5l-2-1.2l-10.3,5.9l1.9,3.4l0,0.1l0.7,1.3L63.5,61.5L63.5,61.5z M34.6,62.3
	c-5.1,1.1-9.6,2.9-12.7,5.2c-2.8,2.1-4.5,4.7-4.5,7.8v11.5c0,0.9,0.4,1.8,1,2.4h0c0.6,0.6,1.5,1,2.4,1h26.8l-1.5-2.6l0,0l0,0
	c-0.9-1.7-1.7-3.1-2.5-4.5l0,0C39.8,76.5,37.3,72,34.6,62.3L34.6,62.3z M52.4,90.3h26.8c0.9,0,1.8-0.4,2.4-1c0.6-0.6,1-1.5,1-2.4
	l0-11.5h0c0-3.1-1.7-5.7-4.5-7.9c-3.1-2.4-7.6-4.1-12.7-5.2c-2.7,9.7-5.3,14.2-9,20.9v0l0,0c-0.7,1.2-1.5,2.6-2.3,4.2l0,0l0,0l0,0
	l0,0l0,0L52.4,90.3z"/>
</svg>
