<?xml version="1.0" encoding="utf-8"?>
<!-- Generator: Adobe Illustrator 23.0.2, SVG Export Plug-In . SVG Version: 6.00 Build 0)  -->
<svg version="1.1" id="Calque_1" xmlns="http://www.w3.org/2000/svg" xmlns:xlink="http://www.w3.org/1999/xlink" x="0px" y="0px"
	 viewBox="0 0 100 100" style="enable-background:new 0 0 100 100;" xml:space="preserve">
<style type="text/css">
	.st0{opacity:0.9;fill:#CECECE;enable-background:new    ;}
</style>
<g>
	<path class="st0" d="M30.8,34.7h38.4c3.1,0,5.7,1.6,5.7,3.6v0c0,2-2.5,3.6-5.7,3.6H30.8c-3.1,0-5.7-1.6-5.7-3.6v0
		C25.1,36.3,27.6,34.7,30.8,34.7z"/>
	<path class="st0" d="M69.2,46.4H30.8c-3.1,0-5.7,1.6-5.7,3.6s2.5,3.6,5.7,3.6h38.4c3.1,0,5.7-1.6,5.7-3.6S72.4,46.4,69.2,46.4z"/>
	<path class="st0" d="M69.2,58.1H30.8c-3.1,0-5.7,1.6-5.7,3.6c0,2,2.5,3.6,5.7,3.6h38.4c3.1,0,5.7-1.6,5.7-3.6
		C74.9,59.7,72.4,58.1,69.2,58.1z"/>
</g>
</svg>
