<?xml version="1.0" encoding="utf-8"?>
<!-- Generator: Adobe Illustrator 23.0.2, SVG Export Plug-In . SVG Version: 6.00 Build 0)  -->
<svg version="1.1" id="Calque_1" xmlns="http://www.w3.org/2000/svg" xmlns:xlink="http://www.w3.org/1999/xlink" x="0px" y="0px"
	 viewBox="0 0 100 100" style="enable-background:new 0 0 100 100;" xml:space="preserve">
<style type="text/css">
	.st0{opacity:0.8;}
	.st1{fill-rule:evenodd;clip-rule:evenodd;fill:#CECECE;}
</style>
<g class="st0">
	<path class="st1" d="M36.3,45.9L24.8,34.4l-4.2,0.2c-0.4,0-0.7-0.1-0.9-0.4L7.3,19C7,18.6,7,18,7.4,17.6L14,11
		c0.4-0.4,1-0.4,1.4-0.1l15.2,12.4c0.3,0.2,0.4,0.5,0.4,0.9l-0.2,4.2l11.5,11.5l6.5-6.5c-0.4-3.3-0.2-6.7,0.9-9.8
		c1-3.2,2.9-6.3,5.4-8.8l0,0c3.1-3.1,7-5.1,11-6c4.2-0.9,8.6-0.6,12.6,1c0.5,0.2,0.8,0.8,0.6,1.4c-0.1,0.1-0.1,0.3-0.2,0.4l0,0
		L66.1,24.4l2.5,8.2l8.2,2.5l12.9-12.9c0.4-0.4,1.1-0.4,1.5,0c0.1,0.1,0.2,0.3,0.3,0.4c1.5,4,1.8,8.4,1,12.5c-0.9,4-2.9,7.9-6,11
		c-2.6,2.6-5.6,4.4-8.9,5.4c-3.3,1.1-6.8,1.3-10.3,0.8l0,0l19,19l0.1,0.1c1.2,1.2,1.8,2.8,1.8,4.4c0,1.6-0.6,3.3-1.9,4.5l-1.2,1.2
		l0,0l-7.2,7.2l-1.2,1.2L76.6,90c-1.2,1.2-2.8,1.8-4.4,1.8c-1.6,0-3.3-0.6-4.5-1.9L48.8,71.1L30.2,89.9c-0.6,0.6-1.3,1.1-2.1,1.4
		c-0.8,0.3-1.6,0.5-2.4,0.5c-0.9,0-1.7-0.2-2.4-0.5c-0.8-0.3-1.5-0.8-2.1-1.4L11.2,80c-1.2-1.2-1.9-2.9-1.9-4.5
		c0-1.6,0.6-3.3,1.9-4.5v0v0L36.3,45.9L36.3,45.9z M55.3,64.5l21.9,22l5.7-5.7l-21.9-22L55.3,64.5L55.3,64.5z M75.6,87.9L53.8,66
		l-2.3,2.3l-1.2,1.2l18.9,18.9c0.8,0.8,1.9,1.2,3,1.2c1.1,0,2.1-0.4,3-1.2l0-0.1L75.6,87.9L75.6,87.9z M52.8,64
		c0.1-0.1,0.1-0.2,0.2-0.3l7.2-7.2l0,0h0l4.9-5l0,0l1.2-1.2c0.4-0.4,1-0.5,1.4-0.1l0.1,0c3.1,0.5,6.2,0.2,9.1-0.7
		c2.9-0.9,5.7-2.6,8-4.9c2.8-2.8,4.7-6.3,5.4-10c0.7-3.2,0.6-6.6-0.4-9.8L77.9,36.9h0c-0.3,0.3-0.7,0.4-1.1,0.3l-9.3-2.8l0,0
		c-0.3-0.1-0.6-0.4-0.7-0.7L64,24.5c-0.2-0.4-0.1-0.8,0.2-1.2l12.2-12.2c-3.2-0.9-6.6-1-9.8-0.4c-3.7,0.8-7.1,2.6-10,5.4v0l0,0
		c-2.3,2.3-4,5.1-4.9,8c-1,3-1.2,6.2-0.7,9.3c0.1,0.3,0,0.7-0.3,1l0,0l-7.6,7.6l-4.5,4.5l0,0L12.7,72.5l0,0c-0.8,0.8-1.2,1.9-1.2,3
		c0,1.1,0.4,2.2,1.2,3l9.9,9.9c0.4,0.4,0.9,0.7,1.4,0.9c0.5,0.2,1.1,0.3,1.6,0.3c0.6,0,1.1-0.1,1.6-0.3c0.5-0.2,1-0.5,1.4-0.9
		l19.3-19.5l0.1-0.1l0.1-0.1L52.8,64L52.8,64z M62.4,57.2l21.9,22l0.5-0.5c0.8-0.8,1.2-1.9,1.2-3c0-1.1-0.4-2.1-1.2-3l-0.1-0.1
		l-19-19L62.4,57.2L62.4,57.2z M19.5,74.3l7.3,7.3l7.3-7.3L26.8,67L19.5,74.3L19.5,74.3z M26.1,83.9c0.4,0.4,1.1,0.4,1.5,0l8.8-8.8
		c0.4-0.4,0.4-1.1,0-1.5l-8.8-8.8c-0.4-0.4-1.1-0.4-1.5,0l-8.8,8.8c-0.4,0.4-0.4,1.1,0,1.5L26.1,83.9L26.1,83.9z M25.9,32.6
		l11.9,11.9l3-3L29,29.5c-0.2-0.2-0.3-0.5-0.3-0.8l0.2-4.2l-14-11.4l-5.3,5.3l11.4,14l4.2-0.2C25.4,32.3,25.7,32.4,25.9,32.6
		L25.9,32.6z M15.4,10.9L15.4,10.9L15.4,10.9z"/>
</g>
</svg>
