<?xml version="1.0" encoding="utf-8"?>
<!-- Generator: Adobe Illustrator 23.0.2, SVG Export Plug-In . SVG Version: 6.00 Build 0)  -->
<svg version="1.1" id="Calque_1" xmlns="http://www.w3.org/2000/svg" xmlns:xlink="http://www.w3.org/1999/xlink" x="0px" y="0px"
	 viewBox="0 0 100 100" style="enable-background:new 0 0 100 100;" xml:space="preserve">
<style type="text/css">
	.st0{fill:#DE6339;}
</style>
<path class="st0" d="M42.9,77V23c0-3.9,3.2-7.1,7.1-7.1h0c3.9,0,7.1,3.2,7.1,7.1v54c0,3.9-3.2,7.1-7.1,7.1h0
	C46.1,84.2,42.9,81,42.9,77z"/>
<path class="st0" d="M77,57.1H23c-3.9,0-7.1-3.2-7.1-7.1v0c0-3.9,3.2-7.1,7.1-7.1h54c3.9,0,7.1,3.2,7.1,7.1v0
	C84.2,53.9,81,57.1,77,57.1z"/>
</svg>
