<?xml version="1.0" encoding="utf-8"?>
<!-- Generator: Adobe Illustrator 23.0.2, SVG Export Plug-In . SVG Version: 6.00 Build 0)  -->
<svg version="1.1" id="Calque_1" xmlns="http://www.w3.org/2000/svg" xmlns:xlink="http://www.w3.org/1999/xlink" x="0px" y="0px"
	 viewBox="0 0 100 100" style="enable-background:new 0 0 100 100;" xml:space="preserve">
<style type="text/css">
	.st0{fill-rule:evenodd;clip-rule:evenodd;fill:#FFFFFF;}
</style>
<path class="st0" d="M71.1,60.2c-3.4-3.4-7.5-5.9-12.2-7.4c1.7-0.9,3.2-2,4.5-3.3v0C66.9,46,69,41.2,69,36s-2.1-10-5.6-13.5
	C60,19,55.2,16.9,50,16.9S40,19,36.5,22.5c-3.5,3.4-5.6,8.2-5.6,13.5c0,5.3,2.1,10,5.6,13.5c1.3,1.3,2.8,2.5,4.5,3.3
	c-4.6,1.5-8.8,4-12.2,7.4c-5.4,5.4-8.7,12.9-8.7,21.1c0,1,0.8,1.8,1.8,1.8h56.2c1,0,1.8-0.8,1.8-1.8C79.9,73,76.5,65.6,71.1,60.2z
	 M39.1,46.9c-2.8-2.8-4.5-6.7-4.5-10.9c0-4.3,1.7-8.1,4.5-10.9c2.8-2.8,6.7-4.5,10.9-4.5c4.3,0,8.1,1.7,10.9,4.5
	c2.8,2.8,4.5,6.7,4.5,10.9c0,4.3-1.7,8.1-4.5,10.9l0,0c-2.8,2.8-6.6,4.5-10.9,4.5h0C45.7,51.4,41.8,49.7,39.1,46.9z M23.8,79.5
	c0.4-6.5,3.3-12.4,7.6-16.8C36.2,58,42.7,55,50,55h0c7.3,0,13.8,2.9,18.6,7.7c4.4,4.4,7.2,10.2,7.6,16.8H23.8z"/>
</svg>
