<svg xmlns="http://www.w3.org/2000/svg" xmlns:xlink="http://www.w3.org/1999/xlink" id="Calque_1" data-name="Calque 1" viewBox="0 0 566.93 566.93"><defs><linearGradient id="Dégradé_sans_nom_21" x1="238.66" x2="392.17" y1="225.43" y2="378.93" data-name="Dégradé sans nom 21" gradientUnits="userSpaceOnUse"><stop offset=".1" stop-color="#5c5b72"/><stop offset=".5" stop-color="#b0b0bf"/><stop offset=".96" stop-color="#f4f4f6"/></linearGradient><linearGradient xlink:href="#Dégradé_sans_nom_21" id="Dégradé_sans_nom_21-2" x1="202.18" x2="365.04" y1="74.93" y2="237.79" data-name="Dégradé sans nom 21"/><linearGradient id="Dégradé_sans_nom_27" x1="263.45" x2="369.92" y1="308.72" y2="415.19" data-name="Dégradé sans nom 27" gradientUnits="userSpaceOnUse"><stop offset="0" stop-color="#b0b0bf"/><stop offset="1" stop-color="#f4f4f6"/></linearGradient><linearGradient xlink:href="#Dégradé_sans_nom_21" id="Dégradé_sans_nom_21-3" x1="189.51" x2="343.02" y1="274.58" y2="428.08" data-name="Dégradé sans nom 21"/><linearGradient id="Dégradé_sans_nom_11" x1="242.04" x2="242.05" y1="388.45" y2="388.46" data-name="Dégradé sans nom 11" gradientUnits="userSpaceOnUse"><stop offset=".1" stop-color="#5c5b72"/><stop offset=".5" stop-color="#b0b0bf"/><stop offset=".96" stop-color="#f4f4f6"/></linearGradient><linearGradient xlink:href="#Dégradé_sans_nom_21" id="Dégradé_sans_nom_21-4" x1="169.19" x2="322.7" y1="294.9" y2="448.41" data-name="Dégradé sans nom 21"/><linearGradient id="Dégradé_sans_nom_23" x1="187.47" x2="253.07" y1="316.73" y2="382.33" data-name="Dégradé sans nom 23" gradientUnits="userSpaceOnUse"><stop offset="0" stop-color="#5c5b72"/><stop offset="1" stop-color="#b0b0bf"/></linearGradient><linearGradient xlink:href="#Dégradé_sans_nom_23" id="Dégradé_sans_nom_23-2" x1="192.04" x2="244.62" y1="321.3" y2="373.88" data-name="Dégradé sans nom 23"/><radialGradient id="Dégradé_sans_nom_17" cx="283.46" cy="528.77" r="128.56" data-name="Dégradé sans nom 17" fx="283.46" fy="528.77" gradientTransform="matrix(1 .00035 -.00004 .11 .02 468.56)" gradientUnits="userSpaceOnUse"><stop offset=".4" stop-color="#343443" stop-opacity=".5"/><stop offset="1" stop-color="#343443" stop-opacity="0"/></radialGradient><radialGradient id="Dégradé_sans_nom_47" cx="333.95" cy="147.8" r="34.99" data-name="Dégradé sans nom 47" fx="333.95" fy="147.8" gradientUnits="userSpaceOnUse"><stop offset=".27" stop-color="#cd3131" stop-opacity=".7"/><stop offset="1" stop-color="#cd3131" stop-opacity="0"/></radialGradient><style>.cls-1{stroke:#cd3131;stroke-width:3.79px;fill:none;stroke-linecap:round;stroke-linejoin:round}.cls-3{fill:#343443}.cls-14{fill:#fff;opacity:.5}</style></defs><path d="M375.22 323.37c.11-.06.23-.09.35-.15l13.66-26.18c3.95-7.51-3.11-16.01-11.23-13.58l-84.07 25.49-4.6 55.58 85.89-41.17Z" style="fill:url(#Dégradé_sans_nom_21)"/><ellipse cx="283.46" cy="528.77" rx="130.62" ry="15.87" style="fill:url(#Dégradé_sans_nom_17)"/><path d="M384.98 78.12c-8.12 0-14.8 8.86-14.8 24.72 0 11.95 3.79 24.96 9.18 29.29v8.49c-17.68-35.05-53.95-59.1-95.9-59.1s-78.22 24.05-95.9 59.1v-8.49c5.39-4.33 9.18-17.35 9.18-29.29 0-15.86-6.6-24.72-14.8-24.72s-14.8 8.86-14.8 24.72c0 11.95 3.72 24.89 9.03 29.22v56.74c0 59.18 48.03 107.21 107.28 107.21s107.28-48.03 107.28-107.21v-56.74c5.31-4.33 9.03-17.28 9.03-29.22 0-15.86-6.6-24.72-14.8-24.72ZM283.46 253.56c-27.62 0-50.08-17.86-50.08-39.89s22.46-39.96 50.08-39.96 50.08 17.86 50.08 39.96-22.38 39.89-50.08 39.89Z" style="fill:url(#Dégradé_sans_nom_21-2)"/><path d="M273.96 274.02s0-10.62 9.51-10.62 9.54 10.62 9.54 10.62" style="stroke:#5c5b72;stroke-width:4px;fill:none;stroke-linecap:round;stroke-linejoin:round"/><path d="M390.26 336.45c-1.58 12.04-8.13 28.48-30.26 40-28.33 14.78-83.52 18.74-111.39 19.84-3.98.17-5.25-5.24-1.68-6.98l130.04-62.34c6.63-3.21 14.23 2.23 13.29 9.48Z" style="fill:url(#Dégradé_sans_nom_27)"/><path d="m193.87 328.04 83.41 32.79-4.29-51.87L189 283.47c-8.12-2.43-15.17 6.07-11.31 13.58l16.18 30.99Z" style="fill:url(#Dégradé_sans_nom_21-3)"/><path d="M242.03 388.48s.02-.03.03-.05c-.01.02-.02.03-.03.05Z" style="fill:url(#Dégradé_sans_nom_11)"/><path d="M248.78 400.28h-.36c-3.6 0-6.57-2.37-7.39-5.9a7.977 7.977 0 0 1-.11-3.03c-6.03-.99-11.22-2.1-15.7-3.25l45.57 87.32c5.31 10.24 20.03 10.24 25.34 0l45.77-87.69c-29.54 8.73-69.18 11.61-93.13 12.55Z" style="fill:url(#Dégradé_sans_nom_21-4)"/><path d="M313.56 219.23c1.38 18.1 9.51 27.55 19.34 27.55 10.8 0 19.55-11.4 19.55-33.14 0-3.61-.24-6.93-.69-9.97l-38.2 15.56Z" class="cls-3"/><ellipse cx="335.05" cy="227.72" class="cls-14" rx="4.54" ry="3.12"/><ellipse cx="341.99" cy="218.13" class="cls-14" rx="6.94" ry="6.1"/><path d="M253.36 219.23c-1.38 18.1-9.51 27.55-19.34 27.55-10.8 0-19.55-11.4-19.55-33.14 0-3.61.24-6.93.69-9.97l38.2 15.56Z" class="cls-3"/><ellipse cx="232.42" cy="233.82" class="cls-14" rx="4.54" ry="3.12"/><ellipse cx="239.36" cy="224.23" class="cls-14" rx="6.94" ry="6.1"/><circle cx="333.95" cy="147.8" r="34.99" style="fill:url(#Dégradé_sans_nom_47)"/><path d="M326.48 128.28s10.82 18.66-13.69 24.57M357.67 152.03s-21.51 1.7-16.25-22.96M319.88 165.59s10.66-18.75 28.13-.56" class="cls-1"/><path d="M313.56 198.36s.66 14.34 11.56 7.2c9.93-6.5 21.66-22.78 21.66-22.78s-25.96 21.9-33.22 15.58ZM253.36 198.36s-.66 14.34-11.56 7.2c-9.93-6.5-21.66-22.78-21.66-22.78s25.96 21.9 33.22 15.58Z" class="cls-3"/><path d="m245.19 385.7 38.03-18.23-91.76-36.07c-6.84-2.72-14.03 3.25-12.57 10.42 2.45 11.89 10.17 27.82 33.08 37.7 8.49 3.67 19.16 6.27 30.7 8.1.68-.77 1.52-1.43 2.52-1.92Z" style="fill:url(#Dégradé_sans_nom_23)"/><path d="m245.19 385.7 38.03-18.23-91.76-36.07c-6.84-2.72-14.03 3.25-12.57 10.42 2.45 11.89 10.17 27.82 33.08 37.7 8.49 3.67 19.16 6.27 30.7 8.1.68-.77 1.52-1.43 2.52-1.92Z" style="fill:url(#Dégradé_sans_nom_23-2)"/></svg>