<svg xmlns="http://www.w3.org/2000/svg" xmlns:xlink="http://www.w3.org/1999/xlink" id="Calque_1" data-name="Calque 1" viewBox="0 0 566.93 566.93"><defs><linearGradient id="Dégradé_sans_nom_21" x1="191.16" x2="376.1" y1="40.75" y2="225.69" data-name="Dégradé sans nom 21" gradientUnits="userSpaceOnUse"><stop offset=".1" stop-color="#5c5b72"/><stop offset=".5" stop-color="#b0b0bf"/><stop offset=".96" stop-color="#f4f4f6"/></linearGradient><linearGradient id="Dégradé_sans_nom_27" x1="425.54" x2="311.2" y1="306.13" y2="420.47" data-name="Dégradé sans nom 27" gradientUnits="userSpaceOnUse"><stop offset="0" stop-color="#b0b0bf"/><stop offset="1" stop-color="#f4f4f6"/></linearGradient><linearGradient id="Dégradé_sans_nom_23" x1="-13403.96" x2="-13307.55" y1="-13532.62" y2="-13436.21" data-name="Dégradé sans nom 23" gradientTransform="scale(1 -1) rotate(-37.22 13007.234 -27103.821)" gradientUnits="userSpaceOnUse"><stop offset="0" stop-color="#5c5b72"/><stop offset="1" stop-color="#b0b0bf"/></linearGradient><linearGradient id="Dégradé_sans_nom_15" x1="180.12" x2="348.99" y1="266.47" y2="435.34" data-name="Dégradé sans nom 15" gradientUnits="userSpaceOnUse"><stop offset=".1" stop-color="#5c5b72"/><stop offset=".5" stop-color="#b0b0bf"/><stop offset=".96" stop-color="#f4f4f6"/></linearGradient><linearGradient xlink:href="#Dégradé_sans_nom_15" id="Dégradé_sans_nom_15-2" x1="199.72" x2="368.59" y1="246.86" y2="415.73" data-name="Dégradé sans nom 15"/><radialGradient id="Dégradé_sans_nom_17" cx="283.46" cy="528.73" r="128.87" data-name="Dégradé sans nom 17" fx="283.46" fy="528.73" gradientTransform="matrix(1 .00035 -.00004 .11 .02 468.52)" gradientUnits="userSpaceOnUse"><stop offset=".4" stop-color="#343443" stop-opacity=".5"/><stop offset="1" stop-color="#343443" stop-opacity="0"/></radialGradient><style>.cls-2{fill:#343443}.cls-9{fill:#fff;opacity:.5}</style></defs><path d="M385.22 31c-8.14 0-14.83 6.39-14.83 23.65 0 13 3.8 24.18 9.2 28.9v58.43c-17.72-35.14-54.07-59.24-96.13-59.24s-78.41 24.11-96.13 59.24V83.55c5.4-4.72 9.2-15.89 9.2-28.9 0-17.26-6.62-23.65-14.83-23.65s-14.83 6.39-14.83 23.65c0 13 3.73 24.11 9.05 28.82v107.09-.12c.08 54.36 40.59 99.3 93.11 106.34 12.28-4.15 23.39-7.93 32.11-10.98.46-2.42 1.29-6.42 2.42-10.62 3.49-12.97 6.67-16.13 9.06-17.42 1.19-.65 2.4-.97 3.61-.97 1.41 0 3.48.44 5.32 2.56 2.33 2.68 3.77 7.67 4.28 14.83.33 4.64.23 9.92-.25 14.99 38.41-16.37 65.35-54.44 65.4-98.77v.16V83.48c5.32-4.72 9.05-15.82 9.05-28.82 0-17.26-6.62-23.65-14.83-23.65ZM283.46 240.39c-27.68 0-50.19-22.44-50.19-50.12s22.51-50.19 50.19-50.19 50.19 22.44 50.19 50.19-22.44 50.12-50.19 50.12Z" style="fill:url(#Dégradé_sans_nom_21)"/><ellipse cx="283.46" cy="528.73" rx="130.92" ry="15.9" style="fill:url(#Dégradé_sans_nom_17)"/><path d="M407.65 301c6.16 10.5 11.1 27.53.68 50.27-13.31 29.13-54.53 66.24-75.9 84.26-3.04 2.59-7.38-.91-5.63-4.49l64.49-129.36c3.27-6.62 12.62-7 16.35-.68Z" style="fill:url(#Dégradé_sans_nom_27)"/><path d="M313.43 122.19s18.03-7.62 39.19 17.89c0 0-13.54-25.18-24.28-26.84-10.02-1.55-14.91 8.95-14.91 8.95ZM253.5 122.19s-18.03-7.62-39.19 17.89c0 0 13.54-25.18 24.28-26.84 10.02-1.55 14.91 8.95 14.91 8.95ZM354.88 173.34s-29.74-5.4-43.29 19.58c-2.27 4.18.98 9.15 5.7 8.5 6.43-.88 15.29-1.16 24.36 1.44 0 0-5.32-9.3-13.58-11.94 0 0 2.83-13.93 26.81-17.58ZM244.72 218.69c5.33-5.18 8.86-14.81 8.86-28.59 0-21.7-8.74-33.08-19.51-33.08s-19.51 11.38-19.51 33.08c0 13.56 3.41 23.1 8.6 28.34 0 0 11-4.41 21.56.25Z" class="cls-2"/><ellipse cx="229.4" cy="181.36" class="cls-9" rx="4.54" ry="3.12"/><ellipse cx="236.33" cy="171.79" class="cls-9" rx="6.93" ry="6.09"/><path d="M261.95 250.5h43.03s-2.25 17.95-21.52 17.85c-19.64 0-21.52-17.85-21.52-17.85Z" style="fill:#5c5b72"/><path d="M321.18 292.6c-.87 6.15.29 7.21-6.28 13.23-15.68 14.37-49.65 31.88-68.25 42.7-42.05 24.46-50 8.09-50 8.09-7.33-15.41-3.95-29.91 40.27-44.8 25.39-8.55 51.56-17.32 67.75-23.01 0 0 4.08-24.38 9.87-27.53 7.12-3.87 8.77 16.16 6.63 31.33Z" style="fill:url(#Dégradé_sans_nom_23)"/><path d="m235.65 308.02 9.6-3.23c4.83-1.63 9.6-3.23 14.26-4.8l-70.73-21.47c-8.14-2.43-15.21 6.08-11.33 13.61l19.15 36.69c7.11-7.58 19.83-14.33 39.05-20.8Z" style="fill:url(#Dégradé_sans_nom_15)"/><path d="m378.22 278.52-53.27 16.15c-.04.39-.08.76-.11 1.12-.5 5.06-1.25 7.49-7.24 12.98-6.39 5.86-15.57 12.13-25.54 18.27l-4.18 50.57c-.46 5.4-8.37 5.4-8.82 0l-3.38-40.89c-4.59 2.62-9.13 5.17-13.43 7.57-4.96 2.78-9.65 5.4-13.58 7.69-12.82 7.46-23.87 11.96-32.96 13.44l55.06 105.5c5.32 10.27 20.08 10.27 25.4 0l93.31-178.8c3.95-7.53-3.12-16.05-11.26-13.61Z" style="fill:url(#Dégradé_sans_nom_15-2)"/></svg>