<svg xmlns="http://www.w3.org/2000/svg" id="Calque_1" data-name="Calque 1" viewBox="0 0 566.93 566.93"><defs><linearGradient id="Dégradé_sans_nom_23" x1="476.56" x2="583.34" y1="343.3" y2="450.08" data-name="Dégradé sans nom 23" gradientTransform="rotate(54.14 344.923 24.055)" gradientUnits="userSpaceOnUse"><stop offset="0" stop-color="#5c5b72"/><stop offset="1" stop-color="#b0b0bf"/></linearGradient><linearGradient id="Dégradé_sans_nom_27" x1="359.71" x2="468.02" y1="331.93" y2="440.24" data-name="Dégradé sans nom 27" gradientUnits="userSpaceOnUse"><stop offset="0" stop-color="#b0b0bf"/><stop offset="1" stop-color="#f4f4f6"/></linearGradient><linearGradient id="Dégradé_sans_nom_15" x1="206.31" x2="370.73" y1="256.37" y2="420.79" data-name="Dégradé sans nom 15" gradientUnits="userSpaceOnUse"><stop offset=".1" stop-color="#5c5b72"/><stop offset=".5" stop-color="#b0b0bf"/><stop offset=".96" stop-color="#f4f4f6"/></linearGradient><linearGradient id="Dégradé_sans_nom_21" x1="193.12" x2="377.81" y1="32.1" y2="216.79" data-name="Dégradé sans nom 21" gradientUnits="userSpaceOnUse"><stop offset=".1" stop-color="#5c5b72"/><stop offset=".5" stop-color="#b0b0bf"/><stop offset=".96" stop-color="#f4f4f6"/></linearGradient><radialGradient id="Dégradé_sans_nom_17" cx="283.46" cy="528.76" r="128.61" data-name="Dégradé sans nom 17" fx="283.46" fy="528.76" gradientTransform="matrix(1 .00035 -.00004 .11 .02 468.55)" gradientUnits="userSpaceOnUse"><stop offset=".4" stop-color="#343443" stop-opacity=".5"/><stop offset="1" stop-color="#343443" stop-opacity="0"/></radialGradient><style>.cls-2{fill:#343443}.cls-8{fill:#fff;opacity:.5}</style></defs><ellipse cx="283.46" cy="528.76" rx="130.66" ry="15.87" style="fill:url(#Dégradé_sans_nom_17)"/><path d="m187.31 340.52-66.92 127.79c-1.87 3.5-7.23 2.04-6.92-1.93 2.08-27.82 8-82.86 23.78-110.65 12.3-21.72 28.97-27.68 41.06-28.84 7.28-.68 12.45 7.11 9.01 13.62Z" style="fill:url(#Dégradé_sans_nom_23)"/><path d="m379.62 340.52 66.92 127.79c1.87 3.5 7.23 2.04 6.92-1.93-2.08-27.82-8-82.86-23.78-110.65-12.3-21.72-28.97-27.68-41.06-28.84-7.28-.68-12.45 7.11-9.01 13.62Z" style="fill:url(#Dégradé_sans_nom_27)"/><path d="M379.86 283.38c8.12-2.43 15.18 6.07 11.23 13.59l-93.13 178.44c-5.31 10.25-20.04 10.25-25.35 0l-93.13-178.44c-3.87-7.51 3.19-16.01 11.31-13.59l84.02 25.5 6.07 73.39c.46 5.39 8.35 5.39 8.8 0l6.07-73.39 84.09-25.5Z" style="fill:url(#Dégradé_sans_nom_15)"/><path d="M386.85 22.29c-8.12 0-14.8 6.37-14.8 23.6 0 12.98 3.79 24.14 9.18 28.84v58.59C363.55 98.26 327.27 74.2 285.3 74.2s-78.25 24.06-95.93 59.12V74.73c5.39-4.71 9.18-15.86 9.18-28.84 0-17.23-6.6-23.6-14.8-23.6s-14.8 6.37-14.8 23.6c0 12.98 3.72 24.06 9.03 28.77v106.87c0 59.2 48.04 107.24 107.32 107.24s107.32-48.04 107.32-107.24V74.66c5.31-4.71 9.03-15.79 9.03-28.77 0-17.23-6.6-23.6-14.8-23.6ZM285.3 231.54c-27.63 0-50.09-22.39-50.09-50.02s22.47-50.09 50.09-50.09 50.09 22.39 50.09 50.09-22.39 50.02-50.09 50.02Z" style="fill:url(#Dégradé_sans_nom_21)"/><path d="M219.27 162.35c-1.89 5.06-2.99 11.45-2.99 19.14 0 21.75 8.75 33.15 19.55 33.15s19.55-11.41 19.55-33.15c0-16.31-4.92-26.8-11.94-31.03l-24.18 11.89Z" class="cls-2"/><ellipse cx="232.63" cy="174.61" class="cls-8" rx="4.55" ry="3.12"/><ellipse cx="239.57" cy="165.01" class="cls-8" rx="6.95" ry="6.1"/><path d="M351.32 162.35c1.89 5.06 2.99 11.45 2.99 19.14 0 21.75-8.75 33.15-19.55 33.15s-19.55-11.41-19.55-33.15c0-16.31 4.92-26.8 11.94-31.03l24.18 11.89Z" class="cls-2"/><ellipse cx="337.97" cy="174.61" class="cls-8" rx="4.55" ry="3.12"/><ellipse cx="331.02" cy="165.01" class="cls-8" rx="6.95" ry="6.1"/><path d="M272.16 264.64c6.31-1.38 15.67-2.36 26.27 0 0 0 3.36 1.08 4.77-2.08 1.6-3.6-2.18-7.29-2.18-7.29-3.2-3.27-8.14-5.93-15.72-5.93-7.63-.04-12.59 2.76-15.8 6.14 0 0-3.7 3.47-2.1 7.07 1.41 3.17 4.77 2.08 4.77 2.08Z" style="fill:#5c5b72"/><path d="M319.12 103.13s-9.95 11.19 1.84 16.75c12.9 6.09 30.17 14.48 30.17 14.48s-33.45-20.54-32.01-31.24ZM251.47 103.13s9.95 11.19-1.84 16.75c-12.9 6.09-30.17 14.48-30.17 14.48s33.45-20.54 32.01-31.24Z" class="cls-2"/></svg>