<svg xmlns="http://www.w3.org/2000/svg" xmlns:xlink="http://www.w3.org/1999/xlink" id="Calque_1" data-name="Calque 1" viewBox="0 0 566.93 566.93"><defs><linearGradient id="Dégradé_sans_nom_15" x1="236.96" x2="408.1" y1="215.27" y2="386.41" data-name="Dégradé sans nom 15" gradientUnits="userSpaceOnUse"><stop offset=".1" stop-color="#5c5b72"/><stop offset=".5" stop-color="#b0b0bf"/><stop offset=".96" stop-color="#f4f4f6"/></linearGradient><linearGradient id="Dégradé_sans_nom_21" x1="196.97" x2="382.03" y1="26.73" y2="211.8" data-name="Dégradé sans nom 21" gradientUnits="userSpaceOnUse"><stop offset=".1" stop-color="#5c5b72"/><stop offset=".5" stop-color="#b0b0bf"/><stop offset=".96" stop-color="#f4f4f6"/></linearGradient><linearGradient id="Dégradé_sans_nom_27" x1="407.34" x2="264.91" y1="285.95" y2="428.38" data-name="Dégradé sans nom 27" gradientUnits="userSpaceOnUse"><stop offset="0" stop-color="#b0b0bf"/><stop offset="1" stop-color="#f4f4f6"/></linearGradient><linearGradient xlink:href="#Dégradé_sans_nom_15" id="Dégradé_sans_nom_15-2" x1="188.11" x2="359.25" y1="264.12" y2="435.26" data-name="Dégradé sans nom 15"/><linearGradient id="Dégradé_sans_nom_23" x1="196.87" x2="249.45" y1="321.3" y2="373.88" data-name="Dégradé sans nom 23" gradientUnits="userSpaceOnUse"><stop offset="0" stop-color="#5c5b72"/><stop offset="1" stop-color="#b0b0bf"/></linearGradient><linearGradient xlink:href="#Dégradé_sans_nom_15" id="Dégradé_sans_nom_15-3" x1="166.56" x2="337.7" y1="285.67" y2="456.81" data-name="Dégradé sans nom 15"/><radialGradient id="Dégradé_sans_nom_17" cx="289.33" cy="528.73" r="128.87" data-name="Dégradé sans nom 17" fx="289.33" fy="528.73" gradientTransform="matrix(1 .00035 -.00004 .11 .02 468.52)" gradientUnits="userSpaceOnUse"><stop offset=".4" stop-color="#343443" stop-opacity=".5"/><stop offset="1" stop-color="#343443" stop-opacity="0"/></radialGradient><style>.cls-1{fill:#343443}.cls-10{fill:#fff;opacity:.5}</style></defs><path d="m378.71 324.01 16.64-31.88c3.95-7.53-3.12-16.05-11.26-13.61l-84.26 25.55-4.98 60.14 83.86-40.2Z" style="fill:url(#Dégradé_sans_nom_15)"/><ellipse cx="289.33" cy="528.73" rx="130.92" ry="15.9" style="fill:url(#Dégradé_sans_nom_17)"/><path d="M391.09 16.9c-8.14 0-14.83 6.39-14.83 23.65 0 13 3.8 24.18 9.2 28.9v58.71c-17.72-35.14-54.07-59.24-96.13-59.24s-78.41 24.11-96.13 59.24V69.45c5.4-4.72 9.2-15.9 9.2-28.9 0-17.26-6.62-23.65-14.83-23.65s-14.83 6.39-14.83 23.65c0 13 3.73 24.11 9.05 28.82v107.08c0 59.32 48.14 107.46 107.54 107.46s107.54-48.14 107.54-107.46V69.37c5.32-4.72 9.05-15.82 9.05-28.82 0-17.26-6.62-23.65-14.83-23.65ZM289.33 226.57c-27.68 0-50.19-22.44-50.19-50.12s22.51-50.19 50.19-50.19 50.19 22.44 50.19 50.19-22.44 50.12-50.19 50.12Z" style="fill:url(#Dégradé_sans_nom_21)"/><path d="M354.69 155.28c2.38 5.34 3.79 12.4 3.79 21.13 0 21.79-8.77 33.22-19.59 33.22s-19.59-11.43-19.59-33.22c0-8.52 1.76-15.85 4.04-21.13h31.36Z" class="cls-1"/><ellipse cx="335.73" cy="175.21" class="cls-10" rx="4.55" ry="3.13"/><ellipse cx="342.69" cy="165.6" class="cls-10" rx="6.96" ry="6.11"/><path d="M316.66 120.38s.27 15.01 12.74 11.1c13.65-4.28 32.08-9.82 32.08-9.82s-38.62 7.58-44.82-1.28ZM262.01 120.4s-.28 15.01-12.75 11.09c-13.64-4.29-32.08-9.85-32.08-9.85s38.61 7.62 44.82-1.24ZM224.22 155.28c-2.28 5.29-4.04 12.61-4.04 21.13 0 21.79 8.77 33.22 19.59 33.22s19.59-11.43 19.59-33.22c0-8.73-1.41-15.8-3.79-21.13h-31.36Z" class="cls-1"/><ellipse cx="236.62" cy="175.21" class="cls-10" rx="4.55" ry="3.13"/><ellipse cx="243.58" cy="165.6" class="cls-10" rx="6.96" ry="6.11"/><path d="M306.4 246.38s-16.08-3.71-34.07 5.19" style="fill:none;stroke:#5c5b72;stroke-linecap:round;stroke-linejoin:round;stroke-width:4px"/><path d="M395.09 336.45c-1.58 12.04-8.13 28.48-30.26 40-28.33 14.78-83.52 18.74-111.39 19.84-3.98.17-5.25-5.24-1.68-6.98l130.04-62.34c6.63-3.21 14.23 2.23 13.29 9.48Z" style="fill:url(#Dégradé_sans_nom_27)"/><path d="m202.93 329.7 80.66 31.71-4.74-57.34-84.19-25.55c-8.14-2.43-15.21 6.08-11.33 13.61l19.61 37.57Z" style="fill:url(#Dégradé_sans_nom_15-2)"/><path d="m250.03 385.7 38.03-18.23-91.76-36.07c-6.84-2.72-14.03 3.25-12.57 10.42 2.45 11.89 10.17 27.82 33.08 37.7 8.49 3.67 19.16 6.27 30.7 8.1.68-.77 1.52-1.43 2.52-1.92Z" style="fill:url(#Dégradé_sans_nom_23)"/><path d="M336.29 390.49a7.525 7.525 0 0 1-6.81 4.74c-7.05.23-14.11.35-20.99.36h.05c-20.25 2.85-40.46 4.13-54.93 4.7h-.36c-3.6 0-6.57-2.37-7.39-5.9a7.977 7.977 0 0 1-.11-3.03c-4.38-.72-8.31-1.5-11.85-2.31l42.73 81.88c5.32 10.27 20.08 10.27 25.4 0l43.19-82.75c-2.9.83-5.88 1.6-8.94 2.32Z" style="fill:url(#Dégradé_sans_nom_15-3)"/></svg>