<svg xmlns="http://www.w3.org/2000/svg" id="Calque_1" data-name="Calque 1" viewBox="0 0 566.93 566.93"><defs><linearGradient id="Dégradé_sans_nom_31" x1="314.09" x2="457.87" y1="176.1" y2="319.88" data-name="Dégradé sans nom 31" gradientUnits="userSpaceOnUse"><stop offset="0" stop-color="#f4f4f6"/><stop offset="1" stop-color="#b0b0bf"/></linearGradient><linearGradient id="Dégradé_sans_nom_21" x1="187.21" x2="371.86" y1="32.23" y2="216.87" data-name="Dégradé sans nom 21" gradientUnits="userSpaceOnUse"><stop offset=".1" stop-color="#5c5b72"/><stop offset=".5" stop-color="#b0b0bf"/><stop offset=".96" stop-color="#f4f4f6"/></linearGradient><linearGradient id="Dégradé_sans_nom_23" x1="132.68" x2="239.43" y1="308.61" y2="415.36" data-name="Dégradé sans nom 23" gradientUnits="userSpaceOnUse"><stop offset="0" stop-color="#5c5b72"/><stop offset="1" stop-color="#b0b0bf"/></linearGradient><linearGradient id="Dégradé_sans_nom_15" x1="200.4" x2="364.78" y1="256.44" y2="420.82" data-name="Dégradé sans nom 15" gradientUnits="userSpaceOnUse"><stop offset=".1" stop-color="#5c5b72"/><stop offset=".5" stop-color="#b0b0bf"/><stop offset=".96" stop-color="#f4f4f6"/></linearGradient><radialGradient id="Dégradé_sans_nom_17" cx="283.46" cy="528.77" r="128.58" data-name="Dégradé sans nom 17" fx="283.46" fy="528.77" gradientTransform="matrix(1 .00035 -.00004 .11 .02 468.55)" gradientUnits="userSpaceOnUse"><stop offset=".4" stop-color="#343443" stop-opacity=".5"/><stop offset="1" stop-color="#343443" stop-opacity="0"/></radialGradient><style>.cls-2{fill:#343443}</style></defs><path d="M418.75 252.76c-6.16-13.49-18.33-28.69-31.73-42.91-3.13 11.92-8.2 23.06-14.84 33.07l29.57 59.32c3.26 6.6 12.6 6.98 16.31.68 6.15-10.47 11.08-27.47.68-50.16Z" style="fill:url(#Dégradé_sans_nom_31)"/><path d="M386.66 74.77c5.31-4.7 9.03-15.78 9.03-28.76 0-17.22-6.6-23.6-14.8-23.6s-14.8 6.37-14.8 23.6c0 12.98 3.79 24.13 9.18 28.83v58.58c-17.68-35.06-53.95-59.11-95.91-59.11s-78.23 24.05-95.91 59.11V74.84c5.39-4.7 9.18-15.86 9.18-28.83 0-17.22-6.6-23.6-14.8-23.6s-14.8 6.37-14.8 23.6c0 12.98 3.72 24.05 9.03 28.76v106.84c0 59.19 48.03 107.22 107.29 107.22s107.29-48.03 107.29-107.22V74.77ZM279.37 231.61c-27.62 0-50.08-22.38-50.08-50s22.46-50.08 50.08-50.08 50.08 22.38 50.08 50.08-22.38 50-50.08 50Z" style="fill:url(#Dégradé_sans_nom_21)"/><ellipse cx="283.46" cy="528.77" rx="130.63" ry="15.87" style="fill:url(#Dégradé_sans_nom_17)"/><path d="m165.17 302.5 64.35 129.07c1.75 3.57-2.58 7.06-5.62 4.48-21.32-17.98-62.45-55.01-75.73-84.07-10.4-22.69-5.46-39.69.68-50.16 3.72-6.3 13.05-5.92 16.31.68Z" style="fill:url(#Dégradé_sans_nom_23)"/><path d="M373.91 283.44c8.12-2.43 15.18 6.07 11.23 13.58l-93.1 178.39c-5.31 10.24-20.03 10.24-25.34 0l-93.1-178.39c-3.87-7.51 3.19-16.01 11.31-13.58l84 25.5 6.07 73.38c.46 5.39 8.35 5.39 8.8 0l6.07-73.38 84.07-25.5Z" style="fill:url(#Dégradé_sans_nom_15)"/><path d="M214.93 193.52c-.98 2.02-4.07 1.21-3.91-1.03.85-11.56 4.74-25.07 18.28-25.07s18.26 14.39 19.43 26.18c.23 2.3-2.89 3.14-3.93 1.08-2.86-5.61-7.65-10.77-15.62-10.77-7.42 0-11.74 4.47-14.25 9.62ZM313.91 193.52c-.98 2.02-4.07 1.21-3.91-1.03.85-11.56 4.74-25.07 18.28-25.07s18.26 14.39 19.43 26.18c.23 2.3-2.89 3.14-3.93 1.08-2.86-5.61-7.65-10.77-15.62-10.77-7.42 0-11.74 4.47-14.25 9.62Z" class="cls-2"/><path d="M257.85 241.66h43.03s-2.25 17.95-21.52 17.85c-19.64 0-21.52-17.85-21.52-17.85Z" style="fill:#5c5b72"/><path d="M195.3 133.43s-14.57 51.42 1.34 52.37c15.91.94-1.34-52.37-1.34-52.37Z" style="fill:#fff;opacity:.5"/><path d="M311.49 107.67s-8.05 12.62 4.47 16.25c13.7 3.96 32.08 9.51 32.08 9.51s-36.28-14.97-36.55-25.76ZM246.6 107.67s8.05 12.62-4.47 16.25c-13.7 3.96-32.08 9.51-32.08 9.51s36.28-14.97 36.55-25.76Z" class="cls-2"/></svg>