<svg xmlns="http://www.w3.org/2000/svg" xmlns:xlink="http://www.w3.org/1999/xlink" id="Calque_1" data-name="Calque 1" viewBox="0 0 566.93 566.93"><defs><linearGradient id="Dégradé_sans_nom_21" x1="191.13" x2="376.13" y1="45.6" y2="230.6" data-name="Dégradé sans nom 21" gradientUnits="userSpaceOnUse"><stop offset=".1" stop-color="#5c5b72"/><stop offset=".5" stop-color="#b0b0bf"/><stop offset=".96" stop-color="#f4f4f6"/></linearGradient><linearGradient id="Dégradé_sans_nom_15" x1="256.89" x2="422.37" y1="196.47" y2="361.96" data-name="Dégradé sans nom 15" gradientUnits="userSpaceOnUse"><stop offset=".1" stop-color="#5c5b72"/><stop offset=".5" stop-color="#b0b0bf"/><stop offset=".96" stop-color="#f4f4f6"/></linearGradient><linearGradient id="Dégradé_sans_nom_23" x1="151.58" x2="245.2" y1="378.14" y2="284.52" data-name="Dégradé sans nom 23" gradientUnits="userSpaceOnUse"><stop offset="0" stop-color="#5c5b72"/><stop offset="1" stop-color="#b0b0bf"/></linearGradient><linearGradient xlink:href="#Dégradé_sans_nom_15" id="Dégradé_sans_nom_15-2" x1="173.08" x2="338.56" y1="280.28" y2="445.76" data-name="Dégradé sans nom 15"/><linearGradient xlink:href="#Dégradé_sans_nom_23" id="Dégradé_sans_nom_23-2" x1="173.96" x2="260.08" y1="397.2" y2="311.08" data-name="Dégradé sans nom 23"/><linearGradient id="Dégradé_sans_nom_27" x1="402.27" x2="322.69" y1="365.07" y2="285.49" data-name="Dégradé sans nom 27" gradientUnits="userSpaceOnUse"><stop offset="0" stop-color="#b0b0bf"/><stop offset="1" stop-color="#f4f4f6"/></linearGradient><linearGradient xlink:href="#Dégradé_sans_nom_15" id="Dégradé_sans_nom_15-3" x1="178.55" x2="344.04" y1="274.81" y2="440.29" data-name="Dégradé sans nom 15"/><linearGradient xlink:href="#Dégradé_sans_nom_27" id="Dégradé_sans_nom_27-2" x1="381.55" x2="301.98" y1="385.78" y2="306.21" data-name="Dégradé sans nom 27"/><radialGradient id="Dégradé_sans_nom_17" cx="283.46" cy="531.43" r="128.87" data-name="Dégradé sans nom 17" fx="283.46" fy="531.43" gradientTransform="matrix(1 .00035 -.00004 .11 .02 470.91)" gradientUnits="userSpaceOnUse"><stop offset=".4" stop-color="#343443" stop-opacity=".5"/><stop offset="1" stop-color="#343443" stop-opacity="0"/></radialGradient><style>.cls-1{fill:#343443}.cls-12{fill:#fff;opacity:.5}</style></defs><path d="M400.05 59.46c0-17.26-6.62-23.65-14.83-23.65s-14.83 6.39-14.83 23.65c0 13 3.8 24.18 9.2 28.9v58.57l-.05-.1c-17.75-35.12-54.13-59.19-96.19-59.15-42.02.04-78.32 24.14-96.03 59.25V88.35c5.4-4.72 9.2-15.89 9.2-28.9 0-17.26-6.62-23.65-14.83-23.65s-14.83 6.39-14.83 23.65c0 13 3.73 24.11 9.05 28.82v107.08-.02c.04 35.37 17.19 66.74 43.62 86.3 1.51-4.56 5.1-6.66 11.15-6.66 2.75 0 6.13.36 10.34.91 5.26.68 7.88 3.64 9.16 6.01 1.23 2.28 1.81 5.15 1.76 8.57v-.21c.08.25.14.5.17.77.28 2.44.52 4.84.75 7.22 9.73 2.88 20.02 4.45 30.69 4.44 11.33-.01 22.24-1.78 32.5-5.03-1.46-6.76-1.18-12.07.83-15.82 1.27-2.37 3.89-5.33 9.14-6.02 4.22-.56 7.59-.93 10.34-.93 6.05 0 9.64 2.08 11.16 6.64 26.37-19.59 43.45-50.95 43.46-86.27v.12V88.29c5.32-4.72 9.05-15.82 9.05-28.82ZM283.51 245.34c-27.68.03-50.22-22.39-50.24-50.07-.03-27.76 22.46-50.22 50.15-50.24 27.76-.03 50.22 22.39 50.24 50.15.03 27.68-22.39 50.14-50.15 50.17Z" style="fill:url(#Dégradé_sans_nom_21)"/><path d="m378.22 281.21-28.65 8.69c1.06 4.35 2.23 8.98 3.47 13.83 2.75 10.78 5.86 23 8.29 35.01.51 2.53.98 4.97 1.4 7.34l26.75-51.25c3.95-7.53-3.12-16.05-11.26-13.61Z" style="fill:url(#Dégradé_sans_nom_15)"/><path d="M241.62 312.42s14.85-30.5-1.17-32.6c-13.97-1.83-17.55-1.45-17.82 7.21s9.73 38.49 18.99 25.39Z" style="fill:url(#Dégradé_sans_nom_23)"/><path d="M205.6 338.74c2.43-12 5.55-24.22 8.29-35 1.24-4.86 2.41-9.49 3.47-13.84l-28.58-8.67c-8.14-2.43-15.21 6.08-11.33 13.61l26.75 51.25c.42-2.37.89-4.81 1.4-7.34Z" style="fill:url(#Dégradé_sans_nom_15-2)"/><path d="M245.22 314.17c-.09.19-.2.38-.33.56-2.9 4.11-6.04 4.97-8.15 4.97-2.56 0-5.02-1.19-7.29-3.54-4.37-4.51-7.74-13.02-9.48-20.09-3.3 13.17-7.38 28.34-10.44 43.46-9.27 45.73-2.67 59.1 9.82 60.27 0 0 23 2.43 29.19-48.77 2-16.55 1.79-32.75.72-47.06-1.82 5.62-3.93 9.99-4.03 10.19Z" style="fill:url(#Dégradé_sans_nom_23-2)"/><ellipse cx="283.46" cy="531.43" rx="130.92" ry="15.9" style="fill:url(#Dégradé_sans_nom_17)"/><path d="M273.68 284.4s.02-5.46 9.78-5.46c9.8 0 9.79 5.46 9.79 5.46" style="fill:none;stroke:#5c5b72;stroke-linecap:round;stroke-linejoin:round;stroke-width:4px"/><ellipse cx="333.04" cy="195.23" class="cls-1" rx="21.55" ry="36.54"/><ellipse cx="325.2" cy="195.18" class="cls-12" rx="9.41" ry="6.47"/><ellipse cx="345.06" cy="188.72" class="cls-12" rx="4.96" ry="4.46"/><ellipse cx="333.04" cy="175" class="cls-12" rx="12.77" ry="11.21"/><ellipse cx="233.92" cy="195.23" class="cls-1" rx="21.55" ry="36.54"/><ellipse cx="226.22" cy="195.18" class="cls-12" rx="9.41" ry="6.47"/><ellipse cx="246.08" cy="188.72" class="cls-12" rx="4.96" ry="4.46"/><ellipse cx="234.06" cy="175" class="cls-12" rx="12.77" ry="11.21"/><path d="M318.35 112.06s-10.08 11.07 1.64 16.77c12.82 6.24 29.99 14.84 29.99 14.84s-33.2-20.93-31.63-31.61ZM248.55 112.03s10.1 11.05-1.6 16.77c-12.81 6.27-29.96 14.9-29.96 14.9s33.16-21 31.56-31.68Z" class="cls-1"/><path d="M325.31 312.42s-14.85-30.5 1.17-32.6c13.97-1.83 17.55-1.45 17.82 7.21.27 8.66-9.73 38.49-18.99 25.39Z" style="fill:url(#Dégradé_sans_nom_27)"/><path d="M330.71 395.72c-8.31-8.73-13.79-23.6-16.28-44.2-1.83-15.18-2.03-31.33-.63-49.04-5.47 1.55-11.11 2.69-16.88 3.39l-2.96.9-6.08 73.54c-.46 5.4-8.37 5.4-8.82 0l-6.08-73.54-3.02-.92c-5.74-.7-11.36-1.82-16.8-3.36-.03-.44-.08-.89-.11-1.33 1.52 18.23 1.35 34.8-.54 50.36-2.49 20.6-7.97 35.47-16.28 44.2a30.44 30.44 0 0 1-4.19 3.69l38.73 74.22c5.32 10.27 20.08 10.27 25.4 0l38.73-74.22c-1.37-1-2.78-2.2-4.19-3.69Z" style="fill:url(#Dégradé_sans_nom_15-3)"/><path d="M357.41 339.53c-3.06-15.12-7.14-30.29-10.44-43.46-1.75 7.07-5.11 15.58-9.48 20.09-2.28 2.35-4.73 3.54-7.29 3.54-2.12 0-5.25-.86-8.15-4.97-.12-.18-.23-.36-.33-.56-.1-.2-2.21-4.57-4.03-10.19-1.07 14.3-1.28 30.51.72 47.06 6.19 51.2 29.19 48.77 29.19 48.77 12.49-1.17 19.08-14.54 9.82-60.27Z" style="fill:url(#Dégradé_sans_nom_27-2)"/></svg>