<svg xmlns="http://www.w3.org/2000/svg" id="Calque_1" data-name="Calque 1" viewBox="0 0 566.93 566.93"><defs><linearGradient id="Dégradé_sans_nom_23" x1="143.06" x2="250.05" y1="327.94" y2="434.93" data-name="Dégradé sans nom 23" gradientUnits="userSpaceOnUse"><stop offset="0" stop-color="#5c5b72"/><stop offset="1" stop-color="#b0b0bf"/></linearGradient><linearGradient id="Dégradé_sans_nom_27" x1="322.06" x2="401.9" y1="342.56" y2="422.4" data-name="Dégradé sans nom 27" gradientUnits="userSpaceOnUse"><stop offset="0" stop-color="#b0b0bf"/><stop offset="1" stop-color="#f4f4f6"/></linearGradient><linearGradient id="Dégradé_sans_nom_15" x1="204.32" x2="369.07" y1="254.15" y2="418.9" data-name="Dégradé sans nom 15" gradientUnits="userSpaceOnUse"><stop offset=".1" stop-color="#5c5b72"/><stop offset=".5" stop-color="#b0b0bf"/><stop offset=".96" stop-color="#f4f4f6"/></linearGradient><linearGradient id="Dégradé_sans_nom_21" x1="191.1" x2="376.16" y1="29.43" y2="214.49" data-name="Dégradé sans nom 21" gradientUnits="userSpaceOnUse"><stop offset=".1" stop-color="#5c5b72"/><stop offset=".5" stop-color="#b0b0bf"/><stop offset=".96" stop-color="#f4f4f6"/></linearGradient><radialGradient id="Dégradé_sans_nom_17" cx="283.46" cy="531.43" r="128.87" data-name="Dégradé sans nom 17" fx="283.46" fy="531.43" gradientTransform="matrix(1 .00035 -.00004 .11 .02 470.91)" gradientUnits="userSpaceOnUse"><stop offset=".4" stop-color="#343443" stop-opacity=".5"/><stop offset="1" stop-color="#343443" stop-opacity="0"/></radialGradient><style>.cls-1{fill:#343443}.cls-8{fill:#fff;opacity:.5}</style></defs><ellipse cx="283.46" cy="531.43" rx="130.92" ry="15.9" style="fill:url(#Dégradé_sans_nom_17)"/><path d="m175.62 321.82 64.49 129.36c1.75 3.57-2.59 7.07-5.63 4.49-21.37-18.02-62.59-55.14-75.9-84.26-10.42-22.74-5.48-39.77.68-50.27 3.73-6.31 13.08-5.93 16.35.68Z" style="fill:url(#Dégradé_sans_nom_23)"/><path d="M407.66 321.14c6.16 10.5 11.1 27.53.68 50.27-13.31 29.13-54.53 66.24-75.9 84.26-3.04 2.59-7.38-.91-5.63-4.49l64.49-129.36c3.27-6.62 12.62-7 16.35-.68Z" style="fill:url(#Dégradé_sans_nom_27)"/><path d="M378.22 281.21c8.14-2.43 15.21 6.08 11.26 13.61l-93.31 178.8c-5.32 10.27-20.08 10.27-25.4 0l-93.31-178.8c-3.88-7.53 3.19-16.05 11.33-13.61l84.19 25.55 6.08 73.54c.46 5.4 8.37 5.4 8.82 0l6.08-73.54 84.26-25.55Z" style="fill:url(#Dégradé_sans_nom_15)"/><path d="M385.22 19.6c-8.14 0-14.83 6.39-14.83 23.65 0 13 3.8 24.18 9.2 28.9v58.71c-17.72-35.14-54.07-59.24-96.13-59.24s-78.41 24.11-96.13 59.24V72.15c5.4-4.72 9.2-15.89 9.2-28.9 0-17.26-6.62-23.65-14.83-23.65s-14.83 6.39-14.83 23.65c0 13 3.73 24.11 9.05 28.82v107.08c0 59.32 48.14 107.46 107.54 107.46S391 238.47 391 179.15V72.07c5.32-4.72 9.05-15.82 9.05-28.82 0-17.26-6.62-23.65-14.83-23.65ZM283.46 229.27c-27.68 0-50.19-22.44-50.19-50.12s22.51-50.19 50.19-50.19 50.19 22.44 50.19 50.19-22.44 50.12-50.19 50.12Z" style="fill:url(#Dégradé_sans_nom_21)"/><path d="M313.43 111.07s18.03-7.62 39.19 17.89c0 0-13.54-25.18-24.28-26.84-10.02-1.55-14.91 8.95-14.91 8.95ZM253.5 111.07s-18.03-7.62-39.19 17.89c0 0 13.54-25.18 24.28-26.84 10.02-1.55 14.91 8.95 14.91 8.95ZM343.52 207.57c5.33-5.18 8.86-14.81 8.86-28.59 0-21.7-8.74-33.08-19.51-33.08s-19.51 11.38-19.51 33.08c0 13.56 3.41 23.1 8.6 28.34 0 0 11-4.41 21.56.25Z" class="cls-1"/><ellipse cx="328.2" cy="170.24" class="cls-8" rx="4.54" ry="3.12"/><ellipse cx="335.13" cy="160.67" class="cls-8" rx="6.93" ry="6.09"/><path d="M244.72 207.57c5.33-5.18 8.86-14.81 8.86-28.59 0-21.7-8.74-33.08-19.51-33.08s-19.51 11.38-19.51 33.08c0 13.56 3.41 23.1 8.6 28.34 0 0 11-4.41 21.56.25Z" class="cls-1"/><ellipse cx="229.4" cy="170.24" class="cls-8" rx="4.54" ry="3.12"/><ellipse cx="236.33" cy="160.67" class="cls-8" rx="6.93" ry="6.09"/><path d="M298.23 240.07s0 16.47-14.74 16.47c-14.79 0-14.79-16.47-14.79-16.47" style="fill:none;stroke:#5c5b72;stroke-linecap:round;stroke-linejoin:round;stroke-width:4px"/></svg>