<svg xmlns="http://www.w3.org/2000/svg" xmlns:xlink="http://www.w3.org/1999/xlink" id="Calque_1" data-name="Calque 1" viewBox="0 0 566.93 566.93"><defs><linearGradient id="Dégradé_sans_nom_23" x1="157.56" x2="289.25" y1="378.95" y2="247.26" data-name="Dégradé sans nom 23" gradientUnits="userSpaceOnUse"><stop offset="0" stop-color="#5c5b72"/><stop offset="1" stop-color="#b0b0bf"/></linearGradient><linearGradient id="Dégradé_sans_nom_21" x1="191.1" x2="376.16" y1="26.73" y2="211.79" data-name="Dégradé sans nom 21" gradientUnits="userSpaceOnUse"><stop offset=".1" stop-color="#5c5b72"/><stop offset=".5" stop-color="#b0b0bf"/><stop offset=".96" stop-color="#f4f4f6"/></linearGradient><linearGradient id="Dégradé_sans_nom_27" x1="420.9" x2="277.87" y1="390.48" y2="247.45" data-name="Dégradé sans nom 27" gradientUnits="userSpaceOnUse"><stop offset="0" stop-color="#b0b0bf"/><stop offset="1" stop-color="#f4f4f6"/></linearGradient><linearGradient id="Dégradé_sans_nom_15" x1="265.86" x2="428.04" y1="188.07" y2="350.26" data-name="Dégradé sans nom 15" gradientUnits="userSpaceOnUse"><stop offset=".1" stop-color="#5c5b72"/><stop offset=".5" stop-color="#b0b0bf"/><stop offset=".96" stop-color="#f4f4f6"/></linearGradient><linearGradient xlink:href="#Dégradé_sans_nom_15" id="Dégradé_sans_nom_15-2" x1="180.99" x2="343.18" y1="272.93" y2="435.12" data-name="Dégradé sans nom 15"/><linearGradient xlink:href="#Dégradé_sans_nom_15" id="Dégradé_sans_nom_15-3" x1="176.32" x2="338.51" y1="277.6" y2="439.79" data-name="Dégradé sans nom 15"/><radialGradient id="Dégradé_sans_nom_17" cx="283.46" cy="528.73" r="128.87" data-name="Dégradé sans nom 17" fx="283.46" fy="528.73" gradientTransform="matrix(1 .00035 -.00004 .11 .02 468.52)" gradientUnits="userSpaceOnUse"><stop offset=".4" stop-color="#343443" stop-opacity=".5"/><stop offset="1" stop-color="#343443" stop-opacity="0"/></radialGradient><radialGradient id="Dégradé_sans_nom_47" cx="333.02" cy="13309.41" r="24.5" data-name="Dégradé sans nom 47" fx="333.02" fy="13309.41" gradientTransform="matrix(1 0 0 .29 0 -3644.53)" gradientUnits="userSpaceOnUse"><stop offset=".27" stop-color="#cd3131" stop-opacity=".7"/><stop offset="1" stop-color="#cd3131" stop-opacity="0"/></radialGradient><radialGradient xlink:href="#Dégradé_sans_nom_47" id="Dégradé_sans_nom_47-2" cx="-9452.18" cy="13309.41" r="24.5" data-name="Dégradé sans nom 47" fx="-9452.18" fy="13309.41" gradientTransform="matrix(-1 0 0 .29 -9218.27 -3644.53)"/><style>.cls-1{fill:#cd3131}.cls-3{fill:#343443}.cls-11{opacity:.5;fill:#fff}</style></defs><path d="M195.41 376.03s20.72 8.15 39.57-37.76 21.86-92.31 12.29-94.94c-7.22-1.99-25.77 35.29-45.53 74.27-20.31 40.05-17.61 54.15-6.33 58.43Z" style="fill:url(#Dégradé_sans_nom_23)"/><ellipse cx="283.46" cy="528.73" rx="130.92" ry="15.9" style="fill:url(#Dégradé_sans_nom_17)"/><path d="M385.22 16.9c-8.14 0-14.83 6.39-14.83 23.65 0 13 3.8 24.18 9.2 28.9v58.71c.46.91.9 1.82 1.33 2.75-.43-.92-.88-1.84-1.33-2.75-17.72-35.14-54.07-59.24-96.13-59.24s-78.41 24.11-96.13 59.24V69.45c5.4-4.72 9.2-15.89 9.2-28.9 0-17.26-6.62-23.65-14.83-23.65s-14.83 6.39-14.83 23.65c0 13 3.73 24.11 9.05 28.82v107.07c0 37.4 19.13 70.35 48.15 89.6.68-1.2 1.35-2.39 2-3.53 11.18-19.37 16.18-23.26 20.61-23.26.56 0 1.11.07 1.64.22 1.61.44 3.87 1.68 5.53 5.08 3.06 6.23 3.53 19.2 1.29 35.59 9.02 2.45 18.51 3.77 28.31 3.77s19.29-1.32 28.31-3.77c-2.25-16.39-1.77-29.37 1.29-35.59 1.67-3.39 3.93-4.63 5.53-5.08.53-.15 1.08-.22 1.64-.22 4.43 0 9.43 3.89 20.61 23.25.66 1.14 1.33 2.33 2.01 3.53 29.02-19.25 48.15-52.2 48.15-89.59 0-6.5-.58-12.88-1.68-19.07 1.11 6.19 1.68 12.57 1.68 19.07V69.36c5.32-4.72 9.05-15.82 9.05-28.82 0-17.26-6.62-23.65-14.83-23.65ZM283.46 226.57c-27.68 0-50.19-22.44-50.19-50.12s22.51-50.19 50.19-50.19 50.19 22.44 50.19 50.19-22.44 50.12-50.19 50.12Zm99.89-90.05Z" style="fill:url(#Dégradé_sans_nom_21)"/><path d="M261.9 236.66h43.13s-2.26 29.74-21.56 29.64c-19.68 0-21.56-29.64-21.56-29.64Z" style="fill:#5c5b72"/><path d="M313.99 104.47s18.72-5.71 37.13 21.85c0 0-10.86-26.45-21.37-29.21-9.8-2.57-15.76 7.36-15.76 7.36ZM252.93 104.45s-18.73-5.7-37.1 21.89c0 0 10.83-26.46 21.34-29.23 9.8-2.58 15.76 7.34 15.76 7.34Z" class="cls-3"/><ellipse cx="333.02" cy="222.63" rx="24.5" ry="7.12" style="fill:url(#Dégradé_sans_nom_47);opacity:.5"/><ellipse cx="233.91" cy="222.63" rx="24.5" ry="7.12" style="opacity:.5;fill:url(#Dégradé_sans_nom_47-2)"/><path d="M371.52 376.03s-20.72 8.15-39.57-37.76-21.86-92.31-12.29-94.94c7.22-1.99 25.77 35.29 45.53 74.27 20.31 40.05 17.61 54.15 6.33 58.43Z" style="fill:url(#Dégradé_sans_nom_27)"/><path d="M240.35 206.2s31.05-21.23 27.25-43.67c-4.31-25.53-37.42-16.51-34.54.54-2.88-17.04-37.12-14.68-32.8 10.84 3.79 22.44 40.09 32.29 40.09 32.29Z" class="cls-1"/><path d="M216.17 160.63c-2.25-2.27-5.99-1.92-7.8.71-1.23 1.79-2.32 4.22-2.64 7.4-.84 8.38 5.4 17.29 14.67 20.83 0 0-12.48-10.54-3.76-22.35 1.49-2.02 1.3-4.82-.46-6.6Z" class="cls-11"/><path d="M326.58 206.2s-31.05-21.23-27.25-43.67c4.31-25.53 37.42-16.51 34.54.54 2.88-17.04 37.12-14.68 32.8 10.84-3.79 22.44-40.09 32.29-40.09 32.29Z" class="cls-1"/><path d="M321.27 156.42c-1.09-3-4.64-4.25-7.39-2.61-1.87 1.11-3.87 2.86-5.49 5.62-4.27 7.26-2.32 17.97 4.62 25.06 0 0-6.94-14.79 5.92-21.87a5.09 5.09 0 0 0 2.34-6.19Z" class="cls-11"/><path d="M378.22 278.52 353.55 286c4.11 7.92 8.42 16.41 12.84 25.15l2.36 4.65c1.46 2.88 2.79 5.63 4.04 8.29l16.68-31.96c3.95-7.53-3.12-16.05-11.26-13.61Z" style="fill:url(#Dégradé_sans_nom_15)"/><path d="M328.25 339.79c-5.92-14.42-10.32-28.86-13.28-42.09l-21 6.37-6.08 73.54c-.46 5.4-8.37 5.4-8.82 0l-6.08-73.54-21-6.37c-2.96 13.23-7.36 27.68-13.29 42.1-6.53 15.9-13.41 25.72-19.79 31.75l51.87 99.39c5.32 10.27 20.08 10.27 25.4 0l51.87-99.39c-6.38-6.02-13.26-15.85-19.79-31.75Z" style="fill:url(#Dégradé_sans_nom_15-2)"/><path d="m198.17 315.8 2.34-4.63c4.43-8.75 8.75-17.26 12.86-25.19l-24.6-7.47c-8.14-2.43-15.21 6.08-11.33 13.61l16.68 31.96c1.25-2.66 2.58-5.41 4.04-8.29Z" style="fill:url(#Dégradé_sans_nom_15-3)"/></svg>