<svg xmlns="http://www.w3.org/2000/svg" id="Calque_1" data-name="Calque 1" viewBox="0 0 566.93 566.93"><defs><linearGradient id="Dégradé_sans_nom_21" x1="192.27" x2="376.47" y1="32.28" y2="216.49" data-name="Dégradé sans nom 21" gradientUnits="userSpaceOnUse"><stop offset=".1" stop-color="#5c5b72"/><stop offset=".5" stop-color="#b0b0bf"/><stop offset=".96" stop-color="#f4f4f6"/></linearGradient><linearGradient id="Dégradé_sans_nom_27" x1="808.09" x2="887.6" y1="-405.34" y2="-325.82" data-name="Dégradé sans nom 27" gradientTransform="scale(1 -1) rotate(-67.97 730.363 -9.71)" gradientUnits="userSpaceOnUse"><stop offset="0" stop-color="#b0b0bf"/><stop offset="1" stop-color="#f4f4f6"/></linearGradient><linearGradient id="Dégradé_sans_nom_29" x1="58.51" x2="155.39" y1="211.31" y2="308.2" data-name="Dégradé sans nom 29" gradientUnits="userSpaceOnUse"><stop offset="0" stop-color="#b0b0bf"/><stop offset="1" stop-color="#5c5b72"/></linearGradient><linearGradient id="Dégradé_sans_nom_15" x1="205.3" x2="369.38" y1="255.95" y2="420.02" data-name="Dégradé sans nom 15" gradientUnits="userSpaceOnUse"><stop offset=".1" stop-color="#5c5b72"/><stop offset=".5" stop-color="#b0b0bf"/><stop offset=".96" stop-color="#f4f4f6"/></linearGradient><radialGradient id="Dégradé_sans_nom_17" cx="284.14" cy="528.77" r="128.58" data-name="Dégradé sans nom 17" fx="284.14" fy="528.77" gradientTransform="matrix(1 .00035 -.00004 .11 .02 468.55)" gradientUnits="userSpaceOnUse"><stop offset=".4" stop-color="#343443" stop-opacity=".5"/><stop offset="1" stop-color="#343443" stop-opacity="0"/></radialGradient><style>.cls-2{fill:#343443}.cls-8{fill:#fff;opacity:.5}</style></defs><path d="M400.23 45.91c0-17.19-6.59-23.55-14.77-23.55s-14.77 6.36-14.77 23.55c0 12.95 3.79 24.09 9.16 28.78v58.47c.16.32.32.65.47.98-17.43-35.49-53.95-59.94-96.19-59.94s-78.15 24.05-95.75 59.06V74.97c5.38-4.7 9.16-15.83 9.16-28.78 0-17.19-6.59-23.55-14.77-23.55S168 29 168 46.19c0 12.95 3.71 24.01 9.01 28.71v106.64c0-1.66.05-3.31.12-4.95-.07 1.54-.11 3.08-.11 4.63 0 17.27 4.09 33.63 11.36 48.09 17.65 34.99 53.85 59 95.74 59s78.09-24.01 95.74-59c7.27-14.47 11.36-30.83 11.36-48.09 0-.48-.01-.95-.02-1.43V74.62c5.3-4.7 9.01-15.75 9.01-28.71ZM177.26 174.54l-.06.88.06-.88Zm106.88 21.74c-27.65 0-49.99-17.83-49.99-39.89s22.34-39.82 49.99-39.82 49.99 17.83 49.99 39.82-22.42 39.89-49.99 39.89Z" style="fill:url(#Dégradé_sans_nom_21)"/><path d="M404.95 317.18c11.99 1.77 29.56-.03 46.66-18.15 21.92-23.17 40.79-75.08 49.44-101.55 1.25-3.77-3.6-6.47-6.24-3.52l-95.34 107.86c-4.89 5.49-1.74 14.27 5.48 15.35Z" style="fill:url(#Dégradé_sans_nom_27)"/><path d="M161.98 317.18c-11.99 1.77-29.56-.03-46.66-18.15-21.92-23.17-40.79-75.08-49.44-101.55-1.25-3.77 3.6-6.47 6.24-3.52l95.34 107.86c4.89 5.49 1.74 14.27-5.48 15.35Z" style="fill:url(#Dégradé_sans_nom_29)"/><path d="M378.49 282.9c8.1-2.42 15.15 6.06 11.21 13.56l-92.93 178.06c-5.3 10.22-20 10.22-25.3 0l-92.93-178.06c-3.86-7.5 3.18-15.98 11.29-13.56l83.84 25.45 6.06 73.24c.45 5.38 8.33 5.38 8.79 0l6.06-73.24 83.92-25.45Z" style="fill:url(#Dégradé_sans_nom_15)"/><path d="M262.65 204.86h42.95s-.91 33.28-21.48 33.28-21.48-33.28-21.48-33.28Z" style="fill:#5c5b72"/><path d="M344.13 181.26c5.33-5.18 8.86-14.81 8.86-28.59 0-21.7-8.74-33.08-19.51-33.08s-19.51 11.38-19.51 33.08c0 13.56 3.41 23.1 8.6 28.34 0 0 11-4.41 21.56.25Z" class="cls-2"/><ellipse cx="328.81" cy="143.93" class="cls-8" rx="4.54" ry="3.12"/><ellipse cx="335.75" cy="134.35" class="cls-8" rx="6.93" ry="6.09"/><path d="M245.33 181.26c5.33-5.18 8.86-14.81 8.86-28.59 0-21.7-8.74-33.08-19.51-33.08s-19.51 11.38-19.51 33.08c0 13.56 3.41 23.1 8.6 28.34 0 0 11-4.41 21.56.25Z" class="cls-2"/><ellipse cx="230.01" cy="143.93" class="cls-8" rx="4.54" ry="3.12"/><ellipse cx="236.94" cy="134.35" class="cls-8" rx="6.93" ry="6.09"/><path d="M313.96 86.74s17.95-6.42 39.03 15.07c0 0-13.48-21.21-24.18-22.6-9.98-1.3-14.85 7.53-14.85 7.53ZM254.19 86.74s-17.95-6.42-39.03 15.07c0 0 13.48-21.21 24.18-22.6 9.98-1.3 14.85 7.53 14.85 7.53Z" class="cls-2"/><ellipse cx="284.14" cy="528.77" rx="130.63" ry="15.87" style="fill:url(#Dégradé_sans_nom_17)"/></svg>