<svg xmlns="http://www.w3.org/2000/svg" xmlns:xlink="http://www.w3.org/1999/xlink" id="Calque_1" data-name="Calque 1" viewBox="0 0 566.93 566.93"><defs><linearGradient id="Dégradé_sans_nom_21" x1="191.54" x2="375.81" y1="27.3" y2="211.57" data-name="Dégradé sans nom 21" gradientUnits="userSpaceOnUse"><stop offset=".1" stop-color="#5c5b72"/><stop offset=".5" stop-color="#b0b0bf"/><stop offset=".96" stop-color="#f4f4f6"/></linearGradient><linearGradient id="Dégradé_sans_nom_27" x1="-11817.03" x2="-11617.11" y1="-9083.45" y2="-8883.54" data-name="Dégradé sans nom 27" gradientTransform="rotate(97.14 -9793.63 988.225)" gradientUnits="userSpaceOnUse"><stop offset="0" stop-color="#b0b0bf"/><stop offset="1" stop-color="#f4f4f6"/></linearGradient><linearGradient id="Dégradé_sans_nom_15" x1="248.49" x2="412.4" y1="207.69" y2="371.6" data-name="Dégradé sans nom 15" gradientUnits="userSpaceOnUse"><stop offset=".1" stop-color="#5c5b72"/><stop offset=".5" stop-color="#b0b0bf"/><stop offset=".96" stop-color="#f4f4f6"/></linearGradient><linearGradient id="Dégradé_sans_nom_23" x1="179.83" x2="261.72" y1="313.53" y2="395.42" data-name="Dégradé sans nom 23" gradientTransform="rotate(-45.61 208.19 362.14)" gradientUnits="userSpaceOnUse"><stop offset="0" stop-color="#5c5b72"/><stop offset="1" stop-color="#b0b0bf"/></linearGradient><linearGradient xlink:href="#Dégradé_sans_nom_15" id="Dégradé_sans_nom_15-2" x1="183.27" x2="347.18" y1="272.91" y2="436.81" data-name="Dégradé sans nom 15"/><radialGradient id="Dégradé_sans_nom_17" cx="283.46" cy="528.73" r="128.87" data-name="Dégradé sans nom 17" fx="283.46" fy="528.73" gradientTransform="matrix(1 .00035 -.00004 .11 .02 468.52)" gradientUnits="userSpaceOnUse"><stop offset=".4" stop-color="#343443" stop-opacity=".5"/><stop offset="1" stop-color="#343443" stop-opacity="0"/></radialGradient><style>.cls-1{fill:#64c5ed}.cls-3{fill:#343443}</style></defs><ellipse cx="283.46" cy="528.73" rx="130.92" ry="15.9" style="fill:url(#Dégradé_sans_nom_17)"/><path d="M399.57 40.99c0-17.19-6.59-23.55-14.77-23.55s-14.77 6.36-14.77 23.55c0 12.95 3.79 24.09 9.16 28.78v58.47c.16.32.31.65.47.97-17.43-35.49-53.95-59.93-96.19-59.93s-78.15 24.05-95.75 59.06V69.91c5.38-4.7 9.16-15.83 9.16-28.78 0-17.19-6.59-23.55-14.77-23.55s-14.77 6.36-14.77 23.55c0 12.95 3.71 24.01 9.01 28.71v106.64c0-2.64.11-5.26.3-7.86-.18 2.54-.28 5.1-.28 7.68 0 17.27 4.09 33.63 11.36 48.09 17.65 34.99 53.85 59 95.74 59s78.09-24.01 95.74-59c7.27-14.47 11.36-30.83 11.36-48.09 0-.48-.01-.96-.02-1.44V69.69c5.3-4.7 9.01-15.75 9.01-28.71Zm-222.7 125.07c-.05.54-.1 1.08-.14 1.62.04-.54.09-1.08.14-1.62Zm.67-5.51c0 .05-.01.1-.02.15 0-.05.01-.1.02-.15Zm-.37 2.79-.12 1.05.12-1.05Zm106.31 28.02c-27.65 0-49.99-17.83-49.99-39.89s22.34-39.82 49.99-39.82 49.99 17.83 49.99 39.82-22.42 39.89-49.99 39.89Z" style="fill:url(#Dégradé_sans_nom_21)"/><path d="M261.99 199.95h42.95s-.91 33.28-21.48 33.28-21.48-33.28-21.48-33.28Z" style="fill:#5c5b72"/><path d="M219.04 154.02c-.98 2.02-4.07 1.21-3.91-1.03.85-11.56 4.74-25.07 18.28-25.07s18.26 14.39 19.43 26.18c.23 2.3-2.89 3.14-3.93 1.08-2.86-5.61-7.65-10.77-15.62-10.77-7.42 0-11.74 4.47-14.25 9.62ZM318.02 154.02c-.98 2.02-4.07 1.21-3.91-1.03.85-11.56 4.74-25.07 18.28-25.07s18.26 14.39 19.43 26.18c.23 2.3-2.89 3.14-3.93 1.08-2.86-5.61-7.65-10.77-15.62-10.77-7.42 0-11.74 4.47-14.25 9.62Z" class="cls-3"/><path d="M397.51 302.69s6.67 22.15-42.48 37.76-97.46 14.76-99.37 4.63c-1.44-7.64 38.74-23.67 80.8-40.82 43.21-17.62 57.57-13.62 61.05-1.57Z" style="fill:url(#Dégradé_sans_nom_27)"/><path d="m329.96 302.6 5-2.04c20.18-8.23 35.15-12.22 45.77-12.22v4-4c3.67 0 6.88.49 9.63 1.45 1.61-6.82-4.83-13.45-12.13-11.27l-84.26 25.55-1.16 13.99c10.07-4.35 22.34-9.43 37.16-15.46Z" style="fill:url(#Dégradé_sans_nom_15)"/><path d="M163.66 299.7c-2.43 11.93-1.58 29.66 15.65 47.8 22.04 23.25 73.09 45.01 99.16 55.14 3.72 1.46 6.69-3.26 3.87-6.07L179.35 295.05c-5.24-5.2-14.22-2.53-15.7 4.65Z" style="fill:url(#Dégradé_sans_nom_23)"/><path d="M356.24 344.26c-22.22 7.06-46.12 11.36-66.61 12.09l-1.76 21.26c-.46 5.4-8.37 5.4-8.82 0l-1.76-21.28c-15.77-.71-24.37-4.23-25.56-10.5-1.05-5.56 4.64-10.77 23.06-19.63l-1.83-22.12-84.19-25.55c-6.96-2.08-13.14 3.85-12.35 10.33 2.14.61 4.11 1.74 5.74 3.36l103.01 101.55c2.26 2.26 2.9 5.48 1.69 8.4-1.2 2.9-3.95 4.77-7 4.77-.96 0-1.92-.19-2.84-.55-13.9-5.4-33.29-13.48-52.02-23.11l45.75 87.66c5.32 10.27 20.08 10.27 25.4 0l67.43-129.2c-2.31.86-4.76 1.71-7.35 2.53Z" style="fill:url(#Dégradé_sans_nom_15-2)"/><path d="M317.96 67.01s-9.78 11.39 2.14 16.76c13.04 5.87 30.5 13.98 30.5 13.98s-33.9-20-32.64-30.75ZM248.86 66.95s9.81 11.36-2.08 16.77c-13.02 5.92-30.45 14.09-30.45 14.09s33.83-20.11 32.54-30.86Z" class="cls-3"/><path d="M360.53 160.59s63.74 7.13 50.43 29.28c-13.31 22.14-50.43-29.28-50.43-29.28ZM379.48 149.85s33.21-24.17 36.49-7.95c3.28 16.22-36.49 7.95-36.49 7.95ZM206.44 160.59s-63.74 7.13-50.43 29.28c13.31 22.14 50.43-29.28 50.43-29.28ZM187.49 149.85s-33.21-24.17-36.49-7.95c-3.28 16.22 36.49 7.95 36.49 7.95Z" class="cls-1"/></svg>