<svg xmlns="http://www.w3.org/2000/svg" id="Calque_1" data-name="Calque 1" viewBox="0 0 566.93 566.93"><defs><linearGradient id="Dégradé_sans_nom_27" x1="408.3" x2="408.3" y1="279.92" y2="450.83" data-name="Dégradé sans nom 27" gradientUnits="userSpaceOnUse"><stop offset="0" stop-color="#b0b0bf"/><stop offset="1" stop-color="#f4f4f6"/></linearGradient><linearGradient id="Dégradé_sans_nom_23" x1="113.01" x2="218.62" y1="318.9" y2="424.51" data-name="Dégradé sans nom 23" gradientUnits="userSpaceOnUse"><stop offset="0" stop-color="#5c5b72"/><stop offset="1" stop-color="#b0b0bf"/></linearGradient><linearGradient id="Dégradé_sans_nom_15" x1="204.32" x2="369.07" y1="254.15" y2="418.9" data-name="Dégradé sans nom 15" gradientUnits="userSpaceOnUse"><stop offset=".1" stop-color="#5c5b72"/><stop offset=".5" stop-color="#b0b0bf"/><stop offset=".96" stop-color="#f4f4f6"/></linearGradient><linearGradient id="Dégradé_sans_nom_21" x1="191.1" x2="376.16" y1="29.43" y2="214.49" data-name="Dégradé sans nom 21" gradientUnits="userSpaceOnUse"><stop offset=".1" stop-color="#5c5b72"/><stop offset=".5" stop-color="#b0b0bf"/><stop offset=".96" stop-color="#f4f4f6"/></linearGradient><radialGradient id="Dégradé_sans_nom_17" cx="283.46" cy="531.43" r="128.87" data-name="Dégradé sans nom 17" fx="283.46" fy="531.43" gradientTransform="matrix(1 .00035 -.00004 .11 .02 470.91)" gradientUnits="userSpaceOnUse"><stop offset=".4" stop-color="#343443" stop-opacity=".5"/><stop offset="1" stop-color="#343443" stop-opacity="0"/></radialGradient><style>.cls-1{fill:#343443}.cls-8{fill:#fff;opacity:.5}</style></defs><ellipse cx="283.46" cy="531.43" rx="130.92" ry="15.9" style="fill:url(#Dégradé_sans_nom_17)"/><path d="M403.85 300.38c10.21 6.62 22.27 19.63 23.15 44.63 1.16 32-19.05 83.66-30.07 109.35-1.56 3.68-7 2.49-7.04-1.49l-.35-144.55c-.04-7.38 8.15-11.91 14.31-7.94Z" style="fill:url(#Dégradé_sans_nom_27)"/><path d="M163.07 300.38c-10.21 6.62-22.27 19.63-23.15 44.63-1.16 32 19.05 83.66 30.07 109.35 1.56 3.68 7 2.49 7.04-1.49l.35-144.55c.04-7.38-8.15-11.91-14.31-7.94Z" style="fill:url(#Dégradé_sans_nom_23)"/><path d="M378.22 281.21c8.14-2.43 15.21 6.08 11.26 13.61l-93.31 178.8c-5.32 10.27-20.08 10.27-25.4 0l-93.31-178.8c-3.88-7.53 3.19-16.05 11.33-13.61l84.19 25.55 6.08 73.54c.46 5.4 8.37 5.4 8.82 0l6.08-73.54 84.26-25.55Z" style="fill:url(#Dégradé_sans_nom_15)"/><path d="M385.22 19.6c-8.14 0-14.83 6.39-14.83 23.65 0 13 3.8 24.18 9.2 28.9v58.71c-17.72-35.14-54.07-59.24-96.13-59.24s-78.41 24.11-96.13 59.24V72.15c5.4-4.72 9.2-15.89 9.2-28.9 0-17.26-6.62-23.65-14.83-23.65s-14.83 6.39-14.83 23.65c0 13 3.73 24.11 9.05 28.82v107.08c0 59.32 48.14 107.46 107.54 107.46S391 238.47 391 179.15V72.07c5.32-4.72 9.05-15.82 9.05-28.82 0-17.26-6.62-23.65-14.83-23.65ZM283.46 229.27c-27.68 0-50.19-22.44-50.19-50.12s22.51-50.19 50.19-50.19 50.19 22.44 50.19 50.19-22.44 50.12-50.19 50.12Z" style="fill:url(#Dégradé_sans_nom_21)"/><ellipse cx="333.02" cy="179.11" class="cls-1" rx="19.59" ry="33.22"/><ellipse cx="328.34" cy="170.34" class="cls-8" rx="4.55" ry="3.13"/><ellipse cx="335.3" cy="160.73" class="cls-8" rx="6.96" ry="6.11"/><ellipse cx="233.91" cy="179.11" class="cls-1" rx="19.59" ry="33.22"/><ellipse cx="229.21" cy="170.34" class="cls-8" rx="4.55" ry="3.13"/><ellipse cx="236.17" cy="160.73" class="cls-8" rx="6.96" ry="6.11"/><path d="M312.94 111.3s16-11.28 42.1 9.15c0 0-18.58-21.73-29.43-21.06-10.12.62-12.67 11.91-12.67 11.91ZM253.99 111.31s-15.99-11.29-42.1 9.12c0 0 18.6-21.72 29.44-21.04 10.12.63 12.66 11.92 12.66 11.92Z" class="cls-1"/><path d="M247.7 237.75h71.53" style="fill:none;stroke:#5c5b72;stroke-linecap:round;stroke-linejoin:round;stroke-width:4px"/></svg>