<svg xmlns="http://www.w3.org/2000/svg" xmlns:xlink="http://www.w3.org/1999/xlink" id="Calque_1" data-name="Calque 1" viewBox="0 0 566.93 566.93"><defs><linearGradient id="Dégradé_sans_nom_21" x1="201.58" x2="364.89" y1="95.64" y2="258.96" data-name="Dégradé sans nom 21" gradientUnits="userSpaceOnUse"><stop offset=".1" stop-color="#5c5b72"/><stop offset=".5" stop-color="#b0b0bf"/><stop offset=".96" stop-color="#f4f4f6"/></linearGradient><linearGradient id="Dégradé_sans_nom_27" x1="345.33" x2="418.91" y1="330.66" y2="404.24" data-name="Dégradé sans nom 27" gradientUnits="userSpaceOnUse"><stop offset="0" stop-color="#b0b0bf"/><stop offset="1" stop-color="#f4f4f6"/></linearGradient><linearGradient xlink:href="#Dégradé_sans_nom_27" id="Dégradé_sans_nom_27-2" x1="308.41" x2="453.53" y1="293.74" y2="438.86" data-name="Dégradé sans nom 27"/><linearGradient xlink:href="#Dégradé_sans_nom_21" id="Dégradé_sans_nom_21-2" x1="215.15" x2="351.3" y1="266.9" y2="403.05" data-name="Dégradé sans nom 21"/><linearGradient xlink:href="#Dégradé_sans_nom_21" id="Dégradé_sans_nom_21-3" x1="203.91" x2="368.74" y1="255.65" y2="420.48" data-name="Dégradé sans nom 21"/><linearGradient id="Dégradé_sans_nom_23" x1="135.53" x2="219.92" y1="328.63" y2="413.02" data-name="Dégradé sans nom 23" gradientUnits="userSpaceOnUse"><stop offset="0" stop-color="#5c5b72"/><stop offset="1" stop-color="#b0b0bf"/></linearGradient><linearGradient xlink:href="#Dégradé_sans_nom_23" id="Dégradé_sans_nom_23-2" x1="132.39" x2="214.28" y1="325.49" y2="407.38" data-name="Dégradé sans nom 23"/><radialGradient id="Dégradé_sans_nom_17" cx="283.46" cy="528.72" r="128.93" data-name="Dégradé sans nom 17" fx="283.46" fy="528.72" gradientTransform="matrix(1 .00035 -.00004 .11 .02 468.52)" gradientUnits="userSpaceOnUse"><stop offset=".4" stop-color="#343443" stop-opacity=".5"/><stop offset="1" stop-color="#343443" stop-opacity="0"/></radialGradient><style>.cls-1{fill:#64c5ed}.cls-2{fill:#343443}.cls-12{fill:#fff;opacity:.5}</style></defs><path d="M384.9 98.85c-8.14 0-14.84 8.88-14.84 24.79 0 11.98 3.8 25.03 9.21 29.38v8.51c-17.73-35.15-54.1-59.27-96.18-59.27s-78.45 24.12-96.18 59.27v-8.51c5.4-4.34 9.21-17.4 9.21-29.38 0-15.9-6.62-24.79-14.84-24.79s-14.84 8.88-14.84 24.79c0 11.98 3.73 24.96 9.05 29.31v56.9c0 59.35 48.16 107.51 107.59 107.51s107.59-48.16 107.59-107.51v-56.9c5.33-4.34 9.05-17.33 9.05-29.31 0-15.9-6.62-24.79-14.84-24.79ZM283.09 282.69c-27.7 0-50.22-16.72-50.22-37.35s22.52-37.4 50.22-37.4 50.22 16.72 50.22 37.4-22.45 37.35-50.22 37.35Z" style="fill:url(#Dégradé_sans_nom_21)"/><ellipse cx="283.46" cy="528.72" rx="130.99" ry="15.91" style="fill:url(#Dégradé_sans_nom_17)"/><path d="M414.4 337.98c-.83-22.88-11.01-35.71-20.56-42.79-.26 1.03-.63 2.04-1.14 3l-15.72 30.12.41 117.62c.04 3.98 5.49 5.16 7.05 1.48 11-25.72 31.16-77.42 29.97-109.43Z" style="fill:url(#Dégradé_sans_nom_27)"/><path d="M414.4 337.98c-.83-22.88-11.01-35.71-20.56-42.79-.26 1.03-.63 2.04-1.14 3l-15.72 30.12.41 117.62c.04 3.98 5.49 5.16 7.05 1.48 11-25.72 31.16-77.42 29.97-109.43Z" style="fill:url(#Dégradé_sans_nom_27-2)"/><path d="m377.9 282.72-14.42 4.37c-18.26 18.97-43.17 31.51-70.94 33.85l-5.04 60.92c-.46 5.4-8.37 5.4-8.83 0l-5.04-60.92c-27.78-2.34-52.7-14.89-70.96-33.88l-14.31-4.34c-8.14-2.43-15.22 6.09-11.34 13.62l93.36 178.88c5.33 10.27 20.09 10.27 25.41 0l93.36-178.88c3.96-7.53-3.12-16.05-11.26-13.62Z" style="fill:url(#Dégradé_sans_nom_21-2)"/><path d="m377.9 282.72-14.42 4.37c-18.26 18.97-43.17 31.51-70.94 33.85l-5.04 60.92c-.46 5.4-8.37 5.4-8.83 0l-5.04-60.92c-27.78-2.34-52.7-14.89-70.96-33.88l-14.31-4.34c-8.14-2.43-15.22 6.09-11.34 13.62l93.36 178.88c5.33 10.27 20.09 10.27 25.41 0l93.36-178.88c3.96-7.53-3.12-16.05-11.26-13.62Z" style="fill:url(#Dégradé_sans_nom_21-3)"/><path d="M352.28 245.31c0 21.8-8.78 33.24-19.6 33.24-10.83 0-19.6-11.43-19.6-33.24 0-5.75.61-10.77 1.71-15.06 0 0 21.03 8.32 37.5 15.06ZM213.9 245.31c0 21.8 8.78 33.24 19.6 33.24 10.83 0 19.6-11.43 19.6-33.24 0-5.75-.61-10.77-1.71-15.06 0 0-18.53 7.61-37.5 15.06Z" class="cls-2"/><ellipse cx="227.3" cy="266.02" class="cls-12" rx="5.4" ry="4.26"/><path d="M248.88 252.28c0 5.23-4.83 9.48-10.79 9.48-5.96 0-10.79-4.24-10.79-9.48s4.83-9.48 10.79-9.48 10.79 4.24 10.79 9.48Z" class="cls-12"/><ellipse cx="326.46" cy="266.02" class="cls-12" rx="5.4" ry="4.26"/><ellipse cx="337.25" cy="252.28" class="cls-12" rx="10.79" ry="9.48"/><path d="M273.56 302.35s0-10.65 9.53-10.65 9.57 10.65 9.57 10.65" style="fill:none;stroke:#5c5b72;stroke-linecap:round;stroke-linejoin:round;stroke-width:4px"/><path d="M241.08 275.72s-1.04.83-7.6.05c-6.56-.77-9.81-5.6-12.83-2.83-3.03 2.77-1.08 9.38 8.75 10.07 15.07 1.06 16.52-7.89 11.69-7.29ZM325.1 275.72s1.04.83 7.6.05 9.81-5.6 12.83-2.83c3.03 2.77 1.08 9.38-8.75 10.07-15.07 1.06-16.52-7.89-11.69-7.29ZM342.05 284.81s-6.9 20.81 0 20.81 0-20.81 0-20.81ZM233.51 295.3s-6.9 20.81 0 20.81 0-20.81 0-20.81Z" class="cls-1"/><path d="M315.62 197.12s-8.07 12.66 4.49 16.29c13.74 3.97 32.17 9.54 32.17 9.54s-36.38-15.01-36.66-25.83ZM250.56 197.12s8.07 12.66-4.49 16.29c-13.74 3.97-32.17 9.54-32.17 9.54s36.38-15.01 36.66-25.83Z" class="cls-2"/><path d="M173.47 298.18c-.03-.06-.05-.13-.08-.19-8.42 7.5-16.39 19.85-17.12 39.99-1.2 32.02 18.97 83.72 29.97 109.43 1.56 3.68 7 2.5 7.05-1.48l.38-109.08-20.18-38.67Z" style="fill:url(#Dégradé_sans_nom_23)"/><path d="M173.47 298.18c-.03-.06-.05-.13-.08-.19-8.42 7.5-16.39 19.85-17.12 39.99-1.2 32.02 18.97 83.72 29.97 109.43 1.56 3.68 7 2.5 7.05-1.48l.38-109.08-20.18-38.67Z" style="fill:url(#Dégradé_sans_nom_23-2)"/></svg>