<svg xmlns="http://www.w3.org/2000/svg" xmlns:xlink="http://www.w3.org/1999/xlink" id="Calque_1" data-name="Calque 1" viewBox="0 0 566.93 566.93"><defs><linearGradient id="Dégradé_sans_nom_15" x1="255.1" x2="421.99" y1="189.79" y2="356.68" data-name="Dégradé sans nom 15" gradientUnits="userSpaceOnUse"><stop offset=".1" stop-color="#5c5b72"/><stop offset=".5" stop-color="#b0b0bf"/><stop offset=".96" stop-color="#f4f4f6"/></linearGradient><linearGradient id="Dégradé_sans_nom_21" x1="191.11" x2="376.15" y1="29.44" y2="214.49" data-name="Dégradé sans nom 21" gradientUnits="userSpaceOnUse"><stop offset=".1" stop-color="#5c5b72"/><stop offset=".5" stop-color="#b0b0bf"/><stop offset=".96" stop-color="#f4f4f6"/></linearGradient><linearGradient id="Dégradé_sans_nom_27" x1="-7996.63" x2="-7796.72" y1="-14900.09" y2="-14700.18" data-name="Dégradé sans nom 27" gradientTransform="rotate(-160.3 -2463.72 -7957.01)" gradientUnits="userSpaceOnUse"><stop offset="0" stop-color="#b0b0bf"/><stop offset="1" stop-color="#f4f4f6"/></linearGradient><linearGradient id="Dégradé_sans_nom_23" x1="226.3" x2="226.3" y1="382.13" y2="229.54" data-name="Dégradé sans nom 23" gradientUnits="userSpaceOnUse"><stop offset="0" stop-color="#5c5b72"/><stop offset="1" stop-color="#b0b0bf"/></linearGradient><linearGradient xlink:href="#Dégradé_sans_nom_15" id="Dégradé_sans_nom_15-2" x1="168.12" x2="335.01" y1="276.77" y2="443.66" data-name="Dégradé sans nom 15"/><linearGradient xlink:href="#Dégradé_sans_nom_15" id="Dégradé_sans_nom_15-3" x1="175.08" x2="341.97" y1="269.81" y2="436.7" data-name="Dégradé sans nom 15"/><radialGradient id="Dégradé_sans_nom_17" cx="283.46" cy="531.43" r="128.87" data-name="Dégradé sans nom 17" fx="283.46" fy="531.43" gradientTransform="matrix(1 .00035 -.00004 .11 .02 470.91)" gradientUnits="userSpaceOnUse"><stop offset=".4" stop-color="#343443" stop-opacity=".5"/><stop offset="1" stop-color="#343443" stop-opacity="0"/></radialGradient><style>.cls-2{fill:#343443}.cls-10{fill:#fff;stroke:#343443;stroke-miterlimit:10;stroke-width:1.1px}</style></defs><path d="m378.22 281.21-20.09 6.09c1.27 7.13 2.62 15.01 4.09 23.72l.9 5.32c1.48 8.73 2.47 16.47 2.96 23.29l23.39-44.81c3.95-7.53-3.12-16.05-11.26-13.61Z" style="fill:url(#Dégradé_sans_nom_15)"/><ellipse cx="283.46" cy="531.43" rx="130.92" ry="15.9" style="fill:url(#Dégradé_sans_nom_17)"/><path d="M400.05 43.27c0-17.26-6.62-23.65-14.83-23.65s-14.83 6.39-14.83 23.65c0 13 3.8 24.18 9.2 28.9v58.69c-17.72-35.14-54.07-59.24-96.13-59.24s-78.41 24.11-96.13 59.24 0-58.69 0-58.69c5.4-4.72 9.2-15.89 9.2-28.9 0-17.26-6.62-23.65-14.83-23.65s-14.83 6.39-14.83 23.65c0 13 3.73 24.11 9.05 28.82v107.08-.01c0 32.76 14.69 62.1 37.85 81.81 5.58-26.89 9.68-35.49 16.1-35.7h.24c2.45 0 4.76 1.17 6.87 3.47 6.5 7.1 12.15 27.29 14.26 52.96 10.17 3.19 20.99 4.91 32.21 4.91s22.04-1.72 32.21-4.91c2.11-25.67 7.77-45.86 14.26-52.96 2.11-2.3 4.42-3.47 6.87-3.47h.24c6.43.21 10.52 8.81 16.1 35.7 23.15-19.71 37.84-49.05 37.85-81.81V72.08c5.32-4.72 9.05-15.82 9.05-28.82Zm-116.59 186c-27.68 0-50.19-22.44-50.19-50.12s22.51-50.19 50.19-50.19 50.19 22.44 50.19 50.19-22.44 50.12-50.19 50.12Z" style="fill:url(#Dégradé_sans_nom_21)"/><ellipse cx="333.02" cy="179.11" class="cls-10" rx="21.55" ry="36.54"/><ellipse cx="233.91" cy="179.11" class="cls-10" rx="21.55" ry="36.54"/><path d="M313.43 94.98s18.03-7.62 39.19 17.89c0 0-13.54-25.18-24.28-26.84-10.02-1.55-14.91 8.95-14.91 8.95Z" class="cls-2"/><path d="M292.97 259.71c0-11.64-4.26-13.14-9.51-13.14s-9.51 1.5-9.51 13.14 4.26 21.07 9.51 21.07 9.51-9.44 9.51-21.07Z" style="fill:#5c5b72"/><path d="M253.5 94.98s-18.03-7.62-39.19 17.89c0 0 13.54-25.18 24.28-26.84 10.02-1.55 14.91 8.95 14.91 8.95Z" class="cls-2"/><path d="M347.45 376.94s-23.07 1.69-27.61-49.68c-4.55-51.37 6.79-98.33 17.09-98 7.78.26 14.68 42.96 22.27 87.74 7.8 46.01.77 59.16-11.74 59.93Z" style="fill:url(#Dégradé_sans_nom_27)"/><path d="M219.48 376.94s23.07 1.69 27.61-49.68c4.55-51.37-6.79-98.33-17.09-98-7.78.26-14.68 42.96-22.27 87.74-7.8 46.01-.77 59.16 11.74 59.93Z" style="fill:url(#Dégradé_sans_nom_23)"/><path d="m203.8 316.35.9-5.32c1.47-8.71 2.83-16.6 4.1-23.73l-20.01-6.07c-8.14-2.43-15.21 6.08-11.33 13.61l23.39 44.81c.49-6.82 1.48-14.56 2.96-23.29Z" style="fill:url(#Dégradé_sans_nom_15-2)"/><path d="M331.24 372.92c-8.34-8.91-13.53-24.15-15.4-45.3a277.13 277.13 0 0 1-1.04-27.18l-20.85 6.32-6.08 73.54c-.46 5.4-8.37 5.4-8.82 0l-6.08-73.54-20.85-6.33c.1 8.77-.21 17.91-1.04 27.18-1.87 21.15-7.05 36.39-15.4 45.3-5.14 5.48-10.27 7.24-13.41 7.79l48.49 92.92c5.32 10.27 20.08 10.27 25.4 0l48.49-92.92c-3.15-.55-8.28-2.31-13.41-7.79Z" style="fill:url(#Dégradé_sans_nom_15-3)"/></svg>