<svg xmlns="http://www.w3.org/2000/svg" xmlns:xlink="http://www.w3.org/1999/xlink" id="Calque_1" data-name="Calque 1" viewBox="0 0 566.93 566.93"><defs><linearGradient id="Dégradé_sans_nom_21" x1="202.2" x2="365.06" y1="79.95" y2="242.8" data-name="Dégradé sans nom 21" gradientUnits="userSpaceOnUse"><stop offset=".1" stop-color="#5c5b72"/><stop offset=".5" stop-color="#b0b0bf"/><stop offset=".96" stop-color="#f4f4f6"/></linearGradient><linearGradient id="Dégradé_sans_nom_15" x1="162.43" x2="328.11" y1="287.54" y2="453.21" data-name="Dégradé sans nom 15" gradientUnits="userSpaceOnUse"><stop offset=".1" stop-color="#5c5b72"/><stop offset=".5" stop-color="#b0b0bf"/><stop offset=".96" stop-color="#f4f4f6"/></linearGradient><linearGradient xlink:href="#Dégradé_sans_nom_15" id="Dégradé_sans_nom_15-2" x1="176.97" x2="342.64" y1="273" y2="438.68" data-name="Dégradé sans nom 15"/><linearGradient xlink:href="#Dégradé_sans_nom_15" id="Dégradé_sans_nom_15-3" x1="229" x2="394.67" y1="220.98" y2="386.65" data-name="Dégradé sans nom 15"/><linearGradient id="Dégradé_sans_nom_27" x1="1219.04" x2="1298.88" y1="1625.29" y2="1705.13" data-name="Dégradé sans nom 27" gradientTransform="rotate(25.19 3724.377 -1079.042)" gradientUnits="userSpaceOnUse"><stop offset="0" stop-color="#b0b0bf"/><stop offset="1" stop-color="#f4f4f6"/></linearGradient><linearGradient id="Dégradé_sans_nom_23" x1="186.91" x2="301.8" y1="298.07" y2="412.97" data-name="Dégradé sans nom 23" gradientUnits="userSpaceOnUse"><stop offset="0" stop-color="#5c5b72"/><stop offset="1" stop-color="#b0b0bf"/></linearGradient><linearGradient xlink:href="#Dégradé_sans_nom_23" id="Dégradé_sans_nom_23-2" x1="172.02" x2="286.91" y1="312.96" y2="427.86" data-name="Dégradé sans nom 23"/><radialGradient id="Dégradé_sans_nom_17" cx="283.46" cy="528.73" r="128.87" data-name="Dégradé sans nom 17" fx="283.46" fy="528.73" gradientTransform="matrix(1 .00035 -.00004 .11 .02 468.52)" gradientUnits="userSpaceOnUse"><stop offset=".4" stop-color="#343443" stop-opacity=".5"/><stop offset="1" stop-color="#343443" stop-opacity="0"/></radialGradient><style>.cls-1{fill:#343443}.cls-7{fill:none;stroke:#5c5b72;stroke-linecap:round;stroke-linejoin:round;stroke-width:4px}.cls-11{fill:#fff;opacity:.5}</style></defs><path d="M385 83.14c-8.12 0-14.8 8.86-14.8 24.72 0 11.95 3.79 24.96 9.18 29.29v8.49c-17.68-35.05-53.95-59.1-95.9-59.1s-78.22 24.05-95.9 59.1v-8.49c5.39-4.33 9.18-17.35 9.18-29.29 0-15.86-6.6-24.72-14.8-24.72s-14.8 8.86-14.8 24.72c0 11.95 3.72 24.89 9.03 29.22v56.74c0 59.18 48.03 107.21 107.28 107.21S390.75 253 390.75 193.82v-56.74c5.31-4.33 9.03-17.28 9.03-29.22 0-15.86-6.6-24.72-14.8-24.72ZM283.48 258.58c-27.62 0-50.08-17.86-50.08-39.89s22.46-39.96 50.08-39.96 50.08 17.86 50.08 39.96-22.38 39.89-50.08 39.89Z" style="fill:url(#Dégradé_sans_nom_21)"/><path d="m305.93 401.19 1.04.7c2.68 2.05 3.72 5.42 2.65 8.6-1.06 3.13-3.93 5.22-7.15 5.22-.63 0-1.27-.08-1.88-.23-6.44-1.55-14.04-3.49-22.22-5.77.13-.04.27-.08.4-.11-3.63 1.03-7.07 1.98-10.22 2.82-.69.19-1.39.28-2.07.28-3.18 0-6.04-2.07-7.12-5.14a7.866 7.866 0 0 1-.37-3.64c-9.55-3.05-19.3-6.5-28.57-10.31l40.35 77.31c5.32 10.27 20.08 10.27 25.4 0l43.1-82.58c-10.76 4.79-22.26 9.1-33.34 12.84Z" style="fill:url(#Dégradé_sans_nom_15)"/><ellipse cx="283.46" cy="528.73" rx="130.92" ry="15.9" style="fill:url(#Dégradé_sans_nom_17)"/><path d="M279.05 377.61 273 304.53a110.495 110.495 0 0 1-44.14-13.85l-40.09-12.17c-8.14-2.43-15.21 6.08-11.33 13.61l11.12 21.3c.99.42 1.93.97 2.8 1.63l90.57 68.02-3.25 2.56-86.24-64.77 35.06 67.18c10.59 4.57 22.02 8.66 33.08 12.18.37-.46.77-.89 1.24-1.28l21.94-17.33c-2.19.14-4.49-1.19-4.73-4.02Z" style="fill:url(#Dégradé_sans_nom_15-2)"/><path d="m378.22 278.52-40.13 12.17a110.475 110.475 0 0 1-44.17 13.85l-6.05 73.08c-.03.33-.08.63-.16.92l87.54-69.16c1.97-1.57 4.26-2.52 6.7-2.8l7.53-14.43c3.95-7.53-3.12-16.05-11.26-13.61Z" style="fill:url(#Dégradé_sans_nom_15-3)"/><path d="M349.41 198.92c2.03 5.15 3.21 11.75 3.21 19.74 0 9.5-1.67 17.03-4.45 22.5-14.61-9.04-30.47-.34-30.47-.34-2.67-5.44-4.27-12.86-4.27-22.16 0-14.26 3.76-24.09 9.39-29.17 0 0 12.48 4.6 26.59 9.43Z" class="cls-1"/><ellipse cx="328.34" cy="214.83" class="cls-11" rx="4.55" ry="3.13"/><ellipse cx="335.3" cy="205.21" class="cls-11" rx="6.96" ry="6.11"/><path d="M245.44 246.5c4.89-5.38 8.06-14.74 8.06-27.84 0-7.31-.99-13.45-2.71-18.39l-31.64-4.87c-3.02 5.53-4.84 13.31-4.84 23.26 0 12.69 2.97 21.87 7.6 27.32 0 0 11.5-3.75 23.53.53" class="cls-1"/><ellipse cx="229.21" cy="218.5" class="cls-11" rx="4.55" ry="3.13"/><ellipse cx="236.17" cy="208.89" class="cls-11" rx="6.96" ry="6.11"/><path d="M318.59 126.91s-9.78 11.39 2.14 16.76c13.04 5.87 30.5 13.98 30.5 13.98s-33.9-20-32.64-30.75ZM255.31 170.57s3.36 14.63-9.69 13.84c-14.28-.86-33.51-1.8-33.51-1.8s39.31-1.94 43.19-12.04Z" class="cls-1"/><path d="M392.83 318.84c1.11 12.12-1.67 29.64-20.78 45.78-24.44 20.69-77.54 36.73-104.55 43.95-3.85 1.05-6.29-3.97-3.18-6.46l113.42-89.61c5.78-4.6 14.4-.96 15.09 6.34Z" style="fill:url(#Dégradé_sans_nom_27)"/><path d="M301.77 266.16c-3.5 2.4-7 6.27-7 12.17s3.5 9.27 7 11.16M265.2 266.16c3.5 2.4 7 6.27 7 12.17s-3.5 9.27-7 11.16M272.2 278.17h22.57" class="cls-7"/><path d="m304.55 405.07-3.16-2.37c-5.41 1.77-10.68 3.4-15.67 4.88 5.84 1.56 11.2 2.91 15.8 4.02 3.88.95 6.19-4.12 3.02-6.53Z" style="fill:url(#Dégradé_sans_nom_23)"/><path d="m261.84 398.97 16.85-13.32-89.73-67.39c-5.89-4.45-14.42-.6-14.93 6.71-.81 12.14 2.4 29.59 21.89 45.26 15.13 12.19 40.77 22.4 64.66 30.01.37-.46.77-.89 1.24-1.28Z" style="fill:url(#Dégradé_sans_nom_23-2)"/></svg>