<svg xmlns="http://www.w3.org/2000/svg" xmlns:xlink="http://www.w3.org/1999/xlink" id="Calque_1" data-name="Calque 1" viewBox="0 0 566.93 566.93"><defs><linearGradient id="Dégradé_sans_nom_28" x1="308.4" x2="453.53" y1="293.74" y2="438.86" data-name="Dégradé sans nom 28" gradientUnits="userSpaceOnUse"><stop offset="0" stop-color="#f4f4f6"/><stop offset="1" stop-color="#b0b0bf"/></linearGradient><linearGradient id="Dégradé_sans_nom_21" x1="203.91" x2="368.74" y1="255.65" y2="420.48" data-name="Dégradé sans nom 21" gradientUnits="userSpaceOnUse"><stop offset=".1" stop-color="#5c5b72"/><stop offset=".5" stop-color="#b0b0bf"/><stop offset=".96" stop-color="#f4f4f6"/></linearGradient><linearGradient xlink:href="#Dégradé_sans_nom_21" id="Dégradé_sans_nom_21-2" x1="203.91" x2="368.74" y2="420.48" data-name="Dégradé sans nom 21"/><linearGradient xlink:href="#Dégradé_sans_nom_21" id="Dégradé_sans_nom_21-3" x1="201.58" x2="364.89" y1="95.64" y2="258.96" data-name="Dégradé sans nom 21"/><linearGradient xlink:href="#Dégradé_sans_nom_28" id="Dégradé_sans_nom_28-2" x1="87.67" x2="259.4" y1="280.76" y2="452.5" data-name="Dégradé sans nom 28"/><linearGradient id="Dégradé_sans_nom_23" x1="132.39" x2="214.28" y1="325.49" y2="407.38" data-name="Dégradé sans nom 23" gradientUnits="userSpaceOnUse"><stop offset="0" stop-color="#5c5b72"/><stop offset="1" stop-color="#b0b0bf"/></linearGradient><radialGradient id="Dégradé_sans_nom_17" cx="283.46" cy="528.72" r="128.93" data-name="Dégradé sans nom 17" fx="283.46" fy="528.72" gradientTransform="matrix(1 .00035 -.00004 .11 .02 468.52)" gradientUnits="userSpaceOnUse"><stop offset=".4" stop-color="#343443" stop-opacity=".5"/><stop offset="1" stop-color="#343443" stop-opacity="0"/></radialGradient><style>.cls-1{fill:#5c5b72}.cls-2{fill:#343443}</style></defs><ellipse cx="283.46" cy="528.72" rx="130.99" ry="15.91" style="fill:url(#Dégradé_sans_nom_17)"/><path d="M414.4 337.98c-.83-22.88-11.01-35.71-20.56-42.79-.26 1.03-.63 2.04-1.14 3l-15.72 30.12.41 117.62c.04 3.98 5.49 5.16 7.05 1.48 11-25.72 31.16-77.42 29.97-109.43Z" style="fill:url(#Dégradé_sans_nom_28)"/><path d="m377.9 282.72-14.42 4.37c-18.26 18.97-43.17 31.51-70.94 33.85l-5.04 60.92c-.46 5.4-8.37 5.4-8.83 0l-5.04-60.92c-27.78-2.34-52.7-14.89-70.96-33.88l-14.31-4.34c-8.14-2.43-15.22 6.09-11.34 13.62l93.36 178.88c5.33 10.27 20.09 10.27 25.41 0l93.36-178.88c3.96-7.53-3.12-16.05-11.26-13.62Z" style="fill:url(#Dégradé_sans_nom_21)"/><path d="m377.9 282.72-14.42 4.37c-18.26 18.97-43.17 31.51-70.94 33.85l-5.04 60.92c-.46 5.4-8.37 5.4-8.83 0l-5.04-60.92c-27.78-2.34-52.7-14.89-70.96-33.88l-14.31-4.34c-8.14-2.43-15.22 6.09-11.34 13.62l93.36 178.88c5.33 10.27 20.09 10.27 25.41 0l93.36-178.88c3.96-7.53-3.12-16.05-11.26-13.62Z" style="fill:url(#Dégradé_sans_nom_21-2)"/><path d="M384.9 98.85c-8.14 0-14.84 8.88-14.84 24.79 0 11.98 3.8 25.03 9.21 29.38v8.51c-17.73-35.15-54.1-59.27-96.18-59.27s-78.45 24.12-96.18 59.27v-8.51c5.4-4.34 9.21-17.4 9.21-29.38 0-15.9-6.62-24.79-14.84-24.79s-14.84 8.88-14.84 24.79c0 11.98 3.73 24.96 9.05 29.31v56.9c0 59.35 48.16 107.51 107.59 107.51s107.59-48.16 107.59-107.51v-56.9c5.33-4.34 9.05-17.33 9.05-29.31 0-15.9-6.62-24.79-14.84-24.79ZM283.09 282.69c-27.7 0-50.22-16.72-50.22-37.35s22.52-37.4 50.22-37.4 50.22 16.72 50.22 37.4-22.45 37.35-50.22 37.35Z" style="fill:url(#Dégradé_sans_nom_21-3)"/><path d="M347.53 242.51c.98-2.02 4.07-1.21 3.91 1.03-.85 11.56-4.74 25.07-18.28 25.07-13.97 0-18.26-14.39-19.43-26.18-.23-2.3 2.89-3.14 3.93-1.08 2.86 5.61 7.65 10.77 15.62 10.77 7.42 0 11.74-4.47 14.25-9.62ZM248.55 242.51c.98-2.02 4.07-1.21 3.91 1.03-.85 11.56-4.74 25.07-18.28 25.07s-18.26-14.39-19.43-26.18c-.23-2.3 2.89-3.14 3.93-1.08 2.86 5.61 7.65 10.77 15.62 10.77 7.42 0 11.74-4.47 14.25-9.62Z" class="cls-2"/><ellipse cx="283.09" cy="299.82" class="cls-1" rx="6.33" ry="6.14"/><path d="M313.98 192.2s18.72-5.71 37.13 21.85c0 0-10.86-26.45-21.37-29.21-9.8-2.57-15.76 7.36-15.76 7.36ZM252.93 192.18s-18.73-5.7-37.1 21.89c0 0 10.83-26.46 21.34-29.23 9.8-2.58 15.76 7.34 15.76 7.34Z" class="cls-2"/><path d="M173.47 298.18c-.03-.06-.05-.13-.08-.19-8.42 7.5-16.39 19.85-17.12 39.99-1.2 32.02 18.97 83.72 29.97 109.43 1.56 3.68 7 2.5 7.05-1.48l.38-109.08-20.18-38.67Z" style="fill:url(#Dégradé_sans_nom_28-2)"/><path d="M173.47 298.18c-.03-.06-.05-.13-.08-.19-8.42 7.5-16.39 19.85-17.12 39.99-1.2 32.02 18.97 83.72 29.97 109.43 1.56 3.68 7 2.5 7.05-1.48l.38-109.08-20.18-38.67Z" style="fill:url(#Dégradé_sans_nom_23)"/><path d="M416.5 185.73h-10.58c-.86 0-1.55-.69-1.55-1.55v-1.01c0-.35.12-.69.34-.97l8.74-10.95h-7.3c-.86 0-1.55-.69-1.55-1.55 0-.87.69-1.56 1.55-1.56h10.33c.86 0 1.55.69 1.55 1.55v.85c0 .35-.12.69-.34.97l-8.86 11.11h7.67c.86 0 1.55.69 1.55 1.55 0 .86-.69 1.55-1.55 1.55ZM443.11 171.98h-17.62a2.58 2.58 0 0 1-2.58-2.58v-1.68c0-.59.2-1.15.56-1.61l14.55-18.22h-12.15a2.58 2.58 0 0 1-2.58-2.58v-.02a2.58 2.58 0 0 1 2.58-2.58h17.2a2.58 2.58 0 0 1 2.58 2.58v1.42c0 .58-.2 1.15-.56 1.61l-14.75 18.5h12.77a2.58 2.58 0 1 1 0 5.16ZM484.8 153.96h-26.74a3.92 3.92 0 0 1-3.92-3.92v-2.55c0-.89.3-1.75.86-2.45l22.09-27.66h-18.45a3.92 3.92 0 0 1-3.92-3.92v-.03a3.92 3.92 0 0 1 3.92-3.92h26.11a3.92 3.92 0 0 1 3.92 3.92v2.16c0 .89-.3 1.75-.85 2.44l-22.39 28.08h19.39a3.92 3.92 0 1 1 0 7.84Z" class="cls-1"/></svg>