<svg xmlns="http://www.w3.org/2000/svg" id="Calque_1" data-name="Calque 1" viewBox="0 0 566.93 566.93"><defs><linearGradient id="Dégradé_sans_nom_27" x1="347.58" x2="460.4" y1="340.98" y2="453.8" data-name="Dégradé sans nom 27" gradientUnits="userSpaceOnUse"><stop offset="0" stop-color="#b0b0bf"/><stop offset="1" stop-color="#f4f4f6"/></linearGradient><linearGradient id="Dégradé_sans_nom_23" x1="116.36" x2="197.82" y1="362.32" y2="443.78" data-name="Dégradé sans nom 23" gradientUnits="userSpaceOnUse"><stop offset="0" stop-color="#5c5b72"/><stop offset="1" stop-color="#b0b0bf"/></linearGradient><linearGradient id="Dégradé_sans_nom_15" x1="204.32" x2="369.07" y1="251.46" y2="416.21" data-name="Dégradé sans nom 15" gradientUnits="userSpaceOnUse"><stop offset=".1" stop-color="#5c5b72"/><stop offset=".5" stop-color="#b0b0bf"/><stop offset=".96" stop-color="#f4f4f6"/></linearGradient><linearGradient id="Dégradé_sans_nom_21" x1="191.1" x2="376.16" y1="26.73" y2="211.8" data-name="Dégradé sans nom 21" gradientUnits="userSpaceOnUse"><stop offset=".1" stop-color="#5c5b72"/><stop offset=".5" stop-color="#b0b0bf"/><stop offset=".96" stop-color="#f4f4f6"/></linearGradient><radialGradient id="Dégradé_sans_nom_17" cx="283.46" cy="528.73" r="128.87" data-name="Dégradé sans nom 17" fx="283.46" fy="528.73" gradientTransform="matrix(1 .00035 -.00004 .11 .02 468.52)" gradientUnits="userSpaceOnUse"><stop offset=".4" stop-color="#343443" stop-opacity=".5"/><stop offset="1" stop-color="#343443" stop-opacity="0"/></radialGradient><style>.cls-2{fill:#343443}.cls-8{fill:#fff;opacity:.5}</style></defs><ellipse cx="283.46" cy="528.73" rx="130.92" ry="15.9" style="fill:url(#Dégradé_sans_nom_17)"/><path d="M384.59 332.22c11.94 2.34 27.98 9.92 38.11 32.79 13 29.27 13.49 84.73 12.83 112.68-.08 3.99-5.57 4.92-7.09 1.24l-54.17-134.02c-2.79-6.83 3.12-14.09 10.32-12.7Z" style="fill:url(#Dégradé_sans_nom_27)"/><path d="M182.34 332.22c-11.94 2.34-27.98 9.92-38.11 32.79-13 29.27-13.49 84.73-12.83 112.68.08 3.99 5.57 4.92 7.09 1.24l54.17-134.02c2.79-6.83-3.12-14.09-10.32-12.7Z" style="fill:url(#Dégradé_sans_nom_23)"/><path d="M378.22 278.52c8.14-2.43 15.21 6.08 11.26 13.61l-93.31 178.8c-5.32 10.27-20.08 10.27-25.4 0l-93.31-178.8c-3.88-7.53 3.19-16.05 11.33-13.61l84.19 25.55 6.08 73.54c.46 5.4 8.37 5.4 8.82 0l6.08-73.54 84.26-25.55Z" style="fill:url(#Dégradé_sans_nom_15)"/><path d="M385.22 16.9c-8.14 0-14.83 6.39-14.83 23.65 0 13 3.8 24.18 9.2 28.9v58.71c-17.72-35.14-54.07-59.24-96.13-59.24s-78.41 24.11-96.13 59.24V69.45c5.4-4.72 9.2-15.89 9.2-28.9 0-17.26-6.62-23.65-14.83-23.65s-14.83 6.39-14.83 23.65c0 13 3.73 24.11 9.05 28.82v107.08c0 59.32 48.14 107.46 107.54 107.46S391 235.77 391 176.45V69.37c5.32-4.72 9.05-15.82 9.05-28.82 0-17.26-6.62-23.65-14.83-23.65ZM283.46 226.57c-27.68 0-50.19-22.44-50.19-50.12s22.51-50.19 50.19-50.19 50.19 22.44 50.19 50.19-22.44 50.12-50.19 50.12Z" style="fill:url(#Dégradé_sans_nom_21)"/><ellipse cx="333.02" cy="176.42" class="cls-2" rx="19.59" ry="33.22"/><ellipse cx="328.34" cy="167.64" class="cls-8" rx="4.55" ry="3.13"/><ellipse cx="335.3" cy="158.03" class="cls-8" rx="6.96" ry="6.11"/><ellipse cx="233.91" cy="176.42" class="cls-2" rx="19.59" ry="33.22"/><ellipse cx="229.21" cy="167.64" class="cls-8" rx="4.55" ry="3.13"/><ellipse cx="236.17" cy="158.03" class="cls-8" rx="6.96" ry="6.11"/><path d="M313.43 94.87s18.03-7.62 39.19 17.89c0 0-13.54-25.18-24.28-26.84-10.02-1.55-14.91 8.95-14.91 8.95ZM253.5 94.87s-18.03-7.62-39.19 17.89c0 0 13.54-25.18 24.28-26.84 10.02-1.55 14.91 8.95 14.91 8.95Z" class="cls-2"/><ellipse cx="283.46" cy="257.25" rx="9.76" ry="9.18" style="fill:#5c5b72"/></svg>