<svg xmlns="http://www.w3.org/2000/svg" xmlns:xlink="http://www.w3.org/1999/xlink" id="Calque_1" data-name="Calque 1" viewBox="0 0 566.93 566.93"><defs><linearGradient id="Dégradé_sans_nom_21" x1="253.61" x2="412.21" y1="194.1" y2="352.71" data-name="Dégradé sans nom 21" gradientUnits="userSpaceOnUse"><stop offset=".1" stop-color="#5c5b72"/><stop offset=".5" stop-color="#b0b0bf"/><stop offset=".96" stop-color="#f4f4f6"/></linearGradient><linearGradient id="Dégradé_sans_nom_28" x1="-4311.96" x2="-4116.8" y1="-7879.08" y2="-7683.92" data-name="Dégradé sans nom 28" gradientTransform="rotate(160.66 -2639.996 -3340.68)" gradientUnits="userSpaceOnUse"><stop offset="0" stop-color="#f4f4f6"/><stop offset="1" stop-color="#b0b0bf"/></linearGradient><linearGradient id="Dégradé_sans_nom_11" x1="288.02" x2="322.82" y1="353.7" y2="388.5" data-name="Dégradé sans nom 11" gradientUnits="userSpaceOnUse"><stop offset=".1" stop-color="#5c5b72"/><stop offset=".5" stop-color="#b0b0bf"/><stop offset=".96" stop-color="#f4f4f6"/></linearGradient><linearGradient xlink:href="#Dégradé_sans_nom_11" id="Dégradé_sans_nom_11-2" x1="195.65" x2="276.91" y1="304.28" y2="385.54" data-name="Dégradé sans nom 11"/><linearGradient xlink:href="#Dégradé_sans_nom_21" id="Dégradé_sans_nom_21-2" x1="165.12" x2="323.73" y1="282.59" y2="441.19" data-name="Dégradé sans nom 21"/><linearGradient xlink:href="#Dégradé_sans_nom_11" id="Dégradé_sans_nom_11-3" x1="332.95" x2="334.25" y1="375.49" y2="376.79" data-name="Dégradé sans nom 11"/><linearGradient xlink:href="#Dégradé_sans_nom_21" id="Dégradé_sans_nom_21-3" x1="196.69" x2="355.29" y1="251.03" y2="409.63" data-name="Dégradé sans nom 21"/><linearGradient xlink:href="#Dégradé_sans_nom_21" id="Dégradé_sans_nom_21-4" x1="183.44" x2="342.05" y1="264.27" y2="422.87" data-name="Dégradé sans nom 21"/><linearGradient xlink:href="#Dégradé_sans_nom_21" id="Dégradé_sans_nom_21-5" x1="201.84" x2="365.42" y1="61.86" y2="225.43" data-name="Dégradé sans nom 21"/><linearGradient id="Dégradé_sans_nom_23" x1="194.26" x2="293.71" y1="291.35" y2="390.8" data-name="Dégradé sans nom 23" gradientUnits="userSpaceOnUse"><stop offset="0" stop-color="#5c5b72"/><stop offset="1" stop-color="#b0b0bf"/></linearGradient><linearGradient xlink:href="#Dégradé_sans_nom_23" id="Dégradé_sans_nom_23-2" x1="198.07" x2="300.56" y1="295.17" y2="397.65" data-name="Dégradé sans nom 23"/><radialGradient id="Dégradé_sans_nom_17" cx="283.46" cy="528.73" r="128.87" data-name="Dégradé sans nom 17" fx="283.46" fy="528.73" gradientTransform="matrix(1 .00035 -.00004 .11 .02 468.52)" gradientUnits="userSpaceOnUse"><stop offset=".4" stop-color="#343443" stop-opacity=".5"/><stop offset="1" stop-color="#343443" stop-opacity="0"/></radialGradient><style>.cls-1{fill:#343443}.cls-15{fill:#fff;opacity:.5}</style></defs><path d="m378.22 278.52-66.54 20.18c4.7 4.1 9.7 8.49 15.04 13.19l3.97 3.5c14.82 13.04 24.53 23.75 29.57 32.73l29.22-55.98c3.95-7.53-3.12-16.05-11.26-13.61Z" style="fill:url(#Dégradé_sans_nom_21)"/><ellipse cx="283.46" cy="528.73" rx="130.92" ry="15.9" style="fill:url(#Dégradé_sans_nom_17)"/><path d="M356 371.04s-16.45 15.47-51.49-20.68c-35.04-36.15-55.33-78.73-47.31-84.81 6.05-4.59 37.55 23.55 70.84 52.83 34.2 30.09 36.97 44.38 27.95 52.66Z" style="fill:url(#Dégradé_sans_nom_28)"/><path d="M328.84 377.31c1.48 0 2.55-.76 3.13-1.79.02 0 .04.01.05.02-6.76-2.69-13.94-7.34-21.5-13.93.05.04.09.08.14.13l-20.73-9.02-1.91 23.15c15.59 1.11 30.17 1.42 40.79 1.45h.03Z" style="fill:url(#Dégradé_sans_nom_11)"/><path d="m278.85 375.11-2.34-28.24-78.81-34.3c-1.25-.55-2.52-.8-3.76-.8-1.95 0-3.81.64-5.35 1.71l24.03 46.05c1.24.68 2.53 1.34 3.88 1.98 15.8 7.52 39.51 11.51 62.34 13.6Z" style="fill:url(#Dégradé_sans_nom_11-2)"/><path d="M334.99 376.6c.26.08.52.18.77.25-1.21 2.68-3.87 4.45-6.97 4.45-11.3-.03-26.08-.36-41.69-1.5-1.81 2.65-6.25 2.45-7.64-.62-23.23-2.08-47.28-6.09-63.69-13.61l54.99 105.36c5.32 10.27 20.08 10.27 25.4 0l48.34-92.63c-3.06-.08-6.24-.66-9.52-1.7Z" style="fill:url(#Dégradé_sans_nom_21-2)"/><path d="M332.68 375.79c.6.23 1.2.45 1.79.64-.59-.2-1.19-.42-1.79-.64Z" style="fill:url(#Dégradé_sans_nom_11-3)"/><path d="m302.18 353.68-.53-.53c-3.76-3.88-7.35-7.83-10.77-11.81l-.59 7.16 11.89 5.18Z" style="fill:url(#Dégradé_sans_nom_21-3)"/><path d="M193.94 307.77c1.84 0 3.65.38 5.35 1.13l76.84 33.44-1.85-22.42c-4.6-6.62-8.59-13.05-11.88-19.07l-73.62-22.34c-8.14-2.43-15.21 6.08-11.33 13.61l9.28 17.79c2.14-1.38 4.63-2.15 7.21-2.15Z" style="fill:url(#Dégradé_sans_nom_21-4)"/><path d="M400.31 89.89c0-15.93-6.63-24.83-14.86-24.83s-14.86 8.9-14.86 24.83c0 12 3.81 25.07 9.22 29.42v8.53c-17.76-35.21-54.18-59.37-96.33-59.37s-78.57 24.16-96.33 59.37v-8.53c5.41-4.35 9.22-17.42 9.22-29.42 0-15.93-6.63-24.83-14.86-24.83s-14.86 8.9-14.86 24.83c0 12 3.73 25 9.07 29.35v56.99c0 48.89 32.63 90.19 77.33 103.32-1.21-4.14-1.75-7.65-1.54-10.37.29-3.8 1.94-5.81 3.28-6.82 1.14-.87 2.53-1.31 4.13-1.31 6.27 0 17.56 7.85 34.93 22.36 54.65-5.22 97.39-51.24 97.39-107.18v-56.99c5.33-4.35 9.07-17.35 9.07-29.35ZM283.48 241.28c-27.74 0-50.3-17.94-50.3-40.07s22.56-40.13 50.3-40.13 50.3 17.94 50.3 40.13-22.48 40.07-50.3 40.07Z" style="fill:url(#Dégradé_sans_nom_21-5)"/><path d="M344.38 229.43c5.08-5.33 8.4-14.83 8.4-28.25 0-21.84-8.79-33.29-19.63-33.29s-19.63 11.45-19.63 33.29c0 13.68 3.45 23.29 8.7 28.55l22.17-.3Z" class="cls-1"/><ellipse cx="328.45" cy="192.39" class="cls-15" rx="4.56" ry="3.14"/><ellipse cx="335.43" cy="182.76" class="cls-15" rx="6.97" ry="6.13"/><path d="M245.05 229.43c5.08-5.33 8.4-14.83 8.4-28.25 0-21.84-8.79-33.29-19.63-33.29s-19.63 11.45-19.63 33.29c0 13.68 3.45 23.29 8.7 28.55l22.17-.3Z" class="cls-1"/><ellipse cx="229.13" cy="192.39" class="cls-15" rx="4.56" ry="3.14"/><ellipse cx="236.1" cy="182.76" class="cls-15" rx="6.97" ry="6.13"/><path d="M313.59 151.17s12.81-14.85 43.15-1.32c0 0-23.34-16.61-33.73-13.33-9.69 3.06-9.42 14.66-9.42 14.66ZM253.38 151.17s-12.81-14.85-43.15-1.32c0 0 23.34-16.61 33.73-13.33 9.69 3.06 9.42 14.66 9.42 14.66Z" class="cls-1"/><path d="M268.89 260.47s10.37-10.2 26.64-4.07" style="fill:none;stroke:#5c5b72;stroke-linecap:round;stroke-linejoin:round;stroke-width:4px"/><path d="m310.66 361.73-112.97-49.16c-6.76-2.97-14.17 2.75-12.97 9.98 2.02 12 9.18 28.23 31.78 38.96 28.91 13.77 84.35 15.72 112.3 15.8 1.49 0 2.58-.75 3.16-1.78-6.71-2.68-13.82-7.27-21.3-13.79Z" style="fill:url(#Dégradé_sans_nom_23)"/><path d="m310.66 361.73-112.97-49.16c-6.76-2.97-14.17 2.75-12.97 9.98 2.02 12 9.18 28.23 31.78 38.96 28.91 13.77 84.35 15.72 112.3 15.8 1.49 0 2.58-.75 3.16-1.78-6.71-2.68-13.82-7.27-21.3-13.79Z" style="fill:url(#Dégradé_sans_nom_23-2)"/></svg>