<svg xmlns="http://www.w3.org/2000/svg" xmlns:xlink="http://www.w3.org/1999/xlink" id="Calque_1" data-name="Calque 1" viewBox="0 0 566.93 566.93"><defs><linearGradient id="Dégradé_sans_nom_21" x1="191.81" x2="375.86" y1="26.99" y2="211.04" data-name="Dégradé sans nom 21" gradientUnits="userSpaceOnUse"><stop offset=".1" stop-color="#5c5b72"/><stop offset=".5" stop-color="#b0b0bf"/><stop offset=".96" stop-color="#f4f4f6"/></linearGradient><linearGradient id="Dégradé_sans_nom_27" x1="435.84" x2="319.46" y1="291.58" y2="407.96" data-name="Dégradé sans nom 27" gradientUnits="userSpaceOnUse"><stop offset="0" stop-color="#b0b0bf"/><stop offset="1" stop-color="#f4f4f6"/></linearGradient><linearGradient id="Dégradé_sans_nom_23" x1="-15831.74" x2="-15733.5" y1="-14924.86" y2="-14826.62" data-name="Dégradé sans nom 23" gradientTransform="scale(1 -1) rotate(-12.71 57726.811 -79459.333)" gradientUnits="userSpaceOnUse"><stop offset="0" stop-color="#5c5b72"/><stop offset="1" stop-color="#b0b0bf"/></linearGradient><linearGradient id="Dégradé_sans_nom_15" x1="200.29" x2="363.65" y1="247.43" y2="410.79" data-name="Dégradé sans nom 15" gradientUnits="userSpaceOnUse"><stop offset=".1" stop-color="#5c5b72"/><stop offset=".5" stop-color="#b0b0bf"/><stop offset=".96" stop-color="#f4f4f6"/></linearGradient><linearGradient xlink:href="#Dégradé_sans_nom_15" id="Dégradé_sans_nom_15-2" x1="173.39" x2="336.75" y1="274.33" y2="437.69" data-name="Dégradé sans nom 15"/><radialGradient id="Dégradé_sans_nom_17" cx="283.46" cy="528.73" r="128.87" data-name="Dégradé sans nom 17" fx="283.46" fy="528.73" gradientTransform="matrix(1 .00035 -.00004 .11 .02 468.52)" gradientUnits="userSpaceOnUse"><stop offset=".4" stop-color="#343443" stop-opacity=".5"/><stop offset="1" stop-color="#343443" stop-opacity="0"/></radialGradient><style>.cls-1{fill:#5c5b72}.cls-2{fill:#343443}</style></defs><ellipse cx="283.46" cy="528.73" rx="130.92" ry="15.9" style="fill:url(#Dégradé_sans_nom_17)"/><path d="M399.61 40.45c0-17.19-6.59-23.55-14.77-23.55s-14.77 6.36-14.77 23.55c0 12.95 3.79 24.09 9.16 28.78v58.47c-17.62-34.96-53.86-58.96-95.72-58.96s-78.15 24.05-95.75 59.06V69.87c5.38-4.7 9.16-15.83 9.16-28.78 0-17.19-6.59-23.55-14.77-23.55s-14.77 6.36-14.77 23.55c0 12.95 3.71 24.01 9.01 28.71v106.64c0-1.11.02-2.21.05-3.31-.02.88-.03 1.76-.03 2.64 0 17.27 4.09 33.63 11.36 48.09 7.58 15.04 18.6 28.04 32.02 37.99 30.52-33.63 45.51-48.54 53.71-48.54 1.24 0 2.37.3 3.36.88 2.13 1.25 3.51 3.44 4.1 6.49 2.02 10.38-5.5 33.86-20.19 59.77 7.33 1.58 14.93 2.42 22.74 2.42 41.88 0 78.09-24.01 95.73-59 7.27-14.47 11.36-30.83 11.36-48.09 0-.48-.01-.96-.02-1.44V69.17c5.3-4.7 9.01-15.75 9.01-28.71ZM283.52 190.82c-27.65 0-49.99-17.83-49.99-39.89s22.34-39.82 49.99-39.82 49.99 17.83 49.99 39.82-22.42 39.89-49.99 39.89Z" style="fill:url(#Dégradé_sans_nom_21)"/><path d="M410.52 293.88c6.16 10.5 11.1 27.53.68 50.27-13.31 29.13-54.53 66.24-75.9 84.26-3.04 2.59-7.38-.91-5.63-4.49l64.49-129.36c3.27-6.62 12.62-7 16.35-.68Z" style="fill:url(#Dégradé_sans_nom_27)"/><path d="M362.75 140.98s-23.99-18.38-47.45-2.34c-3.93 2.69-3.3 8.59 1.19 10.17 6.12 2.16 14.14 5.95 21.02 12.4 0 0-.48-10.7-6.64-16.82 0 0 8.88-11.1 31.88-3.41ZM204.17 140.99s23.98-18.39 47.45-2.35c3.93 2.68 3.3 8.59-1.18 10.17-6.12 2.16-14.13 5.95-21.02 12.41 0 0 .48-10.7 6.63-16.83 0 0-8.88-11.1-31.88-3.4ZM319.19 65.39s-9.78 11.39 2.14 16.76c13.04 5.87 30.5 13.98 30.5 13.98s-33.9-20-32.64-30.75ZM250.09 65.34s9.81 11.36-2.08 16.77c-13.02 5.92-30.45 14.09-30.45 14.09s33.83-20.11 32.54-30.86Z" class="cls-2"/><path d="M186.8 336.65s18.57 13.8 49.94-27.13c31.37-40.93 46.98-86.65 38.1-91.89-6.7-3.95-35.42 28.4-65.83 62.14-31.24 34.66-32.36 49.53-22.21 56.88Z" style="fill:url(#Dégradé_sans_nom_23)"/><path d="M283.46 180.95c-16.86 0-30.54 13.8-30.54 30.82 0 4.51.97 8.79 2.69 12.65 8.26-7.56 13.89-11.12 17.9-11.12 1.24 0 2.37.3 3.36.88 2.13 1.25 3.51 3.44 4.1 6.49.92 4.74-.16 12.23-2.99 21.42 1.78.33 3.61.5 5.48.5 16.86 0 30.54-13.8 30.54-30.82s-13.67-30.82-30.54-30.82Z" class="cls-1"/><path d="m378.22 278.52-84.26 25.55-6.08 73.54c-.46 5.4-8.37 5.4-8.82 0l-6.08-73.54-22.54-6.84c-3.28 4.92-6.79 9.85-10.52 14.72-14.86 19.39-27.3 27.16-36.58 29.78l67.43 129.2c5.32 10.27 20.08 10.27 25.4 0l93.31-178.8c3.95-7.53-3.12-16.05-11.26-13.61Z" style="fill:url(#Dégradé_sans_nom_15)"/><path d="M184.28 305.21c3.99-6.66 9.67-14.24 17.12-22.87l-12.62-3.83c-8.14-2.43-15.21 6.08-11.33 13.61l6.83 13.08Z" style="fill:url(#Dégradé_sans_nom_15-2)"/><circle cx="426.81" cy="121.53" r="8.8" class="cls-1"/><circle cx="419.47" cy="148.9" r="5.08" class="cls-1"/><circle cx="463.88" cy="121.53" r="13.77" class="cls-1"/><circle cx="472.5" cy="73.54" r="19.85" class="cls-1"/></svg>