<svg xmlns="http://www.w3.org/2000/svg" id="Calque_1" data-name="Calque 1" viewBox="0 0 566.93 566.93"><defs><linearGradient id="Dégradé_sans_nom_15" x1="205.3" x2="369.38" y1="255.92" y2="419.99" data-name="Dégradé sans nom 15" gradientUnits="userSpaceOnUse"><stop offset=".1" stop-color="#5c5b72"/><stop offset=".5" stop-color="#b0b0bf"/><stop offset=".96" stop-color="#f4f4f6"/></linearGradient><linearGradient id="Dégradé_sans_nom_27" x1="331.95" x2="392.09" y1="329" y2="389.15" data-name="Dégradé sans nom 27" gradientUnits="userSpaceOnUse"><stop offset="0" stop-color="#b0b0bf"/><stop offset="1" stop-color="#f4f4f6"/></linearGradient><linearGradient id="Dégradé_sans_nom_23" x1="156.09" x2="231.76" y1="314.46" y2="390.13" data-name="Dégradé sans nom 23" gradientUnits="userSpaceOnUse"><stop offset="0" stop-color="#5c5b72"/><stop offset="1" stop-color="#b0b0bf"/></linearGradient><linearGradient id="Dégradé_sans_nom_21" x1="192.16" x2="376.43" y1="32.21" y2="216.48" data-name="Dégradé sans nom 21" gradientUnits="userSpaceOnUse"><stop offset=".1" stop-color="#5c5b72"/><stop offset=".5" stop-color="#b0b0bf"/><stop offset=".96" stop-color="#f4f4f6"/></linearGradient><radialGradient id="Dégradé_sans_nom_17" cx="284.14" cy="528.74" r="128.58" data-name="Dégradé sans nom 17" fx="284.14" fy="528.74" gradientTransform="matrix(1 .00035 -.00004 .11 .02 468.53)" gradientUnits="userSpaceOnUse"><stop offset=".4" stop-color="#343443" stop-opacity=".5"/><stop offset="1" stop-color="#343443" stop-opacity="0"/></radialGradient><style>.cls-2{fill:#343443}.cls-8{fill:none;stroke:#5c5b72;stroke-linecap:round;stroke-linejoin:round;stroke-width:4px}.cls-9{fill:#fff;opacity:.5}</style></defs><path d="M378.49 282.87c8.1-2.42 15.15 6.06 11.21 13.56l-92.93 178.06c-5.3 10.22-20 10.22-25.3 0l-92.93-178.06c-3.86-7.5 3.18-15.98 11.29-13.56l83.84 25.45 6.06 73.24c.45 5.38 8.33 5.38 8.79 0l6.06-73.24 83.92-25.45Z" style="fill:url(#Dégradé_sans_nom_15)"/><path d="M398.68 315.38c-1.74-4.9-6.91-7.02-11.36-5.74l-53.63 102.75c21.52-13.99 44.44-31.25 56.08-47.53 14.56-20.34 12.96-38 8.91-49.48Z" style="fill:url(#Dégradé_sans_nom_27)"/><path d="M180.92 309.62c-4.44-1.25-9.58.87-11.32 5.76-4.05 11.48-5.65 29.14 8.91 49.48 11.62 16.27 34.52 33.52 56.02 47.49l-53.61-102.73Z" style="fill:url(#Dégradé_sans_nom_23)"/><path d="M400.23 46.01c0-17.19-6.59-23.55-14.77-23.55s-14.77 6.36-14.77 23.55c0 12.95 3.79 24.09 9.16 28.78v58.37c-17.61-34.97-53.86-58.99-95.72-58.99s-78.15 24.05-95.75 59.06V74.79c5.38-4.7 9.16-15.83 9.16-28.78 0-17.19-6.59-23.55-14.77-23.55S168 28.82 168 46.01c0 12.95 3.71 24.01 9.01 28.71v106.64c0-2.66.11-5.3.3-7.92-.18 2.56-.28 5.14-.28 7.75 0 17.27 4.09 33.63 11.36 48.09 17.65 34.99 53.85 59 95.74 59s78.09-24.01 95.74-59c7.27-14.47 11.36-30.83 11.36-48.09 0-.48-.01-.95-.02-1.43V74.72c5.3-4.7 9.01-15.75 9.01-28.71ZM177.54 170.88c-.06.58-.11 1.16-.15 1.74l.15-1.74Zm.67-5.51c-.02.15-.04.31-.07.46.02-.15.04-.31.07-.46Zm-.38 2.79c-.05.41-.1.82-.14 1.23.05-.41.09-.82.14-1.23Zm106.3 28.1c-27.65 0-49.99-17.83-49.99-39.89s22.34-39.82 49.99-39.82 49.99 17.83 49.99 39.82-22.42 39.89-49.99 39.89Z" style="fill:url(#Dégradé_sans_nom_21)"/><path d="M313.96 86.71s17.95-6.42 39.03 15.07c0 0-13.48-21.21-24.18-22.6-9.98-1.3-14.85 7.53-14.85 7.53ZM254.19 86.71s-17.95-6.42-39.03 15.07c0 0 13.48-21.21 24.18-22.6 9.98-1.3 14.85 7.53 14.85 7.53Z" class="cls-2"/><ellipse cx="284.14" cy="528.74" rx="130.63" ry="15.87" style="fill:url(#Dégradé_sans_nom_17)"/><ellipse cx="328.03" cy="149.29" class="cls-2" rx="19.59" ry="33.22"/><ellipse cx="323.34" cy="140.52" class="cls-9" rx="4.55" ry="3.13"/><ellipse cx="330.3" cy="130.91" class="cls-9" rx="6.96" ry="6.11"/><ellipse cx="228.91" cy="149.29" class="cls-2" rx="19.59" ry="33.22"/><ellipse cx="224.22" cy="140.52" class="cls-9" rx="4.55" ry="3.13"/><ellipse cx="231.18" cy="130.91" class="cls-9" rx="6.96" ry="6.11"/><ellipse cx="303.84" cy="221.62" rx="4.8" ry="9.96" style="fill:#5c5b72"/><path d="M401.28 224.05s14.12 5.08 19.97-5.09c3.7-6.44 1.63-12.88 8.08-18.17 7.91-6.48 12.42 3.3 19.93-4.98" class="cls-8"/><circle cx="456.84" cy="178.6" r="5.23" class="cls-8"/><path d="M462.07 178.6v-23.39l21.1-5.03v23.38" class="cls-8"/><circle cx="477.93" cy="173.56" r="5.23" class="cls-8"/><path d="m462.07 162.01 21.1-5.03" class="cls-8"/></svg>