<svg width="16" height="16" viewBox="0 0 16 16" fill="none" xmlns="http://www.w3.org/2000/svg">
<path d="M11 3.99999V11.6667C11 13.14 9.80669 14.3333 8.33335 14.3333C6.86002 14.3333 5.66669 13.14 5.66669 11.6667V3.33332C5.66669 2.41332 6.41335 1.66666 7.33335 1.66666C8.25335 1.66666 9.00002 2.41332 9.00002 3.33332V10.3333C9.00002 10.7 8.70002 11 8.33335 11C7.96669 11 7.66669 10.7 7.66669 10.3333V3.99999H6.66669V10.3333C6.66669 11.2533 7.41335 12 8.33335 12C9.25335 12 10 11.2533 10 10.3333V3.33332C10 1.85999 8.80669 0.666656 7.33335 0.666656C5.86002 0.666656 4.66669 1.85999 4.66669 3.33332V11.6667C4.66669 13.6933 6.30669 15.3333 8.33335 15.3333C10.36 15.3333 12 13.6933 12 11.6667V3.99999H11Z" fill="#080C12"/>
</svg>
