<svg width="16" height="16" viewBox="0 0 16 16" fill="none" xmlns="http://www.w3.org/2000/svg">
<path d="M9.33331 1.33334H2.66665C1.93331 1.33334 1.33331 1.93334 1.33331 2.66668V9.33334H2.66665V2.66668H9.33331V1.33334ZM12 4.00001H5.33331C4.59998 4.00001 3.99998 4.60001 3.99998 5.33334V12H5.33331V5.33334H12V4.00001ZM13.3333 6.66668H7.99998C7.26665 6.66668 6.66665 7.26668 6.66665 8.00001V13.3333C6.66665 14.0667 7.26665 14.6667 7.99998 14.6667H13.3333C14.0666 14.6667 14.6666 14.0667 14.6666 13.3333V8.00001C14.6666 7.26668 14.0666 6.66668 13.3333 6.66668ZM13.3333 13.3333H7.99998V8.00001H13.3333V13.3333Z" fill="#080C12"/>
</svg>
