<svg width="16" height="16" viewBox="0 0 16 16" fill="none" xmlns="http://www.w3.org/2000/svg">
<path d="M10 4.66666V13.3133L7.19333 12.1067L6.66667 11.88L6.14 12.1067L3.33333 13.3133V4.66666H10ZM12.6667 0.666656H5.99333C5.26 0.666656 4.66667 1.26666 4.66667 1.99999H11.3333C12.0667 1.99999 12.6667 2.59999 12.6667 3.33332V12L14 12.6667V1.99999C14 1.26666 13.4 0.666656 12.6667 0.666656ZM10 3.33332H3.33333C2.6 3.33332 2 3.93332 2 4.66666V15.3333L6.66667 13.3333L11.3333 15.3333V4.66666C11.3333 3.93332 10.7333 3.33332 10 3.33332Z" fill="#080C12"/>
</svg>
