<svg width="16" height="16" viewBox="0 0 16 16" fill="none" xmlns="http://www.w3.org/2000/svg">
<path d="M4.66671 10.6667C5.03337 10.6667 5.33337 10.9667 5.33337 11.3333C5.33337 12.0667 4.73337 12.6667 4.00004 12.6667C3.88671 12.6667 3.78004 12.6533 3.66671 12.6333C3.87337 12.2667 4.00004 11.8267 4.00004 11.3333C4.00004 10.9667 4.30004 10.6667 4.66671 10.6667ZM12.4467 2C12.2734 2 12.1067 2.06667 11.9734 2.19333L6.00004 8.16667L7.83337 10L13.8067 4.02667C14.0667 3.76667 14.0667 3.34667 13.8067 3.08667L12.9134 2.19333C12.78 2.06 12.6134 2 12.4467 2V2ZM4.66671 9.33333C3.56004 9.33333 2.66671 10.2267 2.66671 11.3333C2.66671 12.2067 1.89337 12.6667 1.33337 12.6667C1.94671 13.48 2.99337 14 4.00004 14C5.47337 14 6.66671 12.8067 6.66671 11.3333C6.66671 10.2267 5.77337 9.33333 4.66671 9.33333Z" fill="#080C12"/>
</svg>
