<svg width="16" height="16" viewBox="0 0 16 16" fill="none" xmlns="http://www.w3.org/2000/svg">
<path d="M12.6667 1.33333H9.88C9.6 0.56 8.86667 0 8 0C7.13333 0 6.4 0.56 6.12 1.33333H3.33333C2.6 1.33333 2 1.93333 2 2.66667V13.3333C2 14.0667 2.6 14.6667 3.33333 14.6667H12.6667C13.4 14.6667 14 14.0667 14 13.3333V2.66667C14 1.93333 13.4 1.33333 12.6667 1.33333ZM8 1.33333C8.36667 1.33333 8.66667 1.63333 8.66667 2C8.66667 2.36667 8.36667 2.66667 8 2.66667C7.63333 2.66667 7.33333 2.36667 7.33333 2C7.33333 1.63333 7.63333 1.33333 8 1.33333ZM12.6667 13.3333H3.33333V2.66667H4.66667V4.66667H11.3333V2.66667H12.6667V13.3333Z" fill="#080C12"/>
</svg>
