<svg width="16" height="16" viewBox="0 0 16 16" fill="none" xmlns="http://www.w3.org/2000/svg">
<path d="M14.4467 12.1133L10.9134 8.57997H10.2534L8.56006 10.2733V10.9333L12.0934 14.4666C12.3534 14.7266 12.7734 14.7266 13.0334 14.4666L14.4467 13.0533C14.7067 12.8 14.7067 12.3733 14.4467 12.1133ZM12.5601 13.06L9.73339 10.2333L10.2067 9.75997L13.0334 12.5866L12.5601 13.06Z" fill="#080C12"/>
<path d="M11.56 6.79334L12.5 5.85334L13.9134 7.26667C14.6934 6.48667 14.6934 5.22 13.9134 4.44L11.5534 2.08L10.6134 3.02001V1.14001L10.1467 0.666672L7.78671 3.02667L8.26004 3.5H10.1467L9.20671 4.44L9.91337 5.14667L7.98671 7.07334L5.23337 4.32V3.37334L3.22004 1.36001L1.33337 3.24667L3.35337 5.26667H4.29337L7.04671 8.02L6.48004 8.58667H5.06671L1.53337 12.12C1.27337 12.38 1.27337 12.8 1.53337 13.06L2.94671 14.4733C3.20671 14.7333 3.62671 14.7333 3.88671 14.4733L7.42004 10.94V9.52667L10.8534 6.09334L11.56 6.79334ZM6.24004 10.2267L3.41337 13.0533L2.94004 12.58L5.76671 9.75334L6.24004 10.2267Z" fill="#080C12"/>
</svg>
