<svg width="16" height="16" viewBox="0 0 16 16" fill="none" xmlns="http://www.w3.org/2000/svg">
<path d="M8.00004 1.33334C5.42004 1.33334 3.33337 3.42001 3.33337 6.00001C3.33337 9.50001 8.00004 14.6667 8.00004 14.6667C8.00004 14.6667 12.6667 9.50001 12.6667 6.00001C12.6667 3.42001 10.58 1.33334 8.00004 1.33334ZM4.66671 6.00001C4.66671 4.16001 6.16004 2.66668 8.00004 2.66668C9.84004 2.66668 11.3334 4.16001 11.3334 6.00001C11.3334 7.92001 9.41337 10.7933 8.00004 12.5867C6.61337 10.8067 4.66671 7.90001 4.66671 6.00001Z" fill="#080C12"/>
<path d="M7.99998 7.66668C8.92045 7.66668 9.66665 6.92048 9.66665 6.00001C9.66665 5.07954 8.92045 4.33334 7.99998 4.33334C7.07951 4.33334 6.33331 5.07954 6.33331 6.00001C6.33331 6.92048 7.07951 7.66668 7.99998 7.66668Z" fill="#080C12"/>
</svg>
