<svg width="16" height="16" viewBox="0 0 16 16" fill="none" xmlns="http://www.w3.org/2000/svg">
<path d="M7.99999 2.66666V0.666656L5.33332 3.33332L7.99999 5.99999V3.99999C10.2067 3.99999 12 5.79332 12 7.99999C12 8.67332 11.8333 9.31332 11.5333 9.86666L12.5067 10.84C13.0267 10.02 13.3333 9.04666 13.3333 7.99999C13.3333 5.05332 10.9467 2.66666 7.99999 2.66666ZM7.99999 12C5.79332 12 3.99999 10.2067 3.99999 7.99999C3.99999 7.32666 4.16666 6.68666 4.46666 6.13332L3.49332 5.15999C2.97332 5.97999 2.66666 6.95332 2.66666 7.99999C2.66666 10.9467 5.05332 13.3333 7.99999 13.3333V15.3333L10.6667 12.6667L7.99999 9.99999V12Z" fill="#080C12"/>
</svg>
