<svg width="16" height="16" viewBox="0 0 16 16" fill="none" xmlns="http://www.w3.org/2000/svg">
<path d="M7.99996 14.6667C8.73329 14.6667 9.33329 14.0667 9.33329 13.3333H6.66663C6.66663 14.0667 7.26663 14.6667 7.99996 14.6667ZM12 10.6667V7.33333C12 5.28667 10.9133 3.57333 8.99996 3.12V2.66667C8.99996 2.11333 8.55329 1.66667 7.99996 1.66667C7.44663 1.66667 6.99996 2.11333 6.99996 2.66667V3.12C5.09329 3.57333 3.99996 5.28 3.99996 7.33333V10.6667L2.66663 12V12.6667H13.3333V12L12 10.6667ZM10.6666 11.3333H5.33329V7.33333C5.33329 5.68 6.33996 4.33333 7.99996 4.33333C9.65996 4.33333 10.6666 5.68 10.6666 7.33333V11.3333Z" fill="#080C12"/>
</svg>
