<svg width="16" height="16" viewBox="0 0 16 16" fill="none" xmlns="http://www.w3.org/2000/svg">
<path d="M10 8C11.4734 8 12.6667 6.80666 12.6667 5.33333C12.6667 3.86 11.4734 2.66666 10 2.66666C8.52669 2.66666 7.33335 3.86 7.33335 5.33333C7.33335 6.80666 8.52669 8 10 8ZM10 4C10.7334 4 11.3334 4.6 11.3334 5.33333C11.3334 6.06666 10.7334 6.66666 10 6.66666C9.26669 6.66666 8.66669 6.06666 8.66669 5.33333C8.66669 4.6 9.26669 4 10 4ZM10 9.33333C8.22002 9.33333 4.66669 10.2267 4.66669 12V13.3333H15.3334V12C15.3334 10.2267 11.78 9.33333 10 9.33333ZM6.00002 12C6.14669 11.52 8.20669 10.6667 10 10.6667C11.8 10.6667 13.8667 11.5267 14 12H6.00002ZM4.00002 10V8H6.00002V6.66666H4.00002V4.66666H2.66669V6.66666H0.666687V8H2.66669V10H4.00002Z" fill="#080C12"/>
</svg>
