<svg width="16" height="16" viewBox="0 0 16 16" fill="none" xmlns="http://www.w3.org/2000/svg">
<path d="M12.6667 5.33333H12V2H4.00004V5.33333H3.33337C2.22671 5.33333 1.33337 6.22667 1.33337 7.33333V11.3333H4.00004V14H12V11.3333H14.6667V7.33333C14.6667 6.22667 13.7734 5.33333 12.6667 5.33333ZM5.33337 3.33333H10.6667V5.33333H5.33337V3.33333ZM10.6667 11.3333V12.6667H5.33337V10H10.6667V11.3333ZM12 10V8.66667H4.00004V10H2.66671V7.33333C2.66671 6.96667 2.96671 6.66667 3.33337 6.66667H12.6667C13.0334 6.66667 13.3334 6.96667 13.3334 7.33333V10H12Z" fill="#080C12"/>
<path d="M12 8.33333C12.3682 8.33333 12.6667 8.03486 12.6667 7.66667C12.6667 7.29848 12.3682 7 12 7C11.6319 7 11.3334 7.29848 11.3334 7.66667C11.3334 8.03486 11.6319 8.33333 12 8.33333Z" fill="#080C12"/>
</svg>
