<svg width="16" height="16" viewBox="0 0 16 16" fill="none" xmlns="http://www.w3.org/2000/svg">
<path d="M7.99331 1.33334C4.31331 1.33334 1.33331 4.32001 1.33331 8.00001C1.33331 11.68 4.31331 14.6667 7.99331 14.6667C11.68 14.6667 14.6666 11.68 14.6666 8.00001C14.6666 4.32001 11.68 1.33334 7.99331 1.33334ZM7.99998 13.3333C5.05331 13.3333 2.66665 10.9467 2.66665 8.00001C2.66665 5.05334 5.05331 2.66668 7.99998 2.66668C10.9466 2.66668 13.3333 5.05334 13.3333 8.00001C13.3333 10.9467 10.9466 13.3333 7.99998 13.3333ZM8.33331 4.66668H7.33331V8.66668L10.8333 10.7667L11.3333 9.94668L8.33331 8.16668V4.66668Z" fill="#080C12"/>
</svg>
