<svg width="16" height="16" viewBox="0 0 16 16" fill="none" xmlns="http://www.w3.org/2000/svg">
<path d="M12.9533 8.65334C12.98 8.44 13 8.22667 13 8C13 7.77334 12.98 7.56 12.9533 7.34667L14.36 6.24667C14.4867 6.14667 14.52 5.96667 14.44 5.82L13.1067 3.51334C13.0467 3.40667 12.9333 3.34667 12.8133 3.34667C12.7733 3.34667 12.7333 3.35334 12.7 3.36667L11.04 4.03334C10.6933 3.76667 10.32 3.54667 9.91335 3.38L9.66002 1.61334C9.64002 1.45334 9.50002 1.33334 9.33335 1.33334H6.66668C6.50002 1.33334 6.36002 1.45334 6.34002 1.61334L6.08668 3.38C5.68002 3.54667 5.30668 3.77334 4.96002 4.03334L3.30001 3.36667C3.26002 3.35334 3.22002 3.34667 3.18002 3.34667C3.06668 3.34667 2.95335 3.40667 2.89335 3.51334L1.56001 5.82C1.47335 5.96667 1.51335 6.14667 1.64002 6.24667L3.04668 7.34667C3.02002 7.56 3.00002 7.78 3.00002 8C3.00002 8.22 3.02002 8.44 3.04668 8.65334L1.64002 9.75334C1.51335 9.85334 1.48001 10.0333 1.56001 10.18L2.89335 12.4867C2.95335 12.5933 3.06668 12.6533 3.18668 12.6533C3.22668 12.6533 3.26668 12.6467 3.30001 12.6333L4.96002 11.9667C5.30668 12.2333 5.68002 12.4533 6.08668 12.62L6.34002 14.3867C6.36002 14.5467 6.50002 14.6667 6.66668 14.6667H9.33335C9.50002 14.6667 9.64002 14.5467 9.66002 14.3867L9.91335 12.62C10.32 12.4533 10.6933 12.2267 11.04 11.9667L12.7 12.6333C12.74 12.6467 12.78 12.6533 12.82 12.6533C12.9333 12.6533 13.0467 12.5933 13.1067 12.4867L14.44 10.18C14.52 10.0333 14.4867 9.85334 14.36 9.75334L12.9533 8.65334ZM11.6333 7.51334C11.66 7.72 11.6667 7.86 11.6667 8C11.6667 8.14 11.6533 8.28667 11.6333 8.48667L11.54 9.24L12.1333 9.70667L12.8533 10.2667L12.3867 11.0733L11.54 10.7333L10.8467 10.4533L10.2467 10.9067C9.96002 11.12 9.68668 11.28 9.41335 11.3933L8.70668 11.68L8.60002 12.4333L8.46668 13.3333H7.53335L7.40668 12.4333L7.30002 11.68L6.59335 11.3933C6.30668 11.2733 6.04001 11.12 5.77335 10.92L5.16668 10.4533L4.46002 10.74L3.61335 11.08L3.14668 10.2733L3.86668 9.71334L4.46002 9.24667L4.36668 8.49334C4.34668 8.28667 4.33335 8.13334 4.33335 8C4.33335 7.86667 4.34668 7.71334 4.36668 7.51334L4.46002 6.76L3.86668 6.29334L3.14668 5.73334L3.61335 4.92667L4.46002 5.26667L5.15335 5.54667L5.75335 5.09334C6.04002 4.88 6.31335 4.72 6.58668 4.60667L7.29335 4.32L7.40002 3.56667L7.53335 2.66667H8.46002L8.58668 3.56667L8.69335 4.32L9.40002 4.60667C9.68668 4.72667 9.95335 4.88 10.22 5.08L10.8267 5.54667L11.5333 5.26L12.38 4.92L12.8467 5.72667L12.1333 6.29334L11.54 6.76L11.6333 7.51334ZM8.00002 5.33334C6.52668 5.33334 5.33335 6.52667 5.33335 8C5.33335 9.47334 6.52668 10.6667 8.00002 10.6667C9.47335 10.6667 10.6667 9.47334 10.6667 8C10.6667 6.52667 9.47335 5.33334 8.00002 5.33334ZM8.00002 9.33334C7.26668 9.33334 6.66668 8.73334 6.66668 8C6.66668 7.26667 7.26668 6.66667 8.00002 6.66667C8.73335 6.66667 9.33335 7.26667 9.33335 8C9.33335 8.73334 8.73335 9.33334 8.00002 9.33334Z" fill="#080C12"/>
</svg>
