<svg width="16" height="16" viewBox="0 0 16 16" fill="none" xmlns="http://www.w3.org/2000/svg">
<path d="M12 10.72C11.4933 10.72 11.04 10.92 10.6933 11.2333L5.94 8.46666C5.97333 8.31333 6 8.16 6 8C6 7.83999 5.97333 7.68666 5.94 7.53333L10.64 4.79333C11 5.12666 11.4733 5.33333 12 5.33333C13.1067 5.33333 14 4.44 14 3.33333C14 2.22666 13.1067 1.33333 12 1.33333C10.8933 1.33333 10 2.22666 10 3.33333C10 3.49333 10.0267 3.64666 10.06 3.79999L5.36 6.54C5 6.20666 4.52667 6 4 6C2.89333 6 2 6.89333 2 8C2 9.10666 2.89333 10 4 10C4.52667 10 5 9.79333 5.36 9.46L10.1067 12.2333C10.0733 12.3733 10.0533 12.52 10.0533 12.6667C10.0533 13.74 10.9267 14.6133 12 14.6133C13.0733 14.6133 13.9467 13.74 13.9467 12.6667C13.9467 11.5933 13.0733 10.72 12 10.72ZM12 2.66666C12.3667 2.66666 12.6667 2.96666 12.6667 3.33333C12.6667 3.7 12.3667 3.99999 12 3.99999C11.6333 3.99999 11.3333 3.7 11.3333 3.33333C11.3333 2.96666 11.6333 2.66666 12 2.66666ZM4 8.66666C3.63333 8.66666 3.33333 8.36666 3.33333 8C3.33333 7.63333 3.63333 7.33333 4 7.33333C4.36667 7.33333 4.66667 7.63333 4.66667 8C4.66667 8.36666 4.36667 8.66666 4 8.66666ZM12 13.3467C11.6333 13.3467 11.3333 13.0467 11.3333 12.68C11.3333 12.3133 11.6333 12.0133 12 12.0133C12.3667 12.0133 12.6667 12.3133 12.6667 12.68C12.6667 13.0467 12.3667 13.3467 12 13.3467Z" fill="#080C12"/>
</svg>
