<svg width="16" height="16" viewBox="0 0 16 16" fill="none" xmlns="http://www.w3.org/2000/svg">
<path d="M10.3666 8.66665C10.8666 8.66665 11.3066 8.39331 11.5333 7.97998L13.92 3.65331C14.1666 3.21331 13.8466 2.66665 13.34 2.66665H3.47329L2.84663 1.33331H0.666626V2.66665H1.99996L4.39996 7.72665L3.49996 9.35331C3.01329 10.2466 3.65329 11.3333 4.66663 11.3333H12.6666V9.99998H4.66663L5.39996 8.66665H10.3666ZM4.10663 3.99998H12.2066L10.3666 7.33331H5.68663L4.10663 3.99998ZM4.66663 12C3.93329 12 3.33996 12.6 3.33996 13.3333C3.33996 14.0666 3.93329 14.6666 4.66663 14.6666C5.39996 14.6666 5.99996 14.0666 5.99996 13.3333C5.99996 12.6 5.39996 12 4.66663 12ZM11.3333 12C10.6 12 10.0066 12.6 10.0066 13.3333C10.0066 14.0666 10.6 14.6666 11.3333 14.6666C12.0666 14.6666 12.6666 14.0666 12.6666 13.3333C12.6666 12.6 12.0666 12 11.3333 12Z" fill="#080C12"/>
</svg>
