<svg width="16" height="16" viewBox="0 0 16 16" fill="none" xmlns="http://www.w3.org/2000/svg">
<path d="M14.6002 5.92667L13.9002 3.01333C13.7535 2.41333 13.2335 2 12.6268 2H3.36682C2.76682 2 2.24016 2.42 2.10016 3.01333L1.40016 5.92667C1.24016 6.60667 1.38682 7.3 1.81349 7.84667C1.86682 7.92 1.94016 7.97333 2.00016 8.04V12.6667C2.00016 13.4 2.60016 14 3.33349 14H12.6668C13.4002 14 14.0002 13.4 14.0002 12.6667V8.04C14.0602 7.98 14.1335 7.92 14.1868 7.85333C14.6135 7.30667 14.7668 6.60667 14.6002 5.92667ZM12.6068 3.32667L13.3068 6.24C13.3735 6.52 13.3135 6.8 13.1402 7.02C13.0468 7.14 12.8468 7.33333 12.5135 7.33333C12.1068 7.33333 11.7535 7.00667 11.7068 6.57333L11.3202 3.33333L12.6068 3.32667ZM8.66682 3.33333H9.97349L10.3335 6.34667C10.3668 6.60667 10.2868 6.86667 10.1135 7.06C9.96682 7.23333 9.75349 7.33333 9.48016 7.33333C9.03349 7.33333 8.66682 6.94 8.66682 6.46V3.33333ZM5.66016 6.34667L6.02682 3.33333H7.33349V6.46C7.33349 6.94 6.96682 7.33333 6.47349 7.33333C6.24682 7.33333 6.04016 7.23333 5.88016 7.06C5.71349 6.86667 5.63349 6.60667 5.66016 6.34667ZM2.69349 6.24L3.36682 3.33333H4.68016L4.29349 6.57333C4.24016 7.00667 3.89349 7.33333 3.48682 7.33333C3.16016 7.33333 2.95349 7.14 2.86682 7.02C2.68682 6.80667 2.62682 6.52 2.69349 6.24ZM3.33349 12.6667V8.64667C3.38682 8.65333 3.43349 8.66667 3.48682 8.66667C4.06682 8.66667 4.59349 8.42667 4.98016 8.03333C5.38016 8.43333 5.91349 8.66667 6.52016 8.66667C7.10016 8.66667 7.62016 8.42667 8.00682 8.04667C8.40016 8.42667 8.93349 8.66667 9.53349 8.66667C10.0935 8.66667 10.6268 8.43333 11.0268 8.03333C11.4135 8.42667 11.9402 8.66667 12.5202 8.66667C12.5735 8.66667 12.6202 8.65333 12.6735 8.64667V12.6667H3.33349Z" fill="#080C12"/>
</svg>
