<svg width="16" height="16" viewBox="0 0 16 16" fill="none" xmlns="http://www.w3.org/2000/svg">
<path d="M7.99996 3.99999C10.5266 3.99999 12.78 5.41999 13.88 7.66666C12.78 9.91332 10.5266 11.3333 7.99996 11.3333C5.47329 11.3333 3.21996 9.91332 2.11996 7.66666C3.21996 5.41999 5.47329 3.99999 7.99996 3.99999ZM7.99996 2.66666C4.66663 2.66666 1.81996 4.73999 0.666626 7.66666C1.81996 10.5933 4.66663 12.6667 7.99996 12.6667C11.3333 12.6667 14.18 10.5933 15.3333 7.66666C14.18 4.73999 11.3333 2.66666 7.99996 2.66666ZM7.99996 5.99999C8.91996 5.99999 9.66663 6.74666 9.66663 7.66666C9.66663 8.58666 8.91996 9.33332 7.99996 9.33332C7.07996 9.33332 6.33329 8.58666 6.33329 7.66666C6.33329 6.74666 7.07996 5.99999 7.99996 5.99999ZM7.99996 4.66666C6.34663 4.66666 4.99996 6.01332 4.99996 7.66666C4.99996 9.31999 6.34663 10.6667 7.99996 10.6667C9.65329 10.6667 11 9.31999 11 7.66666C11 6.01332 9.65329 4.66666 7.99996 4.66666Z" fill="#080C12"/>
</svg>
