<?xml version="1.0" encoding="utf-8"?>
<!-- Generator: Adobe Illustrator 23.1.1, SVG Export Plug-In . SVG Version: 6.00 Build 0)  -->
<svg version="1.1" id="Calque_2" xmlns="http://www.w3.org/2000/svg" xmlns:xlink="http://www.w3.org/1999/xlink" x="0px" y="0px"
	 viewBox="0 0 250 180" style="enable-background:new 0 0 250 180;" xml:space="preserve">
<style type="text/css">
	.st0{fill:url(#SVGID_1_);}
	.st1{fill:url(#SVGID_2_);}
	.st2{fill:url(#SVGID_3_);}
	.st3{fill:#FFFFFF;}
</style>
<g>
	<linearGradient id="SVGID_1_" gradientUnits="userSpaceOnUse" x1="186.4874" y1="76.1214" x2="186.4874" y2="132.6127">
		<stop  offset="0" style="stop-color:#EFE8F2"/>
		<stop  offset="0.4845" style="stop-color:#DDD6E7"/>
		<stop  offset="0.8748" style="stop-color:#D4CDE2"/>
	</linearGradient>
	<path class="st0" d="M210.2,76.1c-14.8,0-18.4,16-24.5,42.4c-8.5-5.4-2.2-38.1-21-38.1c-2.7,0-5.7,0.7-9.5,2.1
		c12,23,9.8,50,32.6,50c2,0,3.9-0.2,6.1-0.5l23.7-54.8C214.9,76.6,212.4,76.1,210.2,76.1z"/>
	<linearGradient id="SVGID_2_" gradientUnits="userSpaceOnUse" x1="60.0063" y1="76.1214" x2="60.0063" y2="132.6127">
		<stop  offset="0" style="stop-color:#EFE8F2"/>
		<stop  offset="0.4845" style="stop-color:#DDD6E7"/>
		<stop  offset="0.8748" style="stop-color:#D4CDE2"/>
	</linearGradient>
	<path class="st1" d="M59.3,118.5c-8.5-5.4-2.2-38.1-21-38.1c-2.7,0-5.7,0.7-9.5,2.1c12,23,9.8,50,32.6,50c2,0,3.9-0.2,6.1-0.5
		l23.7-54.8c-2.9-0.7-5.4-1.2-7.5-1.2C68.9,76.1,65.3,92.1,59.3,118.5z"/>
	<linearGradient id="SVGID_3_" gradientUnits="userSpaceOnUse" x1="123.336" y1="76.1214" x2="123.336" y2="154.912">
		<stop  offset="0" style="stop-color:#EFE8F2"/>
		<stop  offset="0.4845" style="stop-color:#DDD6E7"/>
		<stop  offset="0.8748" style="stop-color:#D4CDE2"/>
	</linearGradient>
	<path class="st2" d="M121.8,119.5c-5.7-9.5-2-39.1-19.2-39.1c-2.7,0-5.7,0.7-9.5,2.1c10.6,20.4,9.8,44,25.5,49.1
		c-1.5,5.1-3.7,9.9-6.9,9.9c-2.5,0-5.2-0.8-8-0.8c-6.8,0-8.7,3-10.9,9.6c5.7,3.1,10.9,4.6,15.3,4.6c10.5,0,18.4-9.5,23.7-22.8
		c3.3-8.3,21.9-54.8,21.9-54.8c-2.1-0.7-4.1-1.2-5.7-1.2C132.3,76.1,129,92.3,121.8,119.5z"/>
</g>
<g>
	<path class="st3" d="M28.3,54.8c0-6.2,4.1-11.2,10.6-11.2c4.2,0,7.1,2.1,8.6,4.9l-1.9,1.2c-1.2-2.1-3.2-4-6.8-4
		c-4.9,0-8.2,3.8-8.2,9.1c0,5.3,3.3,9.1,8.4,9.1c4,0,7-2.8,7-7.3h-6.8v-2.1h9v11.1h-1.6L46,62.5c-1.9,2.3-4.5,3.5-7.1,3.5
		C32.3,66,28.3,61,28.3,54.8z"/>
	<path class="st3" d="M65,44h9.1c3.9,0,6.9,3,6.9,6.8c0,5-4.8,6.6-4.8,6.6l5.9,8.2h-2.5l-5.8-8h-6.6v8H65V44z M74.1,55.5
		c2.2,0,4.7-1.8,4.7-4.7c0-2.9-2.5-4.7-4.7-4.7h-6.9v9.4H74.1z"/>
	<path class="st3" d="M96.5,54.8c0-6.2,4.1-11.2,10.6-11.2c6.6,0,10.6,5,10.6,11.2c0,6.2-4.2,11.2-10.6,11.2
		C100.8,66,96.5,61,96.5,54.8z M115.5,54.8c0-5.3-3.3-9.1-8.4-9.1c-5.1,0-8.4,3.8-8.4,9.1c0,5.3,3.3,9.1,8.4,9.1
		C112.2,63.9,115.5,60.1,115.5,54.8z"/>
	<path class="st3" d="M134.7,57.4V44h2.2v12.9c0,4.7,3.3,7,6.7,7c3.3,0,6.7-2.3,6.7-7V44h2.2v13.4c0,4.2-3.3,8.6-8.9,8.6
		C138,66,134.7,61.7,134.7,57.4z"/>
	<path class="st3" d="M170.7,44h8.5c3.4,0,7.1,1.9,7.1,7s-3.8,7-7.1,7h-6.3v7.6h-2.2V44z M179.3,55.9c2.3,0,4.9-1.3,4.9-4.9
		s-2.6-4.9-4.9-4.9h-6.3v9.8H179.3z"/>
	<path class="st3" d="M204.6,44h13.1v2.1h-10.9v7.3h10.2v2.1h-10.2v8.1h10.9v2.1h-13.1V44z"/>
</g>
</svg>
