<?xml version="1.0" encoding="utf-8"?>
<!-- Generator: Adobe Illustrator 23.1.1, SVG Export Plug-In . SVG Version: 6.00 Build 0)  -->
<svg version="1.1" id="Calque_1" xmlns="http://www.w3.org/2000/svg" xmlns:xlink="http://www.w3.org/1999/xlink" x="0px" y="0px"
	 viewBox="0 0 256 170.4" style="enable-background:new 0 0 256 170.4;" xml:space="preserve">
<style type="text/css">
	.st0{fill:url(#SVGID_1_);}
	.st1{fill:url(#SVGID_2_);}
	.st2{fill:url(#SVGID_3_);}
	.st3{fill:#A2A2A1;}
</style>
<g>
	<g>
		<linearGradient id="SVGID_1_" gradientUnits="userSpaceOnUse" x1="190.4696" y1="70.8524" x2="190.4696" y2="127.3438">
			<stop  offset="0" style="stop-color:#6A278D"/>
			<stop  offset="0.5387" style="stop-color:#521E8A"/>
			<stop  offset="0.8748" style="stop-color:#491B89"/>
		</linearGradient>
		<path class="st0" d="M214.2,70.9c-14.8,0-18.4,16-24.5,42.4c-8.5-5.4-2.2-38.1-21-38.1c-2.7,0-5.7,0.7-9.5,2.1
			c12,23,9.8,50,32.6,50c2,0,3.9-0.2,6.1-0.5L221.7,72C218.8,71.3,216.3,70.9,214.2,70.9z"/>
		<linearGradient id="SVGID_2_" gradientUnits="userSpaceOnUse" x1="63.9884" y1="70.8524" x2="63.9884" y2="127.3438">
			<stop  offset="0" style="stop-color:#6A278D"/>
			<stop  offset="0.5387" style="stop-color:#521E8A"/>
			<stop  offset="0.8748" style="stop-color:#491B89"/>
		</linearGradient>
		<path class="st1" d="M63.3,113.2c-8.5-5.4-2.2-38.1-21-38.1c-2.7,0-5.7,0.7-9.5,2.1c12,23,9.8,50,32.6,50c2,0,3.9-0.2,6.1-0.5
			L95.2,72c-2.9-0.7-5.4-1.2-7.5-1.2C72.9,70.9,69.3,86.9,63.3,113.2z"/>
		<linearGradient id="SVGID_3_" gradientUnits="userSpaceOnUse" x1="127.3182" y1="70.8524" x2="127.3182" y2="149.643">
			<stop  offset="0" style="stop-color:#6A278D"/>
			<stop  offset="0.5387" style="stop-color:#521E8A"/>
			<stop  offset="0.8748" style="stop-color:#491B89"/>
		</linearGradient>
		<path class="st2" d="M125.8,114.3c-5.7-9.5-2-39.1-19.2-39.1c-2.7,0-5.7,0.7-9.5,2.1c10.6,20.4,9.8,44,25.5,49.1
			c-1.5,5.1-3.7,9.9-6.9,9.9c-2.5,0-5.2-0.8-8-0.8c-6.8,0-8.7,3-10.9,9.6c5.7,3.1,10.9,4.6,15.3,4.6c10.5,0,18.4-9.5,23.7-22.8
			c3.3-8.3,21.9-54.8,21.9-54.8c-2.1-0.7-4.1-1.2-5.7-1.2C136.3,70.9,133,87,125.8,114.3z"/>
	</g>
	<g>
		<path class="st3" d="M32.3,49.6c0-6.2,4.1-11.2,10.6-11.2c4.2,0,7.1,2.1,8.6,4.9l-1.9,1.2c-1.2-2.1-3.2-4-6.8-4
			c-4.9,0-8.2,3.8-8.2,9.1c0,5.3,3.3,9.1,8.4,9.1c4,0,7-2.8,7-7.3h-6.8v-2.1h9v11.1h-1.6L50,57.3c-1.9,2.3-4.5,3.5-7.1,3.5
			C36.3,60.7,32.3,55.7,32.3,49.6z"/>
		<path class="st3" d="M69,38.7h9.1c3.9,0,6.9,3,6.9,6.8c0,5-4.8,6.6-4.8,6.6l5.9,8.2h-2.5l-5.8-8h-6.6v8H69V38.7z M78.1,50.2
			c2.2,0,4.7-1.8,4.7-4.7c0-2.9-2.5-4.7-4.7-4.7h-6.9v9.4H78.1z"/>
		<path class="st3" d="M100.5,49.6c0-6.2,4.1-11.2,10.6-11.2c6.6,0,10.6,5,10.6,11.2c0,6.2-4.2,11.2-10.6,11.2
			C104.8,60.7,100.5,55.7,100.5,49.6z M119.5,49.6c0-5.3-3.3-9.1-8.4-9.1c-5.1,0-8.4,3.8-8.4,9.1c0,5.3,3.3,9.1,8.4,9.1
			C116.2,58.6,119.5,54.8,119.5,49.6z"/>
		<path class="st3" d="M138.7,52.2V38.7h2.2v12.9c0,4.7,3.3,7,6.7,7c3.3,0,6.7-2.3,6.7-7V38.7h2.2v13.4c0,4.2-3.3,8.6-8.9,8.6
			C142,60.7,138.7,56.4,138.7,52.2z"/>
		<path class="st3" d="M174.7,38.7h8.5c3.4,0,7.1,1.9,7.1,7s-3.8,7-7.1,7h-6.3v7.6h-2.2V38.7z M183.2,50.7c2.3,0,4.9-1.3,4.9-4.9
			s-2.6-4.9-4.9-4.9h-6.3v9.8H183.2z"/>
		<path class="st3" d="M208.6,38.7h13.1v2.1h-10.9v7.3h10.2v2.1h-10.2v8.1h10.9v2.1h-13.1V38.7z"/>
	</g>
</g>
</svg>
