<?xml version="1.0" encoding="iso-8859-1"?>
<svg xmlns="http://www.w3.org/2000/svg" xmlns:xlink="http://www.w3.org/1999/xlink" version="1.1" id="Layer_1" x="0px" y="0px" viewBox="0 0 508.587 508.587" style="enable-background:new 0 0 508.587 508.587;" xml:space="preserve" width="512px" height="512px">
<g transform="translate(2 2)">
	<path d="M405.775,198.222l100.812-73.929l-143.36-86.187l-101.973,67.982L159.28,38.107L-2,123.44l102.123,78.672l-85.056,78.341    l83.627,48.82v33.953c0,2.56,1.707,5.12,4.267,6.827l142.365,92.956c0.711,1.021,1.624,1.899,2.702,2.617    c1.707,0.853,2.56,0.853,4.267,0.853c1.04,0,1.763-0.003,2.555-0.582c0.701-0.314,1.305-0.718,1.711-1.124l145.067-93.867    c2.56-0.853,4.267-4.267,4.267-6.827v-40.566l83.627-53.3L405.775,198.222z M251.993,276.968l-121.453-74.896l130.087-75.884    l113.804,71.876L251.993,276.968z M335.92,347.867l-69.12-59.733l123.733-79.36l69.973,60.587L335.92,347.867z M363.227,58.587    L475.867,126l-83.337,60.836l-0.29-0.249l-2.184,1.407l-113.458-71.123l0.442-0.258l-0.427-0.284L363.227,58.587z M157.573,58.587    l87.04,58.027l-130.56,75.093L28.72,126.853L157.573,58.587z M114.907,212.187l122.847,75.402l-67.38,62.838l-58.88-34.133    c-0.448-0.299-0.928-0.526-1.42-0.72L44.08,277.04L114.907,212.187z M115.76,339.333l51.2,29.867    c0.642,0.481,1.314,0.842,1.999,1.093l3.975,2.32l25.837-24.178l44.99-41.529v135.68l-128-83.627V339.333z M339.333,366.64    l49.493-31.573v24.747l-128,82.773V306.053l68.267,59.733c0.911,0.911,2.041,1.492,3.269,1.793l1.851,1.62l2.591-1.651    C337.672,367.347,338.527,367.043,339.333,366.64z" fill="#404852"/>
</g>
</svg>
