<?xml version="1.0" encoding="UTF-8"?>
<svg width="17px" height="17px" viewBox="0 0 17 17" version="1.1" xmlns="http://www.w3.org/2000/svg" xmlns:xlink="http://www.w3.org/1999/xlink">
    <defs></defs>
    <g id="wpfd_icon" stroke="none" stroke-width="1" fill="none" fill-rule="evenodd">
        <g id="wpfd_icon_remove" transform="translate(-1213.000000, -31.000000)">
            <g id="Group-36" transform="translate(544.000000, 0.000000)">
                <g id="Group-34" transform="translate(46.000000, 25.000000)">
                    <g id="Group-10-Copy-5" transform="translate(620.000000, 3.000000)">
                        <g id="Uncheck">
                            <g id="Bounding_Boxes">
                                <polygon id="Shape" points="0 0 24 0 24 24 0 24"></polygon>
                                <g id="outline-remove_circle_outline-24px" transform="translate(2.000000, 2.000000)">
                                    <g id="Bounding_Boxes">
                                        <polygon id="Shape" points="0 0 20 0 20 20 0 20"></polygon>
                                    </g>
                                    <g id="Outline" transform="translate(1.000000, 1.000000)" fill="#5F879B" fill-rule="nonzero">
                                        <path d="M4.25,7.65 L4.25,9.35 L12.75,9.35 L12.75,7.65 L4.25,7.65 Z M8.5,0 C3.808,0 0,3.808 0,8.5 C0,13.192 3.808,17 8.5,17 C13.192,17 17,13.192 17,8.5 C17,3.808 13.192,0 8.5,0 Z M8.5,15.3 C4.7515,15.3 1.7,12.2485 1.7,8.5 C1.7,4.7515 4.7515,1.7 8.5,1.7 C12.2485,1.7 15.3,4.7515 15.3,8.5 C15.3,12.2485 12.2485,15.3 8.5,15.3 Z" id="Shape"></path>
                                    </g>
                                </g>
                            </g>
                        </g>
                    </g>
                </g>
            </g>
        </g>
    </g>
</svg>