<?xml version="1.0" encoding="iso-8859-1"?>
<svg xmlns="http://www.w3.org/2000/svg" xmlns:xlink="http://www.w3.org/1999/xlink" version="1.1" id="Capa_1" x="0px" y="0px" viewBox="0 0 512 512" style="enable-background:new 0 0 512 512;" xml:space="preserve" width="512px" height="512px">

<g>
	<path d="M450.959,275.302c-4.8-31.303-25.794-57.333-54.127-69.272C396.095,140.822,342.829,88,277.45,88    c-32.78,0-63.667,13.272-86.141,36.72c-6.484-1.276-13.082-1.92-19.709-1.92c-51.554,0-94.297,38.443-101.066,88.169    C30.558,217.688,0,252.543,0,294.4C0,341.048,37.952,379,84.6,379h28.681c11.597,26.461,38.027,45,68.719,45h255    c41.355,0,75-33.645,75-75C512,312.413,485.669,281.861,450.959,275.302z M107,349H84.6C54.494,349,30,324.506,30,294.4    s24.494-54.6,54.6-54.6h15v-15c0-39.701,32.299-72,72-72c6.99,0,13.932,1.015,20.634,3.016l9.588,2.864l6.326-7.753    C225.224,130.001,250.483,118,277.45,118c46.502,0,84.819,35.689,89.013,81.115C364.984,199.042,363.497,199,362,199    c-5.471,0-10.917,0.497-16.281,1.483C326.024,180.367,299.198,169,270.75,169c-57.897,0-105,47.103-105,105    c0,0.589,0.005,1.179,0.015,1.77C132.188,283.208,107,313.218,107,349z M437,394H182c-24.813,0-45-20.187-45-45    s20.188-45,45.001-45h17.728l-2.935-17.483c-0.693-4.129-1.044-8.341-1.044-12.517c0-41.355,33.645-75,75-75    c22.623,0,43.814,10.069,58.14,27.625l6.327,7.752l9.587-2.864C350.388,229.846,356.173,229,362,229c33.084,0,60,26.916,60,60v15    h15c24.813,0,45,20.187,45,45S461.813,394,437,394z" fill="#404852"/>
</g>

</svg>
