<?xml version="1.0" encoding="iso-8859-1"?>
<svg xmlns="http://www.w3.org/2000/svg" xmlns:xlink="http://www.w3.org/1999/xlink" version="1.1" id="Layer_1" x="0px" y="0px" viewBox="0 0 512.568 512.568" style="enable-background:new 0 0 512.568 512.568;" xml:space="preserve" width="512px" height="512px">
<g transform="translate(1 1)">
		<path d="M510.266,329.047L336.707,33.996c-1.736-2.603-4.339-4.339-7.81-4.339H172.694c-3.471,0-6.075,1.736-7.81,3.471    L0.002,310.823c-0.868,2.603-1.736,6.075,0,8.678l76.873,153.745c0.15,1.172,0.555,2.315,1.229,3.326    c0.691,1.036,1.66,1.926,2.737,2.632c1.413,1.125,3.098,1.707,5.074,1.707h338.441c3.471,0,6.075-1.736,7.81-4.339l78.102-138.847    C512.002,335.121,512.002,331.65,510.266,329.047z M487.704,324.708H342.782L253.736,165.52c-0.169-1.061-0.568-2.134-1.205-3.09    L187.804,47.013H323.69L487.704,324.708z M322.491,324.708H172.453l72.205-139.28L322.491,324.708z M172.417,56.155l35.248,63.076    l26.642,48.406l-83.309,160.285c-0.307,0.355-0.601,0.726-0.867,1.125l-64.294,123.94L17.358,316.03L172.417,56.155z     M419.148,463.555H100.472l62.983-121.492h174.12h150.129L419.148,463.555z" fill="#404852"/>
</g>
</svg>
