<?xml version="1.0" encoding="UTF-8"?>
<svg width="20px" height="20px" viewBox="0 0 20 20" version="1.1" xmlns="http://www.w3.org/2000/svg" xmlns:xlink="http://www.w3.org/1999/xlink">
    <defs></defs>
    <g id="wpfd_icon" stroke="none" stroke-width="1" fill="none" fill-rule="evenodd">
        <g id="wpfd_icon_paste" transform="translate(-763.000000, -31.000000)">
            <g id="Group-36" transform="translate(544.000000, 0.000000)">
                <g id="Group-34" transform="translate(46.000000, 25.000000)">
                    <g id="Group-10-Copy-2" transform="translate(171.000000, 3.000000)">
                        <g id="Paste">
                            <g id="paste-item" transform="translate(2.000000, 3.000000)" fill="#5F879B" fill-rule="nonzero">
                                <path d="M15.5543333,19.7223333 L0.832333333,19.7223333 C0.402,19.7223333 0.0533333333,19.3736667 0.0533333333,18.9433333 L0.0533333333,4.22166667 C0.0533333333,3.79133333 0.402,3.44266667 0.832333333,3.44266667 L15.5543333,3.44266667 C15.9846667,3.44266667 16.3333333,3.79166667 16.3333333,4.22166667 L16.3333333,18.9433333 C16.3333333,19.3733333 15.9846667,19.7223333 15.5543333,19.7223333 Z M1.61133333,18.164 L14.775,18.164 L14.775,5.00066667 L1.61133333,5.00066667 L1.61133333,18.164 Z" id="Shape"></path>
                                <path d="M18.89,16.28 L17.3083333,16.28 C16.878,16.28 16.5293333,15.931 16.5293333,15.501 C16.5293333,15.0706667 16.878,14.722 17.3083333,14.722 L18.111,14.722 L18.111,1.55833333 L4.947,1.55833333 L4.947,2.425 C4.947,2.85533333 4.59833333,3.204 4.168,3.204 C3.73766667,3.204 3.389,2.855 3.389,2.425 L3.389,0.779 C3.389,0.349 3.73766667,0 4.168,0 L18.89,0 C19.3203333,0 19.669,0.349 19.669,0.779 L19.669,15.501 C19.669,15.931 19.3203333,16.28 18.89,16.28 Z" id="Shape"></path>
                            </g>
                        </g>
                    </g>
                </g>
            </g>
        </g>
    </g>
</svg>