<?xml version="1.0" encoding="UTF-8"?>
<svg id="Calque_1" data-name="Calque 1" xmlns="http://www.w3.org/2000/svg" xmlns:xlink="http://www.w3.org/1999/xlink" viewBox="0 0 292.09 71">
  <defs>
    <style>
      .cls-1 {
        clip-path: url(#clippath);
      }

      .cls-2 {
        fill: none;
      }

      .cls-2, .cls-3, .cls-4, .cls-5, .cls-6, .cls-7, .cls-8, .cls-9, .cls-10, .cls-11 {
        stroke-width: 0px;
      }

      .cls-3 {
        fill: url(#Dégradé_sans_nom);
      }

      .cls-3, .cls-4, .cls-5, .cls-6, .cls-7, .cls-8, .cls-9, .cls-10, .cls-11 {
        isolation: isolate;
        opacity: .2;
      }

      .cls-12 {
        clip-path: url(#clippath-1);
      }

      .cls-4 {
        fill: url(#Dégradé_sans_nom_2);
      }

      .cls-5 {
        fill: url(#Dégradé_sans_nom_3);
      }

      .cls-6 {
        fill: url(#Dégradé_sans_nom_5);
      }

      .cls-7 {
        fill: url(#Dégradé_sans_nom_9);
      }

      .cls-8 {
        fill: url(#Dégradé_sans_nom_6);
      }

      .cls-9 {
        fill: url(#Dégradé_sans_nom_7);
      }

      .cls-10 {
        fill: url(#Dégradé_sans_nom_4);
      }

      .cls-11 {
        fill: url(#Dégradé_sans_nom_10);
      }

      .cls-13 {
        opacity: .3;
      }
    </style>
    <clipPath id="clippath">
      <rect class="cls-2" x="-85.91" y="0" width="378" height="71"/>
    </clipPath>
    <clipPath id="clippath-1">
      <rect class="cls-2" x="-85.91" y="-268" width="423.7" height="625.8"/>
    </clipPath>
    <linearGradient id="Dégradé_sans_nom" data-name="Dégradé sans nom" x1="323.62" y1="824.75" x2="22.09" y2="824.75" gradientTransform="translate(0 -770)" gradientUnits="userSpaceOnUse">
      <stop offset=".04" stop-color="#0a53cc"/>
      <stop offset=".9" stop-color="#007aff"/>
    </linearGradient>
    <linearGradient id="Dégradé_sans_nom_2" data-name="Dégradé sans nom 2" x1="300.64" y1="828.95" x2="-.89" y2="828.95" gradientTransform="translate(0 -770)" gradientUnits="userSpaceOnUse">
      <stop offset=".04" stop-color="#0a53cc"/>
      <stop offset=".9" stop-color="#007aff"/>
    </linearGradient>
    <linearGradient id="Dégradé_sans_nom_3" data-name="Dégradé sans nom 3" x1="297.25" y1="778.27" x2="-4.28" y2="778.27" gradientTransform="translate(0 -770)" gradientUnits="userSpaceOnUse">
      <stop offset=".04" stop-color="#0a53cc"/>
      <stop offset=".9" stop-color="#007aff"/>
    </linearGradient>
    <linearGradient id="Dégradé_sans_nom_4" data-name="Dégradé sans nom 4" x1="310.9" y1="792.87" x2="9.37" y2="792.87" gradientTransform="translate(0 -770)" gradientUnits="userSpaceOnUse">
      <stop offset=".04" stop-color="#0a53cc"/>
      <stop offset=".9" stop-color="#007aff"/>
    </linearGradient>
    <linearGradient id="Dégradé_sans_nom_5" data-name="Dégradé sans nom 5" x1="331.73" y1="814.2" x2="30.2" y2="814.2" gradientTransform="translate(0 -770)" gradientUnits="userSpaceOnUse">
      <stop offset=".04" stop-color="#0a53cc"/>
      <stop offset=".9" stop-color="#007aff"/>
    </linearGradient>
    <linearGradient id="Dégradé_sans_nom_6" data-name="Dégradé sans nom 6" x1="296.53" y1="825.2" x2="-5" y2="825.2" gradientTransform="translate(0 -770)" gradientUnits="userSpaceOnUse">
      <stop offset=".04" stop-color="#0a53cc"/>
      <stop offset=".9" stop-color="#007aff"/>
    </linearGradient>
    <linearGradient id="Dégradé_sans_nom_7" data-name="Dégradé sans nom 7" x1="299.15" y1="791.3" x2="-2.38" y2="791.3" gradientTransform="translate(0 -770)" gradientUnits="userSpaceOnUse">
      <stop offset=".04" stop-color="#0a53cc"/>
      <stop offset=".9" stop-color="#007aff"/>
    </linearGradient>
    <linearGradient id="Dégradé_sans_nom_9" data-name="Dégradé sans nom 9" x1="296.53" y1="768.7" x2="-5" y2="768.7" gradientTransform="translate(0 -770)" gradientUnits="userSpaceOnUse">
      <stop offset=".04" stop-color="#0a53cc"/>
      <stop offset=".9" stop-color="#007aff"/>
    </linearGradient>
    <linearGradient id="Dégradé_sans_nom_10" data-name="Dégradé sans nom 10" x1="296.53" y1="806.5" x2="-5" y2="806.5" gradientTransform="translate(0 -770)" gradientUnits="userSpaceOnUse">
      <stop offset=".04" stop-color="#0a53cc"/>
      <stop offset=".9" stop-color="#007aff"/>
    </linearGradient>
  </defs>
  <g class="cls-1">
    <g class="cls-12">
      <g class="cls-13">
        <path class="cls-3" d="m53.49,62c-4,.2-7.4-2.8-7.7-6.8-.2-4,2.8-7.4,6.8-7.7,4-.2,7.4,2.8,7.7,6.8.2,4-2.8,7.5-6.8,7.7Zm-3.8-7c.1,1.8,1.7,3.2,3.5,3.1,1.8-.1,3.2-1.7,3.1-3.5-.1-1.8-1.7-3.2-3.5-3.1-1.8,0-3.2,1.6-3.1,3.5Z"/>
        <path class="cls-4" d="m124.49,57c1.1,6.2-3.1,12.1-9.3,13.2s-12.1-3.1-13.2-9.3,3.1-12.1,9.3-13.2c6.3-1.1,12.2,3.1,13.2,9.3Zm-10.3,7.1c2.9-.5,4.8-3.2,4.3-6.1-.5-2.9-3.2-4.8-6.1-4.3-2.9.5-4.8,3.2-4.3,6.1.5,2.9,3.2,4.8,6.1,4.3Z"/>
        <path class="cls-5" d="m23.79,15.8l-2.7-11.5c-.2-1,.4-2,1.4-2.3l11.6-2.7c1-.2,2,.4,2.3,1.4l2.7,11.5c.2,1-.4,2-1.4,2.3l-11.6,2.7c-1.1.3-2.1-.4-2.3-1.4Zm1.3-10.6l1.9,7.9,7.9-1.9-1.9-7.9-7.9,1.9Z"/>
        <path class="cls-10" d="m83.69,12.4c.8.3,1.3.9,1.5,1.7l3.3,16.6c.2.8-.1,1.6-.7,2.2-.6.5-1.5.7-2.2.4l-16-5.5c-.8-.3-1.3-.9-1.5-1.7s.1-1.6.7-2.2l12.7-11.1c.5-.5,1.4-.6,2.2-.4Zm-.5,15.3l-1.7-8.8-6.8,5.9,8.5,2.9h0Z"/>
        <path class="cls-6" d="m15.49,38.8c.3.5.2,1.2-.1,1.6l-6.8,10.2c-.3.5-.9.8-1.5.7-.6,0-1.1-.4-1.4-.9L.29,39.4c-.3-.5-.2-1.2.1-1.6.3-.5.9-.8,1.5-.7l12.2.8c.6,0,1.1.4,1.4.9h0Zm-8.1,7.6l3.7-5.4-6.5-.4,2.8,5.8Z"/>
        <path class="cls-8" d="m284.59,31.6c13-3.8,26.7,3.6,30.5,16.7,3.8,13-3.7,26.7-16.7,30.5s-26.7-3.7-30.5-16.7,3.7-26.7,16.7-30.5h0Zm17.8,20.4c-1.8-6-8-9.4-14-7.7-6,1.8-9.4,8-7.7,14,1.8,6,8,9.4,14,7.7,6-1.7,9.4-8,7.7-14Z"/>
        <path class="cls-9" d="m210.49,23.9l16.4-26.7c1.4-2.3,4.5-3.1,6.8-1.6l26.7,16.3c2.3,1.4,3.1,4.5,1.6,6.8l-16.4,26.7c-1.4,2.3-4.5,3.1-6.8,1.6l-26.7-16.3c-2.3-1.4-3-4.5-1.6-6.8Zm22.2-17.3l-11.2,18.3,18.3,11.2,11.2-18.3-18.3-11.2Z"/>
        <path class="cls-7" d="m124.19-12c5.9-.3,11,4.2,11.4,10.1.3,5.9-4.2,11-10.1,11.3-5.9.3-11-4.2-11.3-10.1-.4-5.9,4.1-11,10-11.3Zm5.6,10.4c-.2-2.7-2.5-4.8-5.2-4.7-2.7.2-4.8,2.5-4.7,5.2.2,2.7,2.5,4.8,5.2,4.7,2.8-.1,4.9-2.5,4.7-5.2Z"/>
        <path class="cls-11" d="m173.69,19.5l11.2,19.3c1,1.7.4,3.8-1.3,4.8l-19.3,11.2c-1.7,1-3.8.4-4.8-1.3l-11.2-19.3c-1-1.7-.4-3.8,1.3-4.8l19.3-11.2c1.7-1,3.8-.4,4.8,1.3Zm-9.9,27.4l13.2-7.6-7.6-13.3-13.2,7.6,7.6,13.3Z"/>
      </g>
    </g>
  </g>
</svg>