<?xml version="1.0" encoding="utf-8"?>
<!-- Generator: Adobe Illustrator 27.9.0, SVG Export Plug-In . SVG Version: 6.00 Build 0)  -->
<svg version="1.1" id="Calque_1" xmlns="http://www.w3.org/2000/svg" xmlns:xlink="http://www.w3.org/1999/xlink" x="0px" y="0px"
	 viewBox="0 0 378 71" style="enable-background:new 0 0 378 71;" xml:space="preserve">
<style type="text/css">
	.st0{clip-path:url(#SVGID_00000145052846137165375150000002437404358084211123_);}
	.st1{opacity:0.3;clip-path:url(#SVGID_00000051377206781682572480000012623094634027872897_);}
	.st2{opacity:0.2;fill:url(#SVGID_00000033371349981122827180000009537663426443026050_);enable-background:new    ;}
	.st3{opacity:0.2;fill:url(#SVGID_00000118378762972371253910000009378418623122413962_);enable-background:new    ;}
	.st4{opacity:0.2;fill:url(#SVGID_00000099663342007376989430000000058755933876881335_);enable-background:new    ;}
	.st5{opacity:0.2;fill:url(#SVGID_00000065034919138483923110000009593356648893046928_);enable-background:new    ;}
	.st6{opacity:0.2;fill:url(#SVGID_00000070836676569380153600000016183949270742780306_);enable-background:new    ;}
	.st7{opacity:0.2;fill:url(#SVGID_00000121241486066684699740000017348349327870779024_);enable-background:new    ;}
	.st8{opacity:0.2;fill:url(#SVGID_00000134950764093671797830000012772811461634177702_);enable-background:new    ;}
	.st9{opacity:0.2;fill:url(#SVGID_00000132777219556151180080000012825092692401250200_);enable-background:new    ;}
	.st10{opacity:0.2;fill:url(#SVGID_00000070828863173887603870000004489540979370457515_);enable-background:new    ;}
	.st11{opacity:0.2;fill:url(#SVGID_00000051366717603205048100000014609939592957412529_);enable-background:new    ;}
</style>
<g>
	<defs>
		<rect id="SVGID_1_" width="378" height="71"/>
	</defs>
	<clipPath id="SVGID_00000058574606077335310170000015608417264302736801_">
		<use xlink:href="#SVGID_1_"  style="overflow:visible;"/>
	</clipPath>
	<g style="clip-path:url(#SVGID_00000058574606077335310170000015608417264302736801_);">
		<defs>
			<rect id="SVGID_00000015314406412743621020000005360012998800434601_" y="-268" width="423.7" height="625.8"/>
		</defs>
		<clipPath id="SVGID_00000021800582501644995210000002072586263803280050_">
			<use xlink:href="#SVGID_00000015314406412743621020000005360012998800434601_"  style="overflow:visible;"/>
		</clipPath>
		<g style="opacity:0.3;clip-path:url(#SVGID_00000021800582501644995210000002072586263803280050_);">
			
				<linearGradient id="SVGID_00000086658503280341827860000003192142443353041047_" gradientUnits="userSpaceOnUse" x1="409.533" y1="17.1306" x2="108.004" y2="17.1306" gradientTransform="matrix(1 0 0 -1 0 71.8898)">
				<stop  offset="4.000000e-02" style="stop-color:#0A53CC"/>
				<stop  offset="0.9" style="stop-color:#007AFF"/>
			</linearGradient>
			<path style="opacity:0.2;fill:url(#SVGID_00000086658503280341827860000003192142443353041047_);enable-background:new    ;" d="
				M139.4,62c-4,0.2-7.4-2.8-7.7-6.8c-0.2-4,2.8-7.4,6.8-7.7c4-0.2,7.4,2.8,7.7,6.8C146.4,58.3,143.4,61.8,139.4,62z M135.6,55
				c0.1,1.8,1.7,3.2,3.5,3.1c1.8-0.1,3.2-1.7,3.1-3.5c-0.1-1.8-1.7-3.2-3.5-3.1C136.9,51.5,135.5,53.1,135.6,55z"/>
			
				<linearGradient id="SVGID_00000025421585951172342730000000534469807494038671_" gradientUnits="userSpaceOnUse" x1="386.555" y1="12.9628" x2="85.0253" y2="12.9628" gradientTransform="matrix(1 0 0 -1 0 71.8898)">
				<stop  offset="4.000000e-02" style="stop-color:#0A53CC"/>
				<stop  offset="0.9" style="stop-color:#007AFF"/>
			</linearGradient>
			<path style="opacity:0.2;fill:url(#SVGID_00000025421585951172342730000000534469807494038671_);enable-background:new    ;" d="
				M210.4,57c1.1,6.2-3.1,12.1-9.3,13.2c-6.2,1.1-12.1-3.1-13.2-9.3s3.1-12.1,9.3-13.2C203.5,46.6,209.4,50.8,210.4,57z M200.1,64.1
				c2.9-0.5,4.8-3.2,4.3-6.1c-0.5-2.9-3.2-4.8-6.1-4.3c-2.9,0.5-4.8,3.2-4.3,6.1C194.5,62.7,197.2,64.6,200.1,64.1z"/>
			
				<linearGradient id="SVGID_00000151503848494959689520000006448563440014218921_" gradientUnits="userSpaceOnUse" x1="383.161" y1="63.6186" x2="81.632" y2="63.6186" gradientTransform="matrix(1 0 0 -1 0 71.8898)">
				<stop  offset="4.000000e-02" style="stop-color:#0A53CC"/>
				<stop  offset="0.9" style="stop-color:#007AFF"/>
			</linearGradient>
			<path style="opacity:0.2;fill:url(#SVGID_00000151503848494959689520000006448563440014218921_);enable-background:new    ;" d="
				M109.7,15.8L107,4.3c-0.2-1,0.4-2,1.4-2.3l11.6-2.7c1-0.2,2,0.4,2.3,1.4l2.7,11.5c0.2,1-0.4,2-1.4,2.3l-11.6,2.7
				C110.9,17.5,109.9,16.8,109.7,15.8z M111,5.2l1.9,7.9l7.9-1.9l-1.9-7.9L111,5.2z"/>
			
				<linearGradient id="SVGID_00000165934035976821136950000013986204737685204367_" gradientUnits="userSpaceOnUse" x1="396.812" y1="49.0394" x2="95.2825" y2="49.0394" gradientTransform="matrix(1 0 0 -1 0 71.8898)">
				<stop  offset="4.000000e-02" style="stop-color:#0A53CC"/>
				<stop  offset="0.9" style="stop-color:#007AFF"/>
			</linearGradient>
			<path style="opacity:0.2;fill:url(#SVGID_00000165934035976821136950000013986204737685204367_);enable-background:new    ;" d="
				M169.6,12.4c0.8,0.3,1.3,0.9,1.5,1.7l3.3,16.6c0.2,0.8-0.1,1.6-0.7,2.2c-0.6,0.5-1.5,0.7-2.2,0.4l-16-5.5
				c-0.8-0.3-1.3-0.9-1.5-1.7s0.1-1.6,0.7-2.2l12.7-11.1C167.9,12.3,168.8,12.2,169.6,12.4z M169.1,27.7l-1.7-8.8l-6.8,5.9
				L169.1,27.7L169.1,27.7z"/>
			
				<linearGradient id="SVGID_00000044860696316608622280000006177508401434056369_" gradientUnits="userSpaceOnUse" x1="417.646" y1="27.6778" x2="116.117" y2="27.6778" gradientTransform="matrix(1 0 0 -1 0 71.8898)">
				<stop  offset="4.000000e-02" style="stop-color:#0A53CC"/>
				<stop  offset="0.9" style="stop-color:#007AFF"/>
			</linearGradient>
			<path style="opacity:0.2;fill:url(#SVGID_00000044860696316608622280000006177508401434056369_);enable-background:new    ;" d="
				M101.4,38.8c0.3,0.5,0.2,1.2-0.1,1.6l-6.8,10.2c-0.3,0.5-0.9,0.8-1.5,0.7c-0.6,0-1.1-0.4-1.4-0.9l-5.4-11
				c-0.3-0.5-0.2-1.2,0.1-1.6c0.3-0.5,0.9-0.8,1.5-0.7l12.2,0.8C100.6,37.9,101.1,38.3,101.4,38.8L101.4,38.8z M93.3,46.4L97,41
				l-6.5-0.4L93.3,46.4z"/>
			
				<linearGradient id="SVGID_00000101076890234492197810000005131140577651891588_" gradientUnits="userSpaceOnUse" x1="382.443" y1="16.701" x2="80.9138" y2="16.701" gradientTransform="matrix(1 0 0 -1 0 71.8898)">
				<stop  offset="4.000000e-02" style="stop-color:#0A53CC"/>
				<stop  offset="0.9" style="stop-color:#007AFF"/>
			</linearGradient>
			<path style="opacity:0.2;fill:url(#SVGID_00000101076890234492197810000005131140577651891588_);enable-background:new    ;" d="
				M370.5,31.6c13-3.8,26.7,3.6,30.5,16.7c3.8,13-3.7,26.7-16.7,30.5c-13,3.8-26.7-3.7-30.5-16.7C350,49.1,357.5,35.4,370.5,31.6
				L370.5,31.6z M388.3,52c-1.8-6-8-9.4-14-7.7c-6,1.8-9.4,8-7.7,14c1.8,6,8,9.4,14,7.7C386.6,64.3,390,58,388.3,52z"/>
			
				<linearGradient id="SVGID_00000120538101652422921730000006845098722611108512_" gradientUnits="userSpaceOnUse" x1="385.065" y1="50.5867" x2="83.5357" y2="50.5867" gradientTransform="matrix(1 0 0 -1 0 71.8898)">
				<stop  offset="4.000000e-02" style="stop-color:#0A53CC"/>
				<stop  offset="0.9" style="stop-color:#007AFF"/>
			</linearGradient>
			<path style="opacity:0.2;fill:url(#SVGID_00000120538101652422921730000006845098722611108512_);enable-background:new    ;" d="
				M296.4,23.9l16.4-26.7c1.4-2.3,4.5-3.1,6.8-1.6l26.7,16.3c2.3,1.4,3.1,4.5,1.6,6.8l-16.4,26.7c-1.4,2.3-4.5,3.1-6.8,1.6L298,30.7
				C295.7,29.3,295,26.2,296.4,23.9z M318.6,6.6l-11.2,18.3l18.3,11.2l11.2-18.3L318.6,6.6z"/>
			
				<linearGradient id="SVGID_00000041271169963111274170000004996940374210058116_" gradientUnits="userSpaceOnUse" x1="291.7225" y1="47.7598" x2="369.6635" y2="-243.5222" gradientTransform="matrix(1 0 0 -1 0 71.8898)">
				<stop  offset="4.000000e-02" style="stop-color:#175CD3"/>
				<stop  offset="0.9" style="stop-color:#156FEE"/>
			</linearGradient>
			<path style="opacity:0.2;fill:url(#SVGID_00000041271169963111274170000004996940374210058116_);enable-background:new    ;" d="
				M327,77.5c0.7,1.4,0.7,3.1-0.2,4.5L309,110.1c-0.9,1.4-2.4,2.2-4,2.1c-1.6-0.1-3-1-3.8-2.4l-15.5-29.6c-0.7-1.4-0.7-3.1,0.2-4.5
				c0.9-1.4,2.4-2.2,4-2.1l33.3,1.4C324.8,75.1,326.3,76,327,77.5z M305.6,98.8l9.5-15L297.3,83L305.6,98.8L305.6,98.8z"/>
			
				<linearGradient id="SVGID_00000019648721544809613490000014228415095590464928_" gradientUnits="userSpaceOnUse" x1="382.443" y1="73.1915" x2="80.9139" y2="73.1915" gradientTransform="matrix(1 0 0 -1 0 71.8898)">
				<stop  offset="4.000000e-02" style="stop-color:#0A53CC"/>
				<stop  offset="0.9" style="stop-color:#007AFF"/>
			</linearGradient>
			<path style="opacity:0.2;fill:url(#SVGID_00000019648721544809613490000014228415095590464928_);enable-background:new    ;" d="
				M210.1-12c5.9-0.3,11,4.2,11.4,10.1c0.3,5.9-4.2,11-10.1,11.3c-5.9,0.3-11-4.2-11.3-10.1C199.7-6.6,204.2-11.7,210.1-12z
				 M215.7-1.6c-0.2-2.7-2.5-4.8-5.2-4.7c-2.7,0.2-4.8,2.5-4.7,5.2c0.2,2.7,2.5,4.8,5.2,4.7C213.8,3.5,215.9,1.1,215.7-1.6z"/>
			
				<linearGradient id="SVGID_00000068662500862234423110000000220584899227029393_" gradientUnits="userSpaceOnUse" x1="382.444" y1="35.4249" x2="80.9144" y2="35.4249" gradientTransform="matrix(1 0 0 -1 0 71.8898)">
				<stop  offset="4.000000e-02" style="stop-color:#0A53CC"/>
				<stop  offset="0.9" style="stop-color:#007AFF"/>
			</linearGradient>
			<path style="opacity:0.2;fill:url(#SVGID_00000068662500862234423110000000220584899227029393_);enable-background:new    ;" d="
				M259.6,19.5l11.2,19.3c1,1.7,0.4,3.8-1.3,4.8l-19.3,11.2c-1.7,1-3.8,0.4-4.8-1.3l-11.2-19.3c-1-1.7-0.4-3.8,1.3-4.8l19.3-11.2
				C256.5,17.2,258.6,17.8,259.6,19.5z M249.7,46.9l13.2-7.6L255.3,26l-13.2,7.6L249.7,46.9z"/>
		</g>
	</g>
</g>
</svg>
